<?xml version="1.0" standalone="no"?>
<!DOCTYPE svg PUBLIC "-//W3C//DTD SVG 1.1//EN" "http://www.w3.org/Graphics/SVG/1.1/DTD/svg11.dtd" >
<svg xmlns="http://www.w3.org/2000/svg">
<metadata>
Created by FontPrep 20130207 at Wed Jan 13 07:20:16 2016
 By Matthew Higley
Copyright (c) 2013 by Fort Foundry. All rights reserved.
</metadata>
<defs>
<font id="6949df70ac7436fe1c2e3d5e8ee12897" horiz-adv-x='1024' >
  <font-face 
    font-family="Industry-BoldItalic"
    font-weight="700"
    font-style="italic"
    font-stretch="normal"
    units-per-em="2048"
    panose-1="0 0 0 0 0 0 0 0 0 0"
    ascent="1618"
    descent="-430"
    x-height="1106"
    cap-height="1475"
    bbox="-399 -717 2105 1978"
    underline-thickness="102"
    underline-position="-100"
    slope="-56"
    unicode-range="U+0020-FB02"
  />
<missing-glyph horiz-adv-x="600" 
 />
    <glyph glyph-name=".notdef" horiz-adv-x="600" 
 />
    <glyph glyph-name=".null" horiz-adv-x="0" 
 />
    <glyph glyph-name="nonmarkingreturn" horiz-adv-x="681" 
 />
    <glyph glyph-name="space" unicode=" " horiz-adv-x="530" 
 />
    <glyph glyph-name="exclam" unicode="!" horiz-adv-x="552" 
d="M324 0h-287l51 299h287zM367 498h-201l113 977h319z" />
    <glyph glyph-name="quotedbl" unicode="&#x22;" horiz-adv-x="919" 
d="M975 1475l-164 -525h-147l18 525h293zM565 1475l-166 -525h-145l18 525h293z" />
    <glyph glyph-name="numbersign" unicode="#" horiz-adv-x="1593" 
d="M1047 879h-302l-129 -258h302zM1327 879l-129 -258h203l-47 -267h-287l-176 -354h-281l176 354h-301l-176 -354h-280l176 354h-174l47 267h258l129 258h-203l47 266h287l164 330h280l-163 -330h301l163 330h281l-164 -330h174l-47 -266h-258z" />
    <glyph glyph-name="dollar" unicode="$" horiz-adv-x="1253" 
d="M733 268q78 0 90 80l27 156q6 35 -2 44t-43 17l-68 17l-55 -314h51zM616 1202q-76 0 -92 -80l-24 -139q-6 -33 3 -43t44 -18l55 -15l51 295h-37zM776 -8h-127l-35 -201h-233l35 201h-92q-129 0 -196 84t-44 215l31 178h286l-24 -141q-6 -33 3 -46t44 -14h65l62 350
l-105 29q-126 35 -194 112t-45 193l43 250q20 127 109 204t216 77h113l35 200h233l-34 -200h82q126 0 194 -87t47 -214l-28 -162h-287l22 125q6 35 -2 47q-10 12 -39 12h-57l-57 -334l108 -30q127 -35 196 -113t48 -190l-47 -267q-20 -126 -108 -202t-218 -76z" />
    <glyph glyph-name="percent" unicode="%" horiz-adv-x="1249" 
d="M989 418h-98q-41 0 -51 -47l-39 -221q-6 -27 18 -27h99q14 0 25 7t15 42l43 219q6 27 -12 27zM762 -12q-59 0 -92 42t-25 99l55 311q23 121 142 121l194 -2q57 0 90 -43t25 -100l-55 -312q-8 -57 -45 -88q-39 -29 -93 -28h-196zM412 1339q-41 0 -52 -47l-38 -221
q-6 -27 18 -27h98q21 0 31 17q8 17 10 33l43 219q6 27 -12 26h-98zM1227 1473l-903 -1473h-246l903 1473h246zM479 907h-196q-57 0 -93 43q-33 43 -24 101l55 311q22 121 141 121l195 -2q57 0 90 -43t25 -101l-56 -311q-8 -57 -45 -88t-92 -31z" />
    <glyph glyph-name="ampersand" unicode="&#x26;" horiz-adv-x="1318" 
d="M537 625q-92 0 -105 -80l-37 -217q-6 -35 2 -47t43 -13h297q78 0 92 80l50 277h-342zM786 -4h-448q-129 0 -196 84t-44 215l43 250q25 150 178 221q-111 78 -86 221l39 217q25 131 112 206t214 75h363q127 0 195 -87t46 -214l-22 -133h-295l16 100q6 35 -2 47
q-10 12 -43 12h-211q-76 0 -92 -80l-33 -184q-6 -39 3 -50t42 -11h797l-47 -262l-141 2l-62 -351q-20 -126 -108 -202t-218 -76z" />
    <glyph glyph-name="quotesingle" unicode="'" horiz-adv-x="509" 
d="M565 1475l-166 -525h-145l18 525h293z" />
    <glyph glyph-name="parenleft" unicode="(" horiz-adv-x="788" 
d="M692 1327q-78 0 -92 -80l-199 -1126q-7 -33 3 -46t45 -14h167l-49 -276h-223q-126 0 -194 86t-46 213l220 1241q20 127 109 204t216 77h244l-49 -279h-152z" />
    <glyph glyph-name="parenright" unicode=")" horiz-adv-x="788" 
d="M401 1327h-161l49 279h223q127 0 195 -85t45 -216l-220 -1242q-20 -125 -109 -201t-216 -77h-242l47 276h148q74 0 90 80l199 1127q5 33 -5 46t-43 13z" />
    <glyph glyph-name="asterisk" unicode="*" horiz-adv-x="843" 
d="M784 862l-204 -137l-72 281l-172 -279l-174 135l256 209l-289 33l107 223l241 -153l-8 301h233l-114 -301l282 151l37 -221l-309 -35z" />
    <glyph glyph-name="plus" unicode="+" horiz-adv-x="1017" 
d="M352 373l45 260h-272l45 250h272l45 260h250l-45 -260h275l-45 -250h-275l-45 -260h-250z" />
    <glyph glyph-name="comma" unicode="," horiz-adv-x="503" 
d="M350 299l-41 -231q-16 -86 -121 -189l-153 -151h-119l203 272h-105l52 299h284z" />
    <glyph glyph-name="hyphen" unicode="-" horiz-adv-x="927" 
d="M872 807l-47 -266h-727l47 266h727z" />
    <glyph glyph-name="period" unicode="." horiz-adv-x="501" 
d="M297 0h-285l51 299h285z" />
    <glyph glyph-name="slash" unicode="/" horiz-adv-x="1050" 
d="M1217 1618l-1022 -1759h-293l1020 1759h295z" />
    <glyph glyph-name="zero" unicode="0" horiz-adv-x="1269" 
d="M748 270q76 0 92 80l139 795q6 35 -2 47q-10 12 -43 12h-303q-78 0 -92 -80l-142 -794q-6 -33 3 -46t44 -14h304zM797 -6h-457q-129 0 -196 84t-44 215l160 909q20 127 110 204t216 77h454q127 0 195 -87t47 -214l-160 -910q-20 -126 -108 -202t-217 -76z" />
    <glyph glyph-name="one" unicode="1" horiz-adv-x="831" 
d="M250 0l207 1167l-281 -94l39 246l352 156h236l-258 -1475h-295z" />
    <glyph glyph-name="two" unicode="2" horiz-adv-x="1212" 
d="M573 1481h408q119 0 193 -91t51 -216l-43 -238q-37 -197 -348 -301l-369 -123q-43 -14 -61 -28t-23 -50l-27 -162h715l-49 -276h-1010l84 483q33 197 350 301l371 123q43 15 57 27t21 49l27 151q6 42 -6 56t-50 14h-239q-87 0 -105 -92l-8 -76h-295l31 166
q24 125 114 204t211 79z" />
    <glyph glyph-name="three" unicode="3" horiz-adv-x="1218" 
d="M692 268q90 0 105 92l34 193q8 41 -9 56t-62 16h-281l47 262h260q45 0 72 16t35 74l27 160q6 45 -4 58t-50 13h-231q-86 0 -105 -92l-16 -84h-295l31 166q20 121 114 202t214 81h399q121 0 195 -93t53 -214l-37 -213q-25 -145 -166 -222q61 -31 86 -92t12 -129l-43 -246
q-23 -124 -113 -202t-212 -78h-433q-121 0 -193 90t-50 215l26 145h295l-24 -104q-8 -39 4 -54t51 -16h264z" />
    <glyph glyph-name="four" unicode="4" horiz-adv-x="1300" 
d="M410 557h356l90 481zM1210 295h-202l-52 -295h-286l51 295h-655l-29 221l926 959h251l-161 -918h202z" />
    <glyph glyph-name="five" unicode="5" horiz-adv-x="1269" 
d="M786 963h150q120 1 194 -91t52 -217l-68 -383q-23 -124 -113 -202t-213 -78h-444q-122 0 -194 90t-50 215l27 147h295l-19 -102q-7 -43 5 -57t51 -15h276q88 0 105 92l47 269q6 41 -6 56t-52 15h-96q-111 0 -211 -53l-49 -26l-280 86l133 766h960l-49 -279l-668 -2
l-69 -383l43 39q121 113 243 113z" />
    <glyph glyph-name="six" unicode="6" horiz-adv-x="1263" 
d="M727 272q88 0 104 93l39 229q6 45 -4 58t-49 14h-117q-119 0 -215 -54l-47 -26l-43 -242q-6 -43 5 -57t51 -15h276zM893 1206h-260q-86 0 -105 -92l-63 -338l43 39q121 113 244 113h172q120 0 194 -93t53 -214l-61 -345q-23 -124 -113 -202t-213 -78h-444q-121 0 -194 90
t-50 215l160 901q20 121 114 202t214 81h428q120 0 194 -93t54 -214l-23 -125h-295l6 82q8 39 -4 55t-51 16z" />
    <glyph glyph-name="seven" unicode="7" horiz-adv-x="1163" 
d="M1241 1249l-897 -1249h-342l860 1196h-669l49 279h1034z" />
    <glyph glyph-name="eight" unicode="8" horiz-adv-x="1241" 
d="M715 270q88 0 104 92l35 193q8 41 -10 57t-62 15l-245 -2q-106 0 -121 -93l-33 -192q-6 -43 5 -56t50 -14h277zM563 889h244q45 0 72 16t34 74l27 160q6 45 -4 58t-49 13l-244 2q-90 0 -104 -92l-29 -159q-10 -47 0 -59t53 -13zM774 -4h-444q-121 0 -194 90t-50 215
l43 246q27 150 178 221q-113 78 -86 221l39 213q20 121 114 202t214 81h411q121 0 197 -94t51 -213l-41 -211q-27 -147 -166 -222q66 -31 90 -92t13 -131l-43 -246q-23 -124 -113 -202t-213 -78z" />
    <glyph glyph-name="nine" unicode="9" horiz-adv-x="1263" 
d="M903 1200h-276q-90 0 -105 -92l-39 -221q-6 -39 6 -55t52 -15h116q109 0 209 53l52 27l40 231q6 44 -5 58t-50 14zM721 268q86 0 104 92l66 347l-47 -41q-127 -111 -240 -111h-172q-118 0 -192 91t-52 216l60 336q20 121 113 202t214 81h445q120 0 194 -93t54 -214
l-160 -902q-23 -124 -113 -202t-213 -78h-428q-122 0 -194 90t-49 215l22 125h295l-22 -82q-10 -37 3 -54t52 -18h260z" />
    <glyph glyph-name="colon" unicode=":" horiz-adv-x="501" 
d="M438 807h-284l53 299h285zM297 0h-285l51 299h285z" />
    <glyph glyph-name="semicolon" unicode=";" horiz-adv-x="503" 
d="M440 807h-284l53 299h285zM350 299l-41 -231q-16 -86 -121 -189l-153 -151h-119l203 272h-105l52 299h284z" />
    <glyph glyph-name="less" unicode="&#x3c;" horiz-adv-x="1019" 
d="M117 631l43 225l852 361l-49 -259l-547 -215l475 -217l-49 -254z" />
    <glyph glyph-name="equal" unicode="=" horiz-adv-x="1017" 
d="M930 684l-45 -262h-797l45 262h797zM1006 1110l-45 -262h-797l45 262h797z" />
    <glyph glyph-name="greater" unicode="&#x3e;" horiz-adv-x="1019" 
d="M674 743l-477 220l49 254l725 -361l-43 -225l-852 -359l49 258z" />
    <glyph glyph-name="question" unicode="?" horiz-adv-x="1132" 
d="M582 283l-52 -293h-294l51 293h295zM825 1204h-309q-78 0 -90 -80l-16 -100h-295l30 178q20 127 111 205q92 78 215 76l457 -13q130 -4 196 -89t45 -212l-43 -251q-10 -70 -75 -125l-37 -33q-10 -10 -49 -33l-50 -29q-10 -8 -57 -32t-57 -33l-92 -49q-82 -45 -88 -74
l-15 -82h-295l29 164q7 82 147 180l58 37q25 16 65 41l150 86q8 8 48 33t40 47l22 129q6 35 -2 47t-43 12z" />
    <glyph glyph-name="at" unicode="@" horiz-adv-x="1970" 
d="M963 803h-19q-76 0 -92 -80l-57 -324q-6 -33 3 -46t44 -13h18q80 0 162 41l78 39l57 303l-53 33q-78 47 -141 47zM623 1483h1060q127 0 195 -87t47 -214l-137 -787q-20 -127 -110 -204t-216 -76h-375l-8 147l-73 -63q-109 -92 -197 -93h-53q-127 0 -195 86t-45 216
l62 348q20 127 109 204t216 76h53q88 0 172 -92l56 -63l69 147h250l-133 -758h109q86 0 110 146l144 811q6 35 -2 47q-10 12 -39 12h-1102q-74 0 -88 -80l-226 -1284q-6 -33 4 -46t42 -13h1044l-35 -197h-1012q-127 0 -195 85t-44 216l217 1235q19 127 109 204t217 77z" />
    <glyph glyph-name="A" unicode="A" horiz-adv-x="1333" 
d="M834 610l-60 543l-246 -543h306zM864 332h-463l-151 -332h-316l719 1475h344l207 -1475h-303z" />
    <glyph glyph-name="B" unicode="B" horiz-adv-x="1302" 
d="M899 612q0 2 -14 11h-420l-62 -349l369 2q78 0 90 80l37 213q4 12 4 19zM940 1202h-373l-55 -315l352 -2q53 0 69 22q15 22 21 60l31 176q6 35 -2 47t-43 12zM821 0h-760l258 1475l723 2q125 0 197 -86t49 -215l-37 -209q-25 -145 -166 -222q66 -31 91 -92t12 -131
l-41 -241q-19 -127 -109 -204t-217 -77z" />
    <glyph glyph-name="C" unicode="C" horiz-adv-x="1249" 
d="M803 -6h-463q-129 0 -196 84t-44 215l160 909q20 127 110 204t216 77h461q127 0 195 -87t46 -214l-39 -228h-295l33 191q6 35 -2 47q-10 12 -43 12h-309q-76 0 -92 -80l-140 -794q-7 -33 3 -46t45 -14h309q78 0 90 80l29 170h294l-43 -248q-20 -126 -108 -202t-217 -76z
" />
    <glyph glyph-name="D" unicode="D" horiz-adv-x="1320" 
d="M780 279q72 0 88 79l138 779q6 35 -2 47t-43 12h-396l-159 -917h374zM1065 1475q127 0 197 -86t49 -215l-158 -893q-19 -127 -109 -204t-217 -77h-766l258 1475h746z" />
    <glyph glyph-name="E" unicode="E" 
d="M319 1475h949l-49 -279h-654l-53 -303h528l-49 -279h-528l-57 -335h653l-49 -279h-949z" />
    <glyph glyph-name="F" unicode="F" horiz-adv-x="1165" 
d="M61 0l258 1475h949l-49 -279h-654l-55 -315h528l-49 -279h-528l-105 -602h-295z" />
    <glyph glyph-name="G" unicode="G" horiz-adv-x="1288" 
d="M954 1204h-327q-78 0 -92 -80l-140 -794q-6 -33 4 -46t43 -14h328q78 0 92 80l37 209h-262l47 266h557l-98 -553q-21 -126 -109 -202t-217 -76h-479q-129 0 -196 84t-44 215l160 909q20 127 110 204t216 77h479q127 0 195 -87t47 -214l-31 -183h-295l20 146q6 33 -3 46
t-42 13z" />
    <glyph glyph-name="H" unicode="H" horiz-adv-x="1394" 
d="M61 0l258 1475h295l-102 -582h489l103 582h295l-258 -1475h-295l106 614h-489l-107 -614h-295z" />
    <glyph glyph-name="I" unicode="I" horiz-adv-x="610" 
d="M61 0l258 1475h295l-258 -1475h-295z" />
    <glyph glyph-name="J" unicode="J" horiz-adv-x="1179" 
d="M690 -6h-422q-130 0 -196 84t-43 215l55 313h295l-49 -276q-6 -33 4 -46t43 -14h272q72 0 88 80l197 1125h295l-213 -1203q-20 -126 -108 -202t-218 -76z" />
    <glyph glyph-name="K" unicode="K" horiz-adv-x="1335" 
d="M897 885l309 -885h-307l-223 647l-254 -270l-70 -377h-291l258 1475h291l-125 -691l613 691h352z" />
    <glyph glyph-name="L" unicode="L" horiz-adv-x="1110" 
d="M319 1475h295l-208 -1196h602l-50 -279h-897z" />
    <glyph glyph-name="M" unicode="M" horiz-adv-x="1699" 
d="M1704 1475l-258 -1475h-279l176 983l-438 -747h-205l-184 747l-176 -983h-279l258 1475h316l213 -873l520 873h336z" />
    <glyph glyph-name="N" unicode="N" horiz-adv-x="1431" 
d="M1159 1475h277l-258 -1475h-306l-354 1006l-180 -1006h-277l258 1475h308l352 -1006z" />
    <glyph glyph-name="O" unicode="O" horiz-adv-x="1300" 
d="M780 270q72 0 88 80l140 795q6 35 -2 47q-10 12 -39 12h-336q-78 0 -92 -80l-142 -794q-6 -33 3 -46t44 -14h336zM827 -6h-487q-129 0 -196 84t-44 215l160 909q20 127 110 204t216 77h485q127 0 195 -87t47 -214l-160 -910q-21 -126 -109 -202t-217 -76z" />
    <glyph glyph-name="P" unicode="P" horiz-adv-x="1257" 
d="M854 799q76 0 92 80l45 258q6 35 -2 47q-10 12 -43 12h-381l-69 -397h358zM1051 1475q125 0 197 -87t48 -214l-67 -373q-25 -131 -112 -206t-214 -75h-457l-90 -520h-295l258 1475h732z" />
    <glyph glyph-name="Q" unicode="Q" horiz-adv-x="1310" 
d="M969 1204h-344q-76 0 -93 -80l-139 -794q-6 -33 3 -46t44 -14h148l-47 254h229l45 -250q47 8 59 74l140 797q6 33 -4 46t-41 13zM338 -6q-129 0 -196 84t-44 215l160 909q20 127 110 204t216 77l487 -2q125 0 197 -86t49 -215l-160 -910q-20 -120 -99 -194t-190 -80
l35 -191h-229l-35 189h-301z" />
    <glyph glyph-name="R" unicode="R" horiz-adv-x="1306" 
d="M940 1194h-379l-65 -375h358q80 0 92 80l39 236q6 35 -2 47t-43 12zM319 1475l728 -2q125 -1 197 -87t48 -215l-61 -346q-18 -102 -85 -176t-163 -94l143 -555h-309l-135 547h-229l-97 -547h-295z" />
    <glyph glyph-name="S" unicode="S" horiz-adv-x="1253" 
d="M903 1206h-287q-78 0 -90 -80l-24 -143q-11 -52 47 -63l358 -82q123 -27 196 -105t50 -198l-47 -263q-25 -130 -111 -204t-215 -74h-452q-129 0 -196 84t-44 215l31 178h287l-25 -141q-6 -33 3 -46t44 -14h309q78 0 90 80l27 160q11 51 -45 63l-358 82q-127 29 -195 106
t-47 195l43 246q20 127 109 204t217 77h428q126 0 194 -87t47 -214l-28 -162h-287l12 127q4 39 -4 49t-37 10z" />
    <glyph glyph-name="T" unicode="T" horiz-adv-x="1142" 
d="M1208 1200h-374l-211 -1200h-295l211 1200h-375l47 275h1044z" />
    <glyph glyph-name="U" unicode="U" horiz-adv-x="1304" 
d="M813 -6h-465q-130 0 -196 84t-43 215l206 1182h295l-200 -1145q-6 -33 3 -46t44 -14h313q78 0 92 80l197 1125h295l-215 -1203q-21 -126 -109 -202t-217 -76z" />
    <glyph glyph-name="V" unicode="V" horiz-adv-x="1290" 
d="M1419 1475l-696 -1475h-344l-180 1475h325l80 -1121l475 1121h340z" />
    <glyph glyph-name="W" unicode="W" horiz-adv-x="1822" 
d="M1335 0h-278l-62 971l-405 -971h-291l-100 1475h311l-4 -1078l446 1078h236l67 -1078l377 1078h320z" />
    <glyph glyph-name="X" unicode="X" horiz-adv-x="1269" 
d="M838 721l305 -721h-316l-206 492l-361 -492h-332l572 776l-295 699h315l199 -469l344 469h334z" />
    <glyph glyph-name="Y" unicode="Y" 
d="M651 0h-295l93 510l-273 965h307l156 -639l379 639h340l-615 -965z" />
    <glyph glyph-name="Z" unicode="Z" 
d="M31 225l819 975h-606l47 275h981l-35 -226l-819 -975h639l-47 -274h-1012z" />
    <glyph glyph-name="bracketleft" unicode="[" horiz-adv-x="765" 
d="M598 1327l-223 -1266h200l-49 -276h-495l321 1821h496l-49 -279h-201z" />
    <glyph glyph-name="backslash" unicode="\" horiz-adv-x="1034" 
d="M889 -141h-279l-399 1759h278z" />
    <glyph glyph-name="bracketright" unicode="]" horiz-adv-x="765" 
d="M289 1606h495l-321 -1821h-494l47 276h201l223 1266h-200z" />
    <glyph glyph-name="asciicircum" unicode="^" horiz-adv-x="1445" 
d="M729 1475h303l285 -885h-291l-184 590l-402 -590h-307z" />
    <glyph glyph-name="underscore" unicode="_" horiz-adv-x="1159" 
d="M1034 -88l-45 -258h-1132l45 258h1132z" />
    <glyph glyph-name="grave" unicode="`" horiz-adv-x="817" 
d="M858 1610h-192l-281 295h346z" />
    <glyph glyph-name="a" unicode="a" horiz-adv-x="1136" 
d="M571 860h-49q-74 0 -86 -76l-86 -483q-12 -55 43 -55h49q111 0 211 53l49 27l86 454l-28 21q-84 59 -189 59zM305 -6q-121 0 -191 85t-48 208l98 549q24 126 112 202t207 76h84q109 0 209 -110l37 -41l31 143h282l-194 -1106h-285l29 143l-43 -39q-119 -111 -244 -110
h-84z" />
    <glyph glyph-name="b" unicode="b" horiz-adv-x="1136" 
d="M713 856q-109 0 -213 -55l-47 -25l-86 -454l26 -21q78 -59 191 -59h49q74 -1 86 75l86 484q12 55 -43 55h-49zM674 -6h-84q-109 0 -209 108l-37 41l-29 -143h-282l272 1548h283l-109 -585l43 45q107 112 244 106l84 -4q124 -6 192 -89t48 -206l-97 -549
q-20 -120 -108 -196t-211 -76z" />
    <glyph glyph-name="c" unicode="c" horiz-adv-x="1069" 
d="M485 1110h326q119 0 191 -86t49 -209l-21 -117h-282l20 121q8 51 -35 51h-209q-70 0 -82 -71l-90 -516q-8 -51 37 -52h209q66 0 78 72l16 100h283l-23 -137q-20 -120 -108 -196t-211 -76l-326 -4q-121 0 -191 85t-48 208l98 548q24 125 112 202t207 77z" />
    <glyph glyph-name="d" unicode="d" horiz-adv-x="1138" 
d="M571 860h-49q-74 0 -86 -76l-86 -483q-12 -55 43 -55h49q111 0 211 53l49 27l86 454l-28 21q-84 59 -189 59zM305 -6q-121 0 -191 85t-48 208l98 549q24 126 112 202t207 76h84q109 0 209 -110l37 -41l109 585h282l-272 -1548h-285l29 143l-43 -39q-119 -111 -244 -110
h-84z" />
    <glyph glyph-name="e" unicode="e" horiz-adv-x="1081" 
d="M733 872h-217q-68 0 -80 -71l-24 -142h329l29 162q8 51 -37 51zM600 227q63 0 80 72l10 51h283l-15 -84q-20 -120 -108 -196t-211 -76h-334q-121 0 -191 85t-48 208l98 549q24 126 112 202t207 76l328 -4q119 0 191 -86t49 -209l-62 -350h-612l-33 -186q-10 -50 39 -52
h217z" />
    <glyph glyph-name="f" unicode="f" horiz-adv-x="792" 
d="M672 1548h262l-43 -241l-182 -2q-68 0 -80 -72l-23 -129h250l-41 -234h-250l-153 -870h-283l154 870h-174l41 234h174l28 166q23 126 112 202t208 76z" />
    <glyph glyph-name="g" unicode="g" horiz-adv-x="1136" 
d="M573 862h-49q-74 0 -86 -76l-71 -409q-11 -55 41 -55h49q111 0 211 53l49 26l74 381l-29 19q-94 61 -189 61zM274 -397q-118 0 -190 86t-49 209l10 55h270l-10 -59q-6 -38 3 -54t48 -16h176q84 0 99 88l57 305l-43 -39q-121 -113 -244 -112h-84q-121 0 -191 86t-48 208
l84 476q24 126 112 202t207 76h84q115 0 209 -108l37 -43l31 143h282l-215 -1229q-20 -121 -109 -198t-210 -76h-316z" />
    <glyph glyph-name="h" unicode="h" horiz-adv-x="1142" 
d="M717 858q-119 0 -215 -53l-47 -27l-140 -778h-282l272 1546h283l-109 -585l43 38q121 113 244 113h68q120 0 190 -86t49 -209l-143 -817h-283l148 803q12 55 -43 55h-35z" />
    <glyph glyph-name="i" unicode="i" horiz-adv-x="540" 
d="M510 1106l-195 -1106h-282l194 1106h283zM549 1282h-299l47 266h299z" />
    <glyph glyph-name="j" unicode="j" horiz-adv-x="552" 
d="M-18 -410h-226l43 246h148q66 0 78 72l213 1198h282l-221 -1241q-19 -121 -109 -198t-208 -77zM561 1282h-301l47 266h301z" />
    <glyph glyph-name="k" unicode="k" horiz-adv-x="1155" 
d="M764 657l270 -657h-289l-186 457l-197 -195l-49 -262h-278l258 1475h278l-155 -863l444 494h359z" />
    <glyph glyph-name="l" unicode="l" horiz-adv-x="532" 
d="M301 1548h283l-273 -1548h-282z" />
    <glyph glyph-name="m" unicode="m" horiz-adv-x="1699" 
d="M1309 858q-123 0 -215 -53l-50 -29l-137 -776h-282l141 803q12 55 -43 55h-4q-119 0 -215 -53l-47 -27l-140 -778h-282l194 1104h283l-31 -143l43 38q121 113 244 113h39q84 0 147 -47t84 -123l70 59q142 121 244 113l49 -4q127 -10 195 -91t44 -204l-143 -815h-283
l142 803q12 55 -43 55h-4z" />
    <glyph glyph-name="n" unicode="n" horiz-adv-x="1142" 
d="M717 858q-119 0 -215 -53l-47 -27l-140 -778h-282l194 1104h283l-31 -143l43 38q121 113 244 113h68q120 0 190 -86t49 -209l-143 -817h-283l148 803q12 55 -43 55h-35z" />
    <glyph glyph-name="o" unicode="o" horiz-adv-x="1099" 
d="M754 868h-234q-70 0 -82 -71l-90 -516q-8 -51 37 -52h233q68 0 80 72l90 516q8 51 -34 51zM655 -6h-350q-121 0 -191 85t-48 208l98 549q24 126 112 202t207 76l348 -4q119 0 191 -86t49 -209l-96 -549q-21 -120 -109 -196t-211 -76z" />
    <glyph glyph-name="p" unicode="p" horiz-adv-x="1138" 
d="M719 858q-119 0 -215 -53l-47 -27l-86 -454l26 -21q33 -25 89 -43t100 -18h49q72 -1 86 75l90 486q12 55 -43 55h-49zM676 -6h-84q-109 0 -209 108l-37 41l-100 -536h-281l264 1499h283l-31 -143l43 38q129 119 244 113l84 -4q126 -6 194 -89t46 -206l-97 -549
q-20 -120 -108 -196t-211 -76z" />
    <glyph glyph-name="q" unicode="q" horiz-adv-x="1138" 
d="M571 860h-49q-74 0 -86 -76l-86 -483q-12 -55 43 -55h49q111 0 211 53l49 27l86 454l-28 21q-85 59 -189 59zM483 1114h82q106 0 209 -110l37 -41l31 143h282l-266 -1499h-283l101 536l-43 -39q-119 -111 -244 -110h-84q-121 0 -191 85t-48 208l98 549q24 126 112 202
t207 76z" />
    <glyph glyph-name="r" unicode="r" horiz-adv-x="858" 
d="M713 852q-111 0 -211 -53l-49 -27l-138 -772h-282l194 1106h283l-31 -143l43 38q121 113 244 113h143l-45 -262h-151z" />
    <glyph glyph-name="s" unicode="s" horiz-adv-x="1056" 
d="M524 879q-68 0 -80 -72l-12 -66q-6 -25 3 -36t40 -17l289 -49q113 -18 166 -85t39 -161l-23 -131q-20 -121 -108 -197t-211 -75h-326q-121 0 -193 86t-47 207l15 73h282l-14 -77q-8 -51 37 -52h209q70 0 80 72l10 68q4 51 -39 55l-289 49q-119 21 -171 85t-34 161l23 117
q25 126 113 202t206 76h287q121 0 191 -86t49 -209l-10 -55h-283l8 65q6 51 -37 52h-170z" />
    <glyph glyph-name="t" unicode="t" horiz-adv-x="854" 
d="M489 248h248l-43 -246h-286q-121 0 -191 86t-49 209l102 575h-170l41 234h174l64 369h274l-63 -369h299l-41 -234h-295l-100 -573q-8 -51 36 -51z" />
    <glyph glyph-name="u" unicode="u" horiz-adv-x="1144" 
d="M451 248q111 0 211 53l49 27l139 780h283l-195 -1106h-283l29 143l-43 -39q-119 -111 -244 -110h-67q-121 0 -191 85t-49 208l146 817h282l-143 -803q-12 -55 43 -55h33z" />
    <glyph glyph-name="v" unicode="v" horiz-adv-x="1062" 
d="M1135 1106l-541 -1106h-311l-152 1106h283l63 -854l350 854h308z" />
    <glyph glyph-name="w" unicode="w" horiz-adv-x="1581" 
d="M1149 0h-287l-35 702l-274 -702h-285l-137 1106h277l38 -825l320 825h250l24 -825l322 825h291z" />
    <glyph glyph-name="x" unicode="x" horiz-adv-x="1058" 
d="M676 549l260 -549h-287l-162 342l-260 -342h-288l440 573l-252 533h287l153 -324l252 324h291z" />
    <glyph glyph-name="y" unicode="y" horiz-adv-x="1083" 
d="M1155 1106l-776 -1499h-273l203 393l-178 1106h260l103 -748l385 748h276z" />
    <glyph glyph-name="z" unicode="z" horiz-adv-x="966" 
d="M0 201l594 659h-459l43 246h809l-31 -197l-596 -663h490l-43 -246h-838z" />
    <glyph glyph-name="braceleft" unicode="{" horiz-adv-x="911" 
d="M451 -215q-127 0 -198 86t-48 213l76 430q6 35 -2 47t-39 12h-150l45 254h129q72 0 88 80l74 418q20 127 110 204t216 77h241l-49 -279h-147q-72 0 -88 -80l-66 -373q-18 -113 -141 -190q94 -74 73 -184l-67 -381q-6 -33 3 -45t42 -13h168l-49 -276h-221z" />
    <glyph glyph-name="bar" unicode="|" horiz-adv-x="708" 
d="M406 1612h270l-363 -2052h-270z" />
    <glyph glyph-name="braceright" unicode="}" horiz-adv-x="911" 
d="M408 1327h-168l49 279h223q127 0 195 -87t47 -214l-74 -418q-6 -33 3 -46t44 -14h147l-45 -254h-127q-76 0 -90 -79l-75 -431q-19 -125 -109 -201t-217 -77h-242l47 276h148q78 0 90 80l65 381q20 121 142 191q-94 69 -74 186l66 369q6 35 -2 47t-43 12z" />
    <glyph glyph-name="asciitilde" unicode="~" horiz-adv-x="1017" 
d="M344 625l-65 -95h-142l115 205q54 93 141 76l326 -80l61 92h148l-119 -207q-56 -97 -137 -75z" />
    <glyph glyph-name="exclamdown" unicode="&#xa1;" horiz-adv-x="552" 
d="M184 608h201l-113 -975h-317zM229 1106h287l-53 -299h-287z" />
    <glyph glyph-name="cent" unicode="&#xa2;" horiz-adv-x="1173" 
d="M561 1036q-78 0 -92 -80l-80 -446q-11 -59 47 -59h62l104 585h-41zM850 1036h-49l-105 -585h29q78 0 92 79l17 93h266l-25 -146q-20 -127 -109 -204t-216 -76h-74l-33 -197h-244l33 197h-65q-125 0 -197 86t-49 215l90 512q19 128 109 204t217 76h86l30 185h244l-31 -185
h54q126 0 198 -87t47 -214l-22 -125h-266l18 113q6 35 -2 47t-43 12z" />
    <glyph glyph-name="sterling" unicode="&#xa3;" horiz-adv-x="1257" 
d="M915 1202h-215q-80 0 -92 -80l-47 -274h285l-49 -275h-285l-51 -297h649l-49 -276h-1106l47 276h94q70 0 82 72l39 225h-164l49 275h164l62 348q25 139 108 213q84 74 219 74l361 -2q135 0 203 -83t43 -222l-31 -179h-295l25 146q5 35 -3 47t-43 12z" />
    <glyph glyph-name="currency" unicode="&#xa4;" horiz-adv-x="1204" 
d="M496 541h198q76 0 92 80l52 294q6 35 -2 47t-43 13h-201q-76 0 -92 -80l-51 -295q-6 -33 4 -46t43 -13zM709 307h-271q-49 0 -98 15l-197 -177l-149 177l201 182q-10 41 0 98l57 328q10 49 31 92l-140 164l199 176l139 -166q51 10 92 10h271q51 0 100 -16l193 172
l149 -176l-199 -180q2 -38 -6 -99l-53 -323q-4 -35 -31 -99l140 -163l-197 -177l-145 172q-51 -10 -86 -10z" />
    <glyph glyph-name="yen" unicode="&#xa5;" 
d="M860 692h219l-24 -143h-287l-25 -39l-10 -51h305l-24 -144h-305l-58 -315h-295l58 315h-308l25 144h307l11 51l-11 39h-291l25 143h225l-221 783h316l151 -631l383 631h332z" />
    <glyph glyph-name="brokenbar" unicode="&#xa6;" horiz-adv-x="708" 
d="M313 -440h-270l143 809h271zM406 1612h270l-144 -811h-270z" />
    <glyph glyph-name="section" unicode="&#xa7;" horiz-adv-x="1079" 
d="M459 522l196 -37q25 0 49 24t29 54l27 148q6 27 -4 40t-39 19l-201 35q-53 0 -74 -78l-26 -147q-6 -28 3 -40t40 -18zM774 1237h-156q-26 1 -52 -21t-31 -55l-13 -67q-6 -27 3 -39t40 -19l281 -49q100 -18 158 -86t43 -160l-35 -192q-14 -90 -115 -191q55 -70 45 -129
l-27 -151q-23 -119 -110 -197q-88 -76 -209 -76h-313q-119 0 -191 86q-70 86 -49 207l12 74h279l-12 -66q-12 -55 43 -55h196q27 -1 53 21t31 55l12 74q6 33 -2 43t-39 16l-278 49q-100 18 -158 86q-57 68 -43 160l31 176q18 104 123 197q-63 70 -51 141l22 133
q23 125 112 202t208 77h274q119 0 191 -86t49 -209l-11 -56h-280l12 52q2 31 -6 43t-37 12z" />
    <glyph glyph-name="dieresis" unicode="&#xa8;" horiz-adv-x="1284" 
d="M1159 1618h-250l45 254h250zM750 1618h-248l45 254h248z" />
    <glyph glyph-name="copyright" unicode="&#xa9;" horiz-adv-x="1699" 
d="M836 1202h276q94 0 143 -61t33 -158l-22 -129h-213l18 109q4 25 -2 31t-27 5h-165q-59 0 -70 -59l-74 -426q-4 -25 2 -31t27 -6h166q59 0 69 60l15 88h213l-27 -150q-37 -199 -227 -199h-277q-94 0 -143 62t-33 158l90 508q38 198 228 198zM610 1309q-45 0 -83 -38
t-46 -87l-159 -910q-18 -104 67 -104h807q47 0 85 38t46 85l158 911q18 104 -68 105h-807zM623 1483h804q127 0 195 -87t47 -214l-160 -910q-20 -126 -108 -202t-217 -76h-807q-129 0 -196 84t-44 215l160 909q19 127 109 204t217 77z" />
    <glyph glyph-name="ordfeminine" unicode="&#xaa;" horiz-adv-x="780" 
d="M694 649l-28 -157h-576l29 157h575zM406 1071q-47 0 -56 -51l-12 -68q-4 -18 2 -24t25 -6h49q55 0 110 24l45 21l21 104h-184zM385 752h-68q-77 0 -121 57t-32 137l12 72q31 174 203 174h29q104 0 196 -27l29 109q4 25 -2 33t-27 8h-115q-59 0 -71 -62v-4h-178l8 47
q14 78 70 128t139 55l188 4q78 1 128 -61t36 -144l-90 -520h-182l20 100l-49 -49q-57 -57 -123 -57z" />
    <glyph glyph-name="guillemotleft" unicode="&#xab;" horiz-adv-x="1081" 
d="M1145 1145l-375 -426l217 -424h-287l-192 371l10 106l324 373h303zM688 1145l-375 -426l217 -424h-286l-191 371l10 106l322 373h303z" />
    <glyph glyph-name="registered" unicode="&#xae;" horiz-adv-x="819" 
d="M563 1133q9 0 21 9t16 19l12 82l-8 12h-139l-21 -122h119zM403 1329l207 -2q41 0 65 -28t17 -68l-16 -94q-16 -80 -88 -78l45 -176h-78l-39 176h-84l-31 -176h-75zM799 1391q0 22 -58 22h-340q-29 -1 -51 -25t-22 -45l-88 -503q-10 -47 34 -47h363q27 0 49 21t25 44
l86 510q2 8 2 23zM393 1483h342q68 0 107 -43t30 -99l-88 -503q-10 -51 -49 -85t-92 -34h-362q-51 0 -88 43t-27 96l90 504q8 51 47 86t90 35z" />
    <glyph glyph-name="macron" unicode="&#xaf;" horiz-adv-x="1228" 
d="M1106 1860l-41 -230h-555l41 230h555z" />
    <glyph glyph-name="degree" unicode="&#xb0;" horiz-adv-x="643" 
d="M358 1145h127q10 0 25 12q14 12 18 23l31 176q2 6 2 11t-2 5h-139q-10 0 -25 -12q-14 -13 -18 -23l-31 -178q-2 -8 0 -12q2 -2 12 -2zM526 1040h-204q-45 0 -76 37t-21 84l39 217q18 100 117 101h201q48 0 78 -37t20 -84l-37 -217q-19 -101 -117 -101z" />
    <glyph glyph-name="plusminus" unicode="&#xb1;" horiz-adv-x="1017" 
d="M86 410h797l-43 -246h-797zM377 522l47 260h-272l43 250h272l47 260h250l-47 -260h274l-43 -250h-274l-47 -260h-250z" />
    <glyph glyph-name="twosuperior" unicode="&#xb2;" horiz-adv-x="724" 
d="M444 1704h252q70 0 118 -54t36 -116l-23 -131q-8 -59 -70 -103t-145 -67l-217 -57q-27 -6 -30 -25l-15 -74h420l-31 -184h-614l49 289q8 55 66 99t147 69l217 57q35 10 37 25l14 75q4 9 0 13t-10 4h-147q-52 0 -58 -41l-10 -35h-192l18 104q12 70 65 111t123 41z" />
    <glyph glyph-name="threesuperior" unicode="&#xb3;" horiz-adv-x="724" 
d="M371 1059h147q51 0 57 41l17 92q2 14 -4 18q-8 4 -29 4h-166l29 170h145q47 0 58 43l14 76q2 14 -4 19q-8 4 -23 4h-127q-51 0 -57 -41l-6 -37h-193l19 104q12 68 66 110t124 42h248q70 0 118 -54t36 -116l-21 -119q-12 -80 -98 -121q78 -41 61 -120l-24 -136
q-12 -70 -66 -110t-123 -41h-266q-70 0 -118 54t-35 116l14 84h194l-14 -62q-2 -14 4 -18q4 -2 23 -2z" />
    <glyph glyph-name="acute" unicode="&#xb4;" horiz-adv-x="817" 
d="M545 1610h-213l233 295h346z" />
    <glyph glyph-name="paragraph" unicode="&#xb6;" horiz-adv-x="1685" 
d="M408 524q-127 0 -195 85t-45 216l63 369q19 127 109 204t217 77h1155l-258 -1475h-299l209 1196h-178l-209 -1196h-295l92 524h-366z" />
    <glyph glyph-name="periodcentered" unicode="&#xb7;" horiz-adv-x="501" 
d="M389 532h-285l54 299h284z" />
    <glyph glyph-name="cedilla" unicode="&#xb8;" horiz-adv-x="1134" 
d="M442 -305q33 0 41 43l4 20q4 23 -12 23h-242l142 219h160l-70 -100h37q78 0 121 -43t28 -119l-4 -21q-29 -141 -182 -141h-193l-77 119h247z" />
    <glyph glyph-name="onesuperior" unicode="&#xb9;" horiz-adv-x="495" 
d="M264 893l107 610l-170 -49l24 158l219 92h152l-141 -811h-191z" />
    <glyph glyph-name="ordmasculine" unicode="&#xba;" horiz-adv-x="780" 
d="M680 645l-29 -158h-559l29 158h559zM604 1313h-153q-45 0 -56 -56l-55 -311q-2 -20 1 -26t17 -7h154q51 1 59 52l56 313q4 23 0 29t-23 6zM545 748h-223q-76 0 -125 58t-33 140l63 357q11 74 69 125t136 51l217 -2q78 -1 126 -59t36 -136l-63 -356q-16 -82 -70 -130
t-133 -48z" />
    <glyph glyph-name="guillemotright" unicode="&#xbb;" horiz-adv-x="1081" 
d="M1071 772l-10 -106l-324 -371h-303l375 424l-217 426h287zM614 772l-10 -106l-321 -371h-301l370 424l-215 426h287z" />
    <glyph glyph-name="onequarter" unicode="&#xbc;" horiz-adv-x="1626" 
d="M1395 1475l-1088 -1475h-213l1088 1475h213zM223 668l107 610l-170 -49l24 157l219 93h152l-141 -811h-191zM1042 317h191l39 205zM1511 147h-120l-25 -147h-188l24 147h-387l-20 144l548 520h164l-86 -494h121z" />
    <glyph glyph-name="onehalf" unicode="&#xbd;" horiz-adv-x="1652" 
d="M1399 1473l-1088 -1473h-213l1088 1473h213zM227 666l107 610l-170 -49l24 157l220 93h151l-141 -811h-191zM1214 815h252q70 0 118 -54t36 -116l-23 -131q-8 -59 -70 -103t-145 -67l-217 -57q-27 -6 -30 -25l-15 -74h420l-31 -184h-614l49 289q8 55 66 99t147 69l217 57
q35 10 37 25l14 75q4 8 0 12t-10 5h-147q-51 0 -58 -41l-10 -35h-192l18 105q12 70 66 110t122 41z" />
    <glyph glyph-name="threequarters" unicode="&#xbe;" horiz-adv-x="1855" 
d="M1630 1470l-1087 -1472h-213l1087 1472h213zM1278 313h190l39 205zM1747 143h-121l-24 -145h-189l25 145h-387l-21 144l549 520h164l-86 -494h121zM330 834h147q51 0 58 40l16 93q2 14 -4 18q-8 4 -29 4h-166l29 170h145q47 0 58 43l14 76q2 14 -4 18q-8 4 -23 4h-127
q-51 0 -57 -40l-6 -37h-193l19 104q12 68 66 110t124 42h248q70 -1 118 -55t36 -115l-21 -119q-12 -80 -98 -121q78 -41 61 -121l-24 -135q-11 -71 -65 -111t-124 -40h-266q-70 0 -118 54t-35 115l14 84h194l-14 -61q-2 -14 4 -18q4 -2 23 -2z" />
    <glyph glyph-name="questiondown" unicode="&#xbf;" horiz-adv-x="1132" 
d="M328 -96h309q76 0 92 80l19 98h294l-32 -176q-25 -131 -112 -206t-214 -75l-469 2q-127 0 -195 86q-66 86 -43 215l43 250q10 46 16 60t32 41l38 38q18 18 56 41l53 35q15 8 69 37t64 37l94 49q80 43 86 74l15 82h295l-29 -164q-4 -49 -51 -98q-45 -52 -96 -86l-181 -111
l-88 -49q-20 -10 -26 -14q-5 -4 -13 -8q-8 -5 -10 -7t-14 -10q-13 -8 -27 -35l-22 -127q-6 -33 4 -46t43 -13zM569 811l54 295h295l-54 -295h-295z" />
    <glyph glyph-name="Agrave" unicode="&#xc0;" horiz-adv-x="1333" 
d="M834 610l-60 543l-246 -543h306zM864 332h-463l-151 -332h-316l719 1475h344l207 -1475h-303zM817 1610l-280 295h346l127 -295h-193z" />
    <glyph glyph-name="Aacute" unicode="&#xc1;" horiz-adv-x="1333" 
d="M834 610l-60 543l-246 -543h306zM997 1475l207 -1475h-303l-37 332h-463l-151 -332h-316l719 1475h344zM907 1610h-213l234 295h346z" />
    <glyph glyph-name="Acircumflex" unicode="&#xc2;" horiz-adv-x="1333" 
d="M834 610l-60 543l-246 -543h306zM997 1475l207 -1475h-303l-37 332h-463l-151 -332h-316l719 1475h344zM692 1610h-241l329 266h246l236 -266h-226l-157 141z" />
    <glyph glyph-name="Atilde" unicode="&#xc3;" horiz-adv-x="1333" 
d="M829 612l-59 543l-246 -543h305zM993 1477l207 -1475h-303l-37 332h-463l-151 -332h-316l719 1475h344zM670 1610l-129 2l75 184q18 44 56 62t82 4l274 -93l53 93h127l-80 -187q-18 -45 -55 -62t-78 -3l-276 96z" />
    <glyph glyph-name="Adieresis" unicode="&#xc4;" horiz-adv-x="1333" 
d="M834 610l-60 543l-246 -543h306zM997 1475l207 -1475h-303l-37 332h-463l-151 -332h-316l719 1475h344zM1184 1618h-250l45 254h250zM774 1618h-248l45 254h248z" />
    <glyph glyph-name="Aring" unicode="&#xc5;" horiz-adv-x="1333" 
d="M836 610l-60 543l-246 -543h306zM866 332h-463l-151 -332h-315l718 1475h344l207 -1475h-303zM809 1708h109q35 0 40 35l19 110q2 11 0 13t-12 2h-109q-33 0 -39 -35l-18 -111q-2 -14 10 -14zM989 1610h-250q-33 0 -52 26t-13 52l39 217q11 59 65 59h252q33 0 52 -26
t14 -52l-39 -217q-11 -59 -68 -59z" />
    <glyph glyph-name="AE" unicode="&#xc6;" horiz-adv-x="2039" 
d="M1008 610l102 582h-88l-375 -582h361zM1405 1196l-51 -295h526l-49 -278h-526l-60 -344h651l-49 -279h-946l57 332h-489l-213 -332h-348l985 1475h1212l-49 -279h-651z" />
    <glyph glyph-name="Ccedilla" unicode="&#xc7;" horiz-adv-x="1249" 
d="M584 1483h460q127 0 195 -87t47 -214l-39 -228h-295l33 191q6 35 -2 47t-43 12h-309q-78 0 -92 -80l-140 -794q-6 -33 4 -46t43 -14h310q78 0 90 80l28 170h295l-43 -248q-20 -126 -108 -202t-217 -76h-162l-64 -94h37q78 0 121 -43t29 -119l-4 -21q-29 -141 -183 -141
h-192l-80 119h248q31 0 41 43l4 20q4 23 -12 23h-242l135 213h-139q-129 0 -196 84t-44 215l160 909q20 127 110 204t216 77z" />
    <glyph glyph-name="Egrave" unicode="&#xc8;" 
d="M1268 1475l-49 -279h-654l-53 -303h528l-49 -279h-528l-57 -335h653l-49 -279h-949l258 1475h949zM977 1610h-193l-280 295h346z" />
    <glyph glyph-name="Eacute" unicode="&#xc9;" 
d="M874 1610h-212l233 295h346zM319 1475h949l-49 -279h-654l-53 -303h528l-49 -279h-528l-57 -335h653l-49 -279h-949z" />
    <glyph glyph-name="Ecircumflex" unicode="&#xca;" 
d="M1268 1475l-49 -279h-654l-53 -303h528l-49 -279h-528l-57 -335h653l-49 -279h-949l258 1475h949zM846 1751l-187 -141h-241l330 266h245l236 -266h-225z" />
    <glyph glyph-name="Edieresis" unicode="&#xcb;" 
d="M1151 1618h-250l45 254h250zM741 1618h-247l45 254h247zM319 1475h949l-49 -279h-654l-53 -303h528l-49 -279h-528l-57 -335h653l-49 -279h-949z" />
    <glyph glyph-name="Igrave" unicode="&#xcc;" horiz-adv-x="610" 
d="M319 1475h295l-258 -1475h-295zM649 1610h-192l-281 295h346z" />
    <glyph glyph-name="Iacute" unicode="&#xcd;" horiz-adv-x="610" 
d="M547 1610h-213l233 295h346zM61 0l258 1475h295l-258 -1475h-295z" />
    <glyph glyph-name="Icircumflex" unicode="&#xce;" horiz-adv-x="610" 
d="M518 1751l-186 -141h-242l330 266h246l235 -266h-225zM319 1475h295l-258 -1475h-295z" />
    <glyph glyph-name="Idieresis" unicode="&#xcf;" horiz-adv-x="610" 
d="M61 0l258 1475h295l-258 -1475h-295zM823 1618h-250l45 254h250zM414 1618h-248l45 254h248z" />
    <glyph glyph-name="Eth" unicode="&#xd0;" horiz-adv-x="1294" 
d="M944 1196h-395l-53 -307h143l-51 -295h-144l-55 -315h375q74 -1 88 79l137 779q6 35 -2 47t-43 12zM1049 1475q127 0 197 -86t48 -215l-157 -893q-19 -127 -109 -204t-217 -77h-766l105 594h-144l51 295h144l102 586h746z" />
    <glyph glyph-name="Ntilde" unicode="&#xd1;" horiz-adv-x="1431" 
d="M1436 1475l-258 -1475h-306l-354 1006l-180 -1006h-277l258 1475h308l352 -1006l180 1006h277zM770 1704l-49 -94h-125l76 184q41 93 133 66l274 -93l54 93h127l-80 -187q-18 -45 -56 -62t-77 -3z" />
    <glyph glyph-name="Ograve" unicode="&#xd2;" horiz-adv-x="1300" 
d="M340 -6q-129 0 -196 84t-44 215l160 909q20 127 110 204t216 77h485q127 0 195 -87t47 -214l-160 -910q-21 -126 -109 -202t-217 -76h-487zM780 270q72 0 88 80l140 795q6 35 -2 47q-10 12 -39 12h-336q-78 0 -92 -80l-142 -794q-6 -33 3 -46t44 -14h336zM1014 1610h-193
l-280 295h346z" />
    <glyph glyph-name="Oacute" unicode="&#xd3;" horiz-adv-x="1300" 
d="M911 1610h-213l234 295h346zM780 270q72 0 88 80l140 795q6 35 -2 47q-10 12 -39 12h-336q-78 0 -92 -80l-142 -794q-6 -33 3 -46t44 -14h336zM827 -6h-487q-129 0 -196 84t-44 215l160 909q20 127 110 204t216 77h485q127 0 195 -87t47 -214l-160 -910
q-21 -126 -109 -202t-217 -76z" />
    <glyph glyph-name="Ocircumflex" unicode="&#xd4;" horiz-adv-x="1300" 
d="M340 -6q-129 0 -196 84t-44 215l160 909q20 127 110 204t216 77h485q127 0 195 -87t47 -214l-160 -910q-21 -126 -109 -202t-217 -76h-487zM780 270q72 0 88 80l140 795q6 35 -2 47q-10 12 -39 12h-336q-78 0 -92 -80l-142 -794q-6 -33 3 -46t44 -14h336zM883 1751
l-187 -141h-241l329 266h246l236 -266h-226z" />
    <glyph glyph-name="Otilde" unicode="&#xd5;" horiz-adv-x="1300" 
d="M340 -6q-129 0 -196 84t-44 215l160 909q20 127 110 204t216 77h485q127 0 195 -87t47 -214l-160 -910q-21 -126 -109 -202t-217 -76h-487zM780 270q72 0 88 80l140 795q6 35 -2 47q-10 12 -39 12h-336q-78 0 -92 -80l-142 -794q-6 -33 3 -46t44 -14h336zM723 1704
l-49 -94h-125l76 184q41 93 133 66l274 -93l53 93h127l-79 -187q-17 -45 -55 -62t-79 -3z" />
    <glyph glyph-name="Odieresis" unicode="&#xd6;" horiz-adv-x="1300" 
d="M1188 1618h-250l45 254h250zM778 1618h-248l45 254h248zM780 270q72 0 88 80l140 795q6 35 -2 47q-10 12 -39 12h-336q-78 0 -92 -80l-142 -794q-6 -33 3 -46t44 -14h336zM827 -6h-487q-129 0 -196 84t-44 215l160 909q20 127 110 204t216 77h485q127 0 195 -87t47 -214
l-160 -910q-21 -126 -109 -202t-217 -76z" />
    <glyph glyph-name="multiply" unicode="&#xd7;" horiz-adv-x="1019" 
d="M700 680l183 -223l-191 -168l-180 227l-260 -227l-146 168l265 231l-185 221l189 168l184 -225l256 225l148 -168z" />
    <glyph glyph-name="Oslash" unicode="&#xd8;" horiz-adv-x="1310" 
d="M784 274q76 0 93 80l108 619l-444 -699h243zM627 1200q-78 0 -92 -80l-107 -596l430 676h-231zM584 1483h487q125 0 197 -86t49 -215l-160 -910q-20 -126 -108 -202t-218 -76h-493q-129 0 -196 84t-44 215l160 909q20 127 110 204t216 77z" />
    <glyph glyph-name="Ugrave" unicode="&#xd9;" horiz-adv-x="1304" 
d="M813 -6h-465q-130 0 -196 84t-43 215l206 1182h295l-200 -1145q-6 -33 3 -46t44 -14h313q78 0 92 80l197 1125h295l-215 -1203q-21 -126 -109 -202t-217 -76zM1014 1610h-193l-280 295h346z" />
    <glyph glyph-name="Uacute" unicode="&#xda;" horiz-adv-x="1304" 
d="M911 1610h-213l234 295h346zM813 -6h-465q-130 0 -196 84t-43 215l206 1182h295l-200 -1145q-6 -33 3 -46t44 -14h313q78 0 92 80l197 1125h295l-215 -1203q-21 -126 -109 -202t-217 -76z" />
    <glyph glyph-name="Ucircumflex" unicode="&#xdb;" horiz-adv-x="1304" 
d="M813 -6h-465q-130 0 -196 84t-43 215l206 1182h295l-200 -1145q-6 -33 3 -46t44 -14h313q78 0 92 80l197 1125h295l-215 -1203q-21 -126 -109 -202t-217 -76zM883 1751l-187 -141h-241l329 266h246l236 -266h-226z" />
    <glyph glyph-name="Udieresis" unicode="&#xdc;" horiz-adv-x="1304" 
d="M1188 1618h-250l45 254h250zM778 1618h-248l45 254h248zM813 -6h-465q-130 0 -196 84t-43 215l206 1182h295l-200 -1145q-6 -33 3 -46t44 -14h313q78 0 92 80l197 1125h295l-215 -1203q-21 -126 -109 -202t-217 -76z" />
    <glyph glyph-name="Yacute" unicode="&#xdd;" 
d="M842 1610h-213l233 295h346zM651 0h-295l93 510l-273 965h307l156 -639l379 639h340l-615 -965z" />
    <glyph glyph-name="Thorn" unicode="&#xde;" horiz-adv-x="1257" 
d="M813 549q76 0 92 80l45 254q11 59 -45 59h-381l-69 -393h358zM1010 1221q126 0 194 -87t47 -214l-65 -369q-20 -127 -110 -204t-216 -77h-457l-47 -270h-295l258 1475h295l-41 -254h437z" />
    <glyph glyph-name="germandbls" unicode="&#xdf;" horiz-adv-x="1136" 
d="M680 -4h-260l43 244h176q68 0 80 71l47 267q6 33 -4 43t-41 10h-193l43 237h164q33 0 50 12t28 60l43 242q8 51 -37 51h-227q-68 0 -80 -72l-205 -1163h-282l211 1204q24 125 112 202t207 77h348q121 0 191 -86t49 -209l-39 -238q-12 -72 -49 -121t-113 -92
q131 -66 102 -213l-45 -254q-20 -120 -108 -196t-211 -76z" />
    <glyph glyph-name="agrave" unicode="&#xe0;" horiz-adv-x="1136" 
d="M305 -6q-121 0 -191 85t-48 208l98 549q24 126 112 202t207 76h84q109 0 209 -110l37 -41l31 143h282l-194 -1106h-285l29 143l-43 -39q-119 -111 -244 -110h-84zM571 860h-49q-74 0 -86 -76l-86 -483q-12 -55 43 -55h49q111 0 211 53l49 27l86 454l-28 21
q-84 59 -189 59zM850 1253h-193l-280 295h346z" />
    <glyph glyph-name="aacute" unicode="&#xe1;" horiz-adv-x="1136" 
d="M748 1253h-213l233 295h346zM571 860h-49q-74 0 -86 -76l-86 -483q-12 -55 43 -55h49q111 0 211 53l49 27l86 454l-28 21q-84 59 -189 59zM305 -6q-121 0 -191 85t-48 208l98 549q24 126 112 202t207 76h84q109 0 209 -110l37 -41l31 143h282l-194 -1106h-285l29 143
l-43 -39q-119 -111 -244 -110h-84z" />
    <glyph glyph-name="acircumflex" unicode="&#xe2;" horiz-adv-x="1136" 
d="M305 -6q-121 0 -191 85t-48 208l98 549q24 126 112 202t207 76h84q109 0 209 -110l37 -41l31 143h282l-194 -1106h-285l29 143l-43 -39q-119 -111 -244 -110h-84zM571 860h-49q-74 0 -86 -76l-86 -483q-12 -55 43 -55h49q111 0 211 53l49 27l86 454l-28 21
q-84 59 -189 59zM719 1395l-187 -142h-241l330 267h245l236 -267h-225z" />
    <glyph glyph-name="atilde" unicode="&#xe3;" horiz-adv-x="1136" 
d="M305 -6q-121 0 -191 85t-48 208l98 549q24 126 112 202t207 76h84q109 0 209 -110l37 -41l31 143h282l-194 -1106h-285l29 143l-43 -39q-119 -111 -244 -110h-84zM571 860h-49q-74 0 -86 -76l-86 -483q-12 -55 43 -55h49q111 0 211 53l49 27l86 454l-28 21
q-84 59 -189 59zM559 1348l-49 -95h-125l76 185q42 93 133 65l274 -92l54 92h127l-80 -186q-17 -45 -55 -63t-78 -3z" />
    <glyph glyph-name="adieresis" unicode="&#xe4;" horiz-adv-x="1136" 
d="M1024 1262h-250l45 254h250zM614 1262h-247l45 254h247zM571 860h-49q-74 0 -86 -76l-86 -483q-12 -55 43 -55h49q111 0 211 53l49 27l86 454l-28 21q-84 59 -189 59zM305 -6q-121 0 -191 85t-48 208l98 549q24 126 112 202t207 76h84q109 0 209 -110l37 -41l31 143h282
l-194 -1106h-285l29 143l-43 -39q-119 -111 -244 -110h-84z" />
    <glyph glyph-name="aring" unicode="&#xe5;" horiz-adv-x="1136" 
d="M649 1352h109q35 0 41 34l18 111q2 10 0 12t-12 2h-109q-33 1 -39 -34l-18 -111q-2 -14 10 -14zM829 1253h-249q-32 0 -52 26t-14 52l39 217q11 58 65 60h252q32 0 52 -26t14 -52l-39 -217q-11 -60 -68 -60zM571 860h-49q-74 0 -86 -76l-86 -483q-12 -55 43 -55h49
q111 0 211 53l49 27l86 454l-28 21q-84 59 -189 59zM305 -6q-121 0 -191 85t-48 208l98 549q24 126 112 202t207 76h84q109 0 209 -110l37 -41l31 143h282l-194 -1106h-285l29 143l-43 -39q-119 -111 -244 -110h-84z" />
    <glyph glyph-name="ae" unicode="&#xe6;" horiz-adv-x="1689" 
d="M446 246q55 0 172 45l68 26l29 158h-281q-68 0 -80 -72l-18 -102q-12 -55 43 -55h67zM1348 864h-213q-66 0 -84 -63l-25 -144h334l26 152q6 33 -2 44t-36 11zM1096 1114h331q121 0 191 -86t49 -209l-63 -360h-613l-30 -180q0 -35 43 -35h213q72 0 86 75l8 43h278l-16 -92
q-21 -120 -109 -196t-211 -76h-329q-92 0 -156 48t-84 128l-98 -96q-80 -80 -193 -80h-100q-121 0 -193 86t-47 207l21 106q24 135 106 205t211 70h45q147 0 295 -39l39 160q8 35 -2 52t-49 17h-166q-84 0 -98 -88l-2 -12h-279l12 69q20 121 114 202t214 81h293
q72 0 135 -45q76 45 154 45z" />
    <glyph glyph-name="ccedilla" unicode="&#xe7;" horiz-adv-x="1069" 
d="M733 870h-209q-70 0 -82 -71l-90 -516q-8 -51 37 -52h209q66 0 78 72l16 100h283l-23 -137q-20 -120 -108 -196t-211 -76h-92l-64 -94h37q78 0 121 -43t29 -119l-5 -21q-29 -141 -182 -141h-192l-80 119h248q31 0 41 43l4 20q4 23 -13 23h-241l135 213h-74
q-121 0 -191 85t-48 208l98 549q24 126 112 202t207 76l328 -4q119 0 191 -86t49 -209l-21 -117h-282l20 121q8 51 -35 51z" />
    <glyph glyph-name="egrave" unicode="&#xe8;" horiz-adv-x="1081" 
d="M733 872h-217q-68 0 -80 -71l-24 -142h329l29 162q8 51 -37 51zM600 227q63 0 80 72l10 51h283l-15 -84q-20 -120 -108 -196t-211 -76h-334q-121 0 -191 85t-48 208l98 549q24 126 112 202t207 76l328 -4q119 0 191 -86t49 -209l-62 -350h-612l-33 -186q-10 -50 39 -52
h217zM653 1253l-280 295h346l127 -295h-193z" />
    <glyph glyph-name="eacute" unicode="&#xe9;" horiz-adv-x="1081" 
d="M737 1249h-213l234 295h346zM733 872h-217q-68 0 -80 -71l-24 -142h329l29 162q8 51 -37 51zM600 227q63 0 80 72l10 51h283l-15 -84q-20 -120 -108 -196t-211 -76h-334q-121 0 -191 85t-48 208l98 549q24 126 112 202t207 76l328 -4q119 0 191 -86t49 -209l-62 -350
h-612l-33 -186q-10 -50 39 -52h217z" />
    <glyph glyph-name="ecircumflex" unicode="&#xea;" horiz-adv-x="1081" 
d="M733 872h-217q-68 0 -80 -71l-24 -142h329l29 162q8 51 -37 51zM600 227q63 0 80 72l10 51h283l-15 -84q-20 -120 -108 -196t-211 -76h-334q-121 0 -191 85t-48 208l98 549q24 126 112 202t207 76l328 -4q119 0 191 -86t49 -209l-62 -350h-612l-33 -186q-10 -50 39 -52
h217zM528 1253h-241l329 267h246l236 -267h-226l-157 142z" />
    <glyph glyph-name="edieresis" unicode="&#xeb;" horiz-adv-x="1081" 
d="M1014 1257h-250l45 254h250zM604 1257h-248l45 254h248zM733 872h-217q-68 0 -80 -71l-24 -142h329l29 162q8 51 -37 51zM600 227q63 0 80 72l10 51h283l-15 -84q-20 -120 -108 -196t-211 -76h-334q-121 0 -191 85t-48 208l98 549q24 126 112 202t207 76l328 -4
q119 0 191 -86t49 -209l-62 -350h-612l-33 -186q-10 -50 39 -52h217z" />
    <glyph glyph-name="igrave" unicode="&#xec;" horiz-adv-x="540" 
d="M565 1253h-192l-281 295h346zM326 0h-283l195 1106h282z" />
    <glyph glyph-name="iacute" unicode="&#xed;" horiz-adv-x="540" 
d="M510 1106l-195 -1106h-282l194 1106h283zM406 1253h-213l233 295h346z" />
    <glyph glyph-name="icircumflex" unicode="&#xee;" horiz-adv-x="540" 
d="M416 1395l-187 -142h-239l327 267h246l236 -267h-226zM326 0h-283l195 1106h282z" />
    <glyph glyph-name="idieresis" unicode="&#xef;" horiz-adv-x="540" 
d="M522 1106l-194 -1106h-285l195 1106h284zM723 1253h-250l45 254h250zM313 1253h-247l45 254h247z" />
    <glyph glyph-name="eth" unicode="&#xf0;" horiz-adv-x="1101" 
d="M512 793q-74 0 -86 -76l-76 -426q-8 -51 37 -51h234q68 0 79 71l74 402l-22 22q-57 57 -191 58h-49zM659 -8h-352q-121 0 -191 85t-48 208l86 487q24 125 112 202t207 77h84q102 0 209 -113l37 -39l31 154q12 65 6 87t-39 36l-76 30l-92 -82h-246l170 150l-154 61l29 164
l293 -78l100 88h246l-166 -147q139 -47 187 -125t22 -207l-135 -766q-21 -120 -109 -196t-211 -76z" />
    <glyph glyph-name="ntilde" unicode="&#xf1;" horiz-adv-x="1142" 
d="M717 858q-119 0 -215 -53l-47 -27l-140 -778h-282l194 1104h283l-31 -143l43 38q121 113 244 113h68q120 0 190 -86t49 -209l-143 -817h-283l148 803q12 55 -43 55h-35zM586 1346l-49 -95h-125l75 185q42 94 134 65l274 -92l53 92h127l-80 -186q-18 -45 -55 -63t-78 -3z
" />
    <glyph glyph-name="ograve" unicode="&#xf2;" horiz-adv-x="1099" 
d="M655 -6h-350q-121 0 -191 85t-48 208l98 549q24 126 112 202t207 76l348 -4q119 0 191 -86t49 -209l-96 -549q-21 -120 -109 -196t-211 -76zM754 868h-234q-70 0 -82 -71l-90 -516q-8 -51 37 -52h233q68 0 80 72l90 516q8 51 -34 51zM852 1249h-193l-280 295h346z" />
    <glyph glyph-name="oacute" unicode="&#xf3;" horiz-adv-x="1099" 
d="M750 1249h-213l233 295h346zM754 868h-234q-70 0 -82 -71l-90 -516q-8 -51 37 -52h233q68 0 80 72l90 516q8 51 -34 51zM655 -6h-350q-121 0 -191 85t-48 208l98 549q24 126 112 202t207 76l348 -4q119 0 191 -86t49 -209l-96 -549q-21 -120 -109 -196t-211 -76z" />
    <glyph glyph-name="ocircumflex" unicode="&#xf4;" horiz-adv-x="1099" 
d="M655 -6h-350q-121 0 -191 85t-48 208l98 549q24 126 112 202t207 76l348 -4q119 0 191 -86t49 -209l-96 -549q-21 -120 -109 -196t-211 -76zM754 868h-234q-70 0 -82 -71l-90 -516q-8 -51 37 -52h233q68 0 80 72l90 516q8 51 -34 51zM721 1391l-186 -142h-242l330 267
h245l236 -267h-225z" />
    <glyph glyph-name="otilde" unicode="&#xf5;" horiz-adv-x="1099" 
d="M655 -6h-350q-121 0 -191 85t-48 208l98 549q24 126 112 202t207 76l348 -4q119 0 191 -86t49 -209l-96 -549q-21 -120 -109 -196t-211 -76zM754 868h-234q-70 0 -82 -71l-90 -516q-8 -51 37 -52h233q68 0 80 72l90 516q8 51 -34 51zM561 1343l-49 -94h-125l76 185
q42 93 133 65l274 -92l54 92h127l-80 -186q-18 -45 -55 -63t-78 -3z" />
    <glyph glyph-name="odieresis" unicode="&#xf6;" horiz-adv-x="1099" 
d="M1026 1257h-250l45 254h250zM616 1257h-247l45 254h248zM754 868h-234q-70 0 -82 -71l-90 -516q-8 -51 37 -52h233q68 0 80 72l90 516q8 51 -34 51zM655 -6h-350q-121 0 -191 85t-48 208l98 549q24 126 112 202t207 76l348 -4q119 0 191 -86t49 -209l-96 -549
q-21 -120 -109 -196t-211 -76z" />
    <glyph glyph-name="divide" unicode="&#xf7;" horiz-adv-x="1019" 
d="M582 207h-269l49 270h269zM131 895h881l-49 -274h-881zM729 1038h-268l47 271h268z" />
    <glyph glyph-name="oslash" unicode="&#xf8;" horiz-adv-x="1107" 
d="M623 242q74 0 86 75l69 398l-291 -473h136zM522 856q-74 0 -86 -76l-69 -393l288 469h-133zM664 -6h-359q-121 0 -191 85t-48 208l98 549q24 126 112 202t207 76l357 -4q118 0 190 -86t49 -209l-96 -549q-21 -120 -109 -196t-210 -76z" />
    <glyph glyph-name="ugrave" unicode="&#xf9;" horiz-adv-x="1144" 
d="M451 248q111 0 211 53l49 27l139 780h283l-195 -1106h-283l29 143l-43 -39q-119 -111 -244 -110h-67q-121 0 -191 85t-49 208l146 817h282l-143 -803q-12 -55 43 -55h33zM868 1255h-192l-281 295h346z" />
    <glyph glyph-name="uacute" unicode="&#xfa;" horiz-adv-x="1144" 
d="M766 1255h-213l233 295h347zM451 248q111 0 211 53l49 27l139 780h283l-195 -1106h-283l29 143l-43 -39q-119 -111 -244 -110h-67q-121 0 -191 85t-49 208l146 817h282l-143 -803q-12 -55 43 -55h33z" />
    <glyph glyph-name="ucircumflex" unicode="&#xfb;" horiz-adv-x="1144" 
d="M451 248q111 0 211 53l49 27l139 780h283l-195 -1106h-283l29 143l-43 -39q-119 -111 -244 -110h-67q-121 0 -191 85t-49 208l146 817h282l-143 -803q-12 -55 43 -55h33zM737 1397l-186 -142h-242l330 267h246l235 -267h-225z" />
    <glyph glyph-name="udieresis" unicode="&#xfc;" horiz-adv-x="1144" 
d="M1042 1264h-249l45 254h249zM633 1264h-248l45 254h248zM451 248q111 0 211 53l49 27l139 780h283l-195 -1106h-283l29 143l-43 -39q-119 -111 -244 -110h-67q-121 0 -191 85t-49 208l146 817h282l-143 -803q-12 -55 43 -55h33z" />
    <glyph glyph-name="yacute" unicode="&#xfd;" horiz-adv-x="1083" 
d="M731 1253h-213l234 295h346zM1155 1106l-776 -1499h-273l203 393l-178 1106h260l103 -748l385 748h276z" />
    <glyph glyph-name="thorn" unicode="&#xfe;" horiz-adv-x="1138" 
d="M719 858q-119 0 -215 -53l-47 -27l-86 -454l26 -21q33 -25 89 -43t100 -18h49q72 -1 86 75l90 486q12 55 -43 55h-49zM676 -6h-84q-109 0 -209 108l-37 41l-100 -536h-281l342 1941h283l-109 -585l43 38q129 119 244 113l84 -4q126 -6 194 -89t46 -206l-97 -549
q-20 -120 -108 -196t-211 -76z" />
    <glyph glyph-name="ydieresis" unicode="&#xff;" horiz-adv-x="1083" 
d="M1008 1262h-250l45 254h250zM598 1262h-248l45 254h248zM1155 1106l-776 -1499h-273l203 393l-178 1106h260l103 -748l385 748h276z" />
    <glyph glyph-name="Amacron" unicode="&#x100;" horiz-adv-x="1333" 
d="M834 610l-60 543l-246 -543h306zM864 332h-463l-151 -332h-316l719 1475h344l207 -1475h-303zM1135 1630h-555l41 230h555z" />
    <glyph glyph-name="amacron" unicode="&#x101;" horiz-adv-x="1136" 
d="M1016 1503l-41 -229h-555l41 229h555zM571 860h-49q-74 0 -86 -76l-86 -483q-12 -55 43 -55h49q111 0 211 53l49 27l86 454l-28 21q-84 59 -189 59zM305 -6q-121 0 -191 85t-48 208l98 549q24 126 112 202t207 76h84q109 0 209 -110l37 -41l31 143h282l-194 -1106h-285
l29 143l-43 -39q-119 -111 -244 -110h-84z" />
    <glyph glyph-name="Abreve" unicode="&#x102;" horiz-adv-x="1333" 
d="M834 610l-60 543l-246 -543h306zM864 332h-463l-151 -332h-316l719 1475h344l207 -1475h-303zM975 1610h-223q-51 0 -88 43t-27 96l25 135h159l-16 -94q-6 -35 22 -35h103q31 0 37 31l16 98h160l-27 -155q-10 -53 -49 -86t-92 -33z" />
    <glyph glyph-name="abreve" unicode="&#x103;" horiz-adv-x="1136" 
d="M815 1255h-223q-51 0 -88 43t-27 97l25 135h160l-17 -94q-6 -35 23 -35h102q31 0 37 31l16 98h160l-27 -156q-10 -51 -49 -85t-92 -34zM571 860h-49q-74 0 -86 -76l-86 -483q-12 -55 43 -55h49q111 0 211 53l49 27l86 454l-28 21q-84 59 -189 59zM305 -6q-121 0 -191 85
t-48 208l98 549q24 126 112 202t207 76h84q109 0 209 -110l37 -41l31 143h282l-194 -1106h-285l29 143l-43 -39q-119 -111 -244 -110h-84z" />
    <glyph glyph-name="Aogonek" unicode="&#x104;" horiz-adv-x="1333" 
d="M836 612l-60 543l-246 -543h306zM934 -203h135l-29 -155h-190q-92 0 -125 66t31 140l129 152h16l-37 332h-463l-151 -332h-316l719 1475h344l207 -1475h-137l-129 -170q-19 -27 -16 -30q2 -3 12 -3z" />
    <glyph glyph-name="aogonek" unicode="&#x105;" horiz-adv-x="1136" 
d="M573 862h-49q-74 0 -86 -76l-86 -483q-12 -55 43 -55h49q111 0 211 53l50 27l86 454l-29 21q-84 59 -189 59zM666 -203h135l-29 -155h-190q-92 0 -125 66t30 140l129 152h31l29 143l-43 -39q-119 -111 -244 -110h-84q-121 0 -191 85t-48 208l98 549q24 126 112 202
t207 76h84q109 0 209 -110l37 -41l31 143h282l-194 -1106h-131l-131 -170l-15 -21q-4 -7 -2 -9t13 -3z" />
    <glyph glyph-name="Cacute" unicode="&#x106;" horiz-adv-x="1249" 
d="M899 1610h-213l234 295h346zM803 -6h-463q-129 0 -196 84t-44 215l160 909q20 127 110 204t216 77h461q127 0 195 -87t46 -214l-39 -228h-295l33 191q6 35 -2 47q-10 12 -43 12h-309q-76 0 -92 -80l-140 -794q-7 -33 3 -46t45 -14h309q78 0 90 80l29 170h294l-43 -248
q-20 -126 -108 -202t-217 -76z" />
    <glyph glyph-name="cacute" unicode="&#x107;" horiz-adv-x="1069" 
d="M739 1249h-213l234 295h346zM485 1110h326q119 0 191 -86t49 -209l-21 -117h-282l20 121q8 51 -35 51h-209q-70 0 -82 -71l-90 -516q-8 -51 37 -52h209q66 0 78 72l16 100h283l-23 -137q-20 -120 -108 -196t-211 -76l-326 -4q-121 0 -191 85t-48 208l98 548
q24 125 112 202t207 77z" />
    <glyph glyph-name="Cdotaccent" unicode="&#x10a;" horiz-adv-x="1249" 
d="M971 1618h-248l45 254h248zM803 -6h-463q-129 0 -196 84t-44 215l160 909q20 127 110 204t216 77h461q127 0 195 -87t46 -214l-39 -228h-295l33 191q6 35 -2 47q-10 12 -43 12h-309q-76 0 -92 -80l-140 -794q-7 -33 3 -46t45 -14h309q78 0 90 80l29 170h294l-43 -248
q-20 -126 -108 -202t-217 -76z" />
    <glyph glyph-name="cdotaccent" unicode="&#x10b;" horiz-adv-x="1069" 
d="M811 1257h-248l45 254h248zM485 1110h326q119 0 191 -86t49 -209l-21 -117h-282l20 121q8 51 -35 51h-209q-70 0 -82 -71l-90 -516q-8 -51 37 -52h209q66 0 78 72l16 100h283l-23 -137q-20 -120 -108 -196t-211 -76l-326 -4q-121 0 -191 85t-48 208l98 548
q24 125 112 202t207 77z" />
    <glyph glyph-name="Ccaron" unicode="&#x10c;" horiz-adv-x="1249" 
d="M340 -6q-129 0 -196 84t-44 215l160 909q20 127 110 204t216 77h461q127 0 195 -87t46 -214l-39 -228h-295l33 191q6 35 -2 47q-10 12 -43 12h-309q-76 0 -92 -80l-140 -794q-7 -33 3 -46t45 -14h309q78 0 90 80l29 170h294l-43 -248q-20 -126 -108 -202t-217 -76h-463z
M963 1610h-246l-236 266h226l157 -141l180 141h248z" />
    <glyph glyph-name="ccaron" unicode="&#x10d;" horiz-adv-x="1069" 
d="M485 1110h326q119 0 191 -86t49 -209l-21 -117h-282l20 121q8 51 -35 51h-209q-70 0 -82 -71l-90 -516q-8 -51 37 -52h209q66 0 78 72l16 100h283l-23 -137q-20 -120 -108 -196t-211 -76l-326 -4q-121 0 -191 85t-48 208l98 548q24 125 112 202t207 77zM803 1249h-246
l-235 267h225l158 -142l180 142h248z" />
    <glyph glyph-name="Dcaron" unicode="&#x10e;" horiz-adv-x="1320" 
d="M1065 1475q127 0 197 -86t49 -215l-158 -893q-19 -127 -109 -204t-217 -77h-766l258 1475h746zM780 279q72 0 88 79l138 779q6 35 -2 47t-43 12h-396l-159 -917h374zM961 1610h-246l-236 266h226l157 -141l180 141h248z" />
    <glyph glyph-name="dcaron" unicode="&#x10f;" horiz-adv-x="1138" 
d="M571 860h-49q-74 0 -86 -76l-86 -483q-12 -55 43 -55h49q111 0 211 53l49 27l86 454l-28 21q-84 59 -189 59zM1550 1548l-39 -231q-14 -82 -122 -191l-154 -151h-121l205 274h-105l52 299h284zM305 -6q-121 0 -191 85t-48 208l98 549q24 126 112 202t207 76h84
q109 0 209 -110l37 -41l109 585h282l-272 -1548h-285l29 143l-43 -39q-119 -111 -244 -110h-84z" />
    <glyph glyph-name="Dcroat" unicode="&#x110;" horiz-adv-x="1294" 
d="M944 1196h-395l-53 -307h143l-51 -295h-144l-55 -315h375q74 -1 88 79l137 779q6 35 -2 47t-43 12zM1049 1475q127 0 197 -86t48 -215l-157 -893q-19 -127 -109 -204t-217 -77h-766l105 594h-144l51 295h144l102 586h746z" />
    <glyph glyph-name="dcroat" unicode="&#x111;" horiz-adv-x="1136" 
d="M442 860h-49q-74 0 -86 -76l-86 -483q-12 -55 43 -55h49q111 0 211 53l49 27l86 454l-28 23q-74 57 -189 57zM176 -6q-123 0 -188 84q-70 86 -49 209l96 549q23 126 111 202t208 76h84q102 0 209 -113l37 -38l43 229h-235l34 188h236l31 168h282l-28 -168h112l-35 -188
h-114l-209 -1192h-283l29 143l-43 -39q-119 -111 -244 -110h-84z" />
    <glyph glyph-name="Emacron" unicode="&#x112;" 
d="M1143 1860l-41 -230h-555l41 230h555zM319 1475h949l-49 -279h-654l-53 -303h528l-49 -279h-528l-57 -335h653l-49 -279h-949z" />
    <glyph glyph-name="emacron" unicode="&#x113;" horiz-adv-x="1081" 
d="M733 872h-217q-68 0 -80 -71l-24 -142h329l29 162q8 51 -37 51zM600 227q63 0 80 72l10 51h283l-15 -84q-20 -120 -108 -196t-211 -76h-334q-121 0 -191 85t-48 208l98 549q24 126 112 202t207 76l328 -4q119 0 191 -86t49 -209l-62 -350h-612l-33 -186q-10 -50 39 -52
h217zM971 1274h-555l41 229h555z" />
    <glyph glyph-name="Edotaccent" unicode="&#x116;" 
d="M946 1618h-248l45 254h248zM319 1475h949l-49 -279h-654l-53 -303h528l-49 -279h-528l-57 -335h653l-49 -279h-949z" />
    <glyph glyph-name="edotaccent" unicode="&#x117;" horiz-adv-x="1081" 
d="M809 1257h-248l45 254h248zM733 872h-217q-68 0 -80 -71l-24 -142h329l29 162q8 51 -37 51zM600 227q63 0 80 72l10 51h283l-15 -84q-20 -120 -108 -196t-211 -76h-334q-121 0 -191 85t-48 208l98 549q24 126 112 202t207 76l328 -4q119 0 191 -86t49 -209l-62 -350h-612
l-33 -186q-10 -50 39 -52h217z" />
    <glyph glyph-name="Eogonek" unicode="&#x118;" 
d="M881 -203h135l-29 -155h-190q-92 0 -125 66t30 140l129 152h-770l258 1475h949l-49 -279h-654l-51 -301h528l-49 -279h-528l-57 -335h653l-49 -279h4l-131 -172l-15 -21q-4 -7 -2 -9t13 -3z" />
    <glyph glyph-name="eogonek" unicode="&#x119;" horiz-adv-x="1081" 
d="M735 874h-217q-68 0 -80 -71l-24 -141h329l29 161q8 51 -37 51zM602 229q63 0 80 72l10 51h283l-14 -84q-21 -120 -109 -196t-211 -76h-66q-124 -166 -134 -180q-9 -14 -7 -16t12 -3h136l-29 -155h-191q-92 0 -122 61t28 145l123 146h-86q-121 0 -191 85t-48 208l98 549
q24 126 112 202t207 76l330 -2q121 0 191 -86t49 -209l-62 -350h-612l-33 -186q-10 -50 39 -52h217z" />
    <glyph glyph-name="Ecaron" unicode="&#x11a;" 
d="M1268 1475l-49 -279h-654l-53 -303h528l-49 -279h-528l-57 -335h653l-49 -279h-949l258 1475h949zM938 1610h-246l-235 266h225l158 -141l180 141h248z" />
    <glyph glyph-name="ecaron" unicode="&#x11b;" horiz-adv-x="1081" 
d="M733 872h-217q-68 0 -80 -71l-24 -142h329l29 162q8 51 -37 51zM600 227q63 0 80 72l10 51h283l-15 -84q-20 -120 -108 -196t-211 -76h-334q-121 0 -191 85t-48 208l98 549q24 126 112 202t207 76l328 -4q119 0 191 -86t49 -209l-62 -350h-612l-33 -186q-10 -50 39 -52
h217zM561 1253l-235 267h225l158 -142l180 142h248l-330 -267h-246z" />
    <glyph glyph-name="Gbreve" unicode="&#x11e;" horiz-adv-x="1288" 
d="M975 1612h-223q-51 0 -88 43t-27 96l25 135h159l-16 -94q-6 -35 22 -35h103q31 0 37 31l16 98h160l-27 -155q-10 -51 -49 -85t-92 -34zM954 1204h-327q-78 0 -92 -80l-140 -794q-6 -33 4 -46t43 -14h328q78 0 92 80l37 209h-262l47 266h557l-98 -553q-21 -126 -109 -202
t-217 -76h-479q-129 0 -196 84t-44 215l160 909q20 127 110 204t216 77h479q127 0 195 -87t47 -214l-31 -183h-295l20 146q6 33 -3 46t-42 13z" />
    <glyph glyph-name="gbreve" unicode="&#x11f;" horiz-adv-x="1136" 
d="M573 862h-49q-74 0 -86 -76l-71 -409q-11 -55 41 -55h49q111 0 211 53l49 26l74 381l-29 19q-94 61 -189 61zM274 -397q-118 0 -190 86t-49 209l10 55h270l-10 -59q-6 -38 3 -54t48 -16h176q84 0 99 88l57 305l-43 -39q-121 -113 -244 -112h-84q-121 0 -191 86t-48 208
l84 476q24 126 112 202t207 76h84q115 0 209 -108l37 -43l31 143h282l-215 -1229q-20 -121 -109 -198t-210 -76h-316zM836 1255h-224q-51 0 -88 43t-26 97l24 135h160l-16 -94q-6 -35 22 -35h103q31 0 36 31l17 98h160l-27 -156q-10 -51 -49 -85t-92 -34z" />
    <glyph glyph-name="Gdotaccent" unicode="&#x120;" horiz-adv-x="1288" 
d="M979 1618h-248l45 254h248zM954 1204h-327q-78 0 -92 -80l-140 -794q-6 -33 4 -46t43 -14h328q78 0 92 80l37 209h-262l47 266h557l-98 -553q-21 -126 -109 -202t-217 -76h-479q-129 0 -196 84t-44 215l160 909q20 127 110 204t216 77h479q127 0 195 -87t47 -214
l-31 -183h-295l20 146q6 33 -3 46t-42 13z" />
    <glyph glyph-name="gdotaccent" unicode="&#x121;" horiz-adv-x="1136" 
d="M842 1264h-248l45 254h248zM573 862h-49q-74 0 -86 -76l-71 -409q-11 -55 41 -55h49q111 0 211 53l49 26l74 381l-29 19q-94 61 -189 61zM274 -397q-118 0 -190 86t-49 209l10 55h270l-10 -59q-6 -38 3 -54t48 -16h176q84 0 99 88l57 305l-43 -39q-121 -113 -244 -112
h-84q-121 0 -191 86t-48 208l84 476q24 126 112 202t207 76h84q115 0 209 -108l37 -43l31 143h282l-215 -1229q-20 -121 -109 -198t-210 -76h-316z" />
    <glyph glyph-name="Gcommaaccent" unicode="&#x122;" horiz-adv-x="1288" 
d="M686 -141l-41 -232q-16 -90 -121 -190l-153 -152h-121l203 275h-105l53 299h285zM954 1204h-327q-78 0 -92 -80l-140 -794q-6 -33 4 -46t43 -14h328q78 0 92 80l37 209h-262l47 266h557l-98 -553q-21 -126 -109 -202t-217 -76h-479q-129 0 -196 84t-44 215l160 909
q20 127 110 204t216 77h479q127 0 195 -87t47 -214l-31 -183h-295l20 146q6 33 -3 46t-42 13z" />
    <glyph glyph-name="gcommaaccent" unicode="&#x123;" horiz-adv-x="1136" 
d="M477 862h-49q-74 0 -86 -76l-72 -409q-6 -29 3 -42t38 -13h49q111 0 211 53l50 26l73 381l-28 19q-96 61 -189 61zM178 -397q-121 0 -188 86q-72 86 -49 209l10 55h268l-10 -59q-6 -38 3 -54t48 -16h176q84 0 99 88l57 305l-43 -39q-121 -113 -244 -112h-84
q-119 0 -190 86q-68 88 -47 208l82 476q24 126 112 202t207 76h84q115 0 209 -108l37 -43l30 143h283l-215 -1229q-19 -121 -109 -198t-210 -76h-316zM668 1262l41 231q16 90 120 190l154 152h121l-203 -274h105l-54 -299h-284z" />
    <glyph glyph-name="Hbar" unicode="&#x126;" horiz-adv-x="1406" 
d="M1034 1055h-485l-27 -154h486zM1481 1055h-152l-184 -1055h-295l108 623h-485l-108 -623h-295l184 1055h-152l37 205h152l37 215h295l-37 -215h485l37 215h295l-37 -215h152z" />
    <glyph glyph-name="hbar" unicode="&#x127;" horiz-adv-x="1138" 
d="M717 860q-119 0 -215 -53l-47 -27l-140 -780h-282l209 1192h-119l35 188h118l29 168h283l-31 -168h234l-35 -188h-234l-43 -229l43 38q125 115 244 113l74 -2q122 -4 192 -88t47 -207l-143 -817h-283l142 805q12 55 -43 55h-35z" />
    <glyph glyph-name="Imacron" unicode="&#x12a;" horiz-adv-x="610" 
d="M815 1860l-41 -230h-555l41 230h555zM61 0l258 1475h295l-258 -1475h-295z" />
    <glyph glyph-name="imacron" unicode="&#x12b;" horiz-adv-x="540" 
d="M520 1106l-194 -1106h-283l195 1106h282zM713 1483l-41 -230h-555l41 230h555z" />
    <glyph glyph-name="Iogonek" unicode="&#x12e;" horiz-adv-x="610" 
d="M219 -203h135l-28 -155h-191q-92 0 -123 61q-33 74 29 145l129 152h-78l258 1475h295l-258 -1475h-35l-129 -170q-19 -27 -16 -30q2 -3 12 -3z" />
    <glyph glyph-name="iogonek" unicode="&#x12f;" horiz-adv-x="540" 
d="M117 -203h135l-29 -155h-190q-90 0 -123 66t31 140l127 152h-5l195 1106l285 2l-195 -1106h-96l-131 -172l-15 -21q-4 -7 -2 -9t13 -3zM627 1548l-47 -266h-299l47 266h299z" />
    <glyph glyph-name="Idotaccent" unicode="&#x130;" horiz-adv-x="610" 
d="M618 1618h-247l45 254h248zM61 0l258 1475h295l-258 -1475h-295z" />
    <glyph glyph-name="IJ" unicode="&#x132;" horiz-adv-x="1789" 
d="M59 0l258 1475h295l-258 -1475h-295zM1278 -6h-422q-130 0 -196 84t-44 215l56 313h295l-49 -276q-6 -33 3 -46t44 -14h272q74 0 88 80l197 1125h295l-213 -1203q-20 -126 -108 -202t-218 -76z" />
    <glyph glyph-name="ij" unicode="&#x133;" horiz-adv-x="1126" 
d="M553 -410h-225l43 246h147q68 0 80 72l213 1198h283l-222 -1241q-20 -121 -109 -198t-210 -77zM510 1106l-195 -1106h-282l194 1106h283zM1135 1282h-301l47 266h301zM549 1282h-299l47 266h299z" />
    <glyph glyph-name="Kcommaaccent" unicode="&#x136;" horiz-adv-x="1335" 
d="M455 -141h284l-41 -232q-16 -90 -120 -190l-154 -152h-121l203 275h-105zM897 885l309 -885h-307l-223 647l-254 -270l-70 -377h-291l258 1475h291l-125 -691l613 691h352z" />
    <glyph glyph-name="kcommaaccent" unicode="&#x137;" horiz-adv-x="1155" 
d="M350 -141h285l-41 -232q-16 -90 -121 -190l-154 -152h-120l202 275h-104zM764 657l270 -657h-289l-186 457l-197 -195l-49 -262h-278l258 1475h278l-155 -863l444 494h359z" />
    <glyph glyph-name="Lacute" unicode="&#x139;" horiz-adv-x="1110" 
d="M547 1610h-213l233 295h346zM319 1475h295l-208 -1196h602l-50 -279h-897z" />
    <glyph glyph-name="lacute" unicode="&#x13a;" horiz-adv-x="532" 
d="M522 1683h-213l234 295h346zM301 1548h283l-273 -1548h-282z" />
    <glyph glyph-name="Lcommaaccent" unicode="&#x13b;" horiz-adv-x="1110" 
d="M627 -141l-41 -232q-16 -90 -121 -190l-154 -152h-121l203 275h-104l53 299h285zM319 1475h295l-208 -1196h602l-50 -279h-897z" />
    <glyph glyph-name="lcommaaccent" unicode="&#x13c;" horiz-adv-x="532" 
d="M287 -141l-41 -232q-16 -86 -121 -190l-152 -152h-120l200 275h-102l51 299h285zM301 1548h283l-273 -1548h-282z" />
    <glyph glyph-name="Lcaron" unicode="&#x13d;" horiz-adv-x="1110" 
d="M1008 279l-50 -279h-897l258 1475h295l-86 -496l201 270h-104l51 299h285l-41 -231q-16 -90 -121 -191l-154 -151h-119l-120 -696h602z" />
    <glyph glyph-name="lcaron" unicode="&#x13e;" horiz-adv-x="532" 
d="M946 1548l-41 -231q-16 -90 -121 -191l-153 -151h-121l205 274h-105l52 299h284zM301 1548h283l-273 -1548h-282z" />
    <glyph glyph-name="Ldot" unicode="&#x13f;" horiz-adv-x="1110" 
d="M866 645h-284l53 299h285zM319 1475h295l-208 -1196h602l-50 -279h-897z" />
    <glyph glyph-name="ldot" unicode="&#x140;" horiz-adv-x="860" 
d="M852 643h-285l54 299h284zM301 1548h283l-273 -1548h-282z" />
    <glyph glyph-name="Lslash" unicode="&#x141;" horiz-adv-x="1110" 
d="M1008 283l-50 -283h-897l109 614l-137 -49l45 273l139 51l102 586h295l-82 -471l289 104l-45 -272l-293 -107l-77 -446h602z" />
    <glyph glyph-name="lslash" unicode="&#x142;" horiz-adv-x="704" 
d="M731 836l-199 -76l-133 -760h-282l112 643l-200 -78l45 273l205 77l110 633h283l-90 -516l194 76z" />
    <glyph glyph-name="Nacute" unicode="&#x143;" horiz-adv-x="1431" 
d="M958 1610h-213l234 295h346zM1159 1475h277l-258 -1475h-306l-354 1006l-180 -1006h-277l258 1475h308l352 -1006z" />
    <glyph glyph-name="nacute" unicode="&#x144;" horiz-adv-x="1142" 
d="M774 1251h-213l234 295h346zM717 858q-119 0 -215 -53l-47 -27l-140 -778h-282l194 1104h283l-31 -143l43 38q121 113 244 113h68q120 0 190 -86t49 -209l-143 -817h-283l148 803q12 55 -43 55h-35z" />
    <glyph glyph-name="Ncommaaccent" unicode="&#x145;" horiz-adv-x="1431" 
d="M737 -141l-41 -232q-16 -90 -121 -190l-153 -152h-121l203 275h-105l54 299h284zM1159 1475h277l-258 -1475h-306l-354 1006l-180 -1006h-277l258 1475h308l352 -1006z" />
    <glyph glyph-name="ncommaaccent" unicode="&#x146;" horiz-adv-x="1142" 
d="M604 -143l-41 -232q-16 -90 -121 -190l-153 -152h-121l203 275h-105l53 299h285zM717 858q-119 0 -215 -53l-47 -27l-140 -778h-282l194 1104h283l-31 -143l43 38q121 113 244 113h68q120 0 190 -86t49 -209l-143 -817h-283l148 803q12 55 -43 55h-35z" />
    <glyph glyph-name="Ncaron" unicode="&#x147;" horiz-adv-x="1431" 
d="M1436 1475l-258 -1475h-306l-354 1006l-180 -1006h-277l258 1475h308l352 -1006l180 1006h277zM1022 1610h-246l-235 266h225l158 -141l180 141h248z" />
    <glyph glyph-name="ncaron" unicode="&#x148;" horiz-adv-x="1142" 
d="M717 858q-119 0 -215 -53l-47 -27l-140 -778h-282l194 1104h283l-31 -143l43 38q121 113 244 113h68q120 0 190 -86t49 -209l-143 -817h-283l148 803q12 55 -43 55h-35zM838 1251h-246l-236 267h226l157 -142l181 142h247z" />
    <glyph glyph-name="Eng" unicode="&#x14a;" horiz-adv-x="1427" 
d="M829 -410h-258l45 254h191q27 0 53 23q25 23 29 53l18 78l-389 1003l-180 -1001h-277l258 1475h316l354 -928l166 928h277l-283 -1610q-19 -121 -109 -198t-211 -77z" />
    <glyph glyph-name="eng" unicode="&#x14b;" horiz-adv-x="1142" 
d="M555 -156q70 0 82 76l158 885q12 55 -43 55h-35q-119 0 -215 -53l-47 -27l-140 -780h-282l194 1106h283l-31 -143l43 38q129 119 244 113l74 -4q126 -6 194 -89t45 -206l-166 -942q-20 -121 -109 -198t-210 -76h-211l43 245h129z" />
    <glyph glyph-name="Omacron" unicode="&#x14c;" horiz-adv-x="1300" 
d="M1180 1860l-41 -230h-555l41 230h555zM780 270q72 0 88 80l140 795q6 35 -2 47q-10 12 -39 12h-336q-78 0 -92 -80l-142 -794q-6 -33 3 -46t44 -14h336zM827 -6h-487q-129 0 -196 84t-44 215l160 909q20 127 110 204t216 77h485q127 0 195 -87t47 -214l-160 -910
q-21 -126 -109 -202t-217 -76z" />
    <glyph glyph-name="omacron" unicode="&#x14d;" horiz-adv-x="1099" 
d="M1018 1499l-41 -229h-555l41 229h555zM754 868h-234q-70 0 -82 -71l-90 -516q-8 -51 37 -52h233q68 0 80 72l90 516q8 51 -34 51zM655 -6h-350q-121 0 -191 85t-48 208l98 549q24 126 112 202t207 76l348 -4q119 0 191 -86t49 -209l-96 -549q-21 -120 -109 -196t-211 -76
z" />
    <glyph glyph-name="Ohungarumlaut" unicode="&#x150;" horiz-adv-x="1300" 
d="M1413 1907l-285 -297h-266l285 297h266zM1012 1907l-283 -297h-266l285 297h264zM780 270q72 0 88 80l140 795q6 35 -2 47q-10 12 -39 12h-336q-78 0 -92 -80l-142 -794q-6 -33 3 -46t44 -14h336zM827 -6h-487q-129 0 -196 84t-44 215l160 909q20 127 110 204t216 77h485
q127 0 195 -87t47 -214l-160 -910q-21 -126 -109 -202t-217 -76z" />
    <glyph glyph-name="ohungarumlaut" unicode="&#x151;" horiz-adv-x="1099" 
d="M1251 1546l-284 -297h-267l285 297h266zM850 1546l-283 -297h-266l285 297h264zM754 868h-234q-70 0 -82 -71l-90 -516q-8 -51 37 -52h233q68 0 80 72l90 516q8 51 -34 51zM655 -6h-350q-121 0 -191 85t-48 208l98 549q24 126 112 202t207 76l348 -4q119 0 191 -86
t49 -209l-96 -549q-21 -120 -109 -196t-211 -76z" />
    <glyph glyph-name="OE" unicode="&#x152;" horiz-adv-x="1953" 
d="M446 279h338q76 0 93 79l137 779q6 33 -4 46t-43 13h-342q-72 0 -88 -80l-138 -778q-6 -33 4 -46t43 -13zM342 0q-125 0 -197 86t-49 215l158 893q20 127 110 204t216 77h1460l-49 -279h-668l-43 -246l-10 -61h526l-49 -279h-526l-58 -331h668l-49 -279h-1440z" />
    <glyph glyph-name="oe" unicode="&#x153;" horiz-adv-x="1710" 
d="M625 240q68 0 80 67l88 492q12 55 -43 55h-234q-74 0 -86 -76l-86 -483q-12 -55 43 -55h238zM1362 858h-213q-63 0 -82 -59l-27 -148h334l27 152q6 33 -3 44t-36 11zM1018 240h213q72 0 86 75l8 43h279l-17 -92q-20 -120 -108 -196t-211 -76h-330q-82 0 -133 35
q-63 -35 -150 -35h-350q-121 0 -191 85t-48 208l98 549q24 126 112 202t207 76h351q78 0 133 -37q73 39 149 37l326 -6q122 -4 192 -88t47 -207l-63 -360h-612l-31 -174q-4 -19 5 -29t38 -10z" />
    <glyph glyph-name="Racute" unicode="&#x154;" horiz-adv-x="1306" 
d="M862 1608h-213l234 295h346zM940 1194h-379l-65 -375h358q80 0 92 80l39 236q6 35 -2 47t-43 12zM319 1475l728 -2q125 -1 197 -87t48 -215l-61 -346q-18 -102 -85 -176t-163 -94l143 -555h-309l-135 547h-229l-97 -547h-295z" />
    <glyph glyph-name="racute" unicode="&#x155;" horiz-adv-x="858" 
d="M655 1253h-213l234 295h346zM713 852q-111 0 -211 -53l-49 -27l-138 -772h-282l194 1106h283l-31 -143l43 38q121 113 244 113h143l-45 -262h-151z" />
    <glyph glyph-name="Rcommaaccent" unicode="&#x156;" horiz-adv-x="1306" 
d="M397 -143h285l-41 -232q-16 -90 -121 -190l-153 -152h-121l203 275h-105zM940 1194h-379l-65 -375h358q80 0 92 80l39 236q6 35 -2 47t-43 12zM319 1475l728 -2q125 -1 197 -87t48 -215l-61 -346q-18 -102 -85 -176t-163 -94l143 -555h-309l-135 547h-229l-97 -547h-295z
" />
    <glyph glyph-name="rcommaaccent" unicode="&#x157;" horiz-adv-x="858" 
d="M293 -141l-41 -232q-16 -86 -121 -190l-151 -152h-121l200 275h-102l51 299h285zM713 852q-111 0 -211 -53l-49 -27l-138 -772h-282l194 1106h283l-31 -143l43 38q121 113 244 113h143l-45 -262h-151z" />
    <glyph glyph-name="Rcaron" unicode="&#x158;" horiz-adv-x="1306" 
d="M940 1194h-379l-65 -375h358q80 0 92 80l39 236q6 35 -2 47t-43 12zM319 1475l728 -2q125 -1 197 -87t48 -215l-61 -346q-18 -102 -85 -176t-163 -94l143 -555h-309l-135 547h-229l-97 -547h-295zM684 1610l-235 266h225l157 -141l181 141h248l-330 -266h-246z" />
    <glyph glyph-name="rcaron" unicode="&#x159;" horiz-adv-x="858" 
d="M713 852q-111 0 -211 -53l-49 -27l-138 -772h-282l194 1106h283l-31 -143l43 38q121 113 244 113h143l-45 -262h-151zM719 1253h-246l-235 267h225l158 -142l180 142h248z" />
    <glyph glyph-name="Sacute" unicode="&#x15a;" horiz-adv-x="1253" 
d="M870 1612h-213l234 295h346zM903 1206h-287q-78 0 -90 -80l-24 -143q-11 -52 47 -63l358 -82q123 -27 196 -105t50 -198l-47 -263q-25 -130 -111 -204t-215 -74h-452q-129 0 -196 84t-44 215l31 178h287l-25 -141q-6 -33 3 -46t44 -14h309q78 0 90 80l27 160
q11 51 -45 63l-358 82q-127 29 -195 106t-47 195l43 246q20 127 109 204t217 77h428q126 0 194 -87t47 -214l-28 -162h-287l12 127q4 39 -4 49t-37 10z" />
    <glyph glyph-name="sacute" unicode="&#x15b;" horiz-adv-x="1056" 
d="M719 1247h-213l233 295h346zM524 879q-68 0 -80 -72l-12 -66q-6 -25 3 -36t40 -17l289 -49q113 -18 166 -85t39 -161l-23 -131q-20 -121 -108 -197t-211 -75h-326q-121 0 -193 86t-47 207l15 73h282l-14 -77q-8 -51 37 -52h209q70 0 80 72l10 68q4 51 -39 55l-289 49
q-119 21 -171 85t-34 161l23 117q25 126 113 202t206 76h287q121 0 191 -86t49 -209l-10 -55h-283l8 65q6 51 -37 52h-170z" />
    <glyph glyph-name="Scedilla" unicode="&#x15e;" horiz-adv-x="1253" 
d="M905 1206h-287q-78 0 -90 -80l-24 -143q-11 -52 47 -63l358 -82q123 -27 195 -105t51 -198l-47 -263q-25 -130 -111 -204t-215 -74h-155l-64 -94h37q78 0 121 -43t29 -119l-5 -21q-29 -141 -182 -141h-192l-80 119h248q31 0 41 43l4 20q4 23 -13 23h-241l135 213h-137
q-129 0 -196 84t-44 215l31 178h287l-25 -141q-6 -33 3 -46t44 -14h309q78 0 90 80l27 160q11 51 -45 63l-358 82q-127 29 -195 106t-47 195l43 246q20 127 110 204t216 77l419 2q127 0 195 -87t47 -214l-29 -162h-286l22 125q6 35 -2 47q-10 12 -39 12z" />
    <glyph glyph-name="scedilla" unicode="&#x15f;" horiz-adv-x="1056" 
d="M522 881q-68 0 -80 -72l-12 -66q-6 -25 3 -35t40 -18l289 -49q113 -17 167 -83t38 -163l-23 -131q-20 -120 -108 -196t-211 -76h-95l-63 -94h37q78 0 121 -43t28 -119l-4 -21q-27 -141 -182 -141h-193l-79 119h247q33 0 43 43l4 20q4 23 -12 23h-241l135 213h-72
q-121 0 -193 86t-47 207l15 73h282l-14 -77q-8 -51 37 -52h209q70 0 80 72l10 68q4 51 -39 55l-289 49q-242 46 -205 246l23 117q24 128 114 204t205 74l283 -6q123 -4 193 -88t47 -207l-11 -55h-282l12 71q8 51 -37 52h-170z" />
    <glyph glyph-name="Scaron" unicode="&#x160;" horiz-adv-x="1253" 
d="M903 1206h-287q-78 0 -90 -80l-24 -143q-11 -52 47 -63l358 -82q123 -27 196 -105t50 -198l-47 -263q-25 -130 -111 -204t-215 -74h-452q-129 0 -196 84t-44 215l31 178h287l-25 -141q-6 -33 3 -46t44 -14h309q78 0 90 80l27 160q11 51 -45 63l-358 82q-127 29 -195 106
t-47 195l43 246q20 127 109 204t217 77h428q126 0 194 -87t47 -214l-28 -162h-287l12 127q4 39 -4 49t-37 10zM934 1612h-246l-235 266h225l158 -141l180 141h248z" />
    <glyph glyph-name="scaron" unicode="&#x161;" horiz-adv-x="1056" 
d="M524 879q-68 0 -80 -72l-12 -66q-6 -25 3 -36t40 -17l289 -49q113 -18 166 -85t39 -161l-23 -131q-20 -121 -108 -197t-211 -75h-326q-121 0 -193 86t-47 207l15 73h282l-14 -77q-8 -51 37 -52h209q70 0 80 72l10 68q4 51 -39 55l-289 49q-119 21 -171 85t-34 161l23 117
q25 126 113 202t206 76h287q121 0 191 -86t49 -209l-10 -55h-283l8 65q6 51 -37 52h-170zM782 1247h-245l-236 266h225l158 -141l180 141h248z" />
    <glyph glyph-name="Tcedilla" unicode="&#x162;" horiz-adv-x="1142" 
d="M528 -100q78 0 121 -43t29 -119l-4 -21q-27 -141 -182 -141h-193l-80 119h248q33 0 41 43l4 20q4 23 -12 23h-242l141 219h-71l211 1200h-375l47 275h1044l-45 -275h-374l-211 -1200h-64l-69 -100h36z" />
    <glyph glyph-name="tcedilla" unicode="&#x163;" horiz-adv-x="854" 
d="M489 248h248l-43 -246h-157l-70 -100h37q78 0 121 -43t28 -119l-4 -21q-27 -141 -182 -141h-193l-79 119h247q33 0 43 43l4 20q4 23 -12 23h-241l141 219h31q-121 0 -191 86t-49 209l102 575h-170l41 234h174l64 369h274l-63 -369h299l-41 -234h-295l-100 -573
q-8 -51 36 -51z" />
    <glyph glyph-name="Tcaron" unicode="&#x164;" horiz-adv-x="1142" 
d="M834 1200l-211 -1200h-295l211 1200h-375l47 275h1044l-47 -275h-374zM877 1610h-246l-236 266h226l157 -141l180 141h248z" />
    <glyph glyph-name="tcaron" unicode="&#x165;" horiz-adv-x="854" 
d="M1106 1804l-39 -231q-14 -82 -123 -191l-153 -151h-121l204 274h-104l51 299h285zM489 248h248l-43 -246h-286q-121 0 -191 86t-49 209l102 575h-170l41 234h174l64 369h274l-63 -369h299l-41 -234h-295l-100 -573q-8 -51 36 -51z" />
    <glyph glyph-name="Tbar" unicode="&#x166;" horiz-adv-x="1142" 
d="M1081 1860l-41 -230h-555l41 230h555zM1208 1200h-374l-211 -1200h-295l211 1200h-375l47 275h1044z" />
    <glyph glyph-name="tbar" unicode="&#x167;" horiz-adv-x="854" 
d="M489 248h248l-43 -246h-286q-121 0 -191 86t-49 209l31 170h-111l41 229h111l30 176h-170l41 234h174l64 369h274l-63 -369h299l-41 -234h-295l-29 -174h162l-41 -229h-162l-30 -170q-8 -51 36 -51z" />
    <glyph glyph-name="Umacron" unicode="&#x16a;" horiz-adv-x="1304" 
d="M1180 1860l-41 -230h-555l41 230h555zM813 -6h-465q-130 0 -196 84t-43 215l206 1182h295l-200 -1145q-6 -33 3 -46t44 -14h313q78 0 92 80l197 1125h295l-215 -1203q-21 -126 -109 -202t-217 -76z" />
    <glyph glyph-name="umacron" unicode="&#x16b;" horiz-adv-x="1144" 
d="M1034 1505l-41 -229h-555l41 229h555zM451 248q111 0 211 53l49 27l139 780h283l-195 -1106h-283l29 143l-43 -39q-119 -111 -244 -110h-67q-121 0 -191 85t-49 208l146 817h282l-143 -803q-12 -55 43 -55h33z" />
    <glyph glyph-name="Uring" unicode="&#x16e;" horiz-adv-x="1304" 
d="M815 -6h-465q-130 0 -196 84t-43 215l206 1182h295l-200 -1145q-6 -33 4 -46t43 -14h313q76 0 92 80l197 1125h295l-215 -1203q-21 -126 -109 -202t-217 -76zM817 1708h109q35 0 41 35l18 110q2 11 0 13t-12 2h-109q-33 0 -39 -35l-18 -111q-2 -14 10 -14zM997 1610h-249
q-32 0 -52 26t-14 52l39 217q11 59 65 59h252q32 0 52 -26t14 -52l-39 -217q-11 -59 -68 -59z" />
    <glyph glyph-name="uring" unicode="&#x16f;" horiz-adv-x="1144" 
d="M668 1354h108q35 0 41 35l19 110q7 14 -13 14h-108q-33 1 -39 -34l-19 -111q-2 -14 11 -14zM848 1255h-250q-33 0 -52 26t-14 52l39 217q11 58 66 60h252q33 0 52 -26t13 -52l-39 -217q-10 -60 -67 -60zM451 248q111 0 211 53l49 27l139 780h283l-195 -1106h-283l29 143
l-43 -39q-119 -111 -244 -110h-67q-121 0 -191 85t-49 208l146 817h282l-143 -803q-12 -55 43 -55h33z" />
    <glyph glyph-name="Uhungarumlaut" unicode="&#x170;" horiz-adv-x="1304" 
d="M1413 1907l-285 -297h-266l285 297h266zM1012 1907l-283 -297h-266l285 297h264zM813 -6h-465q-130 0 -196 84t-43 215l206 1182h295l-200 -1145q-6 -33 3 -46t44 -14h313q78 0 92 80l197 1125h295l-215 -1203q-21 -126 -109 -202t-217 -76z" />
    <glyph glyph-name="uhungarumlaut" unicode="&#x171;" horiz-adv-x="1144" 
d="M1268 1552l-285 -297h-266l284 297h267zM866 1552l-282 -297h-267l285 297h264zM451 248q111 0 211 53l49 27l139 780h283l-195 -1106h-283l29 143l-43 -39q-119 -111 -244 -110h-67q-121 0 -191 85t-49 208l146 817h282l-143 -803q-12 -55 43 -55h33z" />
    <glyph glyph-name="Uogonek" unicode="&#x172;" horiz-adv-x="1304" 
d="M815 -4h-135l-127 -170q-20 -27 -17 -30t13 -3h135l-29 -155h-190q-92 0 -125 66t31 140l125 150h-148q-130 0 -196 84t-43 215l206 1182h295l-200 -1145q-6 -33 3 -46t44 -14h313q78 0 92 80l197 1125h295l-213 -1201q-21 -126 -109 -202t-217 -76z" />
    <glyph glyph-name="uogonek" unicode="&#x173;" horiz-adv-x="1144" 
d="M618 -356q-92 0 -124 66t30 140l129 152h2l29 143l-43 -39q-119 -111 -244 -110h-67q-121 0 -191 85t-49 208l146 817h282l-143 -805q-12 -55 43 -55h33q111 0 211 53l49 27l139 780h283l-195 -1106h-102l-129 -168l-15 -21q-7 -12 10 -12h136l-29 -155h-191z" />
    <glyph glyph-name="Wcircumflex" unicode="&#x174;" horiz-adv-x="1822" 
d="M1057 0l-62 971l-405 -971h-291l-100 1475h311l-4 -1078l446 1078h236l67 -1078l377 1078h320l-617 -1475h-278zM1130 1751l-186 -141h-242l330 266h246l235 -266h-225z" />
    <glyph glyph-name="wcircumflex" unicode="&#x175;" horiz-adv-x="1581" 
d="M862 0l-35 702l-274 -702h-285l-137 1106h277l38 -825l320 825h250l24 -825l322 825h291l-504 -1106h-287zM954 1395l-186 -142h-242l330 267h246l235 -267h-225z" />
    <glyph glyph-name="Ycircumflex" unicode="&#x176;" 
d="M356 0l93 510l-273 965h307l156 -639l379 639h340l-615 -965l-92 -510h-295zM813 1751l-186 -141h-242l330 266h246l235 -266h-225z" />
    <glyph glyph-name="ycircumflex" unicode="&#x177;" horiz-adv-x="1083" 
d="M1155 1106l-776 -1499h-273l203 393l-178 1106h260l103 -748l385 748h276zM516 1253h-242l330 267h246l235 -267h-225l-158 142z" />
    <glyph glyph-name="Ydieresis" unicode="&#x178;" 
d="M1118 1618h-250l45 254h250zM709 1618h-248l45 254h248zM651 0h-295l93 510l-273 965h307l156 -639l379 639h340l-615 -965z" />
    <glyph glyph-name="Zacute" unicode="&#x179;" 
d="M860 1610h-213l234 295h346zM31 225l819 975h-606l47 275h981l-35 -226l-819 -975h639l-47 -274h-1012z" />
    <glyph glyph-name="zacute" unicode="&#x17a;" horiz-adv-x="966" 
d="M664 1253h-213l233 295h346zM0 201l594 659h-459l43 246h809l-31 -197l-596 -663h490l-43 -246h-838z" />
    <glyph glyph-name="Zdotaccent" unicode="&#x17b;" 
d="M932 1618h-248l45 254h248zM31 225l819 975h-606l47 275h981l-35 -226l-819 -975h639l-47 -274h-1012z" />
    <glyph glyph-name="zdotaccent" unicode="&#x17c;" horiz-adv-x="966" 
d="M735 1262h-248l45 254h248zM0 201l594 659h-459l43 246h809l-31 -197l-596 -663h490l-43 -246h-838z" />
    <glyph glyph-name="Zcaron" unicode="&#x17d;" 
d="M850 1200h-606l47 275h981l-35 -226l-819 -975h639l-47 -274h-1012l33 225zM924 1610h-246l-236 266h226l157 -141l181 141h247z" />
    <glyph glyph-name="zcaron" unicode="&#x17e;" horiz-adv-x="966" 
d="M594 860h-459l43 246h809l-31 -197l-596 -663h490l-43 -246h-838l31 201zM727 1253h-246l-235 267h225l158 -142l180 142h248z" />
    <glyph glyph-name="florin" unicode="&#x192;" horiz-adv-x="933" 
d="M770 1196q-74 0 -88 -80l-31 -174h264l-47 -266h-264l-72 -400q-24 -134 -106 -204t-209 -70h-244l47 279h148q70 0 86 79l57 318h-207l48 266h206l45 256q25 135 107 205t211 70h307l-49 -279h-209z" />
    <glyph glyph-name="circumflex" unicode="&#x2c6;" horiz-adv-x="1323" 
d="M874 1751l-186 -141h-242l330 266h246l235 -266h-225z" />
    <glyph glyph-name="caron" unicode="&#x2c7;" horiz-adv-x="1323" 
d="M967 1610h-246l-236 266h226l157 -141l181 141h247z" />
    <glyph glyph-name="breve" unicode="&#x2d8;" horiz-adv-x="1239" 
d="M938 1612h-223q-51 0 -88 43t-27 96l25 135h159l-16 -94q-6 -35 23 -35h102q31 0 37 31l16 98h160l-27 -155q-10 -51 -49 -85t-92 -34z" />
    <glyph glyph-name="dotaccent" unicode="&#x2d9;" horiz-adv-x="874" 
d="M750 1618h-248l45 254h248z" />
    <glyph glyph-name="ring" unicode="&#x2da;" horiz-adv-x="690" 
d="M492 1708h108q35 0 41 35l18 110q4 11 1 13t-13 2h-108q-33 0 -39 -35l-19 -111q-2 -14 11 -14zM672 1610h-250q-33 0 -52 26t-14 52l39 217q11 59 66 59h252q33 0 52 -26t13 -52l-39 -217q-10 -59 -67 -59z" />
    <glyph glyph-name="ogonek" unicode="&#x2db;" horiz-adv-x="772" 
d="M324 -203h135l-29 -155h-190q-92 0 -125 66t30 140l129 152h183l-129 -170l-15 -21q-4 -7 -2 -9t13 -3z" />
    <glyph glyph-name="tilde" unicode="&#x2dc;" horiz-adv-x="1226" 
d="M664 1704l-50 -94h-125l76 184q41 93 133 66l275 -93l53 93h127l-80 -187q-18 -45 -55 -62t-78 -3z" />
    <glyph glyph-name="hungarumlaut" unicode="&#x2dd;" horiz-adv-x="1507" 
d="M1442 1907l-285 -297h-266l285 297h266zM1040 1907l-282 -297h-266l284 297h264z" />
    <glyph glyph-name="commaaccentcomb" unicode="&#x326;" horiz-adv-x="0" 
d="M387 -141l-41 -232q-16 -90 -121 -190l-153 -152h-119l201 275h-105l53 299h285z" />
    <glyph glyph-name="Wgrave" unicode="&#x1e80;" horiz-adv-x="1822" 
d="M1057 0l-62 971l-405 -971h-291l-100 1475h311l-4 -1078l446 1078h236l67 -1078l377 1078h320l-617 -1475h-278zM1262 1610h-193l-281 295h347z" />
    <glyph glyph-name="wgrave" unicode="&#x1e81;" horiz-adv-x="1581" 
d="M862 0l-35 702l-274 -702h-285l-137 1106h277l38 -825l320 825h250l24 -825l322 825h291l-504 -1106h-287zM1085 1253h-192l-281 295h346z" />
    <glyph glyph-name="Wacute" unicode="&#x1e82;" horiz-adv-x="1822" 
d="M1159 1610h-213l234 295h346zM1335 0h-278l-62 971l-405 -971h-291l-100 1475h311l-4 -1078l446 1078h236l67 -1078l377 1078h320z" />
    <glyph glyph-name="wacute" unicode="&#x1e83;" horiz-adv-x="1581" 
d="M983 1253h-213l234 295h346zM1149 0h-287l-35 702l-274 -702h-285l-137 1106h277l38 -825l320 825h250l24 -825l322 825h291z" />
    <glyph glyph-name="Wdieresis" unicode="&#x1e84;" horiz-adv-x="1822" 
d="M1436 1618h-250l45 254h250zM1026 1618h-248l45 254h248zM1335 0h-278l-62 971l-405 -971h-291l-100 1475h311l-4 -1078l446 1078h236l67 -1078l377 1078h320z" />
    <glyph glyph-name="wdieresis" unicode="&#x1e85;" horiz-adv-x="1581" 
d="M1260 1262h-250l45 254h250zM850 1262h-248l45 254h248zM1149 0h-287l-35 702l-274 -702h-285l-137 1106h277l38 -825l320 825h250l24 -825l322 825h291z" />
    <glyph glyph-name="Ygrave" unicode="&#x1ef2;" 
d="M356 0l93 510l-273 965h307l156 -639l379 639h340l-615 -965l-92 -510h-295zM944 1610h-192l-281 295h346z" />
    <glyph glyph-name="ygrave" unicode="&#x1ef3;" horiz-adv-x="1083" 
d="M1155 1106l-776 -1499h-273l203 393l-178 1106h260l103 -748l385 748h276zM641 1253l-281 295h347l127 -295h-193z" />
    <glyph glyph-name="endash" unicode="&#x2013;" horiz-adv-x="1126" 
d="M1071 807l-47 -266h-926l47 266h926z" />
    <glyph glyph-name="emdash" unicode="&#x2014;" horiz-adv-x="1607" 
d="M1552 807l-47 -266h-1407l47 266h1407z" />
    <glyph glyph-name="quoteleft" unicode="&#x2018;" horiz-adv-x="501" 
d="M168 901l41 232q16 90 119 190l155 152h121l-203 -275h105l-53 -299h-285z" />
    <glyph glyph-name="quoteright" unicode="&#x2019;" horiz-adv-x="505" 
d="M557 1475l-39 -232q-14 -82 -123 -190l-153 -152h-121l205 275h-105l51 299h285z" />
    <glyph glyph-name="quotesinglbase" unicode="&#x201a;" horiz-adv-x="503" 
d="M350 299l-41 -231q-16 -86 -121 -189l-153 -151h-119l203 272h-105l52 299h284z" />
    <glyph glyph-name="quotedblleft" unicode="&#x201c;" horiz-adv-x="921" 
d="M588 901l41 232q16 90 121 190l153 152h121l-203 -275h105l-54 -299h-284zM170 901l41 232q16 90 119 190l155 152h121l-203 -275h105l-53 -299h-285z" />
    <glyph glyph-name="quotedblright" unicode="&#x201d;" horiz-adv-x="921" 
d="M975 1475l-37 -232q-14 -84 -123 -190l-153 -152h-123l204 275h-104l51 299h285zM557 1475l-39 -232q-14 -82 -123 -190l-153 -152h-121l205 275h-105l51 299h285z" />
    <glyph glyph-name="quotedblbase" unicode="&#x201e;" horiz-adv-x="503" 
d="M350 299l-41 -231q-16 -86 -121 -189l-153 -151h-119l203 272h-105l52 299h284z" />
    <glyph glyph-name="dagger" unicode="&#x2020;" horiz-adv-x="751" 
d="M768 860h-209l-151 -860h-256l151 860h-209l43 246h209l64 369h256l-64 -369h209z" />
    <glyph glyph-name="daggerdbl" unicode="&#x2021;" horiz-adv-x="753" 
d="M561 860l-43 -246h207l-43 -245h-207l-65 -369h-256l65 369h-211l43 245h211l43 246h-209l43 246h209l64 369h256l-64 -369h209l-43 -246h-209z" />
    <glyph glyph-name="bullet" unicode="&#x2022;" horiz-adv-x="858" 
d="M653 991q33 1 55 -27t15 -61l-53 -303q-12 -68 -78 -68l-301 -2q-31 0 -53 29t-17 62l53 303q12 68 78 67h301z" />
    <glyph glyph-name="ellipsis" unicode="&#x2026;" horiz-adv-x="1386" 
d="M1182 0h-285l51 299h285zM739 0h-284l51 299h285zM297 0h-285l51 299h285z" />
    <glyph glyph-name="perthousand" unicode="&#x2030;" horiz-adv-x="1794" 
d="M1534 414h-98q-41 0 -52 -47l-38 -222q-6 -27 18 -26h98q14 0 25 7t16 42l43 219q6 27 -12 27zM987 416h-98q-41 0 -51 -47l-39 -222q-6 -27 18 -26h98q14 0 25 7t16 42l43 219q6 27 -12 27zM1303 -14q-57 0 -93 41q-33 43 -24 100l55 311q22 121 141 121l195 -2
q57 0 90 -43t25 -100l-56 -312q-8 -57 -45 -88q-39 -29 -92 -28h-196zM762 -12q-59 0 -92 42t-25 99l55 311q23 121 142 121l194 -2q57 0 90 -43t25 -100l-55 -312q-8 -57 -45 -88q-39 -29 -93 -28h-196zM412 1339q-41 0 -52 -47l-38 -221q-6 -27 18 -27h98q21 0 31 17
q8 17 10 33l43 219q6 27 -12 26h-98zM1227 1473l-903 -1473h-246l903 1473h246zM479 907h-196q-57 0 -93 43q-33 43 -24 101l55 311q22 121 141 121l195 -2q57 0 90 -43t25 -101l-56 -311q-8 -57 -45 -88t-92 -31z" />
    <glyph glyph-name="guilsinglleft" unicode="&#x2039;" horiz-adv-x="624" 
d="M688 1145l-375 -426l217 -424h-286l-191 371l10 106l322 373h303z" />
    <glyph glyph-name="guilsinglright" unicode="&#x203a;" horiz-adv-x="624" 
d="M631 772l-10 -106l-322 -371h-301l371 424l-215 426h286z" />
    <glyph glyph-name="fraction" unicode="&#x2044;" horiz-adv-x="432" 
d="M899 1475l-1085 -1475h-213l1085 1475h213z" />
    <glyph glyph-name="zerosuperior" unicode="&#x2070;" horiz-adv-x="761" 
d="M387 1067h174q41 0 47 31l72 409q-4 10 -18 11h-175q-41 0 -47 -31l-71 -410q6 -10 18 -10zM449 1702h280q74 0 117 -49t31 -119l-89 -500q-12 -72 -60 -110t-124 -39l-282 -2q-76 0 -119 49t-31 121l88 499q12 70 60 110t129 40z" />
    <glyph glyph-name="foursuperior" unicode="&#x2074;" horiz-adv-x="821" 
d="M395 1206h191l39 205zM864 1036h-121l-24 -147h-189l25 147h-387l-21 144l549 520h164l-86 -494h121z" />
    <glyph glyph-name="fivesuperior" unicode="&#x2075;" horiz-adv-x="745" 
d="M555 1421h104q70 0 119 -55t37 -119l-37 -211q-12 -68 -66 -110t-124 -41h-277q-69 0 -117 54t-36 116l14 84h195l-9 -52q-2 -14 4 -18q4 -2 23 -2h158q53 0 59 41l21 121q4 16 -3 19t-20 3h-68q-49 0 -94 -14l-41 -12l-184 55l74 420h579l-32 -184h-392l-34 -183l34 33
q59 55 113 55z" />
    <glyph glyph-name="sixsuperior" unicode="&#x2076;" horiz-adv-x="759" 
d="M391 1065h158q53 0 59 41l19 106q2 14 -4 19q-8 4 -23 4h-82q-49 0 -92 -14l-39 -13l-22 -123q-2 -14 4 -18q4 -2 22 -2zM643 1520h-149q-47 0 -58 -41l-33 -168l35 32q59 57 113 58h119q72 0 118 -56t35 -118l-35 -191q-12 -68 -66 -110t-124 -41h-276q-70 0 -118 54
t-36 116l88 495q12 68 66 110t124 42h267q69 0 119 -53t38 -117l-12 -68h-194l2 33q4 15 -3 19t-20 4z" />
    <glyph glyph-name="sevensuperior" unicode="&#x2077;" horiz-adv-x="696" 
d="M840 1550l-523 -661h-237l500 627h-381l32 184h631z" />
    <glyph glyph-name="eightsuperior" unicode="&#x2078;" horiz-adv-x="747" 
d="M385 1055h156q49 0 55 41l16 92q2 16 -8 19t-24 3l-138 -2q-61 0 -67 -41l-17 -92q-2 -14 4 -18q4 -2 23 -2zM453 1382h137q49 0 57 43l15 76q2 14 -5 19q-8 4 -22 4l-137 -4q-51 -2 -58 -41l-14 -76q-2 -14 4 -19q4 -2 23 -2zM590 883h-273q-69 0 -117 54t-36 116
l24 135q12 74 105 121q-70 49 -55 123l22 118q12 68 66 110t125 42h254q69 0 117 -54t36 -116l-20 -121q-12 -76 -99 -121q82 -41 66 -121l-25 -135q-12 -68 -66 -110t-124 -41z" />
    <glyph glyph-name="ninesuperior" unicode="&#x2079;" horiz-adv-x="759" 
d="M492 1518q-51 0 -58 -41l-18 -105q-2 -14 4 -18q4 -2 24 -2h80q55 0 97 14l36 12l19 117q2 14 -4 18q-8 4 -23 5h-157zM403 1067h148q51 0 61 41l33 168l-37 -33q-63 -55 -129 -55h-100q-70 0 -120 56t-38 120l35 188q12 68 66 110t124 42h277q70 0 118 -54t36 -116
l-89 -496q-12 -68 -66 -110t-124 -41h-268q-70 0 -118 54t-36 116l12 67h191l-4 -37q-2 -14 4 -18q4 -2 24 -2z" />
    <glyph glyph-name="Euro" unicode="&#x20ac;" horiz-adv-x="1357" 
d="M643 1483h467q127 0 195 -87t47 -214l-33 -187h-295l27 150q6 33 -4 46t-41 13h-320q-76 0 -92 -80l-31 -174h352l-24 -145h-352l-25 -135h352l-24 -146h-353l-34 -194q-6 -33 3 -46t44 -14h319q76 0 92 80l23 129h295l-37 -207q-20 -126 -108 -202t-218 -76h-471
q-129 0 -195 84t-44 215l41 231h-156l25 146h155l25 135h-156l25 145h155l45 252q19 127 109 204t217 77z" />
    <glyph glyph-name="trademark" unicode="&#x2122;" horiz-adv-x="1519" 
d="M1581 1475l-129 -738h-141l88 482l-217 -367h-99l-88 367l-88 -482h-141l129 738h162l100 -418l254 418h170zM760 1331h-187l-104 -594h-152l105 594h-184l24 144h522z" />
    <glyph glyph-name="oneeighth" unicode="&#x215b;" horiz-adv-x="1675" 
d="M1393 1466l-1088 -1472h-213l1088 1472h213zM221 659l107 611l-170 -49l24 157l219 92h152l-141 -811h-191zM1145 166h155q49 0 56 41l16 92q4 15 -8 19t-25 4l-137 -3q-61 0 -67 -40l-17 -93q-2 -14 4 -18q4 -2 23 -2zM1212 494h138q47 0 57 43l14 75q2 14 -4 19
q-8 4 -22 4l-138 -4q-51 -2 -57 -41l-14 -76q-2 -14 4 -18q4 -2 22 -2zM1350 -4h-273q-73 0 -119 53t-34 115l24 135q12 74 105 121q-70 49 -56 123l23 119q12 68 66 110t124 41h254q70 -1 118 -55t36 -115l-21 -121q-12 -76 -98 -121q82 -41 66 -120l-25 -136
q-12 -69 -65 -109t-125 -40z" />
    <glyph glyph-name="threeeighths" unicode="&#x215c;" horiz-adv-x="1904" 
d="M1628 1462l-1087 -1472h-213l1087 1472h213zM328 825h147q51 0 57 41l17 92q2 14 -4 19q-8 4 -29 4h-166l29 170h145q49 0 58 43l14 76q2 14 -4 18q-8 4 -23 4h-127q-51 0 -57 -41l-6 -37h-193l19 105q12 67 66 109t124 42h248q70 0 118 -54t36 -116l-21 -118
q-12 -80 -98 -121q78 -41 61 -121l-24 -135q-11 -70 -65 -111t-124 -41h-266q-70 1 -118 55t-36 115l15 84h194l-14 -61q-2 -14 4 -19q4 -2 23 -2zM1384 166h156q49 0 55 41l17 92q2 15 -8 19t-25 4l-137 -3q-61 0 -68 -40l-16 -93q-2 -14 4 -18q4 -2 22 -2zM1452 494h137
q49 0 58 43l14 75q2 14 -4 19q-9 4 -23 4l-137 -4q-51 -2 -57 -41l-15 -76q-3 -14 3 -17t24 -3zM1589 -4h-272q-72 0 -119 53t-35 115l25 135q12 74 104 121q-70 49 -55 123l23 119q12 68 66 110t124 41h254q70 -1 118 -55t36 -115l-21 -121q-12 -76 -98 -121
q82 -41 65 -120l-24 -136q-12 -69 -66 -109t-125 -40z" />
    <glyph glyph-name="fiveeighths" unicode="&#x215d;" horiz-adv-x="1925" 
d="M1647 1466l-1088 -1472h-213l1088 1472h213zM512 1188h104q70 0 119 -55t37 -119l-37 -211q-12 -68 -66 -110t-124 -42h-277q-70 1 -118 55t-35 115l14 84h195l-9 -51q-2 -14 4 -18q4 -2 23 -2h158q53 0 59 40l21 121q4 15 -3 19t-20 4h-68q-49 0 -94 -14l-41 -13
l-184 56l74 419h579l-32 -184h-392l-34 -182l34 33q57 55 113 55zM1405 166h156q49 0 55 41l16 92q2 15 -8 19t-25 4l-137 -3q-61 0 -67 -40l-17 -93q-2 -14 4 -18q4 -2 23 -2zM1473 494h137q49 0 57 43l14 75q2 14 -4 19q-8 4 -22 4l-137 -4q-51 -2 -58 -41l-14 -76
q-2 -14 4 -18q4 -2 23 -2zM1610 -4h-273q-73 0 -119 53t-34 115l24 135q12 74 105 121q-70 49 -56 123l23 119q12 68 66 110t124 41h254q70 -1 118 -55t36 -115l-20 -121q-12 -76 -99 -121q82 -41 66 -120l-25 -136q-12 -69 -65 -109t-125 -40z" />
    <glyph glyph-name="seveneighths" unicode="&#x215e;" horiz-adv-x="1712" 
d="M1430 1466l-1088 -1472h-213l1088 1472h213zM797 1317l-523 -662h-237l500 627h-381l32 184h631zM1182 166h155q49 0 56 41l16 92q5 15 -7 19t-26 4l-137 -3q-61 0 -68 -40l-16 -93q-2 -14 4 -18q4 -2 23 -2zM1249 494h137q47 0 58 43l14 75q2 14 -4 19q-8 4 -22 4
l-138 -4q-51 -2 -57 -41l-14 -76q-2 -14 4 -18q4 -2 22 -2zM1386 -4h-272q-72 0 -119 53t-34 115l24 135q12 74 105 121q-70 49 -56 123l23 119q12 68 66 110t124 41h254q70 -1 118 -55t36 -115l-21 -121q-12 -76 -98 -121q82 -41 66 -120l-25 -136q-11 -69 -65 -109
t-126 -40z" />
    <glyph glyph-name="minus" unicode="&#x2212;" horiz-adv-x="1017" 
d="M172 895h797l-49 -274h-797z" />
    <glyph glyph-name="infinity" unicode="&#x221e;" horiz-adv-x="1665" 
d="M1335 901h-164q-78 0 -92 -80l-30 -176q-6 -33 3 -46t44 -13h164q76 0 88 80l28 176q6 35 -2 47q-10 12 -39 12zM434 586h160q78 0 92 80l31 176q6 35 -2 47q-10 12 -43 12h-164q-74 0 -88 -80l-31 -176q-6 -33 3 -46t42 -13zM1180 1167h211q127 0 195 -87t46 -214
l-47 -266q-20 -127 -109 -204t-216 -77h-213q-72 0 -123 43t-76 95q-125 -137 -254 -138h-213q-127 0 -195 83t-45 214l47 271q20 127 110 204t216 76h213q127 0 201 -137q119 137 252 137z" />
    <glyph glyph-name="notequal" unicode="&#x2260;" horiz-adv-x="1017" 
d="M688 844l-82 -156h326l-47 -266h-420l-123 -236h-197l125 236h-182l47 266h275l82 156h-330l47 266h424l117 221h194l-117 -221h179l-48 -266h-270z" />
    <glyph glyph-name="fi" unicode="&#xfb01;" horiz-adv-x="1333" 
d="M1303 1104l-195 -1104h-283l195 1104h283zM1341 1280h-299l48 266h299zM672 1548h262l-43 -241l-182 -2q-68 0 -80 -72l-23 -129h250l-41 -234h-250l-153 -870h-283l154 870h-174l41 234h174l28 166q23 126 112 202t208 76z" />
    <glyph glyph-name="fl" unicode="&#xfb02;" horiz-adv-x="1325" 
d="M1094 1546h282l-272 -1546h-283zM672 1548h262l-43 -241l-182 -2q-68 0 -80 -72l-23 -129h250l-41 -234h-250l-153 -870h-283l154 870h-174l41 234h174l28 166q23 126 112 202t208 76z" />
    <glyph glyph-name="Q.ss01" horiz-adv-x="1310" 
d="M967 1200h-344q-78 0 -93 -80l-139 -786q-6 -33 4 -46t43 -14h344q78 0 92 80l138 787q6 33 -3 46t-42 13zM584 1483h487q125 0 197 -86t49 -215l-160 -910q-20 -126 -108 -202t-218 -76h-108l-45 -254h-295l45 254h-90q-129 0 -196 84t-44 215l160 909q20 127 110 204
t216 77z" />
    <glyph glyph-name="zero.subs" horiz-adv-x="761" 
d="M217 -78h174q41 0 47 31l72 407q-4 10 -18 11h-175q-41 0 -47 -31l-71 -408q6 -10 18 -10zM279 555h280q74 0 117 -49t31 -119l-89 -498q-12 -69 -60 -109t-124 -40l-282 -2q-76 0 -119 49t-31 121l88 498q12 70 60 110t129 39z" />
    <glyph glyph-name="one.subs" horiz-adv-x="495" 
d="M94 -252l107 608l-170 -49l24 158l219 92h152l-141 -809h-191z" />
    <glyph glyph-name="two.subs" horiz-adv-x="724" 
d="M274 557h252q70 0 118 -54t36 -116l-23 -131q-10 -59 -71 -103t-144 -67l-217 -57q-27 -6 -30 -25l-15 -72h420l-31 -184h-612l47 287q8 55 66 99t147 69l217 57q33 10 37 25l14 75q4 17 -10 17h-147q-52 0 -58 -41l-10 -35h-192l18 105q12 70 66 110t122 41z" />
    <glyph glyph-name="three.subs" horiz-adv-x="724" 
d="M201 -86h147q51 0 58 41l16 90q2 14 -4 18q-8 4 -29 5h-166l29 170h145q49 0 58 43l14 75q2 14 -4 19q-8 4 -23 4h-127q-51 0 -57 -41l-6 -37h-193l19 105q12 68 66 110t124 41h248q70 0 118 -54t36 -116l-21 -119q-12 -80 -98 -121q78 -41 61 -120l-24 -133
q-12 -70 -66 -111t-123 -41h-266q-70 0 -117 54t-34 116l14 84h192l-14 -62q-2 -14 4 -18q4 -2 23 -2z" />
    <glyph glyph-name="four.subs" horiz-adv-x="821" 
d="M225 59h191l39 205zM694 -109h-121l-24 -147h-189l25 147h-385l-20 142l546 520h164l-86 -494h121z" />
    <glyph glyph-name="five.subs" horiz-adv-x="745" 
d="M387 274h105q70 0 118 -55t37 -119l-37 -209q-12 -67 -66 -109t-124 -42h-277q-70 0 -116 53q-43 53 -35 117l12 84h195l-9 -51q-2 -13 4 -17t23 -4h158q53 0 59 41l21 119q2 14 -4 18q-8 4 -21 4h-68q-49 0 -94 -14l-41 -12l-184 55l74 420h581l-32 -184h-392l-34 -183
l34 33q57 55 113 55z" />
    <glyph glyph-name="six.subs" horiz-adv-x="759" 
d="M223 -80h158q53 0 59 41l19 105q2 14 -4 18q-8 4 -23 4h-82q-49 0 -92 -14l-39 -13l-22 -120q-2 -14 4 -19q4 -2 22 -2zM473 373h-149q-47 0 -58 -41l-33 -168l35 33q59 57 113 57h119q70 0 118 -56t35 -118l-35 -189q-12 -67 -66 -109t-124 -42h-276q-70 0 -117 53
t-35 117l86 493q12 68 66 110t124 42h267q70 0 120 -53t37 -117l-12 -68h-194l4 33q2 14 -4 19q-8 4 -21 4z" />
    <glyph glyph-name="seven.subs" horiz-adv-x="696" 
d="M670 403l-523 -659h-235l498 625h-381l32 184h631z" />
    <glyph glyph-name="eight.subs" horiz-adv-x="747" 
d="M215 -90h156q49 0 55 41l16 90q4 16 -7 19t-25 3l-138 -2q-61 0 -67 -41l-17 -90q-2 -14 4 -17t23 -3zM283 236h137q49 0 57 43l15 75q2 14 -5 19q-8 4 -22 4l-137 -4q-51 -2 -58 -41l-14 -76q-2 -14 4 -18q4 -2 23 -2zM420 -262h-273q-71 0 -117 53t-34 117l22 133
q12 74 105 121q-70 49 -55 123l22 118q12 68 66 110t125 42h254q69 -1 117 -55t36 -115l-20 -121q-12 -76 -99 -121q82 -41 66 -120l-25 -134q-12 -67 -66 -109t-124 -42z" />
    <glyph glyph-name="nine.subs" horiz-adv-x="759" 
d="M479 371h-157q-51 0 -58 -41l-18 -105q-2 -14 4 -18q4 -2 24 -2h80q55 0 97 14l36 12l19 117q2 14 -4 19q-8 4 -23 4zM233 -78h148q51 0 61 41l33 166l-37 -33q-66 -55 -129 -55h-100q-70 0 -120 56t-38 120l35 189q12 68 66 110t124 41h277q70 0 118 -54t36 -116
l-89 -493q-12 -68 -66 -110t-124 -42h-268q-70 0 -118 54t-36 116l12 68h191l-4 -37q-2 -14 4 -19q4 -2 24 -2z" />
    <glyph glyph-name="zero.tf" horiz-adv-x="1282" 
d="M750 274q78 0 92 80l139 787q6 35 -2 47t-43 12h-295q-76 0 -92 -80l-141 -786q-6 -33 4 -46t43 -14h295zM799 -6h-449q-130 0 -196 84t-43 215l159 909q20 127 110 204t216 77h446q127 0 195 -87t47 -214l-160 -910q-20 -126 -108 -202t-217 -76z" />
    <glyph glyph-name="one.tf" horiz-adv-x="1282" 
d="M1010 0h-906l50 279h317l160 909l-336 -103l51 287l332 103h297l-209 -1196h293z" />
    <glyph glyph-name="two.tf" horiz-adv-x="1282" 
d="M606 1481h408q118 0 192 -91t51 -216l-43 -238q-37 -197 -348 -301l-368 -123q-42 -14 -60 -28t-24 -50l-27 -162h715l-49 -276h-1010l84 483q33 197 350 301l371 123q43 15 57 27t21 49l26 151q6 42 -5 56t-50 14h-240q-86 0 -104 -92l-8 -76h-295l31 166
q23 125 113 204t212 79z" />
    <glyph glyph-name="three.tf" horiz-adv-x="1282" 
d="M733 268q90 0 105 92l34 193q8 41 -9 56t-62 16h-301l47 262h280q45 0 72 16t35 74l27 160q5 45 -5 58t-49 13h-252q-86 0 -104 -92l-16 -84h-295l30 166q20 121 114 202t214 81h420q120 0 194 -93t54 -214l-37 -213q-25 -145 -166 -222q61 -31 86 -92t12 -129l-43 -246
q-22 -124 -112 -202t-213 -78h-453q-121 0 -194 90t-50 215l27 145h295l-25 -104q-8 -39 4 -54t52 -16h284z" />
    <glyph glyph-name="four.tf" horiz-adv-x="1282" 
d="M422 557h330l90 477zM1188 295h-195l-51 -295h-287l52 295h-641l-29 221l870 959h293l-162 -918h195z" />
    <glyph glyph-name="five.tf" horiz-adv-x="1282" 
d="M795 963h149q121 1 195 -91t51 -217l-68 -383q-22 -124 -112 -202t-213 -78h-445q-122 0 -194 90t-49 215l26 147h295l-18 -102q-6 -43 5 -57t50 -15h276q88 0 105 92l47 269q6 41 -6 56t-51 15h-97q-111 0 -211 -53l-49 -26l-280 86l133 766h960l-49 -279l-667 -2
l-70 -383l43 39q121 113 244 113z" />
    <glyph glyph-name="six.tf" horiz-adv-x="1282" 
d="M737 272q90 0 105 93l39 229q6 45 -4 58t-50 14h-116q-119 0 -215 -54l-47 -26l-43 -242q-6 -43 5 -57t50 -15h276zM903 1206h-260q-86 0 -104 -92l-64 -338l43 39q121 113 244 113h172q120 0 194 -93t54 -214l-62 -345q-22 -124 -112 -202t-213 -78h-445q-122 0 -194 90
t-50 215l160 901q20 121 114 202t214 81h428q121 0 195 -93t53 -214l-23 -125h-295l6 82q8 39 -4 55t-51 16z" />
    <glyph glyph-name="seven.tf" horiz-adv-x="1282" 
d="M1327 1249l-909 -1249h-348l870 1196h-723l49 279h1096z" />
    <glyph glyph-name="eight.tf" horiz-adv-x="1282" 
d="M733 270q90 0 105 92l34 193q8 41 -9 57t-62 15l-246 -2q-104 0 -121 -93l-33 -192q-7 -43 5 -56t51 -14h276zM582 889h243q45 0 72 16t35 74l26 160q6 45 -4 58t-49 13l-243 2q-88 0 -105 -92l-29 -159q-10 -47 -1 -59t55 -13zM793 -4h-445q-122 0 -194 90t-50 215
l43 246q29 150 179 221q-113 78 -86 221l39 213q20 121 113 202t214 81h412q121 0 197 -94t51 -213l-41 -211q-29 -147 -166 -222q67 -31 91 -92t11 -131l-43 -246q-22 -124 -112 -202t-213 -78z" />
    <glyph glyph-name="nine.tf" horiz-adv-x="1282" 
d="M913 1200h-276q-88 0 -105 -92l-38 -221q-6 -39 6 -55t51 -15h117q109 0 209 53l51 27l41 231q6 44 -5 58t-51 14zM731 268q86 0 105 92l65 347l-47 -41q-125 -111 -240 -111h-172q-118 0 -192 91t-51 216l59 336q20 121 114 202t214 81h444q121 0 195 -93t53 -214
l-160 -902q-22 -124 -112 -202t-213 -78h-428q-121 0 -194 90t-50 215l22 125h295l-22 -82q-10 -37 3 -54t52 -18h260z" />
    <glyph glyph-name="zero.dnom" horiz-adv-x="761" 
d="M229 178h174q41 0 48 31l71 409q-4 10 -18 11h-174q-41 0 -47 -31l-72 -410q6 -10 18 -10zM291 813h280q74 0 117 -49t31 -119l-88 -500q-24 -147 -185 -147l-282 -2q-78 0 -120 48t-30 120l88 500q12 70 60 110t129 39z" />
    <glyph glyph-name="one.dnom" horiz-adv-x="495" 
d="M106 0l107 610l-170 -49l25 158l219 92h151l-141 -811h-191z" />
    <glyph glyph-name="two.dnom" horiz-adv-x="724" 
d="M287 815h252q69 0 117 -54t36 -116l-22 -131q-10 -59 -72 -103t-143 -67l-217 -57q-27 -6 -31 -25l-14 -74h419l-30 -184h-613l47 289q8 55 66 99t147 69l217 57q33 10 37 25l15 75q4 17 -11 17h-147q-51 0 -57 -41l-11 -35h-192l18 105q12 70 66 110t123 41z" />
    <glyph glyph-name="three.dnom" horiz-adv-x="724" 
d="M213 170h147q51 0 58 41l16 92q2 14 -4 19q-8 4 -29 4h-165l28 170h146q49 0 57 43l14 75q2 14 -4 19q-8 4 -22 4h-127q-51 0 -58 -41l-6 -37h-192l18 105q12 68 66 110t125 41h247q70 0 118 -54t36 -116l-20 -119q-12 -80 -99 -120q78 -41 62 -121l-25 -135
q-12 -70 -64 -110t-124 -40h-267q-72 0 -116 51q-43 53 -35 117l12 84h195l-15 -62q-2 -14 4 -18q4 -2 23 -2z" />
    <glyph glyph-name="four.dnom" horiz-adv-x="821" 
d="M238 317h190l39 205zM707 147h-121l-25 -147h-188l24 147h-387l-18 144l547 520h163l-86 -494h121z" />
    <glyph glyph-name="five.dnom" horiz-adv-x="745" 
d="M399 532h105q70 0 119 -55t36 -119l-36 -211q-11 -69 -65 -109t-126 -40h-276q-72 0 -119 53t-35 115l14 84h195l-8 -51q-2 -14 4 -19q4 -2 22 -2h158q53 0 59 41l21 121q2 14 -4 18q-8 4 -21 4h-67q-49 0 -94 -14l-41 -12l-185 55l74 420h582l-33 -184h-391l-35 -183
l35 33q57 55 112 55z" />
    <glyph glyph-name="six.dnom" horiz-adv-x="759" 
d="M236 176h157q53 0 60 41l18 107q2 14 -4 18q-8 4 -23 4h-82q-49 0 -92 -14l-39 -13l-22 -122q-2 -14 4 -19q4 -2 23 -2zM485 631h-149q-47 0 -57 -41l-33 -168l35 33q59 57 112 57h119q70 0 118 -56t36 -118l-35 -191q-11 -69 -65 -109t-126 -40h-276q-72 0 -119 53
t-35 115l88 496q12 68 66 110t125 41h266q70 0 120 -53t38 -117l-13 -68h-194l4 33q2 14 -4 19q-8 4 -21 4z" />
    <glyph glyph-name="seven.dnom" horiz-adv-x="696" 
d="M682 662l-522 -662h-236l498 627h-381l33 184h631z" />
    <glyph glyph-name="eight.dnom" horiz-adv-x="747" 
d="M227 166h156q49 0 55 41l17 92q5 15 -7 19t-26 4l-137 -3q-61 0 -68 -40l-16 -93q-2 -14 4 -18q4 -2 22 -2zM295 494h137q49 0 57 43l15 75q2 14 -4 19q-9 4 -23 4l-137 -4q-51 -2 -57 -41l-15 -76q-2 -14 4 -18q4 -2 23 -2zM432 -4h-272q-72 0 -119 53t-35 115l25 135
q12 74 104 121q-70 49 -55 123l22 119q12 68 66 110t125 41h254q69 -1 117 -55t36 -115l-20 -121q-12 -76 -98 -121q82 -41 65 -120l-24 -136q-11 -69 -65 -109t-126 -40z" />
    <glyph glyph-name="nine.dnom" horiz-adv-x="759" 
d="M492 629h-158q-51 0 -58 -41l-18 -105q-2 -14 3 -17t26 -3h80q55 0 96 14l37 12l18 117q2 14 -4 19q-8 4 -22 4zM246 178h147q51 0 62 41l32 168l-36 -33q-66 -55 -129 -55h-101q-70 0 -120 56t-38 120l35 189q12 68 66 110t125 41h276q70 0 118 -54t36 -116l-88 -495
q-11 -68 -65 -109t-126 -41h-268q-72 0 -119 53t-35 115l13 68h190l-4 -37q-2 -14 4 -19q4 -2 25 -2z" />
    <glyph glyph-name="zero.numr" horiz-adv-x="761" 
d="M346 842h174q41 0 47 30l72 410q-4 10 -18 10h-175q-41 1 -47 -30l-71 -410q6 -10 18 -10zM408 1477h280q74 1 117 -49t31 -119l-88 -500q-12 -72 -60 -111t-125 -39l-282 -2q-76 -1 -119 49t-31 121l88 500q13 70 61 110t128 40z" />
    <glyph glyph-name="one.numr" horiz-adv-x="495" 
d="M223 668l107 610l-170 -49l24 157l219 93h152l-141 -811h-191z" />
    <glyph glyph-name="two.numr" horiz-adv-x="724" 
d="M403 1479h252q70 -1 118 -55t36 -115l-23 -131q-8 -60 -70 -104t-145 -66l-217 -58q-27 -6 -30 -24l-15 -74h420l-31 -184h-614l49 288q9 56 67 100t146 68l217 58q35 10 37 24l14 76q8 16 -10 16h-147q-52 0 -58 -41l-10 -34h-192l18 104q11 70 65 111t123 41z" />
    <glyph glyph-name="three.numr" horiz-adv-x="724" 
d="M330 834h147q51 0 58 40l16 93q2 14 -4 18q-8 4 -29 4h-166l29 170h145q47 0 58 43l14 76q2 14 -4 18q-8 4 -23 4h-127q-51 0 -57 -40l-6 -37h-193l19 104q12 68 66 110t124 42h248q70 -1 118 -55t36 -115l-21 -119q-12 -80 -98 -121q78 -41 61 -121l-24 -135
q-11 -71 -65 -111t-124 -40h-266q-70 0 -118 54t-35 115l14 84h194l-14 -61q-2 -14 4 -18q4 -2 23 -2z" />
    <glyph glyph-name="four.numr" horiz-adv-x="821" 
d="M354 981h191l39 205zM823 811h-121l-24 -147h-189l25 147h-387l-21 143l549 521h164l-86 -494h121z" />
    <glyph glyph-name="five.numr" horiz-adv-x="745" 
d="M514 1196h104q70 0 119 -55t37 -119l-37 -211q-12 -68 -66 -110t-124 -42h-277q-70 1 -118 55t-35 115l14 84h195l-9 -51q-3 -14 3 -17t24 -3h158q53 0 59 41l21 121q4 16 -3 19t-20 3h-67q-49 0 -95 -14l-41 -13l-184 56l74 420h579l-32 -185h-392l-34 -182l34 33
q57 55 113 55z" />
    <glyph glyph-name="six.numr" horiz-adv-x="759" 
d="M350 840h158q53 0 59 41l19 106q2 14 -4 19q-8 4 -23 4h-82q-49 0 -92 -15l-39 -12l-22 -123q-2 -14 4 -18q4 -2 22 -2zM602 1294h-149q-47 0 -58 -41l-33 -168l35 33q59 57 113 58h119q72 0 116 -56q49 -57 37 -119l-34 -190q-12 -68 -66 -110t-125 -42h-276
q-70 1 -118 55t-36 115l88 496q13 68 67 110t124 42h266q70 1 120 -53t37 -117l-12 -68h-194l2 33q4 16 -3 19t-20 3z" />
    <glyph glyph-name="seven.numr" horiz-adv-x="696" 
d="M799 1325l-523 -661h-237l500 626h-381l32 185h631z" />
    <glyph glyph-name="eight.numr" horiz-adv-x="747" 
d="M344 829h156q49 0 55 41l16 93q2 16 -8 19t-24 3l-138 -2q-61 0 -67 -41l-17 -92q-3 -14 3 -18t24 -3zM412 1157h137q49 0 57 43l15 76q2 14 -5 18q-8 4 -22 4l-137 -4q-51 -2 -58 -41l-14 -75q-2 -14 4 -19q4 -2 23 -2zM549 657h-273q-70 1 -118 55t-35 115l24 136
q12 74 105 120q-70 49 -55 123l22 119q13 68 67 110t124 42h254q70 -1 118 -55t35 -115l-20 -121q-12 -76 -99 -121q82 -41 66 -121l-25 -135q-12 -68 -66 -110t-124 -42z" />
    <glyph glyph-name="nine.numr" horiz-adv-x="759" 
d="M608 1292h-157q-51 0 -58 -41l-18 -104q-2 -14 4 -19q4 -2 24 -2h80q55 0 97 15l36 12l19 117q2 14 -4 18q-8 4 -23 4zM362 842h148q51 0 61 41l33 168l-37 -33q-63 -55 -129 -55h-100q-70 0 -120 56t-38 120l35 188q13 68 67 110t124 42h276q70 -1 118 -55t36 -115
l-88 -496q-12 -67 -66 -109t-125 -42h-268q-70 0 -118 54t-36 115l12 68h191l-4 -37q-2 -14 4 -18q4 -2 24 -2z" />
    <glyph glyph-name="numbersign.tf" horiz-adv-x="1282" 
d="M840 891h-185l-141 -283h184zM1251 1157h125l-47 -266h-209l-141 -283h162l-47 -266h-246l-170 -342h-281l170 342h-184l-170 -342h-279l168 342h-122l45 266h208l142 283h-162l47 266h246l158 318h280l-158 -318h185l157 318h281z" />
    <glyph glyph-name="florin.tf" horiz-adv-x="1282" 
d="M944 1196q-74 0 -88 -80l-31 -174h260l-47 -266h-260l-71 -400q-25 -134 -107 -204t-209 -70h-244l50 279h143q72 0 88 79l57 318h-204l47 266h204l46 256q24 135 106 205t211 70h305l-49 -279h-207z" />
    <glyph glyph-name="cent.tf" horiz-adv-x="1282" 
d="M500 449h59l105 585l-43 -2q-76 -9 -89 -78l-79 -446q-6 -31 4 -45t43 -14zM913 1034h-47l-104 -585h26q31 1 56 25t30 56l17 93h266l-24 -146q-19 -127 -109 -204t-217 -76h-72l-33 -197h-241l33 197h-66q-125 0 -197 86t-49 215l90 512q20 128 110 204t216 76h86
l31 185h241l-30 -185h51q125 0 198 -87t48 -214l-23 -125h-266l20 111q6 35 -2 47q-10 12 -39 12z" />
    <glyph glyph-name="currency.tf" horiz-adv-x="1282" 
d="M825 973h-200q-31 1 -57 -21t-31 -57l-52 -295q-6 -33 4 -46t43 -13l197 -4q31 1 55 25t31 56l51 295q6 35 -2 48q-10 12 -39 12zM743 307h-268q-51 0 -96 15l-197 -177l-151 177l202 182q-8 41 0 98l58 328q8 49 31 92l-140 164l199 176l139 -166q51 10 92 10h269
q51 0 100 -16l193 172l149 -176l-199 -180q2 -52 -6 -99l-55 -323q-10 -47 -31 -99l139 -163l-196 -177l-146 172q-51 -10 -86 -10z" />
    <glyph glyph-name="dollar.tf" horiz-adv-x="1282" 
d="M745 268q79 0 91 80l26 156q6 35 -2 44t-43 17l-67 17l-56 -314h51zM629 1202q-76 0 -92 -80l-25 -139q-6 -33 3 -43t44 -18l55 -15l52 295h-37zM788 -8h-126l-35 -201h-234l35 201h-92q-129 0 -196 84t-44 215l31 178h287l-25 -141q-6 -33 3 -46t44 -14h66l61 350
l-104 29q-125 35 -194 112t-46 193l43 250q20 127 110 204t216 77h112l35 200h234l-35 -200h82q126 0 194 -87t47 -214l-28 -162h-287l23 125q6 35 -2 47q-10 12 -39 12h-58l-57 -334l109 -30q128 -35 196 -113t47 -190l-47 -267q-20 -126 -108 -202t-218 -76z" />
    <glyph glyph-name="Euro.tf" horiz-adv-x="1282" 
d="M623 1483h464q127 0 195 -87t47 -214l-33 -187h-295l27 150q6 35 -2 47q-10 12 -43 12h-319q-31 0 -58 -22q-25 -23 -31 -56l-30 -174h352l-25 -145h-352l-24 -135h352l-25 -146h-352l-35 -194q-6 -33 4 -46t43 -14h320q33 0 59 22t31 56l22 129h295l-36 -207
q-20 -126 -108 -202t-218 -76h-471q-129 0 -196 84t-44 215l41 231h-155l24 146h156l24 135h-155l24 145h156l45 252q19 127 109 204t217 77z" />
    <glyph glyph-name="sterling.tf" horiz-adv-x="1282" 
d="M666 1483h356q135 0 203 -84t43 -221l-31 -179h-295l25 146q6 35 -2 47q-10 12 -43 12h-215q-31 0 -58 -24t-33 -58l-47 -274h285l-49 -275h-285l-51 -297h649l-49 -276h-1106l47 276h94q27 0 53 22t31 50l39 225h-164l50 275h163l62 348q25 139 108 213t220 74z" />
    <glyph glyph-name="yen.tf" horiz-adv-x="1282" 
d="M899 692h219l-24 -143h-287l-25 -39l-10 -51h305l-24 -144h-305l-58 -315h-295l58 315h-308l25 144h307l10 51l-10 39h-291l25 143h225l-221 783h315l152 -631l383 631h332z" />
    </font>
</defs>
</svg>
