<?xml version="1.0" standalone="no"?>
<!DOCTYPE svg PUBLIC "-//W3C//DTD SVG 1.1//EN" "http://www.w3.org/Graphics/SVG/1.1/DTD/svg11.dtd" >
<svg xmlns="http://www.w3.org/2000/svg">
<metadata>
Created by FontPrep 20130207 at Wed Jan 13 07:20:41 2016
 By Matthew Higley
Copyright A~A^A~A^(c) 2013 by Mattox Shuler. All rights reserved.
</metadata>
<defs>
<font id="19b35cd0a264edc0a4426fd02bb4b668" horiz-adv-x='1024' >
  <font-face 
    font-family="Industry-Ultra"
    font-weight="800"
    font-stretch="normal"
    units-per-em="2048"
    panose-1="0 0 0 0 0 0 0 0 0 0"
    ascent="1616"
    descent="-432"
    x-height="1106"
    cap-height="1475"
    bbox="-332 -756 2028 1985"
    underline-thickness="102"
    underline-position="-100"
    unicode-range="U+0020-FB02"
  />
<missing-glyph horiz-adv-x="428" 
 />
    <glyph glyph-name=".notdef" horiz-adv-x="428" 
 />
    <glyph glyph-name=".null" horiz-adv-x="0" 
 />
    <glyph glyph-name="nonmarkingreturn" horiz-adv-x="681" 
 />
    <glyph glyph-name="space" unicode=" " horiz-adv-x="540" 
 />
    <glyph glyph-name="exclam" unicode="!" horiz-adv-x="550" 
d="M475 1475l-65 -957h-269l-65 957h399zM455 0h-357v356h357v-356z" />
    <glyph glyph-name="quotedbl" unicode="&#x22;" horiz-adv-x="987" 
d="M901 1475l-86 -543h-194l-86 543h366zM453 1475l-86 -543h-195l-86 543h367z" />
    <glyph glyph-name="numbersign" unicode="#" horiz-adv-x="1644" 
d="M1604 840h-271l-63 -183h192v-335h-309l-111 -322h-354l111 322h-252l-111 -322h-354l111 322h-148v335h266l64 183h-189v338h306l102 297h352l-102 -297h254l102 297h352l-102 -297h154v-338zM981 840h-254l-63 -183h254z" />
    <glyph glyph-name="dollar" unicode="$" horiz-adv-x="1277" 
d="M887 -14h-101v-203h-301v203h-82q-135 0 -220 84t-85 217v213h363v-138q0 -20 28 -20h21v242l-109 22q-125 25 -215 108t-90 199v273q0 133 83 218t218 85h84v203h301v-203h74q133 0 220 -86t87 -217v-199h-364v123q0 20 -29 20h-12v-225q12 -2 48 -9t74 -13t56 -16
q20 -9 45 -18q56 -20 121 -79q92 -82 92 -199v-284q0 -131 -86 -216t-221 -85zM475 1108v-131q0 -15 39 -23v176l-10 -2q-29 0 -29 -20zM819 362v144q0 18 -33 22l-24 7v-193h26q31 0 31 20z" />
    <glyph glyph-name="percent" unicode="%" horiz-adv-x="1267" 
d="M410 891h-205q-66 0 -106 40t-40 103v305q0 63 40 103t108 41h201q68 0 106 -41q43 -41 43 -103v-305q0 -63 -43 -102q-39 -41 -104 -41zM1100 1475l-637 -1475h-309l639 1475h307zM1057 -6h-205q-68 0 -104 39q-41 39 -41 102v305q0 64 40 104t107 40h201q68 0 106 -41
q43 -39 43 -103v-305q0 -61 -40 -101t-107 -40zM362 1087v197q0 20 -12 21h-86q-14 0 -14 -21v-197q0 -18 14 -18h86q12 0 12 18zM1010 190v197q0 18 -13 19h-86q-14 0 -14 -19v-197q0 -20 14 -20h86q13 0 13 20z" />
    <glyph glyph-name="ampersand" unicode="&#x26;" horiz-adv-x="1347" 
d="M1333 588h-139v-297q0 -131 -85 -215t-222 -84h-481q-138 0 -222 83t-84 216v244q0 143 129 217q-113 80 -112 217v217q0 131 85 215t220 84h383q135 0 219 -85t84 -214v-162h-375v88q0 25 -28 25h-187q-27 0 -26 -25v-170q0 -25 22 -24h819v-330zM819 362v226h-303
q-39 0 -39 -27v-199q0 -25 27 -24h284q31 -1 31 24z" />
    <glyph glyph-name="quotesingle" unicode="'" horiz-adv-x="536" 
d="M453 1475l-86 -543h-195l-86 543h367z" />
    <glyph glyph-name="parenleft" unicode="(" horiz-adv-x="831" 
d="M750 -219h-299q-137 0 -218 86q-84 84 -83 213v1225q0 131 83 215q80 86 218 86h299v-351l-201 -4q-27 0 -27 -24v-1073q0 -25 27 -25h201v-348z" />
    <glyph glyph-name="parenright" unicode=")" horiz-adv-x="831" 
d="M383 -219h-297v348h199q29 0 28 25v1073q0 25 -28 24l-199 4v351h297q135 0 221 -86t86 -215v-1225q0 -127 -86 -213t-221 -86z" />
    <glyph glyph-name="asterisk" unicode="*" horiz-adv-x="872" 
d="M868 1069l-293 -22l220 -183l-248 -174l-113 260l-108 -258l-252 172l219 183l-287 20l92 283l254 -148l-67 273h305l-68 -273l248 146z" />
    <glyph glyph-name="plus" unicode="+" horiz-adv-x="1040" 
d="M950 604h-266v-231h-324v231h-266v307h266v232h324v-232h266v-307z" />
    <glyph glyph-name="comma" unicode="," horiz-adv-x="530" 
d="M90 -14v346h352v-244q1 -70 -110 -197l-146 -172h-157l170 267h-109z" />
    <glyph glyph-name="hyphen" unicode="-" horiz-adv-x="972" 
d="M893 518h-811v309h811v-309z" />
    <glyph glyph-name="period" unicode="." horiz-adv-x="530" 
d="M442 0h-352v332h352v-332z" />
    <glyph glyph-name="slash" unicode="/" horiz-adv-x="1107" 
d="M1108 1618l-737 -1759h-371l737 1759h371z" />
    <glyph glyph-name="zero" unicode="0" horiz-adv-x="1292" 
d="M887 -6h-484q-137 0 -221 83t-84 216v895q0 131 85 215t220 84h484q135 0 221 -85t86 -214v-895q0 -131 -85 -215t-222 -84zM817 367v741q0 27 -29 27h-286q-27 0 -27 -27v-741q0 -25 27 -25h286q29 0 29 25z" />
    <glyph glyph-name="one" unicode="1" horiz-adv-x="882" 
d="M713 0h-375v1087l-275 -90v308l361 170h289v-1475z" />
    <glyph glyph-name="two" unicode="2" horiz-adv-x="1243" 
d="M1178 0h-1084v543q0 113 87 189t218 114l351 104q35 12 41 17q8 16 8 32v97q0 41 -45 41h-238q-43 0 -43 -43v-95h-364v181q0 125 92 215q94 90 215 90h444q125 0 219 -91t95 -214v-269q0 -111 -93 -190q-82 -74 -215 -113l-350 -104q-37 -12 -42 -18t-5 -29v-109h709
v-348z" />
    <glyph glyph-name="three" unicode="3" horiz-adv-x="1245" 
d="M850 -8h-457q-131 0 -221 89t-90 214v182h375l-6 -102q0 -39 45 -39h237q47 0 47 41v166q0 43 -59 43h-270v329h270q25 -1 34 9t9 34v138q0 41 -47 41h-205q-43 0 -43 -41v-99h-375v183q0 125 92 215q94 90 220 90h423q123 0 219 -91t95 -214v-211q0 -137 -115 -217
q131 -76 131 -217v-240q0 -123 -92 -213t-217 -90z" />
    <glyph glyph-name="four" unicode="4" horiz-adv-x="1343" 
d="M1323 264h-205v-264h-362v264h-647l-78 275l696 936h391v-881h205v-330zM756 594v403l-295 -403h295z" />
    <glyph glyph-name="five" unicode="5" horiz-adv-x="1316" 
d="M506 1126v-266q111 117 239 117h150q129 0 222 -91t93 -214v-377q0 -123 -91 -213t-222 -90h-479q-131 0 -221 89t-91 214v182h375v-94q0 -43 43 -43h262q45 0 45 43v225q0 41 -43 41h-83q-98 0 -191 -49l-25 -14l-360 102v787h1030v-349h-653z" />
    <glyph glyph-name="six" unicode="6" horiz-adv-x="1296" 
d="M471 1090v-269q111 117 242 117h174q129 0 219 -90q94 -88 94 -211v-342q0 -123 -91 -213t-222 -90h-479q-132 0 -222 89t-90 214v885q0 125 92 215q94 90 220 90h464q125 0 220 -90q94 -92 94 -215v-154h-375l-4 64q-6 43 -45 43h-248q-43 0 -43 -43zM819 381v188
q0 41 -45 41h-104q-96 0 -189 -51l-12 -6l-2 -172q0 -41 45 -41h262q45 0 45 41z" />
    <glyph glyph-name="seven" unicode="7" horiz-adv-x="1206" 
d="M70 1126v349h1110v-283l-709 -1192h-416l670 1126h-655z" />
    <glyph glyph-name="eight" unicode="8" horiz-adv-x="1263" 
d="M862 -8h-467q-131 0 -221 89t-90 214v242q0 143 129 217q-113 80 -113 217v209q0 125 93 215q94 90 219 90h434q125 0 219 -91t94 -214v-209q0 -137 -115 -217q131 -76 132 -217v-242q-1 -123 -92 -213t-222 -90zM784 961v135q0 41 -45 41h-213q-43 0 -43 -41v-135
q0 -25 6 -37q12 -6 31 -6h225q18 0 31 6q8 17 8 37zM805 379v168q0 41 -57 41h-226q-55 0 -55 -41v-168q0 -41 43 -41h250q45 0 45 41z" />
    <glyph glyph-name="nine" unicode="9" horiz-adv-x="1296" 
d="M819 383v270q-119 -115 -239 -114h-174q-128 0 -220 90t-92 215v336q0 125 92 215q94 90 220 90h479q125 0 219 -91t94 -214v-885q0 -123 -91 -213t-222 -90h-465q-125 0 -216 89t-91 214v154h374l-6 -68q-4 -41 47 -41h246q45 0 45 43zM614 864q113 0 203 56v172
q-2 43 -45 43h-262q-43 0 -43 -43v-187q0 -41 43 -41h104z" />
    <glyph glyph-name="colon" unicode=":" horiz-adv-x="530" 
d="M442 754h-352v352h352v-352zM442 0h-352v352h352v-352z" />
    <glyph glyph-name="semicolon" unicode=";" horiz-adv-x="530" 
d="M442 752h-352v354h352v-354zM90 -6v354h352v-250q1 -69 -110 -202l-146 -177h-157l170 275h-109z" />
    <glyph glyph-name="less" unicode="&#x3c;" horiz-adv-x="1040" 
d="M934 250l-848 360v267l848 362v-319l-461 -177l461 -174v-319z" />
    <glyph glyph-name="equal" unicode="=" horiz-adv-x="1040" 
d="M950 821h-856v324h856v-324zM950 387h-856v324h856v-324z" />
    <glyph glyph-name="greater" unicode="&#x3e;" horiz-adv-x="1040" 
d="M958 610l-847 -360v319l458 174l-458 177v319l847 -362v-267z" />
    <glyph glyph-name="question" unicode="?" horiz-adv-x="1159" 
d="M688 520v-74h-375v156q0 50 41 98l39 43q27 27 90 68l135 92l87 53q25 20 32 27l4 2v121q0 27 -28 27h-297q-27 0 -27 -27v-113h-375v191q0 131 83 215t218 84l486 2q135 0 221 -85t86 -214v-285q0 -55 -42 -105t-79 -75l-110 -72q-43 -27 -62 -37l-92 -55
q-35 -23 -35 -37zM680 2h-375v344h375v-344z" />
    <glyph glyph-name="at" unicode="@" horiz-adv-x="2039" 
d="M1591 94h-442l-35 127l-16 -20q-46 -53 -104 -83t-109 -30h-56q-133 0 -217 85t-84 218v346q0 131 84 216t217 85h56q53 0 115 -32t102 -80l16 -21l35 127h328v-725h114q31 0 31 94v811q0 8 -14 9h-1182q-12 0 -12 -9v-1284q0 -8 12 -8h1077v-258h-1061q-137 0 -217 86
q-84 84 -84 215v1219q0 131 84 215q80 86 217 86l1145 -8q135 0 221 -86t86 -215v-779q0 -129 -87 -215t-220 -86zM920 735h-2q-23 0 -23 -18v-307q0 -18 23 -19h2q61 0 153 41l31 14v234l-31 14q-84 41 -153 41z" />
    <glyph glyph-name="A" unicode="A" horiz-adv-x="1366" 
d="M1362 0h-404l-79 293h-406l-82 -293h-389l467 1475h426zM784 641l-104 389l-109 -389h213z" />
    <glyph glyph-name="B" unicode="B" horiz-adv-x="1325" 
d="M932 0h-797v1475l780 4q135 0 221 -85t87 -214v-207q0 -137 -115 -217q131 -76 131 -217v-240q0 -129 -86 -214t-221 -85zM846 948v160q0 25 -29 25h-307v-211l311 2l19 2h4q2 2 2 22zM862 375v196q0 14 -4 19v4h-348v-244l324 -2q28 0 28 27z" />
    <glyph glyph-name="C" unicode="C" horiz-adv-x="1269" 
d="M891 -6h-488q-137 0 -221 83t-84 216v895q0 131 85 215t220 84h488q135 0 221 -85t86 -214v-277h-375v199q0 27 -28 27h-291q-27 0 -27 -27v-741q0 -27 27 -27h291q29 0 28 27v198h375v-274q0 -131 -85 -215t-222 -84z" />
    <glyph glyph-name="D" unicode="D" horiz-adv-x="1343" 
d="M938 0h-803v1475l803 4q135 0 219 -85t84 -214v-881q0 -129 -84 -214t-219 -85zM868 379v725q0 27 -28 26h-330v-778h330q28 0 28 27z" />
    <glyph glyph-name="E" unicode="E" horiz-adv-x="1226" 
d="M1149 0h-1014v1475h1014v-349h-639v-196h510v-352h-510v-230h639v-348z" />
    <glyph glyph-name="F" unicode="F" horiz-adv-x="1189" 
d="M1149 1126h-639v-208h510v-351h-510v-567h-375v1475h1014v-349z" />
    <glyph glyph-name="G" unicode="G" 
d="M909 -8h-506q-137 0 -221 83t-84 216v895q0 131 85 215t220 84h506q135 0 221 -85t87 -214v-225h-375v147q0 27 -31 27h-309q-27 0 -27 -27v-739q0 -29 27 -29h309q31 0 31 27v157h-236v332h611v-565q-1 -131 -86 -215t-222 -84z" />
    <glyph glyph-name="H" unicode="H" horiz-adv-x="1421" 
d="M1286 0h-375v578h-401v-578h-375v1475h375v-545h401v545h375v-1475z" />
    <glyph glyph-name="I" unicode="I" horiz-adv-x="645" 
d="M510 0h-375v1475h375v-1475z" />
    <glyph glyph-name="J" unicode="J" horiz-adv-x="1202" 
d="M782 -8h-452q-137 0 -219 83t-82 214v364h374v-286q0 -27 27 -27h256q29 0 29 27v1108h375v-1186q-1 -129 -86 -213t-222 -84z" />
    <glyph glyph-name="K" unicode="K" horiz-adv-x="1359" 
d="M504 0h-369v1475h369v-584l411 584h439l-445 -578l455 -897h-420l-287 571l-153 -200v-371z" />
    <glyph glyph-name="L" unicode="L" horiz-adv-x="1130" 
d="M1098 0h-963v1475h375v-1127h588v-348z" />
    <glyph glyph-name="M" unicode="M" horiz-adv-x="1740" 
d="M1606 0h-357v811l-250 -580h-260l-247 580v-811h-357v1475h395l340 -758l338 758h398v-1475z" />
    <glyph glyph-name="N" unicode="N" horiz-adv-x="1464" 
d="M1329 0h-391l-449 846v-846h-354v1475h389l451 -848v848h354v-1475z" />
    <glyph glyph-name="O" unicode="O" horiz-adv-x="1323" 
d="M918 -6h-515q-137 0 -221 83t-84 216v895q0 131 85 215t220 84h515q135 0 219 -85t84 -214v-895q0 -131 -83 -215t-220 -84zM848 367v741q0 27 -29 27h-317q-27 0 -27 -27v-741q0 -25 27 -25h317q29 0 29 25z" />
    <glyph glyph-name="P" unicode="P" horiz-adv-x="1277" 
d="M510 492v-492h-375v1475h789q135 0 221 -85t86 -214v-390q0 -131 -86 -213t-221 -81h-414zM854 866v234q0 27 -29 26h-315v-286h315q29 -1 29 26z" />
    <glyph glyph-name="Q" unicode="Q" horiz-adv-x="1333" 
d="M403 -14q-137 0 -221 83t-84 216v897q0 131 85 216t220 85l523 -2q135 0 221 -86t86 -215v-897q0 -121 -73 -199t-177 -94l111 -266h-342l-111 262h-238zM856 360v746q0 25 -29 24h-327q-27 0 -27 -24v-746q0 -25 27 -24h327q29 -1 29 24z" />
    <glyph glyph-name="R" unicode="R" horiz-adv-x="1327" 
d="M514 518v-514h-375v1475h787q135 0 219 -85t84 -214v-365q0 -94 -50 -169t-126 -105l225 -541l-397 4l-211 514h-156zM856 887v217q0 27 -29 26h-313v-268h313q29 0 29 25z" />
    <glyph glyph-name="S" unicode="S" horiz-adv-x="1277" 
d="M887 -8h-484q-137 0 -221 83t-84 216v213h363v-142q0 -23 28 -22h297q29 0 29 22v150q0 14 -33 23l-381 77q-305 61 -305 303v271q0 131 83 215t218 84h459q135 0 221 -85t86 -214v-201h-366l8 127q0 20 -29 21h-274q-27 0 -27 -23v-135q0 -16 31 -23l381 -75
q307 -63 307 -304v-282q0 -131 -85 -215t-222 -84z" />
    <glyph glyph-name="T" unicode="T" horiz-adv-x="1169" 
d="M1141 1130h-367v-1130h-375v1130h-366v345h1108v-345z" />
    <glyph glyph-name="U" unicode="U" horiz-adv-x="1325" 
d="M909 -8h-491q-137 0 -221 83t-84 214v1186h374v-1108q0 -27 27 -27h295q29 0 29 27v1108h372l7 -1184q-1 -131 -86 -215t-222 -84z" />
    <glyph glyph-name="V" unicode="V" horiz-adv-x="1327" 
d="M1319 1475l-445 -1475h-421l-445 1475h428l228 -983l235 983h420z" />
    <glyph glyph-name="W" unicode="W" horiz-adv-x="1861" 
d="M1853 1475l-362 -1475h-344l-209 819l-207 -819h-360l-363 1475h402l151 -930l232 930h290l234 -930l151 930h385z" />
    <glyph glyph-name="X" unicode="X" horiz-adv-x="1306" 
d="M1315 0h-428l-250 418l-234 -418h-411l438 762l-426 713h428l238 -396l223 396h412l-426 -744z" />
    <glyph glyph-name="Y" unicode="Y" horiz-adv-x="1226" 
d="M803 0h-375v500l-446 975h409l223 -553l224 553h409l-444 -975v-500z" />
    <glyph glyph-name="Z" unicode="Z" horiz-adv-x="1226" 
d="M1153 344v-344h-1081v279l604 851h-567v345h1048v-279l-604 -852h600z" />
    <glyph glyph-name="bracketleft" unicode="[" horiz-adv-x="798" 
d="M717 -215h-570v1821h570v-351h-195v-1122h195v-348z" />
    <glyph glyph-name="backslash" unicode="\" horiz-adv-x="1107" 
d="M1108 -141h-371l-737 1759h371z" />
    <glyph glyph-name="bracketright" unicode="]" horiz-adv-x="798" 
d="M655 -215h-569v348h195v1122h-195v351h569v-1821z" />
    <glyph glyph-name="asciicircum" unicode="^" horiz-adv-x="1597" 
d="M1503 463h-391l-313 612l-314 -612h-389l518 1012h369z" />
    <glyph glyph-name="underscore" unicode="_" horiz-adv-x="1193" 
d="M1198 -393h-1202v305h1202v-305z" />
    <glyph glyph-name="grave" unicode="`" horiz-adv-x="720" 
d="M676 1610h-268l-373 295h436z" />
    <glyph glyph-name="a" unicode="a" horiz-adv-x="1124" 
d="M662 0v104q-10 -12 -25 -24l-45 -41q-53 -45 -152 -45h-80q-129 0 -214 84t-85 209v121q0 133 82 214t219 80h48q129 0 256 -32v137q0 10 -17 10h-176q-16 0 -16 -10v-78h-361v82q0 125 94 213q90 90 220 90l299 -2q129 0 221 -91t92 -212v-809h-360zM662 451h-234
q-14 0 -14 -11v-114q0 -16 20 -17h39q85 1 189 56v86z" />
    <glyph glyph-name="b" unicode="b" horiz-adv-x="1161" 
d="M788 1122q127 0 215 -86t89 -211v-536q0 -125 -86 -210t-215 -85h-78q-131 0 -242 117v-111h-360v1554h360l-2 -550q113 119 242 118h77zM674 313h35q22 1 22 17v454q0 16 -22 17h-35q-139 0 -203 -56v-376q64 -56 203 -56z" />
    <glyph glyph-name="c" unicode="c" horiz-adv-x="1093" 
d="M723 -6h-352q-129 0 -214 84t-85 209v532q0 123 87 209t214 86h348q127 0 215 -86t88 -209v-157h-360v143q0 12 -19 12h-196q-16 0 -17 -12v-504q0 -12 17 -12h196q18 0 19 12v143h360v-157q0 -123 -86 -208t-215 -85z" />
    <glyph glyph-name="d" unicode="d" horiz-adv-x="1161" 
d="M694 1554h361v-1554h-363v111q-115 -117 -243 -117h-78q-129 0 -214 84t-85 211v536q0 125 87 211t214 86h78q128 1 243 -118v550zM485 801h-34q-20 0 -21 -17v-454q0 -16 21 -17h34q125 0 205 56v376q-80 56 -205 56z" />
    <glyph glyph-name="e" unicode="e" horiz-adv-x="1103" 
d="M1036 440h-604l-2 -137q0 -12 19 -12h206q16 0 17 12v80h362v-96q0 -123 -87 -208t-216 -85h-358q-129 0 -214 84t-85 209v532q0 123 87 209t214 86h358q127 0 215 -86t88 -209v-379zM672 684v119q0 12 -17 12h-206q-16 0 -17 -12v-119h240z" />
    <glyph glyph-name="f" unicode="f" horiz-adv-x="821" 
d="M805 817h-234v-817h-362v817h-172v297h172v143q0 125 88 211q90 86 213 86h295v-307h-219q-14 0 -15 -10v-123h234v-297z" />
    <glyph glyph-name="g" unicode="g" horiz-adv-x="1161" 
d="M694 1106h361l-4 -1212q-4 -129 -91 -213t-210 -84h-338q-123 0 -213 86q-88 86 -88 211v96h346v-74q0 -33 37 -33h159q39 0 39 33v260q-115 -119 -243 -119h-78q-125 0 -212 86t-87 211v463q0 125 88 211q90 86 213 86h78q128 0 243 -119v111zM449 793q-20 0 -21 -17
v-377q0 -18 21 -18h34q113 0 205 55v301q-92 55 -205 56h-34z" />
    <glyph glyph-name="h" unicode="h" horiz-adv-x="1173" 
d="M469 1554v-550q113 119 242 118h63q127 0 215 -86t88 -209v-827h-360l-2 784q-2 16 -23 17h-22q-98 0 -191 -49l-10 -7v-745h-360v1554h360z" />
    <glyph glyph-name="i" unicode="i" horiz-adv-x="571" 
d="M475 1235h-377v319h377v-319zM467 0h-361v1114h361v-1114z" />
    <glyph glyph-name="j" unicode="j" horiz-adv-x="587" 
d="M489 1233h-380v321h380v-321zM180 -414h-270v314h194q16 0 17 12v1200h362v-1231q0 -123 -90 -209q-84 -86 -213 -86z" />
    <glyph glyph-name="k" unicode="k" horiz-adv-x="1210" 
d="M467 0h-356v1475h356v-787l305 426h442l-393 -455l404 -659h-387l-248 393l-123 -145v-248z" />
    <glyph glyph-name="l" unicode="l" horiz-adv-x="561" 
d="M463 0h-363v1554h363v-1554z" />
    <glyph glyph-name="m" unicode="m" horiz-adv-x="1732" 
d="M467 1106v-111q113 119 242 119h36q92 0 166 -49q68 -41 101 -104l28 26q121 127 250 127h33q127 0 215 -86t88 -209v-819h-362v778q0 16 -23 17h-14q-78 0 -180 -56v-739h-361v778q0 16 -22 17h-17q-80 0 -180 -56v-739h-361v1106h361z" />
    <glyph glyph-name="n" unicode="n" horiz-adv-x="1173" 
d="M670 795q-108 0 -201 -56v-739h-360v1106h360v-111q113 119 242 119h63q127 0 215 -86t88 -209v-819h-360l-2 778q-2 16 -23 17h-22z" />
    <glyph glyph-name="o" unicode="o" horiz-adv-x="1124" 
d="M750 -6h-377q-129 0 -214 84t-85 209v532q0 123 87 209t214 86h373q127 0 215 -86t88 -209v-532q0 -123 -86 -208t-215 -85zM688 299v508q0 10 -16 10h-228q-14 0 -14 -10v-508q0 -10 14 -10h228q16 0 16 10z" />
    <glyph glyph-name="p" unicode="p" horiz-adv-x="1161" 
d="M469 1106v-111q113 119 242 119h75q123 0 213 -86t91 -211v-536q0 -127 -89 -209q-86 -86 -213 -86h-77q-131 0 -242 116v-497h-360v1501h360zM670 793q-106 0 -199 -56v-377l10 -4q92 -51 189 -51h35q22 1 22 17v454q0 16 -22 17h-35z" />
    <glyph glyph-name="q" unicode="q" horiz-adv-x="1161" 
d="M694 1106h361v-1501h-361v497q-113 -117 -243 -116h-78q-127 0 -213 86q-86 80 -86 209v536q0 125 88 211q90 86 213 86h76q128 0 243 -119v111zM453 793q-20 0 -21 -17v-454q0 -16 21 -17h34q113 0 205 55v377q-92 55 -205 56h-34z" />
    <glyph glyph-name="r" unicode="r" horiz-adv-x="901" 
d="M670 786q-113 0 -201 -53v-733h-360v1106h360v-111q113 119 242 119h161v-328h-202z" />
    <glyph glyph-name="s" unicode="s" horiz-adv-x="1087" 
d="M717 -6h-344q-131 0 -219 87t-88 212v92h362v-74q0 -14 21 -14h194q23 0 23 14v54q0 20 -27 26l-303 45q-131 18 -195 84t-63 162v133q0 123 89 211t218 88h303q131 0 221 -88t90 -211v-76h-362v72q0 14 -23 14h-153q-23 0 -23 -14v-59q0 -23 27 -29l303 -45
q131 -18 196 -85t64 -161v-139q0 -125 -89 -212t-222 -87z" />
    <glyph glyph-name="t" unicode="t" horiz-adv-x="880" 
d="M838 0h-342q-123 0 -213 86q-88 86 -88 209v522h-168v297h172v361h352v-361h287v-297h-283v-493q0 -10 14 -11h269v-313z" />
    <glyph glyph-name="u" unicode="u" horiz-adv-x="1173" 
d="M504 311q97 0 201 56v739h360v-1106h-360v111q-115 -117 -244 -117h-64q-129 0 -214 84t-85 209v819h359l4 -778q0 -16 20 -17h23z" />
    <glyph glyph-name="v" unicode="v" horiz-adv-x="1110" 
d="M1102 1106l-357 -1106h-378l-361 1106h387l170 -733l172 733h367z" />
    <glyph glyph-name="w" unicode="w" horiz-adv-x="1640" 
d="M1632 1106l-319 -1106h-357l-125 563l-124 -563h-355l-346 1106h379l145 -694l146 694h313l146 -692l143 692h354z" />
    <glyph glyph-name="x" unicode="x" horiz-adv-x="1093" 
d="M1092 0h-394l-172 272l-155 -272h-373l340 571l-336 535h393l164 -258l150 258h372l-333 -557z" />
    <glyph glyph-name="y" unicode="y" horiz-adv-x="1136" 
d="M1133 1106l-537 -1501h-326l140 401l-406 1100h356l203 -651l225 651h345z" />
    <glyph glyph-name="z" unicode="z" horiz-adv-x="1001" 
d="M958 0h-913v254l438 541h-426v311h881v-248l-440 -547h460v-311z" />
    <glyph glyph-name="braceleft" unicode="{" horiz-adv-x="964" 
d="M883 -219h-299q-135 0 -220 85t-85 214v430q0 25 -29 25h-187v321h187q29 0 29 25v424q0 131 85 216t220 85h299v-351h-201q-27 0 -27 -24v-361q0 -96 -90 -176q90 -78 90 -176v-364q0 -25 27 -25h201v-348z" />
    <glyph glyph-name="bar" unicode="|" horiz-adv-x="755" 
d="M555 -440h-352v2052h352v-2052z" />
    <glyph glyph-name="braceright" unicode="}" horiz-adv-x="964" 
d="M905 539h-188q-27 0 -27 -25v-430q0 -127 -86 -213t-221 -86h-297v348h199q29 0 28 25v364q0 100 88 176q-88 78 -88 176v361q0 25 -28 25h-199v350h297q135 0 221 -86t86 -215v-424q0 -25 27 -25h188v-321z" />
    <glyph glyph-name="asciitilde" unicode="~" horiz-adv-x="1040" 
d="M930 829l-99 -227q-37 -86 -141 -63l-336 63l-43 -78h-198l92 226q37 86 141 67l336 -61l47 73h201z" />
    <glyph glyph-name="exclamdown" unicode="&#xa1;" horiz-adv-x="550" 
d="M455 750h-357v356h357v-356zM475 -367h-399l65 955h269z" />
    <glyph glyph-name="cent" unicode="&#xa2;" horiz-adv-x="1218" 
d="M776 193v-191h-313v191h-68q-135 -1 -218 81t-83 215v508q0 131 84 214t217 83h68v179h313v-179h47q131 0 219 -82t88 -215v-172h-337v131q0 20 -27 21h-14v-467h14q27 0 27 20v132h337v-173q0 -133 -86 -215t-221 -81h-47zM489 510v467h-30q-27 0 -27 -21v-426
q0 -20 27 -20h30z" />
    <glyph glyph-name="sterling" unicode="&#xa3;" horiz-adv-x="1286" 
d="M1208 0h-1179v348h121q47 0 47 47v146h-168v346h168v293q0 143 84 222t227 79h383q145 0 227 -82t82 -219v-211h-375v139q0 27 -28 27h-199q-27 0 -27 -27v-221h246v-346h-246v-193h637v-348z" />
    <glyph glyph-name="currency" unicode="&#xa4;" horiz-adv-x="1226" 
d="M758 297h-291q-23 0 -68 4l-188 -182l-223 221l186 180q-6 20 -6 70v323q0 47 4 68l-184 178l223 221l182 -178q33 6 76 6h291q41 0 71 -6l183 178l223 -221l-182 -176q6 -33 6 -68v-323q0 -43 -8 -74l184 -178l-223 -221l-189 182q-41 -4 -67 -4zM743 612v283
q0 20 -28 20h-203q-27 0 -27 -20v-283q0 -23 27 -22h203q28 -1 28 22z" />
    <glyph glyph-name="yen" unicode="&#xa5;" horiz-adv-x="1226" 
d="M1104 709v-177h-285l-16 -38v-9h301v-176h-301v-309h-375v309h-303v176h303v9l-18 38h-285v177h205l-348 766h409l223 -553l224 553h409l-348 -766h205z" />
    <glyph glyph-name="brokenbar" unicode="&#xa6;" horiz-adv-x="755" 
d="M555 782h-352v830h352v-830zM555 -440h-352v827h352v-827z" />
    <glyph glyph-name="section" unicode="&#xa7;" horiz-adv-x="1101" 
d="M1014 270v-159q0 -125 -92 -213t-217 -88h-326q-125 0 -217 88q-90 88 -90 213v100h358v-66q0 -20 27 -20h172q29 0 28 20v62q0 27 -32 33l-289 49q-111 18 -178 84q-72 66 -72 164v188q0 92 68 160q12 12 18 20q-47 47 -58 75t-12 62v138q0 127 91 215q92 88 217 88h284
q125 0 217 -88t93 -215v-88h-361l4 71q0 20 -26 21h-132q-29 0 -28 -23v-55q0 -25 31 -29l286 -49q111 -18 178 -84q74 -68 74 -164v-211q0 -80 -80 -170q64 -64 64 -129zM676 561v152q0 29 -33 35l-176 28h-18l-3 -2v-176q0 -25 31 -29l174 -30q25 -1 25 22z" />
    <glyph glyph-name="dieresis" unicode="&#xa8;" horiz-adv-x="1310" 
d="M1030 1618h-311v270h311v-270zM594 1618h-311v270h311v-270z" />
    <glyph glyph-name="copyright" unicode="&#xa9;" horiz-adv-x="1734" 
d="M1288 -10h-842q-137 0 -219 83t-82 216v895q0 131 83 215t218 84h842q135 0 221 -85t86 -214v-895q0 -131 -85 -215t-222 -84zM1348 289v895q0 31 -19 49q-14 18 -43 18h-842q-59 0 -59 -67v-895q0 -64 59 -66h842q29 0 43 19q19 18 19 47zM719 268q-97 0 -157 58
t-60 157v508q0 99 59 157t158 58h299q100 0 160 -58t61 -157v-166h-272v113q0 14 -21 14h-153q-20 0 -21 -14v-401q0 -14 21 -15h153q20 0 21 15v112h272v-166q0 -98 -60 -156t-161 -59h-299z" />
    <glyph glyph-name="ordfeminine" unicode="&#xaa;" horiz-adv-x="802" 
d="M350 739h-67q-81 -1 -141 57t-60 142v72q0 90 52 141t147 51h26q98 0 180 -18v65q0 18 -20 19h-109q-20 0 -20 -19v-30h-236v57q0 84 62 143q63 59 145 60l207 -2q92 -1 152 -61t59 -142v-529h-238v70q-76 -76 -139 -76zM727 475h-629v201h629v-201zM492 1038h-164
q-8 0 -9 -8v-69q0 -6 11 -7h47q35 0 94 21l21 6v57z" />
    <glyph glyph-name="guillemotleft" unicode="&#xab;" horiz-adv-x="1175" 
d="M1167 295h-383l-268 364v119l268 367h383l-317 -426zM659 295h-383l-268 364v119l268 367h383l-317 -426z" />
    <glyph glyph-name="registered" unicode="&#xae;" horiz-adv-x="831" 
d="M602 711h-375q-57 0 -102 41q-43 41 -43 100v489q0 59 43 101q45 41 102 41l348 -2q78 0 126 -41t49 -99v-489q0 -57 -45 -99t-103 -42zM639 850v489q0 35 -61 35h-349q-33 0 -32 -35v-489q0 -35 32 -35h375q35 0 35 35zM365 1032v-168h-117v459h239q104 0 105 -98v-97
q0 -68 -57 -92l69 -172h-125l-65 168h-49zM475 1214h-108v-75h108l2 73q0 2 -2 2z" />
    <glyph glyph-name="macron" unicode="&#xaf;" horiz-adv-x="1263" 
d="M918 1630h-611v256h611v-256z" />
    <glyph glyph-name="degree" unicode="&#xb0;" horiz-adv-x="653" 
d="M428 1040h-203q-61 0 -97 35t-36 90v193q0 55 36 90t97 35h203q61 0 98 -36t37 -89v-193q0 -53 -37 -89t-98 -36zM397 1184v151q0 10 -10 11h-121q-8 0 -8 -11v-151q0 -10 8 -10h121q10 0 10 10z" />
    <glyph glyph-name="plusminus" unicode="&#xb1;" horiz-adv-x="1040" 
d="M950 760h-266v-232h-324v232h-266v315h266v234h324v-234h266v-315zM950 135h-856v309h856v-309z" />
    <glyph glyph-name="twosuperior" unicode="&#xb2;" horiz-adv-x="759" 
d="M467 1464h-162q-20 0 -20 -4l12 -41h-244v111q1 68 59 120t136 52h278q78 0 138 -53t59 -119v-158q0 -66 -56 -112t-139 -66l-217 -49h-20q-2 0 -2 -2v-49h432v-232h-682v328q0 66 55 111t135 65l217 49q6 2 17 2h4v47z" />
    <glyph glyph-name="threesuperior" unicode="&#xb3;" horiz-adv-x="757" 
d="M514 858h-287q-80 0 -137 54t-57 122v115h250l-4 -68q0 -6 20 -6h139q23 0 23 6v84q0 6 -23 6h-174v215h168q18 0 19 11v69q0 6 -23 7h-119q-20 0 -20 -7v-59h-248v115q0 68 58 120t139 52h264q80 0 139 -54t59 -118v-119q0 -70 -65 -119q76 -45 76 -119v-135
q-1 -66 -60 -119t-137 -53z" />
    <glyph glyph-name="acute" unicode="&#xb4;" horiz-adv-x="724" 
d="M692 1905l-375 -295h-270l205 295h440z" />
    <glyph glyph-name="paragraph" unicode="&#xb6;" horiz-adv-x="1792" 
d="M1659 0h-375v1126h-160v-1126h-374v492h-367q-135 0 -220 80t-85 214v390q0 131 85 215t220 84h1276v-1475z" />
    <glyph glyph-name="periodcentered" unicode="&#xb7;" horiz-adv-x="524" 
d="M438 518h-352v332h352v-332z" />
    <glyph glyph-name="cedilla" unicode="&#xb8;" horiz-adv-x="1157" 
d="M639 -424h-197l-133 145h287q4 0 4 11v18q0 10 -4 10h-248l117 240h199l-52 -94h23q86 0 138 -41t52 -115v-18q0 -74 -51 -115t-135 -41z" />
    <glyph glyph-name="onesuperior" unicode="&#xb9;" horiz-adv-x="530" 
d="M446 864h-247v582l-172 -47v198l229 103h190v-836z" />
    <glyph glyph-name="ordmasculine" unicode="&#xba;" horiz-adv-x="800" 
d="M283 737q-83 -1 -143 57t-60 142v344q0 84 59 141q61 57 144 58l235 -4q86 1 146 -57t59 -140v-344q0 -82 -61 -139t-144 -58h-235zM707 473h-611v201h611v-201zM485 956v295q0 10 -10 11h-151q-6 0 -7 -11v-295q0 -6 7 -6h151q10 0 10 6z" />
    <glyph glyph-name="guillemotright" unicode="&#xbb;" horiz-adv-x="1175" 
d="M1149 659l-270 -364h-383l317 424l-317 426h383l270 -367v-119zM639 659l-270 -364h-383l317 424l-317 426h383l270 -367v-119z" />
    <glyph glyph-name="onequarter" unicode="&#xbc;" horiz-adv-x="1755" 
d="M1729 141h-125v-141h-242v141h-395l-58 174l498 533h197v-492h125v-215zM1348 1475l-883 -1475h-268l882 1475h269zM446 627h-247v590l-172 -48v201l229 105h190v-848zM1362 356v121l-127 -121h127z" />
    <glyph glyph-name="onehalf" unicode="&#xbd;" horiz-adv-x="1773" 
d="M1303 285v-52h432v-233h-682v330q0 68 58 114t132 66l217 49q6 2 17 2h4v51h-162q-20 0 -21 -6l13 -43h-244v113q0 70 58 122t137 52h278q78 0 137 -53t60 -121v-160q1 -66 -59 -115t-136 -65l-217 -51h-22zM1348 1475l-883 -1475h-268l882 1475h269zM446 627h-247v590
l-172 -48v201l229 105h190v-848z" />
    <glyph glyph-name="threequarters" unicode="&#xbe;" horiz-adv-x="1982" 
d="M1954 133h-125v-139h-242v139h-395l-57 174l497 533h197v-492h125v-215zM1573 1466l-883 -1472h-268l883 1472h268zM514 621h-287q-80 0 -137 54t-57 124v116h250l-4 -67q0 -8 20 -8h139q23 0 23 8v84q0 6 -23 6h-174v219h168q18 0 19 10v70q0 6 -23 6h-119q-20 0 -20 -6
v-59h-248v114q0 72 59 125q61 51 138 51h264q76 0 137 -53t61 -123v-118q0 -72 -65 -121q76 -47 76 -121v-137q-1 -68 -60 -121t-137 -53zM1587 348v121l-127 -121h127z" />
    <glyph glyph-name="questiondown" unicode="&#xbf;" horiz-adv-x="1159" 
d="M848 762h-375v344h375v-344zM49 -88v283q0 52 33 98l35 39q18 23 53 45l53 37l62 37q43 29 61 36l92 58q37 20 37 35v73h375v-155q0 -49 -43 -97l-37 -41q-36 -36 -90 -67l-133 -90l-86 -53l-35 -29v-119q0 -27 27 -27h297q29 0 28 27v111h375v-189q0 -129 -84 -212
t-223 -87l-496 -12q-133 -4 -217 82t-84 217z" />
    <glyph glyph-name="Agrave" unicode="&#xc0;" horiz-adv-x="1366" 
d="M889 1585h-268l-373 320h436zM1362 0h-404l-79 295h-406l-82 -295h-389l467 1481h426zM784 645l-104 391l-109 -391h213z" />
    <glyph glyph-name="Aacute" unicode="&#xc1;" horiz-adv-x="1366" 
d="M1128 1905l-374 -320h-271l205 320h440zM1362 0h-404l-79 295h-406l-82 -295h-389l467 1481h426zM784 645l-104 391l-109 -391h213z" />
    <glyph glyph-name="Acircumflex" unicode="&#xc2;" horiz-adv-x="1366" 
d="M1167 1583h-327l-156 131l-158 -131h-327l340 299h290zM1362 0h-404l-79 295h-406l-82 -295h-389l467 1481h426zM784 645l-104 389l-109 -389h213z" />
    <glyph glyph-name="Atilde" unicode="&#xc3;" horiz-adv-x="1366" 
d="M1026 1862l-49 -211q-20 -88 -135 -66l-299 66l-35 -68h-168l45 211q18 88 139 66l293 -62l39 64h170zM1360 0h-404l-79 295h-406l-82 -295h-389l467 1481h426zM782 645l-104 389l-109 -389h213z" />
    <glyph glyph-name="Adieresis" unicode="&#xc4;" horiz-adv-x="1366" 
d="M1059 1591h-311v297h311v-297zM623 1591h-312v297h312v-297zM1362 0h-404l-79 295h-406l-82 -295h-389l467 1481h426zM784 645l-104 389l-109 -389h213z" />
    <glyph glyph-name="Aring" unicode="&#xc5;" horiz-adv-x="1366" 
d="M459 1894q0 33 26 60q27 27 60 26h272q35 0 62 -26t26 -58v-227q1 -34 -25 -59t-61 -25l-276 -4q-33 0 -59 25t-25 61v227zM1362 0h-404l-79 295h-406l-82 -295h-389l467 1483h426zM739 1735v88q0 8 -10 8h-100q-8 0 -8 -8v-88q0 -8 8 -9h100q10 1 10 9zM784 645
l-104 391l-109 -391h213z" />
    <glyph glyph-name="AE" unicode="&#xc6;" horiz-adv-x="2105" 
d="M2028 0h-1008v293h-488l-143 -293h-414l756 1475h1297v-349h-633v-190h497v-348h-497v-240h633v-348zM1020 641v479h-80l-235 -479h315z" />
    <glyph glyph-name="Ccedilla" unicode="&#xc7;" horiz-adv-x="1269" 
d="M1196 907h-375l-4 199q-2 27 -29 27h-290q-27 0 -27 -27v-746q0 -25 27 -24h290q29 0 29 24v201h375v-276q0 -131 -85 -215t-222 -84h-156l-33 -64h23q88 0 139 -44t51 -120v-20q0 -78 -50 -121t-136 -43h-199l-127 154h287q4 0 4 10v20q0 10 -4 11h-248l99 217h-134
q-137 0 -221 83t-84 216v899q0 131 85 216t220 85h488q135 0 221 -86t86 -215v-277z" />
    <glyph glyph-name="Egrave" unicode="&#xc8;" horiz-adv-x="1226" 
d="M852 1585h-268l-373 320h436zM1149 0h-1014v1481h1014v-351h-639v-196h510v-354h-510v-230h639v-350z" />
    <glyph glyph-name="Eacute" unicode="&#xc9;" horiz-adv-x="1226" 
d="M1092 1905l-375 -320h-271l205 320h441zM1149 0h-1014v1481h1014v-351h-639v-196h510v-354h-510v-230h639v-350z" />
    <glyph glyph-name="Ecircumflex" unicode="&#xca;" horiz-adv-x="1226" 
d="M1130 1583h-327l-156 131l-158 -131h-327l340 299h291zM1149 0h-1014v1481h1014v-351h-639v-196h510v-354h-510v-230h639v-350z" />
    <glyph glyph-name="Edieresis" unicode="&#xcb;" horiz-adv-x="1226" 
d="M1022 1591h-311v297h311v-297zM586 1591h-312v297h312v-297zM1149 0h-1014v1481h1014v-351h-639v-196h510v-354h-510v-230h639v-350z" />
    <glyph glyph-name="Igrave" unicode="&#xcc;" horiz-adv-x="645" 
d="M528 1585h-268l-371 320h435zM510 0h-375v1481h375v-1481z" />
    <glyph glyph-name="Iacute" unicode="&#xcd;" horiz-adv-x="645" 
d="M768 1905l-375 -320h-270l205 320h440zM510 0h-375v1481h375v-1481z" />
    <glyph glyph-name="Icircumflex" unicode="&#xce;" horiz-adv-x="645" 
d="M807 1583h-328l-155 131l-158 -131h-326l338 299h291zM510 0h-375v1481h375v-1481z" />
    <glyph glyph-name="Idieresis" unicode="&#xcf;" horiz-adv-x="645" 
d="M698 1591h-311v297h311v-297zM262 1591h-311v297h311v-297zM510 0h-375v1481h375v-1481z" />
    <glyph glyph-name="Eth" unicode="&#xd0;" horiz-adv-x="1310" 
d="M903 0h-788v557h-156v365h156v553l788 4q135 0 221 -85t86 -214v-881q0 -129 -86 -214t-221 -85zM836 385v713q0 27 -31 26h-316v-198h158v-365h-158v-203h316q31 0 31 27z" />
    <glyph glyph-name="Ntilde" unicode="&#xd1;" horiz-adv-x="1464" 
d="M1075 1862l-49 -211q-20 -88 -135 -66l-299 66l-39 -68h-164l45 211q18 88 139 66l293 -62l39 64h170zM1329 0h-391l-449 850v-850h-354v1481h389l451 -852v852h354v-1481z" />
    <glyph glyph-name="Ograve" unicode="&#xd2;" horiz-adv-x="1323" 
d="M868 1585h-268l-373 320h437zM918 -6h-515q-137 0 -221 84t-84 215v899q0 133 85 217t220 84h515q135 0 219 -85t84 -216v-899q0 -129 -86 -215q-78 -84 -217 -84zM848 369v745q0 25 -29 25h-317q-27 0 -27 -25v-745q0 -27 27 -27h317q29 0 29 27z" />
    <glyph glyph-name="Oacute" unicode="&#xd3;" horiz-adv-x="1323" 
d="M1108 1905l-375 -320h-270l205 320h440zM918 -6h-515q-137 0 -221 84t-84 215v899q0 133 85 217t220 84h515q135 0 219 -85t84 -216v-899q0 -129 -86 -215q-78 -84 -217 -84zM848 369v745q0 25 -29 25h-317q-27 0 -27 -25v-745q0 -27 27 -27h317q29 0 29 27z" />
    <glyph glyph-name="Ocircumflex" unicode="&#xd4;" horiz-adv-x="1323" 
d="M1147 1583h-328l-155 131l-158 -131h-328l340 299h291zM918 -6h-515q-137 0 -221 84t-84 215v899q0 131 85 216t220 85h515q137 0 217 -86q86 -86 86 -215v-899q0 -129 -86 -215q-78 -84 -217 -84zM848 369v745q0 25 -29 25h-317q-27 0 -27 -25v-745q0 -27 27 -27h317
q29 0 29 27z" />
    <glyph glyph-name="Otilde" unicode="&#xd5;" horiz-adv-x="1323" 
d="M1008 1862l-50 -211q-20 -88 -135 -66l-299 66l-39 -68h-163l45 211q18 88 139 66l293 -62l39 64h170zM918 -6h-515q-137 0 -221 84t-84 215v899q0 131 85 216t220 85h515q137 0 217 -86q86 -86 86 -215v-899q0 -129 -86 -215q-78 -84 -217 -84zM848 369v745q0 25 -29 25
h-317q-27 0 -27 -25v-745q0 -27 27 -27h317q29 0 29 27z" />
    <glyph glyph-name="Odieresis" unicode="&#xd6;" horiz-adv-x="1323" 
d="M1038 1591h-311v297h311v-297zM602 1591h-311v297h311v-297zM918 -6h-515q-137 0 -221 84t-84 215v899q0 131 85 216t220 85h515q135 0 219 -87t84 -214v-899q0 -129 -86 -215q-78 -84 -217 -84zM848 369v745q0 25 -29 25h-317q-27 0 -27 -25v-745q0 -27 27 -27h317
q29 0 29 27z" />
    <glyph glyph-name="multiply" unicode="&#xd7;" horiz-adv-x="1040" 
d="M950 479l-217 -211l-213 205l-213 -203l-217 209l213 203l-213 205l217 211l213 -205l213 203l217 -209l-213 -203z" />
    <glyph glyph-name="Oslash" unicode="&#xd8;" horiz-adv-x="1323" 
d="M918 -10h-515q-137 0 -221 83t-84 216v895q0 131 85 215t220 84h515q135 0 219 -85t84 -214v-895q0 -131 -83 -215t-220 -84zM502 1135q-27 0 -27 -27v-410l195 437h-168zM848 367v405l-195 -432h166q29 0 29 27z" />
    <glyph glyph-name="Ugrave" unicode="&#xd9;" horiz-adv-x="1325" 
d="M872 1585h-268l-373 320h437zM909 -8h-491q-137 0 -221 84t-84 215v1190h374v-1112q0 -27 27 -27h295q29 0 29 27v1112h372l7 -1190q-1 -129 -86 -214t-222 -85z" />
    <glyph glyph-name="Uacute" unicode="&#xda;" horiz-adv-x="1325" 
d="M1112 1905l-375 -320h-270l205 320h440zM909 -8h-491q-137 0 -221 84t-84 215v1190h374v-1112q0 -27 27 -27h295q29 0 29 27v1112h372l7 -1190q-1 -129 -86 -214t-222 -85z" />
    <glyph glyph-name="Ucircumflex" unicode="&#xdb;" horiz-adv-x="1325" 
d="M1151 1583h-328l-155 131l-158 -131h-328l340 299h291zM909 -8h-491q-137 0 -221 84t-84 215v1190h374v-1112q0 -27 27 -27h295q29 0 29 27v1112h372l7 -1190q-1 -129 -86 -214t-222 -85z" />
    <glyph glyph-name="Udieresis" unicode="&#xdc;" horiz-adv-x="1325" 
d="M1042 1591h-311v297h311v-297zM606 1591h-311v297h311v-297zM909 -8h-491q-137 0 -221 84t-84 215v1190h374v-1112q0 -27 27 -27h295q29 0 29 27v1112h372l7 -1190q-1 -129 -86 -214t-222 -85z" />
    <glyph glyph-name="Yacute" unicode="&#xdd;" horiz-adv-x="1226" 
d="M1061 1905l-375 -320h-270l205 320h440zM803 0h-375v502l-446 979h409l223 -555l224 555h409l-444 -979v-502z" />
    <glyph glyph-name="Thorn" unicode="&#xde;" horiz-adv-x="1277" 
d="M924 252h-414v-252h-375v1475h375v-240h414q135 0 221 -82t86 -213v-387q0 -129 -87 -215t-220 -86zM854 627v235q0 25 -29 25h-315v-285h315q29 0 29 25z" />
    <glyph glyph-name="germandbls" unicode="&#xdf;" horiz-adv-x="1163" 
d="M795 0h-258v311h176q18 0 18 13v262q0 16 -20 16h-189v301h178q14 0 15 15v241q0 12 -19 12h-217q-16 0 -16 -12v-1159h-361v1186q0 125 88 211q90 86 213 86h375q123 0 213 -86t90 -211v-228q0 -129 -112 -206q129 -76 129 -205v-250q0 -125 -90 -211t-213 -86z" />
    <glyph glyph-name="agrave" unicode="&#xe0;" horiz-adv-x="1124" 
d="M756 1227h-269l-372 319h436zM662 0v104q-10 -12 -25 -24l-45 -39q-53 -47 -152 -47h-80q-129 0 -214 84t-85 211v121q0 137 81 217t220 80h48q135 0 256 -31v137q0 10 -17 10h-176q-16 0 -16 -10v-78h-361v82q0 123 92 214t222 91l299 -2q129 0 221 -91t92 -214v-815
h-360zM662 455h-234q-14 0 -14 -13v-114q0 -16 20 -17h39q85 1 189 56v88z" />
    <glyph glyph-name="aacute" unicode="&#xe1;" horiz-adv-x="1124" 
d="M995 1546l-374 -319h-271l205 319h440zM662 0v104q-10 -12 -25 -24l-45 -39q-53 -47 -152 -47h-80q-129 0 -214 84t-85 211v121q0 137 81 217t220 80h48q135 0 256 -31v137q0 10 -17 10h-176q-16 0 -16 -10v-78h-361v82q0 123 92 214t222 91l299 -2q129 0 221 -91
t92 -214v-815h-360zM662 455h-234q-14 0 -14 -13v-114q0 -16 20 -17h39q85 1 189 56v88z" />
    <glyph glyph-name="acircumflex" unicode="&#xe2;" horiz-adv-x="1124" 
d="M1034 1227h-327l-156 129l-158 -129h-327l340 297h290zM662 0v104q-10 -12 -25 -24l-45 -41q-53 -45 -152 -45h-80q-129 0 -214 84t-85 211v121q0 135 81 216t220 81h48q135 0 256 -31v135q0 12 -17 12h-176q-16 0 -16 -12v-76h-361v80q0 125 94 216t220 91l299 -2
q125 0 219 -91t94 -216v-813h-360zM662 453h-234q-14 0 -14 -11v-114q0 -16 20 -17h39q85 1 189 56v86z" />
    <glyph glyph-name="atilde" unicode="&#xe3;" horiz-adv-x="1124" 
d="M895 1503l-49 -211q-20 -90 -135 -63l-299 63l-39 -65h-164l45 209q18 88 139 65l293 -59l39 61h170zM662 0v104q-10 -12 -25 -24l-45 -41q-53 -45 -152 -45h-80q-129 0 -214 84t-85 211v121q0 135 81 216t220 81h48q135 0 256 -31v135q0 12 -17 12h-176q-16 0 -16 -12
v-76h-361v80q0 125 94 216t220 91l299 -2q125 0 219 -91t94 -216v-813h-360zM662 453h-234q-14 0 -14 -11v-114q0 -16 20 -17h39q85 1 189 56v86z" />
    <glyph glyph-name="adieresis" unicode="&#xe4;" horiz-adv-x="1124" 
d="M926 1235h-312v295h312v-295zM489 1235h-311v295h311v-295zM662 0v104q-10 -12 -25 -24l-45 -39q-53 -47 -152 -47h-80q-129 0 -214 84t-85 211v121q0 135 81 216t220 81h48q135 0 256 -31v137q0 10 -17 10h-176q-16 0 -16 -10v-78h-361v80q0 125 94 216t220 91l299 -2
q125 0 219 -91t94 -216v-813h-360zM662 455h-234q-14 0 -14 -13v-114q0 -16 20 -17h39q85 1 189 56v88z" />
    <glyph glyph-name="aring" unicode="&#xe5;" horiz-adv-x="1124" 
d="M326 1536q0 34 26 60t60 26h272q36 0 62 -27t26 -57v-227q0 -33 -25 -58t-61 -24l-276 -4q-31 -3 -58 23t-26 61v227zM662 0v104l-16 -16q-5 -4 -9 -8l-45 -39q-53 -47 -152 -47h-80q-129 0 -214 84t-85 211v123q0 135 81 215t220 80h48q135 0 256 -31v137q0 10 -17 10
h-176q-16 0 -16 -10v-78h-361v82q0 127 94 215q92 92 220 92l299 -2q131 -4 222 -94t91 -213v-815h-360zM606 1378v86q0 8 -10 9h-100q-8 0 -9 -9v-86q0 -10 9 -10h100q10 0 10 10zM662 455h-234q-14 0 -14 -13v-114q0 -16 20 -17h39q78 1 189 56v88z" />
    <glyph glyph-name="ae" unicode="&#xe6;" horiz-adv-x="1697" 
d="M1634 422h-602l-2 -100q0 -16 23 -17h200q23 0 23 17v61h356v-98q0 -123 -87 -208t-216 -85h-352q-100 0 -172 51q-68 45 -100 115l-50 -62q-82 -102 -192 -102h-103q-129 0 -214 84t-85 209v104q0 135 81 215t220 80h41q141 0 275 -33v107q0 33 -39 33h-150
q-37 0 -36 -33v-41h-357v90q0 125 94 213q92 92 220 92h311q61 0 127 -35q70 35 131 35h352q127 0 215 -86t88 -209v-397zM1276 674v106q0 16 -23 17h-200q-20 0 -21 -17v-106h244zM676 436h-248q-14 0 -14 -10v-100q0 -16 20 -17h66q66 0 141 35l35 10v82z" />
    <glyph glyph-name="ccedilla" unicode="&#xe7;" horiz-adv-x="1093" 
d="M1026 657h-360l-9 144q-2 14 -18 14h-197q-16 0 -16 -12v-508q0 -12 16 -12h197q18 0 18 12v145h361v-159q0 -125 -86 -210t-215 -85h-82l-33 -62h23q84 0 137 -43t53 -121v-20q0 -78 -50 -121t-136 -43h-199l-127 154h287q4 0 4 10v20q0 10 -4 11h-248l98 215h-67
q-129 0 -214 84t-85 211v536q0 125 88 211q90 86 213 86h348q123 0 213 -86t90 -211v-160z" />
    <glyph glyph-name="egrave" unicode="&#xe8;" horiz-adv-x="1103" 
d="M762 1229h-268l-373 319h436zM1036 444h-604l-2 -139q0 -12 19 -12h206q16 0 17 12v80h362v-96q0 -125 -87 -210t-216 -85h-358q-129 0 -214 84t-85 211v536q0 125 87 211t214 86h358q127 0 215 -86t88 -211v-381zM672 688v121q0 12 -17 12h-206q-16 0 -17 -12v-121h240z
" />
    <glyph glyph-name="eacute" unicode="&#xe9;" horiz-adv-x="1103" 
d="M999 1548l-374 -319h-271l205 319h440zM1036 444h-604l-2 -139q0 -12 19 -12h206q16 0 17 12v80h362v-96q0 -125 -87 -210t-216 -85h-358q-129 0 -214 84t-85 211v536q0 125 87 211t214 86h358q127 0 215 -86t88 -211v-381zM672 688v121q0 12 -17 12h-206q-16 0 -17 -12
v-121h240z" />
    <glyph glyph-name="ecircumflex" unicode="&#xea;" horiz-adv-x="1103" 
d="M1040 1229h-327l-156 129l-158 -129h-327l340 297h290zM1036 444h-604l-2 -139q0 -12 19 -12h206q16 0 17 12v80h362v-96q0 -125 -87 -210t-216 -85h-358q-129 0 -214 84t-85 211v536q0 125 88 211q90 86 213 86h358q123 0 213 -86t90 -211v-381zM672 688v121
q0 12 -17 12h-206q-16 0 -17 -12v-121h240z" />
    <glyph glyph-name="edieresis" unicode="&#xeb;" horiz-adv-x="1103" 
d="M930 1237h-312v295h312v-295zM494 1237h-312v295h312v-295zM1036 444h-604l-2 -139q0 -12 19 -12h206q16 0 17 12v80h362v-96q0 -125 -87 -210t-216 -85h-358q-129 0 -214 84t-85 211v536q0 125 88 211q90 86 213 86h358q123 0 213 -86t90 -211v-381zM672 688v121
q0 12 -17 12h-206q-16 0 -17 -12v-121h240z" />
    <glyph glyph-name="igrave" unicode="&#xec;" horiz-adv-x="593" 
d="M508 1229h-268l-371 319h434zM479 0h-362v1114h362v-1114z" />
    <glyph glyph-name="iacute" unicode="&#xed;" horiz-adv-x="600" 
d="M719 1548l-375 -319h-270l205 319h440zM479 0h-360v1114h360v-1114z" />
    <glyph glyph-name="icircumflex" unicode="&#xee;" horiz-adv-x="600" 
d="M780 1229h-327l-156 129l-158 -129h-325l338 297h290zM481 0h-362v1114h362v-1114z" />
    <glyph glyph-name="idieresis" unicode="&#xef;" horiz-adv-x="602" 
d="M676 1227h-311v295h311v-295zM240 1227h-312v295h312v-295zM481 0h-362v1114h362v-1114z" />
    <glyph glyph-name="eth" unicode="&#xf0;" horiz-adv-x="1126" 
d="M694 1030q0 55 -6 86q-4 14 -29 23l-47 18l-57 -59h-315l143 145l-147 55v222l342 -78l71 74h316l-148 -144q127 -53 179 -131t53 -211v-743q0 -125 -86 -210t-215 -85h-377q-129 0 -214 84t-85 211v491q0 123 87 209t214 86h78q130 0 243 -119v76zM686 324v372l-12 6
q-74 49 -191 50h-37q-20 0 -20 -19v-409q0 -10 14 -11h228q18 1 18 11z" />
    <glyph glyph-name="ntilde" unicode="&#xf1;" horiz-adv-x="1173" 
d="M952 1505l-49 -211q-20 -90 -135 -63l-299 63l-39 -65h-164l45 209q18 88 140 65l292 -59l39 61h170zM471 1114v-110q113 119 242 118h63q123 0 213 -86t90 -211v-825h-360l-2 784q-2 16 -23 17h-22q-100 0 -191 -51l-10 -5v-745h-360v1114h360z" />
    <glyph glyph-name="ograve" unicode="&#xf2;" horiz-adv-x="1124" 
d="M766 1229h-268l-373 319h436zM750 -6h-377q-129 0 -214 84t-85 211v536q0 125 87 211t214 86h373q127 0 215 -86t88 -211v-536q0 -125 -86 -210t-215 -85zM688 303v510q0 10 -16 10h-228q-14 0 -14 -10v-510q0 -12 14 -12h228q16 0 16 12z" />
    <glyph glyph-name="oacute" unicode="&#xf3;" horiz-adv-x="1124" 
d="M1006 1548l-375 -319h-271l205 319h441zM750 -6h-377q-129 0 -214 84t-85 211v536q0 125 87 211t214 86h373q127 0 215 -86t88 -211v-536q0 -125 -86 -210t-215 -85zM688 303v510q0 10 -16 10h-228q-14 0 -14 -10v-510q0 -12 14 -12h228q16 0 16 12z" />
    <glyph glyph-name="ocircumflex" unicode="&#xf4;" horiz-adv-x="1124" 
d="M1044 1229h-327l-156 129l-158 -129h-327l340 297h291zM750 -6h-377q-129 0 -214 84t-85 211v536q0 125 88 211q90 86 213 86h373q123 0 213 -86t90 -211v-536q0 -125 -86 -210t-215 -85zM688 301v510q0 12 -16 12h-228q-14 0 -14 -12v-510q0 -10 14 -10h228q16 0 16 10z
" />
    <glyph glyph-name="otilde" unicode="&#xf5;" horiz-adv-x="1124" 
d="M909 1505l-49 -211q-20 -90 -135 -63l-299 63l-39 -65h-164l45 209q18 88 140 65l292 -59l39 61h170zM752 -6h-377q-129 0 -214 84t-85 211v536q0 127 88 209q88 88 213 88h373q125 0 213 -88q90 -84 90 -209v-536q0 -125 -86 -210t-215 -85zM690 301v510q0 12 -16 12
h-228q-14 0 -14 -12v-510q0 -10 14 -10h228q16 0 16 10z" />
    <glyph glyph-name="odieresis" unicode="&#xf6;" horiz-adv-x="1124" 
d="M936 1237h-311v295h311v-295zM500 1237h-312v295h312v-295zM750 -6h-377q-129 0 -214 84t-85 211v536q0 125 88 211q90 86 213 86h373q123 0 213 -86t90 -211v-536q0 -125 -86 -210t-215 -85zM688 301v512q0 10 -16 10h-228q-14 0 -14 -10v-512q0 -10 14 -10h228
q16 0 16 10z" />
    <glyph glyph-name="divide" unicode="&#xf7;" horiz-adv-x="1040" 
d="M688 1034h-332v316h332v-316zM1004 586h-965v344h965v-344zM688 166h-332v315h332v-315z" />
    <glyph glyph-name="oslash" unicode="&#xf8;" horiz-adv-x="1124" 
d="M750 -6h-377q-129 0 -214 84t-85 209v532q0 123 87 209t214 86h373q127 0 215 -86t88 -209v-532q0 -123 -86 -208t-215 -85zM444 817q-14 0 -14 -10v-258l119 268h-105zM688 299v260l-121 -270h105q16 0 16 10z" />
    <glyph glyph-name="ugrave" unicode="&#xf9;" horiz-adv-x="1173" 
d="M788 1229h-268l-373 319h437zM504 313q97 0 201 56v745h360v-1114h-360v111q-115 -117 -244 -117h-64q-129 0 -214 84t-85 211v825h359l4 -784q0 -16 20 -17h23z" />
    <glyph glyph-name="uacute" unicode="&#xfa;" horiz-adv-x="1173" 
d="M1028 1548l-375 -319h-270l205 319h440zM504 313q97 0 201 56v745h360v-1114h-360v111q-115 -117 -244 -117h-64q-129 0 -214 84t-85 211v825h359l4 -784q0 -16 20 -17h23z" />
    <glyph glyph-name="ucircumflex" unicode="&#xfb;" horiz-adv-x="1173" 
d="M1067 1229h-328l-155 129l-158 -129h-328l340 297h291zM504 313q97 0 201 56v745h360v-1114h-360v111q-115 -117 -244 -117h-64q-129 0 -214 84t-85 211v825h359l4 -784q0 -16 20 -17h23z" />
    <glyph glyph-name="udieresis" unicode="&#xfc;" horiz-adv-x="1173" 
d="M958 1237h-311v295h311v-295zM522 1237h-311v295h311v-295zM504 313q97 0 201 56v745h360v-1114h-360v111q-115 -117 -244 -117h-64q-129 0 -214 84t-85 211v825h359l4 -784q0 -16 20 -17h23z" />
    <glyph glyph-name="yacute" unicode="&#xfd;" horiz-adv-x="1136" 
d="M1020 1548l-375 -321h-270l205 321h440zM1133 1112l-537 -1507h-326l140 403l-406 1104h356l203 -653l225 653h345z" />
    <glyph glyph-name="thorn" unicode="&#xfe;" horiz-adv-x="1161" 
d="M469 1554v-553q111 119 242 119h75q127 0 215 -86t89 -211v-540q0 -123 -88 -209t-214 -86h-77q-131 0 -242 116v-499h-360v1949h360zM727 326v454q0 18 -22 19h-35q-96 0 -189 -51l-10 -7v-376l10 -7q94 -49 189 -49h35q22 1 22 17z" />
    <glyph glyph-name="ydieresis" unicode="&#xff;" horiz-adv-x="1136" 
d="M950 1235h-311v297h311v-297zM514 1235h-311v297h311v-297zM1133 1112l-537 -1507h-326l140 403l-406 1104h356l203 -653l225 653h345z" />
    <glyph glyph-name="Amacron" unicode="&#x100;" horiz-adv-x="1366" 
d="M991 1604h-610v282h610v-282zM1362 0h-404l-79 295h-406l-82 -295h-389l467 1481h426zM784 645l-104 389l-109 -389h213z" />
    <glyph glyph-name="amacron" unicode="&#x101;" horiz-adv-x="1124" 
d="M858 1247h-610v281h610v-281zM662 0v104q-10 -12 -25 -24l-45 -41q-53 -45 -152 -45h-80q-129 0 -214 84t-85 211v121q0 135 81 216t220 81h48q135 0 256 -31v135q0 12 -17 12h-176q-16 0 -16 -12v-76h-361v80q0 125 94 216t220 91l299 -2q125 0 219 -91t94 -216v-813
h-360zM662 455h-234q-14 0 -14 -13v-114q0 -16 20 -17h39q85 1 189 56v88z" />
    <glyph glyph-name="Abreve" unicode="&#x102;" horiz-adv-x="1366" 
d="M410 1726v172h211v-94q0 -27 26 -26h76q23 0 22 28v95h211v-172q0 -58 -43 -101t-104 -43l-254 -2q-57 -2 -102 41q-43 43 -43 102zM1360 0h-404l-79 293h-406l-82 -293h-389l467 1479h426zM782 643l-104 391l-109 -391h213z" />
    <glyph glyph-name="abreve" unicode="&#x103;" horiz-adv-x="1124" 
d="M674 1225h-252q-58 0 -102 42t-44 101v172h211v-94q0 -27 27 -27h76q23 0 22 29v94h211l-4 -174q0 -59 -43 -101t-102 -42zM662 0v104q-10 -12 -25 -24l-45 -39q-53 -47 -152 -47h-80q-129 0 -214 84t-85 211v121q0 137 81 217t220 80h48q135 0 256 -31v137q0 10 -17 10
h-176q-16 0 -16 -10v-78h-361v82q0 123 92 214t222 91l299 -2q129 0 221 -91t92 -214v-815h-360zM662 455h-234q-14 0 -14 -13v-114q0 -16 20 -17h39q85 1 189 56v88z" />
    <glyph glyph-name="Aogonek" unicode="&#x104;" horiz-adv-x="1366" 
d="M1083 -170h131v-197h-221q-106 0 -141 66q-41 68 12 154l90 155l-75 281h-406l-82 -295h-389l467 1481h426l467 -1481h-191l-92 -158q-2 -6 4 -6zM788 639l-104 389l-109 -389h213z" />
    <glyph glyph-name="aogonek" unicode="&#x105;" horiz-adv-x="1124" 
d="M440 -14h-80q-127 0 -213 85t-86 210v122q0 135 81 215t220 80h48q135 0 256 -30v137q0 10 -17 10h-176q-16 0 -16 -10v-78h-361v82q0 123 94 214t220 91h305q125 0 219 -91t94 -214v-817h-149l-101 -160q-2 -4 6 -4h131v-197h-221q-106 0 -141 66q-39 68 10 153l99 164
v84q-6 -8 -25 -26l-45 -39q-53 -47 -152 -47zM664 446h-232q-14 0 -14 -12v-112q0 -18 20 -19h39q83 0 187 57v86z" />
    <glyph glyph-name="Cacute" unicode="&#x106;" horiz-adv-x="1269" 
d="M1096 1905l-375 -320h-270l204 320h441zM891 -6h-488q-137 0 -221 84t-84 215v899q0 133 85 217t220 84h488q135 0 221 -85t86 -216v-277h-375v201q0 25 -28 25h-291q-27 0 -27 -25v-745q0 -27 27 -27h291q29 0 28 27v198h375v-276q0 -129 -85 -214t-222 -85z" />
    <glyph glyph-name="cacute" unicode="&#x107;" horiz-adv-x="1093" 
d="M991 1548l-375 -319h-270l205 319h440zM723 -6h-352q-129 0 -214 84t-85 211v536q0 125 87 211t214 86h348q127 0 215 -86t88 -211v-157h-360v143q0 12 -19 12h-196q-16 0 -17 -12v-506q0 -8 2 -11t15 -3h196q18 0 19 14v144h360v-160q0 -125 -86 -210t-215 -85z" />
    <glyph glyph-name="Cdotaccent" unicode="&#x10a;" horiz-adv-x="1269" 
d="M807 1589h-309v301h309v-301zM891 -6h-488q-137 0 -221 84t-84 215v899q0 133 85 217t220 84h488q135 0 221 -85t86 -216v-277h-375v201q0 25 -28 25h-291q-27 0 -27 -25v-745q0 -27 27 -27h291q29 0 28 27v198h375v-276q0 -129 -85 -214t-222 -85z" />
    <glyph glyph-name="cdotaccent" unicode="&#x10b;" horiz-adv-x="1093" 
d="M702 1235h-309v299h309v-299zM723 -6h-352q-129 0 -214 84t-85 211v536q0 125 88 211q90 86 213 86h348q123 0 213 -86t90 -211v-159h-360v145q0 12 -19 12h-196q-16 0 -17 -12v-508q0 -12 17 -12h196q18 0 19 12v146h360v-160q0 -125 -86 -210t-215 -85z" />
    <glyph glyph-name="Ccaron" unicode="&#x10c;" horiz-adv-x="1269" 
d="M1135 1882l-338 -299h-291l-340 299h328l157 -129l156 129h328zM891 -6h-488q-137 0 -221 84t-84 215v899q0 131 85 216t220 85h488q135 0 221 -86t86 -215v-277h-375v201q0 25 -28 25h-291q-27 0 -27 -25v-745q0 -27 27 -27h291q29 0 28 27v198h375v-276
q0 -129 -85 -214t-222 -85z" />
    <glyph glyph-name="ccaron" unicode="&#x10d;" horiz-adv-x="1093" 
d="M1030 1526l-338 -297h-291l-340 297h328l158 -127l155 127h328zM723 -6h-352q-129 0 -214 84t-85 211v536q0 125 88 211q90 86 213 86h348q123 0 213 -86t90 -211v-159h-360v145q0 12 -19 12h-196q-16 0 -17 -12v-508q0 -12 17 -12h196q18 0 19 12v146h360v-160
q0 -125 -86 -210t-215 -85z" />
    <glyph glyph-name="Dcaron" unicode="&#x10e;" horiz-adv-x="1343" 
d="M1153 1886l-338 -299h-291l-340 299h328l158 -129l155 129h328zM938 0h-803v1481l803 4q135 0 219 -86t84 -215v-883q0 -129 -86 -215q-80 -86 -217 -86zM868 379v731q0 25 -28 25h-330v-781h330q28 0 28 25z" />
    <glyph glyph-name="dcaron" unicode="&#x10f;" horiz-adv-x="1161" 
d="M1206 1198v356h353v-249q0 -74 -111 -207l-145 -176h-158l170 276h-109zM694 1554h361v-1554h-363v111q-115 -117 -243 -117h-78q-129 0 -214 84t-85 211v536q0 125 87 211t214 86h78q128 1 243 -118v550zM485 801h-34q-20 0 -21 -17v-454q0 -16 21 -17h34q125 0 205 56
v376q-80 56 -205 56z" />
    <glyph glyph-name="Dcroat" unicode="&#x110;" horiz-adv-x="1310" 
d="M903 0h-788v557h-156v365h156v553l788 4q135 0 221 -85t86 -214v-881q0 -129 -86 -214t-221 -85zM836 385v713q0 27 -31 26h-316v-198h158v-365h-158v-203h316q31 0 31 27z" />
    <glyph glyph-name="dcroat" unicode="&#x111;" horiz-adv-x="1161" 
d="M694 1118h-172v281h172v155h361v-155h78v-281h-80v-1118h-361v111q-115 -117 -243 -117h-78q-129 0 -214 84t-85 211v536q0 125 87 211t214 86h78q128 1 243 -118v114zM485 801h-34q-20 0 -21 -17v-454q0 -16 21 -17h34q125 0 205 56v376q-80 56 -205 56z" />
    <glyph glyph-name="Emacron" unicode="&#x112;" horiz-adv-x="1226" 
d="M954 1604h-610v282h610v-282zM1149 0h-1014v1481h1014v-351h-639v-196h510v-354h-510v-230h639v-350z" />
    <glyph glyph-name="emacron" unicode="&#x113;" horiz-adv-x="1103" 
d="M864 1249h-610v281h610v-281zM1036 444h-604l-2 -139q0 -12 19 -12h206q16 0 17 12v80h362v-96q0 -125 -87 -210t-216 -85h-358q-129 0 -214 84t-85 211v536q0 125 88 211q90 86 213 86h358q123 0 213 -86t90 -211v-381zM672 688v121q0 12 -17 12h-206q-16 0 -17 -12
v-121h240z" />
    <glyph glyph-name="Edotaccent" unicode="&#x116;" horiz-adv-x="1226" 
d="M803 1589h-309v301h309v-301zM1149 0h-1014v1481h1014v-351h-639v-196h510v-354h-510v-230h639v-350z" />
    <glyph glyph-name="edotaccent" unicode="&#x117;" horiz-adv-x="1103" 
d="M711 1235h-310v299h310v-299zM1036 444h-604l-2 -139q0 -12 19 -12h206q16 0 17 12v80h362v-96q0 -125 -87 -210t-216 -85h-358q-129 0 -214 84t-85 211v536q0 125 88 211q90 86 213 86h358q123 0 213 -86t90 -211v-381zM672 688v121q0 12 -17 12h-206q-16 0 -17 -12
v-121h240z" />
    <glyph glyph-name="Eogonek" unicode="&#x118;" horiz-adv-x="1226" 
d="M1149 344v-319h12l-114 -191q-4 -4 4 -4h129l6 -197h-221q-106 0 -142 66q-41 68 13 154l82 141h-783v1481h1014v-351h-639v-198h510v-353h-510v-229h639z" />
    <glyph glyph-name="eogonek" unicode="&#x119;" horiz-adv-x="1103" 
d="M735 -14h-49l-92 -152q-4 -4 4 -4h131v-197h-221q-106 0 -141 66q-39 68 12 154l78 133h-84q-127 0 -213 85t-86 210v536q0 125 88 211q90 86 213 86h358q123 0 213 -86t90 -211v-381h-602v-137q4 -14 19 -14h206q16 0 17 14v78h362v-96q0 -123 -88 -209t-215 -86z
M676 680v121q0 12 -17 12h-206q-16 0 -17 -12v-121h240z" />
    <glyph glyph-name="Ecaron" unicode="&#x11a;" horiz-adv-x="1226" 
d="M1130 1882l-337 -299h-291l-340 299h327l158 -129l156 129h327zM1149 0h-1014v1481h1014v-351h-639v-196h510v-354h-510v-230h639v-350z" />
    <glyph glyph-name="ecaron" unicode="&#x11b;" horiz-adv-x="1103" 
d="M1040 1526l-338 -297h-290l-340 297h327l158 -127l156 127h327zM1036 444h-604l-2 -139q0 -12 19 -12h206q16 0 17 12v80h362v-96q0 -125 -87 -210t-216 -85h-358q-129 0 -214 84t-85 211v536q0 125 88 211q90 86 213 86h358q123 0 213 -86t90 -211v-381zM672 688v121
q0 12 -17 12h-206q-16 0 -17 -12v-121h240z" />
    <glyph glyph-name="Gbreve" unicode="&#x11e;" 
d="M784 1583h-252q-61 0 -103 42t-42 101v172h211v-94q0 -27 27 -26h75q23 0 23 28v95h211l-4 -175q0 -59 -42 -101t-104 -42zM909 -8h-506q-137 0 -221 84t-84 215v899q0 133 85 217t220 84h506q135 0 221 -85t87 -216v-225h-375v149q0 25 -31 25h-309q-27 0 -27 -25v-743
q0 -29 27 -29h309q31 0 31 27v157h-236v334h611v-569q-1 -129 -86 -214t-222 -85z" />
    <glyph glyph-name="gbreve" unicode="&#x11f;" horiz-adv-x="1161" 
d="M686 1225h-252q-59 0 -102 42t-43 103v172h211v-94q0 -27 26 -27h76q23 0 23 29v94h211l-5 -174q0 -59 -43 -102t-102 -43zM694 1112h361l-4 -1218q-4 -127 -90 -212t-211 -85h-338q-125 0 -213 88q-88 82 -88 209v98h346v-74q0 -33 37 -33h159q39 0 39 33v262
q-115 -121 -243 -121h-78q-125 0 -212 86t-87 213v465q0 125 87 211t214 86h78q128 0 243 -119v111zM483 385q136 0 205 55v303l-10 5q-82 51 -195 51h-34q-20 0 -21 -19v-379q0 -16 21 -16h34z" />
    <glyph glyph-name="Gdotaccent" unicode="&#x120;" 
d="M817 1589h-309v301h309v-301zM909 -8h-506q-137 0 -221 84t-84 215v899q0 133 85 217t220 84h506q135 0 221 -85t87 -216v-225h-375v149q0 25 -31 25h-309q-27 0 -27 -25v-743q0 -29 27 -29h309q31 0 31 27v157h-236v334h611v-569q-1 -129 -86 -214t-222 -85z" />
    <glyph glyph-name="gdotaccent" unicode="&#x121;" horiz-adv-x="1161" 
d="M719 1233h-309v301h309v-301zM694 1112h361l-4 -1218q-4 -127 -90 -212t-211 -85h-338q-125 0 -213 88q-88 82 -88 209v98h346v-74q0 -33 37 -33h159q39 0 39 33v262q-115 -121 -243 -121h-78q-125 0 -212 86t-87 213v465q0 125 87 211t214 86h78q128 0 243 -119v111z
M449 799q-20 0 -21 -19v-379q0 -16 21 -16h34q136 0 205 55v301q-83 58 -205 58h-34z" />
    <glyph glyph-name="Gcommaaccent" unicode="&#x122;" 
d="M909 -18h-506q-137 0 -221 84t-84 217v901q0 131 85 216t220 85h506q135 0 221 -86t87 -215v-226h-375v148q0 25 -31 24h-309q-27 0 -27 -24v-746q0 -27 27 -26h309q31 0 31 24v158h-236v336h611v-569q-1 -131 -86 -216t-222 -85zM483 -477v358h353v-252q0 -74 -111 -207
l-145 -178h-158l170 279h-109z" />
    <glyph glyph-name="gcommaaccent" unicode="&#x123;" horiz-adv-x="1161" 
d="M743 1597v-358h-352v252q0 76 109 207l145 178h158l-170 -279h110zM694 1116h361l-4 -1220q-4 -129 -90 -214t-211 -85h-338q-125 0 -213 87t-88 212v96h346v-74q0 -33 37 -33h159q39 0 39 33v262q-115 -119 -243 -119h-78q-125 1 -212 87t-87 210v467q0 125 88 212
t213 87h78q128 1 243 -118v110zM449 801q-20 0 -21 -17v-381q0 -16 21 -16h34q136 0 205 55v303q-80 56 -205 56h-34z" />
    <glyph glyph-name="Hbar" unicode="&#x126;" horiz-adv-x="1439" 
d="M1462 1010h-168v-1010h-374v588h-398v-588h-375v1010h-163v260h163v205h375v-205h398v205h374v-205h168v-260zM920 936v74h-398v-74h398z" />
    <glyph glyph-name="hbar" unicode="&#x127;" horiz-adv-x="1167" 
d="M469 1167v-163q113 119 242 118h61q127 0 215 -86t88 -209v-827h-360v784q0 16 -23 17h-22q-98 0 -191 -49l-10 -7v-745h-360v1167h-121v240h121v147h360v-147h246v-240h-246z" />
    <glyph glyph-name="Imacron" unicode="&#x12a;" horiz-adv-x="645" 
d="M631 1604h-611v282h611v-282zM510 0h-375v1481h375v-1481z" />
    <glyph glyph-name="imacron" unicode="&#x12b;" horiz-adv-x="591" 
d="M604 1223h-612v280h612v-280zM481 0h-362v1114h362v-1114z" />
    <glyph glyph-name="Iogonek" unicode="&#x12e;" horiz-adv-x="645" 
d="M543 -6h-60l-92 -158q-2 -6 4 -6h131v-197h-221q-106 0 -141 66q-41 68 12 154l82 141h-90v1481h375v-1481z" />
    <glyph glyph-name="iogonek" unicode="&#x12f;" horiz-adv-x="571" 
d="M508 1233h-377v321h377v-321zM504 -6h-148l-96 -158q-2 -6 4 -6h131v-197h-221q-106 0 -141 66q-39 68 12 156l94 159v1098h365v-1118z" />
    <glyph glyph-name="Idotaccent" unicode="&#x130;" horiz-adv-x="645" 
d="M479 1589h-309v301h309v-301zM510 0h-375v1481h375v-1481z" />
    <glyph glyph-name="IJ" unicode="&#x132;" horiz-adv-x="1847" 
d="M1432 -8h-453q-137 0 -221 83t-84 214v364h375v-286q0 -27 26 -27h256q29 0 29 27v1108h375v-1186q0 -129 -83 -213t-220 -84zM510 0h-375v1475h375v-1475z" />
    <glyph glyph-name="ij" unicode="&#x133;" horiz-adv-x="1191" 
d="M1094 1233h-381v321h381v-321zM475 1233h-377v321h377v-321zM784 -414h-270v314h195q16 0 16 12v1200h362l-2 -1231q-4 -127 -88 -211t-213 -84zM467 -6h-361v1118h361v-1118z" />
    <glyph glyph-name="Kcommaaccent" unicode="&#x136;" horiz-adv-x="1359" 
d="M504 -10h-369v1485h369v-588l411 588h439l-445 -582l455 -903h-420l-287 575l-153 -203v-372zM571 -477v358h353v-252q0 -74 -111 -207l-145 -178h-158l170 279h-109z" />
    <glyph glyph-name="kcommaaccent" unicode="&#x137;" horiz-adv-x="1210" 
d="M467 -10h-356v1485h356v-793l305 428h442l-393 -457l404 -663h-387l-248 395l-123 -145v-250zM459 -477v358h352v-252q0 -74 -111 -207l-145 -178h-158l170 279h-108z" />
    <glyph glyph-name="Lacute" unicode="&#x139;" horiz-adv-x="1130" 
d="M768 1905l-375 -320h-270l205 320h440zM1098 0h-963v1481h375v-1131h588v-350z" />
    <glyph glyph-name="lacute" unicode="&#x13a;" horiz-adv-x="561" 
d="M727 1985l-375 -322h-270l205 322h440zM463 0h-363v1561h363v-1561z" />
    <glyph glyph-name="Lcommaaccent" unicode="&#x13b;" horiz-adv-x="1130" 
d="M1098 -10h-963v1485h375v-1133h588v-352zM434 -477v358h352v-252q1 -74 -110 -207l-146 -178h-157l170 279h-109z" />
    <glyph glyph-name="lcommaaccent" unicode="&#x13c;" horiz-adv-x="561" 
d="M463 -10h-363v1564h363v-1564zM104 -477v358h353v-252q0 -74 -111 -207l-145 -178h-158l170 279h-109z" />
    <glyph glyph-name="Lcaron" unicode="&#x13d;" horiz-adv-x="1130" 
d="M657 1198v356h353v-249q0 -74 -111 -207l-145 -176h-158l170 276h-109zM1098 0h-963v1477h375v-1127h588v-350z" />
    <glyph glyph-name="lcaron" unicode="&#x13e;" horiz-adv-x="561" 
d="M633 1198v356h352v-249q0 -74 -111 -207l-145 -176h-158l170 276h-108zM463 0h-363v1554h363v-1554z" />
    <glyph glyph-name="Ldot" unicode="&#x13f;" horiz-adv-x="1130" 
d="M1036 629h-352v354h352v-354zM1098 0h-963v1475h375v-1127h588v-348z" />
    <glyph glyph-name="ldot" unicode="&#x140;" horiz-adv-x="927" 
d="M920 606h-353v357h353v-357zM463 0h-363v1554h363v-1554z" />
    <glyph glyph-name="Lslash" unicode="&#x141;" horiz-adv-x="1142" 
d="M1098 0h-963v573l-129 -49v342l129 47v562h375v-422l283 104v-342l-283 -104v-357h588v-354z" />
    <glyph glyph-name="lslash" unicode="&#x142;" horiz-adv-x="745" 
d="M571 0h-362v604l-201 -82v344l201 80v608h362v-464l170 69v-342l-170 -69v-748z" />
    <glyph glyph-name="Nacute" unicode="&#x143;" horiz-adv-x="1464" 
d="M1176 1905l-375 -320h-271l205 320h441zM1329 0h-391l-449 850v-850h-354v1481h389l451 -852v852h354v-1481z" />
    <glyph glyph-name="nacute" unicode="&#x144;" horiz-adv-x="1173" 
d="M1051 1548l-375 -319h-270l204 319h441zM469 1114v-110q113 119 242 118h63q127 0 215 -86t88 -211v-825h-360l-2 784q-2 16 -23 17h-22q-98 0 -191 -49l-10 -7v-745h-360v1114h360z" />
    <glyph glyph-name="Ncommaaccent" unicode="&#x145;" horiz-adv-x="1464" 
d="M1329 -10h-391l-449 852v-852h-354v1485h389l451 -854v854h354v-1485zM557 -477v358h352v-252q1 -74 -110 -207l-146 -178h-157l170 279h-109z" />
    <glyph glyph-name="ncommaaccent" unicode="&#x146;" horiz-adv-x="1173" 
d="M670 793q-104 0 -201 -58v-747h-360v1118h360v-111q113 119 242 119h63q123 0 213 -86t90 -211v-829h-360l-2 786q-2 18 -23 19h-22zM414 -477v356h352v-252q0 -74 -111 -207l-145 -176h-158l170 279h-108z" />
    <glyph glyph-name="Ncaron" unicode="&#x147;" horiz-adv-x="1464" 
d="M1214 1882l-337 -299h-291l-340 299h327l158 -129l156 129h327zM1329 0h-391l-449 850v-850h-354v1481h389l451 -852v852h354v-1481z" />
    <glyph glyph-name="ncaron" unicode="&#x148;" horiz-adv-x="1173" 
d="M1090 1526l-338 -297h-291l-340 297h328l157 -127l156 127h328zM469 1114v-110q113 119 242 118h63q123 0 213 -86t90 -211v-825h-360l-2 784q-2 16 -23 17h-22q-98 0 -191 -49l-10 -7v-745h-360v1114h360z" />
    <glyph glyph-name="Eng" unicode="&#x14a;" horiz-adv-x="1458" 
d="M1024 -414h-305v320h235q25 0 25 20v80l-490 838v-850h-354v1481h389l445 -766v766h354l-2 -1594q-4 -127 -89 -211t-208 -84z" />
    <glyph glyph-name="eng" unicode="&#x14b;" horiz-adv-x="1173" 
d="M672 793q-108 0 -201 -56v-745h-360v1114h360v-111q102 119 240 119h63q123 0 213 -86t90 -211v-923q0 -125 -90 -211t-213 -86h-244v311h164q23 0 23 16v852q0 16 -23 17h-22z" />
    <glyph glyph-name="Omacron" unicode="&#x14c;" horiz-adv-x="1323" 
d="M971 1604h-611v282h611v-282zM918 -6h-515q-137 0 -221 84t-84 215v899q0 131 85 216t220 85h515q137 0 217 -86q86 -86 86 -215v-899q0 -129 -86 -215q-78 -84 -217 -84zM848 369v745q0 25 -29 25h-317q-27 0 -27 -25v-745q0 -27 27 -27h317q29 0 29 27z" />
    <glyph glyph-name="omacron" unicode="&#x14d;" horiz-adv-x="1124" 
d="M868 1249h-610v281h610v-281zM750 -6h-377q-129 0 -214 84t-85 211v536q0 125 88 211q90 86 213 86h373q123 0 213 -86t90 -211v-536q0 -125 -86 -210t-215 -85zM688 301v512q0 10 -16 10h-228q-14 0 -14 -10v-512q0 -10 14 -10h228q16 0 16 10z" />
    <glyph glyph-name="Ohungarumlaut" unicode="&#x150;" horiz-adv-x="1323" 
d="M1235 1907l-260 -322h-336l260 322h336zM795 1907l-260 -322h-336l260 322h336zM918 -6h-515q-137 0 -221 84t-84 215v899q0 133 85 217t220 84h515q135 0 219 -85t84 -216v-899q0 -129 -86 -215q-78 -84 -217 -84zM848 369v745q0 25 -29 25h-317q-27 0 -27 -25v-745
q0 -27 27 -27h317q29 0 29 27z" />
    <glyph glyph-name="ohungarumlaut" unicode="&#x151;" horiz-adv-x="1124" 
d="M1133 1550l-261 -321h-335l260 321h336zM692 1550l-260 -321h-336l260 321h336zM750 -6h-377q-129 0 -214 84t-85 211v536q0 125 87 211t214 86h373q127 0 215 -86t88 -211v-536q0 -125 -86 -210t-215 -85zM688 303v510q0 10 -16 10h-228q-14 0 -14 -10v-510
q0 -12 14 -12h228q16 0 16 12z" />
    <glyph glyph-name="OE" unicode="&#x152;" horiz-adv-x="1986" 
d="M1911 -2h-1508q-137 0 -221 83t-84 214v881q0 131 85 215t220 84h1508v-349h-656v-208h498v-351h-498v-223h656v-346zM879 408v651q0 63 -64 63h-313q-27 0 -27 -26v-725q0 -27 27 -27h313q64 1 64 64z" />
    <glyph glyph-name="oe" unicode="&#x153;" horiz-adv-x="1716" 
d="M1655 422h-602l-2 -98q0 -16 22 -17h201q23 0 22 17v61h357v-98q0 -123 -87 -208t-216 -85h-353q-70 0 -123 22q-59 -23 -124 -22h-377q-129 0 -214 84t-85 209v532q0 123 87 209t214 86h377q59 0 125 -24q57 25 122 24h353q127 0 215 -86t88 -209v-397zM1296 676v106
q0 16 -22 17h-201q-20 0 -20 -17v-106h243zM694 328v450q0 16 -22 17h-226q-20 0 -20 -17v-450q0 -16 20 -17h226q22 1 22 17z" />
    <glyph glyph-name="Racute" unicode="&#x154;" horiz-adv-x="1327" 
d="M1079 1909l-374 -320h-271l205 320h440zM514 520v-516h-375v1481h787q135 0 219 -85t84 -216v-365q0 -96 -50 -170t-126 -106l225 -543l-397 4l-211 516h-156zM856 891v219q0 25 -29 25h-313v-269h313q29 0 29 25z" />
    <glyph glyph-name="racute" unicode="&#x155;" horiz-adv-x="901" 
d="M950 1548l-375 -319h-270l205 319h440zM670 793q-131 0 -201 -56v-737h-360v1114h360v-110q113 119 242 118h161v-329h-202z" />
    <glyph glyph-name="Rcommaaccent" unicode="&#x156;" horiz-adv-x="1327" 
d="M514 512v-518h-375v1485h787q137 0 217 -86q86 -86 86 -215v-367q0 -96 -50 -171t-126 -105l225 -545l-397 4l-211 518h-156zM508 -473v358h352v-252q1 -73 -110 -206l-146 -179h-158l170 279h-108zM856 885v217q0 25 -29 24h-313v-268h313q29 0 29 27z" />
    <glyph glyph-name="rcommaaccent" unicode="&#x157;" horiz-adv-x="901" 
d="M469 1106v-111q113 119 242 119h161v-330h-202q-117 0 -191 -49l-10 -6v-741h-360v1118h360zM115 -477v356h352v-252q0 -74 -111 -207l-145 -176h-158l170 279h-108z" />
    <glyph glyph-name="Rcaron" unicode="&#x158;" horiz-adv-x="1327" 
d="M1114 1882l-338 -299h-291l-340 299h328l158 -129l155 129h328zM514 520v-516h-375v1481h787q135 0 219 -86t84 -215v-365q0 -96 -49 -169t-127 -107l225 -543l-397 4l-211 516h-156zM856 891v219q0 25 -29 25h-313v-269h313q29 0 29 25z" />
    <glyph glyph-name="rcaron" unicode="&#x159;" horiz-adv-x="901" 
d="M989 1526l-338 -297h-291l-340 297h328l158 -127l156 127h327zM670 793q-131 0 -201 -56v-737h-360v1114h360v-110q113 119 242 118h161v-329h-202z" />
    <glyph glyph-name="Sacute" unicode="&#x15a;" horiz-adv-x="1277" 
d="M1077 1903l-375 -320h-270l205 320h440zM887 -8h-484q-137 0 -221 84t-84 215v215h363v-141q0 -23 28 -23h297q29 0 29 23v149q0 14 -33 23l-381 77q-305 66 -305 306v270q0 133 83 217t218 84h459q135 0 221 -85t86 -216v-201h-366l8 127q0 20 -29 21h-274
q-27 0 -27 -21v-137q0 -16 31 -23l381 -75q307 -63 307 -306v-284q0 -129 -85 -214t-222 -85z" />
    <glyph glyph-name="sacute" unicode="&#x15b;" horiz-adv-x="1087" 
d="M983 1548l-375 -319h-270l205 319h440zM717 -6h-344q-131 0 -219 87t-88 214v92h362v-74q0 -14 21 -14h194q23 0 23 14v54q0 25 -27 26l-303 47q-131 18 -195 84t-63 164v133q0 125 89 213t218 88h303q131 0 221 -89t90 -212v-76h-362v72q0 14 -23 14h-153q-23 0 -23 -14
v-59q0 -27 27 -29l303 -47q131 -18 196 -85t64 -163v-139q0 -127 -89 -214t-222 -87z" />
    <glyph glyph-name="Scedilla" unicode="&#x15e;" horiz-adv-x="1277" 
d="M883 -16h-150l-33 -64h23q88 0 139 -44t51 -120v-20q0 -78 -50 -121t-136 -43h-199l-127 154h287q4 0 4 10v20q0 10 -4 11h-248l99 217h-136q-137 0 -221 83t-84 216v215h363v-144q0 -20 28 -20h297q29 0 29 20v152q0 14 -33 22l-381 78q-305 61 -305 305v271
q0 131 84 215q80 86 217 86h459q135 0 221 -86t86 -215v-201h-364v127q0 23 -29 22h-274q-27 0 -27 -22v-135q0 -16 31 -23l383 -78q307 -63 307 -305v-284q0 -131 -85 -215t-222 -84z" />
    <glyph glyph-name="scedilla" unicode="&#x15f;" horiz-adv-x="1087" 
d="M461 823q-23 0 -23 -16v-57q0 -27 27 -29l299 -47q131 -18 192 -84q68 -68 68 -164v-139q0 -127 -89 -214t-222 -87h-86l-33 -62h22q84 0 138 -43t53 -121v-20q0 -78 -50 -121t-136 -43h-199l-127 154h287q4 0 4 10v20q0 10 -4 11h-248l98 215h-59q-131 0 -219 87
t-88 214v92h362v-74q0 -14 21 -14h194q23 0 23 14v53q0 25 -27 27l-303 47q-131 18 -195 84t-63 164v131q0 127 90 215q92 88 217 88h303q131 0 221 -88t90 -215v-74h-362v70q0 16 -23 16h-153z" />
    <glyph glyph-name="Scaron" unicode="&#x160;" horiz-adv-x="1277" 
d="M1116 1880l-338 -299h-291l-340 299h328l158 -129l155 129h328zM887 -8h-484q-137 0 -221 84t-84 215v215h363v-141q0 -23 28 -23h297q29 0 29 23v149q0 14 -33 23l-381 77q-305 61 -305 306v270q0 131 84 215q80 86 217 86h459q135 0 221 -86t86 -215v-201h-366l8 127
q0 20 -29 21h-274q-27 0 -27 -21v-137q0 -16 31 -23l381 -75q307 -63 307 -306v-284q0 -129 -85 -214t-222 -85z" />
    <glyph glyph-name="scaron" unicode="&#x161;" horiz-adv-x="1087" 
d="M1022 1526l-338 -297h-291l-340 297h328l158 -127l155 127h328zM461 831q-23 0 -23 -16v-57q0 -27 27 -29l303 -47q131 -18 196 -85t64 -163v-139q0 -127 -89 -214t-222 -87h-344q-131 0 -219 87t-88 214v92h362v-74q0 -14 21 -14h194q23 0 23 14v54q0 25 -27 26l-303 47
q-131 18 -195 84t-63 164v131q0 127 90 215q92 88 217 88h303q127 0 219 -88t92 -215v-74h-362v70q0 16 -23 16h-153z" />
    <glyph glyph-name="Tcedilla" unicode="&#x162;" horiz-adv-x="1169" 
d="M1141 1128h-367v-1134h-94l-37 -70h21q88 0 139 -44t51 -120v-20q0 -78 -50 -121t-136 -43h-199l-127 154h287q4 0 4 10v20q0 10 -4 11h-248l102 223h-84v1134h-366v347h1108v-347z" />
    <glyph glyph-name="tcedilla" unicode="&#x163;" horiz-adv-x="880" 
d="M195 291v522h-168v299h172v363h352v-363h287v-299h-285l-4 -494q0 -12 16 -12h269v-313h-207l-37 -70h22q88 0 140 -44t51 -120v-20q0 -78 -50 -121t-137 -43h-198l-127 154h287q4 0 4 10v20q0 10 -4 11h-248l106 227q-90 18 -153 82q-88 86 -88 211z" />
    <glyph glyph-name="Tcaron" unicode="&#x164;" horiz-adv-x="1169" 
d="M1071 1882l-338 -299h-291l-340 299h328l158 -129l155 129h328zM1141 1135h-367v-1135h-375v1135h-366v346h1108v-346z" />
    <glyph glyph-name="tcaron" unicode="&#x165;" horiz-adv-x="880" 
d="M551 1198v-80h287v-299h-283v-493q0 -12 14 -13h269v-313h-342q-123 0 -213 86q-88 86 -88 211v522h-168v299h172v363h352v-280l168 276h-109v356h353v-250q0 -74 -111 -207l-145 -178h-156z" />
    <glyph glyph-name="Tbar" unicode="&#x166;" horiz-adv-x="1169" 
d="M895 1604h-610v282h610v-282zM1141 1135h-367v-1135h-375v1135h-366v346h1108v-346z" />
    <glyph glyph-name="tbar" unicode="&#x167;" horiz-adv-x="880" 
d="M838 0h-342q-123 0 -213 86q-88 86 -88 209v117h-140v280h140v125h-168v297h172v361h352v-361h287v-297h-283v-125h111v-280h-111v-88q0 -10 14 -11h269v-313z" />
    <glyph glyph-name="Umacron" unicode="&#x16a;" horiz-adv-x="1325" 
d="M975 1604h-610v282h610v-282zM909 -8h-491q-137 0 -221 84t-84 215v1190h374v-1112q0 -27 27 -27h295q29 0 29 27v1112h372l7 -1190q-1 -129 -86 -214t-222 -85z" />
    <glyph glyph-name="umacron" unicode="&#x16b;" horiz-adv-x="1173" 
d="M891 1249h-610v281h610v-281zM504 313q97 0 201 56v745h360v-1114h-360v111q-115 -117 -244 -117h-64q-129 0 -214 84t-85 211v825h359l4 -784q0 -16 20 -17h23z" />
    <glyph glyph-name="Uring" unicode="&#x16e;" horiz-adv-x="1325" 
d="M438 1667v227q0 33 27 60t59 26h273q35 0 61 -26t27 -58v-227q0 -34 -26 -59t-60 -25l-277 -4q-32 0 -58 25t-26 61zM905 -12h-491q-137 0 -221 84t-84 215v1192h374v-1114q0 -27 27 -27h295q29 0 29 27v1114h372l6 -1192q0 -129 -85 -214t-222 -85zM719 1735v88
q0 8 -10 8h-101q-8 0 -8 -8v-88q0 -8 8 -9h101q10 1 10 9z" />
    <glyph glyph-name="uring" unicode="&#x16f;" horiz-adv-x="1173" 
d="M358 1311v227q0 34 27 60t59 26h273q35 0 61 -27t27 -57v-227q0 -33 -25 -58t-61 -24l-277 -4q-32 -3 -58 23t-26 61zM705 0v111q-115 -117 -244 -117h-64q-129 0 -214 84t-85 211v827h359l4 -786q0 -16 20 -17h23q96 0 188 52l13 4v747h360v-1116h-360zM639 1380v86
q0 8 -10 9h-101q-8 0 -8 -9v-86q0 -10 8 -10h101q10 0 10 10z" />
    <glyph glyph-name="Uhungarumlaut" unicode="&#x170;" horiz-adv-x="1325" 
d="M1239 1907l-260 -322h-336l260 322h336zM799 1907l-260 -322h-336l260 322h336zM909 -8h-491q-137 0 -221 84t-84 215v1190h374v-1112q0 -27 27 -27h295q29 0 29 27v1112h372l7 -1190q-1 -129 -86 -214t-222 -85z" />
    <glyph glyph-name="uhungarumlaut" unicode="&#x171;" horiz-adv-x="1173" 
d="M1155 1550l-260 -321h-336l260 321h336zM715 1550l-260 -321h-336l260 321h336zM504 313q97 0 201 56v745h360v-1114h-360v111q-115 -117 -244 -117h-64q-129 0 -214 84t-85 211v825h359l4 -784q0 -16 20 -17h23z" />
    <glyph glyph-name="Uogonek" unicode="&#x172;" horiz-adv-x="1325" 
d="M913 -14h-120l-97 -160q-2 -4 6 -4h132v-197h-222q-106 0 -141 66q-41 68 10 153l82 142h-145q-137 0 -221 84t-84 215v1190h374v-1113q0 -27 27 -26h295q29 0 29 26v1113h372l9 -1190q2 -129 -83 -214t-223 -85z" />
    <glyph glyph-name="uogonek" unicode="&#x173;" horiz-adv-x="1173" 
d="M399 -14q-127 0 -213 85t-86 210v825h361v-784q0 -16 20 -17h23q96 0 188 51l13 4v746h360v-1114h-150l-90 -158q-2 -4 4 -4h132v-197h-222q-106 0 -141 66q-41 68 12 154l97 161v88q-113 -117 -244 -116h-64z" />
    <glyph glyph-name="Wcircumflex" unicode="&#x174;" horiz-adv-x="1861" 
d="M1423 1583h-327l-156 131l-158 -131h-327l340 299h290zM1853 1481l-362 -1481h-344l-209 823l-207 -823h-360l-363 1481h402l151 -934l232 934h290l234 -934l151 934h385z" />
    <glyph glyph-name="wcircumflex" unicode="&#x175;" horiz-adv-x="1640" 
d="M1319 1229h-328l-155 129l-158 -129h-328l340 297h291zM1632 1114l-319 -1114h-357l-125 567l-124 -567h-355l-346 1114h379l145 -698l146 698h313l146 -698l143 698h354z" />
    <glyph glyph-name="Ycircumflex" unicode="&#x176;" horiz-adv-x="1226" 
d="M1100 1583h-328l-156 131l-157 -131h-328l340 299h291zM803 0h-375v502l-446 979h409l223 -555l224 555h409l-444 -979v-502z" />
    <glyph glyph-name="ycircumflex" unicode="&#x177;" horiz-adv-x="1136" 
d="M1059 1227h-328l-156 131l-157 -131h-328l340 299h291zM1133 1112l-537 -1507h-326l140 403l-406 1104h356l203 -653l225 653h345z" />
    <glyph glyph-name="Ydieresis" unicode="&#x178;" horiz-adv-x="1226" 
d="M991 1591h-311v297h311v-297zM555 1591h-311v297h311v-297zM803 0h-375v502l-446 979h409l223 -555l224 555h409l-444 -979v-502z" />
    <glyph glyph-name="Zacute" unicode="&#x179;" horiz-adv-x="1226" 
d="M1077 1905l-375 -320h-270l205 320h440zM1153 346v-346h-1081v281l604 854h-567v346h1048v-279l-604 -856h600z" />
    <glyph glyph-name="zacute" unicode="&#x17a;" horiz-adv-x="1001" 
d="M944 1548l-375 -319h-270l205 319h440zM958 0h-913v256l438 545h-426v313h881v-248l-440 -553h460v-313z" />
    <glyph glyph-name="Zdotaccent" unicode="&#x17b;" horiz-adv-x="1226" 
d="M788 1589h-309v301h309v-301zM1153 346v-346h-1081v281l604 854h-567v346h1048v-279l-604 -856h600z" />
    <glyph glyph-name="zdotaccent" unicode="&#x17c;" horiz-adv-x="1001" 
d="M655 1235h-309v299h309v-299zM958 0h-913v256l438 545h-426v313h881v-250l-440 -551h460v-313z" />
    <glyph glyph-name="Zcaron" unicode="&#x17d;" horiz-adv-x="1226" 
d="M1116 1882l-338 -299h-291l-340 299h328l158 -129l155 129h328zM1153 346v-346h-1081v281l604 854h-567v346h1048v-279l-604 -856h600z" />
    <glyph glyph-name="zcaron" unicode="&#x17e;" horiz-adv-x="1001" 
d="M983 1526l-338 -297h-291l-340 297h328l158 -127l155 127h328zM958 0h-913v256l438 545h-426v313h881v-250l-440 -551h460v-313z" />
    <glyph glyph-name="florin" unicode="&#x192;" horiz-adv-x="989" 
d="M649 1098v-133h264v-336h-264v-336q0 -135 -80 -214t-221 -79h-295v346h191q31 0 30 27v256h-206v336h206v215q0 135 81 215t218 80h363v-349l-260 -2q-27 -2 -27 -26z" />
    <glyph glyph-name="circumflex" unicode="&#x2c6;" horiz-adv-x="1351" 
d="M1159 1610h-328l-155 119l-158 -119h-328l340 272h291z" />
    <glyph glyph-name="caron" unicode="&#x2c7;" horiz-adv-x="1351" 
d="M1159 1882l-338 -272h-291l-340 272h328l158 -117l155 117h328z" />
    <glyph glyph-name="breve" unicode="&#x2d8;" horiz-adv-x="1265" 
d="M756 1608h-252q-62 0 -104 38t-42 95v157h211v-86q0 -25 27 -24h76q23 0 22 27v86h211l-4 -160q0 -57 -42 -95t-103 -38z" />
    <glyph glyph-name="dotaccent" unicode="&#x2d9;" horiz-adv-x="876" 
d="M594 1616h-309v274h309v-274z" />
    <glyph glyph-name="ring" unicode="&#x2da;" horiz-adv-x="704" 
d="M127 1686v215q0 29 27 55q29 25 59 24h272q37 0 63 -26t25 -51v-215q1 -31 -24 -55t-62 -23l-276 -4q-31 0 -57 24t-27 56zM408 1751v80q0 10 -11 10h-100q-8 0 -8 -10v-80q0 -8 8 -8h100q11 0 11 8z" />
    <glyph glyph-name="ogonek" unicode="&#x2db;" horiz-adv-x="782" 
d="M625 -367h-222q-104 1 -142 63t13 144l101 160h225l-111 -178q-4 -4 5 -4h131v-185z" />
    <glyph glyph-name="tilde" unicode="&#x2dc;" horiz-adv-x="1249" 
d="M969 1862l-49 -193q-20 -80 -136 -57l-299 57l-39 -59h-163l45 190q18 82 139 60l293 -56l39 58h170z" />
    <glyph glyph-name="hungarumlaut" unicode="&#x2dd;" horiz-adv-x="1536" 
d="M1286 1907l-260 -297h-336l260 297h336zM846 1907l-260 -297h-336l260 297h336z" />
    <glyph glyph-name="commaaccentcomb" unicode="&#x326;" horiz-adv-x="0" 
d="M205 -487v346h352v-244q0 -72 -111 -199l-145 -172h-158l170 269h-108z" />
    <glyph glyph-name="Wgrave" unicode="&#x1e80;" horiz-adv-x="1861" 
d="M1145 1585h-268l-373 320h436zM1853 1481l-362 -1481h-344l-209 823l-207 -823h-360l-363 1481h402l151 -934l232 934h290l234 -934l151 934h385z" />
    <glyph glyph-name="wgrave" unicode="&#x1e81;" horiz-adv-x="1640" 
d="M1040 1229h-268l-373 319h437zM1632 1114l-319 -1114h-357l-125 567l-124 -567h-355l-346 1114h379l145 -698l146 698h313l146 -698l143 698h354z" />
    <glyph glyph-name="Wacute" unicode="&#x1e82;" horiz-adv-x="1861" 
d="M1384 1905l-374 -320h-271l205 320h440zM1853 1481l-362 -1481h-344l-209 823l-207 -823h-360l-363 1481h402l151 -934l232 934h290l234 -934l151 934h385z" />
    <glyph glyph-name="wacute" unicode="&#x1e83;" horiz-adv-x="1640" 
d="M1280 1548l-375 -319h-270l205 319h440zM1632 1114l-319 -1114h-357l-125 567l-124 -567h-355l-346 1114h379l145 -698l146 698h313l146 -698l143 698h354z" />
    <glyph glyph-name="Wdieresis" unicode="&#x1e84;" horiz-adv-x="1861" 
d="M1315 1591h-311v297h311v-297zM879 1591h-312v297h312v-297zM1853 1481l-362 -1481h-344l-209 823l-207 -823h-360l-363 1481h402l151 -934l232 934h290l234 -934l151 934h385z" />
    <glyph glyph-name="wdieresis" unicode="&#x1e85;" horiz-adv-x="1640" 
d="M1210 1237h-311v295h311v-295zM774 1237h-311v295h311v-295zM1632 1114l-319 -1114h-357l-125 567l-124 -567h-355l-346 1114h379l145 -698l146 698h313l146 -698l143 698h354z" />
    <glyph glyph-name="Ygrave" unicode="&#x1ef2;" horiz-adv-x="1226" 
d="M821 1585h-268l-373 320h436zM803 0h-375v502l-446 979h409l223 -555l224 555h409l-444 -979v-502z" />
    <glyph glyph-name="ygrave" unicode="&#x1ef3;" horiz-adv-x="1136" 
d="M780 1227h-268l-373 321h436zM1133 1112l-537 -1507h-326l140 403l-406 1104h356l203 -653l225 653h345z" />
    <glyph glyph-name="endash" unicode="&#x2013;" horiz-adv-x="1153" 
d="M1075 518h-993v309h993v-309z" />
    <glyph glyph-name="emdash" unicode="&#x2014;" horiz-adv-x="1636" 
d="M1556 518h-1474v311h1474v-311z" />
    <glyph glyph-name="quoteleft" unicode="&#x2018;" horiz-adv-x="530" 
d="M442 1206v-346h-352v246q0 72 109 197l145 172h158l-170 -269h110z" />
    <glyph glyph-name="quoteright" unicode="&#x2019;" horiz-adv-x="530" 
d="M90 1128v347h352v-244q1 -72 -110 -199l-146 -172h-157l170 268h-109z" />
    <glyph glyph-name="quotesinglbase" unicode="&#x201a;" horiz-adv-x="530" 
d="M90 -14v346h352v-244q1 -70 -110 -197l-146 -172h-157l170 267h-109z" />
    <glyph glyph-name="quotedblleft" unicode="&#x201c;" horiz-adv-x="989" 
d="M901 1206v-346h-352v246q0 72 108 197l146 172h158l-170 -269h110zM442 1206v-346h-352v246q0 72 109 197l145 172h158l-170 -269h110z" />
    <glyph glyph-name="quotedblright" unicode="&#x201d;" horiz-adv-x="989" 
d="M551 1128v347h352v-244q1 -72 -110 -199l-146 -172h-158l170 268h-108zM90 1128v347h352v-244q1 -72 -110 -199l-146 -172h-157l170 268h-109z" />
    <glyph glyph-name="quotedblbase" unicode="&#x201e;" horiz-adv-x="530" 
d="M90 -14v346h352v-244q1 -70 -110 -197l-146 -172h-157l170 267h-109z" />
    <glyph glyph-name="dagger" unicode="&#x2020;" horiz-adv-x="765" 
d="M754 803h-205v-803h-330v803h-207v311h207v361h330v-361h205v-311z" />
    <glyph glyph-name="daggerdbl" unicode="&#x2021;" horiz-adv-x="765" 
d="M754 360h-205v-360h-330v360h-207v312h207v131h-207v311h207v361h330v-361h205v-311h-205v-131h205v-312z" />
    <glyph glyph-name="bullet" unicode="&#x2022;" horiz-adv-x="876" 
d="M602 518h-330q-37 0 -65 25q-27 25 -27 63v312q0 40 28 64t64 24h330q37 0 66 -25t28 -63v-312q1 -38 -28 -63t-66 -25z" />
    <glyph glyph-name="ellipsis" unicode="&#x2026;" horiz-adv-x="1443" 
d="M1356 0h-352v332h352v-332zM899 0h-352v332h352v-332zM442 0h-352v332h352v-332z" />
    <glyph glyph-name="perthousand" unicode="&#x2030;" horiz-adv-x="1822" 
d="M1610 -6h-205q-68 0 -107 39t-38 102v305q0 64 40 104t105 40h205q66 0 104 -41q43 -41 43 -103v-305q0 -61 -40 -101t-107 -40zM410 891h-205q-66 0 -106 40t-40 103v305q0 63 40 103t108 41h201q68 0 106 -41q43 -41 43 -103v-305q0 -63 -43 -102q-39 -41 -104 -41z
M1100 1475l-637 -1475h-309l639 1475h307zM1057 -6h-205q-68 0 -104 39q-41 39 -41 102v305q0 64 40 104t107 40h201q68 0 106 -41q43 -39 43 -103v-305q0 -61 -40 -101t-107 -40zM1565 190v197q0 18 -13 19h-86q-14 0 -14 -19v-197q0 -20 14 -20h86q13 0 13 20zM362 1087
v197q0 20 -12 21h-86q-14 0 -14 -21v-197q0 -18 14 -18h86q12 0 12 18zM1010 190v197q0 18 -13 19h-86q-14 0 -14 -19v-197q0 -20 14 -20h86q13 0 13 20z" />
    <glyph glyph-name="guilsinglleft" unicode="&#x2039;" horiz-adv-x="665" 
d="M659 295h-383l-268 364v119l268 367h383l-317 -426z" />
    <glyph glyph-name="guilsinglright" unicode="&#x203a;" horiz-adv-x="665" 
d="M662 659l-271 -364h-383l318 424l-318 426h383l271 -367v-119z" />
    <glyph glyph-name="fraction" unicode="&#x2044;" horiz-adv-x="483" 
d="M817 1475l-880 -1475h-269l881 1475h268z" />
    <glyph glyph-name="zerosuperior" unicode="&#x2070;" horiz-adv-x="794" 
d="M55 1528q0 76 54 123q51 49 137 49h301q84 0 138 -48t54 -122v-500q0 -74 -54 -122t-138 -48l-301 -4q-86 0 -138 48t-53 124v500zM494 1081v394h-2q-4 -6 -9 -7h-172q-6 0 -6 7v-394q0 6 6 6h172q4 0 9 -6h2z" />
    <glyph glyph-name="foursuperior" unicode="&#x2074;" horiz-adv-x="864" 
d="M838 1004h-125v-140h-242v140h-395l-58 172l498 524h197v-483h125v-213zM471 1217v116l-127 -116h127z" />
    <glyph glyph-name="fivesuperior" unicode="&#x2075;" horiz-adv-x="780" 
d="M307 1464v-104q51 59 121 59h111q82 0 140 -55t58 -123v-211q0 -66 -59 -119t-139 -53h-301q-80 0 -138 54t-57 122v115h250v-51q0 -6 18 -6h156q23 0 22 6v104q0 8 -18 8h-70q-39 0 -82 -16l-28 -2l-232 63v445l648 -4v-232h-400z" />
    <glyph glyph-name="sixsuperior" unicode="&#x2076;" horiz-adv-x="794" 
d="M305 1458v-127q55 63 119 64h127q82 0 137 -54q61 -55 62 -122v-191q0 -66 -60 -119t-139 -53h-301q-80 0 -137 54t-58 122v496q-1 68 57 122t138 54h291q80 0 139 -53t59 -119v-96h-256l6 24q0 4 -18 4h-147q-19 0 -19 -6zM502 1090v94q0 6 -19 6h-84l-32 -4
q-25 -6 -52 -12h-8v-84q0 -6 17 -7h157q21 1 21 7z" />
    <glyph glyph-name="sevensuperior" unicode="&#x2077;" horiz-adv-x="731" 
d="M12 1468v232h701v-182l-437 -654h-278l408 604h-394z" />
    <glyph glyph-name="eightsuperior" unicode="&#x2078;" horiz-adv-x="780" 
d="M532 862h-290q-80 0 -138 54t-57 122v136q0 76 74 118q-63 47 -64 119v119q1 68 59 120t138 52h270q80 0 140 -53t57 -121l-2 -119q0 -72 -66 -121q78 -45 78 -119v-135q0 -66 -59 -119t-140 -53zM471 1403v70q0 6 -18 6h-129q-18 0 -19 -6v-70q0 -8 14 -8h134q18 0 18 8
zM481 1087v84q0 6 -22 7h-140q-23 0 -22 -7v-84q0 -6 16 -6h150q18 0 18 6z" />
    <glyph glyph-name="ninesuperior" unicode="&#x2079;" horiz-adv-x="794" 
d="M494 1094v125q-59 -61 -123 -62h-125q-82 0 -139 53t-58 125v191q-1 68 57 122t138 54h301q80 0 139 -53t59 -119v-496q0 -66 -59 -119t-139 -53h-291q-78 0 -136 52t-59 120v96h248l-2 -36q0 -6 21 -7h145q23 1 23 7zM492 1378v84q-2 6 -21 6h-158q-16 0 -16 -6v-92
l-4 -4l2 -2h99q48 0 89 14h9z" />
    <glyph glyph-name="Euro" unicode="&#x20ac;" horiz-adv-x="1392" 
d="M993 -8h-506q-137 0 -219 83t-82 216v231h-155v176h155v72h-155v178h155v238q0 131 83 215t218 84h506q135 0 221 -85t86 -214v-223h-374v145q0 27 -31 27h-309q-27 0 -27 -27v-160h313v-178h-313v-72h313v-176h-313v-155q0 -27 27 -27h309q31 0 31 27v145h374v-221
q0 -131 -85 -215t-222 -84z" />
    <glyph glyph-name="trademark" unicode="&#x2122;" horiz-adv-x="1552" 
d="M1470 737h-190v365l-115 -254h-131l-112 254v-365h-191v738h215l152 -347l159 347h213v-738zM653 1288h-184v-551h-205v551h-180v187h569v-187z" />
    <glyph glyph-name="oneeighth" unicode="&#x215b;" horiz-adv-x="1794" 
d="M1546 0h-291q-82 0 -135 53q-59 53 -59 125v135q0 76 74 123q-63 47 -64 119v121q0 70 58 122t139 52h270q80 0 139 -53t58 -121l-2 -123q0 -74 -66 -121q78 -49 78 -123v-135q-1 -70 -60 -122t-139 -52zM1346 1473l-883 -1473h-268l882 1473h269zM444 625h-247v589
l-172 -47v201l229 105h190v-848zM1485 547v69q0 8 -19 9h-129q-18 0 -18 -9v-69q0 -8 14 -8h133q19 0 19 8zM1495 227v84q0 8 -22 8h-140q-23 0 -22 -8v-84q0 -6 16 -6h150q18 0 18 6z" />
    <glyph glyph-name="threeeighths" unicode="&#x215c;" horiz-adv-x="2021" 
d="M1772 -8h-291q-82 0 -135 53q-59 53 -60 125v135q0 76 74 123q-63 47 -64 119v121q0 70 58 122t139 52h270q79 0 139 -53t58 -121l-2 -123q0 -74 -66 -121q78 -49 78 -123v-135q0 -70 -59 -122t-139 -52zM1571 1464l-883 -1472h-268l883 1472h268zM514 621h-287
q-80 0 -137 54t-57 124v116h250l-4 -67q0 -8 20 -8h139q23 0 23 8v84q0 6 -23 6h-174v219h168q18 0 19 10v70q0 6 -23 6h-119q-20 0 -20 -6v-59h-248v114q0 72 59 125q61 51 138 51h264q76 0 137 -53t61 -123v-118q0 -72 -65 -121q76 -47 76 -121v-137q-1 -68 -60 -121
t-137 -53zM1710 539v69q0 8 -18 8h-129q-18 0 -19 -8v-69q0 -8 15 -9h133q18 1 18 9zM1720 219v84q0 8 -22 8h-139q-23 0 -23 -8v-84q0 -6 16 -6h150q18 0 18 6z" />
    <glyph glyph-name="fiveeighths" unicode="&#x215d;" horiz-adv-x="2043" 
d="M1796 0h-291q-82 0 -138 53t-56 125v135q0 76 73 123q-63 47 -63 119v121q0 70 58 122t139 52h270q80 0 139 -53t58 -123l-3 -121q0 -74 -65 -121q78 -49 78 -123v-135q-1 -70 -60 -122t-139 -52zM1593 1468l-882 -1472h-269l883 1472h268zM305 1233v-107q51 61 121 62
h111q78 0 138 -55t60 -127v-213q0 -68 -59 -121t-139 -54h-301q-80 0 -138 54t-57 125v116h250v-51q0 -8 18 -8h156q23 0 22 8v107q0 6 -18 6h-70q-39 0 -82 -17l-28 -2l-232 64v453l648 -5v-235h-400zM1735 547v69q0 8 -19 9h-129q-18 0 -18 -9v-69q0 -10 14 -10h133
q19 0 19 10zM1745 227v84q0 8 -23 8h-139q-23 0 -22 -8v-84q0 -6 16 -6h149q19 0 19 6z" />
    <glyph glyph-name="seveneighths" unicode="&#x215e;" horiz-adv-x="1830" 
d="M1583 0h-291q-82 0 -135 53q-59 53 -59 125v135q0 76 73 123q-63 47 -63 119v121q0 70 58 122t139 52h270q80 0 139 -53t58 -121l-3 -123q0 -74 -65 -121q78 -49 78 -123v-135q-1 -70 -60 -122t-139 -52zM1382 1473l-882 -1473h-269l883 1473h268zM10 1237v236h701v-187
l-437 -661h-278l407 612h-393zM1522 547v69q0 8 -19 9h-129q-18 0 -18 -9v-69q0 -8 14 -8h133q19 0 19 8zM1532 227v84q0 8 -23 8h-139q-23 0 -22 -8v-84q0 -6 16 -6h149q19 0 19 6z" />
    <glyph glyph-name="minus" unicode="&#x2212;" horiz-adv-x="1040" 
d="M950 596h-856v324h856v-324z" />
    <glyph glyph-name="infinity" unicode="&#x221e;" horiz-adv-x="1695" 
d="M1307 307h-240q-123 0 -219 127q-98 -127 -219 -127h-240q-137 0 -221 82q-86 78 -86 209v285q0 133 86 213q84 84 221 84h240q121 0 219 -127q96 127 219 127h240q135 0 219 -84q88 -82 88 -213v-279q0 -131 -88 -213q-84 -84 -219 -84zM1300 662v163q0 23 -26 23h-160
q-27 0 -27 -23v-163q0 -23 27 -23h160q26 0 26 23zM608 662v163q0 23 -26 23h-160q-27 0 -27 -23v-163q0 -23 27 -23h160q26 0 26 23z" />
    <glyph glyph-name="notequal" unicode="&#x2260;" horiz-adv-x="1040" 
d="M950 381h-430l-78 -242h-245l77 242h-180v334h291l33 102h-324v334h432l74 227h244l-74 -227h180v-334h-288l-33 -102h321v-334z" />
    <glyph glyph-name="fi" unicode="&#xfb01;" horiz-adv-x="1392" 
d="M1296 1235h-376v319h376v-319zM1288 0h-360v1114h360v-1114zM805 817h-234v-817h-362v817h-172v297h172v143q0 125 88 211q90 86 213 86h295v-307h-219q-14 0 -15 -10v-123h234v-297z" />
    <glyph glyph-name="fl" unicode="&#xfb02;" horiz-adv-x="1382" 
d="M1284 0h-362v1554h362v-1554zM805 817h-234v-817h-362v817h-172v297h172v143q0 125 88 211q90 86 213 86h295v-307h-219q-14 0 -15 -10v-123h234v-297z" />
    <glyph glyph-name="Q.ss01" horiz-adv-x="1333" 
d="M928 -14h-72v-254h-375v254h-78q-137 0 -221 83t-84 216v897q0 131 85 216t220 85h525q135 0 221 -86t86 -215v-897q0 -131 -85 -215t-222 -84zM858 369v733q0 25 -29 24h-327q-27 0 -27 -24v-733q0 -25 27 -25h327q29 0 29 25z" />
    <glyph glyph-name="zero.subs" horiz-adv-x="794" 
d="M55 381q0 76 54 123q51 49 137 49h301q84 0 138 -48t54 -122v-498q0 -74 -54 -122t-138 -48l-301 -4q-86 0 -138 48t-53 124v498zM494 -63v391h-2q-4 -6 -9 -6h-172q-6 0 -6 6v-391q0 6 6 6h172q4 0 9 -6h2z" />
    <glyph glyph-name="one.subs" horiz-adv-x="530" 
d="M446 -281h-247v580l-172 -47v199l229 102h190v-834z" />
    <glyph glyph-name="two.subs" horiz-adv-x="759" 
d="M467 317h-162q-20 0 -20 -4l12 -41h-244v111q1 68 59 120t136 52h278q78 0 138 -53t59 -119v-158q0 -65 -56 -111t-139 -67l-217 -49h-20q-2 0 -2 -2v-47h432v-232h-682v326q0 66 55 111t135 65l217 49q6 2 17 2h4v47z" />
    <glyph glyph-name="three.subs" horiz-adv-x="757" 
d="M514 -287h-287q-80 1 -137 55t-57 121v115h250l-4 -67q0 -6 20 -7h139q23 0 23 7v81q0 6 -23 7h-174v217h168q18 0 19 8v69q0 6 -23 7h-119q-20 0 -20 -7v-59h-248v115q0 68 58 120t139 52h264q80 0 139 -53t59 -119v-119q0 -70 -65 -119q76 -45 76 -119v-133
q-1 -66 -60 -119t-137 -53z" />
    <glyph glyph-name="four.subs" horiz-adv-x="864" 
d="M838 -141h-125v-140h-242v140h-395l-58 170l498 524h197v-483h125v-211zM471 70v116l-127 -116h127z" />
    <glyph glyph-name="five.subs" horiz-adv-x="780" 
d="M307 317v-104q51 59 121 59h111q82 0 140 -55t58 -123v-209q0 -66 -59 -119t-139 -53h-301q-80 1 -138 55t-57 121v115h250v-51q0 -6 18 -6h156q23 0 22 6v102q0 8 -18 8h-70q-39 0 -82 -16l-28 -2l-232 64v444l648 -4v-232h-400z" />
    <glyph glyph-name="six.subs" horiz-adv-x="794" 
d="M305 311v-127q55 63 119 64h127q82 0 140 -54t59 -122v-189q0 -66 -60 -119t-139 -53h-301q-80 0 -137 54t-58 122v494q-1 68 57 122t138 54h291q80 0 139 -53t59 -119v-96h-256l6 24q0 4 -18 4h-147q-19 0 -19 -6zM502 -55v92q0 6 -19 6h-84l-32 -4l-60 -12v-82
q0 -6 17 -6h157q21 0 21 6z" />
    <glyph glyph-name="seven.subs" horiz-adv-x="731" 
d="M12 322v231h701v-182l-437 -652h-278l408 603h-394z" />
    <glyph glyph-name="eight.subs" horiz-adv-x="780" 
d="M242 -283q-80 1 -138 55t-57 122v133q0 76 74 118q-63 47 -64 119v119q1 68 59 120t138 52h270q80 0 140 -53t57 -121l-2 -119q0 -72 -66 -121q78 -45 78 -118v-134q0 -65 -59 -118t-140 -54h-290zM471 256v70q0 6 -18 6h-129q-18 0 -19 -6v-70q0 -8 14 -8h134q18 0 18 8
zM481 -57v82q0 6 -22 6h-140q-23 0 -22 -6v-82q0 -6 16 -6h150q18 0 18 6z" />
    <glyph glyph-name="nine.subs" horiz-adv-x="794" 
d="M494 -51v123q-59 -61 -123 -62h-125q-82 0 -139 53t-58 125v191q-1 68 57 122t138 54h301q80 0 139 -53t59 -119v-494q0 -67 -59 -119t-139 -53h-291q-78 1 -136 53t-59 119v97h248l-2 -37q0 -6 21 -6h145q23 0 23 6zM492 231v84q-2 6 -21 7h-158q-16 0 -16 -7v-92l-4 -4
l2 -2h99q48 0 89 14h9z" />
    <glyph glyph-name="zero.tf" 
d="M891 -6h-473q-137 0 -219 83t-82 216v895q0 131 83 215t218 84h473q135 0 221 -85t86 -214v-895q0 -131 -85 -215t-222 -84zM821 373v729q0 27 -28 26h-277q-27 0 -27 -26v-729q0 -27 27 -27h277q28 0 28 27z" />
    <glyph glyph-name="one.tf" 
d="M1151 0h-967v348h308v762l-308 -100v360l318 105h364v-1127h285v-348z" />
    <glyph glyph-name="two.tf" 
d="M1221 0h-1106v541q0 115 90 193t215 112l373 104q29 8 41 17q8 16 8 32v97q0 41 -45 41h-260q-43 0 -43 -43v-95h-365v181q0 125 92 215q94 90 215 90h467q125 0 219 -91t95 -214v-269q0 -113 -93 -192q-82 -74 -215 -113l-372 -104q-33 -10 -40 -16t-8 -31v-109h732
v-346z" />
    <glyph glyph-name="three.tf" 
d="M895 -8h-481q-131 0 -221 89t-91 214v182h375l-6 -102q0 -39 45 -39h262q47 0 47 41v166q0 43 -59 43h-295v329h295q25 -1 34 9t9 34v138q0 41 -47 41h-230q-43 0 -43 -41v-99h-374v183q0 125 92 215q94 90 219 90h448q122 0 218 -91t96 -214v-211q0 -137 -115 -217
q131 -76 131 -217v-240q0 -123 -92 -213t-217 -90z" />
    <glyph glyph-name="four.tf" 
d="M1286 264h-192v-264h-363v264h-647l-78 275l696 936h392v-881h192v-330zM731 594v403l-295 -403h295z" />
    <glyph glyph-name="five.tf" 
d="M504 1126v-266q111 117 239 117h148q129 0 222 -91t93 -214v-377q0 -123 -91 -213t-222 -90h-477q-131 0 -221 89t-91 214v182h375v-92q0 -45 43 -45h260q45 0 45 43v225q0 41 -45 41h-80q-98 0 -190 -49l-25 -14l-360 102v787h1028v-349h-651z" />
    <glyph glyph-name="six.tf" 
d="M475 1092v-267q46 52 111 83q65 32 127 32h172q127 0 219 -92q96 -90 96 -215v-338q0 -123 -92 -213t-217 -90h-479q-131 0 -221 89t-91 214v885q0 125 93 215q94 90 219 90h462q125 0 220 -90q94 -92 94 -215v-154h-375l-4 66q-6 43 -45 43h-246q-43 0 -43 -43zM825 383
v188q0 41 -45 41h-106q-113 0 -191 -49l-8 -4v-174q0 -45 43 -45h260q47 0 47 43z" />
    <glyph glyph-name="seven.tf" 
d="M86 1126v349h1174v-283l-725 -1192h-414l686 1126h-721z" />
    <glyph glyph-name="eight.tf" 
d="M887 -8h-469q-131 0 -221 89t-91 214v240q0 143 130 217q-113 80 -113 217v211q0 125 92 215q94 90 219 90h436q125 0 220 -90q94 -92 94 -215v-211q0 -137 -115 -217q131 -76 131 -217v-240q0 -123 -91 -213t-222 -90zM809 958v138q0 43 -45 41h-215q-43 -2 -43 -43
v-138q0 -23 6 -34q12 -6 31 -7h227q18 0 31 7q8 16 8 36zM829 377v166q0 43 -57 43h-227q-55 0 -56 -43v-166q0 -41 43 -41h252q45 0 45 41z" />
    <glyph glyph-name="nine.tf" 
d="M823 383v270q-111 -115 -241 -114h-172q-128 0 -220 90t-92 215v336q0 125 92 215q94 90 220 90h479q123 0 218 -91t95 -214v-885q0 -123 -92 -213t-217 -90h-465q-125 0 -216 89t-91 214v154h377l-11 -68q0 -41 45 -41h244q47 0 47 43zM621 864q103 0 202 58v168
q0 45 -47 45h-260q-43 0 -43 -43v-187q0 -41 43 -41h105z" />
    <glyph glyph-name="zero.dnom" horiz-adv-x="794" 
d="M55 664q0 76 54 122q51 49 137 50h301q84 0 138 -48t54 -122v-500q0 -74 -53 -121t-139 -47l-301 -4q-84 0 -137 47t-54 123v500zM494 219v391h-2l-9 -6h-172q-6 0 -6 6v-391h2l4 4h172q4 0 9 -4h2z" />
    <glyph glyph-name="one.dnom" horiz-adv-x="530" 
d="M446 0h-247v582l-172 -47v198l229 103h190v-836z" />
    <glyph glyph-name="two.dnom" horiz-adv-x="759" 
d="M467 600h-162q-20 0 -20 -4l12 -41h-244v111q1 68 59 120t136 52h278q78 0 138 -54t59 -118v-158q0 -66 -56 -112t-139 -66l-217 -49h-20q-2 0 -2 -2v-50h432v-229h-682v326q0 66 55 110t135 66l217 49q6 2 17 2h4v47z" />
    <glyph glyph-name="three.dnom" horiz-adv-x="757" 
d="M514 -4h-287q-82 0 -138 53t-56 121v115h250l-4 -68q0 -6 20 -6h139q23 0 23 8v82q0 6 -23 6h-174v217h168q18 0 19 8v70q0 6 -23 6h-119q-20 0 -20 -6v-59h-248v114q0 68 58 120t139 52h264q80 0 139 -53t59 -119v-118q0 -70 -65 -119q76 -45 76 -119v-135
q-1 -66 -59 -118t-138 -52z" />
    <glyph glyph-name="four.dnom" horiz-adv-x="864" 
d="M838 139h-125v-139h-242v139h-395l-58 172l498 525h197v-484h125v-213zM471 352v117l-127 -117h127z" />
    <glyph glyph-name="five.dnom" horiz-adv-x="780" 
d="M307 600v-104q51 59 121 59h111q82 0 140 -55t58 -123v-211q0 -66 -59 -118t-139 -52h-301q-82 0 -138 53t-57 121v115h250v-52q0 -6 18 -6h156q23 0 22 6v105q0 8 -18 8h-70q-39 0 -82 -16l-28 -2l-232 63v445l648 -5v-231h-400z" />
    <glyph glyph-name="six.dnom" horiz-adv-x="794" 
d="M305 592v-127q55 63 119 63h127q82 0 140 -54t59 -122v-190q0 -66 -60 -118t-139 -52h-301q-82 0 -138 53t-57 121v496q-1 68 57 122t138 54h291q80 0 139 -54t59 -118v-97h-256l6 25q0 4 -18 4h-147q-19 0 -19 -6zM502 223v94q0 6 -19 7h-84l-32 -5l-60 -12v-84
q0 -6 17 -6h157q21 0 21 6z" />
    <glyph glyph-name="seven.dnom" horiz-adv-x="731" 
d="M12 604v232h701v-183l-437 -653h-278l408 604h-394z" />
    <glyph glyph-name="eight.dnom" horiz-adv-x="780" 
d="M532 0h-290q-82 0 -138 53t-57 121v135q0 76 74 119q-63 47 -64 119v119q1 68 59 120t138 52h270q80 0 140 -54t57 -120l-2 -119q0 -72 -66 -121q78 -45 78 -119v-135q0 -66 -59 -118t-140 -52zM471 539v69q0 6 -18 6h-129q-18 0 -19 -6v-69q0 -8 14 -9h134q18 1 18 9z
M481 223v84q0 6 -22 6h-140q-23 0 -22 -6v-84q0 -6 16 -6h150q18 0 18 6z" />
    <glyph glyph-name="nine.dnom" horiz-adv-x="794" 
d="M494 229v125q-59 -61 -123 -61h-125q-82 0 -139 53t-58 125v191q-1 68 57 122t138 54h301q80 0 139 -54t59 -118v-496q0 -66 -59 -118t-139 -52h-291q-80 0 -137 51t-58 119v96h248l-2 -37q0 -6 21 -6h145q23 0 23 6zM492 514v84q-2 6 -21 6h-158q-16 0 -16 -6v-92l-4 -4
l2 -2h99q48 0 89 14h9z" />
    <glyph glyph-name="zero.numr" horiz-adv-x="794" 
d="M55 1303q0 76 54 122q51 49 137 50h301q84 -1 138 -49t54 -121v-500q0 -74 -54 -122t-138 -48l-301 -4q-86 0 -138 48t-53 124v500zM494 856v393h-2q-4 -6 -9 -6h-172q-6 0 -6 6v-393q0 6 6 6h172q4 0 9 -6h2z" />
    <glyph glyph-name="one.numr" horiz-adv-x="530" 
d="M446 639h-247v582l-172 -47v198l229 103h190v-836z" />
    <glyph glyph-name="two.numr" horiz-adv-x="759" 
d="M467 1239h-162q-20 0 -20 -4l12 -41h-244v111q1 67 59 119t136 53h278q78 1 138 -53t59 -119v-158q0 -66 -56 -112t-139 -66l-217 -49h-20q-2 0 -2 -2v-50h432v-231h-682v328q0 67 55 111t135 65l217 49q6 2 17 2h4v47z" />
    <glyph glyph-name="three.numr" horiz-adv-x="757" 
d="M514 633h-287q-80 0 -137 54t-57 122v115h250l-4 -68q0 -6 20 -6h139q23 0 23 6v84q0 6 -23 6h-174v215h168q18 0 19 10v70q0 6 -23 6h-119q-20 0 -20 -6v-59h-248v114q0 68 58 120t139 52h264q80 0 139 -53t59 -119v-118q0 -70 -65 -119q76 -45 76 -119v-135
q-1 -66 -60 -119t-137 -53z" />
    <glyph glyph-name="four.numr" horiz-adv-x="864" 
d="M838 778h-125v-139h-242v139h-395l-58 172l498 525h197v-484h125v-213zM471 991v117l-127 -117h127z" />
    <glyph glyph-name="five.numr" horiz-adv-x="780" 
d="M307 1239v-104q51 59 121 59h111q82 0 140 -55t58 -123v-211q0 -66 -59 -119t-139 -53h-301q-80 0 -138 54t-57 122v115h250v-52q0 -6 18 -6h156q23 0 22 6v105q0 8 -18 8h-70q-39 0 -82 -16l-28 -2l-232 63v445l648 -5v-231h-400z" />
    <glyph glyph-name="six.numr" horiz-adv-x="794" 
d="M305 1233v-127q55 63 119 63h127q82 0 140 -54t59 -122v-190q0 -66 -60 -119t-139 -53h-301q-80 0 -137 54t-58 122v496q-1 67 57 121t138 55h291q80 1 139 -53t59 -119v-97h-256l6 25q0 4 -18 4h-147q-19 0 -19 -6zM502 864v94q0 6 -19 7h-84l-32 -4q-25 -6 -52 -13h-8
v-84q0 -6 17 -6h157q21 0 21 6z" />
    <glyph glyph-name="seven.numr" horiz-adv-x="731" 
d="M12 1243v232h701v-183l-437 -653h-278l408 604h-394z" />
    <glyph glyph-name="eight.numr" horiz-adv-x="780" 
d="M532 637h-290q-80 0 -138 54t-57 122v135q0 76 74 119q-63 47 -64 119v119q1 67 59 119t138 53h270q80 1 140 -53t57 -121l-2 -119q0 -72 -66 -121q78 -45 78 -119v-135q0 -66 -59 -119t-140 -53zM471 1178v69q0 6 -18 6h-129q-18 0 -19 -6v-69q0 -8 14 -9h134q18 1 18 9
zM481 862v84q0 6 -22 6h-140q-23 0 -22 -6v-84q0 -6 16 -6h150q18 0 18 6z" />
    <glyph glyph-name="nine.numr" horiz-adv-x="794" 
d="M494 868v125q-59 -61 -123 -61h-125q-82 0 -139 53t-58 125v190q-1 68 57 122t138 55h301q80 1 139 -53t59 -119v-496q0 -66 -59 -119t-139 -53h-291q-78 0 -136 52t-59 120v96h248l-2 -37q0 -6 21 -6h145q23 0 23 6zM492 1153v84q-2 6 -21 6h-158q-16 0 -16 -6v-92
l-4 -4l2 -2h99q48 0 89 14h9z" />
    <glyph glyph-name="numbersign.tf" 
d="M1323 856h-211l-74 -215h144v-336h-260l-107 -305h-354l106 305h-127l-106 -305h-354l106 305h-98v336h215l73 215h-145v338h262l99 281h352l-96 -281h126l99 281h352l-96 -281h94v-338zM758 856h-127l-74 -215h127z" />
    <glyph glyph-name="florin.tf" 
d="M807 1098v-133h285v-336h-285v-336q0 -135 -80 -214t-221 -79h-316v346h211q31 0 31 27v256h-227v336h227v215q0 135 81 215t218 80h383v-349l-280 -2q-27 -2 -27 -26z" />
    <glyph glyph-name="cent.tf" 
d="M825 193v-191h-313v191h-53q-135 1 -220 81t-85 215v508q0 135 87 216t218 81h53v179h313v-179h35q131 0 219 -82t88 -215v-172h-338v131q0 20 -28 21v-467q29 0 28 20v132h338v-173q0 -133 -86 -215t-221 -81h-35zM541 510v467h-19q-27 0 -26 -21v-426q0 -20 26 -20h19z
" />
    <glyph glyph-name="currency.tf" 
d="M788 297h-272q-39 0 -70 6l-188 -184l-223 221l186 180q-6 23 -6 74v319q0 45 4 68l-184 178l223 221l182 -178q35 6 76 6h272q43 0 76 -6l183 178l223 -221l-185 -178q8 -31 7 -68l-2 -321q0 -51 -7 -74l185 -178l-224 -221l-188 182q-45 -4 -68 -4zM774 610v283
q0 23 -26 22h-191q-27 0 -27 -22v-283q0 -23 27 -22h191q26 -1 26 22z" />
    <glyph glyph-name="dollar.tf" 
d="M893 -14h-100v-203h-301v203h-82q-135 0 -218 84t-83 217v213h362v-138q0 -20 29 -20h20v242l-108 22q-125 25 -215 108t-91 199v273q0 133 86 218t220 85h84v203h301v-203h73q132 0 220 -86t88 -217v-199h-365v123q0 20 -29 20h-12v-225q23 -7 71 -16q48 -11 80 -19
t49 -16t55 -26t77 -58q92 -82 92 -199v-284q0 -131 -84 -216t-219 -85zM477 1108v-131q0 -15 39 -23v176l-10 -2q-29 0 -29 -20zM821 362v144q0 18 -33 22l-24 7v-193h27q30 0 30 20z" />
    <glyph glyph-name="Euro.tf" 
d="M981 -8h-514q-137 0 -221 83t-84 216v231h-156v176h156v72h-156v178h156v238q0 131 85 215t220 84h514q135 0 219 -85t84 -214v-223h-375v145q0 27 -28 27h-318q-27 0 -26 -27v-160h319v-178h-319v-72h319v-176h-319v-155q0 -27 26 -27h318q29 0 28 27v145h375v-221
q0 -131 -83 -215t-220 -84z" />
    <glyph glyph-name="sterling.tf" 
d="M1212 0h-1179v348h121q47 0 47 47v146h-168v346h168v293q0 143 84 222t227 79h383q145 0 227 -82t82 -219v-211h-375v139q0 27 -28 27h-199q-27 0 -27 -27v-221h246v-346h-246v-193h637v-348z" />
    <glyph glyph-name="yen.tf" 
d="M1143 709v-177h-285l-16 -38v-9h301v-176h-301v-309h-375v309h-303v176h303v9l-18 38h-285v177h205l-349 766h410l223 -553l224 553h409l-348 -766h205z" />
    </font>
</defs>
</svg>
