<?xml version="1.0" standalone="no"?>
<!DOCTYPE svg PUBLIC "-//W3C//DTD SVG 1.1//EN" "http://www.w3.org/Graphics/SVG/1.1/DTD/svg11.dtd" >
<svg xmlns="http://www.w3.org/2000/svg">
<metadata>
Created by FontPrep 20130207 at Wed Jan 13 07:20:21 2016
 By Matthew Higley
Copyright A~A^(c) 2013 by Mattox Shuler. All rights reserved.
</metadata>
<defs>
<font id="c7d0e2ba3b85111febe4fc506b4c9654" horiz-adv-x='1024' >
  <font-face 
    font-family="Industry-Book"
    font-weight="400"
    font-stretch="normal"
    units-per-em="2048"
    panose-1="0 0 0 0 0 0 0 0 0 0"
    ascent="1622"
    descent="-426"
    x-height="1106"
    cap-height="1475"
    bbox="-305 -598 1907 1960"
    underline-thickness="102"
    underline-position="-100"
    unicode-range="U+0020-FB02"
  />
<missing-glyph horiz-adv-x="1269" 
 />
    <glyph glyph-name=".notdef" horiz-adv-x="1269" 
 />
    <glyph glyph-name=".null" horiz-adv-x="0" 
 />
    <glyph glyph-name="nonmarkingreturn" horiz-adv-x="681" 
 />
    <glyph glyph-name="space" unicode=" " horiz-adv-x="540" 
 />
    <glyph glyph-name="exclam" unicode="!" horiz-adv-x="606" 
d="M389 0h-172v197h172v-197zM344 406h-82l-49 1069h180z" />
    <glyph glyph-name="quotedbl" unicode="&#x22;" horiz-adv-x="776" 
d="M637 1475l-53 -467h-84l-54 467h191zM330 1475l-54 -467h-83l-54 467h191z" />
    <glyph glyph-name="numbersign" unicode="#" horiz-adv-x="1554" 
d="M1038 942h-413l-109 -385h414zM1319 557v-123h-287l-121 -434h-137l121 434h-414l-121 -434h-137l121 434h-250v123h285l108 385h-251v123h286l115 410h137l-115 -410h414l115 410h137l-115 -410h250v-123h-284l-109 -385h252z" />
    <glyph glyph-name="dollar" unicode="$" horiz-adv-x="1284" 
d="M977 285v186q0 88 -36 118t-114 46l-131 31v-545h131q68 0 109 47t41 117zM303 1196v-160q0 -88 44 -120q44 -33 104 -50l127 -30v518l-129 4q-66 2 -106 -44t-40 -118zM1124 285q0 -137 -76 -214t-217 -77h-126v-180h-132v180h-127q-139 0 -216 77t-76 214v145h147v-149
q0 -70 40 -116t110 -46h131v575l-127 31q-152 37 -223 98t-70 197v168q0 137 78 215t215 78h123v180h131v-180h106q137 0 215 -78t78 -215v-125h-147v129q0 72 -40 118t-106 46h-110v-549l126 -33q156 -41 225 -100t68 -195v-194z" />
    <glyph glyph-name="percent" unicode="%" horiz-adv-x="1302" 
d="M1092 135v283q0 43 -35 43h-152q-19 0 -31 -12t-12 -31v-285q0 -19 12 -31t31 -12h152q35 0 35 45zM885 563h186q53 0 92 -39t39 -92v-311q0 -53 -38 -91t-93 -38h-186q-55 0 -93 38t-38 91v311q0 53 39 92t92 39zM440 1055v282q0 43 -34 43h-152q-18 0 -30 -12t-13 -31
v-284q0 -19 12 -31t31 -12h152q34 0 34 45zM1100 1475l-778 -1475h-123l776 1475h125zM233 1483h187q53 0 92 -39t39 -92v-312q0 -53 -39 -92t-92 -39h-187q-53 0 -92 39t-39 92v312q0 53 39 92t92 39z" />
    <glyph glyph-name="ampersand" unicode="&#x26;" horiz-adv-x="1347" 
d="M956 688h-499q-96 0 -135 -39t-39 -112v-258q0 -68 41 -112t108 -44h375q69 0 109 44t40 112v409zM1104 283q0 -137 -77 -214t-216 -77h-375q-139 0 -218 76t-79 215v249q0 82 45 142t107 82q-135 72 -135 221v209q0 137 80 215q82 78 217 78h327q135 0 216 -78t81 -215
v-129h-147v133q0 72 -39 114t-107 42h-327q-68 0 -107 -42t-39 -114v-215q0 -82 34 -116t128 -34h807v-133l-176 -4v-405z" />
    <glyph glyph-name="quotesingle" unicode="'" horiz-adv-x="468" 
d="M330 1475l-54 -467h-83l-54 467h191z" />
    <glyph glyph-name="parenleft" unicode="(" horiz-adv-x="706" 
d="M342 1319v-1241q0 -66 40 -110t110 -44h79v-135h-79q-137 0 -216 78q-78 78 -77 213v1233q0 137 77 215q78 78 216 78h79v-136l-84 5q-63 2 -104 -41t-41 -115z" />
    <glyph glyph-name="parenright" unicode=")" horiz-adv-x="706" 
d="M135 1606h80q135 0 216 -78t81 -215v-1233q0 -137 -81 -214t-216 -77h-80v135h80q68 0 107 42t38 112v1241q0 68 -41 113q-42 45 -108 43l-76 -5v136z" />
    <glyph glyph-name="asterisk" unicode="*" horiz-adv-x="823" 
d="M668 881l-103 -74l-153 260l-154 -262l-102 76l200 227l-295 68l39 120l277 -122l-29 301h127l-29 -301l277 120l39 -120l-295 -66z" />
    <glyph glyph-name="plus" unicode="+" horiz-adv-x="1040" 
d="M459 373v323h-324v123h324v324h123v-324h323v-123h-323v-323h-123z" />
    <glyph glyph-name="comma" unicode="," horiz-adv-x="458" 
d="M319 201v-170q0 -39 -36 -95q-36 -57 -39 -69l-60 -117h-88l123 250h-80v201h180z" />
    <glyph glyph-name="hyphen" unicode="-" horiz-adv-x="868" 
d="M737 745v-139h-606v139h606z" />
    <glyph glyph-name="period" unicode="." horiz-adv-x="458" 
d="M319 0h-180v201h180v-201z" />
    <glyph glyph-name="slash" unicode="/" horiz-adv-x="950" 
d="M905 1618l-725 -1759h-135l725 1759h135z" />
    <glyph glyph-name="zero" unicode="0" 
d="M451 127h395q68 0 108 44t41 112v909q0 72 -39 114t-106 42h-395q-66 0 -106 -42t-40 -114l-8 -909q0 -68 40 -112t110 -44zM852 -6h-395q-139 0 -218 77t-79 214v901q0 137 80 215q82 78 217 78h395q137 0 215 -78t78 -215v-901q0 -137 -77 -214t-216 -77z" />
    <glyph glyph-name="one" unicode="1" horiz-adv-x="718" 
d="M350 0v1323l-248 -104v137l269 119h127v-1475h-148z" />
    <glyph glyph-name="two" unicode="2" horiz-adv-x="1228" 
d="M164 1055v133q0 137 78 215t215 78h340q137 0 215 -78t78 -215v-213q0 -45 -10 -73t-25 -66q-12 -23 -48 -49q-36 -25 -44 -31t-89 -45l-444 -213l-80 -41q-14 -5 -19 -11t-17 -13t-22 -27q-11 -20 -11 -44v-235h806v-133h-954v364q0 69 33 140q10 23 43 45q33 21 48 33
t87 47l82 36l360 175l76 34q14 6 20 12t16 12q32 20 32 71v213q0 70 -40 116t-110 45h-340q-68 1 -108 -43t-41 -112l20 -127h-147z" />
    <glyph glyph-name="three" unicode="3" horiz-adv-x="1247" 
d="M408 129h385q69 0 109 44t40 112v258q0 75 -39 113t-135 38h-352v133h352q94 0 128 34t34 118v215q0 72 -39 114t-107 42h-352q-68 0 -106 -42t-39 -114v-117h-148v113q0 137 78 215t215 78h352q137 0 215 -78t78 -215v-209q0 -150 -135 -221q60 -20 106 -80t46 -143
v-250q0 -137 -77 -214t-216 -77h-385q-139 0 -216 77t-77 214v112h147l-12 -114q0 -68 41 -112t109 -44z" />
    <glyph glyph-name="four" unicode="4" horiz-adv-x="1267" 
d="M831 504v780l-581 -780h581zM1194 369h-215v-369h-148v369h-757v114l737 992h168v-971h215v-135z" />
    <glyph glyph-name="five" unicode="5" horiz-adv-x="1218" 
d="M797 954q133 0 210 -76t76 -208v-383q-1 -139 -79 -215t-218 -76h-354q-139 0 -216 77t-77 214v121h148v-125q0 -68 41 -112t108 -44h355q69 0 109 44t40 112v383q0 68 -40 112t-112 43h-153q-113 0 -221 -63l-111 -66l-147 47v736h911v-136l-768 -2v-542l111 82
q104 78 221 77h166z" />
    <glyph glyph-name="six" unicode="6" horiz-adv-x="1261" 
d="M451 129h354q69 0 109 44t40 112v342q0 71 -39 113t-106 42h-170q-113 0 -221 -63l-111 -66l-6 -368q0 -68 40 -112t110 -44zM791 1350h-334q-68 0 -107 -42t-39 -114v-436l111 82q104 78 221 78h170q137 0 215 -81t78 -216v-334q0 -137 -77 -214t-216 -77h-354
q-139 0 -218 76t-79 215v901q0 139 81 216t216 77h334q137 0 215 -78t77 -215v-115h-147l-2 121q0 72 -40 114t-105 42z" />
    <glyph glyph-name="seven" unicode="7" horiz-adv-x="1126" 
d="M74 1339v136h975v-99l-668 -1376h-152l648 1339h-803z" />
    <glyph glyph-name="eight" unicode="8" horiz-adv-x="1290" 
d="M809 686h-352q-96 0 -135 -39t-39 -112v-254q0 -68 41 -112t108 -44h402q68 0 108 44t41 112v254q0 75 -39 113t-135 38zM307 1190v-219q0 -82 34 -116t128 -34h344q92 0 127 35t35 117v219q0 72 -39 114t-107 42l-376 -2q-68 0 -107 -42t-39 -114zM1124 1188v-213
q0 -152 -135 -221q61 -20 107 -80t45 -144v-245q0 -137 -79 -214t-218 -77h-402q-139 0 -218 77t-79 214v245q0 82 45 142t107 82q-135 70 -135 221v213q0 139 81 216t216 77h368q135 0 216 -77t81 -216z" />
    <glyph glyph-name="nine" unicode="9" horiz-adv-x="1261" 
d="M799 1348h-355q-68 0 -106 -42t-39 -114v-318q0 -68 41 -112t111 -43h165q113 0 222 63l110 66l-4 344q0 72 -40 114t-105 42zM469 127h334q69 0 109 44t40 112v460l-110 -81q-104 -78 -221 -78h-179q-131 0 -209 78t-77 208v318q0 137 77 215q78 78 216 78h354
q135 0 216 -77t81 -216v-901q0 -139 -79 -215t-218 -76h-334q-139 0 -216 77t-77 214v114h148l-5 -118q-2 -66 40 -111t110 -45z" />
    <glyph glyph-name="colon" unicode=":" horiz-adv-x="458" 
d="M319 0h-180v201h180v-201zM319 905h-180v201h180v-201z" />
    <glyph glyph-name="semicolon" unicode=";" horiz-adv-x="458" 
d="M319 899h-180v201h180v-201zM319 201v-170q0 -39 -36 -95q-36 -57 -39 -69l-60 -117h-88l123 250h-80v201h180z" />
    <glyph glyph-name="less" unicode="&#x3c;" horiz-adv-x="1040" 
d="M127 672v143l762 361v-132l-651 -301l651 -299v-131z" />
    <glyph glyph-name="equal" unicode="=" horiz-adv-x="1040" 
d="M905 657v-133h-770v133h770zM905 1008v-134h-770v134h770z" />
    <glyph glyph-name="greater" unicode="&#x3e;" horiz-adv-x="1040" 
d="M803 743l-651 301v132l761 -361v-143l-761 -359v131z" />
    <glyph glyph-name="question" unicode="?" horiz-adv-x="1140" 
d="M528 227v-223h-147v223h147zM1026 1194v-141q0 -61 -18 -107t-68 -86q-50 -42 -88 -64q-39 -22 -117 -59l-53 -26q-106 -53 -126 -80t-21 -58v-188h-148v184q1 57 17 86t22 43t31 32t35 30q10 10 40 26l209 107l29 14q8 3 31 17l24 12q16 8 25 16l18 19q12 12 18 39
q7 28 7 39v145q0 72 -39 114t-106 42h-392q-66 0 -106 -42t-39 -114v-145h-148v141q0 137 78 215t215 78l373 4q135 0 216 -78t81 -215z" />
    <glyph glyph-name="at" unicode="@" horiz-adv-x="1898" 
d="M821 926q-76 0 -119 -47t-43 -123v-365q0 -76 43 -123t119 -47h84q113 0 191 58l106 75v443l-106 71q-86 57 -191 58h-84zM1708 1194v-778q0 -137 -81 -215t-216 -78h-168l-41 147l-125 -96q-78 -59 -194 -59h-49q-135 0 -218 78q-80 78 -79 215v340q0 137 79 215
q82 78 218 77h49q117 0 194 -59l125 -96l41 147h82v-819h86q188 0 188 201v778q0 201 -188 201h-924q-188 0 -188 -201v-1227q0 -201 188 -201h1039v-94h-1039q-137 0 -215 78t-77 215v1227q0 137 77 215q78 78 215 78l924 4q135 0 216 -78t81 -215z" />
    <glyph glyph-name="A" unicode="A" horiz-adv-x="1343" 
d="M930 565l-258 752l-262 -752h520zM975 430h-613l-149 -430h-152l527 1475h168l526 -1475h-160z" />
    <glyph glyph-name="B" unicode="B" horiz-adv-x="1341" 
d="M340 133h549q69 0 109 44t40 112v246q0 75 -39 113t-135 38h-524v-553zM344 819h520q94 0 128 34t34 118v211q0 72 -39 114t-106 41h-537v-518zM1174 1180v-205q0 -152 -136 -221q60 -20 106 -80t46 -144v-237q0 -137 -78 -215t-215 -78h-700v1475l684 -2q137 0 215 -78
t78 -215z" />
    <glyph glyph-name="C" unicode="C" horiz-adv-x="1296" 
d="M866 -6h-417q-139 0 -219 77t-78 214v901q0 137 79 215q82 78 218 78h409q135 0 216 -78t81 -215v-156h-147v160q0 72 -40 114t-106 42h-409q-68 0 -107 -42t-39 -114v-909q0 -68 41 -112t109 -44h409q70 0 110 44t40 112v159h147v-155q0 -137 -79 -214t-218 -77z" />
    <glyph glyph-name="D" unicode="D" horiz-adv-x="1359" 
d="M344 131h555q68 0 109 44t41 112v893q0 72 -39 114t-107 41h-559v-1204zM1200 1178v-885q0 -137 -81 -215t-216 -78h-706v1475l706 -5q135 0 217 -77q80 -78 80 -215z" />
    <glyph glyph-name="E" unicode="E" horiz-adv-x="1216" 
d="M197 1475h907v-136h-760v-518h641v-135h-641v-551h760v-135h-907v1475z" />
    <glyph glyph-name="F" unicode="F" horiz-adv-x="1181" 
d="M197 0v1475h907v-136h-760v-534h641v-135h-641v-670h-147z" />
    <glyph glyph-name="G" unicode="G" horiz-adv-x="1331" 
d="M874 1350h-423q-66 0 -106 -42t-40 -114v-911q0 -68 40 -112t110 -44h424q69 0 109 44t40 112v338h-375v135h523v-469q0 -137 -77 -214t-216 -77h-424q-139 0 -218 76t-79 215v901q0 139 81 216t216 77h424q137 0 215 -78t78 -215v-135h-148l-8 141q-4 74 -41 115
t-105 41z" />
    <glyph glyph-name="H" unicode="H" horiz-adv-x="1421" 
d="M197 0v1475h147v-654h733v654h148v-1475h-148v686h-733v-686h-147z" />
    <glyph glyph-name="I" unicode="I" horiz-adv-x="540" 
d="M197 0v1475h147v-1475h-147z" />
    <glyph glyph-name="J" unicode="J" horiz-adv-x="1210" 
d="M735 -4h-356q-139 0 -216 77t-77 214v229h147v-233q0 -68 41 -112t109 -44h356q68 0 109 44t41 112v1192h147l-8 -1188q0 -137 -77 -214t-216 -77z" />
    <glyph glyph-name="K" unicode="K" horiz-adv-x="1366" 
d="M344 0h-147v1475h147v-881l735 881h185l-523 -609l568 -866h-172l-488 758l-305 -355v-403z" />
    <glyph glyph-name="L" unicode="L" horiz-adv-x="1134" 
d="M197 1475h147v-1340h709v-135h-856v1475z" />
    <glyph glyph-name="M" unicode="M" horiz-adv-x="1718" 
d="M1522 1475v-1475h-140v1264l-456 -1028h-133l-457 1028v-1264h-139v1475h180l479 -1069l485 1069h181z" />
    <glyph glyph-name="N" unicode="N" horiz-adv-x="1449" 
d="M1118 1475h135v-1475h-176l-745 1286v-1286h-135v1475h176l745 -1282v1282z" />
    <glyph glyph-name="O" unicode="O" horiz-adv-x="1349" 
d="M451 127h436q69 0 109 44t40 112v909q0 72 -39 114t-106 42h-436q-66 0 -106 -42t-40 -114l-8 -909q0 -68 40 -112t110 -44zM893 -6h-436q-139 0 -218 77t-79 214v901q0 137 80 215q82 78 217 78h436q137 0 215 -78t78 -215v-901q0 -137 -77 -214t-216 -77z" />
    <glyph glyph-name="P" unicode="P" horiz-adv-x="1294" 
d="M344 709h541q69 0 109 44t40 111v316q0 72 -40 114t-105 41h-545v-626zM1182 1178v-308q0 -137 -78 -215t-215 -77h-545v-578h-147v1475l692 -5q137 0 215 -78t78 -214z" />
    <glyph glyph-name="Q" unicode="Q" horiz-adv-x="1349" 
d="M887 1350h-436q-66 0 -106 -42t-40 -114v-909q0 -68 40 -112t110 -44h301l-105 225h133l105 -225h2q69 0 109 44t40 112l-8 909q0 72 -39 114t-106 42zM1186 1192v-901q0 -123 -62 -199t-172 -92l90 -195h-133l-90 193h-362q-139 0 -218 77t-79 214v901q0 137 80 215
q82 78 217 78l436 2q137 0 215 -78t78 -215z" />
    <glyph glyph-name="R" unicode="R" horiz-adv-x="1343" 
d="M342 743h539q69 0 109 44t40 112v281q0 72 -40 114t-105 41h-543v-592zM342 608v-610h-147v1472h690q135 0 217 -77q80 -78 80 -215v-273q0 -137 -71 -212t-204 -81l320 -612l-164 -2l-320 610h-401z" />
    <glyph glyph-name="S" unicode="S" horiz-adv-x="1284" 
d="M811 1358h-360q-68 0 -107 -45t-39 -117v-158q0 -88 44 -122t104 -48l381 -92q150 -37 222 -98t70 -197v-196q0 -137 -76 -214t-216 -77h-385q-139 0 -217 77t-76 214v145h147v-149q0 -70 40 -116t110 -46h385q68 0 108 47t41 117v184q0 88 -33 116t-116 48l-381 92
q-149 37 -221 98t-72 197v170q0 137 78 215t215 78h360q137 0 215 -78t78 -215v-125h-147l-7 131q-4 76 -42 120t-103 44z" />
    <glyph glyph-name="T" unicode="T" horiz-adv-x="1159" 
d="M1094 1339h-441v-1339h-147v1339h-440v136h1028v-136z" />
    <glyph glyph-name="U" unicode="U" horiz-adv-x="1351" 
d="M1178 1475v-1188q0 -139 -79 -215t-218 -76h-414q-139 0 -218 76t-79 215v1188h147v-1192q0 -68 40 -112t110 -44h414q69 0 109 44t40 112v1192h148z" />
    <glyph glyph-name="V" unicode="V" horiz-adv-x="1277" 
d="M1217 1475l-494 -1475h-168l-494 1475h160l418 -1313l426 1313h152z" />
    <glyph glyph-name="W" unicode="W" horiz-adv-x="1851" 
d="M1386 0h-151l-307 1231l-307 -1231h-156l-404 1475h156l326 -1274l317 1274h135l318 -1274l325 1274h152z" />
    <glyph glyph-name="X" unicode="X" horiz-adv-x="1257" 
d="M1030 0l-409 631l-408 -631h-156l486 752l-469 723h170l391 -603l389 603h160l-469 -727l485 -748h-170z" />
    <glyph glyph-name="Y" unicode="Y" horiz-adv-x="1232" 
d="M690 0h-147v549l-510 926h168l415 -773l416 773h168l-510 -926v-549z" />
    <glyph glyph-name="Z" unicode="Z" horiz-adv-x="1220" 
d="M156 1339v136h944v-109l-801 -1231h797v-135h-975v109l801 1230h-766z" />
    <glyph glyph-name="bracketleft" unicode="[" horiz-adv-x="722" 
d="M344 1470v-1550h244v-135h-391v1821h391v-136h-244z" />
    <glyph glyph-name="backslash" unicode="\" horiz-adv-x="950" 
d="M905 -141h-135l-725 1759h135z" />
    <glyph glyph-name="bracketright" unicode="]" horiz-adv-x="722" 
d="M135 1606h391v-1821h-391v135h244v1550h-244v136z" />
    <glyph glyph-name="asciicircum" unicode="^" horiz-adv-x="1040" 
d="M436 1475h168l256 -504h-131l-209 413l-209 -413h-131z" />
    <glyph glyph-name="underscore" unicode="_" horiz-adv-x="1138" 
d="M1126 -88v-115h-1114v115h1114z" />
    <glyph glyph-name="grave" unicode="`" horiz-adv-x="1234" 
d="M805 1610h-98l-265 295h179z" />
    <glyph glyph-name="a" unicode="a" horiz-adv-x="1110" 
d="M240 379v-107q0 -70 40 -116t111 -45h98q113 0 222 63l110 66v305l-430 -4q-71 0 -111 -46t-40 -116zM961 823v-825h-140v149l-110 -81q-102 -76 -222 -76h-102q-133 0 -210 77t-77 207v99q0 131 78 209t209 77h55q137 0 381 -36v206q0 70 -41 117t-110 47h-242
q-72 0 -112 -46t-39 -116v-14h-140v10q0 131 79 210t208 77l248 -4q135 -4 211 -80t76 -207z" />
    <glyph glyph-name="b" unicode="b" horiz-adv-x="1159" 
d="M889 279v548q0 70 -41 117t-111 47h-106q-113 0 -221 -63l-111 -66v-618l111 -66q109 -63 221 -63h106q70 0 111 47t41 117zM631 1114h110q131 0 209 -78t78 -209v-548q0 -131 -77 -208t-210 -77h-110q-119 0 -221 76l-111 82v-152h-139v1530h139v-576l111 82
q104 78 221 78z" />
    <glyph glyph-name="c" unicode="c" horiz-adv-x="1085" 
d="M131 274v549q0 131 78 209t209 78h274q131 0 209 -78t78 -209v-65h-139v65q0 70 -41 117t-111 47h-266q-72 0 -112 -46t-40 -116v-549q0 -70 40 -116t112 -45h266q70 0 111 47t41 117v65h139v-65q0 -131 -75 -206t-212 -79l-274 -4q-131 -2 -209 76t-78 208z" />
    <glyph glyph-name="d" unicode="d" horiz-adv-x="1159" 
d="M528 987h-106q-72 0 -112 -46t-40 -116v-549q0 -70 40 -116t112 -45h106q113 0 222 63l110 66v618l-110 62q-115 63 -222 63zM999 0h-139v152l-110 -82q-102 -76 -222 -76h-110q-133 0 -210 77t-77 208v548q0 131 78 209t209 78h110q117 0 222 -78l110 -82v576h139v-1530
z" />
    <glyph glyph-name="e" unicode="e" horiz-adv-x="1105" 
d="M270 829v-190h574v190q0 70 -41 117t-111 47l-270 -2q-72 0 -112 -46t-40 -116zM270 522v-250q0 -70 40 -116t112 -45h270q70 0 111 47t41 116v72h139v-67q0 -131 -77 -208t-210 -77h-278q-133 0 -210 77t-77 208v548q0 131 78 209t209 78h278q131 0 209 -78t78 -209
v-305h-713z" />
    <glyph glyph-name="f" unicode="f" horiz-adv-x="772" 
d="M393 1247v-141h334v-117h-332v-989h-139v989h-195v117h197v137q0 131 78 209t209 78h182v-119l-182 -2q-72 0 -112 -46t-40 -116z" />
    <glyph glyph-name="g" unicode="g" horiz-adv-x="1159" 
d="M528 985h-106q-72 0 -112 -46t-40 -116v-483q0 -70 40 -116t112 -46h106q113 0 222 64l110 65v553l-110 62q-115 63 -222 63zM999 1106v-1217q1 -131 -77 -209t-209 -77h-267q-130 0 -208 78t-78 208v13h139v-19q0 -69 40 -115t112 -47h258q71 -1 111 47t40 117v332
l-110 -82q-104 -78 -222 -78h-110q-131 0 -209 78t-78 209v483q0 131 78 209t209 78h110q117 0 222 -78l110 -82v152h139z" />
    <glyph glyph-name="h" unicode="h" horiz-adv-x="1150" 
d="M864 0v827q0 70 -41 117t-110 47h-82q-113 0 -221 -63l-111 -66v-862h-139v1530h139v-576l111 82q104 78 221 78h86q131 0 209 -78t78 -209v-827h-140z" />
    <glyph glyph-name="i" unicode="i" horiz-adv-x="483" 
d="M311 1106v-1106h-139v1106h139zM322 1350h-160v180h160v-180z" />
    <glyph glyph-name="j" unicode="j" horiz-adv-x="483" 
d="M311 1106v-1219q0 -131 -78 -209t-208 -77h-93v123h88q70 0 111 47t41 116v1219h139zM322 1350h-160v180h160v-180z" />
    <glyph glyph-name="k" unicode="k" horiz-adv-x="1062" 
d="M299 0h-139v1475h139v-983l512 614h170l-360 -418l393 -688h-156l-323 588l-236 -273v-315z" />
    <glyph glyph-name="l" unicode="l" horiz-adv-x="479" 
d="M172 1530h135v-1530h-135v1530z" />
    <glyph glyph-name="m" unicode="m" horiz-adv-x="1748" 
d="M1294 1114h45q131 0 209 -78t78 -209v-827h-139v827q0 70 -41 117t-111 47h-41q-113 0 -221 -63l-112 -66l2 -35v-827h-140v827q0 70 -41 117t-110 47h-41q-113 0 -221 -63l-111 -66v-862h-139v1106h139v-152l111 82q104 78 221 78h45q209 0 268 -172l129 94
q108 78 221 78z" />
    <glyph glyph-name="n" unicode="n" horiz-adv-x="1150" 
d="M864 0v827q0 70 -41 117t-110 47h-82q-113 0 -221 -63l-111 -66v-862h-139v1106h139v-152l111 82q104 78 221 78h86q131 0 209 -78t78 -209v-827h-140z" />
    <glyph glyph-name="o" unicode="o" horiz-adv-x="1124" 
d="M852 274v553q0 70 -41 117t-111 47h-280q-72 0 -112 -46t-40 -116v-557q0 -70 40 -116t112 -45h280q70 1 111 47t41 116zM418 1114h287q131 0 209 -78t77 -209v-548q0 -133 -76 -209t-208 -76h-289q-133 0 -210 77t-77 208v548q0 131 78 209t209 78z" />
    <glyph glyph-name="p" unicode="p" horiz-adv-x="1159" 
d="M889 279v548q0 70 -41 117t-111 47h-106q-113 0 -221 -63l-111 -66v-618l111 -66q109 -63 221 -63h106q70 0 111 47t41 117zM631 1114h110q131 0 209 -78t78 -209v-548q0 -131 -77 -208t-210 -77h-110q-119 0 -221 76l-111 82v-539h-139v1493h139v-152l111 82
q104 78 221 78z" />
    <glyph glyph-name="q" unicode="q" horiz-adv-x="1159" 
d="M270 825v-549q0 -70 40 -116t112 -45h106q113 0 222 63l110 66v618l-110 66q-116 65 -222 63l-106 -4q-74 -4 -113 -48t-39 -114zM418 1114h110q117 0 222 -78l110 -82v152h139v-1493h-139v539l-110 -82q-102 -76 -222 -76h-110q-133 0 -210 77t-77 208v548q0 131 78 209
t209 78z" />
    <glyph glyph-name="r" unicode="r" horiz-adv-x="786" 
d="M729 985h-98q-113 0 -221 -63l-111 -66v-856h-139v1106h139v-152l111 82q104 78 221 78h98v-129z" />
    <glyph glyph-name="s" unicode="s" horiz-adv-x="1060" 
d="M649 997h-254q-135 0 -135 -153v-68q0 -57 29 -80t98 -34l322 -54q123 -23 180 -77t57 -160v-113q0 -127 -68 -196t-198 -68h-307q-129 0 -198 68t-69 196v76h136v-72q0 -154 135 -153h299q131 0 131 153v107q0 57 -29 80t-98 34l-322 54q-123 23 -180 77t-57 160v74
q0 126 71 196t197 70h266q127 0 198 -71t71 -195v-57h-136l-4 53q-6 78 -38 116t-97 37z" />
    <glyph glyph-name="t" unicode="t" horiz-adv-x="837" 
d="M541 119h213v-119h-217q-131 0 -208 77t-77 210v702h-195v117h197v369h135v-369h367v-117h-365l-2 -708q0 -70 40 -116t112 -46z" />
    <glyph glyph-name="u" unicode="u" horiz-adv-x="1150" 
d="M287 1106v-830q0 -70 40 -116t111 -45h82q113 0 221 63l111 66v862h139v-1106h-139v152l-111 -82q-102 -76 -221 -76h-86q-133 0 -210 77t-77 208v827h140z" />
    <glyph glyph-name="v" unicode="v" horiz-adv-x="995" 
d="M954 1106l-368 -1106h-176l-369 1106h152l309 -997l309 997h143z" />
    <glyph glyph-name="w" unicode="w" horiz-adv-x="1519" 
d="M1141 0h-152l-227 901l-227 -901h-156l-338 1106h141l275 -977l239 977h131l240 -977l279 977h133z" />
    <glyph glyph-name="x" unicode="x" horiz-adv-x="1021" 
d="M825 0l-323 457l-314 -457h-149l389 563l-385 543h156l313 -444l305 444h152l-379 -553l391 -553h-156z" />
    <glyph glyph-name="y" unicode="y" horiz-adv-x="995" 
d="M954 1106l-510 -1493h-131l131 387l-403 1106h147l312 -936l315 936h139z" />
    <glyph glyph-name="z" unicode="z" horiz-adv-x="937" 
d="M111 987v119h745v-86l-604 -901h596v-119h-766v86l602 901h-573z" />
    <glyph glyph-name="braceleft" unicode="{" horiz-adv-x="806" 
d="M442 494v-416q0 -66 41 -110t109 -44h80v-135h-80q-135 0 -216 77t-81 214v412q0 156 -148 155h-34v127h34q147 0 148 156v383q0 137 80 215q82 78 217 78h80v-136h-80q-68 0 -109 -44t-41 -111l-2 -381q0 -158 -145 -219q147 -76 147 -221z" />
    <glyph glyph-name="bar" unicode="|" horiz-adv-x="618" 
d="M250 1612h119v-2052h-119v2052z" />
    <glyph glyph-name="braceright" unicode="}" horiz-adv-x="806" 
d="M213 1464h-80v135h80q135 -1 216 -77t81 -215v-383q0 -156 147 -156h35v-127h-35q-147 0 -147 -156v-411q0 -135 -81 -213t-216 -78h-80v135h80q70 0 110 44t39 110v415q0 143 148 222q-145 61 -145 219l-3 381q0 67 -40 111t-109 44z" />
    <glyph glyph-name="asciitilde" unicode="~" horiz-adv-x="1040" 
d="M313 672l-41 -121h-110l57 174q31 88 125 63l379 -102l41 117h115l-62 -176q-31 -86 -123 -62z" />
    <glyph glyph-name="exclamdown" unicode="&#xa1;" horiz-adv-x="606" 
d="M262 700h82l49 -1067h-180zM217 1106h172v-197h-172v197z" />
    <glyph glyph-name="cent" unicode="&#xa2;" horiz-adv-x="1130" 
d="M287 985v-487q0 -70 40 -116t111 -46h74v815l-74 -4q-74 -4 -112 -48t-39 -114zM848 930v57q0 70 -41 117t-111 47h-73v-815h73q70 0 111 47t41 117v57h143v-57q0 -137 -78 -215t-215 -78h-69v-205h-119v205h-70q-137 0 -215 78t-78 215v487q0 137 78 215t215 78h70v193
h119v-193h69q137 0 215 -78t78 -215v-57h-143z" />
    <glyph glyph-name="sterling" unicode="&#xa3;" horiz-adv-x="1275" 
d="M74 0v135h106q61 0 62 62v450h-168v131h168v410q0 137 77 215q78 78 216 78h301q135 0 216 -77t81 -216v-156h-148v160q0 72 -40 114t-105 42h-301q-68 0 -107 -42t-39 -114v-414h443v-131h-443v-512h752l-4 -135h-1067z" />
    <glyph glyph-name="currency" unicode="&#xa4;" horiz-adv-x="1243" 
d="M881 594v311q0 70 -41 117t-111 47h-215q-72 0 -112 -46t-40 -116v-311q0 -70 40 -116t112 -46l215 -4q70 0 111 47t41 117zM1024 909v-311q0 -96 -39 -166l156 -156l-92 -94l-158 158q-68 -37 -162 -37h-215q-94 0 -162 37l-157 -158l-93 94l156 156q-39 70 -39 166v311
q0 94 37 162l-154 154l93 94l153 -154q70 39 166 39h215q96 0 166 -39l154 154l92 -94l-154 -154q37 -68 37 -162z" />
    <glyph glyph-name="yen" unicode="&#xa5;" horiz-adv-x="1232" 
d="M1036 692v-127h-346v-123h346v-127h-346v-315h-147v315h-346v127h346v123h-346v127h274l-438 783h168l415 -756l416 756h168l-438 -783h274z" />
    <glyph glyph-name="brokenbar" unicode="&#xa6;" horiz-adv-x="618" 
d="M369 -440h-119v809h119v-809zM250 1612h119v-811h-119v811z" />
    <glyph glyph-name="section" unicode="&#xa7;" horiz-adv-x="1095" 
d="M834 575v119q0 94 -127 117l-345 57q-46 -8 -70 -51t-24 -100v-115q0 -100 127 -123l336 -55q47 6 75 48t28 103zM674 1364h-262q-64 0 -98 -42t-33 -112v-102q0 -100 127 -123l329 -53q102 -14 167 -80t65 -160v-123q0 -143 -92 -215q78 -68 77 -170v-114
q0 -125 -70 -195t-196 -70h-303q-127 0 -197 70t-69 195v75h131v-71q0 -62 37 -106t100 -44h303q63 0 98 44t35 108v110q0 94 -127 117l-321 53q-100 14 -169 81t-69 157v127q0 143 92 215q-78 68 -77 166v115q0 127 70 197t196 69h262q127 0 197 -70t69 -196v-46h-131
l-4 41q0 66 -37 109t-100 43z" />
    <glyph glyph-name="dieresis" unicode="&#xa8;" horiz-adv-x="1310" 
d="M909 1618h-159v205h159v-205zM561 1618h-160v205h160v-205z" />
    <glyph glyph-name="copyright" unicode="&#xa9;" horiz-adv-x="1734" 
d="M758 1200h217q105 0 165 -59t60 -166v-94h-131v94q0 106 -90 106h-225q-90 0 -90 -106v-475q0 -106 90 -107h225q90 0 90 107v94h131v-94q0 -106 -59 -166t-166 -60h-217q-106 0 -166 60t-60 166v475q0 105 60 165t166 60zM1436 287v901q0 94 -50 147t-141 54h-760
q-92 1 -141 -53t-49 -148v-901q0 -93 49 -147t141 -54h760q91 0 141 54t50 147zM487 1483h760q135 0 216 -78t81 -215v-901q0 -137 -79 -214t-218 -77h-760q-139 0 -216 77t-76 214v901q0 137 77 215q78 78 215 78z" />
    <glyph glyph-name="ordfeminine" unicode="&#xaa;" horiz-adv-x="768" 
d="M666 612v-98h-547v98h547zM209 940q1 -43 25 -70t67 -26h57q76 0 136 41l63 43v168l-256 -2q-43 0 -68 -29t-24 -72v-53zM664 752h-107v96l-74 -62q-47 -41 -129 -41h-65q-84 -1 -135 51t-52 136v65q0 85 50 135t135 50h35q106 0 235 -25v121q0 45 -25 73t-65 27h-143
q-43 0 -68 -28t-25 -68v-8h-108v18q0 84 52 136t134 51l168 -4q88 -3 137 -53t50 -134v-536z" />
    <glyph glyph-name="guillemotleft" unicode="&#xab;" horiz-adv-x="847" 
d="M774 1145l-289 -426l289 -424h-147l-262 383v82l262 385h147zM467 1145l-289 -426l289 -424h-148l-262 383v82l262 385h148z" />
    <glyph glyph-name="registered" unicode="&#xae;" horiz-adv-x="847" 
d="M324 1116h159q33 0 33 33v92q0 35 -33 35h-159v-160zM571 1243v-92q-1 -41 -25 -66t-61 -20l97 -180h-60l-98 180h-100v-180h-56v446h215q88 0 88 -88zM246 1425q-39 0 -58 -24q-18 -25 -18 -51v-484q0 -28 18 -52t60 -23h348q42 0 60 24t18 53l-4 480q0 30 -18 54
t-58 23h-348zM250 1483h348q53 0 92 -39t39 -92v-484q0 -53 -39 -92t-92 -39h-348q-53 0 -92 39t-39 92v484q0 53 39 92t92 39z" />
    <glyph glyph-name="macron" unicode="&#xaf;" horiz-adv-x="1220" 
d="M872 1753v-123h-524v123h524z" />
    <glyph glyph-name="degree" unicode="&#xb0;" horiz-adv-x="679" 
d="M229 1364v-217q0 -25 25 -25h164q25 0 24 25v217q0 25 -24 25h-164q-25 0 -25 -25zM141 1126v258q0 41 25 66t65 25h213q41 0 66 -25t25 -64v-258q0 -40 -25 -64t-64 -24l-217 -4q-39 0 -63 25t-25 65z" />
    <glyph glyph-name="plusminus" unicode="&#xb1;" horiz-adv-x="1040" 
d="M135 373h770v-123h-770v123zM459 475v324h-324v123h324v323h123v-323h323v-123h-323v-324h-123z" />
    <glyph glyph-name="twosuperior" unicode="&#xb2;" horiz-adv-x="679" 
d="M199 1536v-53h-117v73q0 66 46 106t116 40h207q69 0 115 -40t46 -106v-120q0 -39 -26 -69t-58 -44t-77 -31l-197 -71q-47 -16 -49 -19q-14 -8 -15 -31v-90h426v-112h-544v223q0 41 26 70q26 28 58 42t77 31l197 72q47 16 49 18q14 8 15 31v78q0 57 -64 57h-168
q-63 0 -63 -55z" />
    <glyph glyph-name="threesuperior" unicode="&#xb3;" horiz-adv-x="686" 
d="M242 1069h184q63 0 63 55v109q0 55 -75 55h-176v105h176q41 0 55 12t14 43v90q0 55 -63 55h-166q-66 0 -66 -55v-51h-118v69q0 62 47 104t116 42h207q70 0 116 -40t46 -106v-106q0 -70 -72 -111q80 -31 80 -110v-123q0 -66 -46 -106t-115 -39h-226q-70 -1 -116 39
t-46 106v70h119l-2 -52q-4 -55 64 -55z" />
    <glyph glyph-name="acute" unicode="&#xb4;" horiz-adv-x="1222" 
d="M528 1610h-98l184 295h179z" />
    <glyph glyph-name="paragraph" unicode="&#xb6;" horiz-adv-x="1464" 
d="M1120 1343h-147v-1339h-148v594h-401q-135 0 -217 78q-80 78 -80 215v291q0 137 80 215q82 78 217 78h844v-1475l-148 4v1339z" />
    <glyph glyph-name="periodcentered" unicode="&#xb7;" horiz-adv-x="475" 
d="M328 575h-181v201h181v-201z" />
    <glyph glyph-name="cedilla" unicode="&#xb8;" horiz-adv-x="1157" 
d="M651 -326q27 0 36 10t9 44v20q0 35 -9 44t-36 9h-252l103 199h110l-51 -100h74q82 0 128 -40t46 -112v-20q0 -74 -45 -113t-125 -39h-190l-107 98h309z" />
    <glyph glyph-name="onesuperior" unicode="&#xb9;" horiz-adv-x="425" 
d="M193 963v614l-142 -49v102l164 70h96v-737h-118z" />
    <glyph glyph-name="ordmasculine" unicode="&#xba;" horiz-adv-x="774" 
d="M653 610v-98h-536v98h536zM301 1374q-41 0 -65 -28t-25 -68v-336q0 -41 25 -69t65 -27h172q41 0 65 28t25 72l-2 328q-1 45 -25 73t-63 27h-172zM289 1479h196q83 1 135 -51t52 -136v-356q0 -84 -51 -135t-136 -51h-196q-84 0 -135 51t-52 135v356q0 84 52 136t135 51z
" />
    <glyph glyph-name="guillemotright" unicode="&#xbb;" horiz-adv-x="847" 
d="M791 760v-82l-263 -383h-147l289 424l-289 426h147zM483 760v-82l-262 -383h-147l288 424l-288 426h147z" />
    <glyph glyph-name="onequarter" unicode="&#xbc;" horiz-adv-x="1339" 
d="M193 737v615l-142 -49v102l164 70h96v-738h-118zM1020 1475l-782 -1475h-119l782 1475h119zM1051 268v299l-269 -299h269zM1284 162h-117v-162h-116v162h-396l-16 90l416 485h112v-469h117v-106z" />
    <glyph glyph-name="onehalf" unicode="&#xbd;" horiz-adv-x="1392" 
d="M193 737v615l-142 -49v102l164 70h96v-738h-118zM1020 1475l-782 -1475h-119l782 1475h119zM911 520h-116v74q0 66 46 106t115 39h207q70 0 116 -40t46 -105v-121q0 -39 -26 -69q-27 -30 -59 -43q-32 -14 -77 -31l-196 -72q-47 -16 -49 -18q-14 -8 -15 -31v-90h426v-113
h-545v223q0 41 26 70t58 43t78 31l197 71q47 16 49 19q14 8 14 31v77q0 57 -63 58h-168q-63 0 -64 -56v-53z" />
    <glyph glyph-name="threequarters" unicode="&#xbe;" horiz-adv-x="1599" 
d="M1278 1475l-782 -1475h-119l782 1475h119zM1309 268v299l-269 -299h269zM1542 162h-117v-162h-116v162h-396l-16 90l416 485h112v-469h117v-106zM242 844h184q63 0 63 55v109q0 55 -75 55h-176v104h176q41 1 55 13t14 43v90q0 55 -63 55h-166q-66 0 -66 -55v-51h-118v69
q0 63 47 105t116 41h207q70 0 116 -40t46 -106v-106q0 -70 -72 -111q80 -31 80 -110v-123q0 -66 -46 -106t-115 -40h-226q-70 0 -116 40t-46 106v69h119l-2 -51q-4 -55 64 -55z" />
    <glyph glyph-name="questiondown" unicode="&#xbf;" horiz-adv-x="1140" 
d="M102 -94v139q0 61 18 107t68 86q49 42 88 64t117 58l53 27q106 53 127 80q20 27 21 57v189h147v-185q0 -63 -14 -89t-20 -40t-31 -32q-25 -17 -32 -25t-44 -29l-96 -51l-193 -94q-16 -8 -24 -16l-19 -19q-24 -24 -24 -76v-143q0 -68 40 -112t109 -44h391q68 0 109 44
t41 112v143h147v-139q0 -139 -79 -214t-218 -79l-389 -12q-135 -2 -214 77t-79 216zM594 883v223h147v-223h-147z" />
    <glyph glyph-name="Agrave" unicode="&#xc0;" horiz-adv-x="1343" 
d="M930 565l-258 752l-262 -752h520zM975 430h-613l-149 -430h-152l527 1475h168l526 -1475h-160zM655 1610l-264 295h178l185 -295h-99z" />
    <glyph glyph-name="Aacute" unicode="&#xc1;" horiz-adv-x="1343" 
d="M668 1610h-99l185 295h178zM930 565l-258 752l-262 -752h520zM975 430h-613l-149 -430h-152l527 1475h168l526 -1475h-160z" />
    <glyph glyph-name="Acircumflex" unicode="&#xc2;" horiz-adv-x="1343" 
d="M930 565l-258 752l-262 -752h520zM975 430h-613l-149 -430h-152l527 1475h168l526 -1475h-160zM457 1610h-101l234 245h147l234 -245h-101l-206 155z" />
    <glyph glyph-name="Atilde" unicode="&#xc3;" horiz-adv-x="1343" 
d="M932 561l-258 752l-262 -752h520zM977 426h-612l-150 -428h-152l527 1472h168l526 -1472h-160zM487 1610l-108 -4l41 194q10 43 41 60q33 16 78 -2l278 -119l39 121h115l-45 -197q-8 -41 -42 -55t-77 4l-283 123z" />
    <glyph glyph-name="Adieresis" unicode="&#xc4;" horiz-adv-x="1343" 
d="M918 1618h-160v205h160v-205zM569 1618h-159v205h159v-205zM930 565l-258 752l-262 -752h520zM975 430h-613l-149 -430h-152l527 1475h168l526 -1475h-160z" />
    <glyph glyph-name="Aring" unicode="&#xc5;" horiz-adv-x="1343" 
d="M565 1823v-119q0 -25 25 -25h139q25 0 25 25v119q0 25 -25 24h-139q-25 1 -25 -24zM492 1677v176q0 27 22 50q23 23 49 22h197q28 1 50 -21t21 -49v-176q0 -29 -20 -49t-49 -20l-201 -4q-27 0 -48 21t-21 50zM930 565l-258 752l-262 -752h520zM975 430h-613l-149 -430
h-152l527 1475h168l526 -1475h-160z" />
    <glyph glyph-name="AE" unicode="&#xc6;" horiz-adv-x="1992" 
d="M952 565v774h-94l-387 -774h481zM1100 1339v-514h678v-135h-678v-555h780v-135h-928v430h-549l-215 -430h-163l751 1475h1104v-136h-780z" />
    <glyph glyph-name="Ccedilla" unicode="&#xc7;" horiz-adv-x="1296" 
d="M856 1348h-410q-66 0 -106 -42t-39 -114v-909q0 -68 40 -112t110 -44h409q70 0 110 44t40 112v159h147v-155q0 -139 -79 -215t-218 -76h-137l-47 -94h74q82 0 128 -40t46 -112v-20q0 -74 -45 -113t-125 -39h-191l-102 98h309q27 0 36 10t9 44v20q0 35 -9 44t-36 9h-252
l98 193h-161q-139 0 -218 76t-79 215v901q0 139 81 216t216 77h409q135 0 216 -77t81 -216v-156h-147l-13 160q-12 156 -145 156z" />
    <glyph glyph-name="Egrave" unicode="&#xc8;" horiz-adv-x="1216" 
d="M1104 1475v-136h-760v-518h641v-135h-641v-551h760v-135h-907v1475h907zM729 1610h-98l-264 295h178z" />
    <glyph glyph-name="Eacute" unicode="&#xc9;" horiz-adv-x="1216" 
d="M643 1610h-98l184 295h178zM197 1475h907v-136h-760v-518h641v-135h-641v-551h760v-135h-907v1475z" />
    <glyph glyph-name="Ecircumflex" unicode="&#xca;" horiz-adv-x="1216" 
d="M1104 1475v-136h-760v-518h641v-135h-641v-551h760v-135h-907v1475h907zM639 1765l-207 -155h-100l233 245h148l233 -245h-100z" />
    <glyph glyph-name="Edieresis" unicode="&#xcb;" horiz-adv-x="1216" 
d="M893 1618h-160v205h160v-205zM545 1618h-160v205h160v-205zM197 1475h907v-136h-760v-518h641v-135h-641v-551h760v-135h-907v1475z" />
    <glyph glyph-name="Igrave" unicode="&#xcc;" horiz-adv-x="540" 
d="M197 1475h147v-1475h-147v1475zM352 1610h-98l-262 295h176z" />
    <glyph glyph-name="Iacute" unicode="&#xcd;" horiz-adv-x="540" 
d="M266 1610h-98l184 295h178zM197 0v1475h147v-1475h-147z" />
    <glyph glyph-name="Icircumflex" unicode="&#xce;" horiz-adv-x="540" 
d="M197 1475h147v-1475h-147v1475zM262 1765l-207 -155h-98l231 245h148l233 -245h-100z" />
    <glyph glyph-name="Idieresis" unicode="&#xcf;" horiz-adv-x="540" 
d="M197 0v1475h147v-1475h-147zM516 1618h-160v205h160v-205zM168 1618h-160v205h160v-205z" />
    <glyph glyph-name="Eth" unicode="&#xd0;" horiz-adv-x="1349" 
d="M901 1335h-559v-526h182v-135h-182v-543h559q70 0 110 44t40 112l-4 893q0 72 -40 114t-106 41zM1200 1178v-885q0 -137 -81 -215t-216 -78h-706v678h-183v135h183v662l706 -5q135 0 217 -77q80 -78 80 -215z" />
    <glyph glyph-name="Ntilde" unicode="&#xd1;" horiz-adv-x="1449" 
d="M586 1733l-35 -123h-111l41 194q8 40 40 56t79 -2l279 -119l39 121h114l-45 -197q-8 -41 -43 -56t-76 3zM1251 1473v-1473h-176l-745 1284v-1284h-135v1473h176l745 -1283v1283h135z" />
    <glyph glyph-name="Ograve" unicode="&#xd2;" horiz-adv-x="1349" 
d="M457 -6q-139 0 -218 77t-79 214v901q0 137 80 215q82 78 217 78h436q137 0 215 -78t78 -215v-901q0 -137 -77 -214t-216 -77h-436zM451 127h436q69 0 109 44t40 112v909q0 72 -39 114t-106 42h-436q-66 0 -106 -42t-40 -114l-8 -909q0 -68 40 -112t110 -44zM750 1610h-99
l-264 295h178z" />
    <glyph glyph-name="Oacute" unicode="&#xd3;" horiz-adv-x="1349" 
d="M664 1610h-99l185 295h178zM451 127h436q69 0 109 44t40 112v909q0 72 -39 114t-106 42h-436q-66 0 -106 -42t-40 -114l-8 -909q0 -68 40 -112t110 -44zM893 -6h-436q-139 0 -218 77t-79 214v901q0 137 80 215q82 78 217 78h436q137 0 215 -78t78 -215v-901
q0 -137 -77 -214t-216 -77z" />
    <glyph glyph-name="Ocircumflex" unicode="&#xd4;" horiz-adv-x="1349" 
d="M457 -6q-139 0 -218 77t-79 214v901q0 137 80 215q82 78 217 78h436q137 0 215 -78t78 -215v-901q0 -137 -77 -214t-216 -77h-436zM451 127h436q69 0 109 44t40 112v909q0 72 -39 114t-106 42h-436q-66 0 -106 -42t-40 -114l-8 -909q0 -68 40 -112t110 -44zM659 1765
l-206 -155h-101l234 245h147l234 -245h-101z" />
    <glyph glyph-name="Otilde" unicode="&#xd5;" horiz-adv-x="1349" 
d="M457 -6q-139 0 -218 77t-79 214v901q0 137 80 215q82 78 217 78h436q137 0 215 -78t78 -215v-901q0 -137 -77 -214t-216 -77h-436zM451 127h436q69 0 109 44t40 112v909q0 72 -39 114t-106 42h-436q-66 0 -106 -42t-40 -114l-8 -909q0 -68 40 -112t110 -44zM518 1733
l-35 -123h-110l41 194q8 40 40 56t78 -2l279 -119l39 121h115l-45 -197q-10 -41 -44 -56t-75 3z" />
    <glyph glyph-name="Odieresis" unicode="&#xd6;" horiz-adv-x="1349" 
d="M913 1618h-159v205h159v-205zM565 1618h-159v205h159v-205zM451 127h436q69 0 109 44t40 112v909q0 72 -39 114t-106 42h-436q-66 0 -106 -42t-40 -114l-8 -909q0 -68 40 -112t110 -44zM893 -6h-436q-139 0 -218 77t-79 214v901q0 137 80 215q82 78 217 78h436
q137 0 215 -78t78 -215v-901q0 -137 -77 -214t-216 -77z" />
    <glyph glyph-name="multiply" unicode="&#xd7;" horiz-adv-x="1040" 
d="M606 684l268 -268l-86 -86l-266 266l-268 -270l-86 86l268 270l-268 268l86 86l266 -266l268 270l86 -86z" />
    <glyph glyph-name="Oslash" unicode="&#xd8;" horiz-adv-x="1349" 
d="M453 127h436q69 0 109 44t40 112l-4 909q0 39 -12 70l-600 -1133q6 -2 31 -2zM455 1348q-66 0 -106 -42t-40 -114l-2 -909q0 -37 8 -60l596 1123l-20 2h-436zM457 1483h436q137 0 215 -78t78 -215v-901q0 -137 -77 -214t-216 -77h-436q-139 0 -218 77t-79 214v901
q0 137 80 215q82 78 217 78z" />
    <glyph glyph-name="Ugrave" unicode="&#xd9;" horiz-adv-x="1351" 
d="M1178 287q0 -139 -79 -215t-218 -76h-414q-139 0 -218 76t-79 215v1188h147v-1192q0 -68 40 -112t110 -44h414q69 0 109 44t40 112v1192h148v-1188zM758 1610h-99l-264 295h178z" />
    <glyph glyph-name="Uacute" unicode="&#xda;" horiz-adv-x="1351" 
d="M672 1610h-99l185 295h178zM1178 1475v-1188q0 -139 -79 -215t-218 -76h-414q-139 0 -218 76t-79 215v1188h147v-1192q0 -68 40 -112t110 -44h414q69 0 109 44t40 112v1192h148z" />
    <glyph glyph-name="Ucircumflex" unicode="&#xdb;" horiz-adv-x="1351" 
d="M1178 287q0 -139 -79 -215t-218 -76h-414q-139 0 -218 76t-79 215v1188h147v-1192q0 -68 40 -112t110 -44h414q69 0 109 44t40 112v1192h148v-1188zM668 1765l-207 -155h-101l234 245h147l234 -245h-101z" />
    <glyph glyph-name="Udieresis" unicode="&#xdc;" horiz-adv-x="1351" 
d="M922 1618h-160v205h160v-205zM573 1618h-159v205h159v-205zM1178 1475v-1188q0 -139 -79 -215t-218 -76h-414q-139 0 -218 76t-79 215v1188h147v-1192q0 -68 40 -112t110 -44h414q69 0 109 44t40 112v1192h148z" />
    <glyph glyph-name="Yacute" unicode="&#xdd;" horiz-adv-x="1232" 
d="M612 1610h-98l184 295h179zM690 0h-147v549l-510 926h168l415 -773l416 773h168l-510 -926v-549z" />
    <glyph glyph-name="Thorn" unicode="&#xde;" horiz-adv-x="1294" 
d="M344 438h541q69 0 109 44t40 112v299q0 72 -40 114t-105 42h-545v-611zM344 1475v-291h545q137 0 215 -78t78 -215v-291q0 -137 -78 -215t-215 -78h-545v-307h-147v1475h147z" />
    <glyph glyph-name="germandbls" unicode="&#xdf;" horiz-adv-x="1146" 
d="M1024 535v-250q0 -131 -77 -208t-210 -77h-282v119h278q70 0 111 47t41 117v262q0 75 -39 113t-135 38h-209v121h209q96 0 129 33t32 119v227q0 70 -41 117t-110 47h-279q-72 0 -112 -46t-39 -116v-1198h-139v1196q0 131 77 209q78 78 209 78h287q131 0 209 -78t78 -209
l-2 -219q0 -74 -39 -131t-99 -88q60 -20 106 -80t46 -143z" />
    <glyph glyph-name="agrave" unicode="&#xe0;" horiz-adv-x="1110" 
d="M961 823v-825h-140v149l-110 -81q-102 -76 -222 -76h-102q-133 0 -210 77t-77 207v99q0 131 78 209t209 77h55q137 0 381 -36v206q0 70 -41 117t-110 47h-242q-72 0 -112 -46t-39 -116v-14h-140v10q0 131 79 210t208 77l248 -4q135 -4 211 -80t76 -207zM240 379v-107
q0 -70 40 -116t111 -45h98q113 0 222 63l110 66v305l-430 -4q-71 0 -111 -46t-40 -116zM643 1245h-98l-264 295h178z" />
    <glyph glyph-name="aacute" unicode="&#xe1;" horiz-adv-x="1110" 
d="M557 1245h-98l184 295h178zM240 379v-107q0 -70 40 -116t111 -45h98q113 0 222 63l110 66v305l-430 -4q-71 0 -111 -46t-40 -116zM961 823v-825h-140v149l-110 -81q-102 -76 -222 -76h-102q-133 0 -210 77t-77 207v99q0 131 78 209t209 77h55q137 0 381 -36v206
q0 70 -41 117t-110 47h-242q-72 0 -112 -46t-39 -116v-14h-140v10q0 131 79 210t208 77l248 -4q135 -4 211 -80t76 -207z" />
    <glyph glyph-name="acircumflex" unicode="&#xe2;" horiz-adv-x="1110" 
d="M961 823v-825h-140v149l-110 -81q-102 -76 -222 -76h-102q-133 0 -210 77t-77 207v99q0 131 78 209t209 77h55q137 0 381 -36v206q0 70 -41 117t-110 47h-242q-72 0 -112 -46t-39 -116v-14h-140v10q0 131 79 210t208 77l248 -4q135 -4 211 -80t76 -207zM240 379v-107
q0 -70 40 -116t111 -45h98q113 0 222 63l110 66v305l-430 -4q-71 0 -111 -46t-40 -116zM553 1401l-207 -156h-100l233 246h148l233 -246h-100z" />
    <glyph glyph-name="atilde" unicode="&#xe3;" horiz-adv-x="1110" 
d="M961 823v-825h-140v149l-110 -81q-102 -76 -222 -76h-102q-133 0 -210 77t-77 207v99q0 131 78 209t209 77h55q137 0 381 -36v206q0 70 -41 117t-110 47h-242q-72 0 -112 -46t-39 -116v-14h-140v10q0 131 79 210t208 77l248 -4q135 -4 211 -80t76 -207zM240 379v-107
q0 -70 40 -116t111 -45h98q113 0 222 63l110 66v305l-430 -4q-71 0 -111 -46t-40 -116zM412 1368l-35 -123h-111l41 195q8 41 40 56t79 -3l279 -119l38 121h115l-45 -197q-10 -41 -44 -56t-75 3z" />
    <glyph glyph-name="adieresis" unicode="&#xe4;" horiz-adv-x="1110" 
d="M807 1253h-160v205h160v-205zM459 1253h-160v205h160v-205zM240 379v-107q0 -70 40 -116t111 -45h98q113 0 222 63l110 66v305l-430 -4q-71 0 -111 -46t-40 -116zM961 823v-825h-140v149l-110 -81q-102 -76 -222 -76h-102q-133 0 -210 77t-77 207v99q0 131 78 209t209 77
h55q137 0 381 -36v206q0 70 -41 117t-110 47h-242q-72 0 -112 -46t-39 -116v-14h-140v10q0 131 79 210t208 77l248 -4q135 -4 211 -80t76 -207z" />
    <glyph glyph-name="aring" unicode="&#xe5;" horiz-adv-x="1110" 
d="M455 1458v-119q0 -25 24 -24h139q25 0 25 24v119q0 25 -25 25h-139q-24 0 -24 -25zM381 1313v176q1 27 23 49t49 23h196q29 0 51 -22t21 -48v-176q-1 -29 -21 -49t-49 -21l-200 -4q-27 -1 -49 21t-21 51zM240 379v-107q0 -70 40 -116t111 -45h98q113 0 222 63l110 66v305
l-430 -4q-71 0 -111 -46t-40 -116zM961 823v-825h-140v149l-110 -81q-102 -76 -222 -76h-102q-133 0 -210 77t-77 207v99q0 131 78 209t209 77h55q137 0 381 -36v206q0 70 -41 117t-110 47h-242q-72 0 -112 -46t-39 -116v-14h-140v10q0 131 79 210t208 77l248 -4
q135 -4 211 -80t76 -207z" />
    <glyph glyph-name="ae" unicode="&#xe6;" horiz-adv-x="1798" 
d="M238 375v-107q0 -70 40 -116t111 -46h98q113 0 222 66l110 68v301l-430 -4q-71 0 -111 -46t-40 -116zM958 821v-186h574v186q0 70 -41 117t-111 47l-270 -2q-72 0 -112 -46t-40 -116zM1110 111h270q70 0 111 47t41 116v68h139v-68q0 -132 -77 -208t-210 -76h-278
q-102 0 -171 45t-95 123l-148 -111q-78 -57 -203 -57h-102q-133 0 -210 77t-77 207v99q0 131 78 209t209 77h55q137 0 381 -36v202q0 70 -41 117t-110 47h-246q-72 0 -112 -46t-40 -116v-10h-139v10q0 131 78 209t209 78h254q139 0 217 -86q78 86 217 86h279q131 0 209 -78
t77 -209v-305h-712l-5 -250q0 -70 40 -116t112 -45z" />
    <glyph glyph-name="ccedilla" unicode="&#xe7;" horiz-adv-x="1085" 
d="M418 987q-72 0 -112 -46t-40 -116v-549q0 -70 40 -116t112 -45h266q70 0 111 47t41 117v65h139v-65q0 -131 -77 -208t-210 -77h-84l-47 -94h74q82 0 128 -40t46 -112v-20q0 -74 -45 -113t-125 -39h-191l-102 98h309q27 0 36 10t9 44v20q0 35 -9 44t-36 9h-252l99 193h-80
q-133 0 -210 77t-77 208v548q0 131 78 209t209 78h274q131 0 209 -78t78 -209v-65h-139l-4 61q-13 164 -152 164h-266z" />
    <glyph glyph-name="egrave" unicode="&#xe8;" horiz-adv-x="1105" 
d="M270 829v-190h574v190q0 70 -41 117t-111 47l-270 -2q-72 0 -112 -46t-40 -116zM270 522v-250q0 -70 40 -116t112 -45h270q70 0 111 47t41 116v72h139v-67q0 -131 -77 -208t-210 -77h-278q-133 0 -210 77t-77 208v548q0 131 78 209t209 78h278q131 0 209 -78t78 -209
v-305h-713zM541 1253l-265 295h179l184 -295h-98z" />
    <glyph glyph-name="eacute" unicode="&#xe9;" horiz-adv-x="1105" 
d="M553 1249h-98l184 295h178zM270 829v-190h574v190q0 70 -41 117t-111 47l-270 -2q-72 0 -112 -46t-40 -116zM270 522v-250q0 -70 40 -116t112 -45h270q70 0 111 47t41 116v72h139v-67q0 -131 -77 -208t-210 -77h-278q-133 0 -210 77t-77 208v548q0 131 78 209t209 78h278
q131 0 209 -78t78 -209v-305h-713z" />
    <glyph glyph-name="ecircumflex" unicode="&#xea;" horiz-adv-x="1105" 
d="M270 829v-190h574v190q0 70 -41 117t-111 47l-270 -2q-72 0 -112 -46t-40 -116zM270 522v-250q0 -70 40 -116t112 -45h270q70 0 111 47t41 116v72h139v-67q0 -131 -77 -208t-210 -77h-278q-133 0 -210 77t-77 208v548q0 131 78 209t209 78h278q131 0 209 -78t78 -209
v-305h-713zM342 1253h-100l233 246h148l233 -246h-100l-207 156z" />
    <glyph glyph-name="edieresis" unicode="&#xeb;" horiz-adv-x="1105" 
d="M803 1257h-160v205h160v-205zM455 1257h-160v205h160v-205zM270 829v-190h574v190q0 70 -41 117t-111 47l-270 -2q-72 0 -112 -46t-40 -116zM270 522v-250q0 -70 40 -116t112 -45h270q70 0 111 47t41 116v72h139v-67q0 -131 -77 -208t-210 -77h-278q-133 0 -210 77
t-77 208v548q0 131 78 209t209 78h278q131 0 209 -78t78 -209v-305h-713z" />
    <glyph glyph-name="igrave" unicode="&#xec;" horiz-adv-x="483" 
d="M334 1253h-98l-263 295h177zM311 0h-139v1106h139v-1106z" />
    <glyph glyph-name="iacute" unicode="&#xed;" horiz-adv-x="483" 
d="M311 1106v-1106h-139v1106h139zM246 1253h-99l185 295h178z" />
    <glyph glyph-name="icircumflex" unicode="&#xee;" horiz-adv-x="483" 
d="M242 1409l-207 -156h-98l231 246h147l234 -246h-100zM309 0h-135v1106h135v-1106z" />
    <glyph glyph-name="idieresis" unicode="&#xef;" horiz-adv-x="483" 
d="M313 1106v-1106h-135v1106h135zM496 1262h-160v204h160v-204zM147 1262h-157v204h157v-204z" />
    <glyph glyph-name="eth" unicode="&#xf0;" horiz-adv-x="1128" 
d="M420 879q-72 0 -112 -46t-40 -116v-451q0 -70 40 -116t112 -46h285q71 0 111 48t40 116v486l-111 61q-115 63 -221 64h-104zM995 274q1 -132 -75 -208t-209 -76h-293q-133 0 -210 77t-77 207v447q0 131 78 209t209 78h108q117 0 222 -78l110 -82v209q0 63 -37 94t-114 53
l-166 51l-127 -120h-135l159 151l-188 57v107l282 -76l125 119h136l-156 -147l72 -25q176 -59 219 -92q68 -53 67 -172v-783z" />
    <glyph glyph-name="ntilde" unicode="&#xf1;" horiz-adv-x="1150" 
d="M432 1376l-35 -123h-110l41 195q8 41 40 56t78 -3l279 -119l39 121h115l-45 -196q-10 -41 -44 -57t-75 3zM862 825q0 70 -41 117t-110 47h-82q-113 0 -221 -63l-111 -66v-860h-139v1104h139v-152l111 82q104 78 221 78h86q131 0 209 -78t77 -209v-825h-139v825z" />
    <glyph glyph-name="ograve" unicode="&#xf2;" horiz-adv-x="1124" 
d="M705 1114q131 0 209 -78t77 -209v-548q0 -133 -76 -209t-208 -76h-289q-133 0 -210 77t-77 208v548q0 131 78 209t209 78h287zM852 827q0 70 -41 117t-111 47h-280q-72 0 -112 -46t-40 -116v-557q0 -70 40 -116t112 -45h280q70 0 111 47t41 116v553zM645 1249h-98
l-264 295h178z" />
    <glyph glyph-name="oacute" unicode="&#xf3;" horiz-adv-x="1124" 
d="M559 1249h-98l184 295h178zM852 274v553q0 70 -41 117t-111 47h-280q-72 0 -112 -46t-40 -116v-557q0 -70 40 -116t112 -45h280q70 1 111 47t41 116zM418 1114h287q131 0 209 -78t77 -209v-548q0 -133 -76 -209t-208 -76h-289q-133 0 -210 77t-77 208v548q0 131 78 209
t209 78z" />
    <glyph glyph-name="ocircumflex" unicode="&#xf4;" horiz-adv-x="1124" 
d="M705 1114q131 0 209 -78t77 -209v-548q0 -133 -76 -209t-208 -76h-289q-133 0 -210 77t-77 208v548q0 131 78 209t209 78h287zM852 827q0 70 -41 117t-111 47h-280q-72 0 -112 -46t-40 -116v-557q0 -70 40 -116t112 -45h280q70 0 111 47t41 116v553zM555 1405l-207 -156
h-100l233 246h148l233 -246h-100z" />
    <glyph glyph-name="otilde" unicode="&#xf5;" horiz-adv-x="1124" 
d="M705 1114q131 0 209 -78t77 -209v-548q0 -133 -76 -209t-208 -76h-289q-133 0 -210 77t-77 208v548q0 131 78 209t209 78h287zM852 827q0 70 -41 117t-111 47h-280q-72 0 -112 -46t-40 -116v-557q0 -70 40 -116t112 -45h280q70 0 111 47t41 116v553zM414 1372l-35 -123
h-111l41 195q8 41 40 56t79 -3l279 -119l38 121h115l-45 -196q-8 -41 -43 -57t-76 3z" />
    <glyph glyph-name="odieresis" unicode="&#xf6;" horiz-adv-x="1124" 
d="M809 1257h-160v205h160v-205zM461 1257h-160v205h160v-205zM852 274v553q0 70 -41 117t-111 47h-280q-72 0 -112 -46t-40 -116v-557q0 -70 40 -116t112 -45h280q70 1 111 47t41 116zM418 1114h287q131 0 209 -78t77 -209v-548q0 -133 -76 -209t-208 -76h-289
q-133 0 -210 77t-77 208v548q0 131 78 209t209 78z" />
    <glyph glyph-name="divide" unicode="&#xf7;" horiz-adv-x="1040" 
d="M135 821h770v-127h-770v127zM610 330h-180v200h180v-200zM610 985h-180v201h180v-201z" />
    <glyph glyph-name="oslash" unicode="&#xf8;" horiz-adv-x="1128" 
d="M860 276v549q0 63 -31 105l-421 -817h301q71 1 111 47t40 116zM264 827v-551q0 -61 31 -104l422 817h-301q-72 0 -112 -46t-40 -116zM418 1114h291q131 0 209 -78t77 -209v-548q1 -133 -75 -209t-209 -76h-293q-133 0 -210 77t-77 208v548q0 131 78 209t209 78z" />
    <glyph glyph-name="ugrave" unicode="&#xf9;" horiz-adv-x="1150" 
d="M287 276q0 -70 40 -116t111 -45h82q113 0 221 63l111 66v862h139v-1106h-139v152l-111 -82q-102 -76 -221 -76h-86q-133 0 -210 77t-77 208v827h140v-830zM651 1251h-98l-264 295h178z" />
    <glyph glyph-name="uacute" unicode="&#xfa;" horiz-adv-x="1150" 
d="M565 1251h-98l184 295h178zM287 1106v-830q0 -70 40 -116t111 -45h82q113 0 221 63l111 66v862h139v-1106h-139v152l-111 -82q-102 -76 -221 -76h-86q-133 0 -210 77t-77 208v827h140z" />
    <glyph glyph-name="ucircumflex" unicode="&#xfb;" horiz-adv-x="1150" 
d="M287 276q0 -70 40 -116t111 -45h82q113 0 221 63l111 66v862h139v-1106h-139v152l-111 -82q-102 -76 -221 -76h-86q-133 0 -210 77t-77 208v827h140v-830zM561 1407l-207 -156h-100l233 246h148l233 -246h-100z" />
    <glyph glyph-name="udieresis" unicode="&#xfc;" horiz-adv-x="1150" 
d="M815 1260h-160v204h160v-204zM467 1260h-160v204h160v-204zM287 1106v-830q0 -70 40 -116t111 -45h82q113 0 221 63l111 66v862h139v-1106h-139v152l-111 -82q-102 -76 -221 -76h-86q-133 0 -210 77t-77 208v827h140z" />
    <glyph glyph-name="yacute" unicode="&#xfd;" horiz-adv-x="995" 
d="M496 1253h-99l185 295h178zM954 1106l-510 -1493h-131l131 387l-403 1106h147l312 -936l315 936h139z" />
    <glyph glyph-name="thorn" unicode="&#xfe;" horiz-adv-x="1159" 
d="M889 279v548q0 70 -41 117t-111 47h-106q-113 0 -221 -63l-111 -66v-618l111 -66q109 -63 221 -63h106q70 0 111 47t41 117zM631 1114h110q131 0 209 -78t78 -209v-548q0 -131 -77 -208t-210 -77h-110q-119 0 -221 76l-111 82v-539h-139v1917h139v-576l111 82
q104 78 221 78z" />
    <glyph glyph-name="ydieresis" unicode="&#xff;" horiz-adv-x="995" 
d="M745 1262h-159v204h159v-204zM397 1262h-159v204h159v-204zM954 1106l-510 -1493h-131l131 387l-403 1106h147l312 -936l315 936h139z" />
    <glyph glyph-name="Amacron" unicode="&#x100;" horiz-adv-x="1343" 
d="M930 565l-258 752l-262 -752h520zM975 430h-613l-149 -430h-152l527 1475h168l526 -1475h-160zM926 1630h-525v123h525v-123z" />
    <glyph glyph-name="amacron" unicode="&#x101;" horiz-adv-x="1110" 
d="M815 1389v-123h-524v123h524zM240 379v-107q0 -70 40 -116t111 -45h98q113 0 222 63l110 66v305l-430 -4q-71 0 -111 -46t-40 -116zM961 823v-825h-140v149l-110 -81q-102 -76 -222 -76h-102q-133 0 -210 77t-77 207v99q0 131 78 209t209 77h55q137 0 381 -36v206
q0 70 -41 117t-110 47h-242q-72 0 -112 -46t-39 -116v-14h-140v10q0 131 79 210t208 77l248 -4q135 -4 211 -80t76 -207z" />
    <glyph glyph-name="Abreve" unicode="&#x102;" horiz-adv-x="1343" 
d="M928 563l-258 752l-262 -752h520zM973 428h-613l-149 -428h-152l527 1473h168l526 -1473h-160zM459 1739v104h98v-96q0 -19 12 -31t31 -12h131q37 0 37 45v96h98v-104q0 -53 -39 -92t-92 -39l-145 -2q-53 0 -92 39t-39 92z" />
    <glyph glyph-name="abreve" unicode="&#x103;" horiz-adv-x="1110" 
d="M623 1243h-144q-53 0 -92 39t-39 92v105h98v-97q0 -18 12 -30t31 -13h132q37 0 36 45v97h99l-2 -107q0 -53 -39 -92t-92 -39zM240 379v-107q0 -70 40 -116t111 -45h98q113 0 222 63l110 66v305l-430 -4q-71 0 -111 -46t-40 -116zM961 823v-825h-140v149l-110 -81
q-102 -76 -222 -76h-102q-133 0 -210 77t-77 207v99q0 131 78 209t209 77h55q137 0 381 -36v206q0 70 -41 117t-110 47h-242q-72 0 -112 -46t-39 -116v-14h-140v10q0 131 79 210t208 77l248 -4q135 -4 211 -80t76 -207z" />
    <glyph glyph-name="Aogonek" unicode="&#x104;" horiz-adv-x="1343" 
d="M928 565l-258 752l-262 -752h520zM1137 -342q-86 0 -129 52t12 149l102 141l-147 430h-613l-149 -430h-152l527 1475h168l526 -1475h-25l-102 -145q-57 -82 19 -82h169l-2 -115h-204z" />
    <glyph glyph-name="aogonek" unicode="&#x105;" horiz-adv-x="1110" 
d="M238 379v-107q0 -70 40 -116t111 -45h98q113 0 222 63l110 66v305l-430 -4q-71 0 -111 -46t-40 -116zM840 -346q-86 0 -129 52t12 149l102 143h-4v149l-110 -81q-102 -76 -222 -76h-102q-133 0 -210 77t-77 207v99q0 131 78 209t209 77h55q137 0 381 -36v206
q0 70 -41 117t-110 47h-242q-72 0 -112 -46t-39 -116v-14h-140v10q0 131 78 209t209 78h250q131 0 209 -78t78 -209v-827l-103 -145q-57 -82 19 -82h170l-5 -119h-204z" />
    <glyph glyph-name="Cacute" unicode="&#x106;" horiz-adv-x="1296" 
d="M645 1610h-98l184 295h178zM866 -6h-417q-139 0 -219 77t-78 214v901q0 137 79 215q82 78 218 78h409q135 0 216 -78t81 -215v-156h-147v160q0 72 -40 114t-106 42h-409q-68 0 -107 -42t-39 -114v-909q0 -68 41 -112t109 -44h409q70 0 110 44t40 112v159h147v-155
q0 -137 -79 -214t-218 -77z" />
    <glyph glyph-name="cacute" unicode="&#x107;" horiz-adv-x="1085" 
d="M551 1249h-98l184 295h178zM131 274v549q0 131 78 209t209 78h274q131 0 209 -78t78 -209v-65h-139v65q0 70 -41 117t-111 47h-266q-72 0 -112 -46t-40 -116v-549q0 -70 40 -116t112 -45h266q70 0 111 47t41 117v65h139v-65q0 -131 -75 -206t-212 -79l-274 -4
q-131 -2 -209 76t-78 208z" />
    <glyph glyph-name="Cdotaccent" unicode="&#x10a;" horiz-adv-x="1296" 
d="M723 1626h-164v193h164v-193zM866 -6h-417q-139 0 -219 77t-78 214v901q0 137 79 215q82 78 218 78h409q135 0 216 -78t81 -215v-156h-147v160q0 72 -40 114t-106 42h-409q-68 0 -107 -42t-39 -114v-909q0 -68 41 -112t109 -44h409q70 0 110 44t40 112v159h147v-155
q0 -137 -79 -214t-218 -77z" />
    <glyph glyph-name="cdotaccent" unicode="&#x10b;" horiz-adv-x="1085" 
d="M629 1266h-164v192h164v-192zM131 274v549q0 131 78 209t209 78h274q131 0 209 -78t78 -209v-65h-139v65q0 70 -41 117t-111 47h-266q-72 0 -112 -46t-40 -116v-549q0 -70 40 -116t112 -45h266q70 0 111 47t41 117v65h139v-65q0 -131 -75 -206t-212 -79l-274 -4
q-131 -2 -209 76t-78 208z" />
    <glyph glyph-name="Ccaron" unicode="&#x10c;" horiz-adv-x="1296" 
d="M449 -6q-139 0 -219 77t-78 214v901q0 137 79 215q82 78 218 78h409q135 0 216 -78t81 -215v-156h-147v160q0 72 -39 114t-107 42h-409q-68 0 -107 -42t-39 -114v-909q0 -68 41 -112t109 -44h409q70 0 110 44t40 112v159h147v-155q0 -137 -79 -214t-218 -77h-417z
M715 1610h-148l-233 245h100l207 -155l207 155h100z" />
    <glyph glyph-name="ccaron" unicode="&#x10d;" horiz-adv-x="1085" 
d="M131 274v549q0 131 78 209t209 78h274q131 0 209 -78t78 -209v-65h-139v65q0 70 -41 117t-111 47h-266q-72 0 -112 -46t-40 -116v-549q0 -70 40 -116t112 -45h266q70 0 111 47t41 117v65h139v-65q0 -131 -75 -206t-212 -79l-274 -4q-131 -2 -209 76t-78 208zM621 1249
h-148l-233 246h100l207 -156l207 156h100z" />
    <glyph glyph-name="Dcaron" unicode="&#x10e;" horiz-adv-x="1359" 
d="M1200 1178v-885q0 -137 -81 -215t-216 -78h-706v1475l706 -5q135 0 217 -77q80 -78 80 -215zM899 131q68 0 109 44t41 112v893q0 72 -39 114t-107 41h-559v-1204h555zM731 1606h-147l-234 245h101l206 -155l207 155h101z" />
    <glyph glyph-name="dcaron" unicode="&#x10f;" horiz-adv-x="1159" 
d="M528 981h-106q-72 0 -112 -46t-40 -116v-549q0 -70 40 -116t112 -45h106q113 0 222 63l110 66v618l-110 62q-115 63 -222 63zM1325 1530v-170q0 -41 -36 -97q-36 -57 -40 -69l-59 -117h-88l123 252h-80v201h180zM999 0h-139v152l-110 -82q-102 -76 -222 -76h-110
q-133 0 -210 77t-77 208v548q0 131 78 209t209 78h110q117 0 222 -78l110 -82v576h139v-1530z" />
    <glyph glyph-name="Dcroat" unicode="&#x110;" horiz-adv-x="1349" 
d="M901 1335h-559v-526h182v-135h-182v-543h559q70 0 110 44t40 112l-4 893q0 72 -40 114t-106 41zM1200 1178v-885q0 -137 -81 -215t-216 -78h-706v678h-183v135h183v662l706 -5q135 0 217 -77q80 -78 80 -215z" />
    <glyph glyph-name="dcroat" unicode="&#x111;" horiz-adv-x="1159" 
d="M528 987h-106q-72 0 -112 -46t-40 -116v-549q0 -70 40 -116t112 -45h106q113 0 222 63l110 66v618l-110 62q-115 63 -222 63zM1155 1217h-156v-1217h-139v152l-110 -82q-102 -76 -222 -76h-110q-133 0 -210 77t-77 208v548q0 131 78 209t209 78h110q117 0 222 -78
l110 -82v263h-229v106h229v207h139v-207h156v-106z" />
    <glyph glyph-name="Emacron" unicode="&#x112;" horiz-adv-x="1216" 
d="M901 1753v-123h-524v123h524zM197 1475h907v-136h-760v-518h641v-135h-641v-551h760v-135h-907v1475z" />
    <glyph glyph-name="emacron" unicode="&#x113;" horiz-adv-x="1105" 
d="M270 829v-190h574v190q0 70 -41 117t-111 47l-270 -2q-72 0 -112 -46t-40 -116zM270 522v-250q0 -70 40 -116t112 -45h270q70 0 111 47t41 116v72h139v-67q0 -131 -77 -208t-210 -77h-278q-133 0 -210 77t-77 208v548q0 131 78 209t209 78h278q131 0 209 -78t78 -209
v-305h-713zM811 1274h-524v123h524v-123z" />
    <glyph glyph-name="Edotaccent" unicode="&#x116;" horiz-adv-x="1216" 
d="M721 1626h-164v193h164v-193zM197 1475h907v-136h-760v-518h641v-135h-641v-551h760v-135h-907v1475z" />
    <glyph glyph-name="edotaccent" unicode="&#x117;" horiz-adv-x="1105" 
d="M631 1266h-164v192h164v-192zM270 829v-190h574v190q0 70 -41 117t-111 47l-270 -2q-72 0 -112 -46t-40 -116zM270 522v-250q0 -70 40 -116t112 -45h270q70 0 111 47t41 116v72h139v-67q0 -131 -77 -208t-210 -77h-278q-133 0 -210 77t-77 208v548q0 131 78 209t209 78
h278q131 0 209 -78t78 -209v-305h-713z" />
    <glyph glyph-name="Eogonek" unicode="&#x118;" horiz-adv-x="1216" 
d="M983 -342q-86 0 -129 52t12 149l103 141h-772v1475h907v-136h-760v-518h641v-135h-641v-551h760v-135l-103 -145q-57 -82 19 -82h170l-2 -115h-205z" />
    <glyph glyph-name="eogonek" unicode="&#x119;" horiz-adv-x="1105" 
d="M268 829v-190h574v190q0 70 -41 117t-111 47l-270 -2q-72 0 -112 -46t-40 -116zM420 111h270q70 0 111 47t41 116v72h139v-67q0 -131 -77 -208t-210 -77h-78l-96 -139q-57 -82 19 -82h170v-115h-205q-86 0 -129 52t12 149l96 135h-65q-133 0 -210 77t-77 208v548
q0 131 78 209t209 78h278q131 0 209 -78t78 -209v-305h-713l-2 -250q0 -70 40 -116t112 -45z" />
    <glyph glyph-name="Ecaron" unicode="&#x11a;" horiz-adv-x="1216" 
d="M1104 1475v-136h-760v-518h641v-135h-641v-551h760v-135h-907v1475h907zM713 1610h-148l-233 245h100l207 -155l207 155h100z" />
    <glyph glyph-name="ecaron" unicode="&#x11b;" horiz-adv-x="1105" 
d="M270 829v-190h574v190q0 70 -41 117t-111 47l-270 -2q-72 0 -112 -46t-40 -116zM270 522v-250q0 -70 40 -116t112 -45h270q70 0 111 47t41 116v72h139v-67q0 -131 -77 -208t-210 -77h-278q-133 0 -210 77t-77 208v548q0 131 78 209t209 78h278q131 0 209 -78t78 -209
v-305h-713zM475 1253l-233 246h100l207 -156l207 156h100l-233 -246h-148z" />
    <glyph glyph-name="Gbreve" unicode="&#x11e;" horiz-adv-x="1331" 
d="M723 1610h-143q-53 0 -93 39q-39 39 -38 92v104h98v-96q0 -19 12 -31t31 -12h131q37 0 37 45v96h98l-2 -106q0 -53 -39 -92t-92 -39zM874 1350h-423q-66 0 -106 -42t-40 -114v-911q0 -68 40 -112t110 -44h424q69 0 109 44t40 112v338h-375v135h523v-469q0 -137 -77 -214
t-216 -77h-424q-139 0 -218 76t-79 215v901q0 139 81 216t216 77h424q137 0 215 -78t78 -215v-135h-148l-8 141q-4 74 -41 115t-105 41z" />
    <glyph glyph-name="gbreve" unicode="&#x11f;" horiz-adv-x="1159" 
d="M641 1245h-143q-53 0 -92 39t-39 92v105h98v-97q0 -18 12 -30t31 -13h131q37 0 37 45v97h98l-2 -107q0 -53 -39 -92t-92 -39zM528 985h-106q-72 0 -112 -46t-40 -116v-483q0 -70 40 -116t112 -46h106q113 0 222 64l110 65v553l-110 62q-115 63 -222 63zM999 1106v-1217
q1 -131 -77 -209t-209 -77h-267q-130 0 -208 78t-78 208v13h139v-19q0 -69 40 -115t112 -47h258q71 -1 111 47t40 117v332l-110 -82q-104 -78 -222 -78h-110q-131 0 -209 78t-78 209v483q0 131 78 209t209 78h110q117 0 222 -78l110 -82v152h139z" />
    <glyph glyph-name="Gdotaccent" unicode="&#x120;" horiz-adv-x="1331" 
d="M735 1628h-164v193h164v-193zM874 1350h-423q-66 0 -106 -42t-40 -114v-911q0 -68 40 -112t110 -44h424q69 0 109 44t40 112v338h-375v135h523v-469q0 -137 -77 -214t-216 -77h-424q-139 0 -218 76t-79 215v901q0 139 81 216t216 77h424q137 0 215 -78t78 -215v-135h-148
l-8 141q-4 74 -41 115t-105 41z" />
    <glyph glyph-name="gdotaccent" unicode="&#x121;" horiz-adv-x="1159" 
d="M653 1264h-164v192h164v-192zM528 985h-106q-72 0 -112 -46t-40 -116v-483q0 -70 40 -116t112 -46h106q113 0 222 64l110 65v553l-110 62q-115 63 -222 63zM999 1106v-1217q1 -131 -77 -209t-209 -77h-267q-130 0 -208 78t-78 208v13h139v-19q0 -69 40 -115t112 -47h258
q71 -1 111 47t40 117v332l-110 -82q-104 -78 -222 -78h-110q-131 0 -209 78t-78 209v483q0 131 78 209t209 78h110q117 0 222 -78l110 -82v152h139z" />
    <glyph glyph-name="Gcommaaccent" unicode="&#x122;" horiz-adv-x="1331" 
d="M451 1343q-66 0 -106 -42t-40 -113v-912q0 -68 40 -112t110 -43h424q69 0 109 44t40 111v338h-375v136h523v-469q0 -137 -77 -214t-216 -77h-424q-139 0 -218 77t-79 214v901q0 137 80 215q82 78 217 78h424q137 0 215 -78t78 -215v-135h-148l-8 141q-8 155 -146 155
h-423zM760 -141v-170q0 -41 -36 -97q-36 -57 -40 -69l-59 -117h-88l122 252h-79v201h180z" />
    <glyph glyph-name="gcommaaccent" unicode="&#x123;" horiz-adv-x="1159" 
d="M526 991h-106q-72 0 -112 -46t-40 -116v-483q0 -70 40 -116t112 -46h106q113 0 222 64l110 65v553l-110 62q-115 63 -222 63zM997 1112v-1216q1 -131 -77 -209t-209 -78h-267q-130 0 -208 78t-78 209v12h139v-19q0 -69 40 -115t112 -46h258q71 0 111 47t40 116v332
l-110 -82q-104 -78 -222 -78h-110q-131 0 -209 78t-78 209v484q0 130 78 208t209 78h110q117 0 222 -78l110 -81v151h139zM670 1462v-200h-181l-2 170q1 36 39 98t39 67l60 117h88l-123 -252h80z" />
    <glyph glyph-name="Hbar" unicode="&#x126;" horiz-adv-x="1417" 
d="M1073 1128h-729v-303h729v303zM1339 1128h-118v-1128h-148v690h-729v-690h-147v1128h-119v115h119v232h147v-232h729v232h148v-232h118v-115z" />
    <glyph glyph-name="hbar" unicode="&#x127;" horiz-adv-x="1150" 
d="M631 1114h86q131 0 209 -78t78 -209v-827h-140v827q0 70 -41 117t-110 47h-82q-113 0 -221 -63l-111 -66v-862h-139v1217h-127v106h127v207h139v-207h209v-106h-209v-263l111 82q104 78 221 78z" />
    <glyph glyph-name="Imacron" unicode="&#x12a;" horiz-adv-x="540" 
d="M197 0v1475h147v-1475h-147zM524 1753v-123h-524v123h524z" />
    <glyph glyph-name="imacron" unicode="&#x12b;" horiz-adv-x="483" 
d="M311 1106v-1106h-139v1106h139zM504 1397v-123h-522v123h522z" />
    <glyph glyph-name="Iogonek" unicode="&#x12e;" horiz-adv-x="540" 
d="M266 -342q-86 0 -129 52t13 149l102 141h-12v1475h147v-1475l-102 -145q-57 -82 18 -82h170l-2 -115h-205z" />
    <glyph glyph-name="iogonek" unicode="&#x12f;" horiz-adv-x="483" 
d="M233 -342q-86 0 -129 52t13 149l102 141h-4v1106h139v-1106l-102 -145q-57 -82 18 -82h170l-2 -115h-205zM365 1350h-160v180h160v-180z" />
    <glyph glyph-name="Idotaccent" unicode="&#x130;" horiz-adv-x="540" 
d="M197 0v1475h147v-1475h-147zM344 1626h-164v193h164v-193z" />
    <glyph glyph-name="IJ" unicode="&#x132;" horiz-adv-x="1751" 
d="M188 0v1475h148v-1475h-148zM1276 -4h-356q-139 0 -216 77t-77 214v229h147v-233q0 -68 41 -112t109 -44h356q68 0 109 44t41 112v1192h147l-8 -1188q0 -137 -77 -214t-216 -77z" />
    <glyph glyph-name="ij" unicode="&#x133;" horiz-adv-x="999" 
d="M827 1106v-1219q1 -131 -77 -209t-209 -77h-95v123h91q71 0 111 47t40 116v1219h139zM311 1106v-1106h-139v1106h139zM838 1350h-160v180h160v-180zM322 1350h-160v180h160v-180z" />
    <glyph glyph-name="Kcommaaccent" unicode="&#x136;" horiz-adv-x="1366" 
d="M774 -311q0 -41 -36 -97q-36 -57 -40 -69l-59 -117h-88l123 252h-80v201l180 -6v-164zM344 0h-147v1475h147v-881l735 881h185l-523 -609l568 -866h-172l-488 758l-305 -355v-403z" />
    <glyph glyph-name="kcommaaccent" unicode="&#x137;" horiz-adv-x="1062" 
d="M633 -311q0 -41 -36 -97q-36 -57 -40 -69l-59 -117h-88l122 252h-79v201l180 -6v-164zM299 0h-139v1475h139v-983l512 614h170l-360 -418l393 -688h-156l-323 588l-236 -273v-315z" />
    <glyph glyph-name="Lacute" unicode="&#x139;" horiz-adv-x="1134" 
d="M270 1610h-98l184 295h179zM197 1475h147v-1340h709v-135h-856v1475z" />
    <glyph glyph-name="lacute" unicode="&#x13a;" horiz-adv-x="479" 
d="M236 1665h-99l185 295h178zM172 1530h135v-1530h-135v1530z" />
    <glyph glyph-name="Lcommaaccent" unicode="&#x13b;" horiz-adv-x="1134" 
d="M197 1468h147v-1339h709v-133h-856v1472zM735 -141v-170q0 -41 -36 -97q-36 -57 -40 -69l-59 -117h-88l123 252h-80v201h180z" />
    <glyph glyph-name="lcommaaccent" unicode="&#x13c;" horiz-adv-x="479" 
d="M172 1524h135v-1528h-135v1528zM330 -141v-170q0 -37 -36 -96q-36 -58 -40 -70l-59 -117h-89l123 252h-79v201h180z" />
    <glyph glyph-name="Lcaron" unicode="&#x13d;" horiz-adv-x="1134" 
d="M197 1473h147v-1340h709v-133h-856v1473zM725 1530v-166q0 -34 -36 -97t-40 -73l-59 -117h-88l123 252h-80v201h180z" />
    <glyph glyph-name="lcaron" unicode="&#x13e;" horiz-adv-x="479" 
d="M172 1528h135v-1528h-135v1528zM639 1530v-166q0 -34 -36 -97t-40 -73l-59 -117h-88l123 252h-80v201h180z" />
    <glyph glyph-name="Ldot" unicode="&#x13f;" horiz-adv-x="1134" 
d="M936 657h-180v201h180v-201zM197 1475h147v-1340h709v-135h-856v1475z" />
    <glyph glyph-name="ldot" unicode="&#x140;" horiz-adv-x="700" 
d="M172 1530h135v-1530h-135v1530zM670 717h-181v201h181v-201z" />
    <glyph glyph-name="Lslash" unicode="&#x141;" horiz-adv-x="1153" 
d="M1053 135v-135h-856v692l-138 -57v141l138 58v641h147v-582l264 108v-141l-264 -108v-617h709z" />
    <glyph glyph-name="lslash" unicode="&#x142;" horiz-adv-x="598" 
d="M367 0h-136v721l-206 -84v141l206 84v668h136v-610l206 84v-142l-206 -84v-778z" />
    <glyph glyph-name="Nacute" unicode="&#x143;" horiz-adv-x="1449" 
d="M731 1610h-98l184 295h178zM1118 1475h135v-1475h-176l-745 1286v-1286h-135v1475h176l745 -1282v1282z" />
    <glyph glyph-name="nacute" unicode="&#x144;" horiz-adv-x="1150" 
d="M578 1253h-99l185 295h178zM864 0v827q0 70 -41 117t-110 47h-82q-113 0 -221 -63l-111 -66v-862h-139v1106h139v-152l111 82q104 78 221 78h86q131 0 209 -78t78 -209v-827h-140z" />
    <glyph glyph-name="Ncommaaccent" unicode="&#x145;" horiz-adv-x="1449" 
d="M1118 1468h135v-1472h-176l-745 1284v-1284h-135v1472h176l745 -1282v1282zM815 -141v-170q0 -41 -36 -97q-36 -57 -40 -69l-59 -117h-88l123 252h-80v201h180z" />
    <glyph glyph-name="ncommaaccent" unicode="&#x146;" horiz-adv-x="1150" 
d="M864 -4v825q0 70 -41 117t-110 47h-82q-113 0 -221 -63l-111 -66v-860h-139v1104h139v-152l111 82q104 78 221 78h86q131 0 209 -78t78 -209v-825h-140zM672 -141v-170q0 -37 -36 -96q-36 -58 -40 -70l-59 -117h-88l122 252h-79v201h180z" />
    <glyph glyph-name="Ncaron" unicode="&#x147;" horiz-adv-x="1449" 
d="M1253 1475v-1475h-176l-745 1286v-1286h-135v1475h176l745 -1282v1282h135zM801 1610h-148l-233 245h100l207 -155l207 155h100z" />
    <glyph glyph-name="ncaron" unicode="&#x148;" horiz-adv-x="1150" 
d="M864 827q0 70 -41 117t-110 47h-82q-113 0 -221 -63l-111 -66v-862h-139v1106h139v-152l111 82q104 78 221 78h86q131 0 209 -78t78 -209v-827h-140v827zM647 1253h-147l-234 246h101l206 -156l207 156h101z" />
    <glyph glyph-name="Eng" unicode="&#x14a;" horiz-adv-x="1449" 
d="M825 -399v133h148q69 0 109 44t40 113v89l-790 1306v-1286h-135v1475h176l745 -1250v1250h135l-4 -1581q0 -138 -78 -216t-215 -77h-131z" />
    <glyph glyph-name="eng" unicode="&#x14b;" horiz-adv-x="1150" 
d="M631 1114h84q131 0 209 -78t77 -209v-936q1 -131 -77 -209t-209 -77h-113v123h109q69 0 111 46t42 117v936q0 70 -41 117t-110 47h-82q-113 0 -221 -63l-111 -66v-862h-139v1106h139v-152l111 82q104 78 221 78z" />
    <glyph glyph-name="Omacron" unicode="&#x14c;" horiz-adv-x="1349" 
d="M922 1753v-123h-525v123h525zM451 127h436q69 0 109 44t40 112v909q0 72 -39 114t-106 42h-436q-66 0 -106 -42t-40 -114l-8 -909q0 -68 40 -112t110 -44zM893 -6h-436q-139 0 -218 77t-79 214v901q0 137 80 215q82 78 217 78h436q137 0 215 -78t78 -215v-901
q0 -137 -77 -214t-216 -77z" />
    <glyph glyph-name="omacron" unicode="&#x14d;" horiz-adv-x="1124" 
d="M817 1393v-123h-524v123h524zM852 274v553q0 70 -41 117t-111 47h-280q-72 0 -112 -46t-40 -116v-557q0 -70 40 -116t112 -45h280q70 1 111 47t41 116zM418 1114h287q131 0 209 -78t77 -209v-548q0 -133 -76 -209t-208 -76h-289q-133 0 -210 77t-77 208v548q0 131 78 209
t209 78z" />
    <glyph glyph-name="Ohungarumlaut" unicode="&#x150;" horiz-adv-x="1349" 
d="M451 127h436q69 0 109 44t40 112v909q0 72 -39 114t-106 42h-436q-66 0 -106 -42t-40 -114l-8 -909q0 -68 40 -112t110 -44zM893 -6h-436q-139 0 -218 77t-79 214v901q0 137 80 215q82 78 217 78h436q137 0 215 -78t78 -215v-901q0 -137 -77 -214t-216 -77zM1069 1907
l-235 -297h-148l236 297h147zM776 1907l-235 -297h-148l236 297h147z" />
    <glyph glyph-name="ohungarumlaut" unicode="&#x151;" horiz-adv-x="1124" 
d="M852 274v553q0 70 -41 117t-111 47h-280q-72 0 -112 -46t-40 -116v-557q0 -70 40 -116t112 -45h280q70 1 111 47t41 116zM418 1114h287q131 0 209 -78t77 -209v-548q0 -133 -76 -209t-208 -76h-289q-133 0 -210 77t-77 208v548q0 131 78 209t209 78zM958 1550l-235 -297
h-148l236 297h147zM666 1550l-236 -297h-147l235 297h148z" />
    <glyph glyph-name="OE" unicode="&#x152;" horiz-adv-x="2019" 
d="M453 1343q-68 0 -107 -42t-39 -113v-893q0 -68 41 -112t109 -44h481q41 0 41 41l-4 1123q0 41 -41 40h-481zM1126 1339v-510h678v-135h-678v-555h781v-135h-1450q-135 0 -217 78q-80 78 -80 215v885q0 137 80 215q82 78 217 78h1450v-136h-781z" />
    <glyph glyph-name="oe" unicode="&#x153;" horiz-adv-x="1828" 
d="M991 821v-186h574v186q0 70 -41 117t-111 47l-270 -2q-72 0 -112 -46t-40 -116zM852 272v549q0 70 -41 117t-111 47h-280q-72 0 -112 -46t-40 -116v-549q0 -70 40 -116t112 -45l280 -4q70 0 111 47t41 116zM1143 115h270q70 0 111 47t41 117v67h139v-67q0 -133 -76 -209
t-209 -76h-278q-141 0 -217 84q-76 -84 -217 -84h-289q-133 0 -210 77t-77 208v548q0 131 78 209t209 78h289q141 0 217 -86q78 86 217 86h278q131 0 209 -78t78 -209v-305h-713l-2 -246q0 -70 40 -116t112 -45z" />
    <glyph glyph-name="Racute" unicode="&#x154;" horiz-adv-x="1343" 
d="M662 1606h-99l185 295h178zM342 743h539q69 0 109 44t40 112v281q0 72 -40 114t-105 41h-543v-592zM342 608v-610h-147v1472h690q135 0 217 -77q80 -78 80 -215v-273q0 -137 -71 -212t-204 -81l320 -612l-164 -2l-320 610h-401z" />
    <glyph glyph-name="racute" unicode="&#x155;" horiz-adv-x="786" 
d="M414 1253h-99l185 295h178zM729 985h-98q-113 0 -221 -63l-111 -66v-856h-139v1106h139v-152l111 82q104 78 221 78h98v-129z" />
    <glyph glyph-name="Rcommaaccent" unicode="&#x156;" horiz-adv-x="1343" 
d="M756 -315q0 -39 -36 -97q-36 -57 -40 -69l-59 -117h-89l123 252h-80v201l181 -7v-163zM342 743h539q69 0 109 44t40 112v281q0 72 -40 114t-105 41h-543v-592zM342 608v-610h-147v1472h690q135 0 217 -77q80 -78 80 -215v-273q0 -137 -71 -212t-204 -81l320 -612l-164 -2
l-320 610h-401z" />
    <glyph glyph-name="rcommaaccent" unicode="&#x157;" horiz-adv-x="786" 
d="M729 979h-98q-113 0 -221 -64l-111 -65v-854h-139v1104h139v-152l111 82q104 78 221 78h98v-129zM319 -141v-170q0 -41 -36 -97q-36 -57 -39 -69l-60 -117h-88l123 252h-80v201h180z" />
    <glyph glyph-name="Rcaron" unicode="&#x158;" horiz-adv-x="1343" 
d="M342 743h539q69 0 109 44t40 112v281q0 72 -40 114t-105 41h-543v-592zM342 608v-610h-147v1472h690q135 0 217 -77q80 -78 80 -215v-273q0 -137 -71 -212t-204 -81l320 -612l-164 -2l-320 610h-401zM590 1610l-234 245h101l207 -155l206 155h101l-234 -245h-147z" />
    <glyph glyph-name="rcaron" unicode="&#x159;" horiz-adv-x="786" 
d="M631 985q-113 0 -221 -63l-111 -66v-856h-139v1106h139v-152l111 82q104 78 221 78h98v-129h-98zM483 1253h-147l-234 246h101l207 -156l206 156h101z" />
    <glyph glyph-name="Sacute" unicode="&#x15a;" horiz-adv-x="1284" 
d="M633 1612h-98l184 295h178zM811 1358h-360q-68 0 -107 -45t-39 -117v-158q0 -88 44 -122t104 -48l381 -92q150 -37 222 -98t70 -197v-196q0 -137 -76 -214t-216 -77h-385q-139 0 -217 77t-76 214v145h147v-149q0 -70 40 -116t110 -46h385q68 0 108 47t41 117v184
q0 88 -33 116t-116 48l-381 92q-149 37 -221 98t-72 197v170q0 137 78 215t215 78h360q137 0 215 -78t78 -215v-125h-147l-7 131q-4 76 -42 120t-103 44z" />
    <glyph glyph-name="sacute" unicode="&#x15b;" horiz-adv-x="1060" 
d="M516 1253h-98l184 295h178zM649 997h-254q-135 0 -135 -153v-68q0 -57 29 -80t98 -34l322 -54q123 -23 180 -77t57 -160v-113q0 -127 -68 -196t-198 -68h-307q-129 0 -198 68t-69 196v76h136v-72q0 -154 135 -153h299q131 0 131 153v107q0 57 -29 80t-98 34l-322 54
q-123 23 -180 77t-57 160v74q0 126 71 196t197 70h266q127 0 198 -71t71 -195v-57h-136l-4 53q-6 78 -38 116t-97 37z" />
    <glyph glyph-name="Scedilla" unicode="&#x15e;" horiz-adv-x="1284" 
d="M1118 289q0 -137 -77 -214t-216 -77h-139l-47 -94h74q82 0 128 -40t46 -112v-20q0 -74 -45 -113t-125 -39h-191l-102 98h309q27 0 36 10t9 44v20q0 35 -9 44t-36 9h-252l99 193h-136q-139 0 -216 77t-76 214v145h147v-149q0 -70 40 -116t110 -46h385q68 0 108 47t41 117
v184q0 88 -33 116t-116 48l-381 92q-150 37 -222 98t-71 197v170q0 137 78 215t215 78h360q137 0 215 -78t78 -215v-125h-148v129q0 72 -40 118t-105 46h-360q-68 0 -107 -45t-39 -117v-158q0 -88 49 -125q34 -28 99 -45l370 -90q150 -37 222 -98t71 -197v-196z" />
    <glyph glyph-name="scedilla" unicode="&#x15f;" horiz-adv-x="1060" 
d="M942 371v-113q0 -127 -69 -196t-197 -68h-80l-47 -94h74q82 0 128 -40t46 -112v-20q0 -74 -45 -113t-125 -39h-191l-102 98h309q27 0 36 10t9 44v20q0 35 -9 44t-36 9h-252l98 193h-116q-129 0 -198 68t-69 196v76h136v-72q0 -154 135 -153h299q131 0 131 153v107
q0 57 -29 80t-98 34l-322 54q-123 23 -180 77t-57 160v74q0 126 71 196t197 70h266q127 0 198 -71t71 -195v-57h-136v53q0 154 -135 153h-254q-135 0 -135 -153v-68q0 -58 28 -80t99 -34l314 -54q123 -23 180 -77t57 -160z" />
    <glyph glyph-name="Scaron" unicode="&#x160;" horiz-adv-x="1284" 
d="M811 1358h-360q-68 0 -107 -45t-39 -117v-158q0 -88 44 -122t104 -48l381 -92q150 -37 222 -98t70 -197v-196q0 -137 -76 -214t-216 -77h-385q-139 0 -217 77t-76 214v145h147v-149q0 -70 40 -116t110 -46h385q68 0 108 47t41 117v184q0 88 -33 116t-116 48l-381 92
q-149 37 -221 98t-72 197v170q0 137 78 215t215 78h360q137 0 215 -78t78 -215v-125h-147l-7 131q-4 76 -42 120t-103 44zM702 1612h-147l-233 246h100l207 -156l207 156h100z" />
    <glyph glyph-name="scaron" unicode="&#x161;" horiz-adv-x="1060" 
d="M649 997h-254q-135 0 -135 -153v-68q0 -57 29 -80t98 -34l322 -54q123 -23 180 -77t57 -160v-113q0 -127 -68 -196t-198 -68h-307q-129 0 -198 68t-69 196v76h136v-72q0 -154 135 -153h299q131 0 131 153v107q0 57 -29 80t-98 34l-322 54q-123 23 -180 77t-57 160v74
q0 126 71 196t197 70h266q127 0 198 -71t71 -195v-57h-136l-4 53q-6 78 -38 116t-97 37zM586 1253h-148l-233 246h100l207 -156l207 156h100z" />
    <glyph glyph-name="Tcedilla" unicode="&#x162;" horiz-adv-x="1159" 
d="M655 -100q82 0 128 -40t46 -112v-20q0 -74 -45 -113t-125 -39h-190l-102 98h309q27 0 36 10t9 44v20q0 35 -9 44t-36 9h-252l102 199h-20v1339h-440v136h1028v-136h-441v-1339h-16l-55 -100h73z" />
    <glyph glyph-name="tcedilla" unicode="&#x163;" horiz-adv-x="837" 
d="M840 -254v-20q0 -74 -45 -113t-125 -39h-191l-102 98h309q27 0 36 10t9 44v20q0 35 -9 44t-36 9h-252l103 201q-133 0 -209 76t-76 209v702h-195v117h197v369h135v-369h367v-117h-365v-706q0 -70 40 -116t112 -46h213v-119h-107l-51 -100l68 -2q174 -8 174 -152z" />
    <glyph glyph-name="Tcaron" unicode="&#x164;" horiz-adv-x="1159" 
d="M653 1339v-1339h-147v1339h-440v136h1028v-136h-441zM645 1610h-147l-234 245h101l206 -155l207 155h101z" />
    <glyph glyph-name="tcaron" unicode="&#x165;" horiz-adv-x="837" 
d="M541 117h213v-117h-217q-133 0 -209 76t-76 209v702h-195v117h197v369h135v-369h367v-117h-365l-2 -708q0 -70 40 -116t112 -46zM772 1710v-166q0 -34 -36 -97t-40 -73l-59 -117h-88l123 252h-80v201h180z" />
    <glyph glyph-name="Tbar" unicode="&#x166;" horiz-adv-x="1159" 
d="M834 1753v-123h-525v123h525zM1094 1339h-441v-1339h-147v1339h-440v136h1028v-136z" />
    <glyph glyph-name="tbar" unicode="&#x167;" horiz-adv-x="837" 
d="M604 729v-123h-215v-325q0 -70 40 -116t112 -46h213v-119h-217q-131 0 -208 77t-77 210v321h-170v123h170v258h-195v117h197v369h135v-369h367v-117h-365l-2 -260h215z" />
    <glyph glyph-name="Umacron" unicode="&#x16a;" horiz-adv-x="1351" 
d="M930 1753v-123h-524v123h524zM1178 1475v-1188q0 -139 -79 -215t-218 -76h-414q-139 0 -218 76t-79 215v1188h147v-1192q0 -68 40 -112t110 -44h414q69 0 109 44t40 112v1192h148z" />
    <glyph glyph-name="umacron" unicode="&#x16b;" horiz-adv-x="1150" 
d="M823 1395v-123h-524v123h524zM287 1106v-830q0 -70 40 -116t111 -45h82q113 0 221 63l111 66v862h139v-1106h-139v152l-111 -82q-102 -76 -221 -76h-86q-133 0 -210 77t-77 208v827h140z" />
    <glyph glyph-name="Uring" unicode="&#x16e;" horiz-adv-x="1351" 
d="M1174 1470v-1187q0 -139 -79 -215t-218 -76h-414q-139 0 -218 76t-79 215v1187h147v-1191q0 -68 40 -112t110 -44h414q69 0 109 44t40 112v1191h148zM569 1823v-119q0 -25 25 -25h139q25 0 25 25v119q0 25 -25 24h-139q-25 1 -25 -24zM496 1677v176q0 27 22 50
q23 23 49 22h197q28 1 50 -21t22 -49v-176q0 -29 -20 -49t-50 -20l-201 -4q-27 0 -48 21t-21 50z" />
    <glyph glyph-name="uring" unicode="&#x16f;" horiz-adv-x="1150" 
d="M463 1464v-118q0 -25 24 -25h140q25 0 24 25v118q0 25 -24 25h-140q-24 0 -24 -25zM389 1495q0 27 23 49t49 23h196q29 0 51 -22t21 -48v-176q-1 -29 -21 -49t-49 -21l-200 -4q-27 -1 -48 21t-22 51v176zM287 1106v-830q0 -70 40 -116t111 -45h82q113 0 221 63l111 66
v862h139v-1106h-139v152l-111 -82q-102 -76 -221 -76h-86q-133 0 -210 77t-77 208v827h140z" />
    <glyph glyph-name="Uhungarumlaut" unicode="&#x170;" horiz-adv-x="1351" 
d="M1178 1475v-1188q0 -139 -79 -215t-218 -76h-414q-139 0 -218 76t-79 215v1188h147v-1192q0 -68 40 -112t110 -44h414q69 0 109 44t40 112v1192h148zM1069 1907l-235 -297h-148l236 297h147zM776 1907l-235 -297h-148l236 297h147z" />
    <glyph glyph-name="uhungarumlaut" unicode="&#x171;" horiz-adv-x="1150" 
d="M287 1106v-830q0 -70 40 -116t111 -45h82q113 0 221 63l111 66v862h139v-1106h-139v152l-111 -82q-102 -76 -221 -76h-86q-133 0 -210 77t-77 208v827h140zM963 1550l-236 -297h-147l235 297h148zM670 1550l-236 -297h-147l235 297h148z" />
    <glyph glyph-name="Uogonek" unicode="&#x172;" horiz-adv-x="1351" 
d="M879 -4h-129l-97 -139q-57 -82 19 -82h170v-115h-205q-86 0 -129 53t12 148l96 135h-149q-139 0 -218 76t-79 215v1188h147v-1192q0 -68 40 -112t110 -44h414q69 0 109 44t40 112v1192h148l-2 -1188q0 -139 -79 -215t-218 -76z" />
    <glyph glyph-name="uogonek" unicode="&#x173;" horiz-adv-x="1150" 
d="M870 -344q-86 0 -129 53t13 148l102 143h-4v150l-111 -82q-102 -76 -221 -76h-86q-133 0 -210 77t-77 207v828h140v-828q0 -70 40 -116t111 -45h82q113 0 221 63l111 66v862h139v-1106l-102 -145q-57 -82 18 -82h170l-2 -117h-205z" />
    <glyph glyph-name="Wcircumflex" unicode="&#x174;" horiz-adv-x="1851" 
d="M1235 0l-307 1231l-307 -1231h-156l-404 1475h156l326 -1274l317 1274h135l318 -1274l325 1274h152l-404 -1475h-151zM920 1765l-207 -155h-101l234 245h147l234 -245h-101z" />
    <glyph glyph-name="wcircumflex" unicode="&#x175;" horiz-adv-x="1519" 
d="M989 0l-227 901l-227 -901h-156l-338 1106h141l275 -977l239 977h131l240 -977l279 977h133l-338 -1106h-152zM754 1409l-207 -156h-101l234 246h147l234 -246h-100z" />
    <glyph glyph-name="Ycircumflex" unicode="&#x176;" horiz-adv-x="1232" 
d="M543 0v549l-510 926h168l415 -773l416 773h168l-510 -926v-549h-147zM608 1765l-207 -155h-100l234 245h147l233 -245h-100z" />
    <glyph glyph-name="ycircumflex" unicode="&#x177;" horiz-adv-x="995" 
d="M954 1106l-510 -1493h-131l131 387l-403 1106h147l312 -936l315 936h139zM285 1253h-101l234 246h147l234 -246h-101l-206 156z" />
    <glyph glyph-name="Ydieresis" unicode="&#x178;" horiz-adv-x="1232" 
d="M862 1618h-160v205h160v-205zM514 1618h-160v205h160v-205zM690 0h-147v549l-510 926h168l415 -773l416 773h168l-510 -926v-549z" />
    <glyph glyph-name="Zacute" unicode="&#x179;" horiz-adv-x="1220" 
d="M625 1610h-99l185 295h178zM156 1339v136h944v-109l-801 -1231h797v-135h-975v109l801 1230h-766z" />
    <glyph glyph-name="zacute" unicode="&#x17a;" horiz-adv-x="937" 
d="M479 1253h-98l184 295h178zM111 987v119h745v-86l-604 -901h596v-119h-766v86l602 901h-573z" />
    <glyph glyph-name="Zdotaccent" unicode="&#x17b;" horiz-adv-x="1220" 
d="M702 1626h-163v193h163v-193zM156 1339v136h944v-109l-801 -1231h797v-135h-975v109l801 1230h-766z" />
    <glyph glyph-name="zdotaccent" unicode="&#x17c;" horiz-adv-x="937" 
d="M557 1270h-164v192h164v-192zM111 987v119h745v-86l-604 -901h596v-119h-766v86l602 901h-573z" />
    <glyph glyph-name="Zcaron" unicode="&#x17d;" horiz-adv-x="1220" 
d="M156 1339v136h944v-109l-801 -1231h797v-135h-975v109l801 1230h-766zM694 1610h-147l-234 245h101l207 -155l206 155h101z" />
    <glyph glyph-name="zcaron" unicode="&#x17e;" horiz-adv-x="937" 
d="M111 987v119h745v-86l-604 -901h596v-119h-766v86l602 901h-573zM549 1253h-148l-233 246h100l207 -156l207 156h100z" />
    <glyph glyph-name="florin" unicode="&#x192;" horiz-adv-x="831" 
d="M762 1339h-154q-68 0 -106 -42t-39 -113v-283h276v-127h-276v-479q0 -139 -81 -216t-216 -77h-100v135h100q68 0 108 44t41 112v483h-233v127h233v279q0 137 80 215q82 78 217 78h150v-136z" />
    <glyph glyph-name="circumflex" unicode="&#x2c6;" horiz-adv-x="1351" 
d="M676 1765l-207 -155h-100l233 245h148l233 -245h-100z" />
    <glyph glyph-name="caron" unicode="&#x2c7;" horiz-adv-x="1351" 
d="M750 1610h-148l-233 245h100l207 -155l207 155h100z" />
    <glyph glyph-name="breve" unicode="&#x2d8;" horiz-adv-x="1265" 
d="M702 1608h-143q-53 0 -92 39t-39 92v104h98v-96q0 -19 12 -31t31 -12h131q37 0 37 45v96h99l-2 -106q0 -53 -39 -92t-93 -39z" />
    <glyph glyph-name="dotaccent" unicode="&#x2d9;" horiz-adv-x="958" 
d="M561 1626h-164v193h164v-193z" />
    <glyph glyph-name="ring" unicode="&#x2da;" horiz-adv-x="704" 
d="M254 1823v-119q0 -25 25 -25h139q25 0 24 25v119q0 25 -24 24h-139q-25 1 -25 -24zM180 1853q0 27 23 50t49 22h197q29 1 51 -21t20 -49v-176q0 -29 -20 -49t-49 -20l-201 -4q-27 0 -48 21t-22 50v176z" />
    <glyph glyph-name="ogonek" unicode="&#x2db;" horiz-adv-x="796" 
d="M442 -227h170v-115h-204q-86 0 -129 52t12 149l102 141h135l-104 -145q-57 -82 18 -82z" />
    <glyph glyph-name="tilde" unicode="&#x2dc;" horiz-adv-x="1249" 
d="M473 1733l-35 -123h-110l41 194q8 40 40 56t78 -2l279 -119l39 121h115l-46 -197q-10 -41 -44 -56t-74 3z" />
    <glyph glyph-name="hungarumlaut" unicode="&#x2dd;" horiz-adv-x="1536" 
d="M1106 1907l-236 -297h-147l235 297h148zM813 1907l-235 -297h-148l236 297h147z" />
    <glyph glyph-name="commaaccentcomb" unicode="&#x326;" horiz-adv-x="0" 
d="M449 -141v-170q-1 -39 -37 -97t-39 -69l-60 -117h-88l123 252h-80v201h181z" />
    <glyph glyph-name="Wgrave" unicode="&#x1e80;" horiz-adv-x="1851" 
d="M1235 0l-307 1231l-307 -1231h-156l-404 1475h156l326 -1274l317 1274h135l318 -1274l325 1274h152l-404 -1475h-151zM1010 1610h-99l-264 295h178z" />
    <glyph glyph-name="wgrave" unicode="&#x1e81;" horiz-adv-x="1519" 
d="M989 0l-227 901l-227 -901h-156l-338 1106h141l275 -977l239 977h131l240 -977l279 977h133l-338 -1106h-152zM844 1253h-99l-264 295h178z" />
    <glyph glyph-name="Wacute" unicode="&#x1e82;" horiz-adv-x="1851" 
d="M924 1610h-99l185 295h178zM1386 0h-151l-307 1231l-307 -1231h-156l-404 1475h156l326 -1274l317 1274h135l318 -1274l325 1274h152z" />
    <glyph glyph-name="wacute" unicode="&#x1e83;" horiz-adv-x="1519" 
d="M758 1253h-99l185 295h178zM1141 0h-152l-227 901l-227 -901h-156l-338 1106h141l275 -977l239 977h131l240 -977l279 977h133z" />
    <glyph glyph-name="Wdieresis" unicode="&#x1e84;" horiz-adv-x="1851" 
d="M1174 1618h-160v205h160v-205zM825 1618h-159v205h159v-205zM1386 0h-151l-307 1231l-307 -1231h-156l-404 1475h156l326 -1274l317 1274h135l318 -1274l325 1274h152z" />
    <glyph glyph-name="wdieresis" unicode="&#x1e85;" horiz-adv-x="1519" 
d="M1008 1262h-160v204h160v-204zM659 1262h-159v204h159v-204zM1141 0h-152l-227 901l-227 -901h-156l-338 1106h141l275 -977l239 977h131l240 -977l279 977h133z" />
    <glyph glyph-name="Ygrave" unicode="&#x1ef2;" horiz-adv-x="1232" 
d="M543 0v549l-510 926h168l415 -773l416 773h168l-510 -926v-549h-147zM698 1610h-98l-264 295h178z" />
    <glyph glyph-name="ygrave" unicode="&#x1ef3;" horiz-adv-x="995" 
d="M954 1106l-510 -1493h-131l131 387l-403 1106h147l312 -936l315 936h139zM483 1253l-264 295h178l185 -295h-99z" />
    <glyph glyph-name="endash" unicode="&#x2013;" horiz-adv-x="1142" 
d="M1012 743v-135h-881v135h881z" />
    <glyph glyph-name="emdash" unicode="&#x2014;" horiz-adv-x="1662" 
d="M1532 741v-131h-1401v131h1401z" />
    <glyph glyph-name="quoteleft" unicode="&#x2018;" horiz-adv-x="458" 
d="M319 1223v-201h-180l-2 164q0 34 39 102t39 70l59 117h88l-122 -252h79z" />
    <glyph glyph-name="quoteright" unicode="&#x2019;" horiz-adv-x="458" 
d="M319 1475v-166q0 -34 -36 -97t-39 -73l-60 -117h-88l123 252h-80v201h180z" />
    <glyph glyph-name="quotesinglbase" unicode="&#x201a;" horiz-adv-x="458" 
d="M319 201v-170q0 -39 -36 -95q-36 -57 -39 -69l-60 -117h-88l123 250h-80v201h180z" />
    <glyph glyph-name="quotedblleft" unicode="&#x201c;" horiz-adv-x="765" 
d="M625 1223v-201h-181l-2 164q0 36 40 103t38 69l60 117h88l-123 -252h80zM319 1223v-201h-180l-2 164q0 34 39 102t39 70l59 117h88l-122 -252h79z" />
    <glyph glyph-name="quotedblright" unicode="&#x201d;" horiz-adv-x="765" 
d="M627 1473v-166q0 -32 -36 -96t-40 -74l-59 -117h-89l123 252h-80v201h181zM319 1475v-166q0 -34 -36 -97t-39 -73l-60 -117h-88l123 252h-80v201h180z" />
    <glyph glyph-name="quotedblbase" unicode="&#x201e;" horiz-adv-x="458" 
d="M319 201v-170q0 -39 -36 -95q-36 -57 -39 -69l-60 -117h-88l123 250h-80v201h180z" />
    <glyph glyph-name="dagger" unicode="&#x2020;" horiz-adv-x="765" 
d="M684 983h-233v-983h-136v983h-233v123h233v369h136v-369h233v-123z" />
    <glyph glyph-name="daggerdbl" unicode="&#x2021;" horiz-adv-x="765" 
d="M451 983v-491h233v-123h-233v-369h-136v369h-233v123h233v491h-233v123h233v369h136v-369h233v-123h-233z" />
    <glyph glyph-name="bullet" unicode="&#x2022;" horiz-adv-x="876" 
d="M549 573h-221q-33 0 -56 23t-22 55v221q0 33 22 56q23 23 56 22h221q33 0 55 -22t23 -56v-221q-1 -33 -23 -55t-55 -23z" />
    <glyph glyph-name="ellipsis" unicode="&#x2026;" horiz-adv-x="1318" 
d="M1180 0h-181v201h181v-201zM750 0h-181v201h181v-201zM319 0h-180v201h180v-201z" />
    <glyph glyph-name="perthousand" unicode="&#x2030;" horiz-adv-x="1855" 
d="M1645 133v283q0 43 -35 43h-152q-18 -1 -30 -13t-13 -30v-285q0 -19 12 -31t31 -12h152q35 0 35 45zM1092 135v283q0 43 -35 43h-152q-19 0 -31 -12t-12 -31v-285q0 -19 12 -31t31 -12h152q35 0 35 45zM1438 563h186q55 0 92 -40t37 -91v-311q0 -51 -36 -90t-93 -39h-186
q-55 0 -93 38t-38 91v311q0 53 39 92t92 39zM885 563h186q53 0 92 -39t39 -92v-311q0 -53 -38 -91t-93 -38h-186q-55 0 -93 38t-38 91v311q0 53 39 92t92 39zM440 1055v282q0 43 -34 43h-152q-18 0 -30 -12t-13 -31v-284q0 -19 12 -31t31 -12h152q34 0 34 45zM1100 1475
l-778 -1475h-123l776 1475h125zM233 1483h187q53 0 92 -39t39 -92v-312q0 -53 -39 -92t-92 -39h-187q-53 0 -92 39t-39 92v312q0 53 39 92t92 39z" />
    <glyph glyph-name="guilsinglleft" unicode="&#x2039;" horiz-adv-x="540" 
d="M467 1145l-289 -426l289 -424h-148l-262 383v82l262 385h148z" />
    <glyph glyph-name="guilsinglright" unicode="&#x203a;" horiz-adv-x="540" 
d="M483 760v-82l-262 -383h-147l288 424l-288 426h147z" />
    <glyph glyph-name="fraction" unicode="&#x2044;" horiz-adv-x="286" 
d="M594 1475l-780 -1475h-119l780 1475h119z" />
    <glyph glyph-name="zerosuperior" unicode="&#x2070;" horiz-adv-x="720" 
d="M201 1536v-418q0 -51 61 -51h197q61 0 61 51v418q0 51 -61 51h-197q-61 0 -61 -51zM84 1100v454q0 63 43 105q45 41 117 41h233q76 0 118 -39t42 -105v-454q0 -66 -42 -105t-118 -39l-233 -4q-72 0 -117 41q-43 41 -43 105z" />
    <glyph glyph-name="foursuperior" unicode="&#x2074;" horiz-adv-x="749" 
d="M461 1231v299l-268 -299h268zM694 1124h-116v-161h-117v161h-395l-17 90l416 486h113v-469h116v-107z" />
    <glyph glyph-name="fivesuperior" unicode="&#x2075;" horiz-adv-x="688" 
d="M82 1700h520v-113h-399v-223l57 41q45 39 105 39h92q69 0 115 -40t46 -106v-192q0 -66 -46 -106t-115 -39h-219q-70 -1 -116 39t-46 106v72h119v-52q0 -55 63 -55h178q63 0 64 55v156q0 55 -66 55h-74q-55 0 -110 -26l-49 -23l-119 37v375z" />
    <glyph glyph-name="sixsuperior" unicode="&#x2076;" horiz-adv-x="702" 
d="M260 1067h178q63 0 64 55v138q0 55 -66 55h-84q-53 0 -104 -25l-49 -22l-2 -146q0 -55 63 -55zM430 1587h-168q-63 0 -63 -55v-193l57 41q41 39 106 39h101q70 0 116 -40t46 -105v-172q0 -66 -46 -106t-116 -40h-219q-70 0 -116 40t-46 106v450q0 66 46 106t116 40h209
q69 0 115 -40t46 -106v-63h-118l-2 43q-2 55 -64 55z" />
    <glyph glyph-name="sevensuperior" unicode="&#x2077;" horiz-adv-x="649" 
d="M43 1587v113h557v-88l-381 -649h-129l367 624h-414z" />
    <glyph glyph-name="eightsuperior" unicode="&#x2078;" horiz-adv-x="708" 
d="M434 1288h-166q-78 0 -78 -55v-109q0 -55 64 -55h192q63 0 64 55v109q0 55 -76 55zM442 1593h-178q-66 0 -65 -55v-90q0 -31 15 -43t56 -12h166q39 0 56 12q14 12 14 43v90q-1 55 -64 55zM625 1556v-106q0 -70 -74 -111q82 -31 82 -110v-123q0 -66 -46 -106t-116 -39
h-233q-70 -1 -116 39t-46 106v123q0 80 82 110q-74 41 -74 111v106q0 62 47 104t117 42h215q70 0 116 -40t46 -106z" />
    <glyph glyph-name="ninesuperior" unicode="&#x2079;" horiz-adv-x="702" 
d="M442 1591h-178q-63 0 -63 -55v-131q0 -55 65 -55h84q47 0 105 26l49 23l2 137q0 55 -64 55zM272 1071h168q63 0 64 55v199l-55 -39q-41 -39 -109 -39h-100q-70 0 -116 40t-46 106v163q0 66 46 106t116 40h219q69 0 115 -40t47 -106v-450q-1 -66 -47 -106t-115 -39h-209
q-70 -1 -116 39t-46 106v63h119l2 -43q4 -55 63 -55z" />
    <glyph glyph-name="Euro" unicode="&#x20ac;" horiz-adv-x="1361" 
d="M918 1348h-383q-68 0 -107 -42t-39 -114v-203h524v-131h-524v-225h524v-131h-524v-219q0 -68 41 -112t109 -44h383q68 0 108 44t41 112v159h148v-155q0 -139 -79 -215t-218 -76h-383q-139 0 -216 77t-77 214v215h-168v131h168v225h-168v131h168v199q0 137 78 215t215 78
h383q135 0 216 -77t81 -216v-156h-148l-8 160q-4 74 -41 115t-104 41z" />
    <glyph glyph-name="trademark" unicode="&#x2122;" horiz-adv-x="1533" 
d="M1421 1475v-738h-84v609l-213 -494h-69l-217 494v-609h-84v738h102l231 -514l232 514h102zM629 1393h-213v-656h-92v656h-211v82h516v-82z" />
    <glyph glyph-name="oneeighth" unicode="&#x215b;" horiz-adv-x="1421" 
d="M188 737v615l-141 -49v102l164 70h96v-738h-119zM1016 1475l-783 -1475h-118l782 1475h119zM1147 326h-166q-78 0 -78 -56v-108q0 -55 64 -56h192q63 0 64 56v108q0 56 -76 56zM1155 631h-178q-66 0 -66 -56v-90q-1 -31 15 -43t57 -12h166q39 0 55 12q14 12 15 43v90
q-1 56 -64 56zM1337 594v-107q0 -70 -73 -110q82 -31 82 -111v-123q0 -67 -46 -105t-116 -38h-234q-72 0 -116 39t-46 104v123q0 80 82 111q-74 41 -73 110v107q0 63 47 104t117 41h215q70 1 116 -39t45 -106z" />
    <glyph glyph-name="threeeighths" unicode="&#x215c;" horiz-adv-x="1681" 
d="M1274 1475l-782 -1475h-119l782 1475h119zM1405 326h-166q-78 0 -78 -56v-108q0 -55 64 -56h192q63 0 64 56v108q0 56 -76 56zM1413 631h-178q-66 0 -66 -56v-90q-1 -31 15 -43t57 -12h166q39 0 55 12q14 12 15 43v90q-1 56 -64 56zM1595 594v-107q0 -70 -73 -110
q82 -31 82 -111v-123q0 -67 -45 -105t-117 -38h-234q-72 0 -116 39t-45 104v123q0 80 81 111q-74 41 -73 110v107q0 63 47 104t117 41h215q70 1 116 -39t45 -106zM242 844h184q63 0 63 55v109q0 55 -75 55h-176v104h176q41 1 55 13t14 43v90q0 55 -63 55h-166q-66 0 -66 -55
v-51h-118v69q0 63 47 105t116 41h207q70 0 116 -40t46 -106v-106q0 -70 -72 -111q80 -31 80 -110v-123q0 -66 -46 -106t-115 -40h-226q-70 0 -116 40t-46 106v69h119l-2 -51q-4 -55 64 -55z" />
    <glyph glyph-name="fiveeighths" unicode="&#x215d;" horiz-adv-x="1683" 
d="M1280 1475l-782 -1475h-119l782 1475h119zM78 1475h520v-113h-399v-223l57 41q45 39 104 39h93q69 0 115 -40t46 -106v-192q0 -66 -46 -106t-115 -40h-220q-69 0 -115 40t-46 106v71h118v-51q0 -55 64 -55h178q63 0 64 55v156q0 55 -66 55h-74q-55 0 -110 -27l-49 -22
l-119 37v375zM1409 326h-166q-78 0 -78 -56v-108q0 -55 64 -56h192q63 0 64 56v108q0 56 -76 56zM1417 631h-178q-66 0 -65 -56v-90q0 -31 15 -43t56 -12h166q39 0 55 12q14 12 15 43v90q-1 56 -64 56zM1599 594v-107q0 -70 -73 -110q82 -31 82 -111v-123q0 -67 -45 -105
t-117 -38h-234q-72 0 -116 39t-45 104v123q0 80 82 111q-74 41 -74 110v107q0 63 47 104t117 41h215q70 1 116 -39t45 -106z" />
    <glyph glyph-name="seveneighths" unicode="&#x215e;" horiz-adv-x="1480" 
d="M1075 1475l-782 -1475h-119l782 1475h119zM39 1362v113h557v-89l-381 -649h-129l367 625h-414zM1206 326h-166q-78 0 -77 -56v-108q0 -55 63 -56h193q63 0 63 56v108q0 56 -76 56zM1214 631h-178q-66 0 -65 -56v-90q0 -31 16 -43t55 -12h166q41 0 56 12q14 12 14 43v90
q-1 56 -64 56zM1397 594v-107q0 -70 -74 -110q82 -31 82 -111v-123q0 -67 -45 -105t-117 -38h-233q-72 0 -117 39t-45 104v123q0 80 82 111q-74 41 -74 110v107q0 63 47 104t117 41h215q70 1 116 -39t46 -106z" />
    <glyph glyph-name="minus" unicode="&#x2212;" horiz-adv-x="1040" 
d="M135 821h770v-127h-770v127z" />
    <glyph glyph-name="infinity" unicode="&#x221e;" horiz-adv-x="1712" 
d="M1417 639v197q0 70 -41 116t-110 47h-193q-71 0 -111 -46t-40 -115v-201q0 -70 40 -116t111 -46h193q70 0 110 47t41 117zM791 639v201q0 70 -41 116t-111 48h-193q-72 0 -112 -46t-39 -116v-201q-1 -70 39 -116t112 -46l193 -4q70 0 111 47t41 117zM1075 1130h191
q131 0 209 -78t77 -208v-201q0 -131 -78 -209t-208 -78h-191q-127 0 -219 117q-92 -117 -219 -117h-191q-130 0 -208 78t-78 209v201q0 131 78 209t208 77h191q127 0 219 -116q92 116 219 116z" />
    <glyph glyph-name="notequal" unicode="&#x2260;" horiz-adv-x="1040" 
d="M905 659v-135h-448l-109 -194h-131l109 194h-191v135h264l119 213h-383v136h457l100 180h131l-100 -180h182v-136h-256l-119 -213h375z" />
    <glyph glyph-name="fi" unicode="&#xfb01;" horiz-adv-x="1255" 
d="M1083 1104v-1104h-139v1104h139zM1094 1348h-160v180h160v-180zM393 1247v-141h334v-117h-332v-989h-139v989h-195v117h197v137q0 131 78 209t209 78h182v-119l-182 -2q-72 0 -112 -46t-40 -116z" />
    <glyph glyph-name="fl" unicode="&#xfb02;" horiz-adv-x="1251" 
d="M944 1528h135v-1528h-135v1528zM393 1247v-141h334v-117h-332v-989h-139v989h-195v117h197v137q0 131 78 209t209 78h182v-119l-182 -2q-72 0 -112 -46t-40 -116z" />
    <glyph glyph-name="Q.ss01" horiz-adv-x="1349" 
d="M887 1348h-436q-66 0 -106 -42t-40 -114v-909q0 -68 40 -112t110 -44h436q69 0 109 44t40 112l-8 909q0 72 -39 114t-106 42zM457 1483h436q137 0 215 -78t78 -215v-901q0 -137 -77 -214t-216 -77h-143v-244h-148v244h-145q-139 0 -218 77t-79 214v901q0 137 80 215
q82 78 217 78z" />
    <glyph glyph-name="zero.subs" horiz-adv-x="720" 
d="M201 389v-416q0 -51 61 -51h197q61 0 61 51v416q0 51 -61 51h-197q-61 0 -61 -51zM84 -45v453q0 63 43 104q45 41 117 41h233q76 0 118 -39t42 -104v-453q0 -63 -42 -103t-118 -40l-233 -4q-72 0 -116 40t-44 105z" />
    <glyph glyph-name="one.subs" horiz-adv-x="425" 
d="M193 -182v612l-142 -49v102l164 70h96v-735h-118z" />
    <glyph glyph-name="two.subs" horiz-adv-x="679" 
d="M199 389v-53h-117v74q0 66 46 106t116 39h207q69 0 115 -40t46 -105v-121q0 -39 -26 -69t-58 -44t-77 -31l-197 -71q-47 -16 -49 -19q-14 -8 -15 -30v-88h426v-113h-544v221q0 41 26 70t58 43t77 30l197 72q47 16 49 19q14 8 15 30v78q0 57 -64 57h-168q-63 0 -63 -55z
" />
    <glyph glyph-name="three.subs" horiz-adv-x="686" 
d="M426 -76q63 0 63 56v106q0 55 -75 55h-176v105h176q41 0 55 12t14 43v90q0 55 -63 55h-166q-66 0 -66 -55v-51h-118v70q0 63 47 104t116 41h207q70 0 116 -40t46 -105v-107q0 -70 -72 -110q80 -31 80 -111v-121q0 -65 -46 -105t-115 -40h-226q-70 0 -116 40t-46 105v68
h119l-2 -49q-4 -54 64 -56h184z" />
    <glyph glyph-name="four.subs" horiz-adv-x="749" 
d="M461 84v299l-268 -299h268zM694 -20h-116v-162h-117v162h-395l-17 88l416 485h113v-469h116v-104z" />
    <glyph glyph-name="five.subs" horiz-adv-x="688" 
d="M82 553h520v-113h-399v-223l57 41q45 39 105 39h92q69 0 115 -40t46 -105v-191q0 -65 -46 -105t-115 -40h-219q-70 0 -116 40t-46 105v70h119v-49q0 -55 63 -56h178q63 0 64 56v153q0 55 -66 55h-74q-55 0 -110 -26l-49 -23l-119 37v375z" />
    <glyph glyph-name="six.subs" horiz-adv-x="702" 
d="M260 -78h178q63 0 64 55v136q0 55 -66 55h-84q-53 0 -104 -25l-49 -22l-2 -144q0 -55 63 -55zM430 440h-168q-63 0 -63 -55v-192l57 40q41 39 106 39h101q70 0 116 -40t46 -105v-170q0 -65 -46 -105t-116 -40h-219q-70 0 -116 40t-46 105v449q0 66 46 106t116 39h209
q69 0 115 -40t46 -105v-64h-118l-2 43q-2 55 -64 55z" />
    <glyph glyph-name="seven.subs" horiz-adv-x="649" 
d="M43 440v113h557v-88l-381 -647h-129l367 622h-414z" />
    <glyph glyph-name="eight.subs" horiz-adv-x="708" 
d="M434 141h-166q-78 0 -78 -55v-106q0 -55 64 -56h192q63 0 64 56v106q0 55 -76 55zM442 446h-178q-66 0 -65 -55v-90q0 -31 15 -43t56 -12h166q39 0 56 12q14 12 14 43v90q-1 55 -64 55zM625 410v-107q0 -70 -74 -110q82 -31 82 -111v-121q0 -65 -46 -105t-116 -40h-233
q-70 0 -116 40t-46 105v121q0 80 82 111q-74 41 -74 110v107q0 63 47 104t117 41h215q70 1 116 -39t46 -106z" />
    <glyph glyph-name="nine.subs" horiz-adv-x="702" 
d="M442 444h-178q-63 0 -63 -55v-131q0 -55 65 -55h84q47 0 105 26l49 23l2 137q0 55 -64 55zM440 -74q63 0 64 56v196l-55 -39q-41 -39 -109 -39h-100q-70 0 -116 40t-46 106v164q0 66 46 106t116 39h219q69 0 115 -40t47 -105v-449q-1 -65 -47 -105t-115 -40h-209
q-70 0 -116 40t-46 105v62h119l2 -41q4 -55 63 -56h168z" />
    <glyph glyph-name="zero.tf" 
d="M451 127h395q68 0 108 44t41 112v909q0 72 -39 114t-106 42h-395q-66 0 -106 -42t-40 -114l-8 -909q0 -68 40 -112t110 -44zM852 -6h-395q-139 0 -218 77t-79 214v901q0 137 80 215q82 78 217 78h395q137 0 215 -78t78 -215v-901q0 -137 -77 -214t-216 -77z" />
    <glyph glyph-name="one.tf" 
d="M1106 0h-881v135h379v1200l-379 -102v139l377 103h150v-1340h354v-135z" />
    <glyph glyph-name="two.tf" 
d="M193 1055v133q0 137 77 215q78 78 215 78h353q137 0 215 -78t77 -215v-213q0 -102 -43 -154l-30 -33q-14 -14 -45 -30l-49 -27q-18 -11 -47 -23t-51 -22t-27 -12l-439 -205q-67 -34 -75 -61q-6 -18 -7 -46v-235h820v-133h-967v364q0 46 13 92t30 62l31 31q14 14 45 30
l49 25q6 4 40 18t56 25q20 10 27 12l436 203q65 32 74 62q6 18 6 45v213q0 70 -40 116t-110 45h-352q-69 1 -109 -43t-40 -112l14 -127h-147z" />
    <glyph glyph-name="three.tf" 
d="M449 129h393q147 0 147 156v258q0 75 -39 113t-135 38h-360v133h360q92 0 127 35t35 117v215q0 156 -148 156h-360q-147 0 -147 -156v-117h-148v113q0 137 80 215q82 78 217 78h360q135 0 217 -78t80 -215v-209q0 -150 -135 -221q61 -20 107 -80t45 -143v-250
q0 -139 -79 -215t-218 -76h-393q-139 0 -218 76t-79 215v112h147l-4 -114q-6 -156 148 -156z" />
    <glyph glyph-name="four.tf" 
d="M848 504v780l-582 -780h582zM1210 369h-215v-369h-147v369h-758v114l737 992h168v-971h215v-135z" />
    <glyph glyph-name="five.tf" 
d="M1116 1339h-776v-542l111 82q104 78 221 77h174q133 0 210 -76t77 -208v-383q0 -137 -79 -214t-218 -77h-363q-139 0 -216 77t-77 214v121h148v-127q0 -68 40 -112t109 -44h363q70 0 110 44t39 112v383q0 68 -40 112t-111 43h-162q-113 0 -221 -63l-111 -66l-147 47v736
h919v-136z" />
    <glyph glyph-name="six.tf" 
d="M481 125h359q70 0 110 44t39 112v342q0 67 -40 111t-111 44h-166q-113 0 -221 -65l-115 -68l-4 -364q0 -68 41 -112t108 -44zM823 1346h-338q-69 0 -107 -42t-38 -114v-432l133 96q84 59 203 59h178q133 -1 210 -77t77 -207v-342q0 -139 -79 -215t-218 -76h-359
q-139 0 -216 77t-76 214v901q0 137 77 215q78 78 215 78h338q135 0 216 -77t81 -216v-115h-147l-4 117q-4 74 -42 115t-104 41z" />
    <glyph glyph-name="seven.tf" 
d="M125 1339v136h1028v-99l-661 -1376h-156l637 1339h-848z" />
    <glyph glyph-name="eight.tf" 
d="M823 690h-348q-96 0 -135 -39t-39 -112v-258q0 -156 148 -156h401q147 0 147 156v258q0 75 -39 113t-135 38zM319 975q0 -84 33 -117t129 -33h344q94 0 128 34t34 118v215q0 156 -147 156l-373 -2q-147 0 -148 -156v-215zM1135 1188v-209q0 -152 -136 -221
q61 -20 107 -80t45 -143v-250q0 -137 -77 -214t-216 -77h-401q-139 0 -216 77t-77 214v250q0 82 45 142t106 81q-135 70 -135 221v209q0 137 78 215t215 78h369q137 0 215 -78t78 -215z" />
    <glyph glyph-name="nine.tf" 
d="M815 1348h-358q-68 0 -107 -42t-39 -114v-318q0 -68 41 -112t111 -43h170q113 0 221 63l111 66l-4 344q0 72 -40 114t-106 42zM481 127h338q70 0 110 44t40 112v460l-111 -81q-104 -78 -221 -78h-182q-131 0 -209 78t-78 208v318q0 137 78 215t215 78h358q135 0 216 -77
t81 -216v-901q0 -139 -79 -215t-218 -76h-338q-139 0 -216 77t-77 214v114h148l-4 -118q-2 -66 40 -111t109 -45z" />
    <glyph glyph-name="zero.dnom" horiz-adv-x="720" 
d="M201 573v-417q0 -51 61 -52h197q61 0 61 52v417q0 51 -61 52h-197q-61 -1 -61 -52zM84 137v455q0 63 43 104q45 41 117 41h233q76 0 118 -39t42 -104v-455q0 -65 -41 -103t-119 -38l-233 -4q-76 0 -118 40t-42 103z" />
    <glyph glyph-name="one.dnom" horiz-adv-x="425" 
d="M193 0v614l-142 -49v103l164 69h96v-737h-118z" />
    <glyph glyph-name="two.dnom" horiz-adv-x="679" 
d="M199 573v-53h-117v74q0 66 46 106t116 39h207q69 0 115 -40t46 -105v-121q0 -39 -26 -69t-58 -43q-32 -14 -77 -31l-197 -72q-47 -16 -49 -18q-14 -8 -15 -31v-90h426v-113h-544v223q0 41 26 70t58 43t77 31l197 71q47 16 49 19q14 8 15 31v77q0 57 -64 58h-168
q-63 -1 -63 -56z" />
    <glyph glyph-name="three.dnom" horiz-adv-x="686" 
d="M426 106q63 0 63 56v108q0 55 -75 56h-176v104h176q41 0 55 12t14 43v90q0 55 -63 56h-166q-66 0 -66 -56v-51h-118v70q0 63 47 104t116 41h207q70 0 116 -40t46 -105v-107q0 -70 -72 -110q80 -31 80 -111v-123q0 -67 -45 -105t-116 -38h-226q-72 0 -117 39t-45 104v70
h119l-2 -51q-4 -54 64 -56h184z" />
    <glyph glyph-name="four.dnom" horiz-adv-x="749" 
d="M461 268v299l-268 -299h268zM694 162h-116v-162h-117v162h-395l-17 90l416 485h113v-469h116v-106z" />
    <glyph glyph-name="five.dnom" horiz-adv-x="688" 
d="M82 737h520v-112h-399v-224l57 41q45 39 105 39h92q69 0 115 -40t46 -105v-193q0 -67 -45 -105t-116 -38h-219q-72 0 -117 39t-45 104v72h119v-51q0 -55 63 -55h178q63 0 64 55v155q0 55 -66 56h-74q-55 0 -110 -27l-49 -22l-119 36v375z" />
    <glyph glyph-name="six.dnom" horiz-adv-x="702" 
d="M260 109h178q63 0 64 55v137q0 55 -66 55h-84q-53 0 -104 -24l-49 -23l-2 -145q0 -55 63 -55zM262 629q-63 0 -63 -56v-192l57 41q41 39 106 39h101q70 0 116 -40t46 -106v-172q0 -67 -45 -105t-117 -38h-219q-72 0 -117 39t-45 104v451q0 66 46 106t116 39h209
q69 0 115 -40t46 -105v-64h-118l-2 43q-2 55 -64 56h-168z" />
    <glyph glyph-name="seven.dnom" horiz-adv-x="649" 
d="M43 625v112h557v-88l-381 -649h-129l367 625h-414z" />
    <glyph glyph-name="eight.dnom" horiz-adv-x="708" 
d="M434 326h-166q-78 0 -78 -56v-108q0 -55 64 -56h192q63 0 64 56v108q0 56 -76 56zM442 631h-178q-66 0 -65 -56v-90q0 -31 15 -43t56 -12h166q39 0 56 12q14 12 14 43v90q-1 56 -64 56zM625 594v-107q0 -70 -74 -110q82 -31 82 -111v-123q0 -67 -45 -105t-117 -38h-233
q-72 0 -117 39t-45 104v123q0 80 82 111q-74 41 -74 110v107q0 63 47 104t117 41h215q70 1 116 -39t46 -106z" />
    <glyph glyph-name="nine.dnom" horiz-adv-x="702" 
d="M264 629q-63 0 -63 -56v-131q0 -55 65 -55h84q47 0 105 27l49 22l2 137q0 55 -64 56h-178zM272 109h168q63 0 64 55v198l-55 -38q-41 -39 -109 -39h-100q-70 0 -116 40t-46 105v164q0 66 46 106t116 39h219q69 0 115 -40t47 -105v-451q1 -67 -45 -105t-117 -38h-209
q-72 0 -117 39t-45 104v64h119l2 -43q4 -55 63 -55z" />
    <glyph glyph-name="zero.numr" horiz-adv-x="720" 
d="M201 1311v-418q0 -51 61 -51h197q61 0 61 51v418q0 51 -61 51h-197q-61 0 -61 -51zM84 874v455q0 63 43 105q45 41 117 41h233q76 0 118 -39t42 -105v-454q0 -66 -42 -105t-118 -39l-233 -4q-72 0 -117 41q-43 41 -43 104z" />
    <glyph glyph-name="one.numr" horiz-adv-x="425" 
d="M193 737v615l-142 -49v102l164 70h96v-738h-118z" />
    <glyph glyph-name="two.numr" horiz-adv-x="679" 
d="M199 1311v-54h-117v74q0 66 46 106t116 40h207q69 0 115 -40t46 -106v-121q0 -38 -26 -68t-58 -44t-77 -31l-197 -72q-47 -16 -49 -18q-14 -8 -15 -31v-90h426v-113h-544v224q0 41 26 69t58 43q32 14 77 31l197 72q47 16 49 18q14 8 15 31v78q0 57 -64 57h-168
q-63 0 -63 -55z" />
    <glyph glyph-name="three.numr" horiz-adv-x="686" 
d="M242 844h184q63 0 63 55v109q0 55 -75 55h-176v104h176q41 1 55 13t14 43v90q0 55 -63 55h-166q-66 0 -66 -55v-51h-118v69q0 63 47 105t116 41h207q70 0 116 -40t46 -106v-106q0 -70 -72 -111q80 -31 80 -110v-123q0 -66 -46 -106t-115 -40h-226q-70 0 -116 40t-46 106
v69h119l-2 -51q-4 -55 64 -55z" />
    <glyph glyph-name="four.numr" horiz-adv-x="749" 
d="M461 1006v299l-268 -299h268zM694 899h-116v-162h-117v162h-395l-17 90l416 486h113v-469h116v-107z" />
    <glyph glyph-name="five.numr" horiz-adv-x="688" 
d="M82 1475h520v-113h-399v-223l57 41q45 39 105 39h92q69 0 115 -40t46 -106v-192q0 -66 -46 -106t-115 -40h-219q-70 0 -116 40t-46 106v71h119v-51q0 -55 63 -55h178q63 0 64 55v156q0 55 -66 55h-74q-55 0 -110 -27l-49 -22l-119 37v375z" />
    <glyph glyph-name="six.numr" horiz-adv-x="702" 
d="M260 842h178q63 0 64 55v137q0 55 -66 56h-84q-53 0 -104 -25l-49 -23l-2 -145q0 -55 63 -55zM430 1362h-168q-63 0 -63 -55v-193l57 41q41 39 106 39h101q70 0 116 -40t46 -105v-172q0 -66 -46 -106t-116 -40h-219q-70 0 -116 40t-46 106v450q0 66 46 106t116 40h209
q69 0 115 -40t46 -106v-63h-118l-2 43q-2 55 -64 55z" />
    <glyph glyph-name="seven.numr" horiz-adv-x="649" 
d="M43 1362v113h557v-89l-381 -649h-129l367 625h-414z" />
    <glyph glyph-name="eight.numr" horiz-adv-x="708" 
d="M434 1063h-166q-78 0 -78 -55v-109q0 -55 64 -55h192q63 0 64 55v109q0 55 -76 55zM442 1368h-178q-66 0 -65 -55v-90q0 -31 15 -43t56 -13h166q38 1 54 13t16 43v90q-1 55 -64 55zM625 1331v-106q0 -70 -74 -111q82 -31 82 -110v-123q0 -66 -46 -106t-116 -40h-233
q-70 0 -116 40t-46 106v123q0 80 82 110q-74 41 -74 111v106q0 63 47 105t117 41h215q70 0 116 -40t46 -106z" />
    <glyph glyph-name="nine.numr" horiz-adv-x="702" 
d="M442 1366h-178q-63 0 -63 -55v-131q0 -55 65 -56h84q47 0 105 27l49 23l2 137q0 55 -64 55zM272 846h168q63 0 64 55v199l-55 -39q-41 -39 -109 -39h-100q-70 0 -116 40t-46 105v164q0 66 46 106t116 40h219q69 0 115 -40t47 -106v-450q-1 -66 -47 -106t-115 -40h-209
q-70 0 -116 40t-46 106v63h119l2 -43q4 -55 63 -55z" />
    <glyph glyph-name="numbersign.tf" 
d="M862 942h-307l-109 -385h308zM1114 557v-123h-258l-121 -434h-137l121 434h-307l-121 -434h-137l120 434h-221v123h256l109 385h-223v123h258l114 410h138l-115 -410h307l115 410h137l-115 -410h221v-123h-256l-108 -385h223z" />
    <glyph glyph-name="florin.tf" 
d="M1061 1339h-215q-68 0 -107 -42t-39 -113v-283h338v-127h-338v-479q0 -139 -80 -216t-217 -77h-161v135h161q68 0 109 44t41 112v483h-295v127h295v279q0 137 80 215q82 78 217 78h211v-136z" />
    <glyph glyph-name="cent.tf" 
d="M340 985v-487q0 -70 40 -116t112 -46h112v815l-112 -4q-74 -4 -113 -48t-39 -114zM983 930v57q0 70 -41 117t-111 47h-112v-815h112q70 0 111 47t41 117v57h143v-57q0 -137 -78 -215t-214 -78h-111v-205h-119v205h-110q-137 0 -215 78t-78 215v487q0 137 78 215t215 78
h110v193h119v-193h111q137 0 215 -78t77 -215v-57h-143z" />
    <glyph glyph-name="currency.tf" 
d="M934 594v311q0 70 -41 117t-111 47h-256q-72 0 -112 -46t-39 -116v-311q-1 -70 39 -116t112 -46l256 -4q70 0 111 47t41 117zM1077 918v-328q0 -92 -39 -158l156 -156l-92 -94l-158 158q-63 -37 -153 -37h-273q-88 0 -153 37l-158 -158l-92 94l155 156q-39 66 -39 158
v328q0 90 37 153l-153 154l92 94l153 -154q66 39 158 39h273q92 0 157 -39l154 154l92 -94l-154 -154q37 -63 37 -153z" />
    <glyph glyph-name="dollar.tf" 
d="M991 285v186q0 88 -36 118t-113 46l-131 31v-545h131q68 0 108 47t41 117zM317 1196v-160q0 -87 45 -120t103 -50l127 -30v518l-129 4q-66 2 -106 -44t-40 -118zM1139 479v-194q0 -137 -79 -214t-218 -77h-127v-180h-131v180h-127q-139 0 -218 77t-79 214v145h147v-149
q0 -70 40 -116t110 -46h131v575l-127 31q-149 37 -221 98t-72 197v168q0 139 81 216t216 77h123v180h131v-180h106q135 0 216 -77t81 -216v-125h-147v129q0 72 -40 118t-106 46h-110v-549l127 -33q156 -41 224 -100t69 -195z" />
    <glyph glyph-name="Euro.tf" 
d="M897 1348h-362q-68 0 -107 -42t-39 -114v-203h504v-131h-504v-225h504v-131h-504v-219q0 -68 41 -112t109 -44h362q70 0 110 44t40 112v159h147v-155q0 -139 -79 -215t-218 -76h-362q-139 0 -216 77t-77 214v215h-168v131h168v225h-168v131h168v199q0 137 78 215t215 78
h362q135 0 216 -77t81 -216v-156h-147l-9 160q-4 74 -42 115t-103 41z" />
    <glyph glyph-name="sterling.tf" 
d="M1169 135v-135h-1067v135h107q61 0 61 62v450h-168v131h168v410q0 137 78 215t215 78h301q135 0 216 -77t81 -216v-156h-147v160q0 156 -148 156h-301q-147 0 -147 -156v-414h442v-131h-442v-512h751z" />
    <glyph glyph-name="yen.tf" 
d="M1073 692v-127h-346v-123h346v-127h-346v-315h-147v315h-347v127h347v123h-347v127h275l-438 783h168l415 -756l416 756h168l-438 -783h274z" />
    </font>
</defs>
</svg>
