<?xml version="1.0" standalone="no"?>
<!DOCTYPE svg PUBLIC "-//W3C//DTD SVG 1.1//EN" "http://www.w3.org/Graphics/SVG/1.1/DTD/svg11.dtd" >
<svg xmlns="http://www.w3.org/2000/svg">
<metadata>
Created by FontPrep 20130207 at Wed Jan 13 07:20:31 2016
 By Matthew Higley
Copyright A~A^(c) 2013 by Mattox Shuler. All rights reserved.
</metadata>
<defs>
<font id="7d11b32051cf299518ee990882d960ed" horiz-adv-x='1024' >
  <font-face 
    font-family="Industry-MediumItalic"
    font-weight="500"
    font-style="italic"
    font-stretch="normal"
    units-per-em="2048"
    panose-1="0 0 0 0 0 0 0 0 0 0"
    ascent="1620"
    descent="-428"
    x-height="1106"
    cap-height="1475"
    bbox="-397 -639 2048 1966"
    underline-thickness="102"
    underline-position="-100"
    slope="-56"
    unicode-range="U+0020-FB02"
  />
<missing-glyph horiz-adv-x="1019" 
 />
    <glyph glyph-name=".notdef" horiz-adv-x="1019" 
 />
    <glyph glyph-name=".null" horiz-adv-x="0" 
 />
    <glyph glyph-name="nonmarkingreturn" horiz-adv-x="681" 
 />
    <glyph glyph-name="space" unicode=" " horiz-adv-x="530" 
 />
    <glyph glyph-name="exclam" unicode="!" horiz-adv-x="579" 
d="M299 0h-211l39 231h211zM330 436h-121l129 1039h227z" />
    <glyph glyph-name="quotedbl" unicode="&#x22;" horiz-adv-x="815" 
d="M852 1475l-145 -486h-105l25 486h225zM514 1475l-145 -486h-105l25 486h225z" />
    <glyph glyph-name="numbersign" unicode="#" horiz-adv-x="1548" 
d="M1067 922h-356l-160 -344h356zM1260 922l-160 -344h229l-29 -170h-280l-189 -408h-194l190 408h-356l-188 -408h-195l191 408h-222l31 170h270l160 344h-229l28 170h281l178 383h193l-178 -383h356l178 383h193l-179 -383h222l-31 -170h-270z" />
    <glyph glyph-name="dollar" unicode="$" horiz-adv-x="1255" 
d="M756 162q51 0 90 34t51 105l33 172q4 39 6 62q6 35 -47 57q-27 10 -45 14l-107 25l-82 -469h101zM709 1298l-97 -2q-55 0 -93 -34t-50 -103l-29 -155q-12 -60 10 -86t82 -41l101 -25zM360 -10q-132 0 -200 84t-43 217l26 151h195l-27 -149q-20 -125 88 -125h111l88 502
l-113 32q-279 80 -239 299l33 193q25 135 112 211q88 76 221 76h121l33 186h164l-33 -186h94q133 0 197 -81t41 -218l-23 -133h-194l24 131q25 125 -88 125h-94l-84 -480l119 -37q145 -42 206 -106t38 -193l-37 -215q-25 -137 -111 -211t-221 -73h-129l-33 -187h-164l33 187
h-111z" />
    <glyph glyph-name="percent" unicode="%" horiz-adv-x="1267" 
d="M1010 449h-131q-45 0 -54 -50l-45 -264q-6 -35 23 -35h131q41 1 49 52l45 262q6 35 -18 35zM854 561h188q51 0 86 -43t25 -98l-53 -311q-10 -51 -49 -85t-93 -34h-188q-53 0 -86 42t-25 97l54 311q8 51 49 86t92 35zM532 1366h-131q-45 0 -53 -49l-45 -264q-6 -35 25 -35
h131q39 0 47 51l45 262q6 35 -19 35zM1235 1470l-979 -1472h-168l979 1472h168zM481 905h-186q-55 0 -89 43t-24 99l54 311q10 57 50 91t95 34l184 -4q53 0 86 -43t25 -99l-53 -311q-7 -51 -49 -86t-93 -35z" />
    <glyph glyph-name="ampersand" unicode="&#x26;" horiz-adv-x="1320" 
d="M395 170h346q57 0 97 37q39 37 49 98l63 363l-432 -2q-141 0 -166 -134l-45 -243q-20 -119 88 -119zM745 -8h-395q-134 0 -198 83t-39 218l43 250q12 74 62 134t124 87q-115 76 -90 223l37 211q25 135 112 211q88 76 222 76h335q132 0 196 -81t42 -218l-20 -127h-197
l20 127q18 119 -88 119h-284q-53 0 -93 -35t-51 -101l-37 -204q-12 -68 8 -94t91 -25h796l-32 -176l-162 -2l-68 -392q-25 -136 -111 -210t-223 -74z" />
    <glyph glyph-name="quotesingle" unicode="'" horiz-adv-x="477" 
d="M514 1475l-145 -486h-105l25 486h225z" />
    <glyph glyph-name="parenleft" unicode="(" horiz-adv-x="724" 
d="M410 -35h112l-30 -182h-127q-131 0 -197 84t-41 217l217 1235q25 137 112 212t220 75h139l-33 -183l-108 -2q-51 0 -90 -35t-52 -100l-213 -1202q-20 -119 91 -119z" />
    <glyph glyph-name="parenright" unicode=")" horiz-adv-x="727" 
d="M440 1606q132 0 196 -79t40 -216l-217 -1235q-25 -133 -117 -213t-223 -80h-131l30 182h107q119 0 139 125l211 1202q20 119 -94 127l-107 4l33 183h133z" />
    <glyph glyph-name="asterisk" unicode="*" horiz-adv-x="819" 
d="M737 874l-143 -94l-92 267l-189 -269l-120 96l243 222l-280 55l73 156l250 -133l13 301h161l-92 -301l287 131l24 -154l-303 -55z" />
    <glyph glyph-name="plus" unicode="+" horiz-adv-x="1019" 
d="M395 373l54 303h-302l29 164h301l53 303h166l-53 -303h303l-31 -164h-303l-51 -303h-166z" />
    <glyph glyph-name="comma" unicode="," horiz-adv-x="468" 
d="M287 233l-37 -190q-7 -42 -39 -84l-35 -47q-20 -31 -31 -43l-106 -127h-100l178 258h-86l41 233h215z" />
    <glyph glyph-name="hyphen" unicode="-" horiz-adv-x="876" 
d="M797 766l-33 -182h-639l31 182h641z" />
    <glyph glyph-name="period" unicode="." horiz-adv-x="466" 
d="M246 0h-215l39 233h215z" />
    <glyph glyph-name="slash" unicode="/" horiz-adv-x="970" 
d="M1124 1618l-1022 -1759h-188l1020 1759h190z" />
    <glyph glyph-name="zero" unicode="0" horiz-adv-x="1277" 
d="M403 170h361q55 0 96 38t53 99l154 871q23 121 -88 120h-361q-53 0 -94 -36q-39 -38 -51 -101l-158 -870q-23 -121 88 -121zM612 1481h410q131 0 200 -83t44 -216l-160 -903q-25 -137 -111 -211t-221 -74l-409 -4q-131 0 -200 84t-44 217l160 903q25 137 111 212t220 75z
" />
    <glyph glyph-name="one" unicode="1" horiz-adv-x="749" 
d="M248 0l223 1272l-268 -103l30 174l308 132h161l-258 -1475h-196z" />
    <glyph glyph-name="two" unicode="2" horiz-adv-x="1206" 
d="M592 1481h364q129 0 198 -87t44 -218l-39 -213q-20 -117 -110 -185q-59 -45 -236 -116l-379 -156q-58 -25 -74 -32t-34 -30t-25 -49l-37 -215h764l-31 -180h-960l67 393q15 97 78 164q42 49 269 143l380 158q59 26 95 54t41 69l34 197q23 123 -92 122h-307q-57 0 -98 -38
t-53 -99l-19 -102h-196l22 135q20 129 110 207t224 78z" />
    <glyph glyph-name="three" unicode="3" horiz-adv-x="1222" 
d="M387 170h342q57 0 96 35t52 102l43 238q12 61 -18 91t-105 30h-324l31 176h313q76 0 111 32t47 105l35 197q23 123 -92 122h-310q-123 0 -147 -137l-21 -102h-196l24 135q25 135 113 211t219 76h363q131 0 199 -86t42 -217l-37 -209q-25 -145 -166 -221q57 -20 87 -80
t18 -142l-43 -250q-23 -132 -111 -208t-221 -76h-395q-133 0 -199 84t-43 219l21 119h196l-16 -121q-16 -123 92 -123z" />
    <glyph glyph-name="four" unicode="4" horiz-adv-x="1263" 
d="M303 522h490l122 672zM1163 344h-207l-59 -344h-195l60 344h-713l2 150l907 981h197l-168 -953h209z" />
    <glyph glyph-name="five" unicode="5" horiz-adv-x="1220" 
d="M735 956h158q127 0 195 -83t45 -214l-68 -383q-25 -136 -112 -210t-218 -74h-383q-130 0 -198 86t-43 217l22 125h197l-23 -121q-25 -125 92 -125h326q57 0 99 36t55 103l61 344q20 125 -96 125h-133q-102 0 -222 -61l-98 -51l-188 59l131 746h915l-30 -183l-725 -2
l-88 -489l94 69q115 86 235 86z" />
    <glyph glyph-name="six" unicode="6" horiz-adv-x="1245" 
d="M410 170h325q57 0 99 36t55 103l53 305q20 123 -92 123h-152q-106 0 -223 -61l-96 -51l-62 -330q-25 -125 93 -125zM928 1296h-305q-57 0 -99 -36q-41 -39 -53 -101l-74 -399l95 69q119 88 233 89h170q131 0 200 -88t44 -216l-60 -338q-25 -136 -111 -210t-218 -74h-383
q-131 0 -199 86t-43 217l160 901q25 135 113 211t216 76h363q131 0 198 -84t44 -219l-19 -113h-196l16 104q18 125 -92 125z" />
    <glyph glyph-name="seven" unicode="7" horiz-adv-x="1124" 
d="M1198 1333l-897 -1333h-223l866 1292h-739l31 183h983z" />
    <glyph glyph-name="eight" unicode="8" horiz-adv-x="1255" 
d="M825 664h-307q-152 0 -176 -136l-41 -233q-23 -123 92 -123h357q57 0 98 38t53 99l41 234q12 63 -14 92t-103 29zM952 1298h-327q-124 0 -148 -137l-37 -200q-12 -72 6 -97t97 -24h303q76 0 114 32t50 105l34 199q21 122 -92 122zM768 -8h-412q-134 0 -200 85t-41 218
l43 246q29 162 184 219q-115 76 -90 223l37 213q23 131 110 209q90 78 222 78h378q129 0 197 -85t45 -218l-37 -215q-25 -147 -170 -222q59 -23 89 -82t18 -139l-43 -246q-25 -136 -112 -210t-218 -74z" />
    <glyph glyph-name="nine" unicode="9" horiz-adv-x="1245" 
d="M946 1294h-325q-59 0 -99 -38t-53 -99l-51 -285q-20 -125 96 -124h148q98 0 221 61l102 51l53 309q20 125 -92 125zM430 170h307q57 0 97 35t51 104l78 418l-97 -70q-121 -86 -233 -86h-174q-125 0 -193 83t-45 214l58 324q25 135 113 211t218 76h381q131 0 200 -87
t44 -216l-158 -902q-25 -134 -111 -208t-223 -74h-362q-133 0 -201 86t-43 217l21 113h196l-16 -113q-18 -125 92 -125z" />
    <glyph glyph-name="colon" unicode=":" horiz-adv-x="468" 
d="M246 0h-215l41 233h215zM399 872h-215l41 234h215z" />
    <glyph glyph-name="semicolon" unicode=";" horiz-adv-x="466" 
d="M287 233l-37 -190q-7 -42 -39 -84l-35 -47q-20 -31 -31 -43l-106 -127h-100l178 258h-86l41 233h215zM397 872h-215l43 234h215z" />
    <glyph glyph-name="less" unicode="&#x3c;" horiz-adv-x="1019" 
d="M135 657l33 172l825 361l-35 -180l-639 -267l545 -278l-28 -166z" />
    <glyph glyph-name="equal" unicode="=" horiz-adv-x="1019" 
d="M915 668l-30 -179h-770l30 179h770zM981 1042l-31 -178h-768l29 178h770z" />
    <glyph glyph-name="greater" unicode="&#x3e;" horiz-adv-x="1019" 
d="M770 743l-547 281l31 166l698 -361l-32 -172l-824 -358l33 182z" />
    <glyph glyph-name="question" unicode="?" horiz-adv-x="1122" 
d="M496 229l-43 -245h-197l43 245h197zM858 1303h-360q-56 0 -94 -35t-50 -103l-22 -127h-197l27 158q20 131 114 212t220 75l391 -19q137 -6 203 -86t40 -213l-30 -178q-22 -133 -193 -221q-116 -62 -141 -72l-72 -32l-26 -13l-29 -12q-28 -14 -45 -29l-16 -16
q-17 -17 -23 -41l-25 -148h-196l31 181q17 80 77 137q23 19 38 31t52 34l242 125q102 53 123 78q18 25 25 53l24 140q23 121 -88 121z" />
    <glyph glyph-name="at" unicode="@" horiz-adv-x="1898" 
d="M913 879q-59 0 -101 -40t-54 -106l-62 -350q-25 -131 95 -131h63q82 0 182 55l107 60l74 397l-74 61q-66 53 -166 54h-64zM817 102h-49q-131 0 -200 85t-44 219l62 342q26 138 112 212t220 74h49q94 0 174 -73l90 -82l67 147h142l-140 -799h91q152 0 184 187l139 788
q14 80 -10 115q-25 35 -98 35h-973q-150 0 -178 -164l-219 -1245q-14 -80 10 -115t98 -35h1030l-22 -129h-1014q-131 0 -197 84t-41 219l215 1229q25 135 113 211t221 76l959 -6q132 0 200 -83t43 -216l-137 -781q-24 -135 -112 -211t-222 -75h-239l-8 147l-119 -88
q-90 -68 -197 -68z" />
    <glyph glyph-name="A" unicode="A" horiz-adv-x="1323" 
d="M891 580l-100 694l-342 -694h442zM915 397h-559l-194 -397h-209l754 1475h227l240 -1475h-201z" />
    <glyph glyph-name="B" unicode="B" horiz-adv-x="1310" 
d="M860 664h-465l-86 -484l479 -2q55 0 97 37q41 37 49 98l41 236q11 67 -13 91t-102 24zM881 840q73 0 109 30t48 103l35 198q20 119 -88 119h-477l-80 -450h453zM799 0h-715l258 1475l686 -2q131 0 200 -83t44 -216l-37 -207q-27 -150 -170 -222q59 -23 89 -81t17 -140
l-41 -237q-26 -137 -112 -212t-219 -75z" />
    <glyph glyph-name="C" unicode="C" horiz-adv-x="1263" 
d="M616 1481h422q133 0 198 -83t40 -216l-31 -176h-196l32 174q23 121 -90 120h-370q-55 0 -95 -36q-39 -37 -51 -101l-153 -870q-23 -121 88 -121h372q58 0 96 35t50 102l28 160h197l-33 -190q-25 -135 -112 -210t-222 -75l-417 -4q-131 0 -200 84t-44 217l160 903
q25 137 111 212t220 75z" />
    <glyph glyph-name="D" unicode="D" horiz-adv-x="1329" 
d="M1008 1290h-500l-195 -1110l486 -2q57 0 95 35t50 102l152 854q23 121 -88 121zM805 0h-721l258 1475l709 -2q131 0 199 -83t44 -216l-157 -887q-25 -137 -112 -212t-220 -75z" />
    <glyph glyph-name="E" unicode="E" horiz-adv-x="1196" 
d="M342 1475h911l-32 -183h-713l-80 -446h594l-31 -184h-594l-84 -480h713l-31 -182h-911z" />
    <glyph glyph-name="F" unicode="F" horiz-adv-x="1161" 
d="M84 0l258 1475h911l-32 -183h-713l-82 -463h594l-33 -182h-594l-112 -647h-197z" />
    <glyph glyph-name="G" unicode="G" horiz-adv-x="1298" 
d="M625 1298q-55 0 -95 -36q-39 -37 -51 -101l-153 -872q-20 -119 88 -119h389q57 0 95 35t50 100l51 291h-331l32 178h529l-88 -500q-25 -135 -112 -210t-222 -74h-438q-131 0 -200 84t-44 217l160 903q25 137 111 212t220 75h439q133 0 196 -81t41 -218l-24 -148h-197
l29 144q25 121 -88 120h-387z" />
    <glyph glyph-name="H" unicode="H" horiz-adv-x="1394" 
d="M84 0l258 1475h197l-111 -629h641l111 629h196l-258 -1475h-196l114 662h-639l-116 -662h-197z" />
    <glyph glyph-name="I" unicode="I" horiz-adv-x="559" 
d="M84 0l258 1475h197l-258 -1475h-197z" />
    <glyph glyph-name="J" unicode="J" horiz-adv-x="1183" 
d="M297 -10q-131 0 -200 84t-44 217l45 254h197l-45 -252q-23 -121 88 -121h326q53 0 93 38t52 99l205 1166h196l-209 -1201q-25 -137 -111 -211t-220 -73h-373z" />
    <glyph glyph-name="K" unicode="K" horiz-adv-x="1337" 
d="M821 870l371 -870h-209l-305 727l-328 -332l-69 -395h-197l258 1475h197l-146 -813l783 813h243z" />
    <glyph glyph-name="L" unicode="L" horiz-adv-x="1112" 
d="M342 1475h197l-226 -1293h662l-31 -182h-860z" />
    <glyph glyph-name="M" unicode="M" horiz-adv-x="1689" 
d="M1669 1475l-258 -1475h-184l207 1174l-564 -938h-155l-238 938l-207 -1174h-186l258 1475h225l254 -1004l613 1004h235z" />
    <glyph glyph-name="N" unicode="N" horiz-adv-x="1425" 
d="M1223 1475h182l-258 -1475h-215l-451 1200l-215 -1200h-182l258 1475h217l451 -1201z" />
    <glyph glyph-name="O" unicode="O" horiz-adv-x="1314" 
d="M412 170h397q55 0 94 35t51 102l156 871q23 121 -88 120h-397q-55 0 -95 -36q-39 -38 -51 -101l-155 -870q-23 -121 88 -121zM618 1481h447q133 0 198 -83t40 -216l-158 -903q-25 -135 -112 -210t-222 -75l-440 -4q-131 0 -200 84t-44 217l160 903q25 137 111 212t220 75
z" />
    <glyph glyph-name="P" unicode="P" horiz-adv-x="1265" 
d="M991 1288h-485l-96 -551l469 -2q55 0 96 38t53 99l51 295q23 121 -88 121zM889 559h-510l-98 -559h-197l258 1475l692 -5q131 0 200 -82t44 -217l-59 -329q-25 -135 -111 -209t-219 -74z" />
    <glyph glyph-name="Q" unicode="Q" horiz-adv-x="1318" 
d="M1016 1303h-400q-55 0 -94 -37t-51 -101l-154 -870q-23 -121 89 -121h249l-57 236h162l57 -234q53 4 91 38t46 91l154 877q23 121 -92 121zM367 -8q-131 0 -200 84t-44 217l160 903q25 137 111 212t220 75l447 -4q133 0 202 -83t44 -216l-160 -904q-23 -126 -95 -198
t-188 -84l47 -193h-163l-46 191h-335z" />
    <glyph glyph-name="R" unicode="R" horiz-adv-x="1312" 
d="M991 1288h-483l-92 -520h471q55 0 94 34t51 103l47 262q23 121 -88 121zM342 1475l692 -2q131 0 200 -83t44 -216l-53 -297q-50 -265 -295 -285l182 -592h-205l-182 590h-340l-104 -590h-197z" />
    <glyph glyph-name="S" unicode="S" horiz-adv-x="1255" 
d="M952 1303h-331q-55 0 -93 -35t-51 -103l-28 -153q-12 -66 9 -89t81 -40l356 -90q137 -33 204 -103t42 -196l-39 -218q-25 -136 -112 -210t-222 -74h-403q-131 0 -200 84t-44 217l26 151h195l-27 -149q-20 -125 88 -125h357q51 0 90 35t51 104l31 178q18 86 -27 107
q-18 10 -57 18l-359 88q-133 33 -197 102t-44 199l33 193q20 133 109 210t222 77h379q133 0 197 -81t41 -218l-23 -133h-194l28 129q27 125 -88 125z" />
    <glyph glyph-name="T" unicode="T" horiz-adv-x="1136" 
d="M1210 1292h-411l-228 -1292h-196l227 1292h-412l31 183h1020z" />
    <glyph glyph-name="U" unicode="U" horiz-adv-x="1318" 
d="M379 -10q-131 0 -200 84t-44 217l207 1182h197l-207 -1180q-23 -121 88 -121h377q57 0 95 35t50 102l205 1166h196l-204 -1201q-25 -135 -112 -210t-222 -74h-426z" />
    <glyph glyph-name="V" unicode="V" horiz-adv-x="1265" 
d="M1378 1475l-727 -1475h-225l-211 1475h209l149 -1250l588 1250h217z" />
    <glyph glyph-name="W" unicode="W" horiz-adv-x="1816" 
d="M1288 0h-192l-78 1149l-477 -1149h-201l-125 1475h201l65 -1211l504 1211h168l76 -1211l491 1211h209z" />
    <glyph glyph-name="X" unicode="X" horiz-adv-x="1245" 
d="M768 733l332 -733h-207l-266 588l-461 -588h-217l598 766l-322 709h207l256 -564l438 564h224z" />
    <glyph glyph-name="Y" unicode="Y" horiz-adv-x="1204" 
d="M604 0h-196l96 537l-316 938h199l242 -734l493 734h224l-646 -938z" />
    <glyph glyph-name="Z" unicode="Z" horiz-adv-x="1200" 
d="M37 147l938 1145h-699l31 183h944l-22 -148l-940 -1145h731l-31 -182h-975z" />
    <glyph glyph-name="bracketleft" unicode="[" horiz-adv-x="727" 
d="M535 1423l-259 -1456h226l-31 -182h-422l322 1821h422l-33 -183h-225z" />
    <glyph glyph-name="backslash" unicode="\" horiz-adv-x="960" 
d="M803 -141h-180l-400 1759h180z" />
    <glyph glyph-name="bracketright" unicode="]" horiz-adv-x="729" 
d="M307 1606h422l-321 -1821h-420l30 182h226l256 1456h-226z" />
    <glyph glyph-name="asciicircum" unicode="^" horiz-adv-x="1167" 
d="M637 1475h213l205 -631h-183l-147 473l-324 -473h-192z" />
    <glyph glyph-name="underscore" unicode="_" horiz-adv-x="1132" 
d="M1008 -88l-29 -162h-1106l29 162h1106z" />
    <glyph glyph-name="grave" unicode="`" horiz-adv-x="1073" 
d="M936 1610h-129l-236 295h238z" />
    <glyph glyph-name="a" unicode="a" horiz-adv-x="1134" 
d="M606 948h-86q-57 0 -99 -39t-50 -100l-92 -526q-20 -125 88 -125h86q104 0 223 61l98 51l103 566l-70 51q-84 61 -201 61zM428 -6h-100q-127 0 -192 83t-42 212l96 549q20 128 108 202t214 74h100q94 0 203 -92l78 -66l29 150h188l-195 -1106h-188l29 150l-94 -72
q-111 -84 -234 -84z" />
    <glyph glyph-name="b" unicode="b" horiz-adv-x="1134" 
d="M786 944h-86q-94 0 -221 -63l-96 -50l-104 -565l69 -51q82 -61 201 -61h86q57 0 95 38t50 101l97 526q20 125 -91 125zM645 -6h-100q-96 0 -203 90l-76 66l-28 -150h-187l268 1536h189l-105 -580l93 74q112 90 235 84l94 -4q131 -6 196 -85t42 -208l-96 -549
q-21 -126 -107 -200t-215 -74z" />
    <glyph glyph-name="c" unicode="c" horiz-adv-x="1064" 
d="M512 1110h289q125 0 193 -83t44 -210l-14 -78h-186l14 88q20 123 -86 123h-246q-53 0 -94 -39t-51 -98l-94 -539q-23 -123 86 -122h245q54 0 94 38t48 99l12 73h186l-14 -94q-18 -126 -104 -198t-218 -76l-288 -4q-125 -2 -191 82t-43 213l96 549q20 128 108 202t214 74z
" />
    <glyph glyph-name="d" unicode="d" horiz-adv-x="1136" 
d="M606 948h-86q-57 0 -99 -39t-50 -100l-92 -526q-20 -125 88 -125h86q104 0 223 61l98 51l103 566l-70 51q-84 61 -201 61zM428 -6h-100q-127 0 -192 83t-42 212l96 549q20 128 108 202t214 74h100q94 0 203 -92l78 -66l104 580h187l-269 -1536h-188l29 150l-94 -72
q-111 -84 -234 -84z" />
    <glyph glyph-name="e" unicode="e" horiz-adv-x="1083" 
d="M524 952q-53 0 -92 -40t-49 -97l-29 -170h482l28 182q10 59 -14 93q-25 33 -76 32h-250zM371 147h250q53 0 93 39t48 99l10 61h189l-15 -78q-24 -130 -110 -202t-215 -72h-293q-127 0 -192 83t-42 212l96 549q20 130 110 204t212 72l303 -4q129 -4 191 -84t43 -209
l-56 -315h-667l-41 -232q-23 -123 86 -123z" />
    <glyph glyph-name="f" unicode="f" horiz-adv-x="768" 
d="M690 1536h211l-29 -160l-180 2q-53 0 -92 -40t-49 -97l-23 -133h299l-26 -156h-299l-168 -950h-187l168 950h-186l29 156h186l25 152q20 128 107 202t214 74z" />
    <glyph glyph-name="g" unicode="g" horiz-adv-x="1134" 
d="M596 942h-86q-53 0 -95 -39t-50 -100l-80 -459q-23 -123 88 -123h86q102 0 221 62l98 51l92 495l-73 52q-88 61 -201 61zM285 -401q-125 0 -192 85t-42 212l4 22h183l-7 -37q-23 -127 93 -127h229q55 0 98 39t56 105l57 319l-92 -70q-119 -88 -234 -88h-100
q-125 0 -191 84t-43 213l84 482q20 128 108 202t214 74h100q98 0 205 -90l78 -68l29 150h186l-223 -1231q-25 -131 -110 -204t-212 -72h-278z" />
    <glyph glyph-name="h" unicode="h" horiz-adv-x="1132" 
d="M772 946h-65q-104 0 -222 -61l-96 -51l-149 -834h-187l269 1534h188l-104 -580l92 72q113 86 235 86h78q127 0 190 -82t43 -211l-143 -819h-186l143 821q20 125 -86 125z" />
    <glyph glyph-name="i" unicode="i" horiz-adv-x="497" 
d="M440 1106l-194 -1106h-187l195 1106h186zM489 1327h-206l36 209h205z" />
    <glyph glyph-name="j" unicode="j" horiz-adv-x="501" 
d="M-96 -240q53 0 92 40t47 98l213 1208h188l-213 -1229q-20 -127 -109 -204t-214 -76h-139l28 163h107zM494 1327h-207l37 209h204z" />
    <glyph glyph-name="k" unicode="k" horiz-adv-x="1079" 
d="M676 674l266 -674h-194l-205 543l-252 -246l-53 -297h-187l258 1475h187l-168 -940l546 571h242z" />
    <glyph glyph-name="l" unicode="l" horiz-adv-x="491" 
d="M328 1536h184l-270 -1536h-185z" />
    <glyph glyph-name="m" unicode="m" horiz-adv-x="1724" 
d="M1364 948h-29q-113 0 -223 -61l-98 -56l-146 -831h-188l145 823q20 125 -90 125h-28q-104 0 -222 -61l-96 -51l-149 -836h-187l195 1106h186l-28 -150l92 72q113 86 235 86h43q90 0 152 -47t80 -127l116 86q130 94 234 88l47 -2q131 -6 192 -85t41 -208l-143 -819h-186
l143 823q20 125 -88 125z" />
    <glyph glyph-name="n" unicode="n" horiz-adv-x="1132" 
d="M772 946h-65q-104 0 -222 -61l-96 -51l-149 -834h-187l195 1104h186l-28 -150l92 72q113 86 235 86h78q127 0 190 -82t43 -211l-143 -819h-186l143 821q20 125 -86 125z" />
    <glyph glyph-name="o" unicode="o" horiz-adv-x="1099" 
d="M518 950q-53 0 -93 -39t-48 -98l-96 -543q-23 -123 86 -123h262q55 1 98 41t51 97l88 540q22 127 -86 125h-262zM633 -6h-305q-127 0 -192 83t-42 212l96 549q20 130 110 204t212 72l309 -4q129 -4 191 -84t43 -209l-97 -549q-20 -130 -108 -202t-217 -72z" />
    <glyph glyph-name="p" unicode="p" horiz-adv-x="1136" 
d="M791 944h-86q-106 0 -224 -61l-96 -52l-104 -565l71 -51q84 -61 199 -61h86q57 0 100 40t51 99l89 526q20 125 -86 125zM647 -6h-100q-96 0 -203 90l-78 66l-98 -539h-184l262 1495h186l-29 -150l95 72q120 92 233 86l100 -4q131 -6 193 -85t41 -208l-96 -549
q-21 -126 -107 -200t-215 -74z" />
    <glyph glyph-name="q" unicode="q" horiz-adv-x="1136" 
d="M606 948h-86q-57 0 -99 -39t-50 -100l-92 -526q-20 -125 88 -125h86q104 0 223 61l98 51l103 566l-70 51q-84 61 -201 61zM512 1114h100q94 0 203 -92l78 -66l29 150h188l-266 -1495h-187l99 539l-94 -72q-111 -84 -234 -84h-100q-127 0 -192 83t-42 212l96 549
q20 128 108 202t214 74z" />
    <glyph glyph-name="r" unicode="r" horiz-adv-x="800" 
d="M705 942q-102 0 -222 -61l-98 -52l-147 -829h-187l195 1106h186l-29 -150l93 72q113 86 235 86h115l-29 -172h-112z" />
    <glyph glyph-name="s" unicode="s" horiz-adv-x="1046" 
d="M723 948h-225q-51 0 -86 -37t-43 -92l-13 -69q-8 -46 6 -62t68 -24l301 -52q236 -41 197 -245l-23 -115q-25 -129 -105 -197t-204 -67h-309q-123 0 -185 75q-61 76 -39 203l13 72h184l-12 -78q-10 -53 12 -84t70 -31h264q49 0 87 38t46 93l16 95q10 47 -8 65t-69 27
l-297 53q-238 43 -199 244l16 86q25 128 107 198t201 70h270q121 0 184 -76t45 -204l-8 -54h-184l2 51q20 117 -80 117z" />
    <glyph glyph-name="t" unicode="t" horiz-adv-x="831" 
d="M424 0q-127 0 -192 83t-42 212l115 655h-182l27 156h186l63 369h183l-64 -369h338l-27 -156h-335l-119 -669q-18 -121 86 -121h227l-29 -160h-235z" />
    <glyph glyph-name="u" unicode="u" horiz-adv-x="1132" 
d="M383 156h63q102 0 222 61l98 51l149 836h187l-195 -1104h-186l29 147l-95 -71q-109 -84 -235 -84h-78q-128 0 -192 83t-41 212l145 819h186l-147 -825q-20 -125 90 -125z" />
    <glyph glyph-name="v" unicode="v" horiz-adv-x="1005" 
d="M1069 1106l-551 -1106h-221l-160 1106h187l108 -950l434 950h203z" />
    <glyph glyph-name="w" unicode="w" horiz-adv-x="1521" 
d="M1067 0h-197l-53 838l-346 -838h-197l-137 1106h182l76 -922l385 922h162l51 -922l396 922h196z" />
    <glyph glyph-name="x" unicode="x" horiz-adv-x="1024" 
d="M610 549l283 -549h-188l-218 422l-348 -422h-196l469 569l-277 537h189l208 -406l338 406h201z" />
    <glyph glyph-name="y" unicode="y" horiz-adv-x="1011" 
d="M1075 1106l-768 -1495h-178l199 389l-191 1106h174l135 -873l445 873h184z" />
    <glyph glyph-name="z" unicode="z" horiz-adv-x="935" 
d="M-2 125l696 819h-524l27 162h757l-20 -123l-698 -821h550l-26 -162h-780z" />
    <glyph glyph-name="braceleft" unicode="{" horiz-adv-x="831" 
d="M487 -37h113l-31 -182h-127q-131 0 -195 83t-42 218l71 418q12 66 -10 94t-78 27h-75l28 170h64q123 0 147 135l70 393q26 137 112 212t220 75h139l-33 -183h-102q-53 0 -92 -37q-38 -32 -50 -98l-73 -385q-29 -143 -168 -209q119 -70 94 -209l-72 -403q-20 -119 90 -119
z" />
    <glyph glyph-name="bar" unicode="|" horiz-adv-x="641" 
d="M422 1612h170l-363 -2052h-170z" />
    <glyph glyph-name="braceright" unicode="}" horiz-adv-x="831" 
d="M389 1419h-115l33 183h127q133 0 198 -83t40 -216l-70 -396q-24 -119 92 -119h76l-31 -170h-61q-123 0 -148 -133l-73 -417q-25 -133 -113 -209t-221 -76h-137l30 182h101q55 0 94 34t51 99l72 404q25 137 168 209q-113 64 -90 211l67 376q23 121 -90 121z" />
    <glyph glyph-name="asciitilde" unicode="~" horiz-adv-x="1017" 
d="M328 657l-60 -112h-116l98 180q49 93 135 70l342 -97l61 109h123l-102 -182q-52 -93 -137 -68z" />
    <glyph glyph-name="exclamdown" unicode="&#xa1;" horiz-adv-x="579" 
d="M248 670h123l-131 -1037h-228zM281 1106h211l-41 -232h-211z" />
    <glyph glyph-name="cent" unicode="&#xa2;" horiz-adv-x="1130" 
d="M424 371h72l133 737l-62 -2q-126 -9 -149 -137l-84 -473q-20 -125 90 -125zM836 1108h-70l-131 -737h55q59 0 101 39t51 100l10 65h184l-14 -92q-20 -133 -112 -208t-222 -74h-72l-34 -201h-160l35 201h-66q-131 0 -199 85t-45 218l89 495q25 135 110 209q86 74 219 74
h78l33 191h160l-31 -191h59q132 0 196 -81t42 -218l-12 -76h-185l21 76q20 125 -90 125z" />
    <glyph glyph-name="sterling" unicode="&#xa3;" horiz-adv-x="1251" 
d="M678 1483h317q137 0 202 -83t40 -220l-29 -158h-196l28 158q23 121 -88 120h-270q-55 0 -93 -34t-50 -101l-66 -362h385l-33 -180h-383l-77 -441h706l-31 -182h-1065l29 182h98q66 0 78 70l66 371h-164l33 180h161l70 393q25 139 111 213t221 74z" />
    <glyph glyph-name="currency" unicode="&#xa4;" horiz-adv-x="1212" 
d="M805 1034h-209q-55 0 -96 -35t-54 -102l-55 -305q-21 -125 92 -125l211 -2q55 0 97 37q41 37 53 102l53 305q20 125 -92 125zM690 303h-233q-78 0 -133 31l-187 -166l-104 123l188 166q-18 68 -4 145l55 318q16 84 50 139l-127 151l129 117l127 -153q68 31 149 30h234
q84 0 135 -33l180 162l104 -123l-186 -163q18 -68 4 -142l-55 -319q-16 -82 -49 -142l127 -153l-129 -117l-129 158q-70 -29 -146 -29z" />
    <glyph glyph-name="yen" unicode="&#xa5;" horiz-adv-x="1204" 
d="M803 692h250l-23 -133h-319l-11 -12l-16 -98h328l-25 -134h-328l-55 -315h-196l55 315h-328l23 134h329l17 98l-4 12h-322l23 133h254l-267 783h203l242 -715l491 715h222z" />
    <glyph glyph-name="brokenbar" unicode="&#xa6;" horiz-adv-x="641" 
d="M229 -440h-170l144 809h170zM422 1612h170l-143 -811h-170z" />
    <glyph glyph-name="section" unicode="&#xa7;" horiz-adv-x="1077" 
d="M422 489l280 -47q41 4 73 45t40 86l23 129q12 78 -80 93l-283 49q-39 -2 -69 -42t-39 -89l-23 -125q-14 -83 78 -99zM821 1319h-225q-49 0 -87 -38t-46 -91l-14 -90q-12 -84 79 -99l301 -51q96 -16 152 -84q55 -70 41 -159l-27 -148q-25 -135 -123 -207q57 -66 43 -153
l-22 -127q-23 -125 -105 -195t-204 -70h-303q-123 0 -183 77t-41 202l13 72h180l-12 -74q-18 -115 79 -115h265q47 0 86 37t47 90l16 99q12 78 -80 92l-295 51q-96 18 -155 86q-57 68 -43 160l24 143q25 133 127 211q-63 68 -49 156l21 120q23 125 104 197q84 72 205 72h264
q121 0 182 -78t41 -203l-8 -45h-180l12 45q14 55 -7 86q-22 31 -73 31z" />
    <glyph glyph-name="dieresis" unicode="&#xa8;" horiz-adv-x="1284" 
d="M1108 1618h-190l38 221h189zM741 1618h-188l39 221h188z" />
    <glyph glyph-name="copyright" unicode="&#xa9;" horiz-adv-x="1699" 
d="M864 1196h238q102 0 151 -61t31 -166l-18 -103h-158l18 105q16 80 -53 80h-203q-80 0 -96 -97l-80 -458q-14 -80 49 -80h205q78 0 96 96l17 88h158l-21 -117q-37 -213 -248 -213h-235q-99 0 -149 62t-31 166l86 485q36 213 243 213zM1407 1358h-766q-76 0 -129 -49
t-68 -129l-157 -904q-29 -166 116 -165h766q75 0 129 49t68 129l160 903q31 166 -119 166zM1161 -8h-766q-133 0 -197 83t-40 218l157 903q25 135 113 211t221 76l766 -4q133 0 198 -83t40 -216l-158 -904q-25 -136 -112 -210t-222 -74z" />
    <glyph glyph-name="ordfeminine" unicode="&#xaa;" horiz-adv-x="761" 
d="M666 623l-23 -117h-549l23 117h549zM389 1085q-33 1 -59 -25t-31 -63l-10 -59q-12 -72 53 -72h55q61 0 129 37l64 35l26 147h-227zM381 748h-66q-82 0 -123 53t-28 141l10 68q12 82 68 129t143 47h33q102 0 215 -25l29 121q18 74 -56 74h-131q-41 0 -69 -25t-35 -63v-2
h-129l4 32q8 76 72 130t143 51l166 -4q86 -3 131 -57t28 -138l-92 -526h-131l19 98l-70 -61q-59 -43 -131 -43z" />
    <glyph glyph-name="guillemotleft" unicode="&#xab;" horiz-adv-x="917" 
d="M961 1145l-369 -426l209 -424h-185l-192 379l10 90l326 381h201zM604 1145l-368 -426l210 -424h-186l-188 379l10 90l321 381h201z" />
    <glyph glyph-name="registered" unicode="&#xae;" horiz-adv-x="827" 
d="M618 1268h-153l-27 -148h142q12 0 24 10t17 25l16 86q2 15 0 21t-19 6zM412 1329l211 -2q41 0 60 -26t13 -68l-16 -90q-14 -88 -96 -82l57 -178h-66l-55 178h-92l-33 -178h-61zM752 1421h-340q-35 1 -61 -27t-27 -51l-86 -489q-12 -63 49 -63h350q35 0 61 27t27 50
l84 490q12 63 -57 63zM408 1483h342q57 0 92 -43t24 -99l-86 -489q-10 -53 -50 -87t-91 -34h-348q-53 0 -87 43t-24 96l86 492q8 51 49 86q42 35 93 35z" />
    <glyph glyph-name="macron" unicode="&#xaf;" horiz-adv-x="1206" 
d="M1079 1788l-28 -158h-527l27 158h528z" />
    <glyph glyph-name="degree" unicode="&#xb0;" horiz-adv-x="657" 
d="M502 1130q10 0 21 12t16 23l36 203q2 18 -16 18h-147q-10 0 -22 -11t-15 -21l-39 -205q-4 -18 16 -19h150zM530 1040h-208q-39 0 -64 31t-18 72l45 243q6 39 35 65t69 26h207q41 0 65 -30t17 -73l-43 -244q-17 -90 -105 -90z" />
    <glyph glyph-name="plusminus" unicode="&#xb1;" horiz-adv-x="1019" 
d="M96 385h770l-28 -164h-770zM416 492l53 301h-301l29 165h301l55 304h164l-53 -304h303l-29 -165h-303l-55 -301h-164z" />
    <glyph glyph-name="twosuperior" unicode="&#xb2;" horiz-adv-x="686" 
d="M442 1702h222q70 0 110 -46t31 -112l-19 -117q-16 -100 -196 -159l-209 -66q-51 -14 -55 -41l-17 -88h416l-23 -137h-561l41 242q18 102 199 159l209 66q49 14 55 41l19 88q4 20 -6 30t-37 9h-152q-62 0 -74 -55l-10 -41h-141l14 84q12 67 62 105t122 38z" />
    <glyph glyph-name="threesuperior" unicode="&#xb3;" horiz-adv-x="690" 
d="M352 1063h170q59 0 70 55l16 103q6 20 -5 29t-46 10h-172l23 126h159q63 0 72 56l16 86q4 20 -5 30t-38 9h-149q-59 0 -72 -56l-8 -41h-141l14 84q12 68 63 107t121 39h219q70 0 112 -48t30 -110l-21 -110q-12 -72 -90 -113q33 -14 49 -47t11 -66l-23 -127
q-12 -67 -62 -105t-122 -38h-236q-69 0 -113 47t-32 111l12 69h145l-10 -61q-2 -20 6 -30t37 -9z" />
    <glyph glyph-name="acute" unicode="&#xb4;" horiz-adv-x="1064" 
d="M649 1610h-147l233 295h246z" />
    <glyph glyph-name="paragraph" unicode="&#xb6;" horiz-adv-x="1523" 
d="M440 569q-132 0 -200 85t-43 218l55 316q26 137 112 212t220 75h942l-258 -1475h-195l227 1290h-155l-227 -1290h-197l100 569h-381z" />
    <glyph glyph-name="periodcentered" unicode="&#xb7;" horiz-adv-x="477" 
d="M346 561h-213l41 234h213z" />
    <glyph glyph-name="cedilla" unicode="&#xb8;" horiz-adv-x="1134" 
d="M471 -317q39 0 49 50t8 57t-24 7h-250l137 205h131l-69 -100h55q78 0 117 -43t24 -119l-4 -21q-27 -143 -184 -143h-191l-80 107h281z" />
    <glyph glyph-name="onesuperior" unicode="&#xb9;" horiz-adv-x="444" 
d="M262 940l107 612l-154 -49l21 121l188 78h113l-134 -762h-141z" />
    <glyph glyph-name="ordmasculine" unicode="&#xba;" horiz-adv-x="765" 
d="M664 625l-23 -117h-537l23 117h537zM610 1356h-164q-36 0 -60 -25t-30 -63l-59 -328q-12 -72 51 -72h164q34 0 62 24t36 62l52 328q12 74 -52 74zM524 748h-205q-83 0 -125 55t-26 139l61 356q15 80 71 130t138 51l207 -2q80 1 123 -55t29 -138l-62 -356
q-14 -82 -73 -131t-138 -49z" />
    <glyph glyph-name="guillemotright" unicode="&#xbb;" horiz-adv-x="917" 
d="M901 764l-10 -90l-324 -379h-200l370 424l-213 426h187zM545 764l-10 -90l-324 -379h-201l371 424l-211 426h186z" />
    <glyph glyph-name="onequarter" unicode="&#xbc;" horiz-adv-x="1419" 
d="M829 285h236l49 268zM1298 158h-116l-27 -158h-139l24 158h-387l-8 106l512 498h131l-82 -477h117zM1243 1475l-1046 -1475h-154l1047 1475h153zM221 715l107 612l-154 -49l21 121l188 78h113l-134 -762h-141z" />
    <glyph glyph-name="onehalf" unicode="&#xbd;" horiz-adv-x="1462" 
d="M1055 764h219q70 0 112 -48t29 -110l-20 -117q-18 -102 -197 -159l-209 -66q-51 -16 -53 -43l-18 -88h417l-22 -135h-561l41 240q18 102 198 159l209 66q51 14 55 41l17 88q6 20 -3 30t-38 9h-152q-61 0 -73 -56l-9 -38h-143l14 84q12 67 64 105t123 38zM1243 1475
l-1046 -1475h-154l1047 1475h153zM221 715l107 612l-154 -49l21 121l188 78h113l-134 -762h-141z" />
    <glyph glyph-name="threequarters" unicode="&#xbe;" horiz-adv-x="1665" 
d="M1085 281h236l49 268zM1554 154h-116l-27 -156h-139l24 156h-387l-8 106l512 498h131l-82 -477h117zM1499 1470l-1046 -1472h-154l1047 1472h153zM311 838h170q59 0 70 55l16 102q6 19 -5 29t-46 10h-172l23 127h159q63 0 72 56l16 86q4 20 -5 29t-38 9h-149
q-59 0 -72 -55l-8 -41h-141l14 84q12 68 63 107t121 39h219q70 -1 112 -49t30 -109l-21 -111q-12 -72 -90 -112q33 -14 49 -47t11 -66l-23 -127q-12 -68 -62 -106t-122 -37h-236q-70 0 -114 47t-31 110l12 70h146l-11 -61q-2 -19 6 -29t37 -10z" />
    <glyph glyph-name="questiondown" unicode="&#xbf;" horiz-adv-x="1122" 
d="M287 -195h360q120 0 146 138l22 125h197l-29 -156q-25 -137 -110 -210t-222 -77l-426 -12q-129 -2 -193 82t-42 221l28 176q16 98 95 156q79 57 149 93t72 38l20 12l70 33l68 37l20 12q6 2 19 12q13 9 15 13t6 9q3 5 8 12t13 32l27 147h197l-33 -180q-10 -47 -22 -68
l-16 -32t-32 -35l-37 -33q-10 -10 -49 -33l-49 -26q-29 -14 -59 -31l-131 -67q-103 -51 -121 -75t-25 -55l-24 -137q-23 -121 88 -121zM635 858l43 248h196l-43 -248h-196z" />
    <glyph glyph-name="Agrave" unicode="&#xc0;" horiz-adv-x="1323" 
d="M891 580l-100 694l-342 -694h442zM915 397h-559l-194 -397h-209l754 1475h227l240 -1475h-201zM825 1610l-233 295h235l127 -295h-129z" />
    <glyph glyph-name="Aacute" unicode="&#xc1;" horiz-adv-x="1323" 
d="M891 580l-100 694l-342 -694h442zM934 1475l240 -1475h-201l-58 397h-559l-194 -397h-209l754 1475h227zM864 1610h-147l233 295h246z" />
    <glyph glyph-name="Acircumflex" unicode="&#xc2;" horiz-adv-x="1323" 
d="M891 580l-100 694l-342 -694h442zM934 1475l240 -1475h-201l-58 397h-559l-194 -397h-209l754 1475h227zM659 1610h-153l293 252h180l203 -252h-144l-170 151z" />
    <glyph glyph-name="Atilde" unicode="&#xc3;" horiz-adv-x="1323" 
d="M889 580l-101 694l-342 -694h443zM932 1475l239 -1475h-200l-58 397h-559l-194 -397h-209l754 1475h227zM664 1610h-115l76 188q18 46 57 64t80 -2l260 -129l61 131h109l-80 -191q-18 -45 -54 -62t-75 1l-260 131z" />
    <glyph glyph-name="Adieresis" unicode="&#xc4;" horiz-adv-x="1323" 
d="M891 580l-100 694l-342 -694h442zM915 397h-559l-194 -397h-209l754 1475h227l240 -1475h-201zM1120 1618h-188l37 221h190zM756 1618h-189l39 221h187z" />
    <glyph glyph-name="Aring" unicode="&#xc5;" horiz-adv-x="1323" 
d="M782 1690h121q31 0 37 30l21 123q4 16 -13 17h-123q-28 0 -34 -33l-21 -121q-4 -16 12 -16zM954 1610h-219q-27 0 -46 26t-13 52l35 188q7 29 27 46t44 17h213q29 -1 48 -27t16 -48l-35 -191q-6 -29 -26 -46t-44 -17zM891 580l-100 694l-342 -694h442zM915 397h-559
l-194 -397h-209l754 1475h227l240 -1475h-201z" />
    <glyph glyph-name="AE" unicode="&#xc6;" horiz-adv-x="1984" 
d="M963 580l122 710h-86l-467 -710h431zM911 1475h1129l-31 -183h-725l-78 -442h617l-33 -182h-616l-87 -486h725l-30 -182h-922l70 397h-518l-260 -397h-230z" />
    <glyph glyph-name="Ccedilla" unicode="&#xc7;" horiz-adv-x="1263" 
d="M621 1300q-55 0 -95 -36q-39 -37 -51 -101l-153 -870q-23 -121 88 -121h372q58 0 96 35t50 102l28 160h197l-33 -190q-26 -135 -112 -210t-222 -75h-145l-63 -94h55q76 0 116 -43t25 -119l-4 -21q-27 -143 -184 -143h-189l-84 104h281q44 0 54 50t8 58q-2 7 -25 7h-250
l133 199h-147q-131 0 -200 84t-44 217l160 903q25 137 111 212t220 75l424 -2q133 0 198 -83t40 -216l-31 -176h-196l32 174q23 121 -90 120h-370z" />
    <glyph glyph-name="Egrave" unicode="&#xc8;" horiz-adv-x="1196" 
d="M930 1610h-131l-234 295h238zM1253 1475l-32 -183h-713l-80 -446h594l-31 -184h-594l-84 -480h713l-31 -182h-911l258 1475h911z" />
    <glyph glyph-name="Eacute" unicode="&#xc9;" horiz-adv-x="1196" 
d="M342 1475h911l-32 -183h-713l-80 -446h594l-31 -184h-594l-84 -480h713l-31 -182h-911zM840 1610h-148l234 295h243z" />
    <glyph glyph-name="Ecircumflex" unicode="&#xca;" horiz-adv-x="1196" 
d="M1253 1475l-32 -183h-713l-80 -446h594l-31 -184h-594l-84 -480h713l-31 -182h-911l258 1475h911zM844 1761l-211 -151h-152l291 252h180l203 -252h-141z" />
    <glyph glyph-name="Edieresis" unicode="&#xcb;" horiz-adv-x="1196" 
d="M1096 1618h-191l39 221h189zM729 1618h-188l39 221h188zM342 1475h911l-32 -183h-713l-80 -446h594l-31 -184h-594l-84 -480h713l-31 -182h-911z" />
    <glyph glyph-name="Igrave" unicode="&#xcc;" horiz-adv-x="559" 
d="M573 1610h-129l-233 295h235zM342 1475h197l-258 -1475h-197z" />
    <glyph glyph-name="Iacute" unicode="&#xcd;" horiz-adv-x="559" 
d="M483 1610h-147l233 295h246zM84 0l258 1475h197l-258 -1475h-197z" />
    <glyph glyph-name="Icircumflex" unicode="&#xce;" horiz-adv-x="559" 
d="M487 1761l-208 -151h-154l293 252h180l203 -252h-144zM342 1475h197l-258 -1475h-197z" />
    <glyph glyph-name="Idieresis" unicode="&#xcf;" horiz-adv-x="559" 
d="M84 0l258 1475h197l-258 -1475h-197zM739 1618h-188l37 221h190zM375 1618h-189l39 221h187z" />
    <glyph glyph-name="Eth" unicode="&#xd0;" horiz-adv-x="1320" 
d="M997 1288h-499l-80 -454h168l-33 -189h-168l-82 -467h488q53 0 93 38t52 99l149 852q23 121 -88 121zM801 0h-721l113 649h-166l32 189h166l113 637l704 -2q131 0 200 -83t44 -216l-158 -887q-24 -135 -108 -211t-219 -76z" />
    <glyph glyph-name="Ntilde" unicode="&#xd1;" horiz-adv-x="1425" 
d="M784 1741l-61 -131h-113l76 188q18 46 57 64t80 -2l260 -129l62 131h108l-79 -191q-18 -45 -54 -62t-76 1zM1407 1475l-258 -1475h-215l-451 1200l-215 -1200h-182l258 1475h217l451 -1201l213 1201h182z" />
    <glyph glyph-name="Ograve" unicode="&#xd2;" horiz-adv-x="1314" 
d="M975 1610h-129l-234 295h236zM618 1481h447q133 0 198 -83t40 -216l-158 -903q-25 -135 -112 -210t-222 -75l-440 -4q-131 0 -200 84t-44 217l160 903q25 137 111 212t220 75zM412 170h397q55 0 94 35t51 102l156 871q23 121 -88 120h-397q-55 0 -95 -36
q-39 -37 -51 -101l-155 -870q-23 -121 88 -121z" />
    <glyph glyph-name="Oacute" unicode="&#xd3;" horiz-adv-x="1314" 
d="M889 1606h-148l234 295h246zM412 170h397q55 0 94 35t51 102l156 871q23 121 -88 120h-397q-55 0 -95 -36q-39 -38 -51 -101l-155 -870q-23 -121 88 -121zM618 1481h447q133 0 198 -83t40 -216l-158 -903q-25 -135 -112 -210t-222 -75l-440 -4q-131 0 -200 84t-44 217
l160 903q25 137 111 212t220 75z" />
    <glyph glyph-name="Ocircumflex" unicode="&#xd4;" horiz-adv-x="1314" 
d="M889 1761l-209 -151h-154l293 252h180l203 -252h-143zM618 1481h447q133 0 198 -83t40 -216l-158 -903q-25 -135 -112 -210t-222 -75l-440 -4q-131 0 -200 84t-44 217l160 903q25 137 111 212t220 75zM412 170h397q55 0 94 35t51 102l156 871q23 121 -88 120h-397
q-55 0 -95 -36q-39 -37 -51 -101l-155 -870q-23 -121 88 -121z" />
    <glyph glyph-name="Otilde" unicode="&#xd5;" horiz-adv-x="1314" 
d="M745 1741l-61 -131h-113l76 188q18 46 57 64t80 -2l260 -129l62 131h108l-79 -191q-19 -45 -55 -62t-74 1zM621 1481h446q133 0 198 -83t40 -216l-158 -903q-25 -135 -112 -210t-222 -75l-440 -4q-131 0 -200 84t-44 217l160 903q25 137 111 212t221 75zM414 170h397
q57 0 95 35t50 102l156 871q23 121 -88 120h-397q-53 0 -95 -36q-39 -37 -51 -101l-155 -870q-23 -121 88 -121z" />
    <glyph glyph-name="Odieresis" unicode="&#xd6;" horiz-adv-x="1314" 
d="M412 170h397q55 0 94 35t51 102l156 871q23 121 -88 120h-397q-55 0 -95 -36q-39 -38 -51 -101l-155 -870q-23 -121 88 -121zM618 1481h447q133 0 198 -83t40 -216l-158 -903q-25 -135 -112 -210t-222 -75l-440 -4q-131 0 -200 84t-44 217l160 903q25 137 111 212t220 75
zM1141 1618h-189l37 221h191zM776 1618h-188l39 221h186z" />
    <glyph glyph-name="multiply" unicode="&#xd7;" horiz-adv-x="1019" 
d="M643 678l207 -248l-123 -108l-205 249l-295 -258l-98 113l297 262l-209 248l123 108l207 -249l295 258l98 -113z" />
    <glyph glyph-name="Oslash" unicode="&#xd8;" horiz-adv-x="1318" 
d="M803 174q57 0 97 38t52 97l154 869l-2 4l-688 -1008h387zM616 1296q-55 0 -94 -36t-51 -101l-149 -850l669 987h-375zM815 -8h-448q-131 0 -200 84t-44 217l160 903q25 137 111 212t220 75l447 -4q133 0 202 -83t44 -216l-160 -904q-25 -136 -111 -210t-221 -74z" />
    <glyph glyph-name="Ugrave" unicode="&#xd9;" horiz-adv-x="1318" 
d="M975 1610h-129l-234 295h236zM379 -10q-131 0 -200 84t-44 217l207 1182h197l-207 -1180q-23 -121 88 -121h377q57 0 95 35t50 102l205 1166h196l-204 -1201q-25 -135 -112 -210t-222 -74h-426z" />
    <glyph glyph-name="Uacute" unicode="&#xda;" horiz-adv-x="1318" 
d="M889 1606h-148l234 295h246zM379 -10q-131 0 -200 84t-44 217l207 1182h197l-207 -1180q-23 -121 88 -121h377q57 0 95 35t50 102l205 1166h196l-204 -1201q-25 -135 -112 -210t-222 -74h-426z" />
    <glyph glyph-name="Ucircumflex" unicode="&#xdb;" horiz-adv-x="1318" 
d="M889 1761l-209 -151h-154l293 252h180l203 -252h-143zM379 -10q-131 0 -200 84t-44 217l207 1182h197l-207 -1180q-23 -121 88 -121h377q57 0 95 35t50 102l205 1166h196l-204 -1201q-25 -135 -112 -210t-222 -74h-426z" />
    <glyph glyph-name="Udieresis" unicode="&#xdc;" horiz-adv-x="1318" 
d="M379 -10q-131 0 -200 84t-44 217l207 1182h197l-207 -1180q-23 -121 88 -121h377q57 0 95 35t50 102l205 1166h196l-204 -1201q-25 -135 -112 -210t-222 -74h-426zM1141 1618h-189l37 221h191zM776 1618h-188l39 221h186z" />
    <glyph glyph-name="Yacute" unicode="&#xdd;" horiz-adv-x="1204" 
d="M604 0h-196l96 537l-316 938h199l242 -734l493 734h224l-646 -938zM807 1610h-148l234 295h244z" />
    <glyph glyph-name="Thorn" unicode="&#xde;" horiz-adv-x="1265" 
d="M942 1014h-485l-95 -539l474 -2q57 0 95 35t50 102l49 285q20 119 -88 119zM987 1196q131 0 200 -83t44 -216l-57 -315q-25 -137 -112 -212t-220 -75h-510l-51 -295h-197l258 1475h197l-50 -279h498z" />
    <glyph glyph-name="germandbls" unicode="&#xdf;" horiz-adv-x="1128" 
d="M647 2h-272l26 162h238q53 0 95 42t50 95l45 264q8 61 -12 88t-96 27h-203l29 160h186q70 0 105 28t47 99l41 231q20 123 -86 123h-258q-52 0 -94 -39t-52 -98l-207 -1184h-186l211 1204q20 129 110 203t216 74h303q127 0 193 -84t40 -209l-43 -221q-27 -143 -168 -217
q59 -23 89 -81t18 -139l-43 -251q-19 -129 -107 -203t-215 -74z" />
    <glyph glyph-name="agrave" unicode="&#xe0;" horiz-adv-x="1134" 
d="M807 1253h-129l-234 295h236zM428 -6h-100q-127 0 -192 83t-42 212l96 549q20 128 108 202t214 74h100q94 0 203 -92l78 -66l29 150h188l-195 -1106h-188l29 150l-94 -72q-111 -84 -234 -84zM606 948h-86q-57 0 -99 -39t-50 -100l-92 -526q-20 -125 88 -125h86
q104 0 223 61l98 51l103 566l-70 51q-84 61 -201 61z" />
    <glyph glyph-name="aacute" unicode="&#xe1;" horiz-adv-x="1134" 
d="M717 1253h-148l234 295h246zM606 948h-86q-57 0 -99 -39t-50 -100l-92 -526q-20 -125 88 -125h86q104 0 223 61l98 51l103 566l-70 51q-84 61 -201 61zM428 -6h-100q-127 0 -192 83t-42 212l96 549q20 128 108 202t214 74h100q94 0 203 -92l78 -66l29 150h188l-195 -1106
h-188l29 150l-94 -72q-111 -84 -234 -84z" />
    <glyph glyph-name="acircumflex" unicode="&#xe2;" horiz-adv-x="1134" 
d="M721 1405l-209 -152h-154l293 252h180l203 -252h-143zM428 -6h-100q-127 0 -192 83t-42 212l96 549q20 128 108 202t214 74h100q94 0 203 -92l78 -66l29 150h188l-195 -1106h-188l29 150l-94 -72q-111 -84 -234 -84zM606 948h-86q-57 0 -99 -39t-50 -100l-92 -526
q-20 -125 88 -125h86q104 0 223 61l98 51l103 566l-70 51q-84 61 -201 61z" />
    <glyph glyph-name="atilde" unicode="&#xe3;" horiz-adv-x="1134" 
d="M578 1384l-62 -131h-113l76 189q17 47 57 64t80 -3l261 -129l61 131h109l-80 -190q-19 -45 -55 -63t-74 1zM430 -6h-100q-127 0 -192 83t-42 212l97 549q20 128 107 202t214 74h100q94 0 203 -92l78 -66l29 150h188l-194 -1106h-189l29 150l-94 -72q-111 -84 -234 -84z
M608 948h-86q-57 0 -99 -39t-50 -100l-92 -526q-20 -125 88 -125h86q102 0 223 61l98 51l103 566l-70 51q-84 61 -201 61z" />
    <glyph glyph-name="adieresis" unicode="&#xe4;" horiz-adv-x="1134" 
d="M606 948h-86q-57 0 -99 -39t-50 -100l-92 -526q-20 -125 88 -125h86q104 0 223 61l98 51l103 566l-70 51q-84 61 -201 61zM428 -6h-100q-127 0 -192 83t-42 212l96 549q20 128 108 202t214 74h100q94 0 203 -92l78 -66l29 150h188l-195 -1106h-188l29 150l-94 -72
q-111 -84 -234 -84zM973 1262h-189l37 221h191zM608 1262h-188l39 221h186z" />
    <glyph glyph-name="aring" unicode="&#xe5;" horiz-adv-x="1134" 
d="M756 1333q31 0 37 31l20 123q4 16 -12 16h-123q-29 0 -35 -33l-20 -120q-4 -16 12 -17h121zM807 1253h-219q-27 0 -46 26t-14 52l35 189q6 29 27 46t45 17h213q29 -1 48 -27t15 -49l-34 -190q-5 -29 -25 -47t-45 -17zM606 948h-86q-57 0 -99 -39t-50 -100l-92 -526
q-20 -125 88 -125h86q104 0 223 61l98 51l103 566l-70 51q-84 61 -201 61zM428 -6h-100q-127 0 -192 83t-42 212l96 549q20 128 108 202t214 74h100q94 0 203 -92l78 -66l29 150h188l-195 -1106h-188l29 150l-94 -72q-111 -84 -234 -84z" />
    <glyph glyph-name="ae" unicode="&#xe6;" horiz-adv-x="1736" 
d="M412 514q-54 0 -94 -35t-52 -100l-18 -105q-21 -120 90 -124l84 -3q78 -2 209 62l104 51l39 217l8 37h-370zM1419 940h-250q-51 0 -92 -37t-55 -94l-29 -170h484l28 178q18 123 -86 123zM1016 152h248q53 0 95 36t54 99l10 55h187l-15 -80q-25 -131 -109 -203t-212 -71
h-293q-95 0 -155 46t-76 126l-142 -107q-82 -63 -202 -63h-101q-127 0 -191 83t-42 212l16 100q20 127 108 203t218 76h51q150 0 338 -39l41 192q29 129 -92 129h-217q-59 0 -101 -39t-55 -104v-6h-186l6 32q25 133 113 209t212 76h264q109 0 177 -67q89 69 202 67l289 -8
q129 -4 194 -86t40 -207l-58 -319h-665l-43 -242q-6 -100 92 -100z" />
    <glyph glyph-name="ccedilla" unicode="&#xe7;" horiz-adv-x="1064" 
d="M512 1114h289q125 0 193 -83t44 -210l-14 -78h-186l14 88q20 123 -86 123h-246q-53 0 -94 -39t-51 -98l-94 -538q-23 -123 86 -123h245q54 0 94 39t48 98l12 74h186l-14 -95q-18 -126 -106 -200t-216 -74h-86l-65 -94h57q76 0 116 -43t26 -119l-5 -21q-27 -143 -186 -143
h-190l-82 105h280q25 -1 37 11t18 50q7 38 5 45q-2 6 -25 6h-250l133 199h-71q-127 0 -192 83t-42 212l96 549q20 128 108 202t214 74z" />
    <glyph glyph-name="egrave" unicode="&#xe8;" horiz-adv-x="1083" 
d="M524 952q-53 0 -92 -40t-49 -97l-29 -170h482l28 182q10 59 -14 93q-25 33 -76 32h-250zM371 147h250q53 0 93 39t48 99l10 61h189l-15 -78q-24 -130 -110 -202t-215 -72h-293q-127 0 -192 83t-42 212l96 549q20 130 110 204t212 72l303 -4q129 -4 191 -84t43 -209
l-56 -315h-667l-41 -232q-23 -123 86 -123zM670 1253l-234 295h238l127 -295h-131z" />
    <glyph glyph-name="eacute" unicode="&#xe9;" horiz-adv-x="1083" 
d="M524 952q-53 0 -92 -40t-49 -97l-29 -170h482l28 182q10 59 -14 93q-25 33 -76 32h-250zM371 147h250q53 0 93 39t48 99l10 61h189l-15 -78q-24 -130 -110 -202t-215 -72h-293q-127 0 -192 83t-42 212l96 549q20 130 110 204t212 72l303 -4q129 -4 191 -84t43 -209
l-56 -315h-667l-41 -232q-23 -123 86 -123zM711 1253h-148l234 295h243z" />
    <glyph glyph-name="ecircumflex" unicode="&#xea;" horiz-adv-x="1083" 
d="M524 952q-53 0 -92 -40t-49 -97l-29 -170h482l28 182q10 59 -14 93q-25 33 -76 32h-250zM371 147h250q53 0 93 39t48 99l10 61h189l-15 -78q-24 -130 -110 -202t-215 -72h-293q-127 0 -192 83t-42 212l96 549q20 130 110 204t212 72l303 -4q129 -4 191 -84t43 -209
l-56 -315h-667l-41 -232q-23 -123 86 -123zM504 1253h-152l291 252h180l203 -252h-141l-170 152z" />
    <glyph glyph-name="edieresis" unicode="&#xeb;" horiz-adv-x="1083" 
d="M973 1255h-191l39 222h189zM606 1255h-188l39 222h188zM524 952q-53 0 -92 -40t-49 -97l-29 -170h482l28 182q10 59 -14 93q-25 33 -76 32h-250zM371 147h250q53 0 93 39t48 99l10 61h189l-15 -78q-24 -130 -110 -202t-215 -72h-293q-127 0 -192 83t-42 212l96 549
q20 130 110 204t212 72l303 -4q129 -4 191 -84t43 -209l-56 -315h-667l-41 -232q-23 -123 86 -123z" />
    <glyph glyph-name="igrave" unicode="&#xec;" horiz-adv-x="497" 
d="M477 1253h-131l-233 295h237zM250 0h-189l195 1106h188z" />
    <glyph glyph-name="iacute" unicode="&#xed;" horiz-adv-x="497" 
d="M440 1106l-194 -1106h-187l195 1106h186zM381 1253h-148l234 295h246z" />
    <glyph glyph-name="icircumflex" unicode="&#xee;" horiz-adv-x="497" 
d="M397 1405l-211 -152h-151l291 252h180l203 -252h-142zM250 0h-189l195 1106h188z" />
    <glyph glyph-name="idieresis" unicode="&#xef;" horiz-adv-x="497" 
d="M444 1106l-194 -1106h-189l195 1106h188zM651 1260h-190l39 221h188zM285 1260h-189l39 221h189z" />
    <glyph glyph-name="eth" unicode="&#xf0;" horiz-adv-x="1103" 
d="M582 856h-84q-54 0 -98 -39t-52 -96l-76 -442q-10 -57 12 -91t74 -34h265q55 0 98 40t51 97l82 452l-70 54q-78 59 -202 59zM324 -8q-127 0 -192 83t-42 212l80 458q20 127 110 204t216 77h98q94 0 203 -92l77 -66l35 195q12 65 -8 93t-80 48l-114 39l-132 -113h-182
l185 160l-172 60l22 116l266 -75l127 108h183l-173 -147l3 -6q158 -41 220 -106t38 -196l-138 -778q-20 -129 -106 -202t-215 -72h-309z" />
    <glyph glyph-name="ntilde" unicode="&#xf1;" horiz-adv-x="1132" 
d="M772 946h-65q-104 0 -222 -61l-96 -51l-149 -834h-187l195 1104h186l-28 -150l92 72q113 86 235 86h78q127 0 190 -82t43 -211l-143 -819h-186l143 821q20 125 -86 125zM578 1382l-62 -131h-110l75 189q17 47 57 64t80 -3l261 -129l61 131h109l-80 -190q-17 -43 -55 -61
t-76 -1z" />
    <glyph glyph-name="ograve" unicode="&#xf2;" horiz-adv-x="1099" 
d="M809 1253h-131l-234 295h238zM633 -6h-305q-127 0 -192 83t-42 212l96 549q20 130 110 204t212 72l309 -4q129 -4 191 -84t43 -209l-97 -549q-20 -130 -108 -202t-217 -72zM518 950q-53 0 -93 -39t-48 -98l-96 -543q-23 -123 86 -123h262q55 0 98 40t51 98l88 540
q22 127 -86 125h-262z" />
    <glyph glyph-name="oacute" unicode="&#xf3;" horiz-adv-x="1099" 
d="M518 950q-53 0 -93 -39t-48 -98l-96 -543q-23 -123 86 -123h262q55 1 98 41t51 97l88 540q22 127 -86 125h-262zM633 -6h-305q-127 0 -192 83t-42 212l96 549q20 130 110 204t212 72l309 -4q129 -4 191 -84t43 -209l-97 -549q-20 -130 -108 -202t-217 -72zM719 1253h-148
l234 295h244z" />
    <glyph glyph-name="ocircumflex" unicode="&#xf4;" horiz-adv-x="1099" 
d="M633 -6h-305q-127 0 -192 83t-42 212l96 549q20 130 110 204t212 72l309 -4q129 -4 191 -84t43 -209l-97 -549q-20 -130 -108 -202t-217 -72zM518 950q-53 0 -93 -39t-48 -98l-96 -543q-23 -123 86 -123h262q55 0 98 40t51 98l88 540q22 127 -86 125h-262zM721 1399
l-211 -152h-152l291 252h180l203 -252h-141z" />
    <glyph glyph-name="otilde" unicode="&#xf5;" horiz-adv-x="1099" 
d="M575 1384l-59 -131h-110l75 189q17 47 57 64t80 -3l259 -129l61 131h111l-80 -190q-17 -43 -55 -61t-78 -1zM633 -6h-305q-127 0 -192 83t-42 212l96 549q20 130 110 204t212 72l309 -4q129 -4 191 -84t43 -209l-97 -549q-20 -130 -108 -202t-217 -72zM518 950
q-53 0 -93 -39t-48 -98l-96 -543q-23 -123 86 -123h262q55 0 98 40t51 98l88 540q22 127 -86 125h-262z" />
    <glyph glyph-name="odieresis" unicode="&#xf6;" horiz-adv-x="1099" 
d="M973 1255h-191l39 222h189zM606 1255h-188l39 222h188zM518 950q-53 0 -93 -39t-48 -98l-96 -543q-23 -123 86 -123h262q55 1 98 41t51 97l88 540q22 127 -86 125h-262zM633 -6h-305q-127 0 -192 83t-42 212l96 549q20 130 110 204t212 72l309 -4q129 -4 191 -84t43 -209
l-97 -549q-20 -130 -108 -202t-217 -72z" />
    <glyph glyph-name="divide" unicode="&#xf7;" horiz-adv-x="1019" 
d="M567 289h-209l39 223h209zM162 846h799l-31 -176h-799zM692 1004h-209l41 223h209z" />
    <glyph glyph-name="oslash" unicode="&#xf8;" horiz-adv-x="1105" 
d="M631 154q55 0 98 40t51 99l90 526q6 29 2 60l-477 -725h236zM514 944q-53 0 -93 -36t-52 -103l-97 -526q-4 -43 0 -60l476 725h-234zM639 -6h-311q-127 0 -192 83t-42 212l96 549q20 130 110 204t212 72l311 -4q129 -4 191 -84t43 -209l-96 -549q-21 -126 -107 -200
t-215 -74z" />
    <glyph glyph-name="ugrave" unicode="&#xf9;" horiz-adv-x="1132" 
d="M815 1253h-131l-233 295h237zM383 156h63q102 0 222 61l98 51l149 836h187l-195 -1104h-186l29 147l-95 -71q-109 -84 -235 -84h-78q-128 0 -192 83t-41 212l145 819h186l-147 -825q-20 -125 90 -125z" />
    <glyph glyph-name="uacute" unicode="&#xfa;" horiz-adv-x="1132" 
d="M383 156h63q102 0 222 61l98 51l149 836h187l-195 -1104h-186l29 147l-95 -71q-109 -84 -235 -84h-78q-128 0 -192 83t-41 212l145 819h186l-147 -825q-20 -125 90 -125zM725 1253h-147l233 295h244z" />
    <glyph glyph-name="ucircumflex" unicode="&#xfb;" horiz-adv-x="1132" 
d="M383 156h63q102 0 222 61l98 51l149 836h187l-195 -1104h-186l29 147l-95 -71q-109 -84 -235 -84h-78q-128 0 -192 83t-41 212l145 819h186l-147 -825q-20 -125 90 -125zM727 1403l-211 -152h-151l290 252h181l202 -252h-141z" />
    <glyph glyph-name="udieresis" unicode="&#xfc;" horiz-adv-x="1132" 
d="M979 1260h-191l39 221h189zM612 1260h-188l39 221h188zM383 156h63q102 0 222 61l98 51l149 836h187l-195 -1104h-186l29 147l-95 -71q-109 -84 -235 -84h-78q-128 0 -192 83t-41 212l145 819h186l-147 -825q-20 -125 90 -125z" />
    <glyph glyph-name="yacute" unicode="&#xfd;" horiz-adv-x="1011" 
d="M655 1253h-147l233 295h246zM1075 1106l-768 -1495h-178l199 389l-191 1106h174l135 -873l445 873h184z" />
    <glyph glyph-name="thorn" unicode="&#xfe;" horiz-adv-x="1136" 
d="M791 944h-86q-106 0 -224 -61l-96 -52l-104 -565l71 -51q84 -61 199 -61h86q57 0 100 40t51 99l89 526q20 125 -86 125zM647 -6h-100q-96 0 -203 90l-78 66l-98 -539h-184l338 1925h186l-105 -580l95 72q120 92 233 86l100 -4q131 -6 193 -85t41 -208l-96 -549
q-21 -126 -107 -200t-215 -74z" />
    <glyph glyph-name="ydieresis" unicode="&#xff;" horiz-adv-x="1011" 
d="M1075 1106l-768 -1495h-178l199 389l-191 1106h174l135 -873l445 873h184zM911 1262h-188l37 221h190zM547 1262h-189l39 221h187z" />
    <glyph glyph-name="Amacron" unicode="&#x100;" horiz-adv-x="1323" 
d="M891 580l-100 694l-342 -694h442zM915 397h-559l-194 -397h-209l754 1475h227l240 -1475h-201zM1110 1630h-528l28 158h527z" />
    <glyph glyph-name="amacron" unicode="&#x101;" horiz-adv-x="1134" 
d="M606 948h-86q-57 0 -99 -39t-50 -100l-92 -526q-20 -125 88 -125h86q104 0 223 61l98 51l103 566l-70 51q-84 61 -201 61zM428 -6h-100q-127 0 -192 83t-42 212l96 549q20 128 108 202t214 74h100q94 0 203 -92l78 -66l29 150h188l-195 -1106h-188l29 150l-94 -72
q-111 -84 -234 -84zM989 1432l-26 -158h-529l29 158h526z" />
    <glyph glyph-name="Abreve" unicode="&#x102;" horiz-adv-x="1323" 
d="M891 578l-100 694l-342 -694h442zM915 395h-559l-194 -395h-209l754 1473h227l240 -1473h-201zM801 1720h119q39 0 45 43l16 95h119l-23 -127q-10 -53 -53 -87t-92 -34l-168 -2q-51 0 -86 43t-25 96l19 111h119l-17 -101q-6 -37 27 -37z" />
    <glyph glyph-name="abreve" unicode="&#x103;" horiz-adv-x="1134" 
d="M606 946h-86q-57 0 -99 -39t-50 -100l-92 -526q-20 -125 88 -125h86q104 0 223 61l98 51l103 566l-70 51q-84 61 -201 61zM428 -8h-100q-127 0 -192 83t-42 212l96 549q20 128 108 202t214 74h100q94 0 203 -92l78 -66l29 150h188l-195 -1104h-188l29 147l-94 -71
q-111 -84 -234 -84zM784 1253h-168q-51 0 -86 43t-24 97l18 110h119l-16 -100q-6 -37 26 -37h119q39 0 45 43l17 94h118l-22 -129q-10 -53 -53 -87t-93 -34z" />
    <glyph glyph-name="Aogonek" unicode="&#x104;" horiz-adv-x="1323" 
d="M889 580l-101 694l-342 -694h443zM936 -348q-86 0 -121 59q-33 59 31 148l127 141l-58 397h-559l-194 -397h-209l754 1475h227l240 -1475h-48l-133 -158q-27 -33 -27 -45t29 -16h158l-23 -129h-194z" />
    <glyph glyph-name="aogonek" unicode="&#x105;" horiz-adv-x="1134" 
d="M606 948h-86q-57 0 -99 -39t-50 -100l-92 -526q-20 -125 88 -125h86q104 0 223 61l98 51l103 566l-70 51q-84 61 -201 61zM690 -203q0 -12 29 -16h158l-23 -129h-195q-88 0 -122 59q-33 59 30 148l127 141h33l29 150l-94 -72q-111 -84 -234 -84h-100q-127 0 -192 83
t-42 212l96 549q20 128 108 202t214 74h100q94 0 203 -92l78 -66l29 150h188l-195 -1106h-69l-129 -158q-27 -33 -27 -45z" />
    <glyph glyph-name="Cacute" unicode="&#x106;" horiz-adv-x="1263" 
d="M872 1606h-147l233 295h246zM616 1481h422q133 0 198 -83t40 -216l-31 -176h-196l32 174q23 121 -90 120h-370q-55 0 -95 -36q-39 -37 -51 -101l-153 -870q-23 -121 88 -121h372q58 0 96 35t50 102l28 160h197l-33 -190q-25 -135 -112 -210t-222 -75l-417 -4
q-131 0 -200 84t-44 217l160 903q25 137 111 212t220 75z" />
    <glyph glyph-name="cacute" unicode="&#x107;" horiz-adv-x="1064" 
d="M707 1249h-148l234 295h245zM512 1110h289q125 0 193 -83t44 -210l-14 -78h-186l14 88q20 123 -86 123h-246q-53 0 -94 -39t-51 -98l-94 -539q-23 -123 86 -122h245q54 0 94 38t48 99l12 73h186l-14 -94q-18 -126 -104 -198t-218 -76l-288 -4q-125 -2 -191 82t-43 213
l96 549q20 128 108 202t214 74z" />
    <glyph glyph-name="Cdotaccent" unicode="&#x10a;" horiz-adv-x="1263" 
d="M616 1481h422q133 0 198 -83t40 -216l-31 -176h-196l32 174q23 121 -90 120h-370q-55 0 -95 -36q-39 -37 -51 -101l-153 -870q-23 -121 88 -121h372q58 0 96 35t50 102l28 160h197l-33 -190q-25 -135 -112 -210t-222 -75l-417 -4q-131 0 -200 84t-44 217l160 903
q25 137 111 212t220 75zM944 1624h-192l36 213h193z" />
    <glyph glyph-name="cdotaccent" unicode="&#x10b;" horiz-adv-x="1064" 
d="M782 1264h-190l37 213h190zM512 1110h289q125 0 193 -83t44 -210l-14 -78h-186l14 88q20 123 -86 123h-246q-53 0 -94 -39t-51 -98l-94 -539q-23 -123 86 -122h245q54 0 94 38t48 99l12 73h186l-14 -94q-18 -126 -104 -198t-218 -76l-288 -4q-125 -2 -191 82t-43 213
l96 549q20 128 108 202t214 74z" />
    <glyph glyph-name="Ccaron" unicode="&#x10c;" horiz-adv-x="1263" 
d="M932 1610h-180l-203 252h139l172 -152l201 152h162zM616 1481h422q133 0 198 -83t40 -216l-31 -176h-196l32 174q23 121 -90 120h-370q-53 0 -95 -36q-39 -37 -51 -101l-153 -870q-23 -121 88 -121h372q58 0 96 35t50 102l28 160h197l-33 -190q-26 -135 -112 -210
t-222 -75l-417 -4q-131 0 -200 84t-44 217l160 903q25 137 111 212t220 75z" />
    <glyph glyph-name="ccaron" unicode="&#x10d;" horiz-adv-x="1064" 
d="M770 1253h-180l-203 252h139l172 -151l201 151h164zM512 1110h289q125 0 193 -83t44 -210l-14 -78h-186l14 88q20 123 -86 123h-246q-53 0 -94 -39t-51 -98l-94 -539q-23 -123 86 -122h245q54 0 94 38t48 99l12 73h186l-14 -94q-18 -126 -104 -198t-218 -76l-288 -4
q-125 -2 -191 82t-43 213l96 549q20 128 108 202t214 74z" />
    <glyph glyph-name="Dcaron" unicode="&#x10e;" horiz-adv-x="1329" 
d="M805 0h-721l258 1475l709 -2q131 0 199 -83t44 -216l-157 -887q-25 -137 -112 -212t-220 -75zM1008 1290h-500l-195 -1110l486 -2q57 0 95 35t50 102l152 854q23 121 -88 121zM926 1606h-181l-202 252h139l170 -152l201 152h164z" />
    <glyph glyph-name="dcaron" unicode="&#x10f;" horiz-adv-x="1136" 
d="M604 948h-86q-57 0 -99 -39t-50 -100l-93 -526q-20 -125 89 -125h86q102 0 223 61l98 51l102 566l-69 51q-84 61 -201 61zM426 -6h-100q-127 0 -192 83t-42 212l96 549q20 128 108 202t214 74h100q94 0 203 -92l78 -66l104 580h187l-269 -1536h-188l29 150l-95 -72
q-111 -84 -233 -84zM1524 1536l-33 -190q-4 -35 -35 -78q-30 -43 -74 -99l-104 -127h-100l176 261h-84l39 233h215z" />
    <glyph glyph-name="Dcroat" unicode="&#x110;" horiz-adv-x="1320" 
d="M997 1288h-499l-80 -454h168l-33 -189h-168l-82 -467h488q53 0 93 38t52 99l149 852q23 121 -88 121zM801 0h-721l113 649h-166l32 189h166l113 637l704 -2q131 0 200 -83t44 -216l-158 -887q-24 -135 -108 -211t-219 -76z" />
    <glyph glyph-name="dcroat" unicode="&#x111;" horiz-adv-x="1134" 
d="M563 948h-86q-57 0 -99 -39t-50 -100l-92 -526q-20 -125 88 -125h86q102 0 223 61l98 51l103 566l-68 51q-82 61 -203 61zM385 -6h-100q-127 0 -192 83t-42 212l96 549q19 128 107 202t215 74h100q94 0 203 -92l78 -66l45 252h-213l25 133h213l34 195h187l-33 -195h121
l-23 -133h-123l-211 -1208h-188l29 150l-95 -72q-111 -84 -233 -84z" />
    <glyph glyph-name="Emacron" unicode="&#x112;" horiz-adv-x="1196" 
d="M1112 1788l-29 -158h-526l27 158h528zM342 1475h911l-32 -183h-713l-80 -446h594l-31 -184h-594l-84 -480h713l-31 -182h-911z" />
    <glyph glyph-name="emacron" unicode="&#x113;" horiz-adv-x="1083" 
d="M524 952q-53 0 -92 -40t-49 -97l-29 -170h482l28 182q10 59 -14 93q-25 33 -76 32h-250zM371 147h250q53 0 93 39t48 99l10 61h189l-15 -78q-24 -130 -110 -202t-215 -72h-293q-127 0 -192 83t-42 212l96 549q20 130 110 204t212 72l303 -4q129 -4 191 -84t43 -209
l-56 -315h-667l-41 -232q-23 -123 86 -123zM954 1274h-526l27 158h528z" />
    <glyph glyph-name="Edotaccent" unicode="&#x116;" horiz-adv-x="1196" 
d="M342 1475h911l-32 -183h-713l-80 -446h594l-31 -184h-594l-84 -480h713l-31 -182h-911zM915 1624h-192l37 213h192z" />
    <glyph glyph-name="edotaccent" unicode="&#x117;" horiz-adv-x="1083" 
d="M524 952q-53 0 -92 -40t-49 -97l-29 -170h482l28 182q10 59 -14 93q-25 33 -76 32h-250zM371 147h250q53 0 93 39t48 99l10 61h189l-15 -78q-24 -130 -110 -202t-215 -72h-293q-127 0 -192 83t-42 212l96 549q20 130 110 204t212 72l303 -4q129 -4 191 -84t43 -209
l-56 -315h-667l-41 -232q-23 -123 86 -123zM786 1268h-192l37 213h192z" />
    <glyph glyph-name="Eogonek" unicode="&#x118;" horiz-adv-x="1196" 
d="M809 -348q-88 0 -123 59t31 148l127 141h-760l258 1475h911l-32 -183h-713l-80 -446h594l-31 -184h-594l-84 -480h713l-31 -182l-129 -158q-26 -33 -26 -45t28 -16h158l-22 -129h-195z" />
    <glyph glyph-name="eogonek" unicode="&#x119;" horiz-adv-x="1083" 
d="M524 952q-53 0 -92 -40t-49 -97l-29 -170h482l28 182q10 59 -14 93q-25 33 -76 32h-250zM371 147h250q53 0 93 39t48 99l10 61h189l-15 -78q-24 -130 -110 -202t-215 -72h-74l-123 -152q-27 -33 -27 -45t29 -16h158l-23 -129h-194q-88 0 -123 59t30 148l119 135h-65
q-127 0 -192 83t-42 212l96 549q20 130 110 204t212 72l303 -4q129 -4 191 -84t43 -209l-56 -315h-667l-41 -232q-23 -123 86 -123z" />
    <glyph glyph-name="Ecaron" unicode="&#x11a;" horiz-adv-x="1196" 
d="M1253 1475l-32 -183h-713l-80 -446h594l-31 -184h-594l-84 -480h713l-31 -182h-911l258 1475h911zM903 1610h-180l-203 252h139l170 -152l201 152h164z" />
    <glyph glyph-name="ecaron" unicode="&#x11b;" horiz-adv-x="1083" 
d="M524 952q-53 0 -92 -40t-49 -97l-29 -170h482l28 182q10 59 -14 93q-25 33 -76 32h-250zM371 147h250q53 0 93 39t48 99l10 61h189l-15 -78q-24 -130 -110 -202t-215 -72h-293q-127 0 -192 83t-42 212l96 549q20 130 110 204t212 72l303 -4q129 -4 191 -84t43 -209
l-56 -315h-667l-41 -232q-23 -123 86 -123zM594 1253l-203 252h139l170 -151l201 151h164l-291 -252h-180z" />
    <glyph glyph-name="Gbreve" unicode="&#x11e;" horiz-adv-x="1298" 
d="M782 1608q-53 0 -87 43t-23 96l20 111h119l-16 -101q-6 -37 24 -37h121q39 0 45 43l14 95h119l-24 -129q-8 -53 -50 -87t-92 -34h-170zM625 1298q-55 0 -95 -36q-39 -37 -51 -101l-153 -872q-20 -119 88 -119h389q57 0 95 35t50 100l51 291h-331l32 178h529l-88 -500
q-25 -135 -112 -210t-222 -74h-438q-131 0 -200 84t-44 217l160 903q25 137 111 212t220 75h439q133 0 196 -81t41 -218l-24 -148h-197l29 144q25 121 -88 120h-387z" />
    <glyph glyph-name="gbreve" unicode="&#x11f;" horiz-adv-x="1134" 
d="M596 940h-86q-53 0 -95 -39t-50 -100l-80 -459q-23 -123 88 -123h86q102 0 221 62l98 51l92 495l-73 52q-88 61 -201 61zM285 -403q-125 0 -192 85t-42 212l4 22h183l-7 -37q-23 -127 93 -127h229q55 0 98 39t56 105l57 319l-92 -70q-119 -88 -234 -88h-100
q-125 0 -191 84t-43 213l84 482q20 128 108 202t214 74h100q98 0 205 -90l78 -68l29 150h186l-223 -1231q-25 -131 -110 -204t-212 -72h-278zM809 1253h-168q-51 0 -86 43t-25 97l19 110h119l-17 -100q-6 -37 25 -37h121q39 0 45 43l14 94h119l-21 -129q-10 -53 -53 -87
t-92 -34z" />
    <glyph glyph-name="Gdotaccent" unicode="&#x120;" horiz-adv-x="1298" 
d="M625 1298q-55 0 -95 -36q-39 -37 -51 -101l-153 -872q-20 -119 88 -119h389q57 0 95 35t50 100l51 291h-331l32 178h529l-88 -500q-25 -135 -112 -210t-222 -74h-438q-131 0 -200 84t-44 217l160 903q25 137 111 212t220 75h439q133 0 196 -81t41 -218l-24 -148h-197
l29 144q25 121 -88 120h-387zM956 1624h-192l37 213h192z" />
    <glyph glyph-name="gdotaccent" unicode="&#x121;" horiz-adv-x="1134" 
d="M596 942h-86q-53 0 -95 -39t-50 -100l-80 -459q-23 -123 88 -123h86q102 0 221 62l98 51l92 495l-73 52q-88 61 -201 61zM285 -401q-125 0 -192 85t-42 212l4 22h183l-7 -37q-23 -127 93 -127h229q55 0 98 39t56 105l57 319l-92 -70q-119 -88 -234 -88h-100
q-125 0 -191 84t-43 213l84 482q20 128 108 202t214 74h100q98 0 205 -90l78 -68l29 150h186l-223 -1231q-25 -131 -110 -204t-212 -72h-278zM817 1268h-192l37 213h192z" />
    <glyph glyph-name="Gcommaaccent" unicode="&#x122;" horiz-adv-x="1298" 
d="M664 -143l-35 -191q-3 -19 -39 -88l-37 -49q-25 -33 -31 -39l-104 -127h-103l179 260h-86l41 234h215zM625 1298q-55 0 -95 -36q-39 -37 -51 -101l-153 -872q-20 -119 88 -119h389q57 0 95 35t50 100l51 291h-331l32 178h529l-88 -500q-25 -135 -112 -210t-222 -74h-438
q-131 0 -200 84t-44 217l160 903q25 137 111 212t220 75h439q133 0 196 -81t41 -218l-24 -148h-197l29 144q25 121 -88 120h-387z" />
    <glyph glyph-name="gcommaaccent" unicode="&#x123;" horiz-adv-x="1134" 
d="M600 940h-86q-53 0 -95 -39t-50 -100l-80 -459q-23 -123 88 -123h86q102 0 221 62l98 51l92 495l-73 52q-88 61 -201 61zM289 -403q-125 0 -192 85t-42 212l4 22h183l-6 -37q-23 -127 92 -127h229q55 0 98 39t56 105l57 319l-92 -70q-119 -88 -234 -88h-100
q-124 0 -190 84t-43 213l84 482q20 128 107 202t214 74h100q98 0 205 -90l78 -68l29 150h186l-223 -1231q-25 -131 -110 -204t-212 -72h-278zM629 1262l37 188q8 38 21 60t47 69t36 49l107 127h100l-178 -260h86l-41 -233h-215z" />
    <glyph glyph-name="Hbar" unicode="&#x126;" horiz-adv-x="1396" 
d="M1114 1104h-637l-43 -254h635zM1438 1104h-129l-193 -1104h-196l116 668h-635l-116 -668h-197l193 1104h-127l24 145h127l41 226h197l-41 -226h637l39 226h196l-39 -226h129z" />
    <glyph glyph-name="hbar" unicode="&#x127;" horiz-adv-x="1130" 
d="M770 948h-65q-104 0 -222 -61l-96 -51l-149 -836h-187l211 1208h-123l25 133h123l32 195h189l-35 -195h213l-22 -133h-215l-46 -252l93 72q116 90 235 86l78 -2q129 -4 191 -84t42 -209l-143 -819h-186l143 823q20 125 -86 125z" />
    <glyph glyph-name="Imacron" unicode="&#x12a;" horiz-adv-x="559" 
d="M84 0l258 1475h197l-258 -1475h-197zM756 1788l-27 -158h-528l28 158h527z" />
    <glyph glyph-name="imacron" unicode="&#x12b;" horiz-adv-x="497" 
d="M444 1106l-194 -1106h-189l195 1106h188zM666 1425l-27 -157h-528l28 157h527z" />
    <glyph glyph-name="Iogonek" unicode="&#x12e;" horiz-adv-x="559" 
d="M145 -203q0 -12 29 -16h158l-23 -129h-194q-88 0 -120 58t30 149l127 141h-33l258 1475h196l-258 -1475h-10l-133 -158q-27 -33 -27 -45z" />
    <glyph glyph-name="iogonek" unicode="&#x12f;" horiz-adv-x="497" 
d="M88 -203q0 -12 29 -16h157l-22 -129h-195q-84 0 -118 59q-33 59 30 148l125 141l195 1106h184l-194 -1106h-33l-131 -158q-27 -33 -27 -45zM559 1536l-35 -209h-207l37 209h205z" />
    <glyph glyph-name="Idotaccent" unicode="&#x130;" horiz-adv-x="559" 
d="M559 1624h-190l37 213h190zM84 0l258 1475h197l-258 -1475h-197z" />
    <glyph glyph-name="IJ" unicode="&#x132;" horiz-adv-x="1742" 
d="M827 -10q-133 0 -197 83t-40 218l45 254h196l-45 -252q-23 -121 88 -121h324q57 0 95 35t50 102l205 1166h197l-209 -1201q-25 -135 -112 -210t-222 -74h-375zM84 0l258 1475h197l-258 -1475h-197z" />
    <glyph glyph-name="ij" unicode="&#x133;" horiz-adv-x="1030" 
d="M430 -240q53 0 92 40t49 98l215 1208h187l-213 -1229q-20 -127 -110 -204t-216 -76h-141l31 163h106zM440 1106l-194 -1106h-187l195 1106h186zM1022 1327h-205l37 209h205zM489 1327h-206l36 209h205z" />
    <glyph glyph-name="Kcommaaccent" unicode="&#x136;" horiz-adv-x="1337" 
d="M457 -141h213l-33 -191q-4 -27 -39 -88l-37 -49q-25 -33 -31 -39l-104 -127h-102l178 260h-86zM821 870l371 -870h-209l-305 727l-328 -332l-69 -395h-197l258 1475h197l-146 -813l783 813h243z" />
    <glyph glyph-name="kcommaaccent" unicode="&#x137;" horiz-adv-x="1079" 
d="M336 -141h213l-33 -191q-4 -27 -39 -88l-37 -49q-25 -33 -30 -39l-105 -127h-102l178 260h-86zM676 674l266 -674h-194l-205 543l-252 -246l-53 -297h-187l258 1475h187l-168 -940l546 571h242z" />
    <glyph glyph-name="Lacute" unicode="&#x139;" horiz-adv-x="1112" 
d="M342 1475h197l-226 -1293h662l-31 -182h-860zM487 1610h-147l233 295h244z" />
    <glyph glyph-name="lacute" unicode="&#x13a;" horiz-adv-x="491" 
d="M328 1536h184l-270 -1536h-185zM463 1671h-148l234 295h244z" />
    <glyph glyph-name="Lcommaaccent" unicode="&#x13b;" horiz-adv-x="1112" 
d="M608 -141l-35 -191q-4 -22 -38 -88l-37 -49q-25 -33 -31 -39l-105 -127h-102l178 260h-86l41 234h215zM342 1475h197l-226 -1293h662l-31 -182h-860z" />
    <glyph glyph-name="lcommaaccent" unicode="&#x13c;" horiz-adv-x="491" 
d="M231 -141l-36 -191q-7 -34 -21 -56t-48 -70t-36 -50l-104 -127h-103l176 260h-82l39 234h215zM328 1536h184l-270 -1536h-185z" />
    <glyph glyph-name="Lcaron" unicode="&#x13d;" horiz-adv-x="1112" 
d="M340 1475h197l-226 -1293h662l-31 -182h-860zM948 1536l-37 -190q-7 -42 -39 -86l-34 -48q-23 -31 -31 -43l-107 -127h-100l178 261h-86l41 233h215z" />
    <glyph glyph-name="lcaron" unicode="&#x13e;" horiz-adv-x="491" 
d="M326 1536h184l-270 -1536h-185zM862 1536l-37 -190q-7 -42 -39 -86l-34 -48q-23 -31 -31 -43l-107 -127h-102l180 261h-86l41 233h215z" />
    <glyph glyph-name="Ldot" unicode="&#x13f;" horiz-adv-x="1112" 
d="M827 653h-215l41 234h215zM342 1475h197l-226 -1293h662l-31 -182h-860z" />
    <glyph glyph-name="ldot" unicode="&#x140;" horiz-adv-x="745" 
d="M743 692h-215l43 234h213zM328 1536h184l-270 -1536h-185z" />
    <glyph glyph-name="Lslash" unicode="&#x141;" horiz-adv-x="1112" 
d="M975 184l-31 -184h-860l117 666l-142 -54l31 185l143 53l109 625h197l-95 -545l281 106l-31 -184l-282 -107l-99 -561h662z" />
    <glyph glyph-name="lslash" unicode="&#x142;" horiz-adv-x="628" 
d="M657 854l-211 -82l-135 -772h-184l121 694l-213 -82l33 187l213 82l114 655h185l-101 -580l209 82z" />
    <glyph glyph-name="Nacute" unicode="&#x143;" horiz-adv-x="1425" 
d="M924 1610h-148l234 295h245zM1223 1475h182l-258 -1475h-215l-451 1200l-215 -1200h-182l258 1475h217l451 -1201z" />
    <glyph glyph-name="nacute" unicode="&#x144;" horiz-adv-x="1132" 
d="M719 1251h-148l234 295h246zM772 946h-65q-104 0 -222 -61l-96 -51l-149 -834h-187l195 1104h186l-28 -150l92 72q113 86 235 86h78q127 0 190 -82t43 -211l-143 -819h-186l143 821q20 125 -86 125z" />
    <glyph glyph-name="Ncommaaccent" unicode="&#x145;" horiz-adv-x="1425" 
d="M698 -141l-36 -191q-8 -34 -22 -56t-47 -70q-34 -48 -36 -50l-106 -127h-103l178 260h-84l41 234h215zM1223 1475h182l-258 -1475h-215l-451 1200l-215 -1200h-182l258 1475h217l451 -1201z" />
    <glyph glyph-name="ncommaaccent" unicode="&#x146;" horiz-adv-x="1132" 
d="M557 -143l-37 -191q-14 -56 -58 -115t-46 -61l-107 -127h-100l178 260h-86l41 234h215zM772 946h-65q-104 0 -222 -61l-96 -51l-149 -834h-187l195 1104h186l-28 -150l92 72q113 86 235 86h78q127 0 190 -82t43 -211l-143 -819h-186l143 821q20 125 -86 125z" />
    <glyph glyph-name="Ncaron" unicode="&#x147;" horiz-adv-x="1425" 
d="M987 1610h-180l-203 252h139l172 -152l201 152h164zM1405 1475l-258 -1475h-215l-451 1200l-215 -1200h-182l258 1475h217l451 -1201l213 1201h182z" />
    <glyph glyph-name="ncaron" unicode="&#x148;" horiz-adv-x="1132" 
d="M782 1253h-180l-203 252h140l172 -151l200 151h162zM772 946h-65q-104 0 -222 -61l-96 -51l-149 -834h-187l195 1104h186l-28 -150l92 72q113 86 235 86h78q127 0 190 -82t43 -211l-143 -819h-186l143 821q20 125 -86 125z" />
    <glyph glyph-name="Eng" unicode="&#x14a;" horiz-adv-x="1423" 
d="M797 -406h-176l28 175h162q53 -1 91 37t50 100l19 80l-492 1206l-213 -1192h-182l258 1475h221l457 -1143l203 1143h182l-281 -1596q-26 -135 -112 -210t-215 -75z" />
    <glyph glyph-name="eng" unicode="&#x14b;" horiz-adv-x="1130" 
d="M545 -233q55 -1 96 37t53 102l162 917q20 125 -86 125h-65q-104 0 -222 -61l-96 -51l-149 -836h-187l195 1106h186l-29 -150l93 72q120 92 235 86l74 -4q131 -6 192 -85t41 -208l-166 -938q-20 -129 -107 -203t-214 -73h-148l29 164h113z" />
    <glyph glyph-name="Omacron" unicode="&#x14c;" horiz-adv-x="1314" 
d="M412 170h397q55 0 94 35t51 102l156 871q23 121 -88 120h-397q-55 0 -95 -36q-39 -38 -51 -101l-155 -870q-23 -121 88 -121zM618 1481h447q133 0 198 -83t40 -216l-158 -903q-25 -135 -112 -210t-222 -75l-440 -4q-131 0 -200 84t-44 217l160 903q25 137 111 212t220 75
zM1157 1788l-27 -158h-528l29 158h526z" />
    <glyph glyph-name="omacron" unicode="&#x14d;" horiz-adv-x="1099" 
d="M989 1425l-28 -157h-527l27 157h528zM518 950q-53 0 -93 -39t-48 -98l-96 -543q-23 -123 86 -123h262q55 1 98 41t51 97l88 540q22 127 -86 125h-262zM633 -6h-305q-127 0 -192 83t-42 212l96 549q20 130 110 204t212 72l309 -4q129 -4 191 -84t43 -209l-97 -549
q-20 -130 -108 -202t-217 -72z" />
    <glyph glyph-name="Ohungarumlaut" unicode="&#x150;" horiz-adv-x="1314" 
d="M412 170h397q55 0 94 35t51 102l156 871q23 121 -88 120h-397q-55 0 -95 -36q-39 -38 -51 -101l-155 -870q-23 -121 88 -121zM618 1481h447q133 0 198 -83t40 -216l-158 -903q-25 -135 -112 -210t-222 -75l-440 -4q-131 0 -200 84t-44 217l160 903q25 137 111 212t220 75
zM1350 1907l-285 -297h-191l285 297h191zM1022 1907l-283 -297h-190l285 297h188z" />
    <glyph glyph-name="ohungarumlaut" unicode="&#x151;" horiz-adv-x="1099" 
d="M518 950q-53 0 -93 -39t-48 -98l-96 -543q-23 -123 86 -123h262q55 1 98 41t51 97l88 540q22 127 -86 125h-262zM633 -6h-305q-127 0 -192 83t-42 212l96 549q20 130 110 204t212 72l309 -4q129 -4 191 -84t43 -209l-97 -549q-20 -130 -108 -202t-217 -72zM1182 1550
l-285 -297h-190l284 297h191zM854 1550l-283 -297h-190l285 297h188z" />
    <glyph glyph-name="OE" unicode="&#x152;" horiz-adv-x="1970" 
d="M1044 1292h-428q-55 0 -93 -35t-50 -102l-151 -854q-23 -121 88 -121h428q57 0 67 60l117 661l59 361q4 18 -6 24t-31 6zM367 0q-131 0 -200 84t-44 217l158 887q25 137 111 212t220 75h1436l-31 -183h-731l-78 -448h617l-33 -182h-616l-84 -482h731l-33 -180h-1423z" />
    <glyph glyph-name="oe" unicode="&#x153;" horiz-adv-x="1763" 
d="M358 156h260q54 0 96 39t50 92l94 534q20 125 -86 125h-262q-57 0 -99 -39t-51 -100l-92 -526q-21 -125 90 -125zM1440 946h-248q-51 0 -91 -34t-52 -93l-2 -2l-31 -172h483l29 178q18 123 -88 123zM1292 158q54 0 96 36t54 99l10 55h184l-12 -80q-18 -126 -105 -200
t-216 -74h-293q-117 0 -179 61q-80 -61 -202 -61h-305q-127 0 -192 83t-42 212l96 549q20 128 108 202t214 74h305q115 0 178 -63q82 63 203 63l287 -2q125 0 193 -83t44 -210l-57 -319h-668l-41 -230q-20 -113 90 -112h250z" />
    <glyph glyph-name="Racute" unicode="&#x154;" horiz-adv-x="1312" 
d="M991 1288h-483l-92 -520h471q55 0 94 34t51 103l47 262q23 121 -88 121zM342 1475l692 -2q131 0 200 -83t44 -216l-53 -297q-50 -265 -295 -285l182 -592h-205l-182 590h-340l-104 -590h-197zM852 1610h-147l233 295h244z" />
    <glyph glyph-name="racute" unicode="&#x155;" horiz-adv-x="800" 
d="M705 942q-102 0 -222 -61l-98 -52l-147 -829h-187l195 1106h186l-29 -150l93 72q113 86 235 86h115l-29 -172h-112zM575 1253h-147l234 295h243z" />
    <glyph glyph-name="Rcommaaccent" unicode="&#x156;" horiz-adv-x="1312" 
d="M432 -145h211l-33 -191q-3 -40 -53 -107q-49 -67 -51 -69l-107 -127h-102l178 260h-84zM991 1288h-483l-92 -520h471q55 0 94 34t51 103l47 262q23 121 -88 121zM342 1475l692 -2q131 0 200 -83t44 -216l-53 -297q-50 -265 -295 -285l182 -592h-205l-182 590h-340
l-104 -590h-197z" />
    <glyph glyph-name="rcommaaccent" unicode="&#x157;" horiz-adv-x="800" 
d="M227 -141l-34 -191q-3 -19 -39 -88l-37 -49q-25 -33 -31 -39l-102 -127h-103l176 260h-84l39 234h215zM705 942q-102 0 -222 -61l-98 -52l-147 -829h-187l195 1106h186l-29 -150l93 72q113 86 235 86h115l-29 -172h-112z" />
    <glyph glyph-name="Rcaron" unicode="&#x158;" horiz-adv-x="1312" 
d="M991 1288h-483l-92 -520h471q55 0 94 34t51 103l47 262q23 121 -88 121zM342 1475l692 -2q131 0 200 -83t44 -216l-53 -297q-50 -265 -295 -285l182 -592h-205l-182 590h-340l-104 -590h-197zM735 1610l-203 252h140l170 -152l200 152h164l-291 -252h-180z" />
    <glyph glyph-name="rcaron" unicode="&#x159;" horiz-adv-x="800" 
d="M705 942q-102 0 -222 -61l-98 -52l-147 -829h-187l195 1106h186l-29 -150l93 72q113 86 235 86h115l-29 -172h-112zM641 1253h-180l-203 252h139l170 -151l201 151h164z" />
    <glyph glyph-name="Sacute" unicode="&#x15a;" horiz-adv-x="1255" 
d="M856 1608h-147l233 295h246zM952 1303h-331q-55 0 -93 -35t-51 -103l-28 -153q-12 -66 9 -89t81 -40l356 -90q137 -33 204 -103t42 -196l-39 -218q-25 -136 -112 -210t-222 -74h-403q-131 0 -200 84t-44 217l26 151h195l-27 -149q-20 -125 88 -125h357q51 0 90 35t51 104
l31 178q18 86 -27 107q-18 10 -57 18l-359 88q-133 33 -197 102t-44 199l33 193q20 133 109 210t222 77h379q133 0 197 -81t41 -218l-23 -133h-194l28 129q27 125 -88 125z" />
    <glyph glyph-name="sacute" unicode="&#x15b;" horiz-adv-x="1046" 
d="M674 1241h-148l234 295h246zM723 948h-225q-51 0 -86 -37t-43 -92l-13 -69q-8 -46 6 -62t68 -24l301 -52q236 -41 197 -245l-23 -115q-25 -129 -105 -197t-204 -67h-309q-123 0 -185 75q-61 76 -39 203l13 72h184l-12 -78q-10 -53 12 -84t70 -31h264q49 0 87 38t46 93
l16 95q10 47 -8 65t-69 27l-297 53q-238 43 -199 244l16 86q25 128 107 198t201 70h270q121 0 184 -76t45 -204l-8 -54h-184l2 51q20 117 -80 117z" />
    <glyph glyph-name="Scedilla" unicode="&#x15e;" horiz-adv-x="1255" 
d="M610 1483h385q133 0 197 -81t41 -218l-23 -133h-194l24 131q25 125 -88 125h-331q-55 0 -93 -35t-51 -103l-28 -153q-12 -66 9 -89t81 -40l356 -90q137 -33 204 -103t42 -196l-39 -217q-25 -135 -112 -210t-222 -75h-143l-64 -94h55q76 0 116 -43t26 -119l-4 -21
q-27 -143 -185 -143h-190l-82 105h281q40 0 50 50t8 57t-26 7h-250l134 199h-132q-132 0 -200 84t-43 217l26 151h195l-27 -149q-20 -125 88 -125h357q53 0 91 35t50 104l31 178q18 86 -27 107q-18 10 -57 18l-359 88q-133 33 -197 102t-44 200l33 192q20 133 109 210
t222 77z" />
    <glyph glyph-name="scedilla" unicode="&#x15f;" horiz-adv-x="1046" 
d="M500 950q-53 0 -86 -37t-43 -92l-13 -69q-10 -48 6 -62t68 -24l301 -52q236 -41 197 -245l-23 -115q-25 -129 -105 -197t-204 -67h-84l-63 -94h55q76 0 116 -43t25 -119l-4 -21q-27 -143 -184 -143h-189l-84 104h281q41 0 51 50t8 58q-2 7 -24 7h-250l133 199h-96
q-123 0 -185 75q-61 76 -38 203l12 72h184l-12 -78q-10 -53 12 -84t70 -31h264q49 0 87 38t46 93l16 95q10 47 -7 65t-70 27l-297 53q-238 43 -199 244l16 86q25 130 110 202t198 66l262 -10q127 -6 187 -79t42 -202l-8 -53h-184l10 64q18 117 -80 116h-225z" />
    <glyph glyph-name="Scaron" unicode="&#x160;" horiz-adv-x="1255" 
d="M915 1610h-180l-203 252h140l172 -152l200 152h162zM952 1303h-331q-53 0 -93 -35t-51 -103l-28 -153q-12 -66 9 -89t81 -40l356 -90q137 -33 204 -103t42 -196l-39 -218q-25 -136 -112 -210t-222 -74h-403q-131 0 -200 84t-44 217l26 151h195l-27 -149q-20 -125 88 -125
h357q51 0 90 35t51 104l31 178q18 86 -27 107q-18 10 -57 18l-359 88q-133 33 -197 102t-44 199l33 193q20 133 109 210t222 77h379q133 0 197 -81t41 -218l-23 -133h-194l28 129q27 125 -88 125z" />
    <glyph glyph-name="scaron" unicode="&#x161;" horiz-adv-x="1046" 
d="M745 1253h-180l-203 252h140l172 -151l200 151h164zM723 948h-225q-51 0 -86 -37t-43 -92l-13 -69q-8 -46 6 -62t68 -24l301 -52q236 -41 197 -245l-23 -115q-25 -129 -105 -197t-204 -67h-309q-123 0 -185 75q-61 76 -39 203l13 72h184l-12 -78q-10 -53 12 -84t70 -31
h264q49 0 87 38t46 93l16 95q10 47 -8 65t-69 27l-297 53q-238 43 -199 244l16 86q25 128 107 198t201 70h270q121 0 184 -76t45 -204l-8 -54h-184l2 51q20 117 -80 117z" />
    <glyph glyph-name="Tcedilla" unicode="&#x162;" horiz-adv-x="1136" 
d="M528 -98q78 0 117 -43t25 -119l-4 -21q-27 -143 -185 -143h-190l-82 105h280q39 0 50 50t9 57t-26 7h-250l138 205h-35l227 1292h-412l31 183h1020l-29 -181h-411l-228 -1292h-30l-70 -100h55z" />
    <glyph glyph-name="tcedilla" unicode="&#x163;" horiz-adv-x="831" 
d="M535 -100q75 0 115 -43t26 -119l-4 -21q-27 -143 -185 -143h-188l-84 104h281q42 0 52 50t8 58q-2 7 -26 7h-249l139 207q-124 2 -188 84t-42 211l115 655h-182l27 156h186l63 369h183l-64 -369h338l-27 -156h-335l-117 -667q-18 -121 86 -121h227l-28 -162h-113
l-70 -100h56z" />
    <glyph glyph-name="Tcaron" unicode="&#x164;" horiz-adv-x="1136" 
d="M799 1292l-228 -1292h-196l227 1292h-412l31 183h1020l-31 -183h-411zM838 1610h-181l-202 252h139l170 -152l201 152h163z" />
    <glyph glyph-name="tcaron" unicode="&#x165;" horiz-adv-x="831" 
d="M981 1739l-29 -193q-3 -29 -82 -133l-30 -41l-105 -127h-102l178 260h-86l41 234h215zM424 0q-127 0 -192 83t-42 212l115 655h-182l27 156h186l63 369h183l-64 -369h338l-27 -156h-335l-119 -669q-18 -121 86 -121h227l-29 -160h-235z" />
    <glyph glyph-name="Tbar" unicode="&#x166;" horiz-adv-x="1136" 
d="M1047 1788l-29 -158h-526l26 158h529zM1210 1292h-411l-228 -1292h-196l227 1292h-412l31 183h1020z" />
    <glyph glyph-name="tbar" unicode="&#x167;" horiz-adv-x="831" 
d="M424 0q-127 0 -192 83t-42 212l48 266h-125l26 158h125l41 231h-182l27 156h186l63 369h183l-64 -369h338l-27 -156h-335l-41 -233h215l-27 -158h-217l-49 -278q-18 -121 86 -121h227l-29 -160h-235z" />
    <glyph glyph-name="Umacron" unicode="&#x16a;" horiz-adv-x="1318" 
d="M379 -10q-131 0 -200 84t-44 217l207 1182h197l-207 -1180q-23 -121 88 -121h377q57 0 95 35t50 102l205 1166h196l-204 -1201q-25 -135 -112 -210t-222 -74h-426zM1157 1788l-27 -158h-528l29 158h526z" />
    <glyph glyph-name="umacron" unicode="&#x16b;" horiz-adv-x="1132" 
d="M995 1430l-28 -158h-527l27 158h528zM383 156h63q102 0 222 61l98 51l149 836h187l-195 -1104h-186l29 147l-95 -71q-109 -84 -235 -84h-78q-128 0 -192 83t-41 212l145 819h186l-147 -825q-20 -125 90 -125z" />
    <glyph glyph-name="Uring" unicode="&#x16e;" horiz-adv-x="1318" 
d="M377 -10q-131 0 -200 84t-44 217l207 1182h197l-207 -1180q-23 -121 88 -121h377q57 0 95 35t50 102l205 1166h196l-204 -1201q-25 -135 -112 -210t-222 -74h-426zM805 1690h121q31 0 37 30l20 123q4 16 -12 17h-123q-29 0 -35 -33l-20 -121q-4 -16 12 -16zM975 1610
h-217q-27 0 -46 26t-14 52l35 188q5 29 25 46t47 17h213q27 -1 46 -27t15 -48l-35 -191q-6 -29 -25 -46t-44 -17z" />
    <glyph glyph-name="uring" unicode="&#x16f;" horiz-adv-x="1132" 
d="M379 156h63q102 0 222 61l98 51l149 836h187l-195 -1104h-186l28 147l-94 -71q-109 -84 -235 -84h-78q-127 0 -192 83t-42 212l146 819h186l-147 -825q-20 -125 90 -125zM766 1333q31 0 37 31l18 123q4 16 -12 16h-123q-29 0 -35 -33l-20 -120q-4 -16 12 -17h123z
M813 1253h-215q-27 0 -46 26t-13 52l32 189q6 29 27 46t45 17h213q29 1 48 -25t14 -51l-33 -190q-5 -29 -25 -47t-47 -17z" />
    <glyph glyph-name="Uhungarumlaut" unicode="&#x170;" horiz-adv-x="1318" 
d="M379 -10q-131 0 -200 84t-44 217l207 1182h197l-207 -1180q-23 -121 88 -121h377q57 0 95 35t50 102l205 1166h196l-204 -1201q-25 -135 -112 -210t-222 -74h-426zM1350 1907l-285 -297h-191l285 297h191zM1022 1907l-283 -297h-190l285 297h188z" />
    <glyph glyph-name="uhungarumlaut" unicode="&#x171;" horiz-adv-x="1132" 
d="M383 156h63q102 0 222 61l98 51l149 836h187l-195 -1104h-186l29 147l-95 -71q-109 -84 -235 -84h-78q-128 0 -192 83t-41 212l145 819h186l-147 -825q-20 -125 90 -125zM1188 1550l-285 -297h-190l284 297h191zM860 1550l-282 -297h-191l285 297h188z" />
    <glyph glyph-name="Uogonek" unicode="&#x172;" horiz-adv-x="1318" 
d="M520 -211q0 -10 29 -14h158l-23 -129h-195q-85 0 -119 58t29 149l121 137h-141q-131 0 -200 84t-44 217l207 1182h197l-207 -1180q-23 -121 88 -121h377q57 0 95 35t50 102l205 1166h196l-206 -1201q-25 -135 -112 -210t-222 -74h-131l-125 -152q-27 -33 -27 -49z" />
    <glyph glyph-name="uogonek" unicode="&#x173;" horiz-adv-x="1132" 
d="M684 -350q-86 0 -121 58t31 149l127 143l29 147l-95 -71q-109 -84 -235 -84h-78q-128 0 -192 83t-41 212l145 819h186l-145 -823q-20 -125 90 -125h64q102 0 221 61l98 51l150 836h186l-195 -1106h-32l-136 -160q-27 -33 -27 -45t29 -16h158l-22 -129h-195z" />
    <glyph glyph-name="Wcircumflex" unicode="&#x174;" horiz-adv-x="1816" 
d="M1120 1761l-209 -151h-153l293 252h180l203 -252h-144zM1096 0l-78 1149l-477 -1149h-201l-125 1475h201l65 -1211l504 1211h168l76 -1211l491 1211h209l-641 -1475h-192z" />
    <glyph glyph-name="wcircumflex" unicode="&#x175;" horiz-adv-x="1521" 
d="M913 1405l-208 -152h-154l291 252h180l203 -252h-142zM870 0l-53 838l-346 -838h-197l-137 1106h182l76 -922l385 922h162l51 -922l396 922h196l-518 -1106h-197z" />
    <glyph glyph-name="Ycircumflex" unicode="&#x176;" horiz-adv-x="1204" 
d="M408 0l96 537l-316 938h199l242 -734l493 734h224l-646 -938l-96 -537h-196zM811 1761l-211 -151h-151l290 252h181l202 -252h-141z" />
    <glyph glyph-name="ycircumflex" unicode="&#x177;" horiz-adv-x="1011" 
d="M1075 1106l-768 -1495h-178l199 389l-191 1106h174l135 -873l445 873h184zM451 1253h-154l293 252h180l203 -252h-144l-170 152z" />
    <glyph glyph-name="Ydieresis" unicode="&#x178;" horiz-adv-x="1204" 
d="M1063 1618h-191l39 221h189zM696 1618h-188l39 221h188zM604 0h-196l96 537l-316 938h199l242 -734l493 734h224l-646 -938z" />
    <glyph glyph-name="Zacute" unicode="&#x179;" horiz-adv-x="1200" 
d="M821 1610h-147l233 295h246zM37 147l938 1145h-699l31 183h944l-22 -148l-940 -1145h731l-31 -182h-975z" />
    <glyph glyph-name="zacute" unicode="&#x17a;" horiz-adv-x="935" 
d="M-2 125l696 819h-524l27 162h757l-20 -123l-698 -821h550l-26 -162h-780zM621 1253h-148l234 295h243z" />
    <glyph glyph-name="Zdotaccent" unicode="&#x17b;" horiz-adv-x="1200" 
d="M897 1624h-190l36 213h191zM37 147l938 1145h-699l31 183h944l-22 -148l-940 -1145h731l-31 -182h-975z" />
    <glyph glyph-name="zdotaccent" unicode="&#x17c;" horiz-adv-x="935" 
d="M-2 125l696 819h-524l27 162h757l-20 -123l-698 -821h550l-26 -162h-780zM696 1268h-192l37 213h192z" />
    <glyph glyph-name="Zcaron" unicode="&#x17d;" horiz-adv-x="1200" 
d="M885 1610h-180l-203 252h139l172 -152l201 152h164zM975 1292h-699l31 183h944l-22 -148l-940 -1145h731l-31 -182h-975l23 147z" />
    <glyph glyph-name="zcaron" unicode="&#x17e;" horiz-adv-x="935" 
d="M694 944h-524l27 162h757l-20 -123l-698 -821h550l-26 -162h-780l18 125zM684 1253h-180l-203 252h139l170 -151l201 151h164z" />
    <glyph glyph-name="florin" unicode="&#x192;" horiz-adv-x="854" 
d="M123 2h-150l29 182h115q55 0 93 35t50 100l76 424h-221l30 175h222l49 274q26 137 110 210t217 73h205l-30 -183l-168 2q-52 0 -92 -35t-52 -100l-43 -241h271l-31 -175h-271l-81 -456q-25 -139 -110 -212t-218 -73z" />
    <glyph glyph-name="circumflex" unicode="&#x2c6;" horiz-adv-x="1323" 
d="M877 1761l-211 -151h-152l291 252h180l203 -252h-141z" />
    <glyph glyph-name="caron" unicode="&#x2c7;" horiz-adv-x="1323" 
d="M936 1610h-180l-203 252h139l170 -152l201 152h164z" />
    <glyph glyph-name="breve" unicode="&#x2d8;" horiz-adv-x="1239" 
d="M907 1610h-170q-53 0 -87 43t-23 96l20 111h119l-16 -101q-6 -37 24 -37h121q39 0 45 43l14 95h119l-24 -129q-7 -51 -49 -86t-93 -35z" />
    <glyph glyph-name="dotaccent" unicode="&#x2d9;" horiz-adv-x="917" 
d="M743 1624h-190l37 213h190z" />
    <glyph glyph-name="ring" unicode="&#x2da;" horiz-adv-x="690" 
d="M477 1690h121q31 0 37 30l20 123q4 16 -12 17h-123q-29 0 -35 -33l-20 -121q-4 -16 12 -16zM649 1610h-219q-27 0 -46 26t-13 52l35 188q13 63 71 63h213q29 -1 48 -27t16 -48l-35 -191q-7 -29 -27 -46t-43 -17z" />
    <glyph glyph-name="ogonek" unicode="&#x2db;" horiz-adv-x="778" 
d="M301 -219h160l-25 -129h-194q-86 0 -121 59t31 148l129 141h151l-133 -158q-27 -34 -27 -50q0 -12 29 -11z" />
    <glyph glyph-name="tilde" unicode="&#x2dc;" horiz-adv-x="1226" 
d="M674 1741l-62 -131h-110l76 188q18 46 57 64t80 -2l260 -129l61 131h109l-80 -191q-18 -43 -55 -61t-76 0z" />
    <glyph glyph-name="hungarumlaut" unicode="&#x2dd;" horiz-adv-x="1507" 
d="M1366 1907l-285 -297h-188l285 297h188zM1038 1907l-282 -297h-189l285 297h186z" />
    <glyph glyph-name="commaaccentcomb" unicode="&#x326;" horiz-adv-x="0" 
d="M342 -141l-37 -191q-8 -34 -21 -56t-47 -70t-36 -50l-107 -127h-98l176 260h-86l41 234h215z" />
    <glyph glyph-name="Wgrave" unicode="&#x1e80;" horiz-adv-x="1816" 
d="M1206 1610h-129l-233 295h235zM1096 0l-78 1149l-477 -1149h-201l-125 1475h201l65 -1211l504 1211h168l76 -1211l491 1211h209l-641 -1475h-192z" />
    <glyph glyph-name="wgrave" unicode="&#x1e81;" horiz-adv-x="1521" 
d="M870 0l-53 838l-346 -838h-197l-137 1106h182l76 -922l385 922h162l51 -922l396 922h196l-518 -1106h-197zM999 1253h-129l-235 295h237z" />
    <glyph glyph-name="Wacute" unicode="&#x1e82;" horiz-adv-x="1816" 
d="M1116 1610h-147l233 295h246zM1288 0h-192l-78 1149l-477 -1149h-201l-125 1475h201l65 -1211l504 1211h168l76 -1211l491 1211h209z" />
    <glyph glyph-name="wacute" unicode="&#x1e83;" horiz-adv-x="1521" 
d="M909 1253h-147l233 295h246zM1067 0h-197l-53 838l-346 -838h-197l-137 1106h182l76 -922l385 922h162l51 -922l396 922h196z" />
    <glyph glyph-name="Wdieresis" unicode="&#x1e84;" horiz-adv-x="1816" 
d="M1288 0h-192l-78 1149l-477 -1149h-201l-125 1475h201l65 -1211l504 1211h168l76 -1211l491 1211h209zM1372 1618h-188l37 221h190zM1008 1618h-189l39 221h186z" />
    <glyph glyph-name="wdieresis" unicode="&#x1e85;" horiz-adv-x="1521" 
d="M1067 0h-197l-53 838l-346 -838h-197l-137 1106h182l76 -922l385 922h162l51 -922l396 922h196zM1165 1262h-190l39 221h190zM799 1262h-187l37 221h189z" />
    <glyph glyph-name="Ygrave" unicode="&#x1ef2;" horiz-adv-x="1204" 
d="M897 1610h-131l-234 295h238zM408 0l96 537l-316 938h199l242 -734l493 734h224l-646 -938l-96 -537h-196z" />
    <glyph glyph-name="ygrave" unicode="&#x1ef3;" horiz-adv-x="1011" 
d="M1075 1106l-768 -1495h-178l199 389l-191 1106h174l135 -873l445 873h184zM616 1253l-233 295h235l127 -295h-129z" />
    <glyph glyph-name="endash" unicode="&#x2013;" horiz-adv-x="1120" 
d="M1040 764l-30 -178h-885l31 178h884z" />
    <glyph glyph-name="emdash" unicode="&#x2014;" horiz-adv-x="1622" 
d="M1542 764l-31 -176h-1386l31 176h1386z" />
    <glyph glyph-name="quoteleft" unicode="&#x2018;" horiz-adv-x="466" 
d="M203 981l30 193q7 47 78 135q20 27 31 41l104 125h103l-178 -261h88l-41 -233h-215z" />
    <glyph glyph-name="quoteright" unicode="&#x2019;" horiz-adv-x="468" 
d="M504 1475l-29 -193q-6 -25 -45 -84q-12 -14 -37 -49l-135 -168h-102l178 260h-86l41 234h215z" />
    <glyph glyph-name="quotesinglbase" unicode="&#x201a;" horiz-adv-x="468" 
d="M287 233l-37 -190q-7 -42 -39 -84l-35 -47q-20 -31 -31 -43l-106 -127h-100l178 258h-86l41 233h215z" />
    <glyph glyph-name="quotedblleft" unicode="&#x201c;" horiz-adv-x="808" 
d="M203 981l33 190q4 32 40 86l37 50q23 31 31 43l102 125h105l-178 -261h86l-41 -233h-215zM545 981l33 190q4 32 40 86l37 50q20 31 31 43l102 125h103l-178 -261h88l-41 -233h-215z" />
    <glyph glyph-name="quotedblright" unicode="&#x201d;" horiz-adv-x="808" 
d="M850 1473l-35 -191q-4 -27 -39 -88l-37 -49q-25 -33 -30 -39l-105 -127h-102l178 260h-86l41 234h215zM504 1475l-29 -193q-6 -25 -45 -84q-12 -14 -37 -49l-135 -168h-102l178 260h-86l41 234h215z" />
    <glyph glyph-name="quotedblbase" unicode="&#x201e;" horiz-adv-x="468" 
d="M287 233l-37 -190q-7 -42 -39 -84l-35 -47q-20 -31 -31 -43l-106 -127h-100l178 258h-86l41 233h215z" />
    <glyph glyph-name="dagger" unicode="&#x2020;" horiz-adv-x="751" 
d="M754 942h-222l-165 -942h-174l165 942h-223l29 164h223l64 369h174l-64 -369h223z" />
    <glyph glyph-name="daggerdbl" unicode="&#x2021;" horiz-adv-x="751" 
d="M532 942l-71 -410h221l-29 -163h-221l-65 -369h-174l65 369h-223l28 163h224l71 410h-223l31 164h221l64 369h174l-64 -369h223l-28 -164h-224z" />
    <glyph glyph-name="bullet" unicode="&#x2022;" horiz-adv-x="860" 
d="M567 559h-250q-31 0 -51 27t-14 61l45 248q12 72 82 72h248q31 0 51 -27t14 -61l-43 -248q-12 -72 -82 -72z" />
    <glyph glyph-name="ellipsis" unicode="&#x2026;" horiz-adv-x="1325" 
d="M1102 0h-215l41 233h215zM674 0h-215l41 233h215zM246 0h-215l39 233h215z" />
    <glyph glyph-name="perthousand" unicode="&#x2030;" horiz-adv-x="1810" 
d="M1552 449h-131q-45 0 -53 -50l-45 -264q-6 -35 23 -35h131q41 1 49 52l45 262q6 35 -19 35zM1010 449h-131q-45 0 -54 -50l-45 -264q-6 -35 23 -35h131q41 1 49 52l45 262q6 35 -18 35zM1397 561h186q55 0 88 -43t25 -98l-54 -311q-8 -53 -49 -89q-41 -31 -94 -30h-186
q-53 0 -87 42t-24 97l53 311q10 51 50 86q41 35 92 35zM854 561h188q51 0 86 -43t25 -98l-53 -311q-10 -51 -49 -85t-93 -34h-188q-53 0 -86 42t-25 97l54 311q8 51 49 86t92 35zM532 1366h-131q-45 0 -53 -49l-45 -264q-6 -35 25 -35h131q39 0 47 51l45 262q6 35 -19 35z
M1235 1470l-979 -1472h-168l979 1472h168zM481 905h-186q-55 0 -89 43t-24 99l54 311q10 57 50 91t95 34l184 -4q53 0 86 -43t25 -99l-53 -311q-7 -51 -49 -86t-93 -35z" />
    <glyph glyph-name="guilsinglleft" unicode="&#x2039;" horiz-adv-x="561" 
d="M604 1145l-368 -426l210 -424h-186l-188 379l10 90l321 381h201z" />
    <glyph glyph-name="guilsinglright" unicode="&#x203a;" horiz-adv-x="561" 
d="M551 764l-10 -90l-324 -379h-201l371 424l-211 426h184z" />
    <glyph glyph-name="fraction" unicode="&#x2044;" horiz-adv-x="333" 
d="M799 1475l-1045 -1475h-151l1044 1475h152z" />
    <glyph glyph-name="zerosuperior" unicode="&#x2070;" horiz-adv-x="724" 
d="M367 1071h186q55 0 65 47l72 416q6 33 -37 33h-186q-56 0 -66 -47l-73 -418q-4 -18 5 -24t34 -7zM571 934h-247q-74 0 -115 47t-29 111l82 469q12 69 62 105t125 36h245q72 0 112 -46t28 -112l-82 -469q-12 -69 -60 -105t-121 -36z" />
    <glyph glyph-name="foursuperior" unicode="&#x2074;" horiz-adv-x="763" 
d="M340 1223h235l50 268zM809 1096h-117l-24 -158h-142l27 158h-387l-8 106l512 498h131l-84 -477h117z" />
    <glyph glyph-name="fivesuperior" unicode="&#x2075;" horiz-adv-x="698" 
d="M532 1434h97q69 0 111 -48t30 -110l-37 -199q-12 -67 -62 -105t-122 -38h-236q-69 0 -113 47t-32 111l12 71h146l-11 -55q-5 -23 5 -31t38 -8h168q63 0 74 53l25 146q3 24 -7 32t-32 9h-72q-33 0 -106 -25l-50 -16l-135 43l68 389l532 -2l-24 -137h-391l-39 -209l53 41
q51 41 110 41z" />
    <glyph glyph-name="sixsuperior" unicode="&#x2076;" horiz-adv-x="712" 
d="M365 1065h167q61 0 72 55l23 127q4 23 -5 31t-36 8h-82q-33 0 -105 -22l-49 -17l-26 -141q-6 -41 41 -41zM629 1563h-160q-63 0 -72 -56l-32 -180l51 41q51 43 112 43h105q69 0 111 -48t30 -110l-33 -178q-12 -67 -59 -105t-121 -38h-235q-70 0 -114 47t-32 111l82 464
q12 66 64 106t123 40h225q70 0 112 -47t31 -111l-10 -61h-145l4 43q8 39 -37 39z" />
    <glyph glyph-name="sevensuperior" unicode="&#x2077;" horiz-adv-x="655" 
d="M797 1591l-498 -653h-170l479 625h-393l25 137h575z" />
    <glyph glyph-name="eightsuperior" unicode="&#x2078;" horiz-adv-x="712" 
d="M578 1264h-156q-74 0 -84 -54l-16 -104q-2 -20 6 -30t37 -9h178q59 0 67 55l19 103q4 23 -7 31t-44 8zM633 1571h-158q-66 0 -74 -55l-14 -84q-4 -25 4 -33t43 -8h154q63 0 71 55l17 86q6 39 -43 39zM563 934h-244q-69 0 -113 47t-32 111l23 127q12 74 100 112
q-63 43 -51 115l20 110q12 68 64 107t121 39h227q70 0 112 -48t29 -110l-20 -110q-12 -72 -92 -113q33 -14 51 -49t12 -68l-22 -127q-12 -67 -62 -105t-123 -38z" />
    <glyph glyph-name="ninesuperior" unicode="&#x2079;" horiz-adv-x="712" 
d="M467 1565q-61 0 -72 -54l-20 -122q-2 -19 6 -29t37 -10h82q43 0 104 22l49 19l25 135q2 22 -6 30t-37 9h-168zM377 1069h158q61 0 71 53l35 185l-51 -39q-53 -41 -119 -41h-98q-70 0 -114 47t-32 110l31 172q12 66 64 106t122 40h236q70 0 114 -47t31 -111l-84 -465
q-12 -67 -62 -105t-122 -38h-227q-70 0 -110 46t-32 112l11 61h141l-6 -47q-2 -23 6 -31t37 -8z" />
    <glyph glyph-name="Euro" unicode="&#x20ac;" horiz-adv-x="1343" 
d="M682 1300q-55 0 -94 -36t-51 -101l-33 -188h459l-25 -137h-459l-35 -195h459l-22 -135h-459l-39 -215q-23 -121 88 -121h360q57 0 95 35t51 100l27 146h196l-31 -177q-25 -136 -111 -210t-222 -74h-410q-131 0 -200 84t-44 217l39 217h-162l25 135h160l35 195h-162
l24 137h162l39 219q25 137 112 212t220 75l413 -2q133 0 198 -83t40 -216l-29 -162h-196l28 160q23 121 -88 120h-358z" />
    <glyph glyph-name="trademark" unicode="&#x2122;" horiz-adv-x="1509" 
d="M1565 1475l-129 -738h-103l101 566l-271 -451h-76l-112 451l-103 -566h-102l129 738h119l125 -482l295 482h127zM762 1372h-201l-110 -635h-111l111 635h-199l16 103h512z" />
    <glyph glyph-name="oneeighth" unicode="&#x215b;" horiz-adv-x="1488" 
d="M1176 324h-152q-76 0 -86 -54l-18 -104q-2 -23 6 -31t37 -8h176q61 0 69 55l19 103q4 23 -7 31t-44 8zM1231 631h-158q-61 0 -72 -56l-16 -83q-6 -20 4 -30t43 -11h154q63 0 74 55l14 86q4 23 -5 31t-38 8zM1159 -2h-244q-73 0 -113 47t-28 109l23 127q12 76 100 112
q-63 43 -51 115l18 110q12 66 64 106t123 40h225q70 0 112 -46t31 -112l-22 -112q-16 -72 -92 -111q33 -14 51 -49t12 -68l-25 -127q-12 -69 -61 -105t-123 -36zM1243 1475l-1046 -1475h-154l1047 1475h153zM221 715l107 612l-154 -49l21 121l188 78h113l-134 -762h-141z
" />
    <glyph glyph-name="threeeighths" unicode="&#x215c;" horiz-adv-x="1734" 
d="M1432 319h-152q-76 0 -86 -53l-18 -104q-4 -23 5 -31t38 -8h176q59 0 69 55l19 103q4 23 -7 31t-44 7zM1487 627h-158q-63 0 -72 -56l-16 -84q-6 -20 4 -30t43 -11h154q66 0 74 56l14 86q2 23 -6 31t-37 8zM1415 -6h-244q-73 0 -113 47t-28 109l23 126q12 76 100 113
q-63 43 -51 115l18 110q12 66 64 106t123 40h225q70 0 112 -46t31 -112l-22 -113q-16 -72 -92 -110q33 -14 51 -49t12 -68l-25 -127q-12 -69 -61 -105t-123 -36zM1499 1470l-1046 -1472h-154l1047 1472h153zM311 838h170q59 0 70 55l16 102q6 19 -5 29t-46 10h-172l23 127
h159q63 0 72 56l16 86q4 20 -5 29t-38 9h-149q-59 0 -72 -55l-8 -41h-141l14 84q12 68 63 107t121 39h219q70 -1 112 -49t30 -109l-21 -111q-12 -72 -90 -112q33 -14 49 -47t11 -66l-23 -127q-12 -68 -62 -106t-122 -37h-236q-70 0 -114 47t-31 110l12 70h146l-11 -61
q-2 -19 6 -29t37 -10z" />
    <glyph glyph-name="fiveeighths" unicode="&#x215d;" horiz-adv-x="1744" 
d="M1446 322h-154q-72 0 -82 -54l-18 -104q-4 -20 5 -30t38 -9h178q57 0 68 55l16 103q6 19 -5 29t-46 10zM1503 629h-160q-61 0 -69 -56l-17 -84q-5 -20 5 -30t43 -10h153q61 0 72 55l16 86q2 20 -6 30t-37 9zM1432 -4h-244q-70 0 -114 46t-32 110l25 127q16 76 98 112
q-68 41 -55 115l20 110q12 63 62 105q51 41 121 41h227q70 0 112 -45t31 -113l-14 -112q-8 -70 -94 -111q33 -14 51 -48t12 -69l-22 -127q-12 -69 -62 -105t-122 -36zM1507 1473l-1046 -1473h-154l1047 1473h153zM492 1208h96q70 0 112 -48t29 -109l-37 -199
q-12 -68 -62 -106t-122 -37h-236q-70 0 -114 47t-31 110l12 72h146l-11 -55q-4 -23 6 -31t37 -8h168q63 0 74 53l25 145q2 23 -7 32t-32 9h-72q-33 0 -106 -24l-50 -17l-135 43l68 390l532 -2l-24 -138h-391l-39 -209l53 41q51 41 111 41z" />
    <glyph glyph-name="seveneighths" unicode="&#x215e;" horiz-adv-x="1538" 
d="M1288 1475l-1046 -1475h-152l1047 1475h151zM754 1366l-498 -653h-170l479 624h-393l25 138h575zM1227 326h-156q-74 0 -84 -54l-16 -104q-4 -20 5 -30t38 -9h178q57 0 68 55l18 103q4 23 -7 31t-44 8zM1282 633h-158q-63 0 -73 -55l-15 -84q-4 -25 4 -33t43 -8h154
q61 0 72 55l16 86q6 39 -43 39zM1212 -2h-243q-70 0 -114 46t-32 110l23 127q12 74 100 112q-63 43 -51 115l20 110q11 68 63 107t122 39h227q69 0 111 -48t30 -110l-20 -110q-12 -72 -92 -113q33 -14 51 -49t12 -68l-22 -127q-11 -69 -61 -105t-124 -36z" />
    <glyph glyph-name="minus" unicode="&#x2212;" horiz-adv-x="1019" 
d="M178 846h768l-31 -176h-770z" />
    <glyph glyph-name="infinity" unicode="&#x221e;" horiz-adv-x="1673" 
d="M1341 971h-182q-57 0 -97 -37t-52 -107l-35 -192q-9 -59 15 -92t79 -33h182q57 0 95 38t51 105l37 193q25 125 -93 125zM438 512h180q60 0 98 38t50 105l35 193q20 125 -92 125h-183q-57 0 -95 -38t-50 -106l-35 -192q-21 -125 92 -125zM1239 342h-197q-121 0 -194 123
q-115 -123 -240 -123h-196q-127 0 -192 83t-42 214l39 223q23 133 111 207q90 74 215 74h196q121 0 197 -123q111 123 240 123l194 -2q127 0 192 -83t42 -214l-39 -223q-21 -131 -111 -205t-215 -74z" />
    <glyph glyph-name="notequal" unicode="&#x2260;" horiz-adv-x="1019" 
d="M692 862l-125 -192h348l-30 -181h-430l-133 -206h-158l133 206h-182l30 181h265l125 192h-355l31 180h438l123 193h158l-125 -193h176l-31 -180h-258z" />
    <glyph glyph-name="fi" unicode="&#xfb01;" horiz-adv-x="1265" 
d="M1206 1108l-194 -1106h-187l195 1106h186zM1255 1329h-206l36 209h205zM690 1536h211l-29 -160l-180 2q-53 0 -92 -40t-49 -97l-23 -133h299l-26 -156h-299l-168 -950h-187l168 950h-186l29 156h186l25 152q20 128 107 202t214 74z" />
    <glyph glyph-name="fl" unicode="&#xfb02;" horiz-adv-x="1259" 
d="M1094 1538h184l-270 -1536h-185zM690 1536h211l-29 -160l-180 2q-53 0 -92 -40t-49 -97l-23 -133h299l-26 -156h-299l-168 -950h-187l168 950h-186l29 156h186l25 152q20 128 107 202t214 74z" />
    <glyph glyph-name="Q.ss01" horiz-adv-x="1318" 
d="M614 1296q-53 0 -94 -36q-39 -37 -51 -101l-154 -868q-20 -119 88 -119h402q55 0 98 39t51 96l152 871q20 119 -92 118h-400zM815 -8h-131l-43 -248h-197l43 248h-120q-131 0 -200 84t-44 217l160 903q25 137 111 212t220 75l447 -4q133 0 202 -83t44 -216l-160 -904
q-25 -136 -111 -210t-221 -74z" />
    <glyph glyph-name="zero.subs" horiz-adv-x="724" 
d="M168 -74h186q55 0 66 47l74 414q2 19 -6 25t-31 6h-187q-53 0 -63 -47l-76 -414q-4 -19 6 -25t31 -6zM254 555h246q76 0 116 -46t27 -112l-84 -467q-12 -70 -60 -106t-120 -35l-250 -2q-74 0 -114 47t-27 111l82 467q25 143 184 143z" />
    <glyph glyph-name="one.subs" horiz-adv-x="444" 
d="M72 -205l106 611l-155 -50l20 121l188 78h115l-133 -760h-141z" />
    <glyph glyph-name="two.subs" horiz-adv-x="686" 
d="M246 555h221q70 0 112 -48t29 -110l-20 -116q-18 -102 -197 -160l-209 -66q-49 -14 -55 -41l-16 -86h417l-22 -137h-559l41 240q18 102 196 159l209 66q51 14 58 43l16 88q4 23 -5 31t-38 8h-152q-63 0 -73 -55l-6 -43h-142l15 84q12 63 60 103t120 40z" />
    <glyph glyph-name="three.subs" horiz-adv-x="690" 
d="M164 -84h170q59 0 69 55l19 101q4 22 -7 30t-46 9h-174l22 127h160q66 0 74 55l14 86q2 23 -6 31t-37 8h-152q-59 0 -71 -56l-9 -40h-141l14 84q13 66 63 106t120 39h219q70 0 113 -46t30 -112l-18 -110q-12 -70 -92 -111q33 -14 49 -47t10 -66l-22 -125
q-13 -68 -63 -106t-122 -37h-235q-70 0 -113 48t-31 110l15 67h141l-6 -61q-2 -19 6 -29t37 -10z" />
    <glyph glyph-name="four.subs" horiz-adv-x="763" 
d="M150 76h235l47 268zM618 -49h-116l-27 -158h-141l26 158h-385l-8 104l510 498h131l-84 -477h117z" />
    <glyph glyph-name="five.subs" horiz-adv-x="698" 
d="M342 289h94q70 0 112 -48t30 -110l-35 -197q-11 -68 -63 -106t-122 -39h-235q-70 0 -113 48t-30 110l14 69h141l-10 -53q-2 -19 6 -29t35 -10h170q59 0 70 53l26 144q2 23 -7 32t-34 9h-69q-35 0 -105 -25l-49 -16l-137 43l67 389h535l-25 -137h-391l-39 -209l51 41
q51 41 113 41z" />
    <glyph glyph-name="six.subs" horiz-adv-x="712" 
d="M178 -80h170q57 0 68 55l22 125q4 23 -7 31t-38 8h-82q-35 0 -102 -22l-51 -17l-21 -139q-6 -41 41 -41zM436 416h-160q-59 0 -67 -56l-35 -180l53 41q55 43 111 43h104q70 0 112 -48t30 -110l-31 -176q-12 -68 -62 -106t-122 -37h-236q-70 0 -113 48t-30 110l82 463
q12 68 63 106t121 39h225q70 0 113 -47t31 -111l-11 -61h-143l2 43q8 39 -37 39z" />
    <glyph glyph-name="seven.subs" horiz-adv-x="655" 
d="M606 444l-497 -651h-170l477 623h-393l24 137h576z" />
    <glyph glyph-name="eight.subs" horiz-adv-x="712" 
d="M387 115h-156q-72 0 -81 -54l-19 -102q-4 -19 5 -29t38 -10h178q61 0 70 55l16 101q6 23 -5 31t-46 8zM446 422h-161q-59 0 -68 -55l-16 -84q-6 -21 4 -31t43 -10h153q61 0 72 55l16 86q2 23 -6 31t-37 8zM375 -211h-244q-70 0 -113 48t-30 110l22 125q12 74 99 112
q-68 41 -56 115l21 111q12 66 62 106t120 39h227q70 0 112 -45t32 -113l-15 -112q-8 -70 -94 -111q33 -14 51 -49t13 -68l-23 -125q-12 -68 -62 -106t-122 -37z" />
    <glyph glyph-name="nine.subs" horiz-adv-x="712" 
d="M442 420h-170q-57 0 -67 -53l-23 -123q-6 -39 43 -39h82q47 0 105 22l49 19l18 135q8 39 -37 39zM184 -74h160q57 0 68 54l34 182l-51 -39q-55 -41 -119 -41h-98q-70 0 -112 48t-29 110l31 172q12 68 63 106t121 39h235q70 0 113 -47t31 -111l-82 -462q-11 -68 -63 -107
t-121 -39h-228q-71 0 -111 47t-28 111l10 59h142l-9 -43q-2 -23 6 -31t37 -8z" />
    <glyph glyph-name="zero.tf" 
d="M412 172h358q57 0 95 35t50 100l154 869q20 119 -88 118h-358q-53 0 -93 -34t-51 -101l-155 -868q-20 -119 88 -119zM623 1481h409q133 0 198 -83t40 -216l-158 -903q-25 -135 -112 -210t-222 -75l-409 -4q-133 0 -198 83t-40 218l158 903q25 135 112 211q88 76 222 76z
" />
    <glyph glyph-name="one.tf" 
d="M995 0h-876l31 182h352l194 1104l-370 -102l34 188l367 103h199l-228 -1293h330z" />
    <glyph glyph-name="two.tf" 
d="M625 1481h368q131 0 199 -86t45 -219l-37 -213q-20 -119 -110 -185q-53 -41 -236 -116l-381 -156q-57 -25 -73 -32q-44 -19 -58 -79l-39 -215h768l-33 -180h-962l69 393q14 72 39 114q40 68 174 136q29 16 134 57l382 158q66 26 98 52t38 69l34 197q20 123 -92 122h-313
q-57 0 -97 -36t-55 -101l-22 -100h-197l23 135q20 129 110 207t224 78z" />
    <glyph glyph-name="three.tf" 
d="M758 172q125 0 149 137l43 238q12 63 -14 92t-100 29h-338l30 176h326q76 0 111 32t47 105l35 197q13 61 -7 91t-82 29h-321q-123 0 -150 -137l-20 -102h-197l25 135q25 135 113 211t219 76h374q131 0 199 -86t43 -217l-37 -209q-25 -145 -166 -221q59 -23 89 -82
t18 -140l-43 -250q-23 -132 -111 -208t-221 -76h-407q-133 0 -199 84t-43 219l20 119h197l-27 -121q-30 -121 90 -121h355z" />
    <glyph glyph-name="four.tf" 
d="M317 522h482l121 670zM1165 344h-204l-60 -344h-194l59 344h-707l2 150l889 981h209l-168 -953h207z" />
    <glyph glyph-name="five.tf" 
d="M770 954h164q126 0 194 -83t46 -214l-68 -383q-25 -134 -112 -208t-222 -74h-387q-133 0 -201 86t-43 217l23 125h196l-22 -123q-23 -123 92 -123h332q55 0 97 36t54 103l62 344q20 125 -98 125h-138q-104 0 -221 -61l-98 -51l-187 59l129 746h924l-33 -183l-723 -4
l-88 -489l95 69q115 86 233 86z" />
    <glyph glyph-name="six.tf" 
d="M428 170h328q57 0 99 36t54 103l54 305q20 123 -95 123h-147q-94 0 -221 -63l-101 -51l-63 -330q-25 -123 92 -123zM952 1296h-309q-57 0 -96 -34t-51 -103l-74 -397l110 80q102 76 220 76h176q124 0 192 -83t45 -214l-61 -345q-25 -136 -112 -210t-218 -74h-385
q-133 0 -201 86t-43 217l158 901q25 131 115 209t221 78h365q132 0 198 -84t43 -219l-18 -113h-197l14 104q18 125 -92 125z" />
    <glyph glyph-name="seven.tf" 
d="M1294 1333l-895 -1333h-229l862 1292h-786l30 183h1039z" />
    <glyph glyph-name="eight.tf" 
d="M416 172h356q127 0 152 137l43 238q13 61 -17 91t-106 30l-301 -2q-152 0 -176 -138l-41 -235q-12 -59 8 -90t82 -31zM866 842q76 0 112 32t48 105l35 197q24 120 -94 120l-324 2q-125 0 -149 -137l-37 -196q-13 -74 9 -99t97 -24h303zM780 -10h-411q-133 0 -199 84
t-43 219l43 248q12 74 62 133t124 88q-115 76 -90 223l37 211q25 135 113 211t219 76h379q128 0 196 -85t45 -218l-36 -213q-25 -145 -172 -222q59 -23 89 -81t17 -140l-43 -250q-20 -132 -110 -208t-220 -76z" />
    <glyph glyph-name="nine.tf" 
d="M963 1294h-328q-57 0 -98 -35t-54 -102l-51 -285q-20 -125 94 -124h150q98 0 221 61l102 51l56 311q23 123 -92 123zM442 170h310q123 0 147 139l78 418l-96 -70q-119 -86 -234 -86h-176q-125 0 -193 83t-45 214l58 324q25 135 113 211t217 76h385q132 0 200 -87t43 -216
l-157 -902q-25 -134 -112 -208t-222 -74h-365q-133 0 -199 84t-42 219l18 113h197l-17 -113q-18 -125 92 -125z" />
    <glyph glyph-name="zero.dnom" horiz-adv-x="724" 
d="M201 133h186q55 0 66 47l71 416q6 33 -37 33h-186q-55 0 -65 -47l-74 -418q-2 -18 6 -24t33 -7zM158 -2q-76 0 -116 46t-28 110l82 469q12 69 62 105t125 36h245q72 0 112 -46t28 -112l-82 -469q-24 -139 -180 -139h-248z" />
    <glyph glyph-name="one.dnom" horiz-adv-x="444" 
d="M96 0l107 612l-154 -49l21 121l188 78h113l-133 -762h-142z" />
    <glyph glyph-name="two.dnom" horiz-adv-x="686" 
d="M276 764h222q70 0 110 -46t31 -112l-18 -117q-14 -100 -197 -159l-209 -66q-51 -14 -55 -41l-17 -88h416l-22 -135h-560l39 240q14 100 199 159l209 66q49 14 55 41l19 88q2 20 -6 30t-37 9h-152q-62 0 -72 -55l-12 -41h-141l14 84q12 67 62 105t122 38z" />
    <glyph glyph-name="three.dnom" horiz-adv-x="690" 
d="M188 125h170q59 0 70 55l16 103q6 20 -5 29t-46 10h-172l23 127h159q63 0 72 55l17 86q4 20 -6 30t-37 9h-150q-61 0 -74 -56l-8 -41h-141l14 84q12 68 64 107t120 39h220q70 0 112 -48t29 -110l-21 -110q-12 -72 -90 -113q33 -14 49 -47t11 -66l-23 -127
q-12 -69 -61 -105t-123 -36h-236q-69 0 -111 44t-32 112l10 69h146l-9 -61q-1 -20 7 -30t36 -9z" />
    <glyph glyph-name="four.dnom" horiz-adv-x="763" 
d="M174 285h236l49 268zM643 158h-117l-24 -158h-142l27 158h-387l-6 106l510 498h131l-84 -477h117z" />
    <glyph glyph-name="five.dnom" horiz-adv-x="698" 
d="M367 496h96q69 0 111 -48t30 -110l-37 -199q-12 -69 -61 -105t-123 -36h-236q-69 0 -113 46t-32 110l12 71h146l-10 -55q-2 -23 6 -31t37 -8h167q63 0 74 53l25 146q4 24 -6 32t-33 9h-72q-33 0 -106 -25l-49 -16l-136 43l68 389l532 -2l-24 -137h-391l-39 -209l53 41
q51 41 111 41z" />
    <glyph glyph-name="six.dnom" horiz-adv-x="712" 
d="M203 131h168q61 0 71 53l23 127q2 20 -6 31q-10 10 -35 10h-82q-43 0 -104 -22l-50 -19l-28 -141q-4 -23 5 -31t38 -8zM467 627h-160q-61 0 -71 -54l-33 -180l51 41q53 41 113 41h104q70 0 112 -48t29 -110l-32 -178q-12 -69 -62 -105t-123 -36h-235q-70 0 -114 46
t-32 110l82 464q12 66 64 106t123 40h225q70 0 113 -46t30 -112l-10 -61h-145l8 43q6 39 -37 39z" />
    <glyph glyph-name="seven.dnom" horiz-adv-x="655" 
d="M631 653l-498 -653h-168l477 625h-393l25 137h575z" />
    <glyph glyph-name="eight.dnom" horiz-adv-x="712" 
d="M410 326h-156q-74 0 -84 -54l-16 -104q-2 -20 6 -30t37 -9h178q59 0 67 55l19 103q4 23 -7 31t-44 8zM467 633h-160q-61 0 -71 -55l-15 -84q-4 -25 4 -33t43 -8h154q61 0 72 55l16 86q6 39 -43 39zM397 -2h-243q-70 0 -114 46t-32 110l23 127q12 74 100 112
q-63 43 -51 115l20 110q12 68 64 107t121 39h227q70 0 112 -48t29 -110l-20 -110q-12 -72 -92 -113q33 -14 51 -49t12 -68l-22 -127q-12 -69 -62 -105t-123 -36z" />
    <glyph glyph-name="nine.dnom" horiz-adv-x="712" 
d="M301 627q-61 0 -72 -54l-20 -122q-4 -19 5 -29t38 -10h82q43 0 104 22l49 19l25 135q4 22 -5 30t-38 9h-168zM211 131h158q61 0 71 53l35 185l-51 -39q-53 -41 -119 -41h-98q-70 0 -114 47t-32 110l31 172q12 66 64 106t123 40h235q70 0 114 -47t31 -111l-84 -465
q-12 -69 -61 -105t-123 -36h-227q-72 0 -112 45t-29 111l10 61h141l-6 -47q-4 -23 5 -31t38 -8z" />
    <glyph glyph-name="zero.numr" horiz-adv-x="724" 
d="M326 846h186q55 0 66 47l71 416q6 33 -37 32h-186q-56 0 -66 -47l-73 -417q-4 -19 5 -25t34 -6zM530 709h-247q-74 0 -115 47t-29 110l82 469q11 68 61 105t126 37h245q72 0 112 -46t28 -112l-82 -469q-13 -70 -61 -106t-120 -35z" />
    <glyph glyph-name="one.numr" horiz-adv-x="444" 
d="M221 715l107 612l-154 -49l21 121l188 78h113l-134 -762h-141z" />
    <glyph glyph-name="two.numr" horiz-adv-x="686" 
d="M401 1477h222q71 0 111 -46t30 -112l-19 -117q-16 -100 -196 -160l-209 -65q-51 -14 -55 -41l-17 -88h416l-22 -137h-562l41 241q18 102 199 160l209 66q49 14 55 41l19 88q5 20 -5 29t-38 10h-152q-62 -1 -74 -56l-10 -41h-141l14 84q13 68 63 106t121 38z" />
    <glyph glyph-name="three.numr" horiz-adv-x="690" 
d="M311 838h170q59 0 70 55l16 102q6 19 -5 29t-46 10h-172l23 127h159q63 0 72 56l16 86q4 20 -5 29t-38 9h-149q-59 0 -72 -55l-8 -41h-141l14 84q12 68 63 107t121 39h219q70 -1 112 -49t30 -109l-21 -111q-12 -72 -90 -112q33 -14 49 -47t11 -66l-23 -127
q-12 -68 -62 -106t-122 -37h-236q-70 0 -114 47t-31 110l12 70h146l-11 -61q-2 -19 6 -29t37 -10z" />
    <glyph glyph-name="four.numr" horiz-adv-x="763" 
d="M299 997h236l49 269zM768 870h-117l-24 -157h-142l27 157h-387l-8 107l512 498h131l-84 -478h117z" />
    <glyph glyph-name="five.numr" horiz-adv-x="698" 
d="M492 1208h96q70 0 112 -48t29 -109l-37 -199q-12 -68 -62 -106t-122 -37h-236q-70 0 -114 47t-31 110l12 72h146l-11 -55q-4 -23 6 -31t37 -8h168q63 0 74 53l25 145q2 23 -7 32t-32 9h-72q-33 0 -106 -24l-50 -17l-135 43l68 390l532 -2l-24 -138h-391l-39 -209l53 41
q51 41 111 41z" />
    <glyph glyph-name="six.numr" horiz-adv-x="712" 
d="M324 840h168q61 0 71 55l23 127q4 23 -5 31t-36 8h-82q-33 0 -105 -23l-49 -16l-26 -141q-6 -41 41 -41zM588 1337h-160q-63 0 -72 -55l-32 -180l51 41q51 43 112 43h105q70 0 112 -48t29 -110l-33 -178q-12 -66 -59 -105t-121 -38h-235q-70 0 -114 47t-32 110l82 465
q13 66 65 106t122 40h225q71 1 113 -47t30 -111l-10 -62h-145l4 43q8 39 -37 39z" />
    <glyph glyph-name="seven.numr" horiz-adv-x="655" 
d="M756 1366l-498 -653h-170l479 624h-393l25 138h575z" />
    <glyph glyph-name="eight.numr" horiz-adv-x="712" 
d="M537 1038h-156q-74 0 -84 -53l-16 -104q-2 -19 6 -29t37 -10h178q59 0 67 55l19 102q4 23 -7 31t-44 8zM592 1346h-158q-66 0 -74 -56l-14 -84q-4 -24 4 -32t43 -9h154q63 0 71 56l17 86q6 39 -43 39zM522 709h-243q-70 0 -114 47t-32 110l23 127q12 74 100 113
q-63 43 -51 115l20 110q11 68 63 107t122 39h227q69 -1 111 -49t30 -109l-20 -111q-12 -72 -92 -112q33 -14 51 -49t12 -68l-22 -127q-13 -68 -63 -106t-122 -37z" />
    <glyph glyph-name="nine.numr" horiz-adv-x="712" 
d="M594 1339h-168q-61 0 -72 -53l-20 -123q-2 -20 6 -29t37 -10h82q43 0 104 23l49 18l25 135q2 23 -6 31t-37 8zM336 844h158q61 0 71 53l35 184l-51 -39q-53 -41 -119 -41h-98q-70 -1 -114 47t-32 111l31 172q13 66 65 106t121 40h236q70 0 114 -47t31 -111l-84 -465
q-12 -68 -62 -106t-122 -37h-227q-70 0 -110 46t-32 111l11 62h141l-6 -47q-2 -23 6 -31t37 -8z" />
    <glyph glyph-name="numbersign.tf" 
d="M883 926h-248l-164 -353h248zM1075 926l-164 -353h197l-29 -170h-248l-188 -403h-192l188 403h-248l-188 -403h-193l189 403h-187l31 170h236l163 353h-198l30 170h246l178 379h193l-176 -379h246l178 379h192l-176 -379h184l-28 -170h-236z" />
    <glyph glyph-name="florin.tf" 
d="M963 1292q-53 0 -93 -37t-51 -100l-43 -242h307l-30 -174h-308l-79 -456q-25 -139 -109 -211t-219 -72h-191l33 180h152q53 0 93 38t52 99l74 424h-258l31 174h258l49 275q25 139 109 212t218 73h244l-33 -183h-206z" />
    <glyph glyph-name="cent.tf" 
d="M475 371h96l134 737l-84 -2q-57 0 -101 -40t-51 -97l-84 -473q-20 -125 90 -125zM936 1108h-90l-133 -737h80q53 0 96 39t55 100l12 65h183l-15 -92q-20 -133 -111 -208t-222 -74h-97l-35 -201h-159l35 201h-93q-130 0 -196 84t-41 219l86 495q25 135 112 209
q88 74 222 74h102l33 191h160l-33 -191h86q133 0 196 -81t41 -218l-12 -76h-182l12 76q20 125 -92 125z" />
    <glyph glyph-name="currency.tf" 
d="M858 1034h-254q-57 0 -98 -39t-51 -98l-54 -305q-20 -125 93 -125l249 -2q51 0 97 42t55 97l51 305q20 125 -88 125zM741 303h-274q-80 0 -135 31l-187 -166l-102 123l188 166q-16 63 -4 145l54 318q16 84 49 139l-127 151l131 117l127 -153q63 31 149 30h275
q84 0 141 -33l180 162l103 -123l-187 -163q18 -68 4 -142l-57 -319q-12 -80 -51 -142l129 -153l-131 -117l-129 158q-70 -29 -146 -29z" />
    <glyph glyph-name="dollar.tf" 
d="M762 162q121 0 145 139l31 180q18 86 -27 107q-18 10 -61 18l-105 25l-83 -469h100zM719 1298l-96 -2q-53 0 -95 -36q-39 -37 -51 -101l-26 -155q-13 -60 11 -88t79 -39l100 -25zM369 -10q-133 0 -198 83t-40 218l27 151h194l-28 -149q-25 -125 90 -125h110l86 502
l-110 32q-281 84 -240 299l35 193q25 137 112 212t220 75h121l32 186h164l-33 -186h95q133 0 196 -81t41 -218l-22 -133h-195l25 131q25 125 -86 125h-95l-84 -480l113 -37q150 -49 201 -102q68 -70 43 -197l-39 -215q-25 -137 -111 -211t-221 -73h-127l-35 -187h-164
l35 187h-112z" />
    <glyph glyph-name="Euro.tf" 
d="M666 1298q-54 0 -94 -38t-48 -99l-32 -188h442l-25 -137h-442l-35 -195h445l-25 -135h-444l-37 -215q-23 -121 88 -121h344q57 0 96 40t49 97l27 146h196l-30 -177q-25 -136 -112 -210t-222 -74h-395q-133 0 -198 83t-40 218l39 217h-162l23 135h162l34 195h-161l24 137
h160l39 219q25 135 112 211q89 76 222 76l391 -4q133 0 197 -83t40 -216l-28 -162h-197l31 160q23 121 -90 120h-344z" />
    <glyph glyph-name="sterling.tf" 
d="M702 1303q-123 0 -147 -138l-63 -362h382l-32 -180h-381l-78 -441h707l-33 -182h-1065l31 182h98q29 0 51 22t27 48l65 371h-166l33 180h164l70 393q25 139 110 213q86 74 221 74l320 2q137 0 202 -83t39 -220l-26 -158h-197l29 158q24 121 -92 121h-269z" />
    <glyph glyph-name="yen.tf" 
d="M840 692h252l-25 -133h-319l-9 -12l-18 -98h328l-23 -134h-330l-55 -315h-197l56 315h-328l25 134h327l19 98l-4 12h-324l23 133h254l-267 783h203l244 -715l489 715h221z" />
    </font>
</defs>
</svg>
