<?xml version="1.0" standalone="no"?>
<!DOCTYPE svg PUBLIC "-//W3C//DTD SVG 1.1//EN" "http://www.w3.org/Graphics/SVG/1.1/DTD/svg11.dtd" >
<svg xmlns="http://www.w3.org/2000/svg">
<metadata>
Created by FontPrep 20130207 at Wed Jan 13 07:20:27 2016
 By Matthew Higley
Copyright A~A^(c) 2013 by Mattox Shuler. All rights reserved.
</metadata>
<defs>
<font id="174ac24e5a902186995f6ac44ef39892" horiz-adv-x='1024' >
  <font-face 
    font-family="Industry-LightItalic"
    font-weight="300"
    font-style="italic"
    font-stretch="normal"
    units-per-em="2048"
    panose-1="0 0 0 0 0 0 0 0 0 0"
    ascent="1624"
    descent="-424"
    x-height="1106"
    cap-height="1475"
    bbox="-397 -547 2056 1954"
    underline-thickness="102"
    underline-position="-100"
    slope="-56"
    unicode-range="U+0020-FB02"
  />
<missing-glyph horiz-adv-x="1441" 
 />
    <glyph glyph-name=".notdef" horiz-adv-x="1441" 
 />
    <glyph glyph-name=".null" horiz-adv-x="0" 
 />
    <glyph glyph-name="nonmarkingreturn" horiz-adv-x="681" 
 />
    <glyph glyph-name="space" unicode=" " horiz-adv-x="530" 
 />
    <glyph glyph-name="exclam" unicode="!" horiz-adv-x="608" 
d="M270 0h-125l27 158h125zM295 375h-43l151 1100h125z" />
    <glyph glyph-name="quotedbl" unicode="&#x22;" horiz-adv-x="712" 
d="M713 1475l-113 -449h-53l43 449h123zM444 1475l-112 -449h-53l43 449h122z" />
    <glyph glyph-name="numbersign" unicode="#" horiz-adv-x="1503" 
d="M1096 963h-430l-187 -426h430zM1190 963l-186 -426h256l-15 -76h-276l-201 -461h-92l201 461h-433l-200 -461h-92l200 461h-268l14 76h287l186 426h-260l15 75h278l191 437h94l-191 -437h430l191 437h94l-190 -437h264l-14 -75h-283z" />
    <glyph glyph-name="dollar" unicode="$" horiz-adv-x="1259" 
d="M995 457q6 35 6 74t-16 57l-18 22q-6 8 -29 18t-33 13l-188 51l-109 -616h127q94 0 156 58t76 155zM477 860q2 0 12 -3t19 -5l147 -41l103 584l-133 -4q-97 -5 -157 -59t-79 -154l-24 -140q-11 -52 2 -90q14 -39 30 -51l23 -16q10 -8 32 -14q22 -7 25 -7zM737 -6h-133
l-31 -174h-94l31 174h-127q-139 0 -203 78q-63 78 -39 221l23 127h100l-24 -135q-37 -205 149 -205h139l113 639l-123 35q-98 26 -148 52t-78 86t-9 161l24 137q25 139 110 216t224 77h131l31 174h94l-31 -174h105q139 0 204 -81t39 -220l-18 -105h-100l20 113
q37 205 -149 205h-115l-107 -607l119 -32q146 -40 204 -98t34 -201l-31 -172q-25 -139 -109 -215t-225 -76z" />
    <glyph glyph-name="percent" unicode="%" horiz-adv-x="1284" 
d="M1036 471h-164q-18 0 -35 -14t-20 -33l-53 -305q-6 -43 29 -43h163q16 0 32 15t20 38l53 301q6 41 -25 41zM870 563h179q53 0 86 -43t24 -94l-55 -311q-10 -55 -51 -90t-95 -35h-180q-53 0 -86 42t-24 93l55 311q10 53 53 90t94 37zM563 1393h-164q-19 -1 -37 -15
t-20 -32l-53 -306q-6 -43 30 -43h164q17 0 31 17t16 37l56 301q6 41 -23 41zM1243 1477l-1048 -1475h-97l1045 1475h100zM481 911h-178q-51 0 -85 40t-25 93l55 312q10 53 53 90t94 37l176 2q51 0 85 -43t26 -94l-55 -312q-7 -51 -51 -88t-95 -37z" />
    <glyph glyph-name="ampersand" unicode="&#x26;" horiz-adv-x="1320" 
d="M512 719q-203 0 -236 -180l-45 -250q-37 -205 154 -205h342q93 0 153 56t78 157l74 422h-520zM721 -2h-342q-139 0 -203 78q-63 78 -39 221l43 250q14 82 70 140t117 75q-47 29 -78 85t-17 138l37 205q25 139 110 216t226 77h307q137 0 203 -81t41 -220l-20 -119h-99
l23 127q37 205 -154 205h-307q-92 -1 -157 -59t-79 -154l-34 -205q-19 -100 9 -137t140 -37h797l-17 -88l-168 4l-75 -430q-25 -139 -109 -215t-225 -76z" />
    <glyph glyph-name="quotesingle" unicode="'" horiz-adv-x="444" 
d="M444 1475l-112 -449h-53l43 449h122z" />
    <glyph glyph-name="parenleft" unicode="(" horiz-adv-x="663" 
d="M690 1518q-94 0 -153 -56t-78 -157l-217 -1229q-14 -92 22 -148q37 -55 129 -55h35l-14 -88h-27q-137 0 -203 80q-63 80 -39 219l217 1229q25 139 110 216t226 77h35l-16 -88h-27z" />
    <glyph glyph-name="parenright" unicode=")" horiz-adv-x="665" 
d="M334 1518h-23l17 88h34q136 0 198 -76t38 -217l-217 -1229q-25 -139 -117 -219t-231 -80h-27l14 88h35q186 0 224 203l217 1229q18 97 -26 155t-136 58z" />
    <glyph glyph-name="asterisk" unicode="*" horiz-adv-x="794" 
d="M686 887l-80 -53l-110 253l-207 -256l-66 56l230 233l-271 80l43 86l254 -112l33 301h92l-69 -301l292 110l11 -88l-299 -76z" />
    <glyph glyph-name="plus" unicode="+" horiz-adv-x="1019" 
d="M438 373l60 344h-330l14 82h330l61 344h80l-61 -344h332l-15 -82h-331l-60 -344h-80z" />
    <glyph glyph-name="comma" unicode="," horiz-adv-x="430" 
d="M209 160l-23 -129q-10 -55 -84 -164l-73 -109h-52l142 242h-64l27 160h127z" />
    <glyph glyph-name="hyphen" unicode="-" horiz-adv-x="823" 
d="M719 725l-17 -96h-552l16 96h553z" />
    <glyph glyph-name="period" unicode="." horiz-adv-x="432" 
d="M184 0h-129l27 160h129z" />
    <glyph glyph-name="slash" unicode="/" horiz-adv-x="892" 
d="M1032 1618l-1014 -1759h-90l1012 1759h92z" />
    <glyph glyph-name="zero" unicode="0" horiz-adv-x="1286" 
d="M397 80h367q92 0 154 56t81 157l158 897q37 205 -153 205h-367q-92 -1 -155 -57t-81 -156l-157 -897q-37 -205 153 -205zM758 -6h-369q-139 0 -203 78q-63 78 -39 221l158 897q25 139 110 216t226 77h367q140 0 204 -81t39 -220l-157 -897q-25 -139 -109 -215t-227 -76z
" />
    <glyph glyph-name="one" unicode="1" horiz-adv-x="667" 
d="M248 0l241 1374l-256 -100l17 94l262 107h92l-258 -1475h-98z" />
    <glyph glyph-name="two" unicode="2" horiz-adv-x="1198" 
d="M614 1483h312q141 0 203 -79t38 -220l-32 -197q-5 -59 -31 -92q-14 -23 -24 -36t-39 -36t-35 -29t-43 -24l-50 -27q-29 -14 -61 -28l-530 -260q-16 -8 -54 -35q-58 -42 -69 -119l-41 -221h813l-15 -86h-911l55 328q2 6 8 38t22 53q18 21 26 37t36 36q28 22 33 26
q4 4 45 25l49 24q12 0 62 29l453 221q136 67 170 125q20 35 24 68l35 184q37 203 -148 203h-311q-92 -1 -156 -59t-77 -150l-13 -92h-98l19 102q51 291 335 291z" />
    <glyph glyph-name="three" unicode="3" horiz-adv-x="1220" 
d="M354 80h361q91 0 155 57t78 152l43 254q29 170 -160 170h-370l16 88h363q106 0 152 43t61 137l37 209q37 203 -150 203h-328q-92 1 -153 -55t-80 -154l-17 -94h-98l19 102q51 291 335 291h328q142 0 202 -76t36 -223l-35 -207q-25 -150 -172 -219q53 -12 90 -77t23 -146
l-46 -252q-51 -289 -335 -289h-361q-140 0 -202 75t-37 222l16 94h98l-18 -102q-37 -203 149 -203z" />
    <glyph glyph-name="four" unicode="4" horiz-adv-x="1226" 
d="M168 481h649l156 889zM1116 393h-213l-67 -393h-103l68 393h-768l12 80l907 1002h142l-174 -994h213z" />
    <glyph glyph-name="five" unicode="5" horiz-adv-x="1171" 
d="M856 954q134 0 196 -76t38 -210l-68 -383q-51 -289 -336 -289h-319q-139 0 -201 75t-39 222l18 104h99l-21 -112q-37 -203 150 -203h319q92 0 154 55q61 55 80 154l67 383q36 192 -145 192h-166q-104 0 -227 -67l-144 -78l-94 29l127 725h873l-15 -89h-774l-104 -595
l143 98q94 66 223 65h166z" />
    <glyph glyph-name="six" unicode="6" horiz-adv-x="1228" 
d="M401 80h320q92 0 153 55t80 154l58 329q33 203 -154 203h-168q-102 0 -227 -67l-146 -78l-65 -393q-35 -203 149 -203zM936 1393h-297q-91 1 -153 -55t-80 -154l-76 -434l145 98q92 63 221 63h168q136 1 200 -75t40 -224l-57 -329q-51 -289 -336 -289h-320
q-139 0 -201 75t-38 222l157 901q51 291 336 291h297q136 0 200 -76t40 -223l-19 -105h-98l20 111q37 203 -149 203z" />
    <glyph glyph-name="seven" unicode="7" horiz-adv-x="1083" 
d="M1155 1419l-895 -1419h-113l877 1386h-807l14 89h930z" />
    <glyph glyph-name="eight" unicode="8" horiz-adv-x="1265" 
d="M381 84h379q92 0 153 55t80 154l43 246q16 86 -18 129q-35 43 -144 43l-364 4q-205 2 -236 -183l-43 -245q-37 -203 150 -203zM516 799h363q106 0 155 43t64 133l37 215q32 203 -150 203l-344 2q-91 1 -153 -55t-80 -154l-37 -215q-18 -96 10 -135q29 -37 135 -37z
M754 -6h-379q-139 0 -201 75t-39 222l43 246q14 82 70 143t119 78q-119 68 -95 221l37 213q49 291 336 291h346q137 0 201 -76t39 -223l-37 -215q-29 -156 -174 -219q53 -12 90 -74t23 -148l-43 -245q-51 -289 -336 -289z" />
    <glyph glyph-name="nine" unicode="9" horiz-adv-x="1226" 
d="M948 1395h-319q-92 1 -156 -57t-78 -152l-51 -301q-33 -203 148 -203h165q94 0 226 68l149 77l66 365q37 203 -150 203zM408 82h297q92 0 153 55t80 154l82 465l-150 -99q-102 -66 -221 -65h-166q-139 0 -200 77t-37 222l53 301q51 291 336 291h319q136 0 200 -76
t40 -223l-158 -901q-51 -289 -336 -289h-297q-285 0 -237 297l18 104h99l-25 -110q-20 -98 18 -151q39 -52 132 -52z" />
    <glyph glyph-name="colon" unicode=":" horiz-adv-x="432" 
d="M184 0h-129l27 160h129zM350 946h-129l29 160h129z" />
    <glyph glyph-name="semicolon" unicode=";" horiz-adv-x="430" 
d="M209 160l-23 -129q-10 -55 -84 -164l-73 -109h-52l142 242h-64l27 160h127zM348 946h-127l29 160h127z" />
    <glyph glyph-name="less" unicode="&#x3c;" horiz-adv-x="1019" 
d="M158 686l18 115l797 360l-17 -98l-731 -320l617 -331l-15 -84z" />
    <glyph glyph-name="equal" unicode="=" horiz-adv-x="1021" 
d="M899 651l-16 -92h-742l17 92h741zM954 973l-16 -92h-741l16 92h741z" />
    <glyph glyph-name="greater" unicode="&#x3e;" horiz-adv-x="1019" 
d="M864 743l-618 336l14 82l670 -360l-19 -115l-796 -358l16 98z" />
    <glyph glyph-name="question" unicode="?" horiz-adv-x="1114" 
d="M444 197l-34 -197h-99l35 197h98zM872 1395h-358q-92 -1 -154 -57t-81 -156l-23 -127h-98l24 135q25 139 110 216t226 77l359 -2q139 0 203 -81t40 -220l-18 -105q-25 -145 -154 -225q-70 -41 -190 -92l-45 -19q-68 -27 -97 -42q-28 -15 -64 -53t-44 -89l-33 -190h-98
l35 198q12 78 48 126t82 73t58 31l199 86q155 64 185 129q15 33 24 77l18 105q37 205 -154 205z" />
    <glyph glyph-name="at" unicode="@" horiz-adv-x="1828" 
d="M928 969q-108 0 -180 -64t-91 -170l-59 -336q-39 -223 178 -223h47q129 0 228 64l137 88l86 487l-96 94q-61 59 -203 60h-47zM674 1483h854q139 0 204 -81t40 -220l-136 -774q-24 -138 -114 -216t-230 -77h-108l-10 153l-134 -98q-88 -63 -223 -64h-47q-140 0 -202 78
t-38 224l60 335q26 139 110 217t226 76h47q131 0 205 -67l102 -95l66 154h30l-147 -840h69q225 0 265 228l137 774q20 113 -23 174t-149 61h-852q-110 0 -180 -63t-90 -178l-216 -1223q-42 -235 175 -235h1019l-10 -60h-1012q-137 0 -200 78t-39 223l215 1223
q25 139 110 216t226 77z" />
    <glyph glyph-name="A" unicode="A" horiz-adv-x="1310" 
d="M952 551l-151 825l-432 -825h583zM969 463h-647l-242 -463h-105l787 1475h110l275 -1475h-94z" />
    <glyph glyph-name="B" unicode="B" horiz-adv-x="1318" 
d="M786 84q94 0 154 56t78 157l43 235q12 70 -25 122t-143 53h-565l-111 -623h569zM344 797l553 -2q109 0 161 45t66 135l35 205q33 205 -153 204h-557zM780 0h-671l258 1475l645 -2q140 0 204 -81t39 -221l-36 -202q-29 -156 -175 -219q53 -12 91 -74q37 -63 22 -148
l-41 -235q-26 -139 -110 -216t-226 -77z" />
    <glyph glyph-name="C" unicode="C" horiz-adv-x="1275" 
d="M774 -6h-385q-139 0 -203 78q-63 78 -39 221l158 897q25 139 110 216t226 77h383q139 0 204 -81t40 -220l-21 -123h-98l22 131q37 205 -153 205h-383q-93 -1 -155 -57t-81 -156l-157 -897q-37 -205 153 -205h383q92 0 157 58t79 155l20 123h99l-23 -131
q-25 -139 -109 -215t-227 -76z" />
    <glyph glyph-name="D" unicode="D" horiz-adv-x="1337" 
d="M795 88q94 0 153 56t78 157l156 881q37 205 -154 204h-579l-230 -1298h576zM1034 1475q137 0 203 -81t41 -220l-156 -881q-26 -139 -110 -216t-226 -77h-677l258 1475h667z" />
    <glyph glyph-name="E" unicode="E" horiz-adv-x="1191" 
d="M367 1475h872l-14 -89h-774l-105 -587h660l-15 -88h-659l-111 -623h774l-14 -88h-872z" />
    <glyph glyph-name="F" unicode="F" horiz-adv-x="1157" 
d="M109 0l258 1475h872l-14 -89h-774l-107 -606h660l-17 -88h-659l-121 -692h-98z" />
    <glyph glyph-name="G" unicode="G" horiz-adv-x="1310" 
d="M1034 1395h-397q-93 -1 -155 -57t-81 -156l-157 -901q-35 -201 153 -201h398q94 0 153 56t78 157l61 352h-401l16 88h500l-80 -448q-24 -139 -108 -215t-226 -76h-397q-139 0 -203 78q-63 78 -38 221l157 897q25 139 110 216t226 77h397q138 0 202 -79t40 -222l-18 -111
h-99l19 119q31 205 -150 205z" />
    <glyph glyph-name="H" unicode="H" horiz-adv-x="1394" 
d="M109 0l258 1475h98l-119 -676h791l118 676h99l-258 -1475h-99l125 711h-790l-125 -711h-98z" />
    <glyph glyph-name="I" unicode="I" horiz-adv-x="505" 
d="M109 0l258 1475h98l-258 -1475h-98z" />
    <glyph glyph-name="J" unicode="J" horiz-adv-x="1187" 
d="M645 -6h-326q-139 0 -202 78t-39 221l33 192h98l-35 -200q-37 -205 154 -205h325q93 0 155 56t81 157l207 1182h98l-213 -1190q-25 -139 -109 -215t-227 -76z" />
    <glyph glyph-name="K" unicode="K" horiz-adv-x="1341" 
d="M739 852l426 -852h-106l-387 784l-389 -372l-74 -412h-100l258 1475h100l-164 -930l957 930h129z" />
    <glyph glyph-name="L" unicode="L" horiz-adv-x="1114" 
d="M367 1475h98l-244 -1387h723l-14 -88h-821z" />
    <glyph glyph-name="M" unicode="M" horiz-adv-x="1677" 
d="M1636 1475l-258 -1475h-96l240 1350l-678 -1114h-107l-293 1114l-239 -1350h-96l258 1475h131l303 -1139l700 1139h135z" />
    <glyph glyph-name="N" unicode="N" horiz-adv-x="1417" 
d="M1282 1475h94l-258 -1475h-121l-555 1346l-237 -1346h-96l258 1475h120l557 -1346z" />
    <glyph glyph-name="O" unicode="O" horiz-adv-x="1327" 
d="M397 80h408q93 0 155 56t80 157l158 897q37 205 -154 205h-407q-92 -1 -155 -57t-81 -156l-157 -897q-37 -205 153 -205zM799 -6h-410q-139 0 -203 78q-63 78 -39 221l158 897q25 139 110 216t226 77h408q139 0 203 -81t40 -220l-157 -897q-25 -139 -109 -215t-227 -76z
" />
    <glyph glyph-name="P" unicode="P" horiz-adv-x="1273" 
d="M879 684q93 0 157 58t78 155l53 309q15 96 -21 138t-132 42h-565l-125 -702h555zM1020 1475q139 0 204 -81t40 -220l-52 -285q-26 -139 -110 -216t-225 -77h-566l-104 -596h-98l258 1475h653z" />
    <glyph glyph-name="Q" unicode="Q" horiz-adv-x="1327" 
d="M639 1393q-93 -1 -155 -57t-81 -156l-157 -897q-37 -205 153 -205h334l-71 215h92l71 -215q84 8 144 67q59 60 73 148l158 895q18 96 -24 150t-132 55h-405zM645 1483h408q139 0 203 -81t40 -220l-157 -897q-23 -129 -96 -202t-189 -85l68 -199h-93l-65 195h-371
q-139 0 -203 78q-63 78 -38 221l157 897q25 139 110 216t226 77z" />
    <glyph glyph-name="R" unicode="R" horiz-adv-x="1320" 
d="M891 723q93 1 153 57t78 156l47 246q39 205 -153 204h-563l-117 -663h555zM1020 1475q139 0 204 -81t40 -220l-45 -248q-51 -291 -347 -291l226 -635h-101l-229 635h-451l-110 -635h-98l258 1475h653z" />
    <glyph glyph-name="S" unicode="S" horiz-adv-x="1259" 
d="M956 1397h-327q-93 -1 -153 -57t-79 -156l-24 -142q-4 -18 -4 -47t4 -40t6 -18t4 -11t4 -12t14 -18q13 -10 21 -20q8 -8 31 -14t25 -6t30 -6l356 -96q152 -40 209 -98t31 -203l-31 -170q-25 -137 -109 -214t-227 -77h-354q-139 0 -203 78q-63 78 -39 221l23 127h100
l-24 -135q-37 -205 153 -205h352q93 0 155 58t77 155l29 170q22 132 -45 164q-33 14 -87 28l-356 95q-150 39 -205 98t-30 203l24 141q25 139 110 216t224 77h330q139 0 204 -81t39 -220l-18 -105h-100l14 115q25 205 -154 205z" />
    <glyph glyph-name="T" unicode="T" horiz-adv-x="1132" 
d="M1210 1386h-448l-244 -1386h-98l244 1386h-449l14 89h996z" />
    <glyph glyph-name="U" unicode="U" horiz-adv-x="1331" 
d="M788 -6h-387q-139 0 -202 78t-39 221l207 1182h98l-209 -1190q-37 -205 154 -205h387q92 0 154 56t81 157l207 1182h98l-213 -1190q-24 -139 -108 -215t-228 -76z" />
    <glyph glyph-name="V" unicode="V" horiz-adv-x="1241" 
d="M1335 1475l-753 -1475h-115l-238 1475h99l209 -1373l694 1373h104z" />
    <glyph glyph-name="W" unicode="W" horiz-adv-x="1812" 
d="M1241 0h-111l-90 1317l-551 -1317h-110l-150 1475h99l127 -1340l559 1340h102l94 -1340l590 1340h107z" />
    <glyph glyph-name="X" unicode="X" horiz-adv-x="1220" 
d="M698 745l359 -745h-103l-321 670l-551 -670h-113l623 756l-346 719h102l309 -641l527 641h116z" />
    <glyph glyph-name="Y" unicode="Y" horiz-adv-x="1210" 
d="M557 0h-98l100 561l-356 914h106l309 -820l596 820h121l-678 -914z" />
    <glyph glyph-name="Z" unicode="Z" horiz-adv-x="1196" 
d="M41 70l1055 1316h-787l15 89h907l-10 -70l-1057 -1317h819l-14 -88h-938z" />
    <glyph glyph-name="bracketleft" unicode="[" horiz-adv-x="690" 
d="M469 1518l-291 -1645h250l-14 -88h-348l321 1821h348l-16 -88h-250z" />
    <glyph glyph-name="backslash" unicode="\" horiz-adv-x="892" 
d="M721 -141h-92l-391 1759h92z" />
    <glyph glyph-name="bracketright" unicode="]" horiz-adv-x="692" 
d="M328 1606h348l-322 -1821h-348l14 88h250l291 1645h-250z" />
    <glyph glyph-name="asciicircum" unicode="^" horiz-adv-x="888" 
d="M543 1475h123l125 -377h-70l-121 354l-235 -354h-80z" />
    <glyph glyph-name="underscore" unicode="_" horiz-adv-x="1103" 
d="M979 -88l-12 -68h-1078l13 68h1077z" />
    <glyph glyph-name="grave" unicode="`" horiz-adv-x="1331" 
d="M1014 1610h-64l-198 295h135z" />
    <glyph glyph-name="a" unicode="a" 
d="M643 1036h-117q-90 0 -154 -57t-79 -154l-96 -549q-15 -94 25 -149t128 -55h117q100 0 227 67l144 78l118 672l-116 84q-88 63 -197 63zM461 -6h-117q-133 0 -194 77t-37 212l96 548q25 135 110 209q86 74 218 74h116q123 0 205 -67l115 -95l26 154h93l-195 -1106h-96
l26 154l-145 -99q-90 -61 -221 -61z" />
    <glyph glyph-name="b" unicode="b" 
d="M801 1032h-117q-100 0 -227 -67l-146 -78l-118 -672l112 -82q106 -63 203 -63h117q87 0 153 60t80 153l96 544q14 94 -24 150q-41 55 -129 55zM692 1114h117q133 0 195 -78t36 -213l-96 -549q-50 -280 -323 -280h-117q-123 0 -203 65l-115 95l-26 -154h-92l268 1524h92
l-100 -572l143 99q92 63 221 63z" />
    <glyph glyph-name="c" unicode="c" horiz-adv-x="1060" 
d="M600 -6h-258q-133 0 -195 76q-61 78 -36 213l96 548q25 135 110 209q86 74 218 74h251q134 0 194 -76t38 -215l-6 -41h-92l8 49q16 91 -25 145t-129 54h-252q-90 0 -151 -58t-76 -149l-96 -549q-29 -198 153 -198h252q92 0 154 58t76 149l6 41h92l-8 -50
q-23 -136 -107 -208t-217 -72z" />
    <glyph glyph-name="d" unicode="d" 
d="M643 1036h-117q-90 0 -154 -57t-79 -154l-96 -549q-15 -94 25 -149t128 -55h117q100 0 227 67l144 78l118 672l-116 84q-88 63 -197 63zM461 -6h-117q-133 0 -194 77t-37 212l96 548q25 135 110 209q86 74 218 74h116q123 0 205 -67l115 -95l100 572h92l-268 -1524h-96
l26 154l-145 -99q-90 -61 -221 -61z" />
    <glyph glyph-name="e" unicode="e" horiz-adv-x="1083" 
d="M772 1030h-254q-90 0 -151 -58t-76 -149l-35 -196h633l37 204q16 91 -25 145t-129 54zM537 1114h243q132 0 194 -78t38 -213l-49 -282h-723l-47 -267q-17 -94 23 -146t130 -52h254q90 0 155 58t79 149l10 61h90l-12 -70q-25 -140 -108 -210t-216 -70h-254q-133 0 -194 77
t-37 212l96 548q25 135 110 209q87 74 218 74z" />
    <glyph glyph-name="f" unicode="f" horiz-adv-x="743" 
d="M709 1524h159l-14 -78l-156 2q-88 0 -154 -62t-79 -153l-23 -127h351l-15 -78h-348l-180 -1028h-90l180 1028h-197l15 78h198l23 135q20 133 108 208t222 75z" />
    <glyph glyph-name="g" unicode="g" 
d="M639 1032h-117q-80 0 -146 -60t-83 -149l-84 -485q-30 -201 149 -201h117q92 0 227 70l148 76l106 604l-116 82q-92 63 -201 63zM543 -393h-244q-133 0 -195 78q-61 78 -36 213v8h94q-14 -117 21 -169q34 -52 122 -52h244q88 0 153 59q63 59 80 154l56 319l-144 -98
q-90 -63 -223 -64h-117q-131 0 -193 79t-38 212l86 485q25 135 110 209q86 74 218 74h116q123 0 205 -67l115 -95l26 154h93l-222 -1217q-24 -135 -110 -209t-217 -73z" />
    <glyph glyph-name="h" unicode="h" horiz-adv-x="1120" 
d="M778 1032h-90q-100 0 -225 -67l-146 -78l-155 -887h-92l268 1524h92l-100 -572l143 99q92 63 221 63h90q132 0 194 -78t38 -213l-144 -823h-92l152 827q18 89 -23 147t-131 58z" />
    <glyph glyph-name="i" unicode="i" horiz-adv-x="452" 
d="M371 1106l-195 -1106h-92l195 1106h92zM428 1372h-113l27 152h113z" />
    <glyph glyph-name="j" unicode="j" horiz-adv-x="450" 
d="M-156 -313q82 0 142 59t75 141l215 1219h91l-217 -1219q-25 -135 -110 -209t-216 -73h-57l14 82h63zM426 1372h-111l27 152h111z" />
    <glyph glyph-name="k" unicode="k" horiz-adv-x="1007" 
d="M590 692l262 -692h-102l-224 631l-305 -297l-59 -334h-92l258 1475h92l-178 -1014l659 645h115z" />
    <glyph glyph-name="l" unicode="l" horiz-adv-x="450" 
d="M354 1524h86l-268 -1524h-86z" />
    <glyph glyph-name="m" unicode="m" horiz-adv-x="1746" 
d="M739 1116q201 0 236 -174l166 109q104 69 221 63l51 -2q137 -6 197 -81t35 -210l-144 -821h-90l145 829q14 94 -24 150q-41 55 -129 55h-47q-102 0 -228 -67l-151 -80q0 -31 -6 -64l-144 -823h-92l146 831q16 97 -21 151t-125 54h-47q-100 0 -227 -67l-146 -78l-155 -889
h-92l194 1106h92l-26 -154l143 99q92 63 221 63h47z" />
    <glyph glyph-name="n" unicode="n" horiz-adv-x="1120" 
d="M780 1034h-90q-100 0 -227 -67l-146 -78l-155 -889h-92l194 1106h92l-26 -154l143 99q92 63 221 63h90q132 0 194 -78t38 -213l-144 -823h-92l146 829q16 97 -21 151t-125 54z" />
    <glyph glyph-name="o" unicode="o" horiz-adv-x="1099" 
d="M786 1032h-264q-90 0 -151 -58t-76 -153l-96 -549q-15 -96 25 -148t128 -52h264q92 0 154 58t76 153l94 546q14 91 -25 147t-129 56zM537 1114h260q133 0 194 -78t37 -213l-96 -549q-25 -140 -108 -210t-216 -70h-264q-133 0 -194 77t-37 212l96 548q25 135 110 209
q87 74 218 74z" />
    <glyph glyph-name="p" unicode="p" 
d="M801 1032h-117q-100 0 -227 -67l-146 -78l-118 -672l112 -82q106 -63 203 -63h117q87 0 153 60t80 153l96 544q14 94 -24 150q-41 55 -129 55zM692 1114h117q133 0 195 -78t36 -213l-96 -549q-50 -280 -323 -280h-117q-123 0 -203 65l-115 95l-96 -539h-90l262 1491h92
l-26 -154l143 99q92 63 221 63z" />
    <glyph glyph-name="q" unicode="q" 
d="M348 72h117q100 0 227 67l144 78l118 672l-112 82q-84 59 -197 63l-121 2q-90 0 -153 -57t-80 -154l-96 -549q-13 -94 25 -149t128 -55zM537 1114h112q123 0 205 -67l115 -95l26 154h92l-264 -1491h-92l96 539l-145 -99q-90 -61 -221 -61h-117q-133 0 -194 77t-37 212
l96 548q25 135 110 209q87 74 218 74z" />
    <glyph glyph-name="r" unicode="r" horiz-adv-x="743" 
d="M686 1032q-96 0 -227 -69l-144 -76l-155 -887h-92l194 1106h92l-26 -154l143 99q92 63 221 63h90l-14 -82h-82z" />
    <glyph glyph-name="s" unicode="s" horiz-adv-x="1034" 
d="M754 1028h-252q-84 0 -136 -49t-67 -131l-10 -60q-11 -70 13 -100t101 -43l314 -55q115 -23 161 -77t27 -165l-18 -102q-45 -254 -293 -254h-293q-127 0 -179 64t-34 196l10 67h86l-12 -75q-29 -176 135 -176h293q80 0 131 49t68 135l18 106q12 72 -14 103
q-29 31 -105 43l-309 55q-119 23 -167 77t-25 165l10 55q47 256 295 256h254q123 0 181 -71t32 -191l-11 -49h-86l15 55q20 84 -16 128t-117 44z" />
    <glyph glyph-name="t" unicode="t" horiz-adv-x="811" 
d="M446 76h193l-12 -76h-185q-133 0 -194 78t-37 213l129 737h-197l15 78h198l64 369h88l-64 -369h379l-14 -78h-377l-135 -747q-17 -89 21 -147t128 -58z" />
    <glyph glyph-name="u" unicode="u" horiz-adv-x="1120" 
d="M365 72h90q100 0 227 67l143 78l158 889h92l-194 -1106h-93l27 154l-145 -99q-90 -61 -221 -61h-91q-133 0 -194 77t-37 212l145 823h93l-154 -830q-18 -90 23 -147t131 -57z" />
    <glyph glyph-name="v" unicode="v" horiz-adv-x="948" 
d="M1004 1106l-562 -1106h-131l-170 1106h95l151 -1045l514 1045h103z" />
    <glyph glyph-name="w" unicode="w" horiz-adv-x="1460" 
d="M985 0h-106l-74 971l-416 -971h-110l-138 1106h86l117 -1028l434 1028h92l74 -1028l479 1028h93z" />
    <glyph glyph-name="x" unicode="x" horiz-adv-x="987" 
d="M545 557l305 -557h-100l-269 489l-426 -489h-104l491 561l-299 545h101l260 -473l414 473h108z" />
    <glyph glyph-name="y" unicode="y" horiz-adv-x="940" 
d="M995 1106l-759 -1491h-91l195 385l-199 1106h95l161 -993l500 993h98z" />
    <glyph glyph-name="z" unicode="z" horiz-adv-x="903" 
d="M-2 47l793 983h-588l14 76h705l-7 -49l-798 -981h608l-12 -76h-721z" />
    <glyph glyph-name="braceleft" unicode="{" horiz-adv-x="753" 
d="M457 -125h35l-15 -88h-26q-139 0 -203 80q-63 80 -39 219l72 406q16 94 -15 136t-119 42h-24l14 84h17q174 0 208 188l66 371q25 139 110 216t226 77h35l-17 -88h-26q-92 0 -155 -56t-81 -157l-67 -369q-31 -166 -195 -227q145 -74 117 -226l-72 -405q-37 -203 154 -203z
" />
    <glyph glyph-name="bar" unicode="|" horiz-adv-x="571" 
d="M438 1612h68l-363 -2052h-67z" />
    <glyph glyph-name="braceright" unicode="}" horiz-adv-x="753" 
d="M350 1604q137 0 203 -81t41 -220l-66 -371q-16 -94 15 -136t119 -42h24l-14 -84h-17q-174 0 -209 -189l-71 -405q-25 -137 -110 -214t-226 -77h-35l14 88h27q93 0 155 56t81 155l71 405q25 147 195 226q-63 27 -94 86t-17 141l62 369q16 98 -25 151t-131 54h-35l17 88h26
z" />
    <glyph glyph-name="asciitilde" unicode="~" horiz-adv-x="1017" 
d="M332 692l-74 -135h-94l80 158q49 96 135 67l348 -118l70 133h98l-82 -160q-49 -94 -131 -68z" />
    <glyph glyph-name="exclamdown" unicode="&#xa1;" horiz-adv-x="608" 
d="M313 731h43l-151 -1098h-125zM340 1106h125l-29 -158h-125z" />
    <glyph glyph-name="cent" unicode="&#xa2;" horiz-adv-x="1085" 
d="M416 299h69l158 895l-63 -2q-193 -8 -232 -213l-84 -479q-18 -98 21 -150t131 -51zM797 1194h-78l-158 -895h66q92 0 152 54t79 155l6 35h99l-7 -43q-18 -127 -113 -210t-227 -83h-73l-35 -207h-78l35 207h-62q-129 0 -197 84t-44 215l86 479q26 135 116 214t220 79h69
l33 195h78l-33 -195h66q131 0 199 -84t44 -215l-6 -35h-98l12 45q16 97 -26 151t-125 54z" />
    <glyph glyph-name="sterling" unicode="&#xa3;" horiz-adv-x="1247" 
d="M698 1483h277q139 0 204 -81t40 -220l-25 -140h-98l26 148q37 205 -153 205h-273q-92 -1 -154 -57t-81 -156l-74 -424h481l-16 -88h-481l-103 -582h764l-14 -88h-1024l12 88h105q55 0 67 62l92 520h-164l17 88h164l75 432q25 139 110 216t226 77z" />
    <glyph glyph-name="currency" unicode="&#xa4;" horiz-adv-x="1220" 
d="M813 1108h-195q-94 0 -155 -55t-76 -150l-53 -307q-37 -205 149 -205h195q96 1 156 59t79 154l54 307q33 197 -154 197zM672 303h-195q-102 0 -166 45l-176 -155l-61 69l178 156q-37 72 -19 186l54 307q18 111 78 183l-121 145l69 61l119 -147q76 51 191 51h194
q104 0 170 -47l172 152l62 -70l-172 -156q33 -70 14 -180l-53 -307q-18 -109 -80 -184l123 -150l-70 -61l-123 151q-78 -49 -188 -49z" />
    <glyph glyph-name="yen" unicode="&#xa5;" horiz-adv-x="1210" 
d="M727 655h297l-16 -88h-346l-5 -6l-24 -141h350l-16 -88h-351l-59 -332h-98l59 332h-350l16 88h351l24 141l-2 6h-348l16 88h297l-319 820h106l309 -820l596 820h121z" />
    <glyph glyph-name="brokenbar" unicode="&#xa6;" horiz-adv-x="571" 
d="M143 -440h-67l143 809h68zM438 1612h68l-144 -811h-67z" />
    <glyph glyph-name="section" unicode="&#xa7;" horiz-adv-x="1073" 
d="M371 465l358 -68q53 9 93 61t52 124l19 100q20 123 -111 143l-374 64q-111 -23 -136 -172l-18 -111q-20 -117 117 -141zM829 1397h-251q-90 0 -136 -43t-61 -135l-19 -109q-12 -70 16 -100t99 -43l322 -54q94 -16 147 -79t37 -160l-16 -101q-25 -156 -142 -225
q76 -61 56 -180l-19 -102q-47 -254 -295 -254h-291q-125 0 -180 68t-33 192l13 67h92l-14 -76q-16 -86 12 -127t117 -40h290q91 0 135 42t62 136l18 102q23 119 -110 141l-313 54q-93 14 -151 83t-40 158l21 111q27 158 141 221q-74 55 -55 172l18 109q43 256 295 256h252
q125 1 177 -63t36 -199l-4 -33h-92l-5 45q16 92 -12 129q-29 37 -117 37z" />
    <glyph glyph-name="dieresis" unicode="&#xa8;" horiz-adv-x="1284" 
d="M1055 1618h-129l32 188h129zM733 1618h-127l33 188h127z" />
    <glyph glyph-name="copyright" unicode="&#xa9;" horiz-adv-x="1699" 
d="M883 1198h190q109 0 159 -62t30 -173l-15 -74h-94l14 82q11 67 -13 105t-85 38h-195q-61 0 -103 -42t-54 -109l-82 -461q-12 -63 12 -105q25 -39 84 -39h193q63 0 109 43t59 109l12 72h94l-14 -82q-41 -227 -262 -228h-195q-109 0 -159 62t-29 174l82 463q39 227 262 227
zM668 1423q-109 -1 -180 -65t-91 -176l-157 -897q-41 -234 174 -236h725q106 1 179 67t91 177l156 895q37 235 -172 235h-725zM672 1483h723q137 0 201 -79t40 -222l-157 -897q-25 -139 -109 -215t-225 -76h-725q-139 0 -203 78q-63 78 -39 221l158 897q25 139 110 216
t226 77z" />
    <glyph glyph-name="ordfeminine" unicode="&#xaa;" horiz-adv-x="745" 
d="M647 610l-14 -80h-524l14 80h524zM330 823h59q76 0 154 47l80 50l32 188l-270 2q-47 0 -82 -35t-47 -90l-10 -49q-12 -49 10 -81t74 -32zM315 748q-82 0 -125 52t-26 140l12 64q16 86 72 133q57 47 139 47h37q109 0 238 -25l26 133q8 49 -12 80t-68 31h-149
q-43 0 -80 -34t-47 -85v-2h-82q12 99 72 148q59 49 141 49l155 -2q84 1 123 -51t25 -138l-94 -534h-82l16 94l-92 -68q-43 -33 -133 -32h-66z" />
    <glyph glyph-name="guillemotleft" unicode="&#xab;" horiz-adv-x="753" 
d="M782 1145l-362 -426l201 -424h-89l-190 387l10 74l326 389h104zM526 1145l-362 -426l201 -424h-89l-188 387l10 74l324 389h104z" />
    <glyph glyph-name="registered" unicode="&#xae;" horiz-adv-x="835" 
d="M625 1292h-168l-31 -172h160q39 0 49 47l18 86q4 23 -2 31t-26 8zM625 1339q39 1 59 -23t14 -67l-16 -88q-10 -43 -40 -67t-67 -19l-8 17l74 -199h-47l-72 182h-106l-33 -182h-45l80 446h207zM758 1436h-340q-43 0 -67 -29t-29 -59l-86 -478q-14 -80 63 -79h336
q43 1 67 29t29 59l84 477q14 80 -57 80zM422 1483h338q49 0 80 -41t22 -92l-86 -478q-10 -53 -49 -90t-92 -37h-336q-51 0 -86 41q-33 41 -25 93l84 477q10 53 54 90t96 37z" />
    <glyph glyph-name="macron" unicode="&#xaf;" horiz-adv-x="1185" 
d="M1051 1718l-13 -76h-499l12 76h500z" />
    <glyph glyph-name="degree" unicode="&#xb0;" horiz-adv-x="669" 
d="M526 1120q8 0 18 9t13 20l41 229q2 20 -16 21h-170q-27 0 -37 -29l-35 -229q-2 -20 16 -21h170zM537 1040h-211q-35 0 -56 27q-20 27 -14 61l47 271q6 35 32 57t58 21h211q35 0 55 -27t15 -61l-47 -271q-5 -34 -31 -56t-59 -22z" />
    <glyph glyph-name="plusminus" unicode="&#xb1;" horiz-adv-x="1021" 
d="M106 360h742l-14 -81h-742zM453 459l61 346h-330l15 80h329l60 344h80l-60 -344h332l-14 -80h-332l-62 -346h-79z" />
    <glyph glyph-name="twosuperior" unicode="&#xb2;" horiz-adv-x="645" 
d="M438 1704h189q69 0 107 -41t26 -104l-19 -105l-6 -24q-6 -24 -17 -36t-13 -18q-2 -4 -19 -14l-20 -12q-12 -6 -24 -10t-26 -11l-28 -12q-9 -3 -18 -7t-11 -5l-201 -78q-68 -27 -73 -56l-19 -102h414l-14 -88h-508l32 197l7 24q8 31 18 40t12 13t19 15l18 10q12 6 25 10
l24 8l29 13q6 2 16 7t13 5l198 78q72 29 78 53l21 98q6 33 -6 45t-48 13h-172q-74 0 -88 -68l-10 -43h-92l10 66q8 61 58 100t118 39z" />
    <glyph glyph-name="threesuperior" unicode="&#xb3;" horiz-adv-x="653" 
d="M322 1069h192q72 0 84 68l18 114q6 31 -8 45t-57 15h-182l14 82h174q74 0 86 67l19 94q4 36 -8 48t-46 12h-174q-76 0 -88 -68l-8 -49h-92l10 66q8 61 56 100t120 39h191q69 0 107 -41t26 -105l-19 -102q-12 -66 -86 -104q29 -10 46 -39t12 -68l-21 -119
q-24 -139 -172 -139h-205q-73 0 -109 40t-24 105l10 58h95l-15 -62q-8 -31 5 -44t49 -13z" />
    <glyph glyph-name="acute" unicode="&#xb4;" horiz-adv-x="1314" 
d="M768 1610h-80l234 295h137z" />
    <glyph glyph-name="paragraph" unicode="&#xb6;" horiz-adv-x="1357" 
d="M469 616q-137 0 -201 78t-39 224l45 264q25 139 110 216t226 77h733l-258 -1475h-98l244 1386h-135l-244 -1386h-98l108 616h-393z" />
    <glyph glyph-name="periodcentered" unicode="&#xb7;" horiz-adv-x="452" 
d="M305 590h-143l31 168h143z" />
    <glyph glyph-name="cedilla" unicode="&#xb8;" 
d="M489 -338q64 0 78 84q6 39 -2 50t-43 11h-248l132 193h92l-72 -111h102q150 0 125 -153q-14 -86 -56 -122t-118 -36h-211l-82 84h303z" />
    <glyph glyph-name="onesuperior" unicode="&#xb9;" horiz-adv-x="391" 
d="M260 985l109 617l-142 -50l17 84l157 62h76l-125 -713h-92z" />
    <glyph glyph-name="ordmasculine" unicode="&#xba;" horiz-adv-x="753" 
d="M639 606l-14 -80h-516l14 80h516zM612 1399h-174q-45 0 -80 -34t-43 -87l-61 -344q-8 -51 12 -82t68 -31h174q43 0 82 35t47 86l55 344q8 51 -12 82t-68 31zM322 745q-82 1 -125 53t-27 140l63 356q14 84 72 136q59 51 139 49l185 -4q86 -3 124 -53t23 -136l-61 -356
q-17 -88 -71 -136t-138 -49h-184z" />
    <glyph glyph-name="guillemotright" unicode="&#xbb;" horiz-adv-x="753" 
d="M729 756l-10 -74l-324 -387h-104l360 424l-198 426h88zM475 756l-10 -74l-324 -387h-104l360 424l-198 426h88z" />
    <glyph glyph-name="onequarter" unicode="&#xbc;" horiz-adv-x="1210" 
d="M1092 1475l-1006 -1475h-92l1003 1475h95zM219 760l109 616l-142 -49l17 84l157 62h76l-125 -713h-92zM616 252h279l61 328zM1087 166h-112l-29 -166h-94l29 166h-385l2 74l473 473h100l-82 -461h113z" />
    <glyph glyph-name="onehalf" unicode="&#xbd;" horiz-adv-x="1271" 
d="M1094 1468l-1006 -1472h-92l1003 1472h95zM221 754l109 616l-142 -49l17 84l157 61h76l-125 -712h-92zM891 717h188q70 0 108 -41t25 -105l-18 -104l-6 -25q-7 -27 -18 -38t-13 -15t-18 -14l-21 -13q-12 -6 -24 -10q-21 -8 -34 -14t-20 -8l-229 -90q-68 -27 -74 -56
l-18 -102h414l-15 -86h-508l33 194l6 25q7 28 18 39q11 10 13 14t18 15l19 10q12 6 24 10l25 8l57 25l199 78q72 29 78 53l20 98q6 33 -6 45t-47 13h-172q-72 0 -88 -68l-10 -43h-92l10 66q8 61 56 100t120 39z" />
    <glyph glyph-name="threequarters" unicode="&#xbe;" horiz-adv-x="1472" 
d="M1362 1470l-1006 -1472h-94l1006 1472h94zM887 248h278l62 327zM1358 162h-113l-28 -164h-95l29 164h-385l2 74l473 473h100l-81 -461h112zM283 844h192q72 0 84 67l19 115q6 31 -8 45t-58 14h-182l14 82h174q74 0 86 68l19 94q3 35 -9 47t-45 13h-174q-76 0 -88 -68
l-8 -49h-92l10 65q8 61 57 101t119 39h191q70 0 108 -41t25 -105l-19 -102q-12 -66 -86 -105q31 -10 47 -39t11 -67l-21 -119q-12 -70 -55 -102q-45 -37 -117 -37h-205q-72 0 -108 40t-25 105l11 58h94l-15 -62q-15 -57 54 -57z" />
    <glyph glyph-name="questiondown" unicode="&#xbf;" horiz-adv-x="1114" 
d="M629 -287q94 1 153 57t78 156l23 125h98l-25 -133q-51 -285 -335 -293l-361 -4q-134 -2 -200 78t-42 223l19 103q25 145 153 225q82 49 191 92l47 18q68 29 96 43q28 15 64 53q35 38 45 91l33 190h98l-35 -198q-12 -78 -48 -126t-73 -69q-37 -20 -67 -33l-197 -84
q-150 -65 -184 -127q-16 -31 -27 -80l-18 -102q-19 -96 23 -150t132 -55h359zM696 907l35 199h98l-34 -199h-99z" />
    <glyph glyph-name="Agrave" unicode="&#xc0;" horiz-adv-x="1310" 
d="M952 551l-151 825l-432 -825h583zM969 463h-647l-242 -463h-105l787 1475h110l275 -1475h-94zM838 1610l-199 295h135l127 -295h-63z" />
    <glyph glyph-name="Aacute" unicode="&#xc1;" horiz-adv-x="1310" 
d="M836 1610h-80l233 295h137zM952 551l-151 825l-432 -825h583zM969 463h-647l-242 -463h-105l787 1475h110l275 -1475h-94z" />
    <glyph glyph-name="Acircumflex" unicode="&#xc2;" horiz-adv-x="1310" 
d="M952 551l-151 825l-432 -825h583zM969 463h-647l-242 -463h-105l787 1475h110l275 -1475h-94zM635 1610h-70l254 239h115l170 -239h-57l-183 159z" />
    <glyph glyph-name="Atilde" unicode="&#xc3;" horiz-adv-x="1310" 
d="M950 551l-151 825l-432 -825h583zM870 1475l275 -1475h-94l-84 463h-648l-241 -463h-105l787 1475h110zM635 1618h-78l76 166q23 47 53 65q31 18 78 -4l248 -159l84 159h78l-80 -168q-53 -111 -129 -59l-246 164z" />
    <glyph glyph-name="Adieresis" unicode="&#xc4;" horiz-adv-x="1310" 
d="M1059 1618h-129l33 188h129zM737 1618h-127l33 188h127zM952 551l-151 825l-432 -825h583zM969 463h-647l-242 -463h-105l787 1475h110l275 -1475h-94z" />
    <glyph glyph-name="Aring" unicode="&#xc5;" horiz-adv-x="1310" 
d="M909 1667q25 0 31 29l23 133q2 20 -17 20h-139q-25 1 -31 -28l-22 -133q-2 -20 16 -21h139zM971 1913q25 0 44 -22t13 -48l-31 -170q-6 -29 -26 -46t-43 -17l-185 -2q-25 0 -44 22t-13 49l31 170q6 29 25 46t44 18h185zM952 551l-151 825l-432 -825h583zM969 463h-647
l-242 -463h-105l787 1475h110l275 -1475h-94z" />
    <glyph glyph-name="AE" unicode="&#xc6;" horiz-adv-x="1927" 
d="M1063 1389h-86l-561 -838h499zM1161 1386l-104 -585h706l-14 -88h-707l-110 -625h799l-15 -88h-897l82 463h-545l-311 -463h-111l996 1475h1044l-14 -89h-799z" />
    <glyph glyph-name="Ccedilla" unicode="&#xc7;" horiz-adv-x="1275" 
d="M1024 1397h-383q-93 -1 -155 -57t-80 -156l-158 -897q-37 -205 153 -205h383q92 0 157 58t79 155l20 123h99l-23 -131q-24 -139 -108 -215t-228 -76h-137l-65 -105h102q150 0 125 -153q-14 -86 -56 -122t-118 -36h-211l-86 82h303q64 0 78 84q6 39 -2 50t-43 11h-248
l125 187h-154q-139 0 -203 78q-63 78 -38 221l157 897q25 139 110 216t226 77l385 2q137 0 203 -81t41 -220l-21 -123h-98l23 131q37 205 -154 205z" />
    <glyph glyph-name="Egrave" unicode="&#xc8;" horiz-adv-x="1191" 
d="M1239 1475l-14 -89h-774l-105 -587h660l-15 -88h-659l-111 -623h774l-14 -88h-872l258 1475h872zM881 1610h-64l-199 295h136z" />
    <glyph glyph-name="Eacute" unicode="&#xc9;" horiz-adv-x="1191" 
d="M815 1610h-80l234 295h137zM367 1475h872l-14 -89h-774l-105 -587h660l-15 -88h-659l-111 -623h774l-14 -88h-872z" />
    <glyph glyph-name="Ecircumflex" unicode="&#xca;" horiz-adv-x="1191" 
d="M1239 1475l-14 -89h-774l-105 -587h660l-15 -88h-659l-111 -623h774l-14 -88h-872l258 1475h872zM844 1769l-230 -159h-69l254 239h114l170 -239h-57z" />
    <glyph glyph-name="Edieresis" unicode="&#xcb;" horiz-adv-x="1191" 
d="M1038 1618h-129l33 188h129zM717 1618h-127l33 188h127zM367 1475h872l-14 -89h-774l-105 -587h660l-15 -88h-659l-111 -623h774l-14 -88h-872z" />
    <glyph glyph-name="Igrave" unicode="&#xcc;" horiz-adv-x="505" 
d="M367 1475h98l-258 -1475h-98zM500 1610h-64l-198 295h135z" />
    <glyph glyph-name="Iacute" unicode="&#xcd;" horiz-adv-x="505" 
d="M434 1610h-80l234 295h137zM109 0l258 1475h98l-258 -1475h-98z" />
    <glyph glyph-name="Icircumflex" unicode="&#xce;" horiz-adv-x="505" 
d="M367 1475h98l-258 -1475h-98zM463 1769l-230 -159h-69l254 239h114l170 -239h-57z" />
    <glyph glyph-name="Idieresis" unicode="&#xcf;" horiz-adv-x="505" 
d="M109 0l258 1475h98l-258 -1475h-98zM657 1618h-129l33 188h129zM336 1618h-127l33 188h127z" />
    <glyph glyph-name="Eth" unicode="&#xd0;" horiz-adv-x="1337" 
d="M793 88q93 0 153 56t78 157l160 881q37 205 -154 204h-579l-105 -595h195l-17 -89h-194l-109 -614h572zM1034 1475q137 0 203 -81t41 -220l-156 -881q-26 -139 -110 -216t-226 -77h-677l122 702h-184l16 89h185l119 684h667z" />
    <glyph glyph-name="Ntilde" unicode="&#xd1;" horiz-adv-x="1417" 
d="M784 1782l-82 -164h-75l75 166q23 49 52 66t75 -5l248 -159l84 159h78l-80 -168q-53 -111 -129 -59zM1374 1475l-258 -1475h-121l-555 1346l-237 -1346h-97l259 1475h120l557 -1346l238 1346h94z" />
    <glyph glyph-name="Ograve" unicode="&#xd2;" horiz-adv-x="1327" 
d="M389 -6q-139 0 -203 78q-63 78 -39 221l158 897q25 139 110 216t226 77h408q139 0 203 -81t40 -220l-157 -897q-25 -139 -109 -215t-227 -76h-410zM397 80h408q93 0 155 56t80 157l158 897q37 205 -154 205h-407q-93 -1 -155 -57t-81 -156l-157 -897q-37 -205 153 -205z
M934 1610h-64l-198 295h135z" />
    <glyph glyph-name="Oacute" unicode="&#xd3;" horiz-adv-x="1327" 
d="M868 1610h-80l234 295h137zM397 80h408q93 0 155 56t80 157l158 897q37 205 -154 205h-407q-92 -1 -155 -57t-81 -156l-157 -897q-37 -205 153 -205zM799 -6h-410q-139 0 -203 78q-63 78 -39 221l158 897q25 139 110 216t226 77h408q139 0 203 -81t40 -220l-157 -897
q-25 -139 -109 -215t-227 -76z" />
    <glyph glyph-name="Ocircumflex" unicode="&#xd4;" horiz-adv-x="1327" 
d="M389 -6q-139 0 -203 78q-63 78 -39 221l158 897q25 139 110 216t226 77h408q139 0 203 -81t40 -220l-157 -897q-25 -139 -109 -215t-227 -76h-410zM397 80h408q93 0 155 56t80 157l158 897q37 205 -154 205h-407q-93 -1 -155 -57t-81 -156l-157 -897q-37 -205 153 -205z
M897 1769l-229 -159h-70l254 239h115l170 -239h-58z" />
    <glyph glyph-name="Otilde" unicode="&#xd5;" horiz-adv-x="1327" 
d="M752 1782l-82 -164h-76l76 166q24 49 52 66t75 -5l247 -159l84 159h78l-80 -168q-53 -111 -129 -59zM387 -6q-139 0 -203 78q-63 78 -39 221l158 897q25 139 110 216t226 77h408q137 0 203 -81t40 -220l-157 -897q-25 -139 -109 -215t-227 -76h-410zM395 80h408
q92 0 154 56t81 157l158 897q37 205 -154 205h-407q-93 -1 -155 -57t-81 -156l-157 -897q-37 -205 153 -205z" />
    <glyph glyph-name="Odieresis" unicode="&#xd6;" horiz-adv-x="1327" 
d="M1092 1618h-129l32 188h129zM770 1618h-127l33 188h127zM397 80h408q93 0 155 56t80 157l158 897q37 205 -154 205h-407q-92 -1 -155 -57t-81 -156l-157 -897q-37 -205 153 -205zM799 -6h-410q-139 0 -203 78q-63 78 -39 221l158 897q25 139 110 216t226 77h408
q139 0 203 -81t40 -220l-157 -897q-25 -139 -109 -215t-227 -76z" />
    <glyph glyph-name="multiply" unicode="&#xd7;" horiz-adv-x="1019" 
d="M592 678l227 -277l-61 -53l-226 277l-325 -289l-55 61l327 291l-227 277l61 53l228 -277l321 287l58 -59z" />
    <glyph glyph-name="Oslash" unicode="&#xd8;" horiz-adv-x="1327" 
d="M397 76h406q91 0 155 58t82 159l158 899q14 78 -8 127l-875 -1229q29 -14 82 -14zM639 1397q-95 -1 -155 -59t-78 -154l-160 -899q-14 -78 8 -127l870 1224q-27 14 -80 15h-405zM645 1483h408q139 0 203 -81t40 -220l-157 -897q-25 -141 -112 -216t-228 -75h-406
q-139 0 -203 78q-63 78 -38 221l157 897q25 139 110 216t226 77z" />
    <glyph glyph-name="Ugrave" unicode="&#xd9;" horiz-adv-x="1331" 
d="M788 -6h-387q-139 0 -202 78t-39 221l207 1182h98l-209 -1190q-37 -205 154 -205h387q92 0 154 56t81 157l207 1182h98l-213 -1190q-24 -139 -108 -215t-228 -76zM932 1610h-64l-198 295h135z" />
    <glyph glyph-name="Uacute" unicode="&#xda;" horiz-adv-x="1331" 
d="M866 1610h-80l234 295h137zM788 -6h-387q-139 0 -202 78t-39 221l207 1182h98l-209 -1190q-37 -205 154 -205h387q92 0 154 56t81 157l207 1182h98l-213 -1190q-24 -139 -108 -215t-228 -76z" />
    <glyph glyph-name="Ucircumflex" unicode="&#xdb;" horiz-adv-x="1331" 
d="M788 -6h-387q-139 0 -202 78t-39 221l207 1182h98l-209 -1190q-37 -205 154 -205h387q92 0 154 56t81 157l207 1182h98l-213 -1190q-24 -139 -108 -215t-228 -76zM895 1769l-229 -159h-70l254 239h115l170 -239h-58z" />
    <glyph glyph-name="Udieresis" unicode="&#xdc;" horiz-adv-x="1331" 
d="M1090 1618h-129l32 188h129zM768 1618h-127l33 188h127zM788 -6h-387q-139 0 -202 78t-39 221l207 1182h98l-209 -1190q-37 -205 154 -205h387q92 0 154 56t81 157l207 1182h98l-213 -1190q-24 -139 -108 -215t-228 -76z" />
    <glyph glyph-name="Yacute" unicode="&#xdd;" horiz-adv-x="1210" 
d="M784 1610h-79l233 295h137zM557 0h-98l100 561l-356 914h106l309 -820l596 820h121l-678 -914z" />
    <glyph glyph-name="Thorn" unicode="&#xde;" horiz-adv-x="1273" 
d="M836 408q94 0 153 56t78 157l47 264q18 96 -24 150t-132 55h-565l-119 -682h562zM967 1178q139 0 203 -81t40 -220l-47 -265q-25 -139 -109 -216t-227 -77h-565l-55 -319h-98l258 1475h98l-55 -297h557z" />
    <glyph glyph-name="germandbls" unicode="&#xdf;" horiz-adv-x="1120" 
d="M621 -2h-289l12 78h281q87 0 153 58t80 155l43 248q15 96 -21 138t-141 42h-225l14 82h220q100 0 149 43t68 143l36 213q14 94 -24 150q-39 55 -129 55h-260q-90 0 -152 -58t-76 -153l-208 -1192h-93l211 1200q25 137 110 210t218 73h260q133 0 195 -78t37 -213l-39 -219
q-13 -74 -63 -134t-107 -87q53 -12 90 -76t20 -150l-43 -247q-26 -135 -110 -208t-217 -73z" />
    <glyph glyph-name="agrave" unicode="&#xe0;" 
d="M461 -6h-117q-133 0 -194 77t-37 212l96 548q25 135 110 209q86 74 218 74h116q123 0 205 -67l115 -95l26 154h93l-195 -1106h-96l26 154l-145 -99q-90 -61 -221 -61zM643 1036h-117q-90 0 -154 -57t-79 -154l-96 -549q-15 -94 25 -149t128 -55h117q100 0 227 67l144 78
l118 672l-116 84q-88 63 -197 63zM770 1255h-63l-199 295h135z" />
    <glyph glyph-name="aacute" unicode="&#xe1;" 
d="M705 1255h-80l233 295h137zM643 1036h-117q-90 0 -154 -57t-79 -154l-96 -549q-15 -94 25 -149t128 -55h117q100 0 227 67l144 78l118 672l-116 84q-88 63 -197 63zM461 -6h-117q-133 0 -194 77t-37 212l96 548q25 135 110 209q86 74 218 74h116q123 0 205 -67l115 -95
l26 154h93l-195 -1106h-96l26 154l-145 -99q-90 -61 -221 -61z" />
    <glyph glyph-name="acircumflex" unicode="&#xe2;" 
d="M461 -6h-117q-133 0 -194 77t-37 212l96 548q25 135 110 209q86 74 218 74h116q123 0 205 -67l115 -95l26 154h93l-195 -1106h-96l26 154l-145 -99q-90 -61 -221 -61zM643 1036h-117q-90 0 -154 -57t-79 -154l-96 -549q-15 -94 25 -149t128 -55h117q100 0 227 67l144 78
l118 672l-116 84q-88 63 -197 63zM733 1415l-229 -160h-70l254 240h115l170 -240h-58z" />
    <glyph glyph-name="atilde" unicode="&#xe3;" 
d="M461 -6h-117q-133 0 -194 77t-37 212l96 548q25 135 110 209q86 74 218 74h116q123 0 205 -67l115 -95l26 154h93l-195 -1106h-96l26 154l-145 -99q-90 -61 -221 -61zM643 1036h-117q-90 0 -154 -57t-79 -154l-96 -549q-15 -94 25 -149t128 -55h117q100 0 227 67l144 78
l118 672l-116 84q-88 63 -197 63zM586 1427l-82 -163h-76l76 166q24 49 52 66t75 -5l248 -160l84 160h77l-79 -168q-53 -111 -130 -59z" />
    <glyph glyph-name="adieresis" unicode="&#xe4;" 
d="M928 1264h-129l32 188h130zM606 1264h-127l33 188h127zM643 1036h-117q-90 0 -154 -57t-79 -154l-96 -549q-15 -94 25 -149t128 -55h117q100 0 227 67l144 78l118 672l-116 84q-88 63 -197 63zM461 -6h-117q-133 0 -194 77t-37 212l96 548q25 135 110 209q86 74 218 74
h116q123 0 205 -67l115 -95l26 154h93l-195 -1106h-96l26 154l-145 -99q-90 -61 -221 -61z" />
    <glyph glyph-name="aring" unicode="&#xe5;" 
d="M639 1313h139q25 0 31 28l22 134q2 20 -16 20h-139q-25 0 -31 -29l-22 -133q-2 -20 16 -20zM840 1559q25 0 44 -22t13 -48l-31 -170q-6 -29 -26 -47t-43 -17l-185 -2q-25 0 -44 23t-13 49l31 170q6 29 26 46t43 18h185zM643 1036h-117q-90 0 -154 -57t-79 -154l-96 -549
q-15 -94 25 -149t128 -55h117q100 0 227 67l144 78l118 672l-116 84q-88 63 -197 63zM461 -6h-117q-133 0 -194 77t-37 212l96 548q25 135 110 209q86 74 218 74h116q123 0 205 -67l115 -95l26 154h93l-195 -1106h-96l26 154l-145 -99q-90 -61 -221 -61z" />
    <glyph glyph-name="ae" unicode="&#xe6;" horiz-adv-x="1785" 
d="M412 571q-90 0 -152 -58t-76 -148l-16 -95q-14 -94 26 -149t128 -55h106q104 0 231 67l144 78l57 360h-448zM1483 1024h-254q-82 0 -145 -52t-76 -130l-39 -219h630l37 202q16 92 -24 146q-41 53 -129 53zM1051 -10q-201 0 -236 172l-166 -109q-94 -61 -225 -61h-107
q-133 0 -194 77t-37 212l16 94q20 131 106 208t218 76h57q141 0 391 -34l39 209q19 92 -19 146t-126 54h-231q-89 0 -151 -58t-77 -153h-92v8q25 133 109 208t215 75h231q162 0 215 -110q92 112 252 110l252 -4q135 -4 195 -80t36 -211l-49 -282h-721l-53 -299
q-10 -166 154 -166h254q91 0 155 58t78 149l10 61h90l-12 -70q-26 -139 -108 -210t-215 -70h-254z" />
    <glyph glyph-name="ccedilla" unicode="&#xe7;" horiz-adv-x="1060" 
d="M774 1032h-252q-90 0 -151 -58t-76 -149l-96 -549q-29 -198 153 -198h252q92 0 154 58t76 149l6 41h92l-8 -50q-23 -136 -107 -208t-217 -72h-88l-66 -105h103q150 0 125 -153q-14 -86 -57 -122q-42 -36 -117 -36h-211l-86 82h303q64 0 78 84q6 39 -2 50t-43 11h-248
l125 187h-72q-133 0 -194 77t-37 212l96 548q25 135 110 209q87 74 218 74l249 2q134 0 194 -76t38 -215l-6 -41h-92l8 50q16 92 -25 145t-129 53z" />
    <glyph glyph-name="egrave" unicode="&#xe8;" horiz-adv-x="1083" 
d="M772 1030h-254q-90 0 -151 -58t-76 -149l-35 -196h633l37 204q16 91 -25 145t-129 54zM537 1114h243q132 0 194 -78t38 -213l-49 -282h-723l-47 -267q-17 -94 23 -146t130 -52h254q90 0 155 58t79 149l10 61h90l-12 -70q-25 -140 -108 -210t-216 -70h-254q-133 0 -194 77
t-37 212l96 548q25 135 110 209q87 74 218 74zM690 1253l-198 295h135l127 -295h-64z" />
    <glyph glyph-name="eacute" unicode="&#xe9;" horiz-adv-x="1083" 
d="M678 1253h-80l233 295h138zM772 1030h-254q-90 0 -151 -58t-76 -149l-35 -196h633l37 204q16 91 -25 145t-129 54zM537 1114h243q132 0 194 -78t38 -213l-49 -282h-723l-47 -267q-17 -94 23 -146t130 -52h254q90 0 155 58t79 149l10 61h90l-12 -70q-25 -140 -108 -210
t-216 -70h-254q-133 0 -194 77t-37 212l96 548q25 135 110 209q87 74 218 74z" />
    <glyph glyph-name="ecircumflex" unicode="&#xea;" horiz-adv-x="1083" 
d="M772 1030h-254q-90 0 -151 -58t-76 -149l-35 -196h633l37 204q16 91 -25 145t-129 54zM537 1114h243q132 0 194 -78t38 -213l-49 -282h-723l-47 -267q-17 -94 23 -146t130 -52h254q90 0 155 58t79 149l10 61h90l-12 -70q-25 -140 -108 -210t-216 -70h-254q-133 0 -194 77
t-37 212l96 548q25 135 110 209q87 74 218 74zM487 1253h-69l254 240h114l170 -240h-57l-182 160z" />
    <glyph glyph-name="edieresis" unicode="&#xeb;" horiz-adv-x="1083" 
d="M901 1262h-129l33 188h129zM580 1262h-127l32 188h127zM772 1030h-254q-90 0 -151 -58t-76 -149l-35 -196h633l37 204q16 91 -25 145t-129 54zM537 1114h243q132 0 194 -78t38 -213l-49 -282h-723l-47 -267q-17 -94 23 -146t130 -52h254q90 0 155 58t79 149l10 61h90
l-12 -70q-25 -140 -108 -210t-216 -70h-254q-133 0 -194 77t-37 212l96 548q25 135 110 209q87 74 218 74z" />
    <glyph glyph-name="igrave" unicode="&#xec;" horiz-adv-x="452" 
d="M410 1253h-64l-199 295h136zM176 0h-92l195 1106h92z" />
    <glyph glyph-name="iacute" unicode="&#xed;" horiz-adv-x="452" 
d="M371 1106l-195 -1106h-92l195 1106h92zM336 1253h-80l233 295h138z" />
    <glyph glyph-name="icircumflex" unicode="&#xee;" horiz-adv-x="452" 
d="M381 1413l-229 -160h-70l254 240h115l170 -240h-58zM176 0h-92l195 1106h92z" />
    <glyph glyph-name="idieresis" unicode="&#xef;" horiz-adv-x="452" 
d="M371 1106l-195 -1106h-92l195 1106h92zM575 1264h-129l33 188h129zM254 1264h-127l33 188h127z" />
    <glyph glyph-name="eth" unicode="&#xf0;" horiz-adv-x="1105" 
d="M612 920h-114q-82 0 -150 -65t-82 -146l-76 -433q-14 -96 26 -148t128 -52h266q92 0 154 58t76 153l86 491l-115 76q-98 66 -199 66zM610 -6h-268q-133 0 -195 76q-61 78 -36 213l75 432q25 135 111 209t217 73h115q125 0 205 -67l112 -94l43 235q13 75 -31 100
q-27 16 -114 50l-162 53l-168 -135h-115l201 161l-192 62l16 72l250 -74l157 127h115l-188 -152l90 -26q80 -25 108 -36t65 -38q77 -55 52 -172l-139 -789q-25 -140 -108 -210t-216 -70z" />
    <glyph glyph-name="ntilde" unicode="&#xf1;" horiz-adv-x="1120" 
d="M780 1034h-90q-100 0 -227 -67l-146 -78l-155 -889h-92l194 1106h92l-26 -154l143 99q92 63 221 63h90q132 0 194 -78t38 -213l-144 -823h-92l146 829q16 97 -21 151t-125 54zM563 1423l-82 -163h-75l75 165q23 49 51 67t76 -5l248 -160l84 160h78l-80 -168
q-53 -111 -129 -59z" />
    <glyph glyph-name="ograve" unicode="&#xf2;" horiz-adv-x="1099" 
d="M797 1114q133 0 194 -78t37 -213l-96 -549q-25 -140 -108 -210t-216 -70h-264q-133 0 -194 77t-37 212l96 548q25 135 110 209q86 74 218 74h260zM786 1032h-264q-90 0 -151 -58t-76 -153l-96 -549q-15 -96 25 -148t128 -52h264q92 0 154 58t76 153l94 546q14 91 -25 147
t-129 56zM758 1251h-64l-198 295h135z" />
    <glyph glyph-name="oacute" unicode="&#xf3;" horiz-adv-x="1099" 
d="M692 1251h-80l234 295h137zM786 1032h-264q-90 0 -151 -58t-76 -153l-96 -549q-15 -96 25 -148t128 -52h264q92 0 154 58t76 153l94 546q14 91 -25 147t-129 56zM537 1114h260q133 0 194 -78t37 -213l-96 -549q-25 -140 -108 -210t-216 -70h-264q-133 0 -194 77t-37 212
l96 548q25 135 110 209q87 74 218 74z" />
    <glyph glyph-name="ocircumflex" unicode="&#xf4;" horiz-adv-x="1099" 
d="M797 1114q133 0 194 -78t37 -213l-96 -549q-25 -140 -108 -210t-216 -70h-264q-133 0 -194 77t-37 212l96 548q25 135 110 209q86 74 218 74h260zM786 1032h-264q-90 0 -151 -58t-76 -153l-96 -549q-15 -96 25 -148t128 -52h264q92 0 154 58t76 153l94 546q14 91 -25 147
t-129 56zM721 1411l-229 -160h-70l254 240h115l170 -240h-58z" />
    <glyph glyph-name="otilde" unicode="&#xf5;" horiz-adv-x="1099" 
d="M578 1425l-82 -163h-76l76 165q24 49 52 67t75 -5l247 -160l84 160h78l-80 -168q-53 -111 -129 -59zM795 1114q133 0 194 -78t37 -213l-96 -549q-25 -140 -108 -210t-216 -70h-264q-133 0 -195 76q-61 78 -36 213l96 548q25 135 110 209q86 74 218 74h260zM784 1032h-264
q-90 0 -151 -58t-76 -153l-96 -549q-15 -96 25 -148t128 -52h264q92 0 154 58t76 153l94 546q16 91 -25 147t-129 56z" />
    <glyph glyph-name="odieresis" unicode="&#xf6;" horiz-adv-x="1099" 
d="M915 1260h-129l33 188h129zM594 1260h-127l33 188h127zM786 1032h-264q-90 0 -151 -58t-76 -153l-96 -549q-15 -96 25 -148t128 -52h264q92 0 154 58t76 153l94 546q14 91 -25 147t-129 56zM537 1114h260q133 0 194 -78t37 -213l-96 -549q-25 -140 -108 -210t-216 -70
h-264q-133 0 -194 77t-37 212l96 548q25 135 110 209q87 74 218 74z" />
    <glyph glyph-name="divide" unicode="&#xf7;" horiz-adv-x="1019" 
d="M549 371h-148l33 178h148zM195 797h716l-14 -78h-717zM655 967h-147l31 178h147z" />
    <glyph glyph-name="oslash" unicode="&#xf8;" horiz-adv-x="1103" 
d="M350 76h266q90 0 155 58t79 149l98 548q14 82 -16 136l-653 -879q31 -12 71 -12zM791 1030h-267q-90 0 -154 -58t-79 -149l-98 -549q-16 -82 18 -135l655 879q-31 12 -75 12zM537 1114h262q133 0 194 -78t37 -213l-96 -549q-25 -140 -108 -210t-216 -70h-266
q-133 0 -194 77t-37 212l96 548q25 135 110 209q87 74 218 74z" />
    <glyph glyph-name="ugrave" unicode="&#xf9;" horiz-adv-x="1120" 
d="M365 72h90q100 0 227 67l143 78l158 889h92l-194 -1106h-93l27 154l-145 -99q-90 -61 -221 -61h-91q-133 0 -194 77t-37 212l145 823h93l-154 -830q-18 -90 23 -147t131 -57zM756 1255h-64l-198 295h135z" />
    <glyph glyph-name="uacute" unicode="&#xfa;" horiz-adv-x="1120" 
d="M690 1255h-80l234 295h137zM365 72h90q100 0 227 67l143 78l158 889h92l-194 -1106h-93l27 154l-145 -99q-90 -61 -221 -61h-91q-133 0 -194 77t-37 212l145 823h93l-154 -830q-18 -90 23 -147t131 -57z" />
    <glyph glyph-name="ucircumflex" unicode="&#xfb;" horiz-adv-x="1120" 
d="M365 72h90q100 0 227 67l143 78l158 889h92l-194 -1106h-93l27 154l-145 -99q-90 -61 -221 -61h-91q-133 0 -194 77t-37 212l145 823h93l-154 -830q-18 -90 23 -147t131 -57zM719 1415l-230 -160h-69l254 240h114l170 -240h-57z" />
    <glyph glyph-name="udieresis" unicode="&#xfc;" horiz-adv-x="1120" 
d="M913 1264h-129l33 188h129zM592 1264h-127l33 188h127zM365 72h90q100 0 227 67l143 78l158 889h92l-194 -1106h-93l27 154l-145 -99q-90 -61 -221 -61h-91q-133 0 -194 77t-37 212l145 823h93l-154 -830q-18 -90 23 -147t131 -57z" />
    <glyph glyph-name="yacute" unicode="&#xfd;" horiz-adv-x="940" 
d="M590 1253h-80l233 295h138zM995 1106l-759 -1491h-91l195 385l-199 1106h95l161 -993l500 993h98z" />
    <glyph glyph-name="thorn" unicode="&#xfe;" 
d="M801 1032h-117q-100 0 -227 -67l-146 -78l-118 -672l112 -82q106 -63 203 -63h117q87 0 153 60t80 153l96 544q14 94 -24 150q-41 55 -129 55zM692 1114h117q133 0 195 -78t36 -213l-96 -549q-50 -280 -323 -280h-117q-123 0 -203 65l-115 95l-96 -539h-90l336 1909h92
l-100 -572l143 99q92 63 221 63z" />
    <glyph glyph-name="ydieresis" unicode="&#xff;" horiz-adv-x="940" 
d="M813 1262h-129l33 188h129zM492 1262h-127l32 188h127zM995 1106l-759 -1491h-91l195 385l-199 1106h95l161 -993l500 993h98z" />
    <glyph glyph-name="Amacron" unicode="&#x100;" horiz-adv-x="1310" 
d="M952 551l-151 825l-432 -825h583zM969 463h-647l-242 -463h-105l787 1475h110l275 -1475h-94zM1087 1642h-499l12 76h500z" />
    <glyph glyph-name="amacron" unicode="&#x101;" 
d="M969 1364l-13 -76h-499l12 76h500zM643 1036h-117q-90 0 -154 -57t-79 -154l-96 -549q-15 -94 25 -149t128 -55h117q100 0 227 67l144 78l118 672l-116 84q-88 63 -197 63zM461 -6h-117q-133 0 -194 77t-37 212l96 548q25 135 110 209q86 74 218 74h116q123 0 205 -67
l115 -95l26 154h93l-195 -1106h-96l26 154l-145 -99q-90 -61 -221 -61z" />
    <glyph glyph-name="Abreve" unicode="&#x102;" horiz-adv-x="1310" 
d="M950 545l-151 825l-432 -825h583zM967 457h-648l-241 -461h-105l787 1472h110l275 -1472h-94zM766 1681h139q17 -1 33 15t18 37l17 96h78l-19 -105q-19 -106 -135 -114l-137 -6q-49 -2 -79 36t-19 91l16 96h78l-19 -105q-6 -41 29 -41z" />
    <glyph glyph-name="abreve" unicode="&#x103;" 
d="M764 1251h-135q-51 0 -80 37t-19 90l17 97h78l-19 -105q-6 -41 29 -41h139q18 0 34 15t17 36l17 97h78l-21 -111q-10 -55 -46 -85t-89 -30zM643 1036h-117q-90 0 -154 -57t-79 -154l-96 -549q-15 -94 25 -149t128 -55h117q100 0 227 67l144 78l118 672l-116 84
q-88 63 -197 63zM461 -6h-117q-133 0 -194 77t-37 212l96 548q25 135 110 209q86 74 218 74h116q123 0 205 -67l115 -95l26 154h93l-195 -1106h-96l26 154l-145 -99q-90 -61 -221 -61z" />
    <glyph glyph-name="Aogonek" unicode="&#x104;" horiz-adv-x="1277" 
d="M948 551l-151 825l-432 -825h583zM999 -336q-53 0 -91 25q-90 59 16 176l129 137l-84 463h-647l-242 -463h-105l787 1475h110l275 -1475h-2l-127 -141q-78 -88 -33 -113l25 -4h184l-4 -80h-191z" />
    <glyph glyph-name="aogonek" unicode="&#x105;" 
d="M639 1036h-117q-90 0 -154 -57t-79 -154l-96 -549q-15 -94 25 -149t128 -55h117q100 0 227 67l144 78l114 674l-112 82q-88 63 -197 63zM754 -258h184v-80h-190q-54 0 -92 25q-91 59 16 176l129 137l26 154l-145 -99q-90 -61 -221 -61h-117q-133 0 -194 77t-37 212
l96 548q25 135 110 209q86 74 218 74h116q123 0 205 -67l115 -95l26 154h93l-195 -1106l-135 -141q-92 -117 -8 -117z" />
    <glyph glyph-name="Cacute" unicode="&#x106;" horiz-adv-x="1275" 
d="M848 1610h-80l233 295h138zM774 -6h-385q-139 0 -203 78q-63 78 -39 221l158 897q25 139 110 216t226 77h383q139 0 204 -81t40 -220l-21 -123h-98l22 131q37 205 -153 205h-383q-93 -1 -155 -57t-81 -156l-157 -897q-37 -205 153 -205h383q92 0 157 58t79 155l20 123h99
l-23 -131q-25 -139 -109 -215t-227 -76z" />
    <glyph glyph-name="cacute" unicode="&#x107;" horiz-adv-x="1060" 
d="M682 1253h-80l234 295h137zM600 -6h-258q-133 0 -195 76q-61 78 -36 213l96 548q25 135 110 209q86 74 218 74h251q134 0 194 -76t38 -215l-6 -41h-92l8 49q16 91 -25 145t-129 54h-252q-90 0 -151 -58t-76 -149l-96 -549q-29 -198 153 -198h252q92 0 154 58t76 149l6 41
h92l-8 -50q-23 -136 -107 -208t-217 -72z" />
    <glyph glyph-name="Cdotaccent" unicode="&#x10a;" horiz-adv-x="1275" 
d="M907 1628h-119l29 164h119zM774 -6h-385q-139 0 -203 78q-63 78 -39 221l158 897q25 139 110 216t226 77h383q139 0 204 -81t40 -220l-21 -123h-98l22 131q37 205 -153 205h-383q-93 -1 -155 -57t-81 -156l-157 -897q-37 -205 153 -205h383q92 0 157 58t79 155l20 123h99
l-23 -131q-25 -139 -109 -215t-227 -76z" />
    <glyph glyph-name="cdotaccent" unicode="&#x10b;" horiz-adv-x="1060" 
d="M741 1272h-118l28 164h119zM600 -6h-258q-133 0 -195 76q-61 78 -36 213l96 548q25 135 110 209q86 74 218 74h251q134 0 194 -76t38 -215l-6 -41h-92l8 49q16 91 -25 145t-129 54h-252q-90 0 -151 -58t-76 -149l-96 -549q-29 -198 153 -198h252q92 0 154 58t76 149l6 41
h92l-8 -50q-23 -136 -107 -208t-217 -72z" />
    <glyph glyph-name="Ccaron" unicode="&#x10c;" horiz-adv-x="1275" 
d="M389 -6q-139 0 -203 78q-63 78 -39 221l158 897q25 139 110 216t226 77h383q139 0 204 -81t40 -220l-21 -123h-98l22 131q37 205 -153 205h-383q-93 -1 -155 -57t-81 -156l-157 -897q-37 -205 153 -205h383q92 0 157 58t79 155l20 123h99l-23 -131q-25 -139 -109 -215
t-227 -76h-385zM899 1610h-115l-168 239h58l172 -161l235 161h74z" />
    <glyph glyph-name="ccaron" unicode="&#x10d;" horiz-adv-x="1060" 
d="M342 -6q-133 0 -195 76q-61 78 -36 213l96 548q25 135 110 209q86 74 218 74h251q134 0 194 -76t38 -215l-6 -41h-92l8 49q16 91 -25 145t-129 54h-252q-90 0 -151 -58t-76 -149l-96 -549q-29 -198 153 -198h252q92 0 154 58t76 149l6 41h92l-8 -50q-23 -136 -107 -208
t-217 -72h-258zM733 1253h-115l-167 240h57l172 -162l235 162h74z" />
    <glyph glyph-name="Dcaron" unicode="&#x10e;" horiz-adv-x="1337" 
d="M1034 1475q137 0 203 -81t41 -220l-156 -881q-26 -139 -110 -216t-226 -77h-677l258 1475h667zM795 88q94 0 153 56t78 157l156 881q37 205 -154 204h-579l-230 -1298h576zM891 1610h-115l-168 239h58l172 -161l235 161h74z" />
    <glyph glyph-name="dcaron" unicode="&#x10f;" 
d="M645 1036h-117q-90 0 -153 -57t-80 -154l-96 -549q-13 -94 25 -149t128 -55h117q100 0 227 67l144 78l118 672l-116 84q-88 63 -197 63zM1401 1524l-21 -131q-8 -51 -86 -164l-73 -109h-54l144 244h-64l27 160h127zM461 -6h-117q-133 0 -194 77t-37 212l96 548
q25 135 110 209q86 74 218 74h116q123 0 205 -67l115 -95l100 572h92l-268 -1524h-96l26 154l-145 -99q-90 -61 -221 -61z" />
    <glyph glyph-name="Dcroat" unicode="&#x110;" horiz-adv-x="1337" 
d="M793 88q93 0 153 56t78 157l160 881q37 205 -154 204h-579l-105 -595h195l-17 -89h-194l-109 -614h572zM1034 1475q137 0 203 -81t41 -220l-156 -881q-26 -139 -110 -216t-226 -77h-677l122 702h-184l16 89h185l119 684h667z" />
    <glyph glyph-name="dcroat" unicode="&#x111;" 
d="M643 1036h-117q-90 0 -154 -57t-79 -154l-96 -549q-15 -94 25 -149t128 -55h117q100 0 227 67l144 78l118 672l-116 84q-88 63 -197 63zM461 -6h-117q-133 0 -194 77t-37 212l96 548q25 135 110 209q86 74 218 74h116q123 0 205 -67l115 -95l47 271h-193l15 80h192
l39 221h92l-39 -221h129l-14 -80h-133l-215 -1223h-92l26 154l-145 -99q-90 -61 -221 -61z" />
    <glyph glyph-name="Emacron" unicode="&#x112;" horiz-adv-x="1191" 
d="M1079 1718l-12 -76h-500l13 76h499zM367 1475h872l-14 -89h-774l-105 -587h660l-15 -88h-659l-111 -623h774l-14 -88h-872z" />
    <glyph glyph-name="emacron" unicode="&#x113;" horiz-adv-x="1083" 
d="M772 1030h-254q-90 0 -151 -58t-76 -149l-35 -196h633l37 204q16 91 -25 145t-129 54zM537 1114h243q132 0 194 -78t38 -213l-49 -282h-723l-47 -267q-17 -94 23 -146t130 -52h254q90 0 155 58t79 149l10 61h90l-12 -70q-25 -140 -108 -210t-216 -70h-254q-133 0 -194 77
t-37 212l96 548q25 135 110 209q87 74 218 74zM940 1286h-500l13 76h499z" />
    <glyph glyph-name="Edotaccent" unicode="&#x116;" horiz-adv-x="1191" 
d="M874 1628h-118l28 164h119zM367 1475h872l-14 -89h-774l-105 -587h660l-15 -88h-659l-111 -623h774l-14 -88h-872z" />
    <glyph glyph-name="edotaccent" unicode="&#x117;" horiz-adv-x="1083" 
d="M737 1272h-119l29 164h119zM772 1030h-254q-90 0 -151 -58t-76 -149l-35 -196h633l37 204q16 91 -25 145t-129 54zM537 1114h243q132 0 194 -78t38 -213l-49 -282h-723l-47 -267q-17 -94 23 -146t130 -52h254q90 0 155 58t79 149l10 61h90l-12 -70q-25 -140 -108 -210
t-216 -70h-254q-133 0 -194 77t-37 212l96 548q25 135 110 209q87 74 218 74z" />
    <glyph glyph-name="Eogonek" unicode="&#x118;" horiz-adv-x="1191" 
d="M1026 -258v-80h-190q-54 0 -92 25q-90 58 16 176l129 137h-780l258 1475h872l-14 -89h-774l-109 -587h659l-14 -88h-659l-111 -623h774l-14 -88l-127 -141q-78 -88 -33 -113l25 -4h184z" />
    <glyph glyph-name="eogonek" unicode="&#x119;" horiz-adv-x="1083" 
d="M768 1030h-254q-90 0 -151 -58t-76 -149l-35 -196h633l37 204q16 91 -25 145t-129 54zM537 1114h239q132 0 194 -78t38 -213l-50 -282h-722l-48 -267q-16 -94 24 -146t130 -52h254q90 0 155 58t78 149l11 61h90l-12 -70q-25 -140 -108 -210t-216 -70h-84l-119 -135
q-78 -88 -33 -113l25 -4h184v-80h-190q-53 0 -91 25q-90 59 15 176l121 131h-78q-133 0 -194 77t-37 212l96 548q25 135 110 209q87 74 218 74z" />
    <glyph glyph-name="Ecaron" unicode="&#x11a;" horiz-adv-x="1191" 
d="M1239 1475l-14 -89h-774l-105 -587h660l-15 -88h-659l-111 -623h774l-14 -88h-872l258 1475h872zM866 1610h-114l-168 239h57l172 -161l236 161h73z" />
    <glyph glyph-name="ecaron" unicode="&#x11b;" horiz-adv-x="1083" 
d="M772 1030h-254q-90 0 -151 -58t-76 -149l-35 -196h633l37 204q16 91 -25 145t-129 54zM537 1114h243q132 0 194 -78t38 -213l-49 -282h-723l-47 -267q-17 -94 23 -146t130 -52h254q90 0 155 58t79 149l10 61h90l-12 -70q-25 -140 -108 -210t-216 -70h-254q-133 0 -194 77
t-37 212l96 548q25 135 110 209q87 74 218 74zM625 1253l-168 240h57l172 -162l236 162h73l-256 -240h-114z" />
    <glyph glyph-name="Gbreve" unicode="&#x11e;" horiz-adv-x="1310" 
d="M784 1606q-52 0 -80 36t-18 91l16 96h78l-18 -105q-6 -41 29 -41h139q18 1 34 15t17 37l16 96h78l-20 -111q-10 -55 -46 -85t-89 -29h-136zM1034 1395h-397q-93 -1 -155 -57t-81 -156l-157 -901q-35 -201 153 -201h398q94 0 153 56t78 157l61 352h-401l16 88h500
l-80 -448q-24 -139 -108 -215t-226 -76h-397q-139 0 -203 78q-63 78 -38 221l157 897q25 139 110 216t226 77h397q138 0 202 -79t40 -222l-18 -111h-99l19 119q31 205 -150 205z" />
    <glyph glyph-name="gbreve" unicode="&#x11f;" 
d="M778 1249h-135q-53 0 -81 37t-17 90l16 97h78l-18 -105q-6 -41 28 -41h139q41 0 52 51l16 97h78l-21 -111q-10 -55 -46 -85t-89 -30zM639 1032h-117q-80 0 -146 -60t-83 -149l-84 -485q-30 -201 149 -201h117q92 0 227 70l148 76l106 604l-116 82q-92 63 -201 63z
M543 -393h-244q-133 0 -195 78q-61 78 -36 213v8h94q-14 -117 21 -169q34 -52 122 -52h244q88 0 153 59q63 59 80 154l56 319l-144 -98q-90 -63 -223 -64h-117q-131 0 -193 79t-38 212l86 485q25 135 110 209q86 74 218 74h116q123 0 205 -67l115 -95l26 154h93l-222 -1217
q-24 -135 -110 -209t-217 -73z" />
    <glyph glyph-name="Gdotaccent" unicode="&#x120;" horiz-adv-x="1310" 
d="M920 1628h-119l28 164h119zM1034 1395h-397q-93 -1 -155 -57t-81 -156l-157 -901q-35 -201 153 -201h398q94 0 153 56t78 157l61 352h-401l16 88h500l-80 -448q-24 -139 -108 -215t-226 -76h-397q-139 0 -203 78q-63 78 -38 221l157 897q25 139 110 216t226 77h397
q138 0 202 -79t40 -222l-18 -111h-99l19 119q31 205 -150 205z" />
    <glyph glyph-name="gdotaccent" unicode="&#x121;" 
d="M778 1272h-119l29 164h119zM639 1032h-117q-80 0 -146 -60t-83 -149l-84 -485q-30 -201 149 -201h117q92 0 227 70l148 76l106 604l-116 82q-92 63 -201 63zM543 -393h-244q-133 0 -195 78q-61 78 -36 213v8h94q-14 -117 21 -169q34 -52 122 -52h244q88 0 153 59
q63 59 80 154l56 319l-144 -98q-90 -63 -223 -64h-117q-131 0 -193 79t-38 212l86 485q25 135 110 209q86 74 218 74h116q123 0 205 -67l115 -95l26 154h93l-222 -1217q-24 -135 -110 -209t-217 -73z" />
    <glyph glyph-name="Gcommaaccent" unicode="&#x122;" horiz-adv-x="1310" 
d="M623 -141l-23 -135q-8 -33 -31 -66l-26 -45q-25 -41 -29 -49l-76 -109h-53l143 244h-63l29 160h129zM1034 1395h-397q-93 -1 -155 -57t-81 -156l-157 -901q-35 -201 153 -201h398q94 0 153 56t78 157l61 352h-401l16 88h500l-80 -448q-24 -139 -108 -215t-226 -76h-397
q-139 0 -203 78q-63 78 -38 221l157 897q25 139 110 216t226 77h397q138 0 202 -79t40 -222l-18 -111h-99l19 119q31 205 -150 205z" />
    <glyph glyph-name="gcommaaccent" unicode="&#x123;" 
d="M637 1036h-117q-80 0 -146 -60t-83 -149l-84 -485q-30 -199 149 -201h117q92 0 227 70l148 76l106 604l-116 82q-92 63 -201 63zM541 -389h-244q-133 0 -195 78q-61 78 -36 213v8h94q-14 -115 20 -168q35 -53 123 -53h244q87 0 153 59t80 154l56 319l-144 -98
q-90 -63 -223 -64h-117q-131 0 -193 79t-38 212l86 486q25 134 111 208t217 74h116q123 0 205 -67l115 -95l26 154h93l-222 -1216q-24 -135 -110 -209t-217 -74zM670 1262l20 135q9 36 31 65l29 45q25 41 28 49l76 109h53l-143 -244h63l-28 -159h-129z" />
    <glyph glyph-name="Hbar" unicode="&#x126;" horiz-adv-x="1384" 
d="M1190 1149h-787l-61 -348h786zM1393 1149h-105l-201 -1149h-98l125 713h-786l-125 -713h-99l201 1149h-104l16 88h105l40 238h99l-41 -238h786l41 238h99l-41 -238h104z" />
    <glyph glyph-name="hbar" unicode="&#x127;" horiz-adv-x="1124" 
d="M702 1114h86q132 0 194 -78t38 -213l-143 -823h-93l148 842q16 88 -21 140t-118 52h-88q-119 0 -250 -71l-138 -76l-155 -887h-92l215 1223h-129l14 80h129l39 221h92l-39 -221h193l-15 -80h-192l-47 -269l133 88q133 72 239 72z" />
    <glyph glyph-name="Imacron" unicode="&#x12a;" horiz-adv-x="505" 
d="M698 1718l-12 -76h-500l13 76h499zM109 0l258 1475h98l-258 -1475h-98z" />
    <glyph glyph-name="imacron" unicode="&#x12b;" horiz-adv-x="452" 
d="M371 1106l-195 -1106h-92l195 1106h92zM621 1368l-13 -76h-499l12 76h500z" />
    <glyph glyph-name="Iogonek" unicode="&#x12e;" horiz-adv-x="505" 
d="M84 -258h184v-80h-190q-53 0 -90 25t-40 71t54 105l129 137h-18l258 1475h98l-258 -1475h12l-131 -141q-78 -86 -35 -111q10 -6 27 -6z" />
    <glyph glyph-name="iogonek" unicode="&#x12f;" horiz-adv-x="452" 
d="M41 -258h184v-80h-190q-51 0 -89 25q-90 59 15 176l127 137l195 1106h92l-195 -1106l-131 -141q-72 -78 -39 -107q10 -10 31 -10zM459 1524l-27 -152h-113l27 152h113z" />
    <glyph glyph-name="Idotaccent" unicode="&#x130;" horiz-adv-x="505" 
d="M494 1628h-119l28 164h119zM109 0l258 1475h98l-258 -1475h-98z" />
    <glyph glyph-name="IJ" unicode="&#x132;" horiz-adv-x="1693" 
d="M104 0l258 1475h99l-258 -1475h-99zM1126 -6h-325q-139 0 -203 78q-63 78 -39 221l33 192h98l-35 -200q-37 -205 154 -205h326q92 0 154 56t81 157l207 1182h98l-213 -1190q-24 -139 -108 -215t-228 -76z" />
    <glyph glyph-name="ij" unicode="&#x133;" horiz-adv-x="935" 
d="M328 -313q82 0 143 58t76 142l215 1219h90l-217 -1219q-25 -135 -111 -209t-217 -73h-57l14 82h64zM371 1106l-195 -1106h-92l195 1106h92zM911 1372h-110l26 152h111zM428 1372h-113l27 152h113z" />
    <glyph glyph-name="Kcommaaccent" unicode="&#x136;" horiz-adv-x="1341" 
d="M469 -141l129 -4l-23 -131q-7 -29 -30 -66l-27 -45q-25 -41 -29 -49l-75 -109h-54l144 244h-64zM739 852l426 -852h-106l-387 784l-389 -372l-74 -412h-100l258 1475h100l-164 -930l957 930h129z" />
    <glyph glyph-name="kcommaaccent" unicode="&#x137;" horiz-adv-x="1007" 
d="M336 -141l129 -4l-23 -131q-10 -40 -30 -66l-27 -45q-25 -41 -29 -49l-75 -109h-54l144 244h-64zM590 692l262 -692h-102l-224 631l-305 -297l-59 -334h-92l258 1475h92l-178 -1014l659 645h115z" />
    <glyph glyph-name="Lacute" unicode="&#x139;" horiz-adv-x="1114" 
d="M438 1610h-80l234 295h137zM367 1475h98l-244 -1387h723l-14 -88h-821z" />
    <glyph glyph-name="lacute" unicode="&#x13a;" horiz-adv-x="450" 
d="M416 1659h-80l233 295h138zM354 1524h86l-268 -1524h-86z" />
    <glyph glyph-name="Lcommaaccent" unicode="&#x13b;" horiz-adv-x="1114" 
d="M367 1470h98l-244 -1386h723l-14 -86h-821zM584 -141l-23 -135q-10 -42 -31 -66l-26 -45q-25 -41 -29 -49l-76 -109h-53l143 244h-63l29 160h129z" />
    <glyph glyph-name="lcommaaccent" unicode="&#x13c;" horiz-adv-x="450" 
d="M354 1520h86l-268 -1522h-86zM168 -141l-23 -135q-7 -29 -30 -66l-27 -45q-25 -41 -29 -49l-73 -109h-54l142 244h-64l29 160h129z" />
    <glyph glyph-name="Lcaron" unicode="&#x13d;" horiz-adv-x="1114" 
d="M676 1516l-23 -130q-10 -59 -84 -165l-73 -109h-54l144 244h-64l27 160h127zM367 1475h98l-244 -1387h723l-14 -88h-821z" />
    <glyph glyph-name="lcaron" unicode="&#x13e;" horiz-adv-x="450" 
d="M662 1524l-23 -129q-10 -59 -84 -166l-74 -109h-53l143 244h-63l27 160h127zM354 1524h86l-268 -1524h-86z" />
    <glyph glyph-name="Ldot" unicode="&#x13f;" horiz-adv-x="1114" 
d="M786 662h-143l31 167h143zM367 1475h98l-244 -1387h723l-14 -88h-821z" />
    <glyph glyph-name="ldot" unicode="&#x140;" horiz-adv-x="630" 
d="M629 745h-127l26 160h127zM354 1524h86l-268 -1524h-86z" />
    <glyph glyph-name="Lslash" unicode="&#x141;" horiz-adv-x="1114" 
d="M944 86l-14 -86h-821l124 717l-147 -60l16 97l148 59l117 662h98l-109 -621l275 111l-19 -97l-272 -108l-119 -674h723z" />
    <glyph glyph-name="lslash" unicode="&#x142;" horiz-adv-x="550" 
d="M582 870l-222 -86l-137 -784h-86l131 750l-225 -88l18 96l226 88l119 678h86l-113 -641l221 86z" />
    <glyph glyph-name="Nacute" unicode="&#x143;" horiz-adv-x="1417" 
d="M903 1610h-80l234 295h137zM1282 1475h94l-258 -1475h-121l-555 1346l-237 -1346h-96l258 1475h120l557 -1346z" />
    <glyph glyph-name="nacute" unicode="&#x144;" horiz-adv-x="1120" 
d="M682 1251h-80l234 295h137zM780 1034h-90q-100 0 -227 -67l-146 -78l-155 -889h-92l194 1106h92l-26 -154l143 99q92 63 221 63h90q132 0 194 -78t38 -213l-144 -823h-92l146 829q16 97 -21 151t-125 54z" />
    <glyph glyph-name="Ncommaaccent" unicode="&#x145;" horiz-adv-x="1417" 
d="M651 -141l-22 -135q-7 -26 -31 -66l-27 -45q-25 -41 -28 -49l-76 -109h-53l143 244h-63l28 160h129zM1282 1475h94l-258 -1475h-121l-555 1346l-237 -1346h-96l258 1475h120l557 -1346z" />
    <glyph glyph-name="ncommaaccent" unicode="&#x146;" horiz-adv-x="1120" 
d="M510 -143l-23 -136q-10 -39 -30 -65l-27 -45q-25 -41 -29 -49l-75 -109h-54l144 244h-64l29 160h129zM780 1034h-90q-100 0 -227 -67l-146 -78l-155 -889h-92l194 1106h92l-26 -154l143 99q92 63 221 63h90q132 0 194 -78t38 -213l-144 -823h-92l146 829q16 97 -21 151
t-125 54z" />
    <glyph glyph-name="Ncaron" unicode="&#x147;" horiz-adv-x="1417" 
d="M1376 1475l-258 -1475h-121l-555 1346l-237 -1346h-96l258 1475h120l557 -1346l238 1346h94zM954 1610h-114l-168 239h57l172 -161l236 161h73z" />
    <glyph glyph-name="ncaron" unicode="&#x148;" horiz-adv-x="1120" 
d="M780 1034h-90q-100 0 -227 -67l-146 -78l-155 -889h-92l194 1106h92l-26 -154l143 99q92 63 221 63h90q132 0 194 -78t38 -213l-144 -823h-92l146 829q16 97 -21 151t-125 54zM733 1251h-115l-167 240h57l172 -162l235 162h74z" />
    <glyph glyph-name="Eng" unicode="&#x14a;" horiz-adv-x="1419" 
d="M762 -393h-96l16 92h90q190 0 236 207l16 76l-580 1366l-239 -1348h-96l258 1475h118l564 -1332l235 1332h94l-272 -1575q-25 -137 -115 -215t-229 -78z" />
    <glyph glyph-name="eng" unicode="&#x14b;" horiz-adv-x="1120" 
d="M530 -313q92 0 152 55q59 57 78 154l164 933q16 97 -21 151t-125 54h-90q-100 0 -227 -67l-146 -78l-155 -889h-92l194 1106h92l-26 -154l143 99q96 67 221 63l90 -2q136 -4 196 -80t36 -211l-164 -934q-25 -135 -111 -209t-217 -73h-88l17 82h79z" />
    <glyph glyph-name="Omacron" unicode="&#x14c;" horiz-adv-x="1327" 
d="M1133 1718l-13 -76h-499l12 76h500zM397 80h408q93 0 155 56t80 157l158 897q37 205 -154 205h-407q-92 -1 -155 -57t-81 -156l-157 -897q-37 -205 153 -205zM799 -6h-410q-139 0 -203 78q-63 78 -39 221l158 897q25 139 110 216t226 77h408q139 0 203 -81t40 -220
l-157 -897q-25 -139 -109 -215t-227 -76z" />
    <glyph glyph-name="omacron" unicode="&#x14d;" horiz-adv-x="1099" 
d="M956 1360l-12 -76h-500l13 76h499zM786 1032h-264q-90 0 -151 -58t-76 -153l-96 -549q-15 -96 25 -148t128 -52h264q92 0 154 58t76 153l94 546q14 91 -25 147t-129 56zM537 1114h260q133 0 194 -78t37 -213l-96 -549q-25 -140 -108 -210t-216 -70h-264q-133 0 -194 77
t-37 212l96 548q25 135 110 209q87 74 218 74z" />
    <glyph glyph-name="Ohungarumlaut" unicode="&#x150;" horiz-adv-x="1327" 
d="M1282 1907l-289 -297h-112l288 297h113zM1030 1907l-287 -297h-112l289 297h110zM397 80h408q93 0 155 56t80 157l158 897q37 205 -154 205h-407q-92 -1 -155 -57t-81 -156l-157 -897q-37 -205 153 -205zM799 -6h-410q-139 0 -203 78q-63 78 -39 221l158 897
q25 139 110 216t226 77h408q139 0 203 -81t40 -220l-157 -897q-25 -139 -109 -215t-227 -76z" />
    <glyph glyph-name="ohungarumlaut" unicode="&#x151;" horiz-adv-x="1099" 
d="M1106 1548l-289 -297h-112l288 297h113zM854 1548l-287 -297h-112l288 297h111zM786 1032h-264q-90 0 -151 -58t-76 -153l-96 -549q-15 -96 25 -148t128 -52h264q92 0 154 58t76 153l94 546q14 91 -25 147t-129 56zM537 1114h260q133 0 194 -78t37 -213l-96 -549
q-25 -140 -108 -210t-216 -70h-264q-133 0 -194 77t-37 212l96 548q25 135 110 209q87 74 218 74z" />
    <glyph glyph-name="OE" unicode="&#x152;" horiz-adv-x="1984" 
d="M1120 1386h-487q-93 0 -153 -56t-79 -156l-155 -881q-37 -205 153 -205h488q37 0 43 35l84 475l131 772q0 16 -25 16zM393 0q-139 0 -203 79t-38 222l155 881q25 139 110 216t226 77h1413l-14 -89h-793l-100 -581h704l-16 -88h-704l-109 -629h788l-14 -88h-1405z" />
    <glyph glyph-name="oe" unicode="&#x153;" horiz-adv-x="1816" 
d="M1503 1028h-254q-90 0 -151 -58t-76 -149l-35 -196h633l37 204q16 91 -25 145t-129 54zM778 1034h-264q-90 0 -151 -58t-76 -153l-97 -549q-14 -94 26 -147t128 -53l262 -2q92 0 154 58t76 153l96 548q14 91 -25 147t-129 56zM1270 1114h243q133 0 195 -78t37 -213
l-49 -282h-723l-47 -267q-16 -94 24 -146t129 -52h254q90 0 155 58t79 149l10 61h90l-12 -70q-25 -140 -108 -210t-216 -70h-254q-160 0 -217 110q-86 -111 -252 -110h-264q-133 0 -194 77t-37 212l96 548q25 135 110 209q86 74 218 74h262q162 0 217 -113q88 113 254 113z
" />
    <glyph glyph-name="Racute" unicode="&#x154;" horiz-adv-x="1320" 
d="M852 1610h-80l234 295h137zM891 723q93 1 153 57t78 156l47 246q39 205 -153 204h-563l-117 -663h555zM1020 1475q139 0 204 -81t40 -220l-45 -248q-51 -291 -347 -291l226 -635h-101l-229 635h-451l-110 -635h-98l258 1475h653z" />
    <glyph glyph-name="racute" unicode="&#x155;" horiz-adv-x="743" 
d="M506 1253h-80l233 295h138zM686 1032q-96 0 -227 -69l-144 -76l-155 -887h-92l194 1106h92l-26 -154l143 99q92 63 221 63h90l-14 -82h-82z" />
    <glyph glyph-name="Rcommaaccent" unicode="&#x156;" horiz-adv-x="1320" 
d="M475 -141l129 -4l-22 -131q-10 -38 -31 -66l-27 -45q-25 -41 -28 -49l-76 -109h-53l143 244h-64zM891 723q93 1 153 57t78 156l47 246q39 205 -153 204h-563l-117 -663h555zM1020 1475q139 0 204 -81t40 -220l-45 -248q-51 -291 -347 -291l226 -635h-101l-229 635h-451
l-110 -635h-98l258 1475h653z" />
    <glyph glyph-name="rcommaaccent" unicode="&#x157;" horiz-adv-x="743" 
d="M152 -141l-23 -135q-8 -33 -31 -66l-26 -45q-25 -41 -29 -49l-74 -109h-53l141 244h-61l27 160h129zM686 1032q-96 0 -227 -69l-144 -76l-155 -887h-92l194 1106h92l-26 -154l143 99q92 63 221 63h90l-14 -82h-82z" />
    <glyph glyph-name="Rcaron" unicode="&#x158;" horiz-adv-x="1320" 
d="M891 723q93 1 153 57t78 156l47 246q39 205 -153 204h-563l-117 -663h555zM1020 1475q139 0 204 -81t40 -220l-45 -248q-51 -291 -347 -291l226 -635h-101l-229 635h-451l-110 -635h-98l258 1475h653zM784 1610l-168 239h58l172 -161l235 161h74l-256 -239h-115z" />
    <glyph glyph-name="rcaron" unicode="&#x159;" horiz-adv-x="743" 
d="M686 1032q-96 0 -227 -69l-144 -76l-155 -887h-92l194 1106h92l-26 -154l143 99q92 63 221 63h90l-14 -82h-82zM557 1253h-115l-168 240h58l172 -162l235 162h74z" />
    <glyph glyph-name="Sacute" unicode="&#x15a;" horiz-adv-x="1259" 
d="M831 1612h-79l233 295h137zM956 1397h-327q-93 -1 -153 -57t-79 -156l-24 -142q-4 -18 -4 -47t4 -40t6 -18t4 -11t4 -12t14 -18q13 -10 21 -20q8 -8 31 -14t25 -6t30 -6l356 -96q152 -40 209 -98t31 -203l-31 -170q-25 -137 -109 -214t-227 -77h-354q-139 0 -203 78
q-63 78 -39 221l23 127h100l-24 -135q-37 -205 153 -205h352q93 0 155 58t77 155l29 170q22 132 -45 164q-33 14 -87 28l-356 95q-150 39 -205 98t-30 203l24 141q25 139 110 216t224 77h330q139 0 204 -81t39 -220l-18 -105h-100l14 115q25 205 -154 205z" />
    <glyph glyph-name="sacute" unicode="&#x15b;" horiz-adv-x="1034" 
d="M657 1251h-79l233 295h137zM754 1028h-252q-84 0 -136 -49t-67 -131l-10 -60q-11 -70 13 -100t101 -43l314 -55q115 -23 161 -77t27 -165l-18 -102q-45 -254 -293 -254h-293q-127 0 -179 64t-34 196l10 67h86l-12 -75q-29 -176 135 -176h293q80 0 131 49t68 135l18 106
q12 72 -14 103q-29 31 -105 43l-309 55q-119 23 -167 77t-25 165l10 55q47 256 295 256h254q123 0 181 -71t32 -191l-11 -49h-86l15 55q20 84 -16 128t-117 44z" />
    <glyph glyph-name="Scedilla" unicode="&#x15e;" horiz-adv-x="1259" 
d="M963 1399h-328q-93 -1 -153 -57t-79 -156l-24 -142q-4 -18 -4 -47t4 -40t6 -18t4 -11t3 -12q0 -8 14 -18t22 -19t30 -15t25 -6q4 0 31 -6l356 -96q150 -38 209 -98t31 -203l-31 -170q-25 -137 -109 -214t-227 -77h-141l-65 -105h102q150 0 125 -153q-14 -86 -56 -122
t-118 -36h-211l-86 82h303q64 0 78 84q6 39 -2 50t-43 11h-248l125 187h-121q-139 0 -203 78q-63 78 -39 221l23 127h100l-24 -135q-37 -205 153 -205h353q94 0 155 58t76 155l29 170q22 132 -45 164q-33 14 -86 28l-357 95q-150 39 -205 98t-30 203l24 141q51 285 334 293
l328 4q135 2 202 -80t41 -221l-18 -105h-100l20 113q37 205 -153 205z" />
    <glyph glyph-name="scedilla" unicode="&#x15f;" horiz-adv-x="1034" 
d="M502 1114h262q123 0 181 -70t32 -192l-10 -49h-86l10 57q31 172 -133 172h-252q-84 0 -136 -49t-67 -131l-10 -59q-11 -70 13 -101t102 -43l313 -55q115 -23 161 -77t27 -165l-18 -102q-45 -254 -293 -254h-84l-65 -105h102q150 0 125 -153q-14 -86 -57 -122
q-42 -36 -117 -36h-211l-86 82h303q64 0 78 84q6 39 -3 50t-42 11h-248l125 187h-117q-127 0 -179 64t-34 196l10 68h86l-12 -76q-29 -176 135 -176h293q80 0 131 49t68 135l18 106q12 72 -14 103q-29 31 -105 43l-309 55q-119 23 -167 77t-25 165l10 55q47 256 295 256z
" />
    <glyph glyph-name="Scaron" unicode="&#x160;" horiz-adv-x="1259" 
d="M956 1397h-327q-93 -1 -153 -57t-79 -156l-24 -142q-4 -18 -4 -47t4 -40t6 -18t4 -11t4 -12t14 -18q13 -10 21 -20q8 -8 31 -14t25 -6t30 -6l356 -96q152 -40 209 -98t31 -203l-31 -170q-25 -137 -109 -214t-227 -77h-354q-139 0 -203 78q-63 78 -39 221l23 127h100
l-24 -135q-37 -205 153 -205h352q93 0 155 58t77 155l29 170q22 132 -45 164q-33 14 -87 28l-356 95q-150 39 -205 98t-30 203l24 141q25 139 110 216t224 77h330q139 0 204 -81t39 -220l-18 -105h-100l14 115q25 205 -154 205zM883 1612h-115l-168 239h57l172 -161l236 161
h74z" />
    <glyph glyph-name="scaron" unicode="&#x161;" horiz-adv-x="1034" 
d="M754 1028h-252q-84 0 -136 -49t-67 -131l-10 -60q-11 -70 13 -100t101 -43l314 -55q115 -23 161 -77t27 -165l-18 -102q-45 -254 -293 -254h-293q-127 0 -179 64t-34 196l10 67h86l-12 -75q-29 -176 135 -176h293q80 0 131 49t68 135l18 106q12 72 -14 103
q-29 31 -105 43l-309 55q-119 23 -167 77t-25 165l10 55q47 256 295 256h254q123 0 181 -71t32 -191l-11 -49h-86l15 55q20 84 -16 128t-117 44zM709 1251h-115l-168 240h57l172 -162l236 162h74z" />
    <glyph glyph-name="Tcedilla" unicode="&#x162;" horiz-adv-x="1132" 
d="M545 -109q150 0 125 -153q-14 -86 -57 -122q-42 -36 -117 -36h-211l-86 82h303q64 0 78 84q6 39 -2 50t-43 11h-248l131 193h2l244 1386h-449l14 89h996l-11 -86h-448l-244 -1387h-8l-72 -111h103z" />
    <glyph glyph-name="tcedilla" unicode="&#x163;" horiz-adv-x="811" 
d="M451 78h192l-12 -76h-74l-72 -111h103q150 0 125 -153q-14 -86 -57 -122q-42 -36 -117 -36h-211l-86 82h303q64 0 78 84q6 39 -3 50t-42 11h-248l131 193h-19q-133 0 -194 78t-37 213l129 737h-197l15 78h198l64 369h88l-64 -369h379l-14 -78h-377l-131 -745
q-14 -93 23 -149t127 -56z" />
    <glyph glyph-name="Tcaron" unicode="&#x164;" horiz-adv-x="1132" 
d="M762 1386l-244 -1386h-98l244 1386h-449l14 89h996l-15 -89h-448zM797 1610h-115l-168 239h57l172 -161l236 161h74z" />
    <glyph glyph-name="tcaron" unicode="&#x165;" horiz-adv-x="811" 
d="M831 1677l-20 -131q-8 -51 -86 -164l-74 -108h-53l143 244h-63l27 159h126zM446 76h193l-12 -76h-185q-133 0 -194 78t-37 213l129 737h-197l15 78h198l64 369h88l-64 -369h379l-14 -78h-377l-135 -747q-17 -89 21 -147t128 -58z" />
    <glyph glyph-name="Tbar" unicode="&#x166;" horiz-adv-x="1132" 
d="M1010 1718l-13 -76h-499l12 76h500zM1210 1386h-448l-244 -1386h-98l244 1386h-449l14 89h996z" />
    <glyph glyph-name="tbar" unicode="&#x167;" horiz-adv-x="811" 
d="M446 76h193l-12 -76h-185q-133 0 -194 78t-37 213l65 377h-139l13 75h141l49 285h-197l15 78h198l64 369h88l-64 -369h379l-14 -78h-377l-53 -287h266l-12 -75h-268l-68 -385q-14 -92 22 -150q37 -55 127 -55z" />
    <glyph glyph-name="Umacron" unicode="&#x16a;" horiz-adv-x="1331" 
d="M1130 1718l-12 -76h-500l13 76h499zM788 -6h-387q-139 0 -202 78t-39 221l207 1182h98l-209 -1190q-37 -205 154 -205h387q92 0 154 56t81 157l207 1182h98l-213 -1190q-24 -139 -108 -215t-228 -76z" />
    <glyph glyph-name="umacron" unicode="&#x16b;" horiz-adv-x="1120" 
d="M954 1364l-12 -76h-500l13 76h499zM365 72h90q100 0 227 67l143 78l158 889h92l-194 -1106h-93l27 154l-145 -99q-90 -61 -221 -61h-91q-133 0 -194 77t-37 212l145 823h93l-154 -830q-18 -90 23 -147t131 -57z" />
    <glyph glyph-name="Uring" unicode="&#x16e;" horiz-adv-x="1331" 
d="M788 -8h-387q-139 0 -202 78t-39 221l207 1182h98l-209 -1190q-37 -205 154 -205h387q92 0 154 56t81 157l207 1182h98l-213 -1190q-24 -139 -108 -215t-228 -76zM944 1667q25 0 31 29l22 133q2 20 -16 20h-139q-25 1 -31 -28l-23 -133q-2 -20 17 -21h139zM1006 1913
q25 0 44 -22t13 -48l-31 -170q-6 -29 -26 -46t-43 -17l-185 -2q-25 0 -44 22t-13 49l31 170q6 29 26 46t43 18h185z" />
    <glyph glyph-name="uring" unicode="&#x16f;" horiz-adv-x="1120" 
d="M625 1313h139q25 0 31 28l22 134q2 20 -16 20h-139q-25 0 -31 -29l-23 -133q-2 -20 17 -20zM825 1559q25 0 44 -22t14 -48l-31 -170q-6 -29 -26 -47t-44 -17l-184 -2q-25 0 -44 23t-13 49l30 170q6 29 27 46t43 18h184zM365 72h90q100 0 227 67l143 78l158 889h92
l-194 -1106h-93l27 154l-145 -99q-90 -61 -221 -61h-91q-133 0 -194 77t-37 212l145 823h93l-154 -830q-18 -90 23 -147t131 -57z" />
    <glyph glyph-name="Uhungarumlaut" unicode="&#x170;" horiz-adv-x="1331" 
d="M1280 1907l-289 -297h-112l288 297h113zM1028 1907l-287 -297h-112l289 297h110zM788 -6h-387q-139 0 -202 78t-39 221l207 1182h98l-209 -1190q-37 -205 154 -205h387q92 0 154 56t81 157l207 1182h98l-213 -1190q-24 -139 -108 -215t-228 -76z" />
    <glyph glyph-name="uhungarumlaut" unicode="&#x171;" horiz-adv-x="1120" 
d="M1104 1552l-289 -297h-113l289 297h113zM852 1552l-287 -297h-112l288 297h111zM365 72h90q100 0 227 67l143 78l158 889h92l-194 -1106h-93l27 154l-145 -99q-90 -61 -221 -61h-91q-133 0 -194 77t-37 212l145 823h93l-154 -830q-18 -90 23 -147t131 -57z" />
    <glyph glyph-name="Uogonek" unicode="&#x172;" horiz-adv-x="1331" 
d="M784 -6h-131l-118 -133q-78 -88 -33 -113l24 -4h185v-80h-191q-53 0 -91 25q-90 59 15 176l119 129h-162q-139 0 -202 78t-39 221l207 1182h98l-209 -1190q-37 -205 154 -205h387q92 0 154 56t81 157l207 1182h98l-217 -1190q-24 -139 -108 -215t-228 -76z" />
    <glyph glyph-name="uogonek" unicode="&#x173;" horiz-adv-x="1120" 
d="M772 -256h184v-80h-190q-53 0 -91 25q-90 59 15 176l129 137h-35l27 154l-145 -99q-90 -61 -222 -61h-90q-133 0 -194 77t-37 212l145 823h92l-147 -832q-14 -94 26 -149t128 -55h90q100 0 227 67l143 78l158 889h92l-194 -1106h35l-138 -139q-92 -117 -8 -117z" />
    <glyph glyph-name="Wcircumflex" unicode="&#x174;" horiz-adv-x="1812" 
d="M1130 0l-90 1317l-551 -1317h-110l-150 1475h99l127 -1340l559 1340h102l94 -1340l590 1340h107l-666 -1475h-111zM1116 1769l-229 -159h-70l254 239h115l170 -239h-58z" />
    <glyph glyph-name="wcircumflex" unicode="&#x175;" horiz-adv-x="1460" 
d="M879 0l-74 971l-416 -971h-110l-138 1106h86l117 -1028l434 1028h92l74 -1028l479 1028h93l-531 -1106h-106zM877 1413l-230 -160h-69l253 240h115l170 -240h-57z" />
    <glyph glyph-name="Ycircumflex" unicode="&#x176;" horiz-adv-x="1210" 
d="M459 0l100 561l-356 914h106l309 -820l596 820h121l-678 -914l-100 -561h-98zM813 1769l-229 -159h-70l254 239h115l170 -239h-58z" />
    <glyph glyph-name="ycircumflex" unicode="&#x177;" horiz-adv-x="940" 
d="M995 1106l-759 -1491h-91l195 385l-199 1106h95l161 -993l500 993h98zM389 1253h-70l254 240h115l170 -240h-57l-183 160z" />
    <glyph glyph-name="Ydieresis" unicode="&#x178;" horiz-adv-x="1210" 
d="M1008 1618h-129l32 188h129zM686 1618h-127l33 188h127zM557 0h-98l100 561l-356 914h106l309 -820l596 820h121l-678 -914z" />
    <glyph glyph-name="Zacute" unicode="&#x179;" horiz-adv-x="1196" 
d="M797 1610h-80l233 295h137zM41 70l1055 1316h-787l15 89h907l-10 -70l-1057 -1317h819l-14 -88h-938z" />
    <glyph glyph-name="zacute" unicode="&#x17a;" horiz-adv-x="903" 
d="M588 1253h-80l233 295h138zM-2 47l793 983h-588l14 76h705l-7 -49l-798 -981h608l-12 -76h-721z" />
    <glyph glyph-name="Zdotaccent" unicode="&#x17b;" horiz-adv-x="1196" 
d="M856 1628h-119l29 164h119zM41 70l1055 1316h-787l15 89h907l-10 -70l-1057 -1317h819l-14 -88h-938z" />
    <glyph glyph-name="zdotaccent" unicode="&#x17c;" horiz-adv-x="903" 
d="M647 1272h-119l29 164h119zM-2 47l793 983h-588l14 76h705l-7 -49l-798 -981h608l-12 -76h-721z" />
    <glyph glyph-name="Zcaron" unicode="&#x17d;" horiz-adv-x="1196" 
d="M1096 1386h-787l15 89h907l-10 -70l-1057 -1317h819l-14 -88h-938l10 70zM848 1610h-115l-168 239h58l172 -161l235 161h74z" />
    <glyph glyph-name="zcaron" unicode="&#x17e;" horiz-adv-x="903" 
d="M791 1030h-588l14 76h705l-7 -49l-798 -981h608l-12 -76h-721l6 47zM639 1253h-115l-168 240h58l172 -162l235 162h74z" />
    <glyph glyph-name="florin" unicode="&#x192;" horiz-adv-x="776" 
d="M43 0h-68l15 88h59q188 0 223 203l88 510h-233l16 86h234l51 295q25 139 110 216t226 77h106l-14 -89l-100 3q-90 3 -152 -55t-80 -158l-51 -287h277l-17 -86h-276l-90 -518q-21 -131 -107 -208t-217 -77z" />
    <glyph glyph-name="circumflex" unicode="&#x2c6;" horiz-adv-x="1323" 
d="M881 1769l-230 -159h-69l254 239h114l170 -239h-57z" />
    <glyph glyph-name="caron" unicode="&#x2c7;" horiz-adv-x="1323" 
d="M903 1610h-115l-167 239h57l172 -161l235 161h74z" />
    <glyph glyph-name="breve" unicode="&#x2d8;" horiz-adv-x="1239" 
d="M750 1606q-53 0 -81 36t-18 91l17 96h77l-18 -105q-6 -41 29 -41h139q19 1 33 15t18 37l17 96h77l-20 -111q-10 -55 -46 -85t-89 -29h-135z" />
    <glyph glyph-name="dotaccent" unicode="&#x2d9;" horiz-adv-x="958" 
d="M729 1628h-119l29 164h119z" />
    <glyph glyph-name="ring" unicode="&#x2da;" horiz-adv-x="690" 
d="M614 1667q25 0 31 29l23 133q2 20 -17 20h-139q-25 1 -31 -28l-22 -133q-2 -20 16 -21h139zM676 1913q25 0 44 -22t13 -48l-31 -170q-6 -29 -26 -46t-43 -17l-184 -2q-25 0 -44 22t-14 49l31 170q6 29 26 46t44 18h184z" />
    <glyph glyph-name="ogonek" unicode="&#x2db;" horiz-adv-x="786" 
d="M219 -258h184v-80h-190q-53 0 -91 25q-90 59 15 176l129 137h92l-131 -141q-78 -86 -34 -111q10 -6 26 -6z" />
    <glyph glyph-name="tilde" unicode="&#x2dc;" horiz-adv-x="1226" 
d="M672 1782l-82 -164h-76l76 166q24 49 52 66t75 -5l248 -159l84 159h77l-79 -168q-53 -111 -129 -59z" />
    <glyph glyph-name="hungarumlaut" unicode="&#x2dd;" horiz-adv-x="1507" 
d="M1292 1907l-288 -297h-113l289 297h112zM1040 1907l-286 -297h-113l289 297h110z" />
    <glyph glyph-name="commaaccentcomb" unicode="&#x326;" horiz-adv-x="0" 
d="M289 -141l-23 -135q-10 -40 -30 -66l-27 -45q-25 -41 -29 -49l-76 -109h-53l144 244h-64l29 160h129z" />
    <glyph glyph-name="Wgrave" unicode="&#x1e80;" horiz-adv-x="1812" 
d="M1130 0l-90 1317l-551 -1317h-110l-150 1475h99l127 -1340l559 1340h102l94 -1340l590 1340h107l-666 -1475h-111zM1153 1610h-63l-199 295h135z" />
    <glyph glyph-name="wgrave" unicode="&#x1e81;" horiz-adv-x="1460" 
d="M879 0l-74 971l-416 -971h-110l-138 1106h86l117 -1028l434 1028h92l74 -1028l479 1028h93l-531 -1106h-106zM913 1253h-63l-199 295h135z" />
    <glyph glyph-name="Wacute" unicode="&#x1e82;" horiz-adv-x="1812" 
d="M1087 1610h-79l233 295h137zM1241 0h-111l-90 1317l-551 -1317h-110l-150 1475h99l127 -1340l559 1340h102l94 -1340l590 1340h107z" />
    <glyph glyph-name="wacute" unicode="&#x1e83;" horiz-adv-x="1460" 
d="M848 1253h-80l233 295h138zM985 0h-106l-74 971l-416 -971h-110l-138 1106h86l117 -1028l434 1028h92l74 -1028l479 1028h93z" />
    <glyph glyph-name="Wdieresis" unicode="&#x1e84;" horiz-adv-x="1812" 
d="M1311 1618h-129l32 188h129zM989 1618h-127l33 188h127zM1241 0h-111l-90 1317l-551 -1317h-110l-150 1475h99l127 -1340l559 1340h102l94 -1340l590 1340h107z" />
    <glyph glyph-name="wdieresis" unicode="&#x1e85;" horiz-adv-x="1460" 
d="M1071 1262h-129l33 188h129zM750 1262h-127l32 188h127zM985 0h-106l-74 971l-416 -971h-110l-138 1106h86l117 -1028l434 1028h92l74 -1028l479 1028h93z" />
    <glyph glyph-name="Ygrave" unicode="&#x1ef2;" horiz-adv-x="1210" 
d="M459 0l100 561l-356 914h106l309 -820l596 820h121l-678 -914l-100 -561h-98zM850 1610h-64l-198 295h135z" />
    <glyph glyph-name="ygrave" unicode="&#x1ef3;" horiz-adv-x="940" 
d="M995 1106l-759 -1491h-91l195 385l-199 1106h95l161 -993l500 993h98zM592 1253l-199 295h135l127 -295h-63z" />
    <glyph glyph-name="endash" unicode="&#x2013;" horiz-adv-x="1114" 
d="M1010 723l-17 -92h-843l16 92h844z" />
    <glyph glyph-name="emdash" unicode="&#x2014;" horiz-adv-x="1634" 
d="M1528 719l-15 -86h-1363l14 86h1364z" />
    <glyph glyph-name="quoteleft" unicode="&#x2018;" horiz-adv-x="432" 
d="M244 1071l22 131q8 45 86 164l72 109h55l-145 -244h65l-26 -160h-129z" />
    <glyph glyph-name="quoteright" unicode="&#x2019;" horiz-adv-x="430" 
d="M440 1475l-20 -132q-8 -51 -86 -163l-74 -109h-53l143 244h-63l26 160h127z" />
    <glyph glyph-name="quotesinglbase" unicode="&#x201a;" horiz-adv-x="430" 
d="M209 160l-23 -129q-10 -55 -84 -164l-73 -109h-52l142 242h-64l27 160h127z" />
    <glyph glyph-name="quotedblleft" unicode="&#x201c;" horiz-adv-x="698" 
d="M510 1071l22 131q8 45 86 164l72 109h55l-145 -244h66l-27 -160h-129zM244 1071l22 131q8 45 86 164l72 109h55l-145 -244h65l-26 -160h-129z" />
    <glyph glyph-name="quotedblright" unicode="&#x201d;" horiz-adv-x="696" 
d="M709 1475l-23 -132q-8 -49 -86 -163l-74 -109h-53l145 244h-65l27 160h129zM440 1475l-20 -132q-8 -51 -86 -163l-74 -109h-53l143 244h-63l26 160h127z" />
    <glyph glyph-name="quotedblbase" unicode="&#x201e;" horiz-adv-x="430" 
d="M209 160l-23 -129q-10 -55 -84 -164l-73 -109h-52l142 242h-64l27 160h127z" />
    <glyph glyph-name="dagger" unicode="&#x2020;" horiz-adv-x="751" 
d="M741 1018h-235l-178 -1018h-97l179 1018h-234l17 88h233l63 369h97l-64 -369h236z" />
    <glyph glyph-name="daggerdbl" unicode="&#x2021;" horiz-adv-x="751" 
d="M506 1018l-98 -561h235l-16 -88h-236l-63 -369h-97l64 369h-234l17 88h233l99 561h-234l17 88h233l63 369h97l-64 -369h236l-17 -88h-235z" />
    <glyph glyph-name="bullet" unicode="&#x2022;" horiz-adv-x="860" 
d="M373 608q-29 0 -50 24t-16 58l27 152q6 35 30 55t56 21h153q35 0 53 -25t13 -57l-27 -152q-12 -76 -84 -76h-155z" />
    <glyph glyph-name="ellipsis" unicode="&#x2026;" horiz-adv-x="1263" 
d="M1016 0h-129l26 160h129zM600 0h-129l27 160h129zM184 0h-129l27 160h129z" />
    <glyph glyph-name="perthousand" unicode="&#x2030;" horiz-adv-x="1826" 
d="M1573 463h-164q-19 0 -35 -15t-18 -32l-53 -305q-6 -43 28 -43h164q17 0 33 15t18 38l51 301q6 41 -24 41zM1032 467h-164q-18 0 -35 -14t-20 -33l-53 -305q-6 -43 28 -43h164q16 0 32 15t20 38l53 301q6 41 -25 41zM1495 -10h-178q-53 0 -86 42t-25 93l56 311
q10 53 53 90t96 37l174 -4q51 0 85 -40t26 -93l-56 -311q-10 -55 -51 -90t-94 -35zM870 563h179q53 0 86 -43t24 -94l-55 -311q-10 -55 -51 -90t-95 -35h-180q-53 0 -86 42t-24 93l55 311q10 53 53 90t94 37zM563 1393h-164q-19 -1 -37 -15t-20 -32l-53 -306q-6 -43 30 -43
h164q17 0 31 17t16 37l56 301q6 41 -23 41zM1243 1477l-1048 -1475h-97l1045 1475h100zM481 911h-178q-51 0 -85 40t-25 93l55 312q10 53 53 90t94 37l176 2q51 0 85 -43t26 -94l-55 -312q-7 -51 -51 -88t-95 -37z" />
    <glyph glyph-name="guilsinglleft" unicode="&#x2039;" horiz-adv-x="499" 
d="M526 1145l-362 -426l201 -424h-89l-188 387l10 74l324 389h104z" />
    <glyph glyph-name="guilsinglright" unicode="&#x203a;" horiz-adv-x="499" 
d="M475 756l-10 -74l-324 -387h-104l360 424l-198 426h88z" />
    <glyph glyph-name="fraction" unicode="&#x2044;" horiz-adv-x="235" 
d="M700 1475l-1003 -1475h-94l1003 1475h94z" />
    <glyph glyph-name="zerosuperior" unicode="&#x2070;" horiz-adv-x="688" 
d="M342 1067h199q31 0 55 17t29 49l75 421q8 57 -55 58h-199q-32 0 -56 -18t-30 -46l-73 -424q-8 -57 55 -57zM449 1702h213q70 0 108 -40t25 -103l-78 -439q-12 -66 -57 -102t-115 -35l-217 -2q-72 0 -109 40t-24 105l75 439q25 137 179 137z" />
    <glyph glyph-name="foursuperior" unicode="&#x2074;" horiz-adv-x="706" 
d="M287 1239h278l62 328zM758 1153h-113l-29 -166h-94l29 166h-385l2 74l473 473h100l-82 -461h113z" />
    <glyph glyph-name="fivesuperior" unicode="&#x2075;" horiz-adv-x="653" 
d="M504 1456h86q68 0 106 -41t25 -102l-33 -187q-24 -139 -172 -139h-194q-72 0 -109 41t-25 105l11 59h94l-10 -59q-10 -59 55 -60h180q70 0 84 66l29 168q10 59 -58 59h-71q-53 0 -121 -31l-59 -26l-89 30l64 361l479 4l-16 -88h-391l-41 -238l69 45q53 33 107 33z" />
    <glyph glyph-name="sixsuperior" unicode="&#x2076;" horiz-adv-x="667" 
d="M340 1065h178q34 0 58 18t30 47l25 148q10 59 -58 59h-81q-45 0 -117 -28l-60 -25l-30 -160q-12 -59 55 -59zM444 1608q-66 0 -84 -66l-34 -194l69 47q43 31 107 30h92q68 0 104 -40t27 -103l-29 -166q-24 -139 -172 -139h-194q-72 0 -109 40t-24 105l75 434
q12 66 58 103t119 37h184q69 0 107 -41t26 -105l-10 -53h-94l8 51q10 59 -56 60h-170z" />
    <glyph glyph-name="sevensuperior" unicode="&#x2077;" horiz-adv-x="614" 
d="M756 1632l-473 -645h-107l459 625h-404l17 88h518z" />
    <glyph glyph-name="eightsuperior" unicode="&#x2078;" horiz-adv-x="675" 
d="M338 1071h199q74 0 86 68l18 114q5 31 -9 45t-57 15l-169 -2q-90 0 -103 -68l-20 -115q-6 -33 6 -45t49 -12zM633 1616h-180q-76 0 -88 -68l-17 -94q-6 -35 6 -47t60 -12h170q74 0 86 67l18 94q4 36 -8 48t-47 12zM539 983h-215q-72 0 -109 41t-25 104l21 119
q12 76 96 105q-27 16 -42 47t-9 61l18 103q12 67 60 103t117 36h198q69 0 107 -42t26 -104l-20 -102q-12 -68 -88 -106q31 -10 47 -39t10 -68l-20 -119q-12 -70 -56 -102q-45 -37 -116 -37z" />
    <glyph glyph-name="ninesuperior" unicode="&#x2079;" horiz-adv-x="667" 
d="M444 1616q-32 0 -56 -18t-30 -48l-24 -141q-10 -59 57 -59h82q55 0 115 32l61 25l29 149q12 59 -55 60h-179zM520 1073q34 1 56 19t28 47l35 202l-66 -43q-49 -33 -108 -32h-92q-68 0 -105 40t-26 103l26 156q12 67 58 103t118 36h195q69 0 107 -41t26 -104l-78 -435
q-12 -70 -55 -102q-45 -37 -117 -37h-186q-70 0 -106 39t-25 106l8 54h92l-10 -51q-12 -59 55 -60h170z" />
    <glyph glyph-name="Euro" unicode="&#x20ac;" horiz-adv-x="1327" 
d="M702 1483h345q137 0 203 -81t40 -220l-24 -138h-99l27 146q37 205 -154 205h-346q-92 -1 -154 -57t-81 -156l-35 -199h563l-14 -88h-565l-52 -293h564l-15 -88h-563l-41 -229q-37 -205 154 -205h346q92 0 154 56t81 157l25 137h98l-26 -145q-25 -139 -109 -215t-227 -76
h-346q-139 0 -203 78q-63 78 -39 221l39 221h-168l14 88h170l51 293h-168l15 88h168l37 207q25 139 109 216t226 77z" />
    <glyph glyph-name="trademark" unicode="&#x2122;" horiz-adv-x="1501" 
d="M1548 1475l-129 -738h-65l114 652l-327 -537h-51l-136 537l-114 -652h-66l129 738h80l143 -547l338 547h84zM766 1413h-215l-119 -676h-70l119 676h-215l10 62h500z" />
    <glyph glyph-name="oneeighth" unicode="&#x215b;" horiz-adv-x="1302" 
d="M1090 1473l-1006 -1473h-92l1003 1473h95zM217 758l109 616l-142 -49l17 84l157 61h76l-125 -712h-92zM778 84h199q74 0 86 68l18 114q6 32 -8 46t-57 14l-170 -2q-90 0 -103 -68l-20 -115q-6 -33 6 -45t49 -12zM1073 629h-180q-76 0 -88 -68l-17 -94q-6 -35 6 -47
t60 -12h170q74 0 86 67l18 94q4 35 -8 47t-47 13zM764 -2q-72 0 -109 40t-24 103l20 119q12 76 97 105q-27 16 -42 47t-10 61l19 102q12 66 58 103t118 37h199q70 1 108 -41t25 -105l-21 -102q-12 -68 -88 -107q29 -10 47 -38q16 -29 10 -68l-20 -119q-23 -137 -172 -137
h-215z" />
    <glyph glyph-name="threeeighths" unicode="&#x215c;" horiz-adv-x="1564" 
d="M1360 1468l-1006 -1472h-94l1006 1472h94zM281 842h192q72 0 84 67l18 115q6 31 -8 45t-57 14h-182l14 82h174q74 0 86 68l19 94q3 35 -9 47t-45 12h-174q-76 0 -88 -67l-8 -49h-92l10 65q8 61 56 101t120 39h191q70 0 108 -41t25 -105l-19 -102q-12 -63 -86 -105
q29 -10 46 -39t12 -67l-21 -119q-24 -139 -172 -139h-205q-72 0 -108 41t-25 104l10 58h95l-15 -62q-8 -31 5 -44t49 -13zM1053 84h198q74 0 86 68l19 114q6 32 -8 46t-58 14l-170 -2q-90 0 -102 -68l-21 -115q-5 -33 7 -45t49 -12zM1348 629h-181q-76 0 -88 -68l-16 -94
q-6 -35 6 -47t59 -12h170q74 0 86 67l19 94q4 35 -8 47t-47 13zM1038 -2q-72 0 -108 40t-25 103l21 119q12 76 96 105q-27 16 -42 47t-9 61l18 102q13 66 59 103t117 37h199q70 1 108 -41t25 -105l-20 -102q-12 -68 -88 -107q29 -10 47 -38q16 -29 10 -68l-21 -119
q-23 -137 -172 -137h-215z" />
    <glyph glyph-name="fiveeighths" unicode="&#x215d;" horiz-adv-x="1564" 
d="M1358 1477l-1006 -1475h-94l1006 1475h94zM463 1229h86q67 0 105 -41t26 -103l-33 -186q-24 -139 -172 -139h-194q-72 0 -109 40t-25 105l11 60h94l-10 -60q-10 -59 55 -59h180q71 0 84 65l29 168q10 59 -58 60h-71q-53 0 -121 -31l-59 -27l-88 31l63 361l479 4l-16 -88
h-391l-41 -238l69 45q53 33 107 33zM1053 84h198q74 0 86 68l19 114q6 32 -8 46t-58 14l-170 -2q-90 0 -102 -68l-21 -115q-5 -33 7 -45t49 -12zM1348 629h-181q-76 0 -88 -68l-16 -94q-6 -35 6 -47t59 -12h170q74 0 86 67l19 94q4 35 -8 47t-47 13zM1038 -2q-72 0 -108 40
t-25 103l21 119q12 76 96 105q-27 16 -42 47t-9 61l18 102q13 66 59 103t117 37h199q70 1 108 -41t25 -105l-20 -102q-12 -68 -88 -107q29 -10 47 -38q16 -29 10 -68l-21 -119q-23 -137 -172 -137h-215z" />
    <glyph glyph-name="seveneighths" unicode="&#x215e;" horiz-adv-x="1361" 
d="M1149 1473l-1006 -1473h-94l1006 1473h94zM715 1405l-473 -645h-107l459 624h-404l17 89h518zM838 84h198q74 0 86 68l19 114q5 32 -9 46t-57 14l-170 -2q-90 0 -102 -68l-21 -115q-6 -33 6 -45t50 -12zM1133 629h-181q-76 0 -88 -68l-16 -94q-6 -35 6 -47t59 -12h170
q74 0 86 67l19 94q4 35 -8 47t-47 13zM823 -2q-73 0 -109 40t-24 103l21 119q12 76 96 105q-27 16 -42 47t-9 61l18 102q12 66 60 103t116 37h199q69 1 107 -41t26 -105l-20 -102q-12 -68 -88 -107q31 -10 47 -38t10 -68l-21 -119q-23 -137 -172 -137h-215z" />
    <glyph glyph-name="minus" unicode="&#x2212;" horiz-adv-x="1019" 
d="M182 797h742l-15 -78h-741z" />
    <glyph glyph-name="infinity" unicode="&#x221e;" horiz-adv-x="1681" 
d="M1319 1026h-152q-88 0 -143 -49t-72 -139l-37 -209q-31 -180 146 -180h151q90 -1 152 57t80 160l31 151q18 93 -23 151t-133 58zM459 451h143q90 0 148 49q57 49 73 139l37 209q31 180 -147 180h-150q-94 0 -153 -56t-78 -157l-29 -156q-18 -94 24 -151t132 -57z
M1061 365q-70 1 -130 31t-77 71q-38 -45 -104 -73t-142 -27h-149q-139 1 -203 79t-39 222l29 155q26 139 110 216t226 77h149q70 0 132 -28t81 -72q35 44 110 74t136 28l143 -4q141 -4 205 -83t39 -218l-29 -156q-26 -139 -110 -216t-226 -76h-151z" />
    <glyph glyph-name="notequal" unicode="&#x2260;" horiz-adv-x="1021" 
d="M705 883l-189 -234h381l-14 -90h-441l-147 -182h-115l148 182h-187l15 90h245l191 234h-393l14 90h451l137 168h112l-135 -168h176l-14 -90h-235z" />
    <glyph glyph-name="fi" unicode="&#xfb01;" horiz-adv-x="1196" 
d="M1110 1108l-195 -1106h-92l195 1106h92zM1167 1374h-112l26 152h113zM709 1524h159l-14 -78l-156 2q-88 0 -154 -62t-79 -153l-23 -127h351l-15 -78h-348l-180 -1028h-90l180 1028h-197l15 78h198l23 135q20 133 108 208t222 75z" />
    <glyph glyph-name="fl" unicode="&#xfb02;" horiz-adv-x="1193" 
d="M1094 1526h86l-269 -1524h-86zM709 1524h159l-14 -78l-156 2q-88 0 -154 -62t-79 -153l-23 -127h351l-15 -78h-348l-180 -1028h-90l180 1028h-197l15 78h198l23 135q20 133 108 208t222 75z" />
    <glyph glyph-name="Q.ss01" horiz-adv-x="1327" 
d="M1042 1395h-405q-91 1 -153 -55t-81 -154l-157 -901q-37 -203 153 -203l406 -2q93 0 155 54t80 155l156 903q33 203 -154 203zM645 1483h408q139 0 203 -81t40 -220l-157 -897q-25 -141 -112 -216t-228 -75h-158l-43 -240h-98l43 240h-150q-139 0 -203 78q-63 78 -38 221
l157 897q25 139 110 216t226 77z" />
    <glyph glyph-name="zero.subs" horiz-adv-x="688" 
d="M340 -78q30 0 54 18t30 48l76 420q8 57 -56 57h-198q-32 1 -56 -17t-30 -47l-74 -421q-8 -57 55 -58h199zM248 555h213q69 0 107 -40t26 -103l-78 -437q-12 -65 -57 -101t-115 -36l-217 -2q-72 0 -109 41q-35 41 -22 105l74 436q25 137 178 137z" />
    <glyph glyph-name="one.subs" horiz-adv-x="391" 
d="M57 -160l109 615l-141 -49l16 83l158 62h75l-124 -711h-93z" />
    <glyph glyph-name="two.subs" horiz-adv-x="645" 
d="M238 557h188q70 0 108 -41t25 -104l-18 -105l-6 -24q-6 -22 -17 -36q-12 -13 -14 -17t-19 -15l-20 -12q-13 -6 -25 -10t-24 -11l-29 -12q-6 -2 -16 -7t-13 -5l-200 -78q-68 -27 -74 -55l-18 -101h413l-14 -88h-506l33 195l6 24q0 26 13 37q13 12 15 16t19 15l18 10
q14 7 28 11q13 4 17 6t5 2l28 12l18 8t11 4l199 78q72 29 77 53l21 99q6 33 -6 45t-47 12h-172q-74 0 -88 -68l-11 -43h-92l10 66q7 61 57 100t120 39z" />
    <glyph glyph-name="three.subs" horiz-adv-x="653" 
d="M313 -76q72 0 84 68l19 112q6 32 -8 46t-58 14h-182l14 82h174q74 0 86 67l19 95q4 35 -8 47t-45 12h-175q-76 0 -88 -68l-8 -49h-92l10 66q9 61 57 100t119 39h191q70 0 108 -41t25 -104l-18 -103q-12 -66 -86 -104q29 -10 46 -39t11 -68l-21 -116q-24 -140 -172 -140
h-204q-72 0 -109 41q-35 41 -22 105l10 55h92l-14 -59q-8 -31 5 -44t48 -14h192z" />
    <glyph glyph-name="four.subs" horiz-adv-x="706" 
d="M86 92h279l61 328zM557 6h-113l-28 -164h-94l28 164h-383l2 74l471 473h101l-82 -461h112z" />
    <glyph glyph-name="five.subs" horiz-adv-x="653" 
d="M303 309h86q68 0 106 -41t25 -102l-33 -184q-24 -140 -172 -140h-194q-72 0 -109 41q-35 41 -22 105l10 57h92l-10 -57q-10 -59 55 -60h180q35 0 57 18t27 48l29 166q10 59 -57 59h-72q-53 0 -121 -31l-59 -26l-88 31l63 360l479 4l-16 -88h-391l-41 -238l70 45
q53 33 106 33z" />
    <glyph glyph-name="six.subs" horiz-adv-x="667" 
d="M317 -80q33 0 58 18t31 48l24 145q10 59 -57 59h-82q-45 0 -117 -28l-59 -25l-31 -157q-12 -59 55 -60h178zM244 461q-68 0 -84 -66l-35 -194l70 47q43 31 106 31h92q68 0 105 -40t26 -104l-28 -164q-24 -139 -172 -139h-195q-72 0 -109 41q-35 41 -22 104l74 433
q12 66 58 102t118 37h184q70 0 108 -41t25 -105l-10 -53h-94l8 51q10 59 -55 60h-170z" />
    <glyph glyph-name="seven.subs" horiz-adv-x="614" 
d="M555 485l-473 -643h-105l457 623h-403l16 88h518z" />
    <glyph glyph-name="eight.subs" horiz-adv-x="675" 
d="M334 -74q74 0 86 68l18 112q6 32 -8 46t-57 14l-170 -2q-90 0 -103 -68l-20 -112q-6 -33 6 -45t49 -13h199zM432 469h-182q-76 0 -88 -68l-17 -94q-5 -35 7 -47t59 -12h170q76 0 88 67l18 95q4 35 -8 47t-47 12zM338 -162h-215q-72 0 -107 39t-24 107l18 116
q12 76 96 105q-28 16 -42 47t-9 61l19 103q12 66 59 102t117 37h199q69 0 107 -41t26 -104l-21 -103q-12 -68 -88 -106q31 -10 47 -39t10 -68l-20 -117q-12 -70 -55 -102q-45 -37 -117 -37z" />
    <glyph glyph-name="nine.subs" horiz-adv-x="667" 
d="M422 469h-178q-33 0 -57 -17t-29 -49l-25 -141q-10 -59 57 -59h82q55 0 115 33l62 24l28 150q12 59 -55 59zM319 -72q33 0 56 18t28 48l35 201l-65 -43q-49 -33 -109 -33h-92q-68 0 -104 40t-27 103l27 156q12 66 58 102t118 37h194q70 0 108 -41t25 -104l-77 -432
q-24 -140 -172 -140h-187q-69 0 -105 39t-26 107l8 51h92l-10 -49q-12 -59 56 -60h169z" />
    <glyph glyph-name="zero.tf" horiz-adv-x="1282" 
d="M393 80h369q92 0 154 56t81 157l158 897q37 205 -154 205h-368q-92 -1 -155 -57t-81 -156l-157 -897q-37 -205 153 -205zM756 -6h-371q-139 0 -203 78q-63 78 -39 221l158 897q25 139 110 216t226 77h369q136 0 202 -81t41 -220l-157 -897q-25 -139 -109 -215t-227 -76z
" />
    <glyph glyph-name="one.tf" horiz-adv-x="1282" 
d="M981 0h-850l14 88h390l229 1296l-408 -100l17 88l403 103h101l-244 -1387h362z" />
    <glyph glyph-name="two.tf" horiz-adv-x="1282" 
d="M651 1483h312q141 0 203 -79t38 -220l-33 -197q-5 -60 -30 -92q-13 -23 -23 -36t-40 -36t-36 -29t-43 -24l-49 -27q-29 -14 -61 -28l-531 -260q-16 -8 -53 -35q-58 -42 -69 -119l-41 -221h813l-15 -86h-911l55 328q2 6 8 38t22 53q17 21 25 37t38 36q28 22 32 26t45 25
l49 24l21 8q20 10 41 21l452 221q86 42 135 82t60 111l35 184q37 203 -148 203h-311q-93 -1 -157 -59t-76 -150l-13 -92h-98l18 102q51 291 336 291z" />
    <glyph glyph-name="three.tf" horiz-adv-x="1282" 
d="M395 80h361q92 0 156 57t77 152l43 254q29 170 -160 170h-372l16 88h365q106 0 152 43t61 137l36 209q37 203 -149 203h-328q-92 1 -153 -55t-80 -154l-17 -94h-98l19 102q51 291 335 291h328q141 0 201 -76t37 -223l-35 -207q-25 -150 -172 -219q53 -12 90 -77t22 -146
l-45 -252q-51 -289 -335 -289h-361q-139 0 -201 75t-38 222l16 94h98l-18 -102q-37 -203 149 -203z" />
    <glyph glyph-name="four.tf" horiz-adv-x="1282" 
d="M193 481h649l155 889zM1141 393h-213l-68 -393h-102l67 393h-768l13 80l907 1002h141l-174 -994h213z" />
    <glyph glyph-name="five.tf" horiz-adv-x="1282" 
d="M918 954q133 0 195 -76t38 -210l-68 -383q-51 -289 -335 -289h-324q-140 0 -202 75t-38 222l19 104h98l-20 -112q-37 -203 149 -203h324q92 0 153 55t80 154l68 383q36 192 -146 192h-170q-104 0 -227 -67l-143 -78l-95 29l127 725h877l-14 -89h-779l-104 -595l143 98
q94 66 224 65h170z" />
    <glyph glyph-name="six.tf" horiz-adv-x="1282" 
d="M436 80h324q92 0 153 55t80 154l58 329q35 203 -154 203h-170q-102 0 -227 -67l-146 -78l-67 -393q-33 -203 149 -203zM977 1393h-301q-92 1 -154 -55t-80 -154l-75 -434l147 98q96 63 219 63h172q137 1 201 -75t39 -224l-58 -329q-51 -289 -335 -289h-324
q-140 0 -202 75t-38 222l158 901q51 291 336 291h301q137 0 201 -76t39 -223l-19 -105h-98l20 111q37 203 -149 203z" />
    <glyph glyph-name="seven.tf" horiz-adv-x="1282" 
d="M1274 1419l-895 -1419h-111l877 1386h-846l14 89h967z" />
    <glyph glyph-name="eight.tf" horiz-adv-x="1282" 
d="M391 84h379q92 0 154 55q61 55 80 154l43 246q13 86 -19 129t-143 43l-365 4q-205 2 -235 -183l-43 -245q-37 -203 149 -203zM526 799h363q106 0 155 43t64 133l37 215q34 203 -150 203l-344 2q-92 1 -153 -55t-80 -154l-37 -215q-19 -96 9 -134t136 -38zM764 -6h-379
q-139 0 -201 75t-39 222l43 246q14 82 70 143t119 78q-119 68 -94 221l36 213q49 291 336 291h346q137 0 201 -76t39 -223l-37 -215q-29 -156 -174 -219q53 -12 90 -74t23 -148l-43 -245q-51 -289 -336 -289z" />
    <glyph glyph-name="nine.tf" horiz-adv-x="1282" 
d="M965 1395h-324q-92 1 -156 -57t-77 -152l-52 -301q-33 -203 148 -203h168q96 0 227 68l150 77l65 365q37 203 -149 203zM420 82h301q92 0 153 55t80 154l82 465l-149 -99q-102 -66 -221 -65h-168q-138 0 -200 77t-38 222l53 301q51 291 336 291h324q137 0 201 -76
t38 -223l-157 -901q-51 -289 -336 -289h-301q-142 0 -202 75t-36 222l19 104h98l-27 -110q-24 -99 16 -151t134 -52z" />
    <glyph glyph-name="zero.dnom" horiz-adv-x="688" 
d="M168 80h199q31 0 55 17t29 48l75 422q8 57 -55 58h-199q-32 1 -56 -17t-30 -47l-73 -424q-8 -57 55 -57zM274 715h213q70 0 108 -40t26 -104l-78 -438q-25 -135 -172 -135l-217 -2q-72 0 -109 39t-25 104l76 439q25 137 178 137z" />
    <glyph glyph-name="one.dnom" horiz-adv-x="391" 
d="M86 0l109 616l-142 -49l17 84l157 62h76l-125 -713h-92z" />
    <glyph glyph-name="two.dnom" horiz-adv-x="645" 
d="M264 717h189q69 0 107 -41t26 -105l-19 -104l-6 -25q-7 -26 -17 -38q-12 -11 -14 -15t-18 -14l-20 -13q-12 -6 -24 -10t-26 -10l-28 -12q-15 -5 -21 -9t-8 -4l-201 -77q-68 -27 -73 -56l-19 -102h414l-14 -86h-506l30 194l7 25q7 29 17 39t13 14q2 4 19 15l18 10
q36 18 49 18l29 13q6 2 16 7t13 5l198 78q72 29 78 53l21 98q6 33 -6 45t-48 13h-172q-72 0 -88 -68l-10 -43h-92l10 66q8 61 56 100t120 39z" />
    <glyph glyph-name="three.dnom" horiz-adv-x="653" 
d="M145 82h193q72 0 84 68l18 114q6 31 -8 45t-57 15h-182l14 82h174q76 0 88 67l18 94q4 35 -8 47t-45 13h-174q-76 0 -88 -68l-8 -49h-92l10 65q8 61 57 101t119 39h191q69 0 107 -41t26 -105l-19 -102q-12 -66 -86 -105q29 -10 47 -38q16 -29 11 -68l-21 -119
q-23 -137 -172 -137h-205q-73 0 -109 39t-24 104l10 58h95l-17 -62q-8 -31 5 -44t48 -13z" />
    <glyph glyph-name="four.dnom" horiz-adv-x="706" 
d="M113 252h278l62 328zM584 166h-113l-29 -166h-94l29 166h-383l2 74l471 473h100l-82 -461h113z" />
    <glyph glyph-name="five.dnom" horiz-adv-x="653" 
d="M330 469h86q68 0 106 -41t25 -102l-33 -187q-12 -70 -55 -102q-45 -37 -117 -37h-195q-73 0 -109 41t-24 104l11 60h94l-10 -60q-10 -59 55 -59h180q34 0 56 18t28 48l29 167q10 59 -58 60h-71q-53 0 -121 -31l-60 -26l-88 30l64 361l479 4l-16 -88h-391l-41 -238l69 45
q53 33 107 33z" />
    <glyph glyph-name="six.dnom" horiz-adv-x="667" 
d="M168 84h178q34 0 58 18t30 48l25 147q10 59 -58 59h-82q-45 0 -116 -28l-60 -25l-30 -160q-12 -59 55 -59zM272 627q-66 0 -84 -66l-34 -194l69 47q43 31 107 30h92q68 0 104 -40t27 -103l-29 -166q-23 -137 -172 -137h-194q-72 0 -109 40t-24 103l75 434q12 66 58 103
t118 37h185q69 0 107 -41t26 -105l-10 -53h-95l9 51q10 59 -56 60h-170z" />
    <glyph glyph-name="seven.dnom" horiz-adv-x="614" 
d="M582 645l-473 -645h-107l459 625h-404l17 88h518z" />
    <glyph glyph-name="eight.dnom" horiz-adv-x="675" 
d="M164 84h198q74 0 87 68l18 114q5 32 -9 46t-57 14l-170 -2q-90 0 -102 -68l-20 -115q-6 -33 6 -45t49 -12zM459 629h-180q-76 0 -89 -68l-16 -94q-6 -35 6 -47t60 -12h170q74 0 86 67l18 94q4 35 -8 47t-47 13zM150 -2q-72 0 -109 40t-25 103l21 119q12 76 96 105
q-27 16 -42 47t-9 61l18 102q12 66 58 103t118 37h199q69 1 107 -41t26 -105l-20 -102q-12 -68 -88 -107q29 -10 47 -38q16 -29 10 -68l-20 -119q-23 -137 -172 -137h-215z" />
    <glyph glyph-name="nine.dnom" horiz-adv-x="667" 
d="M272 629q-32 1 -56 -17t-30 -49l-24 -141q-10 -59 57 -60h82q55 0 115 33l61 25l29 149q12 59 -55 60h-179zM178 86h170q34 0 56 18t28 48l35 202l-66 -43q-49 -33 -108 -32h-92q-70 -1 -107 39t-26 104l26 156q12 66 60 102t116 37h195q69 0 107 -41t26 -105l-78 -434
q-23 -137 -172 -137h-186q-70 0 -106 38t-25 105l8 54h92l-8 -52q-10 -59 55 -59z" />
    <glyph glyph-name="zero.numr" horiz-adv-x="688" 
d="M303 842h199q30 0 54 17t30 48l76 422q8 57 -56 57h-198q-32 0 -56 -17t-30 -46l-74 -424q-8 -57 55 -57zM623 1477q69 0 107 -40t26 -104l-78 -438q-25 -137 -172 -137l-217 -2q-72 0 -109 40t-24 105l75 438q25 137 179 138h213z" />
    <glyph glyph-name="one.numr" horiz-adv-x="391" 
d="M219 760l109 616l-142 -49l17 84l157 62h76l-125 -713h-92z" />
    <glyph glyph-name="two.numr" horiz-adv-x="645" 
d="M575 1384h-172q-72 1 -88 -67l-10 -43h-92l10 65q9 61 57 101t119 39h189q70 0 108 -41t25 -105l-19 -104l-6 -25q-7 -26 -17 -38q-11 -11 -13 -15t-19 -14l-20 -13q-13 -6 -25 -10t-19 -7t-11 -5t-11 -5q-6 -3 -12 -5l-230 -91q-68 -27 -73 -55l-19 -102h414l-14 -88
h-508l33 196l6 25q7 26 17 38q11 11 13 15t19 14l18 11q12 6 25 10l280 111q72 29 78 53l21 98q6 33 -6 45t-48 12z" />
    <glyph glyph-name="three.numr" horiz-adv-x="653" 
d="M283 844h192q72 0 84 67l19 115q6 31 -8 45t-58 14h-182l14 82h174q74 0 86 68l19 94q3 35 -9 47t-45 13h-174q-76 0 -88 -68l-8 -49h-92l10 65q8 61 57 101t119 39h191q70 0 108 -41t25 -105l-19 -102q-12 -66 -86 -105q31 -10 47 -39t11 -67l-21 -119q-12 -70 -55 -102
q-45 -37 -117 -37h-205q-72 0 -108 40t-25 105l11 58h94l-15 -62q-15 -57 54 -57z" />
    <glyph glyph-name="four.numr" horiz-adv-x="706" 
d="M248 1014h278l62 327zM719 928h-113l-28 -166h-95l29 166h-385l2 73l473 474h100l-81 -461h112z" />
    <glyph glyph-name="five.numr" horiz-adv-x="653" 
d="M465 1231h86q67 0 105 -41t26 -103l-33 -186q-12 -70 -55 -102q-45 -37 -117 -37h-194q-72 0 -109 41t-24 104l10 60h94l-10 -60q-10 -59 55 -59h180q33 0 56 18t28 47l29 168q10 59 -57 60h-72q-53 0 -121 -31l-59 -27l-88 31l63 361l479 4l-16 -88h-391l-41 -238l69 45
q53 33 107 33z" />
    <glyph glyph-name="six.numr" horiz-adv-x="667" 
d="M301 840h178q33 0 58 18t30 47l25 148q10 59 -57 59h-82q-45 0 -117 -29l-60 -24l-30 -160q-12 -59 55 -59zM575 1382h-169q-68 0 -84 -65l-35 -195l69 47q43 31 107 31h92q69 0 105 -40t26 -103l-29 -166q-24 -141 -172 -139h-194q-72 0 -109 40t-24 105l75 434
q11 66 59 103t118 36h184q70 0 108 -40t25 -105l-10 -53h-94l8 51q10 59 -56 59z" />
    <glyph glyph-name="seven.numr" horiz-adv-x="614" 
d="M717 1407l-473 -645h-107l459 624h-403l16 89h518z" />
    <glyph glyph-name="eight.numr" horiz-adv-x="675" 
d="M299 846h199q74 0 86 67l18 115q6 31 -8 45t-57 14l-170 -2q-90 0 -103 -67l-20 -115q-6 -33 6 -45t49 -12zM594 1391h-180q-76 0 -88 -68l-17 -94q-6 -35 6 -47t60 -13h170q74 0 86 68l18 94q4 35 -8 47t-47 13zM500 758h-215q-72 0 -109 41t-24 104l20 119
q12 76 96 104q-27 16 -42 47t-9 62l19 102q12 66 58 103t118 37h198q70 1 108 -41t25 -105l-20 -102q-12 -68 -88 -107q29 -10 46 -39t11 -67l-20 -119q-24 -139 -172 -139z" />
    <glyph glyph-name="nine.numr" horiz-adv-x="667" 
d="M408 1391q-33 1 -57 -17t-29 -49l-25 -141q-10 -59 57 -60h82q55 0 115 33l61 25l29 149q12 59 -55 60h-178zM313 848h170q33 0 56 18t28 47l35 203l-65 -43q-49 -33 -109 -33h-92q-70 0 -107 40t-26 104l26 155q11 66 59 103t118 37h194q70 0 108 -41t25 -105l-78 -434
q-24 -139 -172 -139h-186q-70 0 -106 39t-25 106l8 53h92l-8 -51q-10 -59 55 -59z" />
    <glyph glyph-name="numbersign.tf" horiz-adv-x="1282" 
d="M932 958h-330l-184 -417h332zM1026 958l-184 -417h235l-12 -76h-256l-203 -465h-92l203 465h-332l-203 -465h-92l203 465h-244l12 76h265l182 417h-234l15 76h252l192 441h94l-192 -441h330l192 441h94l-192 -441h246l-15 -76h-264z" />
    <glyph glyph-name="florin.tf" horiz-adv-x="1282" 
d="M297 0h-150l15 88h141q188 0 223 203l88 510h-313l16 86h314l51 295q25 139 110 216t226 77h186l-14 -89l-180 3q-94 -1 -154 -57t-78 -156l-51 -287h354l-16 -86h-354l-90 -518q-21 -131 -107 -208t-217 -77z" />
    <glyph glyph-name="cent.tf" horiz-adv-x="1282" 
d="M475 299h111l157 895l-104 -2q-194 -8 -231 -213l-84 -479q-37 -201 151 -201zM940 1194h-117l-157 -895h104q90 0 154 53t82 156l6 35h96l-6 -43q-18 -127 -114 -210t-226 -83h-115l-35 -207h-77l34 207h-102q-129 0 -198 84t-44 215l86 479q25 135 116 214t220 79h111
l33 195h77l-32 -195h106q131 0 200 -84t44 -215l-6 -35h-97l9 45q18 93 -26 149t-126 56z" />
    <glyph glyph-name="currency.tf" horiz-adv-x="1282" 
d="M868 1108h-243q-93 0 -155 -55t-77 -150l-53 -307q-37 -205 149 -205h244q96 1 157 59t79 154l53 307q35 197 -154 197zM725 303h-244q-102 0 -166 45l-176 -155l-61 69l178 156q-35 74 -16 186l53 307q18 111 78 183l-121 145l69 61l119 -147q76 51 191 51h243
q104 0 170 -47l172 152l62 -70l-172 -156q33 -70 14 -180l-53 -307q-18 -109 -80 -184l123 -150l-70 -61l-123 151q-76 -49 -190 -49z" />
    <glyph glyph-name="dollar.tf" horiz-adv-x="1282" 
d="M1010 457q6 35 6 75t-17 56l-18 22q-6 8 -29 18t-32 13l-189 51l-108 -616h127q94 0 156 58t75 155zM375 994q0 -72 37 -97l22 -16q10 -7 32 -14t26 -7t13 -3t17 -5l148 -41l102 584l-133 -4q-97 -5 -157 -59t-79 -154l-24 -140q-4 -18 -4 -44zM752 -6h-134l-30 -174h-94
l30 174h-127q-139 0 -202 78t-39 221l22 127h101l-25 -135q-37 -205 149 -205h140l112 639l-123 35q-98 26 -148 52t-78 86t-9 161l25 137q26 139 110 216t223 77h131l31 174h94l-30 -174h104q137 0 203 -81t41 -220l-19 -105h-100l20 113q37 205 -149 205h-115l-106 -607
l119 -32q145 -40 203 -98t34 -201l-31 -172q-25 -139 -109 -215t-224 -76z" />
    <glyph glyph-name="Euro.tf" horiz-adv-x="1282" 
d="M702 1483h342q139 0 204 -81t40 -220l-24 -138h-99l27 146q37 205 -154 205h-344q-92 -1 -154 -57t-81 -156l-35 -199h561l-14 -88h-563l-52 -293h562l-15 -88h-561l-41 -229q-37 -205 154 -205h344q92 0 154 56t81 157l25 137h98l-27 -145q-24 -139 -108 -215t-227 -76
h-344q-139 0 -203 78q-63 78 -39 221l39 221h-168l14 88h170l51 293h-168l15 88h168l37 207q25 139 109 216t226 77z" />
    <glyph glyph-name="sterling.tf" horiz-adv-x="1282" 
d="M729 1483h277q136 0 202 -81t41 -220l-24 -140h-99l27 148q37 205 -154 205h-272q-93 -1 -155 -57t-80 -156l-74 -424h481l-16 -88h-482l-102 -582h764l-14 -88h-1026l14 88h104q55 0 68 62l92 520h-164l17 88h163l76 432q25 139 110 216t226 77z" />
    <glyph glyph-name="yen.tf" horiz-adv-x="1282" 
d="M762 655h297l-17 -88h-346l-4 -6l-24 -141h350l-17 -88h-350l-59 -332h-98l59 332h-350l16 88h350l25 141l-2 6h-348l16 88h297l-319 820h106l309 -820l596 820h121z" />
    </font>
</defs>
</svg>
