<?xml version="1.0" standalone="no"?>
<!DOCTYPE svg PUBLIC "-//W3C//DTD SVG 1.1//EN" "http://www.w3.org/Graphics/SVG/1.1/DTD/svg11.dtd" >
<svg xmlns="http://www.w3.org/2000/svg">
<metadata>
Created by FontPrep 20130207 at Wed Jan 13 07:20:13 2016
 By Matthew Higley
Copyright A~A^(c) 2013 by Mattox Shuler. All rights reserved.
</metadata>
<defs>
<font id="367983e52b9609cbc5225735e993082c" horiz-adv-x='1024' >
  <font-face 
    font-family="Industry-Black"
    font-weight="900"
    font-stretch="normal"
    units-per-em="2048"
    panose-1="0 0 0 0 0 0 0 0 0 0"
    ascent="1616"
    descent="-432"
    x-height="1106"
    cap-height="1475"
    bbox="-305 -756 2011 1985"
    underline-thickness="102"
    underline-position="-100"
    unicode-range="U+0020-FB02"
  />
<missing-glyph horiz-adv-x="428" 
 />
    <glyph glyph-name=".notdef" horiz-adv-x="428" 
 />
    <glyph glyph-name=".null" horiz-adv-x="0" 
 />
    <glyph glyph-name="nonmarkingreturn" horiz-adv-x="681" 
 />
    <glyph glyph-name="space" unicode=" " horiz-adv-x="540" 
 />
    <glyph glyph-name="exclam" unicode="!" horiz-adv-x="550" 
d="M438 0h-325v334h325v-334zM395 528h-239l-64 947h367z" />
    <glyph glyph-name="quotedbl" unicode="&#x22;" horiz-adv-x="987" 
d="M883 1475l-80 -543h-170l-80 543h330zM434 1475l-80 -543h-170l-80 543h330z" />
    <glyph glyph-name="numbersign" unicode="#" horiz-adv-x="1644" 
d="M1001 858h-284l-74 -217h285zM1446 641v-313h-303l-111 -328h-323l110 328h-282l-111 -328h-324l111 328h-154v313h263l73 217h-194v313h301l102 304h322l-103 -304h285l102 304h322l-102 -304h157v-313h-264l-74 -217h197z" />
    <glyph glyph-name="dollar" unicode="$" horiz-adv-x="1277" 
d="M834 356v146q0 31 -46 39l-43 8v-230h43q46 0 46 37zM459 1114v-133q0 -27 43 -37l26 -2v211l-26 -2q-43 -4 -43 -37zM1178 569v-290q0 -127 -81 -208t-210 -81h-117v-207h-270v207h-97q-129 0 -209 81t-81 208v202h331v-125q0 -37 45 -37h35v275l-118 24
q-121 25 -208 106t-87 191v279q0 125 79 209q80 82 207 82h99v207h270v-207h90q127 0 209 -82t82 -209v-188h-334v110q0 37 -43 37h-29v-258l142 -29q121 -26 208 -106t87 -191z" />
    <glyph glyph-name="percent" unicode="%" horiz-adv-x="1267" 
d="M1024 178v201q0 35 -27 35h-86q-31 0 -30 -35v-201q0 -35 30 -35h86q27 0 27 35zM854 565h201q59 0 96 -37t37 -94v-311q0 -57 -36 -93t-95 -36h-205q-59 0 -95 36t-36 93v311q0 57 37 94t96 37zM377 1096v200q0 35 -27 35h-86q-31 0 -31 -35v-200q0 -35 31 -35h86
q27 0 27 35zM1077 1475l-624 -1475h-277l627 1475h274zM207 1483h201q59 0 96 -37t37 -94v-312q0 -57 -37 -94t-94 -37h-205q-57 0 -94 37t-37 94v312q0 57 37 94t96 37z" />
    <glyph glyph-name="ampersand" unicode="&#x26;" horiz-adv-x="1347" 
d="M834 600h-318q-55 0 -55 -43v-203q0 -41 43 -41h284q45 0 46 41v246zM1317 600h-139v-319q0 -127 -81 -208t-210 -81h-481q-129 0 -210 81t-81 208v249q0 147 143 222q-127 78 -127 221v221q0 127 82 209t209 82h383q127 0 207 -83t80 -208v-150h-344v76q0 41 -43 41
h-187q-43 0 -43 -41v-174q0 -41 39 -41h803v-305z" />
    <glyph glyph-name="quotesingle" unicode="'" horiz-adv-x="536" 
d="M434 1475l-80 -543h-170l-80 543h330z" />
    <glyph glyph-name="parenleft" unicode="(" horiz-adv-x="831" 
d="M506 1235v-1090q0 -41 43 -41h184v-323h-282q-127 0 -207 82t-80 207v1245q0 127 80 209t207 82h282v-326l-184 -4q-43 0 -43 -41z" />
    <glyph glyph-name="parenright" unicode=")" horiz-adv-x="831" 
d="M100 1606h283q127 0 209 -82t82 -209v-1245q0 -125 -82 -207t-209 -82h-283v323h185q43 0 43 41v1090q0 41 -43 41l-185 4v326z" />
    <glyph glyph-name="asterisk" unicode="*" horiz-adv-x="872" 
d="M770 856l-217 -158l-119 287l-115 -285l-221 156l234 203l-305 20l79 258l269 -163l-72 301h268l-71 -301l262 161l86 -254l-311 -24z" />
    <glyph glyph-name="plus" unicode="+" horiz-adv-x="1040" 
d="M375 373v239h-266v291h266v240h293v-240h266v-291h-266v-239h-293z" />
    <glyph glyph-name="comma" unicode="," horiz-adv-x="530" 
d="M426 332v-240q0 -68 -107 -198l-141 -175h-123l170 281h-121v332h322z" />
    <glyph glyph-name="hyphen" unicode="-" horiz-adv-x="972" 
d="M877 827v-309h-781v309h781z" />
    <glyph glyph-name="period" unicode="." horiz-adv-x="530" 
d="M426 0h-322v332h322v-332z" />
    <glyph glyph-name="slash" unicode="/" horiz-adv-x="1107" 
d="M1085 1618l-725 -1759h-337l725 1759h337z" />
    <glyph glyph-name="zero" unicode="0" horiz-adv-x="1292" 
d="M459 1116v-758q0 -41 43 -41h286q43 0 43 41v758q0 41 -43 41h-286q-43 0 -43 -41zM887 -6h-484q-129 0 -209 81t-81 208v913q0 127 82 209t208 82h484q127 0 209 -82t82 -209v-913q0 -127 -81 -208t-210 -81z" />
    <glyph glyph-name="one" unicode="1" horiz-adv-x="882" 
d="M352 0v1116l-274 -92v283l350 168h268v-1475h-344z" />
    <glyph glyph-name="two" unicode="2" horiz-adv-x="1243" 
d="M457 1102v-82h-334v168q0 121 88 209t205 88h444q121 0 209 -88t88 -209v-273q0 -109 -83 -183t-212 -111l-350 -107q-37 -10 -48 -21t-11 -42v-125h708v-326h-1052v539q0 109 83 183t211 112l351 106q37 10 48 22t11 44v98q0 55 -59 55h-238q-59 0 -59 -57z" />
    <glyph glyph-name="three" unicode="3" horiz-adv-x="1245" 
d="M733 311q61 0 62 58v170q0 59 -74 59h-256v305h256q29 0 43 12t14 48v141q0 57 -61 57h-205q-59 0 -59 -57v-86h-344v170q0 121 88 209t209 88h423q119 0 208 -89t89 -208v-215q0 -143 -127 -221q143 -74 144 -222v-243q0 -121 -87 -208t-206 -87h-457q-123 0 -210 87
t-87 208v170h344l-4 -88q-2 -29 14 -43t46 -15h237z" />
    <glyph glyph-name="four" unicode="4" horiz-adv-x="1343" 
d="M770 575v476l-340 -476h340zM1307 270h-205v-270h-332v270h-649l-74 260l688 945h367v-900h205v-305z" />
    <glyph glyph-name="five" unicode="5" horiz-adv-x="1316" 
d="M1143 1149h-654v-330l19 25q111 123 237 123h150q121 0 210 -89t89 -208v-383q0 -121 -87 -208t-210 -87h-479q-123 0 -210 87t-87 208v170h344v-82q0 -57 59 -58h262q59 0 60 58v231q0 57 -58 58h-83q-102 0 -199 -54l-19 -10l-344 98v777h1000v-326z" />
    <glyph glyph-name="six" unicode="6" horiz-adv-x="1296" 
d="M774 315q59 0 60 58v192q0 57 -60 58h-104q-96 0 -197 -54l-18 -10l-2 -186q0 -57 59 -58h262zM762 1155h-248q-59 0 -59 -57v-320l18 25q113 125 240 125h174q121 0 209 -88t88 -205v-348q0 -121 -87 -208t-210 -87h-479q-123 0 -210 87t-87 208v901q0 121 88 209
t209 88h464q121 0 209 -88t88 -209v-141h-344l-4 51q-6 57 -59 57z" />
    <glyph glyph-name="seven" unicode="7" horiz-adv-x="1206" 
d="M84 1149v326h1079v-269l-700 -1206h-381l670 1149h-668z" />
    <glyph glyph-name="eight" unicode="8" horiz-adv-x="1263" 
d="M748 600h-226q-72 0 -71 -57v-172q0 -57 59 -58h250q59 0 59 58v172q1 57 -71 57zM739 1161h-213q-59 0 -59 -57v-139q0 -35 12 -47t41 -13h225q29 1 41 13t13 47v139q-1 57 -60 57zM1143 1188v-213q0 -143 -127 -221q143 -74 143 -222v-245q0 -121 -87 -208t-210 -87
h-467q-123 0 -210 87t-87 208v245q0 147 144 222q-127 78 -127 221v213q0 121 88 209t209 88h434q121 0 209 -88t88 -209z" />
    <glyph glyph-name="nine" unicode="9" horiz-adv-x="1296" 
d="M772 1157h-262q-59 0 -59 -57v-191q0 -57 59 -57h104q117 0 203 53l17 10l-3 185q0 57 -59 57zM774 317q59 0 60 58v321l-17 -24q-117 -123 -237 -123h-174q-121 0 -209 88t-88 209v342q0 121 88 209t209 88h479q121 0 209 -88t88 -209v-901q0 -121 -87 -208t-210 -87
h-465q-119 0 -206 87t-87 208v141h344l-4 -53q-2 -29 14 -43t47 -15h246z" />
    <glyph glyph-name="colon" unicode=":" horiz-adv-x="530" 
d="M426 0h-322v332h322v-332zM426 774h-322v332h322v-332z" />
    <glyph glyph-name="semicolon" unicode=";" horiz-adv-x="530" 
d="M426 774h-322v332h322v-332zM426 332v-240q0 -68 -107 -198l-141 -175h-123l170 281h-121v332h322z" />
    <glyph glyph-name="less" unicode="&#x3c;" horiz-adv-x="1040" 
d="M100 616v254l818 361v-295l-488 -193l488 -190v-295z" />
    <glyph glyph-name="equal" unicode="=" horiz-adv-x="1040" 
d="M934 692v-305h-825v305h825zM934 1145v-305h-825v305h825z" />
    <glyph glyph-name="greater" unicode="&#x3e;" horiz-adv-x="1040" 
d="M612 743l-487 193v295l817 -361v-254l-817 -358v295z" />
    <glyph glyph-name="question" unicode="?" horiz-adv-x="1159" 
d="M664 322v-320h-345v320h345zM1092 1194v-289q0 -56 -31 -90l-33 -39q-16 -18 -49 -43l-111 -74q-43 -29 -61 -36l-92 -58q-43 -29 -43 -49v-59h-344v143q0 45 39 90l39 43q24 24 104 80l117 80l86 55q43 37 43 41v125q0 41 -43 41h-297q-43 0 -43 -41v-100h-344v178
q-1 127 79 209t207 82l486 2q127 0 209 -82t82 -209z" />
    <glyph glyph-name="at" unicode="@" horiz-adv-x="2039" 
d="M920 754h-2q-39 0 -39 -35v-311q0 -35 39 -35h2q72 0 159 43l39 18v258l-39 19q-88 43 -159 43zM1882 1184v-791q0 -127 -82 -209t-209 -82h-430l-41 148l-35 -45q-39 -49 -95 -79t-105 -30h-56q-127 0 -207 83t-79 208v352q0 125 80 208t206 83h56q49 0 108 -31t97 -77
l34 -45l41 147h299v-737h131q45 0 45 112v824q0 25 -28 24h-1182q-29 0 -29 -24v-1305q0 -25 29 -24h1061v-232h-1045q-126 0 -206 83t-80 208v1239q0 127 80 209t206 82l1145 -8q127 0 209 -82t82 -209z" />
    <glyph glyph-name="A" unicode="A" horiz-adv-x="1366" 
d="M805 625l-125 471l-129 -471h254zM891 299h-430l-82 -299h-356l458 1475h402l458 -1475h-370z" />
    <glyph glyph-name="B" unicode="B" horiz-adv-x="1325" 
d="M877 367v200q-1 19 -7 29t-12 10h-364v-278l340 -2q43 0 43 41zM860 952v164q0 41 -43 41h-323v-248l327 2q23 1 31 7t8 34zM1206 1188v-211q0 -143 -127 -221q143 -74 144 -221v-244q0 -127 -82 -209t-209 -82h-782v1475l765 4q127 0 209 -82t82 -209z" />
    <glyph glyph-name="C" unicode="C" horiz-adv-x="1269" 
d="M891 -6h-488q-129 0 -209 81t-81 208v913q0 127 82 209t208 82h488q127 0 209 -82t82 -209v-266h-344v188q0 41 -43 41h-291q-43 0 -43 -41v-758q0 -41 43 -41h291q43 0 43 41v189h344v-266q0 -127 -81 -208t-210 -81z" />
    <glyph glyph-name="D" unicode="D" horiz-adv-x="1343" 
d="M494 330h346q43 0 43 41v741q0 41 -43 41h-346v-823zM1225 1188v-897q0 -127 -80 -209t-207 -82h-788v1475l788 4q127 0 207 -82t80 -209z" />
    <glyph glyph-name="E" unicode="E" horiz-adv-x="1226" 
d="M150 1475h983v-326h-639v-231h510v-328h-510v-264h639v-326h-983v1475z" />
    <glyph glyph-name="F" unicode="F" horiz-adv-x="1189" 
d="M150 0v1475h983v-326h-639v-244h510v-325h-510v-580h-344z" />
    <glyph glyph-name="G" unicode="G" 
d="M856 981v135q0 41 -45 41h-309q-43 0 -43 -41v-756q0 -43 43 -43h309q45 0 45 41v177h-235v309h579v-563q0 -127 -81 -208t-210 -81h-506q-129 0 -209 81t-81 208v913q0 127 82 209t208 82h506q127 0 209 -82t82 -209v-213h-344z" />
    <glyph glyph-name="H" unicode="H" horiz-adv-x="1421" 
d="M150 0v1475h344v-557h432v557h344v-1475h-344v590h-432v-590h-344z" />
    <glyph glyph-name="I" unicode="I" horiz-adv-x="645" 
d="M150 0v1475h344v-1475h-344z" />
    <glyph glyph-name="J" unicode="J" horiz-adv-x="1202" 
d="M1073 1475v-1194q0 -127 -81 -208t-210 -81h-452q-129 0 -208 82t-79 207v356h344v-279q0 -41 43 -41h256q43 0 43 41v1117h344z" />
    <glyph glyph-name="K" unicode="K" horiz-adv-x="1359" 
d="M487 0h-337v1475h337v-629l437 629h399l-432 -574l448 -901h-385l-295 598l-172 -229v-369z" />
    <glyph glyph-name="L" unicode="L" horiz-adv-x="1130" 
d="M150 1475h344v-1149h587v-326h-931v1475z" />
    <glyph glyph-name="M" unicode="M" horiz-adv-x="1740" 
d="M1589 1475v-1475h-325v889l-275 -653h-239l-275 653v-889h-325v1475h370l350 -797l349 797h370z" />
    <glyph glyph-name="N" unicode="N" horiz-adv-x="1464" 
d="M989 1475h324v-1475h-365l-475 911v-911h-323v1475h364l475 -914v914z" />
    <glyph glyph-name="O" unicode="O" horiz-adv-x="1323" 
d="M459 1116v-758q0 -41 43 -41h317q43 0 43 41v758q0 41 -43 41h-317q-43 0 -43 -41zM918 -6h-515q-129 0 -209 81t-81 208v913q0 127 82 209t208 82h515q126 0 206 -82t80 -209v-913q0 -127 -78 -208t-208 -81z" />
    <glyph glyph-name="P" unicode="P" horiz-adv-x="1277" 
d="M494 827h331q43 0 43 41v240q0 41 -43 41h-331v-322zM150 1475h774q127 0 209 -82t81 -209v-396q0 -126 -82 -206t-208 -80h-430v-502h-344v1475z" />
    <glyph glyph-name="Q" unicode="Q" horiz-adv-x="1333" 
d="M457 1114v-758q0 -41 43 -41h327q43 0 43 41v758q0 41 -43 41h-327q-43 0 -43 -41zM1217 1190v-914q0 -114 -71 -194t-185 -90l110 -268h-309l-111 266h-248q-129 0 -209 81t-81 208v913q-1 127 81 209t209 82l523 -2q127 0 209 -82t82 -209z" />
    <glyph glyph-name="R" unicode="R" horiz-adv-x="1327" 
d="M870 891v221q0 41 -43 41h-329v-303h329q43 0 43 41zM498 528v-524h-344v1475h772q127 0 207 -82t79 -209v-371q0 -94 -49 -168t-131 -104l223 -545l-364 4l-211 524h-182z" />
    <glyph glyph-name="S" unicode="S" horiz-adv-x="1277" 
d="M502 1155q-43 0 -43 -37v-139q0 -29 43 -37l381 -78q295 -61 295 -295v-288q0 -127 -81 -208t-210 -81h-484q-129 0 -209 81t-81 208v202h331v-129q0 -37 45 -37h297q43 0 43 37v154q0 29 -43 37l-380 80q-295 61 -295 295v274q0 125 79 209q80 82 207 82h459
q127 0 209 -82t82 -209v-188h-334l6 112q4 37 -43 37h-274z" />
    <glyph glyph-name="T" unicode="T" horiz-adv-x="1169" 
d="M1124 1153h-366v-1153h-344v1153h-367v322h1077v-322z" />
    <glyph glyph-name="U" unicode="U" horiz-adv-x="1325" 
d="M909 -8h-491q-129 0 -210 81t-81 208v1194h344v-1117q0 -41 43 -41h295q43 0 43 41v1117h344l4 -1194q0 -127 -81 -208t-210 -81z" />
    <glyph glyph-name="V" unicode="V" horiz-adv-x="1327" 
d="M1298 1475l-436 -1475h-397l-436 1475h395l240 -1057l247 1057h387z" />
    <glyph glyph-name="W" unicode="W" horiz-adv-x="1861" 
d="M1479 0h-320l-221 885l-219 -885h-336l-354 1475h368l160 -1012l248 1012h266l250 -1012l160 1012h352z" />
    <glyph glyph-name="X" unicode="X" horiz-adv-x="1306" 
d="M895 0l-258 442l-242 -442h-377l431 762l-418 713h393l246 -420l231 420h377l-418 -744l428 -731h-393z" />
    <glyph glyph-name="Y" unicode="Y" horiz-adv-x="1226" 
d="M786 0h-344v498l-436 977h375l233 -592l234 592h375l-437 -977v-498z" />
    <glyph glyph-name="Z" unicode="Z" horiz-adv-x="1226" 
d="M123 1153v322h1018v-265l-617 -888h613v-322h-1051v264l619 889h-582z" />
    <glyph glyph-name="bracketleft" unicode="[" horiz-adv-x="798" 
d="M506 1280v-1171h194v-324h-538v1821h538v-326h-194z" />
    <glyph glyph-name="backslash" unicode="\" horiz-adv-x="1107" 
d="M1085 -141h-337l-725 1759h337z" />
    <glyph glyph-name="bracketright" unicode="]" horiz-adv-x="798" 
d="M100 1606h539v-1821h-539v324h195v1171h-195v326z" />
    <glyph glyph-name="asciicircum" unicode="^" horiz-adv-x="1597" 
d="M625 1475h348l506 -1012h-357l-323 649l-324 -649h-354z" />
    <glyph glyph-name="underscore" unicode="_" horiz-adv-x="1193" 
d="M1182 -88v-305h-1170v305h1170z" />
    <glyph glyph-name="grave" unicode="`" horiz-adv-x="720" 
d="M647 1610h-233l-338 295h387z" />
    <glyph glyph-name="a" unicode="a" horiz-adv-x="1124" 
d="M676 463h-248q-31 0 -31 -27v-117q0 -33 37 -32h39q88 0 184 53l19 10v113zM1006 815v-815h-330v139l-19 -24q-10 -16 -30 -37l-45 -41q-49 -43 -142 -43h-80q-120 0 -202 82t-82 203v124q0 131 78 209t208 78h48q143 0 270 -37v160q0 27 -31 27h-176q-33 0 -33 -27v-63
h-329v67q0 119 89 208t210 89l299 -2q121 0 209 -88t88 -209z" />
    <glyph glyph-name="b" unicode="b" horiz-adv-x="1161" 
d="M674 289h35q37 0 36 33v462q0 33 -36 33h-35q-118 0 -219 -63v-402q101 -63 219 -63zM711 1114h77q119 0 203 -84t84 -203v-548q0 -121 -82 -203t-202 -82h-78q-129 0 -240 123l-18 24v-141h-330v1554h330l-2 -589l18 24q113 125 240 125z" />
    <glyph glyph-name="c" unicode="c" horiz-adv-x="1093" 
d="M723 -6h-352q-121 0 -203 82t-82 203v548q0 119 84 203t203 84h348q119 0 203 -84t84 -203v-147h-330v131q0 29 -33 29h-196q-33 0 -33 -29v-516q0 -29 33 -29h196q33 0 33 29v131h330v-147q0 -121 -82 -203t-203 -82z" />
    <glyph glyph-name="d" unicode="d" horiz-adv-x="1161" 
d="M485 817h-34q-37 0 -37 -33v-462q0 -33 37 -33h34q117 0 203 53l17 10v402l-17 10q-86 53 -203 53zM1038 0h-331v141l-19 -24q-111 -123 -239 -123h-78q-121 0 -203 82t-82 203v548q0 119 84 203t203 84h78q127 0 239 -125l19 -24v589h329v-1554z" />
    <glyph glyph-name="e" unicode="e" horiz-adv-x="1103" 
d="M655 838h-206q-33 0 -33 -29v-137h270v137q0 29 -31 29zM449 268h206q31 0 31 29v65h332v-83q0 -119 -83 -202t-204 -83h-358q-121 0 -203 82t-82 203v548q0 119 84 203t203 84h358q119 0 203 -84t84 -203v-374h-602l-2 -156q0 -29 33 -29z" />
    <glyph glyph-name="f" unicode="f" horiz-adv-x="821" 
d="M788 1272h-202q-31 0 -31 -27v-139h233v-272h-233v-834h-332v834h-172v272h172v162q0 118 84 202t203 84h278v-282z" />
    <glyph glyph-name="g" unicode="g" horiz-adv-x="1161" 
d="M483 817h-34q-37 0 -37 -33v-385q0 -33 37 -32h34q135 0 219 63v324q-101 63 -219 63zM750 -403h-338q-119 0 -203 84t-84 202v84h315v-59q0 -49 54 -49h159q53 0 54 49v309l-19 -24q-113 -125 -239 -125h-78q-119 0 -202 83t-83 203v473q0 119 84 203t203 84h78
q127 0 239 -125l19 -24v141h329l-4 -1223q0 -121 -83 -203t-201 -83z" />
    <glyph glyph-name="h" unicode="h" horiz-adv-x="1173" 
d="M692 817h-22q-102 0 -199 -53l-18 -10v-754h-330v1554h330v-589l18 24q113 125 240 125h63q119 0 203 -84t84 -203v-827h-330l-2 784q0 33 -37 33z" />
    <glyph glyph-name="i" unicode="i" horiz-adv-x="571" 
d="M451 1106v-1106h-330v1106h330zM459 1260h-346v294h346v-294z" />
    <glyph glyph-name="j" unicode="j" horiz-adv-x="587" 
d="M467 1106v-1235q0 -119 -83 -202t-204 -83h-254v287h178q31 0 31 29v1204h332zM473 1260h-350v294h350v-294z" />
    <glyph glyph-name="k" unicode="k" horiz-adv-x="1210" 
d="M451 0h-326v1475h326v-836l329 467h402l-379 -447l395 -659h-352l-254 412l-141 -168v-244z" />
    <glyph glyph-name="l" unicode="l" horiz-adv-x="561" 
d="M115 1554h331v-1554h-331v1554z" />
    <glyph glyph-name="m" unicode="m" horiz-adv-x="1732" 
d="M1290 1114h33q119 0 203 -84t84 -203v-827h-332v784q0 33 -37 33h-14q-78 0 -178 -53l-19 -10v-754h-330v784q0 33 -36 33h-17q-84 0 -178 -53l-18 -10v-754h-330v1106h330v-141l18 24q113 125 240 125h36q86 0 158 -47t105 -123l43 45q118 125 239 125z" />
    <glyph glyph-name="n" unicode="n" horiz-adv-x="1173" 
d="M692 817h-22q-102 0 -199 -53l-18 -10v-754h-330v1106h330v-141l18 24q113 125 240 125h63q119 0 203 -84t84 -203v-827h-330l-2 784q0 33 -37 33z" />
    <glyph glyph-name="o" unicode="o" horiz-adv-x="1124" 
d="M702 293v520q0 27 -30 27h-228q-31 0 -30 -27v-520q0 -27 30 -27h228q30 0 30 27zM375 1114h373q118 0 202 -84t84 -203v-548q0 -121 -82 -203t-202 -82h-377q-121 0 -203 82t-82 203v548q0 119 84 203t203 84z" />
    <glyph glyph-name="p" unicode="p" horiz-adv-x="1161" 
d="M741 322v462q0 33 -36 33h-35q-96 0 -197 -53l-18 -10v-402l18 -10q100 -53 197 -53h35q36 0 36 33zM711 1114h75q119 0 203 -84t84 -203v-548q0 -121 -82 -203t-203 -82h-77q-129 0 -240 123l-18 24v-536h-330v1501h330v-141l18 24q113 125 240 125z" />
    <glyph glyph-name="q" unicode="q" horiz-adv-x="1161" 
d="M487 817h-34q-37 0 -37 -33v-462q0 -33 37 -33h34q117 0 203 53l17 10v402l-17 10q-86 53 -203 53zM375 1114h76q127 0 239 -125l19 -24v141h329v-1501h-329v536l-19 -24q-111 -123 -239 -123h-78q-121 0 -203 82t-82 203v548q0 119 84 203t203 84z" />
    <glyph glyph-name="r" unicode="r" horiz-adv-x="901" 
d="M856 809h-186q-123 0 -199 -51l-18 -13v-745h-330v1106h330v-141l18 24q113 125 240 125h145v-305z" />
    <glyph glyph-name="s" unicode="s" horiz-adv-x="1087" 
d="M651 760v57q0 31 -37 31h-153q-39 0 -39 -31v-59q0 -39 41 -45l303 -47q125 -18 185 -83t61 -155v-143q0 -121 -85 -206t-210 -85h-344q-123 0 -208 85t-85 206v80h332v-60q0 -31 37 -31h194q37 0 37 31v53q0 37 -39 43l-303 48q-125 18 -185 81t-61 156v135
q0 121 86 207t207 86h303q123 0 209 -86t86 -207v-61h-332z" />
    <glyph glyph-name="t" unicode="t" horiz-adv-x="880" 
d="M539 834v-519q0 -27 30 -26h252v-289h-325q-119 0 -203 84t-84 203v547h-168v272h172v369h322v-369h286v-272h-282z" />
    <glyph glyph-name="u" unicode="u" horiz-adv-x="1173" 
d="M481 289h23q96 0 196 53l19 10v754h330v-1106h-330v141l-19 -24q-111 -123 -239 -123h-64q-121 0 -203 82t-81 203v827h329l2 -784q0 -33 37 -33z" />
    <glyph glyph-name="v" unicode="v" horiz-adv-x="1110" 
d="M1081 1106l-348 -1106h-356l-350 1106h354l182 -807l185 807h333z" />
    <glyph glyph-name="w" unicode="w" horiz-adv-x="1640" 
d="M1300 0h-331l-138 637l-137 -637h-329l-338 1106h346l157 -774l158 774h289l158 -774l155 774h322z" />
    <glyph glyph-name="x" unicode="x" horiz-adv-x="1093" 
d="M707 0l-181 295l-164 -295h-337l331 571l-327 535h358l172 -281l158 281h338l-326 -557l336 -549h-358z" />
    <glyph glyph-name="y" unicode="y" horiz-adv-x="1136" 
d="M1110 1106l-524 -1501h-295l135 395l-399 1106h321l215 -698l236 698h311z" />
    <glyph glyph-name="z" unicode="z" horiz-adv-x="1001" 
d="M72 817v289h850v-234l-455 -583h475v-289h-883v240l455 577h-442z" />
    <glyph glyph-name="braceleft" unicode="{" horiz-adv-x="964" 
d="M639 1239v-367q0 -98 -98 -178q98 -76 98 -178v-371q0 -41 43 -41h184v-323h-282q-127 0 -209 82t-82 207v436q0 41 -43 41h-172v297h172q43 0 43 41v430q0 127 82 209t209 82h282v-326h-184q-43 0 -43 -41z" />
    <glyph glyph-name="bar" unicode="|" horiz-adv-x="755" 
d="M217 1612h322v-2052h-322v2052z" />
    <glyph glyph-name="braceright" unicode="}" horiz-adv-x="964" 
d="M328 877v366q0 41 -43 41h-185v326h283q127 0 209 -82t82 -209v-430q0 -41 43 -41h172v-297h-172q-43 0 -43 -41v-436q0 -125 -82 -207t-209 -82h-283v324h185q43 0 43 41v370q0 102 98 178q-98 81 -98 179z" />
    <glyph glyph-name="asciitilde" unicode="~" horiz-adv-x="1040" 
d="M346 612l-45 -88h-166l84 228q29 82 125 63l346 -70l47 84h170l-90 -229q-33 -80 -123 -61z" />
    <glyph glyph-name="exclamdown" unicode="&#xa1;" horiz-adv-x="550" 
d="M156 578h239l64 -945h-367zM113 1106h325v-334h-325v334z" />
    <glyph glyph-name="cent" unicode="&#xa2;" horiz-adv-x="1218" 
d="M504 997h-45q-43 0 -43 -36v-435q0 -37 43 -37h45v508zM807 842v119q0 37 -41 36h-31v-508h31q41 0 41 37v119h307v-162q0 -127 -82 -207t-209 -79h-63v-195h-283v195h-82q-127 -1 -207 79t-79 207v521q-1 126 79 206t207 80h82v183h283v-183h63q127 0 209 -80t82 -206
v-162h-307z" />
    <glyph glyph-name="sterling" unicode="&#xa3;" horiz-adv-x="1286" 
d="M1192 326v-326h-1149v326h107q61 0 61 61v164h-168v323h168v314q0 139 81 216t216 77h383q137 0 215 -78t78 -215v-199h-344v127q0 41 -43 41h-199q-43 0 -43 -41v-242h246v-323h-246v-225h637z" />
    <glyph glyph-name="currency" unicode="&#xa4;" horiz-adv-x="1226" 
d="M758 608v291q0 37 -43 37h-203q-43 0 -43 -37v-291q0 -37 43 -37h203q43 0 43 37zM1044 920v-332q0 -49 -8 -80l178 -178l-200 -205l-183 182q-33 -6 -73 -6h-291q-37 0 -74 6l-182 -182l-201 205l180 180q-8 27 -8 76v332q0 41 6 73l-178 178l201 205l178 -178
q31 8 80 8h291q49 0 76 -8l178 178l200 -205l-176 -176q6 -36 6 -73z" />
    <glyph glyph-name="yen" unicode="&#xa5;" horiz-adv-x="1226" 
d="M1087 692v-149h-278l-23 -51v-27h301v-150h-301v-315h-344v315h-303v150h303v27l-22 51h-281v149h215l-348 783h375l233 -590l234 590h375l-349 -783h213z" />
    <glyph glyph-name="brokenbar" unicode="&#xa6;" horiz-adv-x="755" 
d="M539 -440h-322v809h322v-809zM217 1612h322v-811h-322v811z" />
    <glyph glyph-name="section" unicode="&#xa7;" horiz-adv-x="1101" 
d="M690 559v156q0 41 -45 49l-176 31q-23 5 -31 -5t-8 -32v-160q0 -37 45 -45l174 -31q41 -4 41 37zM621 1208h-132q-45 0 -45 -37v-57q0 -37 45 -45l287 -49q104 -18 171 -83t67 -155v-215q0 -59 -34 -109t-48 -63q2 -6 28 -35q37 -42 37 -96v-164q0 -118 -86 -204
t-206 -86h-326q-121 0 -207 86t-86 204v88h328v-51q0 -37 43 -37h172q43 0 43 37v62q0 41 -45 49l-289 49q-104 18 -171 83t-67 155v192q0 39 16 77t31 56l46 51l-35 35q-41 41 -41 105v139q0 121 86 207t207 86h284q121 0 207 -86t86 -207v-74h-328l3 55q0 37 -41 37z" />
    <glyph glyph-name="dieresis" unicode="&#xa8;" horiz-adv-x="1310" 
d="M1014 1618h-281v270h281v-270zM578 1618h-281v270h281v-270z" />
    <glyph glyph-name="copyright" unicode="&#xa9;" horiz-adv-x="1734" 
d="M719 1200h299q94 0 149 -55t56 -148v-155h-242v100q0 31 -35 31h-153q-37 0 -37 -31v-410q0 -31 37 -30h153q35 0 35 30v101h242v-156q1 -92 -55 -147t-150 -56h-299q-91 0 -147 56t-56 147v520q0 92 55 148q56 55 148 55zM1362 281v913q0 36 -22 60t-54 24h-842
q-35 0 -55 -24t-20 -60v-913q0 -37 20 -61t55 -23h842q32 -1 54 23t22 61zM446 1483h842q127 0 209 -82t82 -209v-913q0 -127 -81 -208t-210 -81h-842q-130 0 -208 81t-78 208v913q0 127 80 209t206 82z" />
    <glyph glyph-name="ordfeminine" unicode="&#xaa;" horiz-adv-x="802" 
d="M711 651v-176h-598v176h598zM506 1055h-178q-25 0 -25 -23v-71q0 -23 27 -23h47q33 0 100 23l29 10v84zM711 754h-207v102l-33 -43q-61 -66 -121 -65h-67q-76 0 -131 55t-56 133v74q0 86 49 135t136 49h26q109 0 195 -25v88q0 35 -35 35h-109q-37 0 -36 -35v-16h-205v43
q0 80 57 138t135 57l207 -2q84 -1 139 -59t56 -136v-528z" />
    <glyph glyph-name="guillemotleft" unicode="&#xab;" horiz-adv-x="1175" 
d="M1137 1145l-306 -426l306 -424h-344l-263 367v114l263 369h344zM629 1145l-305 -426l305 -424h-344l-262 367v114l262 369h344z" />
    <glyph glyph-name="registered" unicode="&#xae;" horiz-adv-x="831" 
d="M350 1124h125q16 0 17 17v76q0 18 -17 18h-125v-111zM575 1229v-99q0 -70 -61 -86l68 -174h-93l-65 174h-76v-174h-86v447h225q88 0 88 -88zM653 840v510q0 51 -75 51h-349q-49 0 -49 -51v-510q0 -51 49 -52h375q49 1 49 52zM733 1352v-510q0 -53 -39 -92t-92 -39h-375
q-53 0 -92 39t-39 92v510q0 53 39 92t92 39l348 -2q72 0 115 -37t43 -92z" />
    <glyph glyph-name="macron" unicode="&#xaf;" horiz-adv-x="1263" 
d="M901 1886v-256h-579v256h579z" />
    <glyph glyph-name="degree" unicode="&#xb0;" horiz-adv-x="653" 
d="M242 1341v-163q0 -25 24 -25h121q25 0 25 25v163q0 25 -25 25h-121q-24 0 -24 -25zM428 1040h-203q-53 0 -86 33t-33 86v205q0 53 33 86t86 33h203q53 0 86 -33t33 -86v-205q0 -53 -33 -86t-86 -33z" />
    <glyph glyph-name="plusminus" unicode="&#xb1;" horiz-adv-x="1040" 
d="M109 422h825v-287h-825v287zM375 539v237h-266v293h266v240h293v-240h266v-293h-266v-237h-293z" />
    <glyph glyph-name="twosuperior" unicode="&#xb2;" horiz-adv-x="759" 
d="M481 1479q0 8 -12 8h-164q-37 0 -37 -23l8 -24h-208v98q0 66 55 115t125 49h278q70 0 125 -49t56 -115v-162q1 -61 -55 -107t-128 -63l-215 -51h-18q-17 0 -19 -14v-70h433v-209h-652v324q-1 59 55 106t125 62l218 51q10 2 20 2t10 25v47z" />
    <glyph glyph-name="threesuperior" unicode="&#xb3;" horiz-adv-x="757" 
d="M438 1053q37 0 37 22v86q0 23 -37 23h-159v192h153q33 0 33 25v72q0 23 -37 22h-119q-37 0 -37 -22v-46h-217v103q-1 66 55 115t128 49h264q72 0 127 -49t55 -115v-123q0 -76 -78 -123q88 -45 88 -123v-139q0 -66 -55 -115t-125 -49h-287q-72 0 -126 52t-54 116v102h219
l-2 -53q0 -23 35 -22h139z" />
    <glyph glyph-name="acute" unicode="&#xb4;" horiz-adv-x="724" 
d="M311 1610h-235l184 295h391z" />
    <glyph glyph-name="paragraph" unicode="&#xb6;" horiz-adv-x="1792" 
d="M1642 0h-344v1149h-190v-1149h-344v502h-381q-125 0 -209 80q-82 80 -82 206v396q0 127 82 209t209 82h1259v-1475z" />
    <glyph glyph-name="periodcentered" unicode="&#xb7;" horiz-adv-x="524" 
d="M422 518h-322v332h322v-332z" />
    <glyph glyph-name="cedilla" unicode="&#xb8;" horiz-adv-x="1157" 
d="M596 -299q18 0 18 27v20q0 27 -18 27h-223l102 225h164l-51 -100h47q82 0 128 -40t46 -112v-20q0 -74 -45 -113t-125 -39h-190l-107 125h254z" />
    <glyph glyph-name="onesuperior" unicode="&#xb9;" horiz-adv-x="530" 
d="M213 864v609l-172 -50v176l219 101h170v-836h-217z" />
    <glyph glyph-name="ordmasculine" unicode="&#xba;" horiz-adv-x="800" 
d="M690 649v-176h-579v176h579zM500 956v304q0 27 -25 26h-151q-23 0 -23 -26v-304q0 -23 23 -22h151q25 -1 25 22zM707 932q1 -76 -55 -131t-134 -56h-235q-78 -1 -133 55t-56 134v356q0 78 56 134t133 55l235 -4q78 1 133 -55t56 -132v-356z" />
    <glyph glyph-name="guillemotright" unicode="&#xbb;" horiz-adv-x="1175" 
d="M1133 776v-114l-263 -367h-344l305 424l-305 426h344zM623 776v-114l-263 -367h-344l306 424l-306 426h344z" />
    <glyph glyph-name="onequarter" unicode="&#xbc;" horiz-adv-x="1755" 
d="M213 639v608l-172 -49v176l219 101h170v-836h-217zM1321 1475l-864 -1475h-234l864 1475h234zM1376 334v174l-180 -174h180zM1712 143h-125v-143h-211v143h-399l-51 160l487 533h174v-502h125v-191z" />
    <glyph glyph-name="onehalf" unicode="&#xbd;" horiz-adv-x="1773" 
d="M1495 616q0 9 -18 9h-158q-37 0 -37 -23l8 -27h-209v99q-1 66 55 114t126 50h278q70 0 125 -50t55 -114v-162q0 -62 -55 -108t-127 -62l-215 -51h-18q-19 0 -19 -15v-69h432v-207h-651v322q0 59 55 106t125 61l217 52q10 2 20 2t11 24v49zM1321 1475l-864 -1475h-234
l864 1475h234zM213 639v608l-172 -49v176l219 101h170v-836h-217z" />
    <glyph glyph-name="threequarters" unicode="&#xbe;" horiz-adv-x="1982" 
d="M1546 1466l-864 -1472h-233l864 1472h233zM1602 326v174l-181 -174h181zM1937 135h-125v-141h-210v141h-400l-51 160l487 532h174v-501h125v-191zM299 827h139q37 0 37 23v86q0 23 -37 22h-159v193h153q33 0 33 25v71q0 23 -37 23h-119q-37 0 -37 -23v-45h-217v103
q-1 67 55 115t128 48h264q72 0 127 -49t55 -114v-123q0 -76 -78 -123q88 -45 88 -123v-139q0 -66 -55 -115t-125 -49h-287q-72 0 -126 52t-54 116v102h219l-2 -53q0 -23 35 -23z" />
    <glyph glyph-name="questiondown" unicode="&#xbf;" horiz-adv-x="1159" 
d="M63 -96v286q0 51 31 91l35 41q14 18 49 43l115 75q43 27 61 37l92 58q43 27 43 49v59h345v-143q0 -44 -39 -88l-37 -41q-28 -28 -105 -80l-114 -78l-86 -55q-43 -37 -43 -41v-123q0 -41 43 -41h297q43 0 43 41v98h344v-176q0 -127 -80 -207t-211 -84l-496 -12
q-125 -2 -207 82q-80 84 -80 209zM487 786v320h344v-320h-344z" />
    <glyph glyph-name="Agrave" unicode="&#xc0;" horiz-adv-x="1366" 
d="M805 625l-125 471l-129 -471h254zM891 299h-430l-82 -299h-356l458 1475h402l458 -1475h-370zM627 1610l-338 295h387l184 -295h-233z" />
    <glyph glyph-name="Aacute" unicode="&#xc1;" horiz-adv-x="1366" 
d="M748 1610h-236l184 295h391zM805 625l-125 471l-129 -471h254zM891 299h-430l-82 -299h-356l458 1475h402l458 -1475h-370z" />
    <glyph glyph-name="Acircumflex" unicode="&#xc2;" horiz-adv-x="1366" 
d="M805 625l-125 471l-129 -471h254zM891 299h-430l-82 -299h-356l458 1475h402l458 -1475h-370zM520 1610h-280l305 272h278l303 -272h-280l-162 137z" />
    <glyph glyph-name="Atilde" unicode="&#xc3;" horiz-adv-x="1366" 
d="M803 625l-125 471l-129 -471h254zM889 299h-430l-82 -299h-357l459 1475h402l458 -1475h-370zM498 1610h-140l41 194q16 78 121 56l305 -64l39 66h144l-45 -197q-18 -74 -117 -53l-311 67z" />
    <glyph glyph-name="Adieresis" unicode="&#xc4;" horiz-adv-x="1366" 
d="M1042 1618h-280v270h280v-270zM606 1618h-280v270h280v-270zM805 625l-125 471l-129 -471h254zM891 299h-430l-82 -299h-356l458 1475h402l458 -1475h-370z" />
    <glyph glyph-name="Aring" unicode="&#xc5;" horiz-adv-x="1366" 
d="M604 1835v-88q0 -25 25 -25h100q25 0 25 25v88q0 25 -25 25h-100q-25 0 -25 -25zM473 1909q0 27 23 49t49 22h272q29 0 51 -22t21 -47v-232q-1 -29 -21 -49t-49 -20l-276 -4q-27 0 -48 21t-22 50v232zM805 625l-125 471l-129 -471h254zM891 299h-430l-82 -299h-356
l458 1475h402l458 -1475h-370z" />
    <glyph glyph-name="AE" unicode="&#xc6;" horiz-adv-x="2105" 
d="M1034 625v518h-104l-250 -518h354zM1378 1149v-223h498v-326h-498v-274h633v-326h-977v299h-512l-143 -299h-379l741 1475h1270v-326h-633z" />
    <glyph glyph-name="Ccedilla" unicode="&#xc7;" horiz-adv-x="1269" 
d="M788 1157h-290q-43 0 -43 -41v-758q0 -41 43 -41h290q43 0 43 41v189h345v-266q0 -127 -81 -208t-210 -81h-166l-47 -94h47q82 0 128 -40t46 -112v-20q0 -74 -45 -113t-125 -39h-191l-102 125h254q18 0 18 27v20q0 27 -18 27h-223l98 219h-158q-129 0 -209 81t-81 208
v913q0 127 82 209t208 82h488q127 0 209 -82t82 -209v-266h-344l-5 188q0 41 -43 41z" />
    <glyph glyph-name="Egrave" unicode="&#xc8;" horiz-adv-x="1226" 
d="M1133 1475v-326h-639v-231h510v-328h-510v-264h639v-326h-983v1475h983zM823 1610h-233l-338 295h387z" />
    <glyph glyph-name="Eacute" unicode="&#xc9;" horiz-adv-x="1226" 
d="M711 1610h-236l184 295h392zM150 1475h983v-326h-639v-231h510v-328h-510v-264h639v-326h-983v1475z" />
    <glyph glyph-name="Ecircumflex" unicode="&#xca;" horiz-adv-x="1226" 
d="M1133 1475v-326h-639v-231h510v-328h-510v-264h639v-326h-983v1475h983zM647 1747l-164 -137h-280l305 272h278l304 -272h-281z" />
    <glyph glyph-name="Edieresis" unicode="&#xcb;" horiz-adv-x="1226" 
d="M1006 1618h-281v270h281v-270zM569 1618h-280v270h280v-270zM150 1475h983v-326h-639v-231h510v-328h-510v-264h639v-326h-983v1475z" />
    <glyph glyph-name="Igrave" unicode="&#xcc;" horiz-adv-x="645" 
d="M150 1475h344v-1475h-344v1475zM500 1610h-234l-336 295h385z" />
    <glyph glyph-name="Iacute" unicode="&#xcd;" horiz-adv-x="645" 
d="M387 1610h-235l184 295h391zM150 0v1475h344v-1475h-344z" />
    <glyph glyph-name="Icircumflex" unicode="&#xce;" horiz-adv-x="645" 
d="M150 1475h344v-1475h-344v1475zM324 1747l-164 -137h-279l303 272h279l303 -272h-281z" />
    <glyph glyph-name="Idieresis" unicode="&#xcf;" horiz-adv-x="645" 
d="M150 0v1475h344v-1475h-344zM682 1618h-281v270h281v-270zM246 1618h-279v270h279v-270z" />
    <glyph glyph-name="Eth" unicode="&#xd0;" horiz-adv-x="1310" 
d="M850 377v729q0 41 -45 41h-332v-234h158v-340h-158v-237h332q45 0 45 41zM1194 1188v-897q0 -127 -82 -209t-209 -82h-774v569h-154v340h154v566l774 4q127 0 209 -82t82 -209z" />
    <glyph glyph-name="Ntilde" unicode="&#xd1;" horiz-adv-x="1464" 
d="M1313 1475v-1475h-365l-475 911v-911h-323v1475h364l475 -914v914h324zM584 1679l-39 -69h-137l41 194q16 78 120 56l305 -64l39 66h144l-45 -197q-18 -74 -117 -53z" />
    <glyph glyph-name="Ograve" unicode="&#xd2;" horiz-adv-x="1323" 
d="M403 -6q-129 0 -209 81t-81 208v913q0 127 82 209t208 82h515q126 0 206 -82t80 -209v-913q0 -127 -79 -208t-207 -81h-515zM459 358q0 -41 43 -41h317q43 0 43 41v758q0 41 -43 41h-317q-43 0 -43 -41v-758zM840 1610h-234l-338 295h387z" />
    <glyph glyph-name="Oacute" unicode="&#xd3;" horiz-adv-x="1323" 
d="M727 1610h-235l184 295h391zM459 1116v-758q0 -41 43 -41h317q43 0 43 41v758q0 41 -43 41h-317q-43 0 -43 -41zM918 -6h-515q-129 0 -209 81t-81 208v913q0 127 82 209t208 82h515q126 0 206 -82t80 -209v-913q0 -127 -78 -208t-208 -81z" />
    <glyph glyph-name="Ocircumflex" unicode="&#xd4;" horiz-adv-x="1323" 
d="M403 -6q-129 0 -209 81t-81 208v913q0 127 82 209t208 82h515q126 0 206 -82t80 -209v-913q0 -127 -79 -208t-207 -81h-515zM459 358q0 -41 43 -41h317q43 0 43 41v758q0 41 -43 41h-317q-43 0 -43 -41v-758zM664 1747l-164 -137h-281l305 272h279l303 -272h-281z" />
    <glyph glyph-name="Otilde" unicode="&#xd5;" horiz-adv-x="1323" 
d="M403 -6q-129 0 -209 81t-81 208v913q0 127 82 209t208 82h515q126 0 206 -82t80 -209v-913q0 -127 -79 -208t-207 -81h-515zM459 358q0 -41 43 -41h317q43 0 43 41v758q0 41 -43 41h-317q-43 0 -43 -41v-758zM516 1679l-39 -69h-137l41 194q16 78 121 56l305 -64l39 66
h143l-45 -197q-18 -74 -117 -53z" />
    <glyph glyph-name="Odieresis" unicode="&#xd6;" horiz-adv-x="1323" 
d="M1022 1618h-281v270h281v-270zM586 1618h-281v270h281v-270zM459 1116v-758q0 -41 43 -41h317q43 0 43 41v758q0 41 -43 41h-317q-43 0 -43 -41zM918 -6h-515q-129 0 -209 81t-81 208v913q0 127 82 209t208 82h515q126 0 206 -82t80 -209v-913q0 -127 -78 -208t-208 -81z
" />
    <glyph glyph-name="multiply" unicode="&#xd7;" horiz-adv-x="1040" 
d="M715 684l213 -213l-195 -197l-213 213l-213 -211l-194 195l213 211l-213 213l194 197l213 -213l213 211l195 -195z" />
    <glyph glyph-name="Oslash" unicode="&#xd8;" horiz-adv-x="1323" 
d="M819 317q43 0 43 41v488l-233 -529h190zM502 1157q-43 0 -43 -41v-491l235 532h-192zM403 1483h515q126 0 206 -82t80 -209v-913q0 -127 -79 -208t-207 -81h-515q-129 0 -209 81t-81 208v913q-1 127 81 209t209 82z" />
    <glyph glyph-name="Ugrave" unicode="&#xd9;" horiz-adv-x="1325" 
d="M909 -8h-491q-129 0 -210 81t-81 208v1194h344v-1117q0 -41 43 -41h295q43 0 43 41v1117h344l4 -1194q0 -127 -81 -208t-210 -81zM844 1610h-234l-338 295h387z" />
    <glyph glyph-name="Uacute" unicode="&#xda;" horiz-adv-x="1325" 
d="M731 1610h-235l184 295h391zM909 -8h-491q-129 0 -210 81t-81 208v1194h344v-1117q0 -41 43 -41h295q43 0 43 41v1117h344l4 -1194q0 -127 -81 -208t-210 -81z" />
    <glyph glyph-name="Ucircumflex" unicode="&#xdb;" horiz-adv-x="1325" 
d="M909 -8h-491q-129 0 -210 81t-81 208v1194h344v-1117q0 -41 43 -41h295q43 0 43 41v1117h344l4 -1194q0 -127 -81 -208t-210 -81zM668 1747l-164 -137h-281l305 272h279l303 -272h-281z" />
    <glyph glyph-name="Udieresis" unicode="&#xdc;" horiz-adv-x="1325" 
d="M1026 1618h-281v270h281v-270zM590 1618h-281v270h281v-270zM909 -8h-491q-129 0 -210 81t-81 208v1194h344v-1117q0 -41 43 -41h295q43 0 43 41v1117h344l4 -1194q0 -127 -81 -208t-210 -81z" />
    <glyph glyph-name="Yacute" unicode="&#xdd;" horiz-adv-x="1226" 
d="M680 1610h-236l185 295h391zM786 0h-344v498l-436 977h375l233 -592l234 592h375l-437 -977v-498z" />
    <glyph glyph-name="Thorn" unicode="&#xde;" horiz-adv-x="1277" 
d="M494 584h331q43 0 43 41v239q0 41 -43 41h-331v-321zM494 1475v-244h430q125 0 208 -80t82 -207v-395q0 -127 -82 -209t-208 -82h-430v-258h-344v1475h344z" />
    <glyph glyph-name="germandbls" unicode="&#xdf;" horiz-adv-x="1163" 
d="M1065 1196v-233q0 -133 -127 -211q143 -74 143 -209v-256q0 -119 -84 -203t-202 -84h-244v287h162q33 0 32 28v267q0 33 -34 32h-174v277h163q29 0 29 31v245q0 29 -33 29h-217q-33 0 -33 -29v-1167h-329v1196q0 119 84 203t202 84h375q119 0 203 -84t84 -203z" />
    <glyph glyph-name="agrave" unicode="&#xe0;" horiz-adv-x="1124" 
d="M1006 815v-815h-330v139l-19 -24q-10 -16 -30 -37l-45 -41q-49 -43 -142 -43h-80q-120 0 -202 82t-82 203v124q0 131 78 209t208 78h48q143 0 270 -37v160q0 27 -31 27h-176q-33 0 -33 -27v-63h-329v67q0 119 89 208t210 89l299 -2q121 0 209 -88t88 -209zM428 463
q-31 0 -31 -27v-117q0 -33 37 -32h39q88 0 184 53l19 10v113h-248zM727 1251h-233l-338 295h387z" />
    <glyph glyph-name="aacute" unicode="&#xe1;" horiz-adv-x="1124" 
d="M614 1251h-235l184 295h391zM676 463h-248q-31 0 -31 -27v-117q0 -33 37 -32h39q88 0 184 53l19 10v113zM1006 815v-815h-330v139l-19 -24q-10 -16 -30 -37l-45 -41q-49 -43 -142 -43h-80q-120 0 -202 82t-82 203v124q0 131 78 209t208 78h48q143 0 270 -37v160
q0 27 -31 27h-176q-33 0 -33 -27v-63h-329v67q0 119 89 208t210 89l299 -2q121 0 209 -88t88 -209z" />
    <glyph glyph-name="acircumflex" unicode="&#xe2;" horiz-adv-x="1124" 
d="M1006 815v-815h-330v139l-19 -24q-10 -16 -30 -37l-45 -41q-49 -43 -142 -43h-80q-120 0 -202 82t-82 203v124q0 131 78 209t208 78h48q143 0 270 -37v160q0 27 -31 27h-176q-33 0 -33 -27v-63h-329v67q0 119 89 208t210 89l299 -2q121 0 209 -88t88 -209zM428 463
q-31 0 -31 -27v-117q0 -33 37 -32h39q88 0 184 53l19 10v113h-248zM551 1389l-164 -138h-281l306 273h278l303 -273h-280z" />
    <glyph glyph-name="atilde" unicode="&#xe3;" horiz-adv-x="1124" 
d="M1006 815v-815h-330v139l-19 -24q-10 -16 -30 -37l-45 -41q-49 -43 -142 -43h-80q-120 0 -202 82t-82 203v124q0 131 78 209t208 78h48q143 0 270 -37v160q0 27 -31 27h-176q-33 0 -33 -27v-63h-329v67q0 119 89 208t210 89l299 -2q121 0 209 -88t88 -209zM428 463
q-31 0 -31 -27v-117q0 -33 37 -32h39q88 0 184 53l19 10v113h-248zM403 1321l-38 -70h-138l41 195q16 78 121 55l305 -63l39 65h144l-46 -196q-18 -74 -116 -54z" />
    <glyph glyph-name="adieresis" unicode="&#xe4;" horiz-adv-x="1124" 
d="M909 1260h-280v270h280v-270zM473 1260h-280v270h280v-270zM676 463h-248q-31 0 -31 -27v-117q0 -33 37 -32h39q88 0 184 53l19 10v113zM1006 815v-815h-330v139l-19 -24q-10 -16 -30 -37l-45 -41q-49 -43 -142 -43h-80q-120 0 -202 82t-82 203v124q0 131 78 209t208 78
h48q143 0 270 -37v160q0 27 -31 27h-176q-33 0 -33 -27v-63h-329v67q0 119 89 208t210 89l299 -2q121 0 209 -88t88 -209z" />
    <glyph glyph-name="aring" unicode="&#xe5;" horiz-adv-x="1124" 
d="M471 1477v-88q0 -25 25 -25h100q25 0 25 25v88q0 25 -25 24h-100q-25 1 -25 -24zM340 1319v231q0 28 22 50t50 22h272q28 0 50 -22t22 -48v-231q0 -29 -20 -49t-50 -21l-276 -4q-26 -1 -48 21t-22 51zM676 463h-248q-31 0 -31 -27v-117q0 -33 37 -32h39q88 0 184 53
l19 10v113zM1006 815v-815h-330v139l-19 -24q-10 -16 -30 -37l-45 -41q-49 -43 -142 -43h-80q-120 0 -202 82t-82 203v124q0 131 78 209t208 78h48q143 0 270 -37v160q0 27 -31 27h-176q-33 0 -33 -27v-63h-329v67q0 119 89 208t210 89l299 -2q121 0 209 -88t88 -209z" />
    <glyph glyph-name="ae" unicode="&#xe6;" horiz-adv-x="1697" 
d="M434 287h66q66 0 147 37l43 14v111h-262q-31 0 -31 -27v-103q0 -32 37 -32zM1253 819h-200q-37 0 -37 -33v-124h274v124q0 33 -37 33zM1253 283q37 0 37 32v47h326v-86q0 -120 -83 -202t-204 -82h-352q-94 0 -166 51t-102 133l-66 -84q-76 -98 -180 -98h-103
q-120 0 -202 82t-82 203v108q0 131 78 209t208 78h41q156 0 289 -37v129q0 49 -53 49h-150q-53 0 -53 -49v-27h-325v76q0 119 90 209t209 90h311q59 0 127 -37q70 37 131 37h352q119 0 203 -84t84 -203v-393h-600l-2 -119q0 -33 37 -32h200z" />
    <glyph glyph-name="ccedilla" unicode="&#xe7;" horiz-adv-x="1093" 
d="M639 840h-197q-33 0 -32 -29v-516q0 -29 32 -29h197q33 0 33 29v131h329v-147q1 -121 -81 -203t-203 -82h-92l-47 -94h47q82 0 128 -40t46 -112v-20q0 -74 -45 -113t-125 -39h-191l-102 125h254q18 0 18 27v20q0 27 -18 27h-223l98 219h-92q-121 0 -203 82t-82 203v548
q0 119 84 203t203 84h348q119 0 203 -84t84 -203v-147h-330l-8 131q-4 29 -33 29z" />
    <glyph glyph-name="egrave" unicode="&#xe8;" horiz-adv-x="1103" 
d="M655 838h-206q-33 0 -33 -29v-137h270v137q0 29 -31 29zM449 268h206q31 0 31 29v65h332v-83q0 -119 -83 -202t-204 -83h-358q-121 0 -203 82t-82 203v548q0 119 84 203t203 84h358q119 0 203 -84t84 -203v-374h-602l-2 -156q0 -29 33 -29zM500 1253l-338 295h387
l184 -295h-233z" />
    <glyph glyph-name="eacute" unicode="&#xe9;" horiz-adv-x="1103" 
d="M618 1253h-235l184 295h391zM655 838h-206q-33 0 -33 -29v-137h270v137q0 29 -31 29zM449 268h206q31 0 31 29v65h332v-83q0 -119 -83 -202t-204 -83h-358q-121 0 -203 82t-82 203v548q0 119 84 203t203 84h358q119 0 203 -84t84 -203v-374h-602l-2 -156q0 -29 33 -29z
" />
    <glyph glyph-name="ecircumflex" unicode="&#xea;" horiz-adv-x="1103" 
d="M655 838h-206q-33 0 -33 -29v-137h270v137q0 29 -31 29zM449 268h206q31 0 31 29v65h332v-83q0 -119 -83 -202t-204 -83h-358q-121 0 -203 82t-82 203v548q0 119 84 203t203 84h358q119 0 203 -84t84 -203v-374h-602l-2 -156q0 -29 33 -29zM393 1253h-280l305 273h278
l303 -273h-280l-162 138z" />
    <glyph glyph-name="edieresis" unicode="&#xeb;" horiz-adv-x="1103" 
d="M913 1262h-280v270h280v-270zM477 1262h-280v270h280v-270zM655 838h-206q-33 0 -33 -29v-137h270v137q0 29 -31 29zM449 268h206q31 0 31 29v65h332v-83q0 -119 -83 -202t-204 -83h-358q-121 0 -203 82t-82 203v548q0 119 84 203t203 84h358q119 0 203 -84t84 -203v-374
h-602l-2 -156q0 -29 33 -29z" />
    <glyph glyph-name="igrave" unicode="&#xec;" horiz-adv-x="593" 
d="M479 1253h-233l-336 295h385zM463 0h-332v1106h332v-1106z" />
    <glyph glyph-name="iacute" unicode="&#xed;" horiz-adv-x="600" 
d="M463 1106v-1106h-330v1106h330zM338 1253h-236l185 295h391z" />
    <glyph glyph-name="icircumflex" unicode="&#xee;" horiz-adv-x="600" 
d="M297 1391l-164 -138h-278l303 273h278l303 -273h-280zM465 0h-332v1106h332v-1106z" />
    <glyph glyph-name="idieresis" unicode="&#xef;" horiz-adv-x="602" 
d="M465 1106v-1106h-332v1106h332zM659 1251h-280v271h280v-271zM223 1251h-278v271h278v-271z" />
    <glyph glyph-name="eth" unicode="&#xf0;" horiz-adv-x="1126" 
d="M483 766h-37q-37 0 -36 -33v-418q0 -27 30 -26h228q33 0 32 26v387l-18 13q-76 51 -199 51zM1032 1036v-760q0 -120 -82 -202t-202 -82h-377q-121 0 -203 82t-82 202v502q0 119 84 203t203 84h78q127 0 239 -125l19 -25v121q-1 70 -7 91t-36 34l-58 23l-59 -64h-273
l134 140l-160 61v195l332 -78l73 78h273l-137 -138q139 -53 190 -131t51 -211z" />
    <glyph glyph-name="ntilde" unicode="&#xf1;" horiz-adv-x="1173" 
d="M461 1323l-39 -70h-137l41 195q16 78 120 55l306 -63l39 65h143l-45 -196q-18 -74 -117 -54zM694 817h-22q-102 0 -199 -53l-18 -10v-754h-330v1106h330v-141l18 24q113 125 240 125h63q119 0 203 -84t84 -203v-827h-330l-2 784q0 33 -37 33z" />
    <glyph glyph-name="ograve" unicode="&#xf2;" horiz-adv-x="1124" 
d="M748 1114q118 0 202 -84t84 -203v-548q0 -121 -82 -203t-202 -82h-377q-121 0 -203 82t-82 203v548q0 119 84 203t203 84h373zM702 813q0 27 -30 27h-228q-31 0 -30 -27v-520q0 -27 30 -27h228q31 0 30 27v520zM737 1253h-233l-338 295h387z" />
    <glyph glyph-name="oacute" unicode="&#xf3;" horiz-adv-x="1124" 
d="M625 1253h-236l184 295h392zM702 293v520q0 27 -30 27h-228q-31 0 -30 -27v-520q0 -27 30 -27h228q30 0 30 27zM375 1114h373q118 0 202 -84t84 -203v-548q0 -121 -82 -203t-202 -82h-377q-121 0 -203 82t-82 203v548q0 119 84 203t203 84z" />
    <glyph glyph-name="ocircumflex" unicode="&#xf4;" horiz-adv-x="1124" 
d="M748 1114q118 0 202 -84t84 -203v-548q0 -121 -82 -203t-202 -82h-377q-121 0 -203 82t-82 203v548q0 119 84 203t203 84h373zM702 813q0 27 -30 27h-228q-31 0 -30 -27v-520q0 -27 30 -27h228q31 0 30 27v520zM561 1391l-164 -138h-280l305 273h278l304 -273h-281z" />
    <glyph glyph-name="otilde" unicode="&#xf5;" horiz-adv-x="1124" 
d="M418 1323l-39 -70h-137l41 195q16 78 120 55l306 -63l39 65h143l-45 -196q-18 -74 -117 -54zM750 1114q118 0 202 -84t84 -203v-548q0 -121 -82 -203t-202 -82h-377q-121 0 -203 82t-82 203v548q0 119 84 203t203 84h373zM705 813q0 27 -31 27h-228q-31 0 -30 -27v-520
q0 -27 30 -27h228q31 0 31 27v520z" />
    <glyph glyph-name="odieresis" unicode="&#xf6;" horiz-adv-x="1124" 
d="M920 1262h-281v270h281v-270zM483 1262h-280v270h280v-270zM702 293v520q0 27 -30 27h-228q-31 0 -30 -27v-520q0 -27 30 -27h228q30 0 30 27zM375 1114h373q118 0 202 -84t84 -203v-548q0 -121 -82 -203t-202 -82h-377q-121 0 -203 82t-82 203v548q0 119 84 203t203 84z
" />
    <glyph glyph-name="divide" unicode="&#xf7;" horiz-adv-x="1040" 
d="M672 166h-301v293h301v-293zM53 920h934v-324h-934v324zM672 1057h-301v293h301v-293z" />
    <glyph glyph-name="oslash" unicode="&#xf8;" horiz-adv-x="1124" 
d="M672 266q31 0 30 27v340l-157 -367h127zM444 840q-31 0 -30 -27v-338l157 365h-127zM375 1114h373q118 0 202 -84t84 -203v-548q0 -121 -82 -203t-202 -82h-377q-121 0 -203 82t-82 203v548q0 119 84 203t203 84z" />
    <glyph glyph-name="ugrave" unicode="&#xf9;" horiz-adv-x="1173" 
d="M481 289h23q96 0 196 53l19 10v754h330v-1106h-330v141l-19 -24q-111 -123 -239 -123h-64q-121 0 -203 82t-81 203v827h329l2 -784q0 -33 37 -33zM760 1253h-234l-338 295h387z" />
    <glyph glyph-name="uacute" unicode="&#xfa;" horiz-adv-x="1173" 
d="M647 1253h-235l184 295h391zM481 289h23q96 0 196 53l19 10v754h330v-1106h-330v141l-19 -24q-111 -123 -239 -123h-64q-121 0 -203 82t-81 203v827h329l2 -784q0 -33 37 -33z" />
    <glyph glyph-name="ucircumflex" unicode="&#xfb;" horiz-adv-x="1173" 
d="M481 289h23q96 0 196 53l19 10v754h330v-1106h-330v141l-19 -24q-111 -123 -239 -123h-64q-121 0 -203 82t-81 203v827h329l2 -784q0 -33 37 -33zM584 1391l-164 -138h-281l305 273h279l303 -273h-281z" />
    <glyph glyph-name="udieresis" unicode="&#xfc;" horiz-adv-x="1173" 
d="M942 1262h-280v270h280v-270zM506 1262h-281v270h281v-270zM481 289h23q96 0 196 53l19 10v754h330v-1106h-330v141l-19 -24q-111 -123 -239 -123h-64q-121 0 -203 82t-81 203v827h329l2 -784q0 -33 37 -33z" />
    <glyph glyph-name="yacute" unicode="&#xfd;" horiz-adv-x="1136" 
d="M639 1253h-236l185 295h391zM1110 1106l-524 -1501h-295l135 395l-399 1106h321l215 -698l236 698h311z" />
    <glyph glyph-name="thorn" unicode="&#xfe;" horiz-adv-x="1161" 
d="M741 322v462q0 33 -36 33h-35q-96 0 -197 -53l-18 -10v-402l18 -10q100 -53 197 -53h35q36 0 36 33zM711 1114h75q119 0 203 -84t84 -203v-548q0 -121 -82 -203t-203 -82h-77q-129 0 -240 123l-18 24v-536h-330v1949h330v-589l18 24q113 125 240 125z" />
    <glyph glyph-name="ydieresis" unicode="&#xff;" horiz-adv-x="1136" 
d="M934 1262h-281v270h281v-270zM498 1262h-281v270h281v-270zM1110 1106l-524 -1501h-295l135 395l-399 1106h321l215 -698l236 698h311z" />
    <glyph glyph-name="Amacron" unicode="&#x100;" horiz-adv-x="1366" 
d="M805 625l-125 471l-129 -471h254zM891 299h-430l-82 -299h-356l458 1475h402l458 -1475h-370zM975 1630h-580v256h580v-256z" />
    <glyph glyph-name="amacron" unicode="&#x101;" horiz-adv-x="1124" 
d="M842 1528v-256h-580v256h580zM676 463h-248q-31 0 -31 -27v-117q0 -33 37 -32h39q88 0 184 53l19 10v113zM1006 815v-815h-330v139l-19 -24q-10 -16 -30 -37l-45 -41q-49 -43 -142 -43h-80q-120 0 -202 82t-82 203v124q0 131 78 209t208 78h48q143 0 270 -37v160
q0 27 -31 27h-176q-33 0 -33 -27v-63h-329v67q0 119 89 208t210 89l299 -2q121 0 209 -88t88 -209z" />
    <glyph glyph-name="Abreve" unicode="&#x102;" horiz-adv-x="1366" 
d="M803 623l-125 471l-129 -471h254zM889 297h-430l-82 -297h-357l459 1473h402l458 -1473h-370zM424 1739v159h180v-79q0 -19 12 -31t31 -12h76q37 0 37 45v80h180v-160q0 -53 -39 -92t-92 -39l-254 -2q-53 0 -92 39t-39 92z" />
    <glyph glyph-name="abreve" unicode="&#x103;" horiz-adv-x="1124" 
d="M674 1249h-252q-53 0 -92 39t-39 92v160h180v-80q0 -18 12 -30t31 -13h76q37 0 37 45v80h180l-2 -162q0 -53 -39 -92t-92 -39zM676 463h-248q-31 0 -31 -27v-117q0 -33 37 -32h39q88 0 184 53l19 10v113zM1006 815v-815h-330v139l-19 -24q-10 -16 -30 -37l-45 -41
q-49 -43 -142 -43h-80q-120 0 -202 82t-82 203v124q0 131 78 209t208 78h48q143 0 270 -37v160q0 27 -31 27h-176q-33 0 -33 -27v-63h-329v67q0 119 89 208t210 89l299 -2q121 0 209 -88t88 -209z" />
    <glyph glyph-name="Aogonek" unicode="&#x104;" horiz-adv-x="1366" 
d="M809 625l-125 471l-129 -471h254zM1083 -197h115v-170h-205q-94 1 -129 61t13 140l96 166h-2l-80 299h-430l-82 -299h-356l458 1475h402l458 -1475h-178l-98 -170q-12 -27 18 -27z" />
    <glyph glyph-name="aogonek" unicode="&#x105;" horiz-adv-x="1124" 
d="M432 463q-31 0 -31 -27v-117q0 -33 37 -32h39q88 0 185 53l18 10l-2 113h-246zM784 -199h115v-170h-205q-94 -1 -128 59t12 142l96 168h2v139l-19 -24q-10 -16 -30 -37l-45 -41q-49 -43 -142 -43h-80q-120 0 -202 82t-82 203v124q0 131 78 209t208 78h48q143 0 270 -37
v160q0 27 -31 27h-176q-33 0 -33 -27v-63h-329v67q0 119 89 208t210 89h305q121 0 209 -88t88 -209v-817h-142l-104 -172q-14 -27 18 -27z" />
    <glyph glyph-name="Cacute" unicode="&#x106;" horiz-adv-x="1269" 
d="M715 1610h-236l185 295h391zM891 -6h-488q-129 0 -209 81t-81 208v913q0 127 82 209t208 82h488q127 0 209 -82t82 -209v-266h-344v188q0 41 -43 41h-291q-43 0 -43 -41v-758q0 -41 43 -41h291q43 0 43 41v189h344v-266q0 -127 -81 -208t-210 -81z" />
    <glyph glyph-name="cacute" unicode="&#x107;" horiz-adv-x="1093" 
d="M610 1253h-235l184 295h391zM723 -6h-352q-121 0 -203 82t-82 203v548q0 119 84 203t203 84h348q119 0 203 -84t84 -203v-147h-330v131q0 29 -33 29h-196q-33 0 -33 -29v-516q0 -29 33 -29h196q33 0 33 29v131h330v-147q0 -121 -82 -203t-203 -82z" />
    <glyph glyph-name="Cdotaccent" unicode="&#x10a;" horiz-adv-x="1269" 
d="M791 1616h-279v274h279v-274zM891 -6h-488q-129 0 -209 81t-81 208v913q0 127 82 209t208 82h488q127 0 209 -82t82 -209v-266h-344v188q0 41 -43 41h-291q-43 0 -43 -41v-758q0 -41 43 -41h291q43 0 43 41v189h344v-266q0 -127 -81 -208t-210 -81z" />
    <glyph glyph-name="cdotaccent" unicode="&#x10b;" horiz-adv-x="1093" 
d="M686 1260h-278v274h278v-274zM723 -6h-352q-121 0 -203 82t-82 203v548q0 119 84 203t203 84h348q119 0 203 -84t84 -203v-147h-330v131q0 29 -33 29h-196q-33 0 -33 -29v-516q0 -29 33 -29h196q33 0 33 29v131h330v-147q0 -121 -82 -203t-203 -82z" />
    <glyph glyph-name="Ccaron" unicode="&#x10c;" horiz-adv-x="1269" 
d="M403 -6q-129 0 -209 81t-81 208v913q0 127 82 209t208 82h488q127 0 209 -82t82 -209v-266h-344v188q0 41 -43 41h-291q-43 0 -43 -41v-758q0 -41 43 -41h291q43 0 43 41v189h344v-266q0 -127 -81 -208t-210 -81h-488zM791 1610h-279l-305 272h280l164 -135l162 135h281z
" />
    <glyph glyph-name="ccaron" unicode="&#x10d;" horiz-adv-x="1093" 
d="M371 -6q-121 0 -203 82t-82 203v548q0 119 84 203t203 84h348q119 0 203 -84t84 -203v-147h-330v131q0 29 -33 29h-196q-33 0 -33 -29v-516q0 -29 33 -29h196q33 0 33 29v131h330v-147q0 -121 -82 -203t-203 -82h-352zM686 1253h-278l-306 273h281l164 -135l162 135h280z
" />
    <glyph glyph-name="Dcaron" unicode="&#x10e;" horiz-adv-x="1343" 
d="M1225 1188v-897q0 -127 -80 -209t-207 -82h-788v1475l788 4q127 0 207 -82t80 -209zM840 330q43 0 43 41v741q0 41 -43 41h-346v-823h346zM809 1614h-279l-305 272h281l164 -135l161 135h281z" />
    <glyph glyph-name="dcaron" unicode="&#x10f;" horiz-adv-x="1161" 
d="M485 817h-34q-37 0 -37 -33v-462q0 -33 37 -33h34q117 0 203 53l17 10v402l-17 10q-86 53 -203 53zM1542 1554v-239q0 -70 -106 -201l-142 -174h-123l170 283h-120v331h321zM1038 0h-331v141l-19 -24q-111 -123 -239 -123h-78q-121 0 -203 82t-82 203v548q0 119 84 203
t203 84h78q127 0 239 -125l19 -24v589h329v-1554z" />
    <glyph glyph-name="Dcroat" unicode="&#x110;" horiz-adv-x="1310" 
d="M850 377v729q0 41 -45 41h-332v-234h158v-340h-158v-237h332q45 0 45 41zM1194 1188v-897q0 -127 -82 -209t-209 -82h-774v569h-154v340h154v566l774 4q127 0 209 -82t82 -209z" />
    <glyph glyph-name="dcroat" unicode="&#x111;" horiz-adv-x="1161" 
d="M485 817h-34q-37 0 -37 -33v-462q0 -33 37 -33h34q117 0 203 53l17 10v402l-17 10q-86 53 -203 53zM1116 1141h-80v-1141h-329v141l-19 -24q-111 -123 -239 -123h-78q-121 0 -203 82t-82 203v548q0 119 84 203t203 84h78q127 0 239 -125l19 -24v176h-172v256h172v157h329
v-157h78v-256z" />
    <glyph glyph-name="Emacron" unicode="&#x112;" horiz-adv-x="1226" 
d="M938 1886v-256h-580v256h580zM150 1475h983v-326h-639v-231h510v-328h-510v-264h639v-326h-983v1475z" />
    <glyph glyph-name="emacron" unicode="&#x113;" horiz-adv-x="1103" 
d="M655 838h-206q-33 0 -33 -29v-137h270v137q0 29 -31 29zM449 268h206q31 0 31 29v65h332v-83q0 -119 -83 -202t-204 -83h-358q-121 0 -203 82t-82 203v548q0 119 84 203t203 84h358q119 0 203 -84t84 -203v-374h-602l-2 -156q0 -29 33 -29zM848 1274h-580v256h580v-256z
" />
    <glyph glyph-name="Edotaccent" unicode="&#x116;" horiz-adv-x="1226" 
d="M786 1616h-278v274h278v-274zM150 1475h983v-326h-639v-231h510v-328h-510v-264h639v-326h-983v1475z" />
    <glyph glyph-name="edotaccent" unicode="&#x117;" horiz-adv-x="1103" 
d="M694 1260h-278v274h278v-274zM655 838h-206q-33 0 -33 -29v-137h270v137q0 29 -31 29zM449 268h206q31 0 31 29v65h332v-83q0 -119 -83 -202t-204 -83h-358q-121 0 -203 82t-82 203v548q0 119 84 203t203 84h358q119 0 203 -84t84 -203v-374h-602l-2 -156q0 -29 33 -29z
" />
    <glyph glyph-name="Eogonek" unicode="&#x118;" horiz-adv-x="1226" 
d="M965 -367q-94 1 -129 61t12 140l96 166h-794v1475h983v-326h-639v-231h510v-328h-510v-264h639v-326h2l-103 -170q-12 -27 19 -27h114l4 -170h-204z" />
    <glyph glyph-name="eogonek" unicode="&#x119;" horiz-adv-x="1103" 
d="M659 838h-206q-33 0 -33 -29v-137h270v137q0 29 -31 29zM453 268h206q31 0 31 29v65h332v-83q0 -119 -83 -202t-204 -83h-57l-98 -164q-12 -27 18 -27h115v-170h-205q-94 1 -129 59t12 142l92 160h-110q-121 0 -203 82t-82 203v548q0 119 84 203t203 84h358
q119 0 203 -84t84 -203v-374h-602l2 -156q0 -29 33 -29z" />
    <glyph glyph-name="Ecaron" unicode="&#x11a;" horiz-adv-x="1226" 
d="M1133 1475v-326h-639v-231h510v-328h-510v-264h639v-326h-983v1475h983zM786 1610h-278l-305 272h280l164 -135l162 135h281z" />
    <glyph glyph-name="ecaron" unicode="&#x11b;" horiz-adv-x="1103" 
d="M655 838h-206q-33 0 -33 -29v-137h270v137q0 29 -31 29zM449 268h206q31 0 31 29v65h332v-83q0 -119 -83 -202t-204 -83h-358q-121 0 -203 82t-82 203v548q0 119 84 203t203 84h358q119 0 203 -84t84 -203v-374h-602l-2 -156q0 -29 33 -29zM418 1253l-305 273h280
l164 -135l162 135h280l-303 -273h-278z" />
    <glyph glyph-name="Gbreve" unicode="&#x11e;" 
d="M784 1608h-252q-53 0 -92 39t-39 92v159h181v-79q0 -19 12 -31t31 -12h75q37 0 37 45v80h181l-3 -162q-1 -53 -39 -92t-92 -39zM856 981v135q0 41 -45 41h-309q-43 0 -43 -41v-756q0 -43 43 -43h309q45 0 45 41v177h-235v309h579v-563q0 -127 -81 -208t-210 -81h-506
q-129 0 -209 81t-81 208v913q0 127 82 209t208 82h506q127 0 209 -82t82 -209v-213h-344z" />
    <glyph glyph-name="gbreve" unicode="&#x11f;" horiz-adv-x="1161" 
d="M686 1251h-252q-53 0 -92 39t-39 92v160h180v-80q1 -18 13 -30t30 -13h76q37 0 37 45v80h180l-2 -162q0 -53 -39 -92t-92 -39zM483 817h-34q-37 0 -37 -33v-385q0 -33 37 -32h34q135 0 219 63v324q-101 63 -219 63zM750 -403h-338q-119 0 -203 84t-84 202v84h315v-59
q0 -49 54 -49h159q53 0 54 49v309l-19 -24q-113 -125 -239 -125h-78q-119 0 -202 83t-83 203v473q0 119 84 203t203 84h78q127 0 239 -125l19 -24v141h329l-4 -1223q0 -121 -83 -203t-201 -83z" />
    <glyph glyph-name="Gdotaccent" unicode="&#x120;" 
d="M801 1616h-279v274h279v-274zM856 981v135q0 41 -45 41h-309q-43 0 -43 -41v-756q0 -43 43 -43h309q45 0 45 41v177h-235v309h579v-563q0 -127 -81 -208t-210 -81h-506q-129 0 -209 81t-81 208v913q0 127 82 209t208 82h506q127 0 209 -82t82 -209v-213h-344z" />
    <glyph glyph-name="gdotaccent" unicode="&#x121;" horiz-adv-x="1161" 
d="M702 1260h-278v274h278v-274zM483 817h-34q-37 0 -37 -33v-385q0 -33 37 -32h34q135 0 219 63v324q-101 63 -219 63zM750 -403h-338q-119 0 -203 84t-84 202v84h315v-59q0 -49 54 -49h159q53 0 54 49v309l-19 -24q-113 -125 -239 -125h-78q-119 0 -202 83t-83 203v473
q0 119 84 203t203 84h78q127 0 239 -125l19 -24v141h329l-4 -1223q0 -121 -83 -203t-201 -83z" />
    <glyph glyph-name="Gcommaaccent" unicode="&#x122;" 
d="M819 -141v-240q0 -70 -106 -201l-142 -174h-122l169 283h-120v332h321zM856 981v135q0 41 -45 41h-309q-43 0 -43 -41v-756q0 -43 43 -43h309q45 0 45 41v177h-235v309h579v-563q0 -127 -81 -208t-210 -81h-506q-129 0 -209 81t-81 208v913q0 127 82 209t208 82h506
q127 0 209 -82t82 -209v-213h-344z" />
    <glyph glyph-name="gcommaaccent" unicode="&#x123;" horiz-adv-x="1161" 
d="M483 817h-34q-37 0 -37 -33v-385q0 -33 37 -32h34q135 0 219 63v324q-101 63 -219 63zM750 -403h-338q-119 0 -203 84t-84 202v84h315v-59q0 -49 54 -49h159q53 0 54 49v309l-19 -24q-113 -125 -239 -125h-78q-119 0 -202 83t-83 203v473q0 119 84 203t203 84h78
q127 0 239 -125l19 -24v141h329l-4 -1223q0 -121 -83 -203t-201 -83zM406 1262v239q0 70 106 201l141 174h123l-170 -283h121v-331h-321z" />
    <glyph glyph-name="Hbar" unicode="&#x126;" horiz-adv-x="1439" 
d="M934 1030h-428v-104h428v104zM1446 1030h-168v-1030h-344v600h-428v-600h-344v1030h-162v236h162v209h344v-209h428v209h344v-209h168v-236z" />
    <glyph glyph-name="hbar" unicode="&#x127;" horiz-adv-x="1167" 
d="M711 1114h61q119 0 203 -84t84 -203v-827h-330v784q0 33 -37 33h-22q-102 0 -199 -53l-18 -10v-754h-330v1190h-119v215h119v149h330v-149h245v-215h-245v-225l18 24q113 125 240 125z" />
    <glyph glyph-name="Imacron" unicode="&#x12a;" horiz-adv-x="645" 
d="M150 0v1475h344v-1475h-344zM614 1886v-256h-579v256h579z" />
    <glyph glyph-name="imacron" unicode="&#x12b;" horiz-adv-x="591" 
d="M465 1106v-1106h-332v1106h332zM588 1503v-256h-580v256h580z" />
    <glyph glyph-name="Iogonek" unicode="&#x12e;" horiz-adv-x="645" 
d="M395 -197h115v-170h-205q-94 1 -129 61t12 140l97 166h-103v1475h344v-1475h-51l-98 -170q-12 -27 18 -27z" />
    <glyph glyph-name="iogonek" unicode="&#x12f;" horiz-adv-x="571" 
d="M154 1106h333v-1106h-139l-102 -170q-12 -27 18 -27h115v-170h-205q-94 1 -129 61t12 140l97 166v1106zM492 1554v-294h-347v294h347z" />
    <glyph glyph-name="Idotaccent" unicode="&#x130;" horiz-adv-x="645" 
d="M463 1616h-279v274h279v-274zM150 0v1475h344v-1475h-344z" />
    <glyph glyph-name="IJ" unicode="&#x132;" horiz-adv-x="1847" 
d="M1718 1475v-1194q0 -125 -79 -207t-207 -82h-453q-129 0 -210 81t-81 208v356h344v-279q0 -41 43 -41h256q43 0 43 41v1117h344zM150 0v1475h344v-1475h-344z" />
    <glyph glyph-name="ij" unicode="&#x133;" horiz-adv-x="1191" 
d="M784 -414h-256v287h181q31 0 30 29v1204h332l-2 -1235q0 -121 -82 -203t-203 -82zM451 1106v-1106h-330v1106h330zM1077 1260h-350v294h350v-294zM459 1260h-346v294h346v-294z" />
    <glyph glyph-name="Kcommaaccent" unicode="&#x136;" horiz-adv-x="1359" 
d="M586 -141h321v-240q0 -70 -106 -201l-142 -174h-122l170 283h-121v332zM487 0h-337v1475h337v-629l437 629h399l-432 -574l448 -901h-385l-295 598l-172 -229v-369z" />
    <glyph glyph-name="kcommaaccent" unicode="&#x137;" horiz-adv-x="1210" 
d="M473 -141h322v-240q0 -70 -107 -201l-141 -174h-123l170 283h-121v332zM451 0h-326v1475h326v-836l329 467h402l-379 -447l395 -659h-352l-254 412l-141 -168v-244z" />
    <glyph glyph-name="Lacute" unicode="&#x139;" horiz-adv-x="1130" 
d="M387 1610h-235l184 295h391zM150 1475h344v-1149h587v-326h-931v1475z" />
    <glyph glyph-name="lacute" unicode="&#x13a;" horiz-adv-x="561" 
d="M346 1690h-235l184 295h391zM115 1554h331v-1554h-331v1554z" />
    <glyph glyph-name="Lcommaaccent" unicode="&#x13b;" horiz-adv-x="1130" 
d="M150 1475h344v-1149h587v-326h-931v1475zM770 -141v-240q0 -70 -106 -201l-142 -174h-123l170 283h-120v332h321z" />
    <glyph glyph-name="lcommaaccent" unicode="&#x13c;" horiz-adv-x="561" 
d="M115 1554h331v-1554h-331v1554zM440 -141v-240q0 -70 -106 -201l-141 -174h-123l170 283h-121v332h321z" />
    <glyph glyph-name="Lcaron" unicode="&#x13d;" horiz-adv-x="1130" 
d="M150 1475h344v-1149h587v-326h-931v1475zM993 1554v-239q0 -70 -106 -201l-142 -174h-122l170 283h-121v331h321z" />
    <glyph glyph-name="lcaron" unicode="&#x13e;" horiz-adv-x="561" 
d="M115 1554h331v-1554h-331v1554zM969 1554v-239q0 -70 -107 -201l-141 -174h-123l170 283h-121v331h322z" />
    <glyph glyph-name="Ldot" unicode="&#x13f;" horiz-adv-x="1130" 
d="M1020 641h-322v332h322v-332zM150 1475h344v-1149h587v-326h-931v1475z" />
    <glyph glyph-name="ldot" unicode="&#x140;" horiz-adv-x="927" 
d="M115 1554h331v-1554h-331v1554zM903 618h-321v332h321v-332z" />
    <glyph glyph-name="Lslash" unicode="&#x141;" horiz-adv-x="1142" 
d="M1081 332v-332h-931v592l-130 -49v315l130 49v568h344v-439l282 107v-316l-282 -106v-389h587z" />
    <glyph glyph-name="lslash" unicode="&#x142;" horiz-adv-x="745" 
d="M555 0h-332v623l-200 -82v317l200 82v614h332v-481l170 70v-316l-170 -69v-758z" />
    <glyph glyph-name="Nacute" unicode="&#x143;" horiz-adv-x="1464" 
d="M795 1610h-236l184 295h392zM989 1475h324v-1475h-365l-475 911v-911h-323v1475h364l475 -914v914z" />
    <glyph glyph-name="nacute" unicode="&#x144;" horiz-adv-x="1173" 
d="M670 1253h-236l184 295h392zM692 817h-22q-102 0 -199 -53l-18 -10v-754h-330v1106h330v-141l18 24q113 125 240 125h63q119 0 203 -84t84 -203v-827h-330l-2 784q0 33 -37 33z" />
    <glyph glyph-name="Ncommaaccent" unicode="&#x145;" horiz-adv-x="1464" 
d="M893 -141v-240q0 -70 -107 -201l-141 -174h-123l170 283h-121v332h322zM989 1475h324v-1475h-365l-475 911v-911h-323v1475h364l475 -914v914z" />
    <glyph glyph-name="ncommaaccent" unicode="&#x146;" horiz-adv-x="1173" 
d="M750 -141v-240q0 -70 -107 -201l-141 -174h-123l170 283h-121v332h322zM692 817h-22q-102 0 -199 -53l-18 -10v-754h-330v1106h330v-141l18 24q113 125 240 125h63q119 0 203 -84t84 -203v-827h-330l-2 784q0 33 -37 33z" />
    <glyph glyph-name="Ncaron" unicode="&#x147;" horiz-adv-x="1464" 
d="M1313 1475v-1475h-365l-475 911v-911h-323v1475h364l475 -914v914h324zM870 1610h-278l-305 272h280l164 -135l162 135h281z" />
    <glyph glyph-name="ncaron" unicode="&#x148;" horiz-adv-x="1173" 
d="M692 817h-22q-102 0 -199 -53l-18 -10v-754h-330v1106h330v-141l18 24q113 125 240 125h63q119 0 203 -84t84 -203v-827h-330l-2 784q0 33 -37 33zM745 1253h-278l-305 273h280l164 -135l162 135h281z" />
    <glyph glyph-name="Eng" unicode="&#x14a;" horiz-adv-x="1458" 
d="M1024 -414h-291v295h221q39 0 39 35v86l-520 905v-907h-323v1475h366l467 -822v822h324l-2 -1604q0 -121 -82 -203t-199 -82z" />
    <glyph glyph-name="eng" unicode="&#x14b;" horiz-adv-x="1173" 
d="M711 1114h63q119 0 203 -84t84 -203v-944q0 -119 -84 -203t-203 -83h-229v286h149q37 0 37 33v868q0 33 -37 33h-22q-102 0 -199 -53l-18 -10v-754h-330v1106h330v-141l18 22q105 127 238 127z" />
    <glyph glyph-name="Omacron" unicode="&#x14c;" horiz-adv-x="1323" 
d="M954 1886v-256h-579v256h579zM459 1116v-758q0 -41 43 -41h317q43 0 43 41v758q0 41 -43 41h-317q-43 0 -43 -41zM918 -6h-515q-129 0 -209 81t-81 208v913q0 127 82 209t208 82h515q126 0 206 -82t80 -209v-913q0 -127 -78 -208t-208 -81z" />
    <glyph glyph-name="omacron" unicode="&#x14d;" horiz-adv-x="1124" 
d="M852 1530v-256h-580v256h580zM702 293v520q0 27 -30 27h-228q-31 0 -30 -27v-520q0 -27 30 -27h228q30 0 30 27zM375 1114h373q118 0 202 -84t84 -203v-548q0 -121 -82 -203t-202 -82h-377q-121 0 -203 82t-82 203v548q0 119 84 203t203 84z" />
    <glyph glyph-name="Ohungarumlaut" unicode="&#x150;" horiz-adv-x="1323" 
d="M1202 1907l-235 -297h-295l235 297h295zM762 1907l-236 -297h-295l236 297h295zM459 1116v-758q0 -41 43 -41h317q43 0 43 41v758q0 41 -43 41h-317q-43 0 -43 -41zM918 -6h-515q-129 0 -209 81t-81 208v913q0 127 82 209t208 82h515q126 0 206 -82t80 -209v-913
q0 -127 -78 -208t-208 -81z" />
    <glyph glyph-name="ohungarumlaut" unicode="&#x151;" horiz-adv-x="1124" 
d="M1100 1550l-236 -297h-295l236 297h295zM659 1550l-235 -297h-295l236 297h294zM702 293v520q0 27 -30 27h-228q-31 0 -30 -27v-520q0 -27 30 -27h228q30 0 30 27zM375 1114h373q118 0 202 -84t84 -203v-548q0 -121 -82 -203t-202 -82h-377q-121 0 -203 82t-82 203v548
q0 119 84 203t203 84z" />
    <glyph glyph-name="OE" unicode="&#x152;" horiz-adv-x="1986" 
d="M893 401v664q0 80 -78 80h-313q-43 0 -43 -41v-742q0 -41 43 -40h313q78 -1 78 79zM1239 1149v-244h498v-325h-498v-258h655v-324h-1491q-129 0 -209 81t-81 208v897q0 127 82 209t208 82h1491v-326h-655z" />
    <glyph glyph-name="oe" unicode="&#x153;" horiz-adv-x="1716" 
d="M709 322v462q0 33 -37 33h-226q-37 0 -36 -33v-462q0 -33 36 -33h226q37 0 37 33zM1274 821h-201q-37 0 -37 -33v-124h275v124q0 33 -37 33zM1274 285q37 0 37 32v48h325v-86q0 -119 -83 -202t-203 -83h-353q-72 0 -123 24q-57 -25 -124 -24h-377q-121 0 -203 82t-82 203
v548q0 119 84 203t203 84h377q63 0 125 -27q55 27 122 27h353q118 0 202 -84t84 -203v-393h-600l-2 -117q0 -33 37 -32h201z" />
    <glyph glyph-name="Racute" unicode="&#x154;" horiz-adv-x="1327" 
d="M698 1614h-235l184 295h391zM870 891v221q0 41 -43 41h-329v-303h329q43 0 43 41zM498 528v-524h-344v1475h772q127 0 207 -82t79 -209v-371q0 -94 -49 -168t-131 -104l223 -545l-364 4l-211 524h-182z" />
    <glyph glyph-name="racute" unicode="&#x155;" horiz-adv-x="901" 
d="M569 1253h-235l184 295h391zM856 809h-186q-123 0 -199 -51l-18 -13v-745h-330v1106h330v-141l18 24q113 125 240 125h145v-305z" />
    <glyph glyph-name="Rcommaaccent" unicode="&#x156;" horiz-adv-x="1327" 
d="M522 -137h322v-240q0 -70 -107 -201l-141 -174h-123l170 283h-121v332zM870 891v221q0 41 -43 41h-329v-303h329q43 0 43 41zM498 528v-524h-344v1475h772q127 0 207 -82t79 -209v-371q0 -94 -49 -168t-131 -104l223 -545l-364 4l-211 524h-182z" />
    <glyph glyph-name="rcommaaccent" unicode="&#x157;" horiz-adv-x="901" 
d="M451 -141v-240q0 -70 -107 -201l-141 -174h-123l170 283h-121v332h322zM856 809h-186q-123 0 -199 -51l-18 -13v-745h-330v1106h330v-141l18 24q113 125 240 125h145v-305z" />
    <glyph glyph-name="Rcaron" unicode="&#x158;" horiz-adv-x="1327" 
d="M870 891v221q0 41 -43 41h-329v-303h329q43 0 43 41zM498 528v-524h-344v1475h772q127 0 207 -82t79 -209v-371q0 -94 -49 -168t-131 -104l223 -545l-364 4l-211 524h-182zM492 1610l-306 272h281l164 -135l162 135h280l-303 -272h-278z" />
    <glyph glyph-name="rcaron" unicode="&#x159;" horiz-adv-x="901" 
d="M670 809q-123 0 -199 -51l-18 -13v-745h-330v1106h330v-141l18 24q113 125 240 125h145v-305h-186zM645 1253h-278l-306 273h281l164 -135l162 135h280z" />
    <glyph glyph-name="Sacute" unicode="&#x15a;" horiz-adv-x="1277" 
d="M696 1608h-235l184 295h391zM502 1155q-43 0 -43 -37v-139q0 -29 43 -37l381 -78q295 -61 295 -295v-288q0 -127 -81 -208t-210 -81h-484q-129 0 -209 81t-81 208v202h331v-129q0 -37 45 -37h297q43 0 43 37v154q0 29 -43 37l-380 80q-295 61 -295 295v274q0 125 79 209
q80 82 207 82h459q127 0 209 -82t82 -209v-188h-334l6 112q4 37 -43 37h-274z" />
    <glyph glyph-name="sacute" unicode="&#x15b;" horiz-adv-x="1087" 
d="M602 1253h-235l184 295h391zM651 760v57q0 31 -37 31h-153q-39 0 -39 -31v-59q0 -39 41 -45l303 -47q125 -18 185 -83t61 -155v-143q0 -121 -85 -206t-210 -85h-344q-123 0 -208 85t-85 206v80h332v-60q0 -31 37 -31h194q37 0 37 31v53q0 37 -39 43l-303 48
q-125 18 -185 81t-61 156v135q0 121 86 207t207 86h303q123 0 209 -86t86 -207v-61h-332z" />
    <glyph glyph-name="Scedilla" unicode="&#x15e;" horiz-adv-x="1277" 
d="M1174 567v-288q0 -127 -81 -208t-210 -81h-160l-47 -94h47q82 0 128 -40t46 -112v-20q0 -74 -45 -113t-125 -39h-190l-103 125h254q18 0 19 27v20q0 27 -19 27h-223l98 219h-160q-129 0 -209 81t-81 208v202h331v-129q0 -37 45 -37h297q43 0 43 37v154q0 27 -43 37
l-380 80q-295 61 -295 295v274q0 127 79 209q80 82 207 82h459q127 0 209 -82t82 -209v-188h-334v114q0 37 -43 37h-274q-43 0 -43 -37v-139q0 -29 43 -37l383 -80q295 -61 295 -295z" />
    <glyph glyph-name="scedilla" unicode="&#x15f;" horiz-adv-x="1087" 
d="M1008 285q0 -121 -85 -206t-210 -85h-97l-47 -94h47q82 0 128 -40t47 -112v-20q1 -74 -45 -113t-125 -39h-191l-102 125h254q18 0 18 27v20q0 27 -18 27h-224l99 219h-84q-123 0 -208 85t-85 206v80h332v-60q0 -31 37 -31h194q37 0 37 31v53q0 37 -39 43l-303 48
q-125 18 -185 81t-61 156v135q0 121 86 207t207 86h303q123 0 209 -86t86 -207v-61h-332v57q0 31 -37 31h-153q-39 0 -39 -31v-59q0 -39 41 -45l299 -47q125 -18 185 -83t61 -155v-143z" />
    <glyph glyph-name="Scaron" unicode="&#x160;" horiz-adv-x="1277" 
d="M502 1155q-43 0 -43 -37v-139q0 -29 43 -37l381 -78q295 -61 295 -295v-288q0 -127 -81 -208t-210 -81h-484q-129 0 -209 81t-81 208v202h331v-129q0 -37 45 -37h297q43 0 43 37v154q0 29 -43 37l-380 80q-295 61 -295 295v274q0 125 79 209q80 82 207 82h459
q127 0 209 -82t82 -209v-188h-334l6 112q4 37 -43 37h-274zM772 1608h-278l-306 272h281l164 -135l162 135h280z" />
    <glyph glyph-name="scaron" unicode="&#x161;" horiz-adv-x="1087" 
d="M651 817q0 31 -37 31h-153q-39 0 -39 -31v-59q0 -39 41 -45l303 -47q125 -18 185 -83t61 -155v-143q0 -121 -85 -206t-210 -85h-344q-123 0 -208 85t-85 206v80h332v-60q0 -31 37 -31h194q37 0 37 31v53q0 37 -39 43l-303 48q-125 18 -185 81t-61 156v135q0 121 86 207
t207 86h303q123 0 209 -86t86 -207v-61h-332v57zM678 1253h-279l-305 273h281l164 -135l161 135h281z" />
    <glyph glyph-name="Tcedilla" unicode="&#x162;" horiz-adv-x="1169" 
d="M664 -100q82 0 128 -40t46 -112v-20q0 -74 -45 -113t-125 -39h-191l-102 125h254q18 0 18 27v20q0 27 -18 27h-223l102 225h-94v1153h-367v322h1077v-322h-366v-1153h-86l-56 -100h48z" />
    <glyph glyph-name="tcedilla" unicode="&#x163;" horiz-adv-x="880" 
d="M817 289v-289h-201l-51 -100h47q82 0 128 -40t46 -112v-20q0 -74 -45 -113t-125 -39h-190l-102 125h254q18 0 18 27v20q0 27 -18 27h-224l103 225h39q-119 0 -203 84t-84 203v547h-168v272h172v369h322v-369h286v-272h-282l-4 -519q0 -27 30 -26h252z" />
    <glyph glyph-name="Tcaron" unicode="&#x164;" horiz-adv-x="1169" 
d="M758 1153v-1153h-344v1153h-367v322h1077v-322h-366zM727 1610h-278l-306 272h281l164 -135l162 135h280z" />
    <glyph glyph-name="tcaron" unicode="&#x165;" horiz-adv-x="880" 
d="M946 1833v-240q0 -70 -106 -200l-142 -174h-123l170 282h-120v332h321zM539 834v-519q0 -27 30 -26h252v-289h-325q-119 0 -203 84t-84 203v547h-168v272h172v369h322v-369h286v-272h-282z" />
    <glyph glyph-name="Tbar" unicode="&#x166;" horiz-adv-x="1169" 
d="M879 1886v-256h-580v256h580zM1124 1153h-366v-1153h-344v1153h-367v322h1077v-322z" />
    <glyph glyph-name="tbar" unicode="&#x167;" horiz-adv-x="880" 
d="M539 834v-158h110v-256h-110v-105q0 -27 30 -26h252v-289h-325q-119 0 -203 84t-84 203v133h-139v256h139v158h-168v272h172v369h322v-369h286v-272h-282z" />
    <glyph glyph-name="Umacron" unicode="&#x16a;" horiz-adv-x="1325" 
d="M958 1886v-256h-579v256h579zM909 -8h-491q-129 0 -210 81t-81 208v1194h344v-1117q0 -41 43 -41h295q43 0 43 41v1117h344l4 -1194q0 -127 -81 -208t-210 -81z" />
    <glyph glyph-name="umacron" unicode="&#x16b;" horiz-adv-x="1173" 
d="M874 1530v-256h-579v256h579zM481 289h23q96 0 196 53l19 10v754h330v-1106h-330v141l-19 -24q-111 -123 -239 -123h-64q-121 0 -203 82t-81 203v827h329l2 -784q0 -33 37 -33z" />
    <glyph glyph-name="Uring" unicode="&#x16e;" horiz-adv-x="1325" 
d="M905 -12h-491q-129 0 -210 81t-81 207v1194h344v-1116q0 -41 43 -41h295q43 0 43 41v1116h344l4 -1194q0 -128 -81 -208t-210 -80zM584 1835v-88q0 -25 24 -25h101q25 0 24 25v88q0 25 -24 25h-101q-24 0 -24 -25zM453 1677v232q1 27 23 49t48 22h273q29 0 51 -22t20 -47
v-232q0 -29 -20 -49t-49 -20l-277 -4q-27 0 -48 21t-21 50z" />
    <glyph glyph-name="uring" unicode="&#x16f;" horiz-adv-x="1173" 
d="M504 1479v-88q0 -25 24 -25h101q25 0 24 25v88q0 25 -24 24h-101q-24 1 -24 -24zM373 1321v231q0 27 22 50q23 23 49 22h273q29 0 51 -22t20 -48v-231q0 -29 -20 -49t-49 -21l-277 -4q-27 -1 -48 21t-21 51zM481 289h23q96 0 196 53l19 10v754h330v-1106h-330v141
l-19 -24q-111 -123 -239 -123h-64q-121 0 -203 82t-81 203v827h329l2 -784q0 -33 37 -33z" />
    <glyph glyph-name="Uhungarumlaut" unicode="&#x170;" horiz-adv-x="1325" 
d="M1206 1907l-235 -297h-295l235 297h295zM766 1907l-236 -297h-294l235 297h295zM909 -8h-491q-129 0 -210 81t-81 208v1194h344v-1117q0 -41 43 -41h295q43 0 43 41v1117h344l4 -1194q0 -127 -81 -208t-210 -81z" />
    <glyph glyph-name="uhungarumlaut" unicode="&#x171;" horiz-adv-x="1173" 
d="M1122 1550l-235 -297h-295l235 297h295zM682 1550l-236 -297h-294l235 297h295zM481 289h23q96 0 196 53l19 10v754h330v-1106h-330v141l-19 -24q-111 -123 -239 -123h-64q-121 0 -203 82t-81 203v827h329l2 -784q0 -33 37 -33z" />
    <glyph glyph-name="Uogonek" unicode="&#x172;" horiz-adv-x="1325" 
d="M913 -8h-129l-100 -170q-14 -27 18 -27h115v-170h-205q-94 1 -128 59t12 142l94 166h-172q-129 0 -210 81t-81 208v1194h344v-1117q0 -41 43 -41h295q43 0 43 41v1117h344l8 -1194q0 -127 -81 -208t-210 -81z" />
    <glyph glyph-name="uogonek" unicode="&#x173;" horiz-adv-x="1173" 
d="M829 -197h115v-170h-205q-94 1 -129 61t13 140l96 166h2v141l-19 -24q-111 -123 -239 -123h-64q-121 0 -203 82t-81 203v827h329v-784q0 -33 37 -33h23q96 0 196 53l19 10v754h330v-1106h-142l-96 -170q-14 -27 18 -27z" />
    <glyph glyph-name="Wcircumflex" unicode="&#x174;" horiz-adv-x="1861" 
d="M1159 0l-221 885l-219 -885h-336l-354 1475h368l160 -1012l248 1012h266l250 -1012l160 1012h352l-354 -1475h-320zM940 1747l-164 -137h-280l305 272h278l303 -272h-280z" />
    <glyph glyph-name="wcircumflex" unicode="&#x175;" horiz-adv-x="1640" 
d="M969 0l-138 637l-137 -637h-329l-338 1106h346l157 -774l158 774h289l158 -774l155 774h322l-312 -1106h-331zM836 1391l-164 -138h-281l305 273h279l303 -273h-281z" />
    <glyph glyph-name="Ycircumflex" unicode="&#x176;" horiz-adv-x="1226" 
d="M442 0v498l-436 977h375l233 -592l234 592h375l-437 -977v-498h-344zM616 1747l-163 -137h-281l305 272h279l303 -272h-281z" />
    <glyph glyph-name="ycircumflex" unicode="&#x177;" horiz-adv-x="1136" 
d="M1110 1106l-524 -1501h-295l135 395l-399 1106h321l215 -698l236 698h311zM412 1253h-281l305 273h279l303 -273h-281l-162 138z" />
    <glyph glyph-name="Ydieresis" unicode="&#x178;" horiz-adv-x="1226" 
d="M975 1618h-281v270h281v-270zM539 1618h-281v270h281v-270zM786 0h-344v498l-436 977h375l233 -592l234 592h375l-437 -977v-498z" />
    <glyph glyph-name="Zacute" unicode="&#x179;" horiz-adv-x="1226" 
d="M696 1610h-235l184 295h391zM123 1153v322h1018v-265l-617 -888h613v-322h-1051v264l619 889h-582z" />
    <glyph glyph-name="zacute" unicode="&#x17a;" horiz-adv-x="1001" 
d="M563 1253h-235l184 295h391zM72 817v289h850v-234l-455 -583h475v-289h-883v240l455 577h-442z" />
    <glyph glyph-name="Zdotaccent" unicode="&#x17b;" horiz-adv-x="1226" 
d="M772 1616h-278v274h278v-274zM123 1153v322h1018v-265l-617 -888h613v-322h-1051v264l619 889h-582z" />
    <glyph glyph-name="zdotaccent" unicode="&#x17c;" horiz-adv-x="1001" 
d="M639 1260h-279v274h279v-274zM72 817v289h850v-234l-455 -583h475v-289h-883v240l455 577h-442z" />
    <glyph glyph-name="Zcaron" unicode="&#x17d;" horiz-adv-x="1226" 
d="M123 1153v322h1018v-265l-617 -888h613v-322h-1051v264l619 889h-582zM772 1610h-278l-306 272h281l164 -135l162 135h280z" />
    <glyph glyph-name="zcaron" unicode="&#x17e;" horiz-adv-x="1001" 
d="M72 817v289h850v-234l-455 -583h475v-289h-883v240l455 577h-442zM639 1253h-279l-305 273h281l164 -135l162 135h280z" />
    <glyph glyph-name="florin" unicode="&#x192;" horiz-adv-x="989" 
d="M633 1106v-152h264v-313h-264v-358q0 -133 -75 -208t-210 -75h-280v324h176q45 0 45 41v276h-207v313h207v234q0 131 78 209t206 78h347v-326l-244 -2q-43 0 -43 -41z" />
    <glyph glyph-name="circumflex" unicode="&#x2c6;" horiz-adv-x="1351" 
d="M676 1747l-164 -137h-281l306 272h278l303 -272h-280z" />
    <glyph glyph-name="caron" unicode="&#x2c7;" horiz-adv-x="1351" 
d="M815 1610h-278l-306 272h281l164 -135l162 135h280z" />
    <glyph glyph-name="breve" unicode="&#x2d8;" horiz-adv-x="1265" 
d="M756 1608h-252q-53 0 -92 39t-39 92v159h180v-79q0 -19 12 -31t31 -12h76q37 0 37 45v80h180l-2 -162q0 -53 -39 -92t-92 -39z" />
    <glyph glyph-name="dotaccent" unicode="&#x2d9;" horiz-adv-x="876" 
d="M578 1616h-279v274h279v-274z" />
    <glyph glyph-name="ring" unicode="&#x2da;" horiz-adv-x="704" 
d="M272 1835v-88q0 -25 25 -25h100q25 0 25 25v88q0 25 -25 25h-100q-25 0 -25 -25zM141 1909q0 27 23 49t49 22h272q29 0 51 -22t21 -47v-232q-1 -29 -21 -49t-49 -20l-276 -4q-27 0 -48 21t-22 50v232z" />
    <glyph glyph-name="ogonek" unicode="&#x2db;" horiz-adv-x="782" 
d="M494 -197h114v-170h-205q-94 1 -129 61t13 140l96 166h190l-98 -170q-12 -27 19 -27z" />
    <glyph glyph-name="tilde" unicode="&#x2dc;" horiz-adv-x="1249" 
d="M477 1679l-39 -69h-137l41 194q16 78 121 56l305 -64l39 66h143l-45 -197q-18 -74 -117 -53z" />
    <glyph glyph-name="hungarumlaut" unicode="&#x2dd;" horiz-adv-x="1536" 
d="M1253 1907l-235 -297h-295l235 297h295zM813 1907l-235 -297h-295l235 297h295z" />
    <glyph glyph-name="commaaccentcomb" unicode="&#x326;" horiz-adv-x="0" 
d="M541 -141v-240q0 -70 -107 -201l-141 -174h-123l170 283h-121v332h322z" />
    <glyph glyph-name="Wgrave" unicode="&#x1e80;" horiz-adv-x="1861" 
d="M1159 0l-221 885l-219 -885h-336l-354 1475h368l160 -1012l248 1012h266l250 -1012l160 1012h352l-354 -1475h-320zM1116 1610h-233l-338 295h387z" />
    <glyph glyph-name="wgrave" unicode="&#x1e81;" horiz-adv-x="1640" 
d="M969 0l-138 637l-137 -637h-329l-338 1106h346l157 -774l158 774h289l158 -774l155 774h322l-312 -1106h-331zM1012 1253h-234l-338 295h387z" />
    <glyph glyph-name="Wacute" unicode="&#x1e82;" horiz-adv-x="1861" 
d="M1004 1610h-236l184 295h391zM1479 0h-320l-221 885l-219 -885h-336l-354 1475h368l160 -1012l248 1012h266l250 -1012l160 1012h352z" />
    <glyph glyph-name="wacute" unicode="&#x1e83;" horiz-adv-x="1640" 
d="M899 1253h-235l184 295h391zM1300 0h-331l-138 637l-137 -637h-329l-338 1106h346l157 -774l158 774h289l158 -774l155 774h322z" />
    <glyph glyph-name="Wdieresis" unicode="&#x1e84;" horiz-adv-x="1861" 
d="M1298 1618h-280v270h280v-270zM862 1618h-280v270h280v-270zM1479 0h-320l-221 885l-219 -885h-336l-354 1475h368l160 -1012l248 1012h266l250 -1012l160 1012h352z" />
    <glyph glyph-name="wdieresis" unicode="&#x1e85;" horiz-adv-x="1640" 
d="M1194 1262h-281v270h281v-270zM758 1262h-281v270h281v-270zM1300 0h-331l-138 637l-137 -637h-329l-338 1106h346l157 -774l158 774h289l158 -774l155 774h322z" />
    <glyph glyph-name="Ygrave" unicode="&#x1ef2;" horiz-adv-x="1226" 
d="M442 0v498l-436 977h375l233 -592l234 592h375l-437 -977v-498h-344zM793 1610h-234l-338 295h387z" />
    <glyph glyph-name="ygrave" unicode="&#x1ef3;" horiz-adv-x="1136" 
d="M1110 1106l-524 -1501h-295l135 395l-399 1106h321l215 -698l236 698h311zM518 1253l-338 295h387l185 -295h-234z" />
    <glyph glyph-name="endash" unicode="&#x2013;" horiz-adv-x="1153" 
d="M1059 827v-309h-963v309h963z" />
    <glyph glyph-name="emdash" unicode="&#x2014;" horiz-adv-x="1636" 
d="M1540 829v-311h-1444v311h1444z" />
    <glyph glyph-name="quoteleft" unicode="&#x2018;" horiz-adv-x="530" 
d="M104 860v242q0 68 107 198l141 175h123l-170 -283h121v-332h-322z" />
    <glyph glyph-name="quoteright" unicode="&#x2019;" horiz-adv-x="530" 
d="M426 1475v-240q0 -70 -107 -201l-141 -174h-123l170 283h-121v332h322z" />
    <glyph glyph-name="quotesinglbase" unicode="&#x201a;" horiz-adv-x="530" 
d="M426 332v-240q0 -68 -107 -198l-141 -175h-123l170 281h-121v332h322z" />
    <glyph glyph-name="quotedblleft" unicode="&#x201c;" horiz-adv-x="989" 
d="M563 860v242q0 68 107 198l141 175h123l-170 -283h121v-332h-322zM104 860v242q0 68 107 198l141 175h123l-170 -283h121v-332h-322z" />
    <glyph glyph-name="quotedblright" unicode="&#x201d;" horiz-adv-x="989" 
d="M887 1475v-240q0 -70 -107 -201l-141 -174h-123l170 283h-121v332h322zM426 1475v-240q0 -70 -107 -201l-141 -174h-123l170 283h-121v332h322z" />
    <glyph glyph-name="quotedblbase" unicode="&#x201e;" horiz-adv-x="530" 
d="M426 332v-240q0 -68 -107 -198l-141 -175h-123l170 281h-121v332h322z" />
    <glyph glyph-name="dagger" unicode="&#x2020;" horiz-adv-x="765" 
d="M737 819h-205v-819h-299v819h-206v287h206v369h299v-369h205v-287z" />
    <glyph glyph-name="daggerdbl" unicode="&#x2021;" horiz-adv-x="765" 
d="M532 819v-164h205v-286h-205v-369h-299v369h-206v286h206v164h-206v287h206v369h299v-369h205v-287h-205z" />
    <glyph glyph-name="bullet" unicode="&#x2022;" horiz-adv-x="876" 
d="M602 518h-330q-34 0 -56 23t-21 55v332q1 34 23 56t54 22h330q34 0 56 -23t22 -55v-332q0 -34 -22 -56t-56 -22z" />
    <glyph glyph-name="ellipsis" unicode="&#x2026;" horiz-adv-x="1443" 
d="M1339 0h-321v332h321v-332zM883 0h-322v332h322v-332zM426 0h-322v332h322v-332z" />
    <glyph glyph-name="perthousand" unicode="&#x2030;" horiz-adv-x="1822" 
d="M1579 178v201q0 35 -27 35h-86q-31 0 -30 -35v-201q0 -35 30 -35h86q27 0 27 35zM1024 178v201q0 35 -27 35h-86q-31 0 -30 -35v-201q0 -35 30 -35h86q27 0 27 35zM1405 565h205q57 0 94 -37t37 -94v-311q0 -57 -36 -93t-95 -36h-205q-59 0 -95 36t-36 93v311q0 57 37 94
t94 37zM854 565h201q59 0 96 -37t37 -94v-311q0 -57 -36 -93t-95 -36h-205q-59 0 -95 36t-36 93v311q0 57 37 94t96 37zM377 1096v200q0 35 -27 35h-86q-31 0 -31 -35v-200q0 -35 31 -35h86q27 0 27 35zM1077 1475l-624 -1475h-277l627 1475h274zM207 1483h201q59 0 96 -37
t37 -94v-312q0 -57 -37 -94t-94 -37h-205q-57 0 -94 37t-37 94v312q0 57 37 94t96 37z" />
    <glyph glyph-name="guilsinglleft" unicode="&#x2039;" horiz-adv-x="665" 
d="M629 1145l-305 -426l305 -424h-344l-262 367v114l262 369h344z" />
    <glyph glyph-name="guilsinglright" unicode="&#x203a;" horiz-adv-x="665" 
d="M645 776v-114l-262 -367h-344l305 424l-305 426h344z" />
    <glyph glyph-name="fraction" unicode="&#x2044;" horiz-adv-x="483" 
d="M791 1475l-863 -1475h-233l862 1475h234z" />
    <glyph glyph-name="zerosuperior" unicode="&#x2070;" horiz-adv-x="794" 
d="M289 1481v-406q0 -10 22 -10h172q25 0 25 10v406q0 10 -25 10h-172q-22 0 -22 -10zM70 1020v516q0 70 49 117q51 47 127 47h301q80 0 128 -45t48 -117v-516q0 -72 -48 -117t-128 -45l-301 -4q-76 0 -127 47q-49 47 -49 117z" />
    <glyph glyph-name="foursuperior" unicode="&#x2074;" horiz-adv-x="864" 
d="M485 1198v174l-180 -174h180zM821 1008h-125v-144h-211v144h-399l-51 159l487 533h174v-502h125v-190z" />
    <glyph glyph-name="fivesuperior" unicode="&#x2075;" horiz-adv-x="780" 
d="M690 1487h-399v-168l24 31q47 59 113 59h111q74 0 128 -51t54 -119v-217q0 -66 -55 -115t-127 -49h-301q-72 0 -126 52t-55 116v102h219v-36q0 -23 35 -23h156q37 0 37 23v108q0 23 -33 23h-70q-43 0 -86 -17l-22 -2l-219 62v434l616 -4v-209z" />
    <glyph glyph-name="sixsuperior" unicode="&#x2076;" horiz-adv-x="794" 
d="M291 1083q0 -23 33 -22h157q35 0 35 22v97q0 23 -33 22h-84q-10 0 -40 -7t-46 -9l-22 -4v-99zM471 1487h-147q-35 0 -35 -23v-172l24 29q51 63 111 63h127q74 0 128 -51t54 -116v-197q0 -66 -55 -115t-127 -49h-301q-72 0 -126 51t-54 117v512q0 66 54 117t126 51h291
q72 0 127 -49t55 -115v-84h-219l2 8q0 23 -35 23z" />
    <glyph glyph-name="sevensuperior" unicode="&#x2077;" horiz-adv-x="731" 
d="M27 1491v209h669v-170l-428 -666h-241l407 627h-407z" />
    <glyph glyph-name="eightsuperior" unicode="&#x2078;" horiz-adv-x="780" 
d="M459 1190h-140q-39 0 -38 -23v-86q0 -23 32 -22h150q33 0 33 22v86q0 23 -37 23zM453 1501h-129q-35 0 -35 -22v-72q0 -25 30 -25h134q33 0 32 25v72q1 22 -32 22zM715 1165v-139q1 -66 -55 -115t-128 -49h-290q-72 0 -126 52t-55 116v139q0 78 89 123q-78 47 -78 123
v123q0 66 55 115t127 49h270q72 0 128 -49t55 -115l-2 -125q0 -76 -80 -125q90 -47 90 -123z" />
    <glyph glyph-name="ninesuperior" unicode="&#x2079;" horiz-adv-x="794" 
d="M471 1491h-158q-33 0 -32 -23v-94q0 -14 7 -18t25 -4h82q49 0 92 14l21 4l-2 98q0 23 -35 23zM471 1065q37 0 37 22v170l-27 -30q-51 -59 -110 -60h-125q-74 -1 -128 51t-55 119v197q1 64 55 116t126 52h301q72 0 127 -49t55 -115v-512q0 -66 -55 -115t-127 -49h-291
q-70 0 -125 49t-55 115v84h217l-2 -23q0 -23 37 -22h145z" />
    <glyph glyph-name="Euro" unicode="&#x20ac;" horiz-adv-x="1392" 
d="M940 983v133q0 41 -45 41h-309q-43 0 -43 -41v-178h313v-152h-313v-104h313v-150h-313v-174q0 -41 43 -41h309q45 0 45 41v134h344v-211q0 -127 -81 -208t-210 -81h-506q-129 0 -207 82t-79 207v251h-156v150h156v104h-156v152h156v256q0 125 80 208t206 83h506
q127 0 209 -82t82 -209v-211h-344z" />
    <glyph glyph-name="trademark" unicode="&#x2122;" horiz-adv-x="1552" 
d="M1454 1475v-738h-160v439l-139 -324h-111l-139 324v-439h-160v738h191l162 -385l170 385h186zM637 1311h-184v-574h-174v574h-181v164h539v-164z" />
    <glyph glyph-name="oneeighth" unicode="&#x215b;" horiz-adv-x="1794" 
d="M211 637v608l-172 -49v176l219 101h170v-836h-217zM1319 1473l-864 -1473h-234l864 1473h234zM1473 326h-140q-39 0 -39 -23v-86q0 -23 33 -22h150q33 0 32 22v86q0 23 -36 23zM1466 637h-129q-35 0 -34 -23v-71q0 -25 30 -25h133q33 0 33 25v71q0 23 -33 23zM1729 162
q-1 -66 -55 -114t-128 -48h-291q-74 0 -127 51t-53 115v139q0 78 88 123q-78 47 -78 123v123q-1 66 55 114t128 50h270q72 0 127 -49t55 -115l-2 -125q0 -76 -80 -125q90 -47 91 -123v-139z" />
    <glyph glyph-name="threeeighths" unicode="&#x215c;" horiz-adv-x="2021" 
d="M1544 1464l-864 -1472h-234l865 1472h233zM1559 317q-39 0 -39 -22v-86q0 -23 32 -23h150q33 0 33 23v86q0 23 -37 22h-139zM1692 629h-129q-35 0 -35 -23v-71q0 -25 31 -25h133q33 0 32 25v71q1 23 -32 23zM1954 293v-139q0 -66 -54 -114t-128 -48h-291q-74 0 -127 51
t-54 115v139q0 78 89 123q-78 47 -78 123v123q0 66 55 114t127 49h270q71 -1 127 -49t56 -114l-2 -125q0 -76 -80 -125q90 -47 90 -123zM299 827h139q37 0 37 23v86q0 23 -37 22h-159v193h153q33 0 33 25v71q0 23 -37 23h-119q-37 0 -37 -23v-45h-217v103q-1 67 55 115
t128 48h264q72 0 127 -49t55 -114v-123q0 -76 -78 -123q88 -45 88 -123v-139q0 -66 -55 -115t-125 -49h-287q-72 0 -126 52t-54 116v102h219l-2 -53q0 -23 35 -23z" />
    <glyph glyph-name="fiveeighths" unicode="&#x215d;" horiz-adv-x="2043" 
d="M1567 1468l-865 -1472h-233l864 1472h234zM688 1260h-399v-168l24 30q47 59 113 60h111q74 0 128 -52t54 -118v-217q0 -66 -55 -115t-127 -49h-301q-72 0 -126 51t-55 117v102h219v-37q0 -23 35 -22h156q37 0 37 22v109q0 23 -33 22h-70q-43 0 -86 -16l-22 -2l-219 61
v435l616 -5v-208zM1722 326h-139q-39 0 -39 -23v-86q0 -23 33 -22h149q33 0 33 22v86q0 23 -37 23zM1716 637h-129q-35 0 -35 -23v-71q0 -25 31 -25h133q33 0 33 25v71q0 23 -33 23zM1978 301v-139q0 -66 -54 -114t-128 -48h-291q-74 0 -127 51t-53 115v139q0 78 88 123
q-78 47 -78 123v123q-1 66 55 114t128 50h270q72 0 127 -49t55 -115l-2 -125q0 -76 -80 -125q90 -47 90 -123z" />
    <glyph glyph-name="seveneighths" unicode="&#x215e;" horiz-adv-x="1830" 
d="M1356 1473l-864 -1473h-234l864 1473h234zM25 1264v209h669v-170l-428 -666h-241l407 627h-407zM1509 326h-139q-39 0 -39 -23v-86q0 -23 33 -22h149q33 0 33 22v86q0 23 -37 23zM1503 637h-129q-35 0 -35 -23v-71q0 -25 31 -25h133q33 0 33 25v71q0 23 -33 23zM1765 301
v-139q0 -66 -54 -114t-128 -48h-291q-74 0 -127 51t-53 115v139q0 78 88 123q-78 47 -78 123v123q0 66 56 114t127 50h270q72 0 127 -49t55 -115l-2 -125q0 -76 -80 -125q90 -47 90 -123z" />
    <glyph glyph-name="minus" unicode="&#x2212;" horiz-adv-x="1040" 
d="M109 920h825v-324h-825v324z" />
    <glyph glyph-name="infinity" unicode="&#x221e;" horiz-adv-x="1695" 
d="M1315 659v168q0 39 -41 39h-160q-43 0 -43 -39v-168q0 -39 43 -38h160q41 -1 41 38zM422 621h160q41 0 41 38v168q0 39 -41 39h-160q-43 0 -43 -39v-168q0 -38 43 -38zM1067 1180h240q127 0 209 -82t81 -211v-287q1 -129 -81 -211t-209 -82h-240q-121 0 -219 144
q-100 -143 -219 -144h-240q-127 0 -211 80q-82 80 -82 207v293q0 129 82 211t211 82h240q119 0 219 -144q98 144 219 144z" />
    <glyph glyph-name="notequal" unicode="&#x2260;" horiz-adv-x="1040" 
d="M934 698v-311h-426l-78 -248h-213l78 248h-186v311h286l43 136h-329v311h428l73 233h213l-73 -233h184v-311h-283l-43 -136h326z" />
    <glyph glyph-name="fi" unicode="&#xfb01;" horiz-adv-x="1392" 
d="M1272 1106v-1106h-330v1106h330zM1280 1260h-346v294h346v-294zM788 1272h-202q-31 0 -31 -27v-139h233v-272h-233v-834h-332v834h-172v272h172v162q0 118 84 202t203 84h278v-282z" />
    <glyph glyph-name="fl" unicode="&#xfb02;" horiz-adv-x="1382" 
d="M936 1554h332v-1554h-332v1554zM788 1272h-202q-31 0 -31 -27v-139h233v-272h-233v-834h-332v834h-172v272h172v162q0 118 84 202t203 84h278v-282z" />
    <glyph glyph-name="Q.ss01" horiz-adv-x="1333" 
d="M872 365v745q0 41 -43 41h-327q-43 0 -43 -41v-745q0 -41 43 -41h327q43 0 43 41zM403 1483h525q127 0 209 -82t82 -209v-913q0 -127 -81 -208t-210 -81h-88v-258h-344v258h-93q-129 0 -209 81t-81 208v913q-1 127 81 209t209 82z" />
    <glyph glyph-name="zero.subs" horiz-adv-x="794" 
d="M289 334v-404q0 -10 22 -10h172q25 0 25 10v404q0 10 -25 10h-172q-22 0 -22 -10zM70 -125v514q0 70 49 117q51 47 127 47h301q80 0 128 -45t48 -117v-514q0 -70 -48 -116t-128 -46l-301 -4q-76 0 -126 46t-50 118z" />
    <glyph glyph-name="one.subs" horiz-adv-x="530" 
d="M213 -281v607l-172 -50v177l219 100h170v-834h-217z" />
    <glyph glyph-name="two.subs" horiz-adv-x="759" 
d="M481 332q0 8 -12 8h-164q-37 0 -37 -23l8 -24h-208v98q0 66 55 115t125 49h278q70 0 125 -49t56 -115v-162q1 -61 -55 -107t-128 -63l-215 -51h-18q-16 0 -19 -12v-70h433v-209h-652v322q-1 61 55 107t125 61l218 51q10 2 20 2t10 25v47z" />
    <glyph glyph-name="three.subs" horiz-adv-x="757" 
d="M438 -92q37 0 37 22v84q0 23 -37 23h-159v192h153q33 0 33 25v72q0 23 -37 22h-119q-37 0 -37 -22v-45h-217v102q-1 66 55 115t128 49h264q72 0 127 -49t55 -115v-123q0 -76 -78 -123q88 -45 88 -123v-137q0 -66 -55 -115t-125 -49h-287q-72 0 -126 51t-54 117v103h219
l-2 -54q0 -23 35 -22h139z" />
    <glyph glyph-name="four.subs" horiz-adv-x="864" 
d="M485 51v174l-180 -174h180zM821 -137h-125v-144h-211v144h-399l-51 157l487 533h174v-502h125v-188z" />
    <glyph glyph-name="five.subs" horiz-adv-x="780" 
d="M690 340h-399v-168l24 31q47 59 113 59h111q74 0 128 -51t54 -119v-215q0 -66 -55 -115t-127 -49h-301q-72 0 -126 51t-55 117v103h219v-37q0 -23 35 -23h156q37 0 37 23v106q0 23 -33 23h-70q-43 0 -86 -17l-22 -2l-219 62v434l616 -4v-209z" />
    <glyph glyph-name="six.subs" horiz-adv-x="794" 
d="M291 -61q0 -23 33 -23h157q35 0 35 23v94q0 23 -33 22h-84q-10 0 -40 -7t-46 -9l-22 -4v-96zM471 340h-147q-35 0 -35 -23v-172l24 29q51 63 111 64h127q74 0 128 -52t54 -116v-195q0 -66 -55 -115t-127 -49h-301q-72 0 -126 52t-54 116v510q0 66 54 117t126 51h291
q72 0 127 -49t55 -115v-84h-219l2 8q0 23 -35 23z" />
    <glyph glyph-name="seven.subs" horiz-adv-x="731" 
d="M27 344v209h669v-170l-428 -664h-241l407 625h-407z" />
    <glyph glyph-name="eight.subs" horiz-adv-x="780" 
d="M459 43h-140q-39 0 -38 -23v-83q0 -23 32 -23h150q33 0 33 23v83q0 23 -37 23zM453 354h-129q-35 0 -35 -22v-72q0 -25 30 -24h134q33 0 32 24v72q1 22 -32 22zM715 18v-137q1 -67 -55 -115t-128 -49h-290q-72 -1 -126 51t-55 117v138q0 78 89 122q-78 47 -78 123v123
q0 66 55 115t127 49h270q72 0 128 -49t55 -115l-2 -125q0 -76 -80 -125q90 -47 90 -123z" />
    <glyph glyph-name="nine.subs" horiz-adv-x="794" 
d="M313 344q-33 0 -32 -22v-95q0 -14 7 -18t25 -4h82q49 0 92 14l21 4l-2 99q0 23 -35 22h-158zM326 -80h145q37 0 37 23v168l-27 -31q-51 -59 -110 -60h-125q-74 0 -128 52t-55 118v197q1 63 55 115t126 53h301q72 0 127 -49t55 -115v-510q0 -67 -55 -115t-127 -49h-291
q-70 -1 -125 49t-55 115v84h217l-2 -22q0 -23 37 -23z" />
    <glyph glyph-name="zero.tf" 
d="M473 1110v-745q0 -41 43 -41h277q43 0 43 41v745q0 41 -43 41h-277q-43 0 -43 -41zM891 -6h-473q-129 0 -208 81t-79 208v913q0 127 80 209t207 82h473q127 0 209 -82t82 -209v-913q0 -127 -81 -208t-210 -81z" />
    <glyph glyph-name="one.tf" 
d="M1135 0h-936v326h307v813l-307 -103v336l305 103h346v-1149h285v-326z" />
    <glyph glyph-name="two.tf" 
d="M477 1102v-82h-334v168q0 121 88 209t205 88h467q121 0 209 -88t88 -209v-273q0 -109 -86 -187t-209 -110l-373 -106q-37 -10 -48 -21t-11 -42v-125h731v-324h-1075v537q0 111 86 187t209 110l373 106q37 10 48 22t11 44v98q0 55 -59 55h-260q-60 0 -60 -57z" />
    <glyph glyph-name="three.tf" 
d="M778 311q61 0 62 58v170q0 59 -74 59h-281v305h281q29 0 43 12t14 48v141q0 57 -61 57h-230q-59 0 -59 -57v-86h-344v170q0 121 88 209t209 88h448q119 0 208 -89t89 -208v-215q0 -143 -127 -221q143 -74 144 -222v-243q0 -121 -87 -208t-206 -87h-481q-123 0 -210 87
t-87 208v170h344l-4 -88q-2 -29 13 -43t46 -15h262z" />
    <glyph glyph-name="four.tf" 
d="M745 575v476l-339 -476h339zM1270 270h-193v-270h-332v270h-649l-73 260l688 945h366v-900h193v-305z" />
    <glyph glyph-name="five.tf" 
d="M1139 1149h-652v-330l19 25q111 123 237 123h148q121 0 210 -89t89 -208v-383q0 -121 -87 -208t-210 -87h-477q-123 0 -210 87t-87 208v170h344v-80q0 -59 59 -60h260q59 0 60 58v231q0 57 -60 58h-80q-102 0 -198 -54l-19 -10l-344 98v777h998v-326z" />
    <glyph glyph-name="six.tf" 
d="M674 625q-116 0 -215 -62v-186q0 -59 59 -60h260q61 0 62 58v192q0 57 -60 58h-106zM764 1157h-246q-59 0 -59 -57v-322l10 21q35 37 59 57t76 48q53 26 109 26h172q119 0 209 -90t90 -209v-344q0 -121 -87 -208t-206 -87h-479q-123 0 -210 87t-87 208v901q0 121 88 209
t209 88h462q121 0 209 -88t88 -209v-141h-344l-4 53q-2 57 -59 57z" />
    <glyph glyph-name="seven.tf" 
d="M100 1149v326h1143v-269l-717 -1206h-379l687 1149h-734z" />
    <glyph glyph-name="eight.tf" 
d="M772 598h-227q-72 0 -72 -59v-170q0 -57 59 -58h252q59 0 60 58v170q0 59 -72 59zM489 961q1 -33 13 -45t41 -13h227q29 0 41 12t12 48v141q0 57 -59 57l-215 -2q-59 0 -60 -57v-141zM1167 1188v-215q0 -143 -127 -221q143 -74 144 -222v-243q0 -121 -87 -208t-210 -87
h-469q-123 0 -210 87t-87 208v243q0 147 143 222q-127 78 -127 221v215q0 121 88 209t209 88h436q121 0 209 -88t88 -209z" />
    <glyph glyph-name="nine.tf" 
d="M838 1098q0 59 -62 59h-260q-59 0 -59 -57v-191q0 -57 59 -57h105q102 0 198 53l19 10v183zM776 317q61 0 62 58v321l-19 -24q-111 -123 -237 -123h-172q-121 0 -209 88t-88 209v342q0 121 88 209t209 88h479q119 0 208 -89t89 -208v-901q0 -121 -87 -208t-206 -87h-465
q-119 0 -206 87t-87 208v141h344l-8 -53q0 -57 61 -58h244z" />
    <glyph glyph-name="zero.dnom" horiz-adv-x="794" 
d="M289 616v-405q0 -10 22 -10h172q25 0 25 10v405q0 10 -25 11h-172q-22 -1 -22 -11zM70 156v516q0 70 50 116t126 48h301q80 0 128 -45t48 -117v-516q0 -72 -47 -116t-129 -44l-301 -4q-80 0 -128 46t-48 116z" />
    <glyph glyph-name="one.dnom" horiz-adv-x="530" 
d="M213 0v608l-172 -49v176l219 101h170v-836h-217z" />
    <glyph glyph-name="two.dnom" horiz-adv-x="759" 
d="M481 614q0 9 -12 9h-164q-37 0 -37 -23l8 -25h-208v99q0 66 55 114t125 50h278q70 0 125 -50t56 -114v-162q1 -62 -55 -108t-128 -62l-215 -51h-18q-17 0 -19 -15v-69h433v-207h-652v322q-1 59 55 106t125 61l218 52q10 2 20 2t10 24v47z" />
    <glyph glyph-name="three.dnom" horiz-adv-x="757" 
d="M299 188h139q37 0 37 23v86q0 23 -37 22h-159v193h153q33 0 33 25v71q0 23 -37 23h-119q-37 0 -37 -23v-45h-217v103q-1 66 55 114t128 49h264q72 0 127 -49t55 -114v-123q0 -76 -78 -123q88 -45 88 -123v-139q0 -66 -54 -114t-126 -48h-287q-74 0 -127 51t-53 115v102
h219l-2 -53q0 -23 35 -23z" />
    <glyph glyph-name="four.dnom" horiz-adv-x="864" 
d="M485 334v174l-180 -174h180zM821 143h-125v-143h-211v143h-399l-51 160l487 533h174v-502h125v-191z" />
    <glyph glyph-name="five.dnom" horiz-adv-x="780" 
d="M690 623h-399v-168l24 30q47 59 113 60h111q74 0 128 -51t54 -119v-217q0 -66 -54 -114t-128 -48h-301q-74 0 -127 51t-54 115v102h219v-37q0 -23 35 -22h156q37 0 37 22v109q0 23 -33 22h-70q-43 0 -86 -16l-22 -2l-219 61v435l616 -5v-208z" />
    <glyph glyph-name="six.dnom" horiz-adv-x="794" 
d="M291 217q0 -23 33 -22h157q35 0 35 22v96q0 23 -33 23h-84q-10 0 -40 -7t-46 -10l-22 -4v-98zM471 621h-147q-35 0 -35 -23v-172l24 29q51 63 111 63h127q74 0 128 -52t54 -116v-196q0 -66 -54 -114t-128 -48h-301q-74 0 -127 51t-53 115v512q0 63 54 115t126 53h291
q72 0 127 -50t55 -114v-84h-219l2 8q0 23 -35 23z" />
    <glyph glyph-name="seven.dnom" horiz-adv-x="731" 
d="M27 627v209h669v-170l-428 -666h-241l407 627h-407z" />
    <glyph glyph-name="eight.dnom" horiz-adv-x="780" 
d="M459 326h-140q-39 0 -38 -23v-86q0 -23 32 -22h150q33 0 33 22v86q0 23 -37 23zM453 637h-129q-35 0 -35 -23v-71q0 -25 30 -25h134q33 0 32 25v71q1 23 -32 23zM715 301v-139q-1 -66 -55 -114t-128 -48h-290q-74 0 -127 51t-54 115v139q0 78 89 123q-78 47 -78 123v123
q0 66 55 114t127 50h270q72 0 128 -49t55 -115l-2 -125q0 -76 -80 -125q90 -47 90 -123z" />
    <glyph glyph-name="nine.dnom" horiz-adv-x="794" 
d="M471 627h-158q-33 0 -32 -23v-94q0 -14 7 -18t25 -5h82q49 0 92 15l21 4l-2 98q0 23 -35 23zM471 201q37 0 37 22v170l-27 -31q-51 -59 -110 -59h-125q-74 0 -128 51t-55 119v197q1 63 55 115t126 53h301q72 0 127 -50t55 -114v-512q0 -66 -54 -114t-128 -48h-291
q-72 0 -126 48t-54 114v84h217l-2 -23q0 -23 37 -22h145z" />
    <glyph glyph-name="zero.numr" horiz-adv-x="794" 
d="M289 1255v-405q0 -10 22 -10h172q25 0 25 10v405q0 10 -25 11h-172q-22 -1 -22 -11zM70 795v516q0 71 50 117t126 47h301q80 0 128 -45t48 -117v-516q0 -72 -48 -117t-128 -45l-301 -4q-76 0 -127 47q-49 47 -49 117z" />
    <glyph glyph-name="one.numr" horiz-adv-x="530" 
d="M213 639v608l-172 -49v176l219 101h170v-836h-217z" />
    <glyph glyph-name="two.numr" horiz-adv-x="759" 
d="M481 1253q0 9 -12 9h-164q-37 0 -37 -23l8 -25h-208v99q0 67 55 115t125 49h278q70 1 125 -49t56 -115v-162q1 -61 -55 -107t-128 -63l-215 -51h-18q-17 0 -19 -15v-69h433v-209h-652v324q-1 59 55 106t125 61l218 52q10 2 20 2t10 24v47z" />
    <glyph glyph-name="three.numr" horiz-adv-x="757" 
d="M299 827h139q37 0 37 23v86q0 23 -37 22h-159v193h153q33 0 33 25v71q0 23 -37 23h-119q-37 0 -37 -23v-45h-217v103q-1 67 55 115t128 48h264q72 0 127 -49t55 -114v-123q0 -76 -78 -123q88 -45 88 -123v-139q0 -66 -55 -115t-125 -49h-287q-72 0 -126 52t-54 116v102
h219l-2 -53q0 -23 35 -23z" />
    <glyph glyph-name="four.numr" horiz-adv-x="864" 
d="M485 973v174l-180 -174h180zM821 782h-125v-143h-211v143h-399l-51 160l487 533h174v-502h125v-191z" />
    <glyph glyph-name="five.numr" horiz-adv-x="780" 
d="M690 1262h-399v-168l24 30q47 59 113 60h111q74 0 128 -51t54 -119v-217q0 -66 -55 -115t-127 -49h-301q-72 0 -126 52t-55 116v102h219v-37q0 -23 35 -22h156q37 0 37 22v109q0 23 -33 22h-70q-43 0 -86 -16l-22 -2l-219 61v435l616 -5v-208z" />
    <glyph glyph-name="six.numr" horiz-adv-x="794" 
d="M291 858q0 -23 33 -22h157q35 0 35 22v96q0 23 -33 23h-84q-10 0 -40 -7t-46 -9l-22 -5v-98zM471 1262h-147q-35 0 -35 -23v-172l24 29q51 63 111 63h127q74 0 128 -51t54 -117v-196q0 -66 -55 -115t-127 -49h-301q-72 0 -126 51t-54 117v512q0 67 54 117t126 51h291
q72 0 127 -49t55 -115v-84h-219l2 8q0 23 -35 23z" />
    <glyph glyph-name="seven.numr" horiz-adv-x="731" 
d="M27 1266v209h669v-170l-428 -666h-241l407 627h-407z" />
    <glyph glyph-name="eight.numr" horiz-adv-x="780" 
d="M459 965h-140q-39 0 -38 -23v-86q0 -23 32 -22h150q33 0 33 22v86q0 23 -37 23zM453 1276h-129q-35 0 -35 -23v-71q0 -25 30 -25h134q33 0 32 25v71q1 23 -32 23zM715 940v-139q1 -66 -55 -115t-128 -49h-290q-72 0 -126 52t-55 116v139q0 78 89 123q-78 47 -78 123v123
q0 67 55 115t127 49h270q72 0 128 -49t55 -115l-2 -125q0 -76 -80 -125q90 -47 90 -123z" />
    <glyph glyph-name="nine.numr" horiz-adv-x="794" 
d="M471 1266h-158q-33 0 -32 -23v-94q0 -14 6 -19q8 -4 26 -4h82q49 0 92 15l21 4l-2 98q0 23 -35 23zM471 840q37 0 37 22v170l-27 -31q-51 -59 -110 -59h-125q-74 0 -128 51t-55 119v197q1 63 55 115t126 53h301q72 1 127 -49t55 -115v-512q0 -66 -55 -115t-127 -49h-291
q-70 0 -125 49t-55 115v84h217l-2 -23q0 -23 37 -22h145z" />
    <glyph glyph-name="numbersign.tf" 
d="M778 874h-157l-86 -249h159zM1165 625v-314h-254l-106 -311h-324l107 311h-158l-106 -311h-324l106 311h-102v314h209l84 249h-152v314h258l99 287h321l-96 -287h158l98 287h322l-97 -287h99v-314h-205l-86 -249h149z" />
    <glyph glyph-name="florin.tf" 
d="M791 1106v-152h284v-313h-284v-358q0 -133 -75 -208t-210 -75h-301v324h196q45 0 45 41v276h-227v313h227v234q0 131 78 209t207 78h367v-326l-264 -2q-43 0 -43 -41z" />
    <glyph glyph-name="cent.tf" 
d="M555 997h-33q-43 0 -43 -36v-435q0 -37 43 -37h33v508zM844 842v119q0 37 -43 36h-17v-508h17q43 0 43 37v119h307v-162q0 -127 -82 -207t-209 -79h-51v-195h-283v195h-67q-127 -1 -209 79t-82 207v521q0 126 82 206t209 80h67v183h283v-183h51q127 0 209 -80t82 -206
v-162h-307z" />
    <glyph glyph-name="currency.tf" 
d="M788 606v291q0 37 -40 37h-191q-43 0 -43 -37v-291q0 -37 43 -37h191q40 0 40 37zM788 301h-272q-47 0 -74 8l-184 -184l-201 205l181 180q-8 31 -9 80v328q0 37 7 73l-179 178l201 205l178 -178q31 8 80 8h272q49 0 80 -8l179 178l200 -205l-178 -178q8 -26 8 -73
l-2 -330q0 -49 -8 -80l178 -178l-201 -205l-182 182q-37 -6 -74 -6z" />
    <glyph glyph-name="dollar.tf" 
d="M836 356v146q0 31 -45 39l-43 8v-230h43q45 0 45 37zM461 1114v-133q0 -27 43 -37l26 -2v211l-26 -2q-43 -4 -43 -37zM1180 569v-290q0 -127 -79 -208t-208 -81h-117v-207h-270v207h-96q-129 0 -208 81t-79 208v202h332v-125q0 -37 45 -37h35v275l-119 24
q-121 25 -208 106t-87 191v279q0 127 82 209t209 82h98v207h270v-207h90q127 0 209 -82t82 -209v-188h-334v110q0 37 -43 37h-28v-258l129 -29q125 -30 210 -108t85 -189z" />
    <glyph glyph-name="Euro.tf" 
d="M924 983v133q0 41 -43 41h-318q-43 0 -43 -41v-178h320v-152h-320v-104h320v-150h-320v-174q0 -41 43 -41h318q43 0 43 41v134h344v-211q0 -125 -79 -207t-208 -82h-514q-129 0 -210 81t-81 208v251h-156v150h156v104h-156v152h156v256q0 127 82 209t209 82h514
q127 0 207 -83t80 -208v-211h-344z" />
    <glyph glyph-name="sterling.tf" 
d="M1196 326v-326h-1149v326h107q61 0 61 61v164h-168v323h168v314q0 139 81 216t216 77h383q137 0 215 -78t78 -215v-199h-344v127q0 41 -43 41h-199q-43 0 -43 -41v-242h246v-323h-246v-225h637z" />
    <glyph glyph-name="yen.tf" 
d="M1126 692v-149h-278l-23 -51v-27h301v-150h-301v-315h-344v315h-303v150h303v27l-22 51h-281v149h215l-348 783h375l233 -590l234 590h375l-349 -783h213z" />
    </font>
</defs>
</svg>
