<?xml version="1.0" standalone="no"?>
<!DOCTYPE svg PUBLIC "-//W3C//DTD SVG 1.1//EN" "http://www.w3.org/Graphics/SVG/1.1/DTD/svg11.dtd" >
<svg xmlns="http://www.w3.org/2000/svg">
<metadata>
Created by FontPrep 20130207 at Wed Jan 13 07:20:37 2016
 By Matthew Higley
Copyright A~A^A~A^A~A^A~A^(c) 2013 by Mattox Shuler. All rights reserved.
</metadata>
<defs>
<font id="7c3a361d084c6f179417b662b7b6bd7e" horiz-adv-x='1024' >
  <font-face 
    font-family="Industry-Thin"
    font-weight="100"
    font-stretch="normal"
    units-per-em="2048"
    panose-1="0 0 0 0 0 0 0 0 0 0"
    ascent="1624"
    descent="-424"
    x-height="1094"
    cap-height="1462"
    bbox="-285 -532 1896 1942"
    underline-thickness="102"
    underline-position="-100"
    unicode-range="U+0020-FB02"
  />
<missing-glyph horiz-adv-x="1480" 
 />
    <glyph glyph-name=".notdef" horiz-adv-x="1480" 
 />
    <glyph glyph-name=".null" horiz-adv-x="0" 
 />
    <glyph glyph-name="nonmarkingreturn" horiz-adv-x="681" 
 />
    <glyph glyph-name="space" unicode=" " horiz-adv-x="540" 
 />
    <glyph glyph-name="exclam" unicode="!" horiz-adv-x="620" 
d="M360 1462l-41 -1075h-18l-41 1075h100zM360 12h-100v133h100v-133z" />
    <glyph glyph-name="quotedbl" unicode="&#x22;" horiz-adv-x="724" 
d="M547 1462l-35 -424h-29l-34 424h98zM274 1462l-34 -424h-29l-35 424h98z" />
    <glyph glyph-name="numbersign" unicode="#" horiz-adv-x="1531" 
d="M1415 975h-289l-118 -451h266v-51h-281l-123 -461h-63l123 461h-473l-123 -461h-64l123 461h-278v51h293l118 451h-270v51h283l116 436h66l-117 -436h471l117 436h65l-116 -436h274v-51zM1063 975h-473l-119 -451h473z" />
    <glyph glyph-name="dollar" unicode="$" horiz-adv-x="1286" 
d="M825 4h-143v-174h-72v174h-145q-139 0 -212 73t-73 210v119h76v-119q0 -101 53 -161t154 -60h149v657l-141 37q-90 23 -128 38t-85 50q-43 35 -59 78t-17 118v142q0 137 74 211t211 73h141v175h72v-175h123q137 0 211 -74t73 -210v-96h-75v96q0 102 -54 162t-153 59h-125
v-627l143 -35q154 -37 219 -96q63 -53 64 -188v-174q0 -139 -72 -211t-209 -72zM258 1184v-137q0 -117 61 -159q35 -24 55 -29t66 -17l172 -45v610l-143 -2q-99 0 -155 -59t-56 -162zM1034 287v168q0 116 -51 155q-31 20 -53 33q-20 6 -36 10t-40 11l-172 43v-641h145
q100 0 154 59q53 60 53 162z" />
    <glyph glyph-name="percent" unicode="%" horiz-adv-x="1310" 
d="M238 922q-49 0 -84 34t-35 84v312q0 47 36 83t85 35h180q49 0 84 -34t35 -84v-312q0 -49 -35 -84t-84 -34h-182zM1081 1462l-805 -1450h-55l801 1450h59zM1069 2h-182q-49 0 -84 34t-35 83v311q0 47 36 83t85 36h180q49 0 84 -35t35 -84v-311q0 -49 -35 -83t-84 -34z
M465 1044v302q0 57 -49 57h-168q-23 -1 -39 -17t-16 -38v-306q0 -27 16 -42t39 -15h168q49 0 49 59zM1114 123v301q0 57 -49 57h-168q-23 0 -39 -16t-16 -39v-305q0 -27 16 -42t39 -16h168q49 1 49 60z" />
    <glyph glyph-name="ampersand" unicode="&#x26;" horiz-adv-x="1347" 
d="M1079 291q1 -139 -71 -211t-209 -72h-348q-139 0 -212 73t-73 210v250q0 78 46 137t132 80q-86 45 -121 96q-39 51 -39 129v205q0 137 74 211t211 74h313q137 0 211 -74t74 -211v-111h-74v111q0 102 -55 162q-57 59 -156 59h-313q-99 0 -155 -59t-56 -162v-205
q0 -106 43 -149t162 -43h794v-64l-178 2v-438zM1006 291v438l-549 -2q-119 0 -168 -45t-49 -141v-250q0 -102 55 -162q57 -59 156 -59h348q99 0 153 60t54 161z" />
    <glyph glyph-name="quotesingle" unicode="'" horiz-adv-x="452" 
d="M274 1462l-34 -424h-29l-35 424h98z" />
    <glyph glyph-name="parenleft" unicode="(" horiz-adv-x="675" 
d="M518 -203h-16q-137 0 -211 74t-74 209v1229q0 137 74 211t211 73h16v-63q-103 13 -165 -50q-62 -62 -62 -169v-1229q0 -98 55 -160t156 -61h16v-64z" />
    <glyph glyph-name="parenright" unicode=")" horiz-adv-x="675" 
d="M174 -203h-16v64h16q98 0 156 59q55 59 55 160v1229q0 104 -56 162t-155 59h-16v63h16q137 1 211 -73t74 -211v-1229q0 -135 -74 -209t-211 -74z" />
    <glyph glyph-name="asterisk" unicode="*" horiz-adv-x="811" 
d="M723 1204l-297 -78l197 -237l-52 -37l-165 258l-168 -260l-50 39l197 237l-299 82l20 62l285 -115l-20 307h67l-20 -307l287 113z" />
    <glyph glyph-name="plus" unicode="+" horiz-adv-x="1040" 
d="M885 729h-338v-344h-55v344h-338v57h338v344h55v-344h338v-57z" />
    <glyph glyph-name="comma" unicode="," horiz-adv-x="440" 
d="M168 12v135h104v-114q0 -35 -59 -156l-51 -106h-25l103 241h-72z" />
    <glyph glyph-name="hyphen" unicode="-" horiz-adv-x="841" 
d="M690 641h-538v72h538v-72z" />
    <glyph glyph-name="period" unicode="." horiz-adv-x="440" 
d="M272 12h-104v135h104v-135z" />
    <glyph glyph-name="slash" unicode="/" horiz-adv-x="911" 
d="M842 1606l-715 -1735h-57l714 1735h58z" />
    <glyph glyph-name="zero" unicode="0" horiz-adv-x="1312" 
d="M844 6h-373q-139 0 -212 73t-73 210v897q0 137 74 211t211 73h373q137 0 211 -74t73 -210v-897q1 -137 -72 -210t-212 -73zM1055 289v897q-1 104 -57 162t-154 59h-373q-99 0 -155 -58t-56 -163v-897q0 -105 56 -163t155 -58h373q98 0 155 59q56 60 56 162z" />
    <glyph glyph-name="one" unicode="1" horiz-adv-x="677" 
d="M436 12h-74v1381l-241 -101v68l237 102h78v-1450z" />
    <glyph glyph-name="two" unicode="2" horiz-adv-x="1224" 
d="M784 1473q285 0 285 -285v-199q0 -52 -31 -121q-6 -8 -42 -38l-48 -40q-27 -17 -54 -27q-26 -10 -118 -61l-362 -190q-100 -53 -138 -87t-38 -106v-247h831v-62h-905v309q0 55 8 75t21 44q12 16 24 27l31 27q13 14 38 26t30 16q4 4 10 5q6 2 8 4l477 250q100 53 138 87
t38 105v199q0 102 -53 162t-154 59h-313q-101 0 -155 -61t-52 -160l2 -109h-76v113q0 285 285 285h313z" />
    <glyph glyph-name="three" unicode="3" horiz-adv-x="1245" 
d="M426 4q-285 0 -285 283v86h74q-27 -164 49 -250q51 -59 154 -60h366q100 -1 154 59t53 163v254q0 186 -213 186h-364v63h364q115 0 156 48q43 45 43 143v209q0 102 -53 162t-154 59h-334q-100 0 -153 -59t-54 -162v-86h-73v86q0 285 284 285h334q285 0 285 -285v-207
q0 -78 -37 -129t-123 -96q86 -20 132 -80t46 -137v-252q2 -283 -284 -283h-367z" />
    <glyph glyph-name="four" unicode="4" horiz-adv-x="1249" 
d="M1153 406h-217v-394h-78v394h-784v63l739 993h123v-993h217v-63zM858 469v946l-704 -946h704z" />
    <glyph glyph-name="five" unicode="5" horiz-adv-x="1193" 
d="M1059 287q0 -283 -285 -283h-323q-285 0 -285 283v96h74v-96q0 -101 53 -161t153 -60h324q100 0 154 59q53 59 53 162v383q0 209 -199 209h-170q-111 0 -223 -68l-129 -78l-84 27v702h864v-63l-780 -2v-633l154 110q90 66 208 66h170q131 0 201 -70t70 -200v-383z" />
    <glyph glyph-name="six" unicode="6" horiz-adv-x="1253" 
d="M467 4q-285 0 -285 283v901q0 285 285 285h301q285 0 285 -285v-96h-74l-4 98q-8 221 -207 221h-301q-99 0 -153 -59t-54 -162v-463l154 111q88 63 207 63h170q286 0 284 -285v-329q2 -283 -284 -283h-324zM995 287v329q0 102 -53 162t-154 60h-170q-111 0 -223 -68
l-139 -84l2 -399q0 -101 53 -161t154 -60h323q100 0 154 59q53 60 53 162z" />
    <glyph glyph-name="seven" unicode="7" 
d="M84 1399v63h924v-41l-656 -1409h-76l648 1387h-840z" />
    <glyph glyph-name="eight" unicode="8" horiz-adv-x="1294" 
d="M451 4q-285 0 -285 283v245q0 78 46 138t132 80q-160 82 -160 225v213q0 285 285 285h352q141 0 214 -73t71 -212l-4 -213q-2 -74 -38 -128t-122 -97q86 -20 132 -80t46 -138v-245q2 -283 -284 -283h-385zM1026 971v215q0 102 -53 162t-154 59h-352q-99 0 -153 -59
t-54 -162v-215q0 -99 39 -143t158 -44h372q119 0 158 44t39 143zM1047 530q0 193 -218 193l-364 -4q-119 0 -168 -48t-49 -141v-245q0 -101 53 -161t154 -61h385q100 0 154 60t53 162v245z" />
    <glyph glyph-name="nine" unicode="9" horiz-adv-x="1251" 
d="M1071 287q0 -283 -285 -283h-301q-286 0 -284 283v96h73l7 -98q6 -111 55 -166t151 -56h301q100 -1 154 59t53 163v493l-153 -110q-92 -66 -211 -66h-168q-285 0 -285 285v301q0 285 285 285h323q285 0 285 -285v-901zM791 1409h-324q-99 0 -153 -59t-54 -162v-301
q0 -101 53 -161t154 -60h168q106 0 223 67l141 84l-2 371q0 102 -53 162t-153 59z" />
    <glyph glyph-name="colon" unicode=":" horiz-adv-x="440" 
d="M272 958h-104v136h104v-136zM272 12h-104v135h104v-135z" />
    <glyph glyph-name="semicolon" unicode=";" horiz-adv-x="440" 
d="M272 958h-104v136h104v-136zM168 12v135h104v-114q0 -35 -59 -156l-51 -106h-25l103 241h-72z" />
    <glyph glyph-name="less" unicode="&#x3c;" horiz-adv-x="1040" 
d="M870 348l-723 346v99l723 348v-62l-708 -336l708 -333v-62z" />
    <glyph glyph-name="equal" unicode="=" horiz-adv-x="1040" 
d="M885 893h-731v68h731v-68zM885 571h-731v68h731v-68z" />
    <glyph glyph-name="greater" unicode="&#x3e;" horiz-adv-x="1040" 
d="M893 694l-723 -346v62l709 333l-709 336v62l723 -348v-99z" />
    <glyph glyph-name="question" unicode="?" horiz-adv-x="1136" 
d="M496 559v-182h-74v182q0 71 33 137q6 16 43 41l53 35q64 31 103 47t59 27l45 20q111 51 141 84q43 55 43 131v105q0 104 -56 162t-155 59h-364q-99 0 -155 -58t-56 -163v-119h-74v119q0 137 75 212t210 72l358 -6q285 -8 285 -284v-105q-3 -172 -179 -252
q-86 -44 -94 -45q-8 -2 -12 -4t-6 -2l-43 -18q-71 -28 -125 -68q-55 -45 -55 -127zM498 8h-74v172h74v-172z" />
    <glyph glyph-name="at" unicode="@" horiz-adv-x="1863" 
d="M1360 123h-92l-45 162l-133 -107q-76 -63 -213 -63h-48q-137 -1 -211 73t-73 211v336q0 137 73 211q74 74 211 74h48q133 0 213 -64l133 -106l45 162h6v-840h86q238 0 237 236v774q0 122 -62 186t-173 64h-866q-111 0 -173 -64t-63 -184v-1223q0 -115 64 -181t174 -67
h1024v-35h-1024q-137 0 -211 74t-74 211v1223q0 137 74 211t211 73l862 -4q137 0 211 -74t74 -210v-774q0 -137 -74 -211t-211 -74zM825 971q-115 1 -176 -61t-61 -177v-336q0 -113 62 -175t179 -62h48q126 0 194 44q35 22 55 32t105 81v500l-131 90q-92 63 -228 64h-47z
" />
    <glyph glyph-name="A" unicode="A" horiz-adv-x="1337" 
d="M1249 12h-80l-165 463h-672l-168 -463h-74l533 1450h94zM983 539l-313 870l-316 -870h629z" />
    <glyph glyph-name="B" unicode="B" horiz-adv-x="1345" 
d="M889 12h-668v1450h649q137 0 211 -74t74 -210v-203q0 -143 -160 -225q86 -20 132 -80t47 -138v-235q0 -137 -74 -211t-211 -74zM1081 973v205q0 104 -56 162t-155 59h-577v-613l584 2q117 0 161 40t43 145zM1096 297v235q0 193 -217 193h-588v-647l594 -2q98 0 155 59
q56 60 56 162z" />
    <glyph glyph-name="C" unicode="C" horiz-adv-x="1302" 
d="M860 6h-389q-139 0 -212 73t-73 210v897q0 137 74 211t211 73h389q137 0 211 -74t74 -210v-115h-74v115q0 104 -56 162t-155 59h-389q-99 0 -155 -58t-56 -163v-897q0 -105 56 -163t155 -58h389q98 0 156 59q55 59 55 162v114h74v-114q0 -137 -73 -210t-212 -73z" />
    <glyph glyph-name="D" unicode="D" horiz-adv-x="1363" 
d="M895 12h-674v1450h674q137 0 211 -74t74 -210v-881q0 -137 -74 -211t-211 -74zM1106 297v881q0 104 -56 162t-155 59h-600v-1323h600q98 0 156 59q55 60 55 162z" />
    <glyph glyph-name="E" unicode="E" horiz-adv-x="1214" 
d="M1085 12h-864v1450h864v-63h-790v-613h674v-63h-674v-647h790v-64z" />
    <glyph glyph-name="F" unicode="F" horiz-adv-x="1179" 
d="M1085 1399h-790v-631h674v-63h-674v-693h-74v1450h864v-63z" />
    <glyph glyph-name="G" unicode="G" horiz-adv-x="1337" 
d="M1157 1083h-74l-4 103q-8 221 -207 221h-403q-99 0 -155 -58t-56 -163v-901q0 -105 56 -161t155 -56h403q100 0 154 59q53 59 53 162v368h-409v64h483v-432q0 -139 -72 -211t-209 -72h-403q-139 0 -212 73t-73 210v897q0 137 74 211t211 73h403q137 0 211 -74t74 -210
v-103z" />
    <glyph glyph-name="H" unicode="H" horiz-adv-x="1421" 
d="M1202 12h-74v711h-833v-711h-74v1450h74v-676h833v676h74v-1450z" />
    <glyph glyph-name="I" unicode="I" horiz-adv-x="514" 
d="M295 12h-74v1450h74v-1450z" />
    <glyph glyph-name="J" unicode="J" horiz-adv-x="1212" 
d="M731 6h-332q-139 0 -212 73t-72 210v184h73v-184q0 -105 56 -163t155 -58h332q98 0 156 59q55 59 55 162v1173h74v-1173q0 -137 -73 -210t-212 -73z" />
    <glyph glyph-name="K" unicode="K" horiz-adv-x="1368" 
d="M297 12h-76v1450h76v-960l827 960h99l-537 -606l580 -844h-84l-539 795l-346 -391v-404z" />
    <glyph glyph-name="L" unicode="L" horiz-adv-x="1136" 
d="M1034 12h-813v1450h74v-1386h739v-64z" />
    <glyph glyph-name="M" unicode="M" horiz-adv-x="1714" 
d="M1495 12h-72v1395l-520 -1159h-90l-520 1159v-1395h-72v1450h113l520 -1157l528 1157h113v-1450z" />
    <glyph glyph-name="N" unicode="N" horiz-adv-x="1445" 
d="M1227 12h-101l-833 1377v-1377h-72v1450h101l833 -1376v1376h72v-1450z" />
    <glyph glyph-name="O" unicode="O" horiz-adv-x="1355" 
d="M887 6h-416q-139 0 -212 73t-73 210v897q0 137 74 211t211 73h416q137 0 211 -74t73 -210v-897q1 -137 -72 -210t-212 -73zM1098 289v897q0 104 -56 162t-155 59h-416q-99 0 -155 -58t-56 -163v-897q0 -105 56 -163t155 -58h416q98 0 155 59q56 60 56 162z" />
    <glyph glyph-name="P" unicode="P" horiz-adv-x="1298" 
d="M881 608h-586v-596h-74v1450h660q137 0 211 -74t73 -210v-285q1 -137 -73 -211t-211 -74zM1092 893v309q0 197 -211 197h-586v-727h586q98 0 155 59q56 60 56 162z" />
    <glyph glyph-name="Q" unicode="Q" horiz-adv-x="1353" 
d="M1169 291q0 -256 -241 -283l102 -196h-67l-103 194h-389q-139 0 -212 73t-73 210v897q0 137 74 211t211 73l414 3q137 0 211 -74t73 -211v-897zM1096 291v897q0 102 -56 162q-57 59 -155 59h-414q-99 0 -155 -59t-56 -162v-897q0 -102 55 -162q57 -59 156 -59h356
l-112 215h67l115 -215q96 6 150 65q49 58 49 156z" />
    <glyph glyph-name="R" unicode="R" horiz-adv-x="1347" 
d="M295 647v-635h-74v1450h658q137 0 211 -74t73 -210v-248q0 -143 -76 -213t-237 -70l350 -635h-82l-346 635h-477zM1090 932v246q0 104 -56 162t-155 59h-584v-688h584q98 0 155 59q56 60 56 162z" />
    <glyph glyph-name="S" unicode="S" horiz-adv-x="1286" 
d="M825 6h-360q-139 0 -212 73t-73 210v119h76v-119q0 -105 56 -163t155 -58h358q100 0 154 59q53 59 53 162v168q0 113 -42 149t-138 62l-381 94q-160 41 -223 93t-64 187v144q0 137 74 211t211 73h336q137 0 211 -74t74 -210v-96h-76l-2 94q-4 106 -58 164t-153 57h-334
q-99 0 -153 -59t-54 -162v-140q0 -113 57 -157q31 -20 54 -33q20 -6 26 -8t41 -10l381 -97q82 -21 126 -37q118 -44 142 -120q18 -45 19 -121v-172q0 -139 -72 -211t-209 -72z" />
    <glyph glyph-name="T" unicode="T" horiz-adv-x="1157" 
d="M1073 1399h-459v-1387h-73v1387h-459v63h991v-63z" />
    <glyph glyph-name="U" unicode="U" horiz-adv-x="1357" 
d="M877 6h-394q-139 0 -212 73t-72 210v1173h73v-1173q0 -105 56 -163t155 -58h394q98 0 155 59q55 59 55 162v1173h74v-1173q0 -137 -73 -210t-211 -73z" />
    <glyph glyph-name="V" unicode="V" horiz-adv-x="1265" 
d="M1180 1462l-498 -1450h-98l-498 1450h76l471 -1399l479 1399h68z" />
    <glyph glyph-name="W" unicode="W" horiz-adv-x="1849" 
d="M1763 1462l-409 -1450h-90l-338 1356l-340 -1356h-90l-410 1450h76l377 -1376l346 1376h82l344 -1376l377 1376h75z" />
    <glyph glyph-name="X" unicode="X" horiz-adv-x="1245" 
d="M1155 12h-80l-457 686l-454 -686h-74l492 738l-476 712h80l439 -655l434 655h78l-475 -710z" />
    <glyph glyph-name="Y" unicode="Y" horiz-adv-x="1234" 
d="M653 12h-73v553l-521 897h88l469 -831l469 831h89l-521 -897v-553z" />
    <glyph glyph-name="Z" unicode="Z" horiz-adv-x="1218" 
d="M1073 76v-64h-932v54l854 1333h-819v63h901v-53l-856 -1333h852z" />
    <glyph glyph-name="bracketleft" unicode="[" horiz-adv-x="704" 
d="M547 -203h-330v1796h330v-63h-256v-1669h256v-64z" />
    <glyph glyph-name="backslash" unicode="\" horiz-adv-x="911" 
d="M842 -129h-58l-714 1735h57z" />
    <glyph glyph-name="bracketright" unicode="]" horiz-adv-x="704" 
d="M487 -203h-329v64h256v1669h-256v63h329v-1796z" />
    <glyph glyph-name="asciicircum" unicode="^" horiz-adv-x="901" 
d="M397 1462h45l-180 -352h-47zM639 1110l-180 352h45l180 -352h-45z" />
    <glyph glyph-name="underscore" unicode="_" horiz-adv-x="1124" 
d="M1100 -143h-1075v43h1075v-43z" />
    <glyph glyph-name="grave" unicode="`" horiz-adv-x="1363" 
d="M821 1622h-41l-235 270h108z" />
    <glyph glyph-name="a" unicode="a" 
d="M430 1102h240q130 0 200 -70t70 -201v-817h-68v166l-153 -110q-86 -61 -213 -62h-109q-133 0 -203 71t-71 202v94q0 127 74 201t200 73h58q145 0 417 -37v219q0 98 -55 158q-57 59 -149 60h-236q-92 1 -146 -55t-59 -154h-67q4 126 74 194t196 68zM193 371v-95
q0 -96 57 -156t149 -61h109q115 0 227 68l139 84v377l-475 -2q-94 0 -150 -60t-56 -155z" />
    <glyph glyph-name="b" unicode="b" horiz-adv-x="1159" 
d="M729 6h-119q-121 0 -207 62l-153 110v-166h-68v1499h68v-583l153 110q88 63 207 64h119q131 0 203 -72t72 -203v-548q0 -131 -71 -202t-204 -71zM938 279v548q0 99 -57 159t-150 61h-119q-106 0 -221 -68l-139 -84v-684l139 -84q115 -68 221 -68h119q92 0 150 60
q57 62 57 160z" />
    <glyph glyph-name="c" unicode="c" horiz-adv-x="1083" 
d="M684 6h-256q-133 0 -204 71t-70 202v548q0 131 71 203q72 72 203 72h256q131 0 203 -72t71 -203v-32h-67v32q0 99 -56 157t-151 58h-256q-94 0 -150 -58t-57 -157v-548q0 -99 56 -157t151 -59h256q94 -1 150 59t57 157v32h67v-32q1 -131 -70 -202t-204 -71z" />
    <glyph glyph-name="d" unicode="d" horiz-adv-x="1157" 
d="M977 12h-68v166l-153 -110q-86 -61 -207 -62h-119q-133 0 -204 71t-70 202v548q0 131 71 203q72 72 203 72h119q119 0 207 -64l153 -110v583h68v-1499zM430 1042q-92 0 -149 -60t-58 -157v-549q-1 -96 57 -156t150 -61h119q106 0 221 68l139 84v684l-139 80
q-119 68 -221 67h-119z" />
    <glyph glyph-name="e" unicode="e" 
d="M686 6h-258q-133 0 -204 71t-70 202v548q0 131 71 203q72 72 203 72h258q131 0 203 -72t72 -203v-274h-740l-2 -274q0 -99 56 -157t151 -59h258q96 0 154 60q57 61 57 156v53h66v-53q0 -131 -71 -202t-204 -71zM891 614v213q0 99 -56 157t-151 58h-260q-94 0 -150 -58
t-57 -157v-213h674z" />
    <glyph glyph-name="f" unicode="f" horiz-adv-x="759" 
d="M698 1040h-356v-1028h-66v1028h-200v54h203v143q0 131 71 203q72 72 203 71h145v-53l-143 -2q-96 0 -156 -61q-59 -63 -59 -158v-143h358v-54z" />
    <glyph glyph-name="g" unicode="g" horiz-adv-x="1157" 
d="M702 -383h-247q-131 0 -203 72t-72 202h70q0 -100 56 -158t149 -59h247q92 0 150 60q57 61 57 160v348l-153 -111q-88 -63 -207 -63h-119q-131 0 -203 72t-71 202v485q0 131 71 203q72 72 203 72h119q119 0 207 -64l153 -110v166h68v-1203q0 -130 -72 -202t-203 -72z
M430 1042q-88 0 -147 -61t-60 -156v-485q-1 -96 57 -156t150 -61h119q104 0 221 70l141 81v617l-139 84q-113 68 -223 67h-119z" />
    <glyph glyph-name="h" unicode="h" horiz-adv-x="1144" 
d="M977 12h-68v813q0 100 -55 160q-57 59 -149 59h-93q-113 0 -223 -67l-139 -84v-881h-68v1499h68v-583l153 110q88 63 207 64h92q131 0 203 -72t72 -203v-815z" />
    <glyph glyph-name="i" unicode="i" horiz-adv-x="460" 
d="M274 1384h-88v127h88v-127zM264 12h-67v1082h67v-1082z" />
    <glyph glyph-name="j" unicode="j" horiz-adv-x="458" 
d="M272 1384h-88v127h88v-127zM-12 -383h-41v57h53q88 0 141 60q53 55 54 149v1211h65v-1203q0 -130 -72 -202t-200 -72z" />
    <glyph glyph-name="k" unicode="k" horiz-adv-x="1026" 
d="M248 12h-68v1450h68v-1040l577 672h78l-342 -396l385 -686h-78l-346 641l-274 -315v-326z" />
    <glyph glyph-name="l" unicode="l" horiz-adv-x="458" 
d="M260 12h-61v1499h61v-1499z" />
    <glyph glyph-name="m" unicode="m" horiz-adv-x="1783" 
d="M1614 12h-66v815q0 99 -57 159t-150 61h-47q-113 0 -223 -68l-143 -86q4 -61 4 -66v-815h-68v815q0 103 -56 161t-149 59h-47q-111 0 -223 -68l-139 -84v-883h-68v1082h68v-166l153 110q88 63 207 64h47q199 0 265 -178l161 114q90 63 211 64h45q131 0 203 -72t72 -203
v-815z" />
    <glyph glyph-name="n" unicode="n" horiz-adv-x="1144" 
d="M977 12h-68v815q0 103 -56 161t-148 59h-93q-111 0 -223 -68l-139 -84v-883h-68v1082h68v-166l153 110q88 63 207 64h92q131 0 203 -72t72 -203v-815z" />
    <glyph glyph-name="o" unicode="o" horiz-adv-x="1124" 
d="M696 6h-268q-133 0 -204 71t-70 202v548q0 131 71 203q72 72 203 72h264q131 0 203 -72t72 -203v-548q0 -131 -69 -202t-202 -71zM692 1044h-268q-92 0 -148 -59t-57 -158v-548q0 -97 57 -157t150 -61h268q92 0 150 60q57 62 57 158l-4 548q0 98 -55 158q-57 59 -150 59z
" />
    <glyph glyph-name="p" unicode="p" horiz-adv-x="1159" 
d="M729 6h-119q-121 0 -207 62l-153 110v-551h-68v1467h68v-166l153 110q88 63 207 64h119q131 0 203 -72t72 -203v-548q0 -131 -71 -202t-204 -71zM938 279v548q0 99 -57 159t-150 61h-119q-106 0 -221 -68l-139 -84v-684l139 -84q115 -68 221 -68h119q92 0 150 60
q57 62 57 160z" />
    <glyph glyph-name="q" unicode="q" horiz-adv-x="1157" 
d="M975 -373h-68v551l-153 -110q-86 -61 -207 -62h-119q-133 0 -204 71t-70 202v548q0 131 71 203q72 72 203 72h119q119 0 207 -64l153 -110v166h68v-1467zM221 276q-1 -96 57 -156t150 -61h119q106 0 221 68l139 84v684l-139 84q-121 72 -221 68l-119 -5q-96 -4 -151 -62
t-56 -155v-549z" />
    <glyph glyph-name="r" unicode="r" horiz-adv-x="757" 
d="M684 1044h-74q-100 0 -221 -69l-139 -82v-881h-68v1082h68v-166l153 110q88 63 207 64h74v-58z" />
    <glyph glyph-name="s" unicode="s" horiz-adv-x="1054" 
d="M653 1102q244 0 244 -248v-41h-61l-2 41q-10 188 -185 188h-254q-184 0 -184 -188v-57q0 -74 38 -110t122 -48l327 -55q121 -23 172 -70t52 -156v-104q-2 -244 -244 -246h-299q-248 0 -248 246v59h62v-59q0 -193 186 -193h299q180 0 180 193v104q0 74 -38 110t-122 48
l-327 55q-121 23 -172 70t-52 156v57q0 248 248 248h258z" />
    <glyph glyph-name="t" unicode="t" horiz-adv-x="827" 
d="M727 12h-178q-131 0 -203 72t-72 203v753h-200v54h202v368h64v-368h387v-54h-385v-753q0 -99 56 -161t151 -63h178v-51z" />
    <glyph glyph-name="u" unicode="u" horiz-adv-x="1144" 
d="M963 12h-68v166l-154 -110q-86 -61 -206 -62h-93q-134 0 -204 71t-70 202v815h68v-818q0 -96 57 -156t149 -61h93q106 0 221 68l139 84v883h68v-1082z" />
    <glyph glyph-name="v" unicode="v" horiz-adv-x="966" 
d="M907 1094l-366 -1082h-115l-365 1082h76l350 -1071l349 1071h71z" />
    <glyph glyph-name="w" unicode="w" horiz-adv-x="1488" 
d="M1430 1094l-336 -1082h-88l-261 1004l-260 -1004h-94l-330 1082h66l311 -1063l271 1063h71l271 -1061l317 1061h62z" />
    <glyph glyph-name="x" unicode="x" horiz-adv-x="1003" 
d="M936 12h-74l-366 500l-357 -500h-71l393 549l-389 533h73l357 -488l346 488h74l-381 -539z" />
    <glyph glyph-name="y" unicode="y" horiz-adv-x="958" 
d="M899 1094l-498 -1467h-61l125 375l-402 1092h78l348 -1024l340 1024h70z" />
    <glyph glyph-name="z" unicode="z" horiz-adv-x="921" 
d="M813 63v-51h-713v31l650 999h-617v52h694v-33l-651 -998h637z" />
    <glyph glyph-name="braceleft" unicode="{" horiz-adv-x="768" 
d="M608 -203h-16q-137 0 -211 74t-74 209v405q0 197 -186 197h-8v59h8q186 0 186 197v371q0 137 74 211t211 73h16v-63h-16q-98 0 -154 -58t-57 -163l-2 -369q0 -82 -41 -136t-135 -89q178 -88 178 -230v-405q0 -100 55 -160q57 -59 156 -59h16v-64z" />
    <glyph glyph-name="bar" unicode="|" horiz-adv-x="583" 
d="M313 -428h-43v2027h43v-2027z" />
    <glyph glyph-name="braceright" unicode="}" horiz-adv-x="768" 
d="M653 680h-8q-186 0 -186 -197v-405q0 -135 -74 -209t-211 -74h-16v64h16q98 0 154 58t57 161v405q0 141 178 230q-176 66 -176 225l2 369q0 98 -58 159t-157 62h-16v63h16q137 1 211 -73t74 -211v-371q0 -197 186 -197h8v-59z" />
    <glyph glyph-name="asciitilde" unicode="~" horiz-adv-x="1040" 
d="M854 784l-49 -147q-25 -78 -107 -53l-401 116l-41 -131h-72l47 146q25 80 109 55l399 -113l39 127h76z" />
    <glyph glyph-name="exclamdown" unicode="&#xa1;" horiz-adv-x="620" 
d="M360 961h-100v133h100v-133zM360 -354h-100l41 1073h18z" />
    <glyph glyph-name="cent" unicode="&#xa2;" horiz-adv-x="1107" 
d="M664 219h-84v-207h-54v207h-77q-129 0 -207 78t-78 207v479q0 129 78 207t207 78h77v194h54v-194h84q128 0 206 -78t78 -207v-27h-74v23q0 103 -58 163t-148 60h-86v-919h82q98 0 155 59q55 59 55 162v26h74v-26q0 -129 -78 -207t-206 -78zM526 281v919l-77 2
q-95 2 -153 -57t-58 -164v-479q0 -104 56 -162t155 -59h77z" />
    <glyph glyph-name="sterling" unicode="&#xa3;" horiz-adv-x="1273" 
d="M1120 12h-1022v64h99q70 0 69 69v537h-168v63h168v441q0 137 74 211t211 73h276q137 0 211 -74t74 -210v-131h-74v131q0 104 -56 162t-155 59h-276q-99 0 -155 -58t-56 -163v-441h491v-63h-491v-606h780v-64z" />
    <glyph glyph-name="currency" unicode="&#xa4;" horiz-adv-x="1247" 
d="M522 313q-102 0 -180 52l-152 -154l-49 49l152 150q-53 80 -53 188v307q0 106 51 185l-150 147l49 49l148 -149q78 53 186 53h197q109 0 188 -53l148 149l49 -49l-152 -150q51 -78 52 -180l-2 -309q0 -109 -54 -186l154 -152l-49 -49l-152 154q-78 -51 -184 -52h-197z
M932 598v307q0 101 -56 157t-155 56h-197q-209 0 -209 -213v-307q-1 -102 53 -162t154 -59h199q98 0 156 59q55 60 55 162z" />
    <glyph glyph-name="yen" unicode="&#xa5;" horiz-adv-x="1234" 
d="M1012 643v-63h-359v-172h359v-64h-359v-332h-73v332h-357v64h357v172h-357v63h324l-486 819h89l466 -809l467 809h88l-485 -819h326z" />
    <glyph glyph-name="brokenbar" unicode="&#xa6;" horiz-adv-x="583" 
d="M313 813h-43v786h43v-786zM313 -428h-43v784h43v-784z" />
    <glyph glyph-name="section" unicode="&#xa7;" horiz-adv-x="1093" 
d="M936 172v-102q0 -246 -248 -246h-297q-248 0 -248 246v59h68v-59q0 -98 44 -142t136 -45h297q92 0 136 44t44 143v102q0 135 -153 160l-330 53q-99 15 -163 77t-64 148v111q0 150 112 221q-98 66 -98 172v109q0 248 248 247h256q248 0 248 -247v-25h-70l-6 31
q0 96 -40 140t-138 44h-256q-100 0 -140 -43t-38 -139v-109q0 -74 40 -112t115 -49l340 -54q99 -15 159 -75t60 -152v-100q1 -150 -110 -228q96 -72 96 -180zM879 580v100q0 137 -150 160l-399 63q-117 -25 -117 -180v-111q0 -61 43 -104t117 -55l377 -62q59 9 94 63t35 126
z" />
    <glyph glyph-name="dieresis" unicode="&#xa8;" horiz-adv-x="1310" 
d="M870 1630h-104v164h104v-164zM545 1630h-105v164h105v-164z" />
    <glyph glyph-name="copyright" unicode="&#xa9;" horiz-adv-x="1734" 
d="M1237 6h-739q-139 0 -212 73t-73 210v897q0 137 74 211t211 73h735q137 0 211 -74t74 -210v-897q0 -139 -72 -211t-209 -72zM1231 1432h-739q-112 0 -174 -64t-62 -184v-897q0 -115 63 -182t175 -66h739q111 1 174 67t63 183l-4 893q0 122 -62 186t-173 64zM541 965
q0 217 219 219l198 -2q217 -4 218 -219v-66h-70v66q0 72 -41 112q-41 45 -109 45h-196q-68 0 -109 -43t-41 -114v-461q0 -70 41 -116t109 -46h194q68 0 109 46t41 118v63h70v-65q0 -219 -218 -219h-196q-219 0 -219 219v463z" />
    <glyph glyph-name="ordfeminine" unicode="&#xaa;" horiz-adv-x="759" 
d="M137 1294q0 82 45 127t127 45l164 2q80 0 125 -45t45 -127v-526h-57v107l-103 -80q-53 -33 -127 -33h-65q-82 0 -127 45t-45 127v63q0 82 45 127t127 45h37q104 0 258 -26v143q0 51 -34 89t-85 38h-152q-57 0 -87 -37t-31 -84h-60zM645 547h-510v55h510v-55zM174 995v-49
q0 -59 34 -95t89 -36h59q72 1 112 23t46 26t38 28t36 26v206l-291 2q-55 0 -89 -36t-34 -95z" />
    <glyph glyph-name="guillemotleft" unicode="&#xab;" horiz-adv-x="765" 
d="M662 307h-70l-256 379v66l256 381h70l-277 -414zM403 307h-69l-256 379v66l256 381h69l-276 -414z" />
    <glyph glyph-name="registered" unicode="&#xae;" horiz-adv-x="851" 
d="M598 756h-342q-49 0 -84 35t-35 83v478q0 49 35 84t84 34h350q45 0 78 -34t33 -84v-478q0 -48 -35 -83t-84 -35zM692 874v474q0 35 -20 61q-23 35 -68 35h-348q-50 0 -72 -30t-22 -64v-478q0 -34 22 -64t72 -30h342q51 0 74 35q20 26 20 61zM565 1159q0 -89 -104 -72
l106 -186h-24l-107 182h-125v-182h-22v422h200q76 0 76 -76v-88zM541 1159v88q0 53 -52 53h-178v-196h178q52 0 52 55z" />
    <glyph glyph-name="macron" unicode="&#xaf;" horiz-adv-x="1210" 
d="M852 1642h-485v64h485v-64z" />
    <glyph glyph-name="degree" unicode="&#xb0;" horiz-adv-x="686" 
d="M451 1053h-215q-31 0 -52 20q-20 20 -20 51v271q0 31 20 51t52 20h215q31 0 51 -20t20 -51v-271q0 -31 -20 -51t-51 -20zM467 1145v229q0 37 -37 37h-174q-37 0 -37 -37v-229q0 -37 37 -37h174q37 0 37 37z" />
    <glyph glyph-name="plusminus" unicode="&#xb1;" horiz-adv-x="1040" 
d="M885 817h-338v-346h-55v346h-338v55h338v345h55v-345h338v-55zM885 291h-731v57h731v-57z" />
    <glyph glyph-name="twosuperior" unicode="&#xb2;" horiz-adv-x="659" 
d="M156 1169v-112h424v-64h-494v187q0 43 20 63q7 10 27 23q20 12 37 17t61 30l191 78q78 21 80 69v88q0 37 -23 58q-20 23 -61 22h-174q-88 0 -82 -76l4 -47h-68v56q0 59 39 96q41 35 107 35h188q66 0 107 -35q39 -37 39 -96v-111q0 -39 -23 -64l-4 -8l-12 -8l-19 -10
q-14 -8 -18 -8l-49 -25q-4 -4 -27 -10l-193 -78q-6 -4 -17 -8t-14 -6t-11 -4q-8 -1 -21 -13q-14 -12 -14 -39z" />
    <glyph glyph-name="threesuperior" unicode="&#xb3;" horiz-adv-x="667" 
d="M580 1126q0 -59 -39 -96q-41 -35 -107 -35h-209q-68 0 -108 35q-39 37 -39 96v50h69l3 -41q2 -76 81 -76h197q82 0 82 76v114q0 76 -96 76h-170v57h170q86 0 88 76v94q0 76 -82 76h-178q-84 0 -84 -76v-41h-70v50q0 59 39 96q41 35 106 35h193q66 0 106 -35
q39 -37 39 -96v-103q0 -61 -86 -108q93 -34 95 -105v-119z" />
    <glyph glyph-name="acute" unicode="&#xb4;" horiz-adv-x="1347" 
d="M801 1892l-230 -270h-30l168 270h92z" />
    <glyph glyph-name="paragraph" unicode="&#xb6;" horiz-adv-x="1380" 
d="M1161 12h-74v1387h-161v-1387h-74v617h-418q-137 -1 -211 73t-73 211v265q0 137 73 211q74 74 211 73h727v-1450z" />
    <glyph glyph-name="periodcentered" unicode="&#xb7;" horiz-adv-x="462" 
d="M293 602h-121v143h121v-143z" />
    <glyph glyph-name="cedilla" unicode="&#xb8;" horiz-adv-x="1157" 
d="M659 -410h-206l-70 54h276q39 0 58 20q14 20 14 62v12q0 41 -14 61q-18 20 -58 21h-225l86 168h62l-52 -111h129q139 0 140 -137v-12q-1 -138 -140 -138z" />
    <glyph glyph-name="onesuperior" unicode="&#xb9;" horiz-adv-x="399" 
d="M268 997h-69v623l-133 -49v57l139 58h63v-689z" />
    <glyph glyph-name="ordmasculine" unicode="&#xba;" horiz-adv-x="768" 
d="M477 766h-186q-82 0 -127 45t-45 127v356q0 82 45 127t127 45h186q82 0 127 -45t45 -127v-356q0 -82 -45 -127t-127 -45zM635 543h-502v55h502v-55zM592 942v344q0 59 -34 95t-85 36h-178q-57 0 -88 -37t-31 -94v-344q0 -57 31 -94t88 -37h178q49 0 84 36t35 95z" />
    <glyph glyph-name="guillemotright" unicode="&#xbb;" horiz-adv-x="765" 
d="M692 686l-256 -379h-69l276 412l-276 414h69l256 -381v-66zM436 686l-256 -379h-69l276 412l-276 414h69l256 -381v-66z" />
    <glyph glyph-name="onequarter" unicode="&#xbc;" horiz-adv-x="1234" 
d="M268 772h-69v623l-133 -49v57l139 57h63v-688zM924 1462l-750 -1450h-61l749 1450h62zM1165 178h-114v-166h-70v166h-395l-6 58l391 464h80v-460h114v-62zM981 240v374l-330 -374h330z" />
    <glyph glyph-name="onehalf" unicode="&#xbd;" horiz-adv-x="1296" 
d="M791 182v-112h423v-62h-493v185q0 41 20 63l2 4q2 2 2 4q2 4 13 8q28 19 39 22q12 3 69 32l191 77q78 21 80 70v88q0 37 -23 57q-20 23 -61 23h-174q-82 0 -82 -76l6 -47h-68v55q0 59 39 97q41 35 107 35h188q66 0 107 -35q39 -37 38 -97v-110q0 -40 -22 -64l-4 -8
l-12 -8l-19 -10q-12 -6 -20 -8l-50 -25q-6 -4 -26 -10l-193 -78q-6 -4 -17 -8t-15 -6l-25 -13q-20 -16 -20 -43zM260 772h-70v623l-133 -49v57l140 57h63v-688zM915 1462l-749 -1450h-62l750 1450h61z" />
    <glyph glyph-name="threequarters" unicode="&#xbe;" horiz-adv-x="1503" 
d="M1194 1462l-750 -1450h-61l750 1450h61zM1436 178h-115v-166h-70v166h-395l-6 58l391 464h80v-460h115v-62zM580 901q0 -59 -39 -96q-41 -35 -107 -35h-209q-68 0 -108 35q-39 37 -39 96v49h69l3 -41q2 -76 81 -75h197q82 0 82 75v115q0 76 -96 76h-170v57h170
q86 0 88 76v94q0 76 -82 76h-178q-84 0 -84 -76v-41h-70v49q0 59 39 97q41 35 106 34h193q66 0 106 -34q39 -37 39 -97v-102q0 -61 -86 -109q93 -34 95 -104v-119zM1251 240v374l-329 -374h329z" />
    <glyph glyph-name="questiondown" unicode="&#xbf;" horiz-adv-x="1136" 
d="M707 920h-74v174h74v-174zM125 -82v102q0 139 113 216q57 41 176 90l43 18q72 29 125 70q35 32 46 58t11 69v182h74v-182q0 -58 -33 -135q-6 -16 -43 -39l-51 -33q-64 -31 -107 -48t-55 -26l-45 -20q-111 -51 -141 -84q-43 -55 -43 -131v-103q0 -102 55 -162
q57 -59 156 -59h364q98 0 154 58t57 163v117h74v-117q0 -278 -285 -284l-360 -5q-135 -2 -210 73t-75 212z" />
    <glyph glyph-name="Agrave" unicode="&#xc0;" horiz-adv-x="1337" 
d="M705 1622h-41l-236 270h109zM1249 12h-80l-165 463h-672l-168 -463h-74l533 1450h94zM983 539l-313 870l-316 -870h629z" />
    <glyph glyph-name="Aacute" unicode="&#xc1;" horiz-adv-x="1337" 
d="M866 1892l-229 -270h-31l168 270h92zM1249 12h-80l-165 463h-672l-168 -463h-74l533 1450h94zM983 539l-313 870l-316 -870h629z" />
    <glyph glyph-name="Acircumflex" unicode="&#xc2;" horiz-adv-x="1337" 
d="M915 1622h-22l-223 162l-221 -162h-25l194 215h103zM1249 12h-80l-165 463h-672l-168 -463h-74l533 1450h94zM983 539l-313 870l-316 -870h629z" />
    <glyph glyph-name="Atilde" unicode="&#xc3;" horiz-adv-x="1337" 
d="M942 1823l-41 -152q-25 -90 -100 -49l-316 166l-45 -166l-47 2l37 152q20 90 105 47l315 -164l47 164h45zM1247 14h-80l-166 463h-671l-168 -463h-74l533 1450h94zM981 541l-313 870l-316 -870h629z" />
    <glyph glyph-name="Adieresis" unicode="&#xc4;" horiz-adv-x="1337" 
d="M885 1630h-105v164h105v-164zM559 1630h-104v164h104v-164zM1249 12h-80l-165 463h-672l-168 -463h-74l533 1450h94zM983 539l-313 870l-316 -870h629z" />
    <glyph glyph-name="Aring" unicode="&#xc5;" horiz-adv-x="1337" 
d="M520 1841q0 23 16 38t37 15h187q20 0 39 -14q14 -14 14 -37v-170q0 -23 -14 -37t-37 -14l-191 -4q-48 0 -51 53v170zM1249 12h-80l-165 463h-672l-168 -463h-74l533 1450h94zM776 1694v125q0 37 -37 36h-149q-37 0 -37 -36v-125q0 -37 37 -37h149q37 0 37 37zM983 539
l-313 870l-316 -870h629z" />
    <glyph glyph-name="AE" unicode="&#xc6;" horiz-adv-x="1964" 
d="M1835 12h-891v463h-582l-233 -463h-78l742 1450h1042v-63h-817v-611h723v-63h-723v-649h817v-64zM944 539v862h-113l-436 -862h549z" />
    <glyph glyph-name="Ccedilla" unicode="&#xc7;" horiz-adv-x="1302" 
d="M860 2h-145l-58 -129h129q139 0 140 -137v-12q0 -137 -140 -138h-206l-72 58h278q39 0 58 20q14 20 14 62v12q0 41 -14 61q-18 20 -58 21h-225l94 186h-184q-139 0 -212 73t-73 210v897q0 137 74 211t211 73h389q137 0 211 -74t74 -210v-115h-74v111q0 104 -56 162
t-155 59h-389q-99 -1 -155 -59t-56 -162v-897q0 -105 56 -163t155 -59h389q98 -1 154 59t57 163v114h74v-114q0 -137 -73 -210t-212 -73z" />
    <glyph glyph-name="Egrave" unicode="&#xc8;" horiz-adv-x="1214" 
d="M682 1622h-41l-235 270h108zM1085 12h-864v1450h864v-63h-790v-613h674v-63h-674v-647h790v-64z" />
    <glyph glyph-name="Eacute" unicode="&#xc9;" horiz-adv-x="1214" 
d="M844 1892l-230 -270h-30l168 270h92zM1085 12h-864v1450h864v-63h-790v-613h674v-63h-674v-647h790v-64z" />
    <glyph glyph-name="Ecircumflex" unicode="&#xca;" horiz-adv-x="1214" 
d="M893 1622h-23l-223 162l-221 -162h-25l195 215h102zM1085 12h-864v1450h864v-63h-790v-613h674v-63h-674v-647h790v-64z" />
    <glyph glyph-name="Edieresis" unicode="&#xcb;" horiz-adv-x="1214" 
d="M862 1630h-104v164h104v-164zM537 1630h-105v164h105v-164zM1085 12h-864v1450h864v-63h-790v-613h674v-63h-674v-647h790v-64z" />
    <glyph glyph-name="Igrave" unicode="&#xcc;" horiz-adv-x="514" 
d="M293 1622h-41l-234 270h107zM295 12h-74v1450h74v-1450z" />
    <glyph glyph-name="Iacute" unicode="&#xcd;" horiz-adv-x="514" 
d="M455 1892l-230 -270h-30l167 270h93zM295 12h-74v1450h74v-1450z" />
    <glyph glyph-name="Icircumflex" unicode="&#xce;" horiz-adv-x="514" 
d="M504 1622h-23l-223 162l-221 -162h-23l193 215h102zM295 12h-74v1450h74v-1450z" />
    <glyph glyph-name="Idieresis" unicode="&#xcf;" horiz-adv-x="514" 
d="M473 1630h-104v164h104v-164zM147 1630h-104v164h104v-164zM295 12h-74v1450h74v-1450z" />
    <glyph glyph-name="Eth" unicode="&#xd0;" horiz-adv-x="1363" 
d="M895 12h-674v703h-188v63h188v684h674q137 0 211 -74t74 -210v-881q0 -137 -74 -211t-211 -74zM1106 297v881q0 104 -56 162t-155 59h-600v-621h199v-63h-199v-639h600q98 0 156 59q55 60 55 162z" />
    <glyph glyph-name="Ntilde" unicode="&#xd1;" horiz-adv-x="1445" 
d="M1012 1821l-41 -152q-25 -90 -101 -49l-315 166l-47 -164h-45l37 152q20 90 104 47l316 -164l47 164h45zM1229 12h-101l-833 1374v-1374h-72v1448h101l833 -1376v1376h72v-1448z" />
    <glyph glyph-name="Ograve" unicode="&#xd2;" horiz-adv-x="1355" 
d="M715 1622h-41l-236 270h109zM887 6h-416q-139 0 -212 73t-73 210v897q0 137 74 211t211 73h416q137 0 211 -74t73 -210v-897q1 -137 -72 -210t-212 -73zM1098 289v897q0 104 -56 162t-155 59h-416q-99 0 -155 -58t-56 -163v-897q0 -105 56 -163t155 -58h416q98 0 155 59
q56 60 56 162z" />
    <glyph glyph-name="Oacute" unicode="&#xd3;" horiz-adv-x="1355" 
d="M877 1892l-230 -270h-31l168 270h93zM887 6h-416q-139 0 -212 73t-73 210v897q0 137 74 211t211 73h416q137 0 211 -74t73 -210v-897q1 -137 -72 -210t-212 -73zM1098 289v897q0 104 -56 162t-155 59h-416q-99 0 -155 -58t-56 -163v-897q0 -105 56 -163t155 -58h416
q98 0 155 59q56 60 56 162z" />
    <glyph glyph-name="Ocircumflex" unicode="&#xd4;" horiz-adv-x="1355" 
d="M926 1622h-23l-223 162l-221 -162h-25l195 215h102zM887 6h-416q-139 0 -212 73t-73 210v897q0 137 74 211t211 73h416q137 0 211 -74t73 -210v-897q1 -137 -72 -210t-212 -73zM1098 289v897q0 104 -56 162t-155 59h-416q-99 0 -155 -58t-56 -163v-897q0 -105 56 -163
t155 -58h416q98 0 155 59q56 60 56 162z" />
    <glyph glyph-name="Otilde" unicode="&#xd5;" horiz-adv-x="1355" 
d="M954 1821l-41 -152q-25 -90 -100 -49l-315 166l-47 -164h-45l36 152q20 90 105 47l315 -164l47 164h45zM889 4h-416q-139 0 -212 73t-73 210v897q0 137 74 211t211 73h416q137 0 211 -74t74 -210v-897q0 -137 -73 -210t-212 -73zM1100 287v897q0 102 -56 162
q-57 59 -155 59h-416q-99 0 -155 -59t-56 -162v-897q0 -102 55 -162q57 -59 156 -59h416q98 0 155 59q56 60 56 162z" />
    <glyph glyph-name="Odieresis" unicode="&#xd6;" horiz-adv-x="1355" 
d="M895 1630h-104v164h104v-164zM569 1630h-104v164h104v-164zM887 6h-416q-139 0 -212 73t-73 210v897q0 137 74 211t211 73h416q137 0 211 -74t73 -210v-897q1 -137 -72 -210t-212 -73zM1098 289v897q0 104 -56 162t-155 59h-416q-99 0 -155 -58t-56 -163v-897
q0 -105 56 -163t155 -58h416q98 0 155 59q56 60 56 162z" />
    <glyph glyph-name="multiply" unicode="&#xd7;" horiz-adv-x="1040" 
d="M844 401l-41 -41l-281 283l-280 -287l-43 41l280 287l-278 281l41 41l280 -283l281 287l43 -41l-281 -287z" />
    <glyph glyph-name="Oslash" unicode="&#xd8;" horiz-adv-x="1353" 
d="M885 6h-414q-139 0 -212 73t-73 210v897q0 137 74 211t211 73h414q137 0 211 -74t73 -210v-897q1 -137 -72 -210t-212 -73zM885 68q98 0 155 59q56 60 56 162l-2 905q0 78 -47 154l-691 -1256q51 -25 115 -24h414zM885 1409h-414q-99 0 -155 -59t-56 -162v-899
q0 -82 47 -158l688 1253q-51 25 -110 25z" />
    <glyph glyph-name="Ugrave" unicode="&#xd9;" horiz-adv-x="1357" 
d="M715 1622h-41l-236 270h109zM877 6h-394q-139 0 -212 73t-72 210v1173h73v-1173q0 -105 56 -163t155 -58h394q98 0 155 59q55 59 55 162v1173h74v-1173q0 -137 -73 -210t-211 -73z" />
    <glyph glyph-name="Uacute" unicode="&#xda;" horiz-adv-x="1357" 
d="M877 1892l-230 -270h-31l168 270h93zM877 6h-394q-139 0 -212 73t-72 210v1173h73v-1173q0 -105 56 -163t155 -58h394q98 0 155 59q55 59 55 162v1173h74v-1173q0 -137 -73 -210t-211 -73z" />
    <glyph glyph-name="Ucircumflex" unicode="&#xdb;" horiz-adv-x="1357" 
d="M926 1622h-23l-223 162l-221 -162h-25l195 215h102zM877 6h-394q-139 0 -212 73t-72 210v1173h73v-1173q0 -105 56 -163t155 -58h394q98 0 155 59q55 59 55 162v1173h74v-1173q0 -137 -73 -210t-211 -73z" />
    <glyph glyph-name="Udieresis" unicode="&#xdc;" horiz-adv-x="1357" 
d="M895 1630h-104v164h104v-164zM569 1630h-104v164h104v-164zM877 6h-394q-139 0 -212 73t-72 210v1173h73v-1173q0 -105 56 -163t155 -58h394q98 0 155 59q55 59 55 162v1173h74v-1173q0 -137 -73 -210t-211 -73z" />
    <glyph glyph-name="Yacute" unicode="&#xdd;" horiz-adv-x="1234" 
d="M813 1892l-229 -270h-31l168 270h92zM653 12h-73v553l-521 897h88l469 -831l469 831h89l-521 -897v-553z" />
    <glyph glyph-name="Thorn" unicode="&#xde;" horiz-adv-x="1298" 
d="M881 332h-586v-320h-74v1450h74v-297h586q137 1 211 -73t73 -211v-265q1 -136 -73 -210t-211 -74zM1092 616v265q0 102 -56 161q-57 59 -155 60h-586v-707h586q99 1 155 59t56 162z" />
    <glyph glyph-name="germandbls" unicode="&#xdf;" horiz-adv-x="1142" 
d="M999 530v-247q1 -131 -70 -202t-204 -71h-279v53h279q92 1 149 61t58 159v247q0 199 -213 199h-215v57h217q104 0 149 45t45 150v213q0 98 -57 158t-149 61h-265q-92 0 -148 -59t-56 -158v-1184h-68v1184q0 131 72 203t202 71h265q131 0 203 -72t71 -202l-4 -213
q0 -141 -158 -229q84 -20 130 -84t46 -140z" />
    <glyph glyph-name="agrave" unicode="&#xe0;" 
d="M604 1264h-41l-235 270h108zM430 1102h240q130 0 200 -70t70 -201v-817h-68v166l-153 -110q-86 -61 -213 -62h-109q-133 0 -203 71t-71 202v94q0 127 74 201t200 73h58q145 0 417 -37v219q0 98 -55 158q-57 59 -149 60h-236q-92 1 -146 -55t-59 -154h-67q4 126 74 194
t196 68zM193 371v-95q0 -96 57 -156t149 -61h109q115 0 227 68l139 84v377l-475 -2q-94 0 -150 -60t-56 -155z" />
    <glyph glyph-name="aacute" unicode="&#xe1;" 
d="M766 1534l-229 -270h-31l168 270h92zM430 1102h240q130 0 200 -70t70 -201v-817h-68v166l-153 -110q-86 -61 -213 -62h-109q-133 0 -203 71t-71 202v94q0 127 74 201t200 73h58q145 0 417 -37v219q0 98 -55 158q-57 59 -149 60h-236q-92 1 -146 -55t-59 -154h-67
q4 126 74 194t196 68zM193 371v-95q0 -96 57 -156t149 -61h109q115 0 227 68l139 84v377l-475 -2q-94 0 -150 -60t-56 -155z" />
    <glyph glyph-name="acircumflex" unicode="&#xe2;" 
d="M815 1264h-22l-224 161l-221 -161h-24l194 215h103zM430 1102h240q130 0 200 -70t70 -201v-817h-68v166l-153 -110q-86 -61 -213 -62h-109q-133 0 -203 71t-71 202v94q0 127 74 201t200 73h58q145 0 417 -37v219q0 98 -55 158q-57 59 -149 60h-236q-92 1 -146 -55
t-59 -154h-67q4 126 74 194t196 68zM193 371v-95q0 -96 57 -156t149 -61h109q115 0 227 68l139 84v377l-475 -2q-94 0 -150 -60t-56 -155z" />
    <glyph glyph-name="atilde" unicode="&#xe3;" 
d="M840 1464l-41 -151q-25 -90 -101 -49l-315 166l-47 -164h-45l37 151q20 90 104 47l316 -164l47 164h45zM432 1100h240q130 0 200 -70t70 -201v-817h-68v166l-153 -110q-86 -61 -213 -62h-109q-133 0 -203 71t-71 202v94q0 127 74 201t200 73h58q145 0 417 -37v219
q0 101 -56 159t-148 59h-236q-92 1 -146 -55t-59 -154h-67q2 126 72 194t198 68zM195 369v-95q0 -96 57 -156t149 -61h109q115 0 227 68l140 84v377l-476 -2q-94 0 -150 -58t-56 -157z" />
    <glyph glyph-name="adieresis" unicode="&#xe4;" 
d="M784 1272h-104v164h104v-164zM459 1272h-105v164h105v-164zM430 1102h240q130 0 200 -70t70 -201v-817h-68v166l-153 -110q-86 -61 -213 -62h-109q-133 0 -203 71t-71 202v94q0 127 74 201t200 73h58q145 0 417 -37v219q0 98 -55 158q-57 59 -149 60h-236q-92 1 -146 -55
t-59 -154h-67q4 126 74 194t196 68zM193 371v-95q0 -96 57 -156t149 -61h109q115 0 227 68l139 84v377l-475 -2q-94 0 -150 -60t-56 -155z" />
    <glyph glyph-name="aring" unicode="&#xe5;" 
d="M420 1313v170q0 23 15 38t38 15h186q20 0 39 -14q14 -14 15 -37v-170q-1 -23 -15 -37t-36 -14l-191 -4q-23 0 -37 16t-14 37zM430 1102h240q130 0 200 -70t70 -201v-817h-68v166l-153 -110q-86 -61 -213 -62h-109q-133 0 -203 71t-71 202v94q0 127 74 201t200 73h58
q145 0 417 -37v219q0 98 -55 158q-57 59 -149 60h-236q-92 1 -146 -55t-59 -154h-67q4 126 74 194t196 68zM676 1335v125q0 37 -37 37h-150q-37 0 -36 -37v-125q0 -37 36 -37h150q37 0 37 37zM193 371v-95q0 -96 57 -156t149 -61h109q115 0 227 68l139 84v377l-475 -2
q-94 0 -150 -60t-56 -155z" />
    <glyph glyph-name="ae" unicode="&#xe6;" horiz-adv-x="1822" 
d="M430 1102h236q162 0 239 -121q78 121 240 121h258q131 0 203 -72t71 -203v-274h-739v-272q0 -96 55 -156q57 -59 152 -59h258q96 0 153 60t58 155v53h65v-53q-1 -131 -71 -202t-203 -71h-258q-203 0 -264 180l-164 -118q-84 -61 -213 -62h-109q-133 0 -203 71t-71 202v94
q0 127 74 201t200 73h58q145 0 417 -37v219q0 98 -55 158q-57 59 -149 60h-236q-92 1 -146 -55t-59 -154h-67q4 126 74 194t196 68zM1610 616v213q0 96 -56 156q-57 59 -151 59h-260q-95 0 -151 -59t-56 -156v-213h674zM186 279q0 -97 58 -157t149 -61h109q115 0 227 68
l139 84v377l-475 -2q-94 0 -150 -58t-57 -157v-94z" />
    <glyph glyph-name="ccedilla" unicode="&#xe7;" horiz-adv-x="1083" 
d="M684 2h-96l-58 -129h129q139 0 140 -137v-12q0 -137 -140 -138h-206l-72 58h278q39 0 58 20q14 20 14 62v12q0 41 -14 61q-18 20 -58 21h-225l94 186h-100q-133 0 -204 71t-70 202v548q0 131 71 203q72 72 203 72h256q131 0 203 -72t71 -203v-32h-67v28q0 99 -56 157
t-151 58h-256q-94 0 -150 -58t-57 -157v-549q0 -98 56 -156t151 -59h256q94 1 150 59t57 156v33h67v-33q1 -130 -70 -201t-204 -71z" />
    <glyph glyph-name="egrave" unicode="&#xe8;" 
d="M592 1266h-41l-236 270h109zM686 6h-258q-133 0 -204 71t-70 202v548q0 131 71 203q72 72 203 72h258q131 0 203 -72t72 -203v-274h-740l-2 -274q0 -99 56 -157t151 -59h258q96 0 154 60q57 61 57 156v53h66v-53q0 -131 -71 -202t-204 -71zM891 614v213q0 99 -56 157
t-151 58h-260q-94 0 -150 -58t-57 -157v-213h674z" />
    <glyph glyph-name="eacute" unicode="&#xe9;" 
d="M750 1536l-230 -270h-31l168 270h93zM686 6h-258q-133 0 -204 71t-70 202v548q0 131 71 203q72 72 203 72h258q131 0 203 -72t72 -203v-274h-740l-2 -274q0 -99 56 -157t151 -59h258q96 0 154 60q57 61 57 156v53h66v-53q0 -131 -71 -202t-204 -71zM891 614v213
q0 99 -56 157t-151 58h-260q-94 0 -150 -58t-57 -157v-213h674z" />
    <glyph glyph-name="ecircumflex" unicode="&#xea;" 
d="M803 1266h-23l-223 161l-221 -161h-25l195 215h102zM686 6h-258q-133 0 -204 71t-70 202v548q0 131 71 203q72 72 203 72h258q131 0 203 -72t72 -203v-274h-740l-2 -274q0 -99 56 -157t151 -59h258q96 0 154 60q57 61 57 156v53h66v-53q0 -131 -71 -202t-204 -71z
M891 614v213q0 99 -56 157t-151 58h-260q-94 0 -150 -58t-57 -157v-213h674z" />
    <glyph glyph-name="edieresis" unicode="&#xeb;" 
d="M768 1274h-104v164h104v-164zM442 1274h-104v164h104v-164zM686 6h-258q-133 0 -204 71t-70 202v548q0 131 71 203q72 72 203 72h258q131 0 203 -72t72 -203v-274h-740l-2 -274q0 -99 56 -157t151 -59h258q96 0 154 60q57 61 57 156v53h66v-53q0 -131 -71 -202t-204 -71z
M891 614v213q0 99 -56 157t-151 58h-260q-94 0 -150 -58t-57 -157v-213h674z" />
    <glyph glyph-name="igrave" unicode="&#xec;" horiz-adv-x="460" 
d="M287 1266h-41l-234 270h107zM264 12h-67v1082h67v-1082z" />
    <glyph glyph-name="iacute" unicode="&#xed;" horiz-adv-x="460" 
d="M444 1536l-229 -270h-31l168 270h92zM264 12h-67v1082h67v-1082z" />
    <glyph glyph-name="icircumflex" unicode="&#xee;" horiz-adv-x="460" 
d="M475 1266h-22l-224 161l-221 -161h-22l192 215h103zM264 12h-67v1082h67v-1082z" />
    <glyph glyph-name="idieresis" unicode="&#xef;" horiz-adv-x="460" 
d="M444 1276h-104v164h104v-164zM119 1276h-105v164h105v-164zM264 12h-67v1082h67v-1082z" />
    <glyph glyph-name="eth" unicode="&#xf0;" horiz-adv-x="1130" 
d="M700 6h-272q-133 0 -204 71t-70 202v432q0 131 72 203t202 71h117q119 0 207 -63l153 -111v256q0 72 -45 102q-37 29 -139 58l-203 57l-143 -133h-66l162 147l-209 62v57l262 -71l138 129h65l-156 -142l142 -41q68 -18 71 -20l60 -21q45 -16 55 -26l39 -39
q37 -37 37 -119v-788q0 -131 -71 -202t-204 -71zM903 279v503l-145 76q-135 70 -221 70h-117q-86 0 -146 -66t-59 -153v-433q0 -94 57 -154t154 -61h270q92 0 150 60q57 62 57 158z" />
    <glyph glyph-name="ntilde" unicode="&#xf1;" horiz-adv-x="1144" 
d="M850 1464l-41 -151q-25 -90 -100 -49l-316 166l-47 -164h-45l37 151q20 90 104 47l316 -164l47 164h45zM979 12h-68v813q0 100 -55 160q-57 59 -149 59h-93q-111 0 -223 -67l-139 -84v-881h-68v1080h68v-166l154 110q88 63 206 64h93q131 0 203 -72t71 -203v-813z" />
    <glyph glyph-name="ograve" unicode="&#xf2;" horiz-adv-x="1124" 
d="M594 1266h-41l-236 270h109zM696 6h-268q-133 0 -204 71t-70 202v548q0 131 71 203q72 72 203 72h264q131 0 203 -72t72 -203v-548q0 -131 -69 -202t-202 -71zM692 1044h-268q-92 0 -148 -59t-57 -158v-548q0 -97 57 -157t150 -61h268q92 0 150 60q57 62 57 158l-4 548
q0 98 -55 158q-57 59 -150 59z" />
    <glyph glyph-name="oacute" unicode="&#xf3;" horiz-adv-x="1124" 
d="M756 1536l-230 -270h-30l168 270h92zM696 6h-268q-133 0 -204 71t-70 202v548q0 131 71 203q72 72 203 72h264q131 0 203 -72t72 -203v-548q0 -131 -69 -202t-202 -71zM692 1044h-268q-92 0 -148 -59t-57 -158v-548q0 -97 57 -157t150 -61h268q92 0 150 60q57 62 57 158
l-4 548q0 98 -55 158q-57 59 -150 59z" />
    <glyph glyph-name="ocircumflex" unicode="&#xf4;" horiz-adv-x="1124" 
d="M805 1266h-23l-223 161l-221 -161h-25l195 215h102zM696 6h-268q-133 0 -204 71t-70 202v548q0 131 71 203q72 72 203 72h264q131 0 203 -72t72 -203v-548q0 -131 -69 -202t-202 -71zM692 1044h-268q-92 0 -148 -59t-57 -158v-548q0 -97 57 -157t150 -61h268q92 0 150 60
q57 62 57 158l-4 548q0 98 -55 158q-57 59 -150 59z" />
    <glyph glyph-name="otilde" unicode="&#xf5;" horiz-adv-x="1124" 
d="M840 1464l-41 -151q-25 -90 -101 -49l-315 166l-47 -164h-45l37 151q20 90 104 47l316 -164l47 164h45zM698 4h-268q-133 0 -204 71t-70 201v549q0 131 71 203q72 72 203 72h264q131 0 203 -72t72 -203v-549q0 -130 -69 -201t-202 -71zM694 1042h-268q-92 0 -148 -58
t-57 -159v-549q-1 -96 57 -156t150 -61h268q92 0 150 60q57 61 57 157l-4 549q0 101 -56 159t-149 58z" />
    <glyph glyph-name="odieresis" unicode="&#xf6;" horiz-adv-x="1124" 
d="M774 1274h-104v164h104v-164zM449 1274h-105v164h105v-164zM696 6h-268q-133 0 -204 71t-70 202v548q0 131 71 203q72 72 203 72h264q131 0 203 -72t72 -203v-548q0 -131 -69 -202t-202 -71zM692 1044h-268q-92 0 -148 -59t-57 -158v-548q0 -97 57 -157t150 -61h268
q92 0 150 60q57 62 57 158l-4 548q0 98 -55 158q-57 59 -150 59z" />
    <glyph glyph-name="divide" unicode="&#xf7;" horiz-adv-x="1040" 
d="M582 979h-125v154h125v-154zM872 731h-704v53h704v-53zM582 383h-125v154h125v-154z" />
    <glyph glyph-name="oslash" unicode="&#xf8;" horiz-adv-x="1124" 
d="M694 6h-266q-133 0 -204 71t-70 202v548q0 131 71 203q72 72 203 72h266q131 0 203 -72t72 -203v-548q0 -131 -71 -202t-204 -71zM694 63q96 0 156 60q59 60 59 156l-2 548q0 90 -59 158l-524 -901q59 -20 104 -21h266zM696 1042h-266q-96 0 -156 -59t-59 -156l2 -548
q0 -92 59 -160l525 901q-58 22 -105 22z" />
    <glyph glyph-name="ugrave" unicode="&#xf9;" horiz-adv-x="1144" 
d="M602 1264h-41l-235 270h108zM963 12h-68v166l-154 -110q-86 -61 -206 -62h-93q-134 0 -204 71t-70 202v815h68v-818q0 -96 57 -156t149 -61h93q106 0 221 68l139 84v883h68v-1082z" />
    <glyph glyph-name="uacute" unicode="&#xfa;" horiz-adv-x="1144" 
d="M764 1534l-229 -270h-31l168 270h92zM963 12h-68v166l-154 -110q-86 -61 -206 -62h-93q-134 0 -204 71t-70 202v815h68v-818q0 -96 57 -156t149 -61h93q106 0 221 68l139 84v883h68v-1082z" />
    <glyph glyph-name="ucircumflex" unicode="&#xfb;" horiz-adv-x="1144" 
d="M813 1264h-22l-224 161l-221 -161h-24l194 215h102zM963 12h-68v166l-154 -110q-86 -61 -206 -62h-93q-134 0 -204 71t-70 202v815h68v-818q0 -96 57 -156t149 -61h93q106 0 221 68l139 84v883h68v-1082z" />
    <glyph glyph-name="udieresis" unicode="&#xfc;" horiz-adv-x="1144" 
d="M782 1272h-104v164h104v-164zM457 1272h-105v164h105v-164zM963 12h-68v166l-154 -110q-86 -61 -206 -62h-93q-134 0 -204 71t-70 202v815h68v-818q0 -96 57 -156t149 -61h93q106 0 221 68l139 84v883h68v-1082z" />
    <glyph glyph-name="yacute" unicode="&#xfd;" horiz-adv-x="958" 
d="M678 1536l-229 -270h-31l168 270h92zM899 1094l-498 -1467h-61l125 375l-402 1092h78l348 -1024l340 1024h70z" />
    <glyph glyph-name="thorn" unicode="&#xfe;" horiz-adv-x="1159" 
d="M729 6h-119q-121 0 -207 62l-153 110v-551h-68v1884h68v-583l153 110q88 63 207 64h119q131 0 203 -72t72 -203v-548q0 -131 -71 -202t-204 -71zM938 279v548q0 99 -57 159t-150 61h-119q-106 0 -221 -68l-139 -84v-684l139 -84q115 -68 221 -68h119q92 0 150 60
q57 62 57 160z" />
    <glyph glyph-name="ydieresis" unicode="&#xff;" horiz-adv-x="958" 
d="M696 1274h-104v164h104v-164zM371 1274h-105v164h105v-164zM899 1094l-498 -1467h-61l125 375l-402 1092h78l348 -1024l340 1024h70z" />
    <glyph glyph-name="Amacron" unicode="&#x100;" horiz-adv-x="1337" 
d="M911 1642h-485v64h485v-64zM1249 12h-80l-165 463h-672l-168 -463h-74l533 1450h94zM983 539l-313 870l-316 -870h629z" />
    <glyph glyph-name="amacron" unicode="&#x101;" 
d="M811 1284h-485v64h485v-64zM430 1102h240q130 0 200 -70t70 -201v-817h-68v166l-153 -110q-86 -61 -213 -62h-109q-133 0 -203 71t-71 202v94q0 127 74 201t200 73h58q145 0 417 -37v219q0 98 -55 158q-57 59 -149 60h-236q-92 1 -146 -55t-59 -154h-67q4 126 74 194
t196 68zM193 371v-95q0 -96 57 -156t149 -61h109q115 0 227 68l139 84v377l-475 -2q-94 0 -150 -60t-56 -155z" />
    <glyph glyph-name="Abreve" unicode="&#x102;" horiz-adv-x="1337" 
d="M489 1729v88h54v-88q0 -57 53 -58h141q53 0 54 58v88h53v-88q0 -45 -29 -78q-33 -29 -78 -29l-141 -2q-47 0 -78 31q-29 33 -29 78zM1245 12h-80l-166 461h-671l-168 -461h-74l532 1448h95zM979 537l-313 870l-316 -870h629z" />
    <glyph glyph-name="abreve" unicode="&#x103;" 
d="M498 1264q-47 0 -78 30q-29 33 -29 78v88h53v-88q0 -57 54 -57h141q53 0 53 57v88h53l-4 -90q-4 -49 -28 -78q-33 -29 -78 -28h-137zM430 1102h240q130 0 200 -70t70 -201v-817h-68v166l-153 -110q-86 -61 -213 -62h-109q-133 0 -203 71t-71 202v94q0 127 74 201t200 73
h58q145 0 417 -37v219q0 98 -55 158q-57 59 -149 60h-236q-92 1 -146 -55t-59 -154h-67q4 126 74 194t196 68zM193 371v-95q0 -96 57 -156t149 -61h109q115 0 227 68l139 84v377l-475 -2q-94 0 -150 -60t-56 -155z" />
    <glyph glyph-name="Aogonek" unicode="&#x104;" horiz-adv-x="1337" 
d="M1182 -266h174l10 -58h-180q-47 0 -92 20t-58 60q-14 39 29 97l100 135h15l-176 487h-672l-168 -463h-74l533 1450h94l536 -1458l-100 -135q-60 -81 -30 -117q15 -18 59 -18zM987 539l-313 870l-316 -870h629z" />
    <glyph glyph-name="aogonek" unicode="&#x105;" 
d="M432 1100h236q130 0 200 -70t70 -201v-841h2l-88 -119q-60 -81 -30 -117q15 -18 59 -18h174l10 -58h-176q-47 0 -92 20t-58 60q-14 39 29 97l106 143v182l-153 -110q-86 -61 -213 -62h-109q-133 0 -203 71t-71 202v94q0 127 74 201t200 73h58q145 0 417 -37v219
q0 101 -56 159t-148 59h-236q-92 1 -146 -55t-59 -154h-67q2 126 72 194t198 68zM879 586h-476q-94 0 -150 -60t-56 -155v-95q0 -96 57 -156t149 -61h109q115 0 227 68l140 84v375z" />
    <glyph glyph-name="Cacute" unicode="&#x106;" horiz-adv-x="1302" 
d="M856 1892l-229 -270h-31l168 270h92zM860 6h-389q-139 0 -212 73t-73 210v897q0 137 74 211t211 73h389q137 0 211 -74t74 -210v-115h-74v115q0 104 -56 162t-155 59h-389q-99 0 -155 -58t-56 -163v-897q0 -105 56 -163t155 -58h389q98 0 156 59q55 59 55 162v114h74
v-114q0 -137 -73 -210t-212 -73z" />
    <glyph glyph-name="cacute" unicode="&#x107;" horiz-adv-x="1083" 
d="M754 1536l-230 -270h-30l168 270h92zM684 6h-256q-133 0 -204 71t-70 202v548q0 131 71 203q72 72 203 72h256q131 0 203 -72t71 -203v-32h-67v32q0 99 -56 157t-151 58h-256q-94 0 -150 -58t-57 -157v-548q0 -99 56 -157t151 -59h256q94 -1 150 59t57 157v32h67v-32
q1 -131 -70 -202t-204 -71z" />
    <glyph glyph-name="Cdotaccent" unicode="&#x10a;" horiz-adv-x="1302" 
d="M707 1640h-95v140h95v-140zM860 6h-389q-139 0 -212 73t-73 210v897q0 137 74 211t211 73h389q137 0 211 -74t74 -210v-115h-74v115q0 104 -56 162t-155 59h-389q-99 0 -155 -58t-56 -163v-897q0 -105 56 -163t155 -58h389q98 0 156 59q55 59 55 162v114h74v-114
q0 -137 -73 -210t-212 -73z" />
    <glyph glyph-name="cdotaccent" unicode="&#x10b;" horiz-adv-x="1083" 
d="M604 1284h-94v139h94v-139zM684 6h-256q-133 0 -204 71t-70 202v548q0 131 71 203q72 72 203 72h256q131 0 203 -72t71 -203v-32h-67v32q0 99 -56 157t-151 58h-256q-94 0 -150 -58t-57 -157v-548q0 -99 56 -157t151 -59h256q94 -1 150 59t57 157v32h67v-32
q1 -131 -70 -202t-204 -71z" />
    <glyph glyph-name="Ccaron" unicode="&#x10c;" horiz-adv-x="1302" 
d="M905 1837l-194 -215h-103l-194 215h24l221 -164l224 164h22zM860 6h-389q-139 0 -212 73t-73 210v897q0 137 74 211t211 73h389q137 0 211 -74t74 -210v-115h-74v115q0 104 -56 162t-155 59h-389q-99 0 -155 -58t-56 -163v-897q0 -105 56 -163t155 -58h389q98 0 156 59
q55 59 55 162v114h74v-114q0 -137 -73 -210t-212 -73z" />
    <glyph glyph-name="ccaron" unicode="&#x10d;" horiz-adv-x="1083" 
d="M803 1481l-195 -215h-102l-195 215h25l221 -164l223 164h23zM684 6h-256q-133 0 -204 71t-70 202v548q0 131 71 203q72 72 203 72h256q131 0 203 -72t71 -203v-32h-67v32q0 99 -56 157t-151 58h-256q-94 0 -150 -58t-57 -157v-548q0 -99 56 -157t151 -59h256
q94 -1 150 59t57 157v32h67v-32q1 -131 -70 -202t-204 -71z" />
    <glyph glyph-name="Dcaron" unicode="&#x10e;" horiz-adv-x="1363" 
d="M915 1837l-194 -215h-103l-194 215h25l221 -164l223 164h22zM895 12h-674v1450h674q137 0 211 -74t74 -210v-881q0 -137 -74 -211t-211 -74zM1106 297v881q0 104 -56 162t-155 59h-600v-1323h600q98 0 156 59q55 60 55 162z" />
    <glyph glyph-name="dcaron" unicode="&#x10f;" horiz-adv-x="1157" 
d="M1145 1376v135h104v-114q0 -37 -59 -158l-51 -106h-25l103 243h-72zM977 12h-68v166l-153 -110q-86 -61 -207 -62h-119q-133 0 -204 71t-70 202v548q0 131 71 203q72 72 203 72h119q119 0 207 -64l153 -110v583h68v-1499zM430 1042q-92 0 -149 -60t-58 -157v-549
q-1 -96 57 -156t150 -61h119q106 0 221 68l139 84v684l-139 80q-119 68 -221 67h-119z" />
    <glyph glyph-name="Dcroat" unicode="&#x110;" horiz-adv-x="1363" 
d="M895 12h-674v703h-188v63h188v684h674q137 0 211 -74t74 -210v-881q0 -137 -74 -211t-211 -74zM1106 297v881q0 104 -56 162t-155 59h-600v-621h199v-63h-199v-639h600q98 0 156 59q55 60 55 162z" />
    <glyph glyph-name="dcroat" unicode="&#x111;" horiz-adv-x="1159" 
d="M1108 1235h-131v-1223h-68v166l-153 -110q-86 -61 -207 -62h-119q-133 0 -204 71t-70 202v548q0 131 71 203q72 72 203 72h119q119 0 207 -64l153 -110v307h-196v55h196v221h68v-221h131v-55zM430 1042q-92 0 -149 -60t-58 -157v-549q-1 -96 57 -156t150 -61h119
q106 0 221 68l139 84v684l-139 80q-119 68 -221 67h-119z" />
    <glyph glyph-name="Emacron" unicode="&#x112;" horiz-adv-x="1214" 
d="M889 1642h-486v64h486v-64zM1085 12h-864v1450h864v-63h-790v-613h674v-63h-674v-647h790v-64z" />
    <glyph glyph-name="emacron" unicode="&#x113;" 
d="M799 1286h-486v64h486v-64zM686 6h-258q-133 0 -204 71t-70 202v548q0 131 71 203q72 72 203 72h258q131 0 203 -72t72 -203v-274h-740l-2 -274q0 -99 56 -157t151 -59h258q96 0 154 60q57 61 57 156v53h66v-53q0 -131 -71 -202t-204 -71zM891 614v213q0 99 -56 157
t-151 58h-260q-94 0 -150 -58t-57 -157v-213h674z" />
    <glyph glyph-name="Edotaccent" unicode="&#x116;" horiz-adv-x="1214" 
d="M694 1640h-94v140h94v-140zM1085 12h-864v1450h864v-63h-790v-613h674v-63h-674v-647h790v-64z" />
    <glyph glyph-name="edotaccent" unicode="&#x117;" 
d="M600 1284h-94v139h94v-139zM686 6h-258q-133 0 -204 71t-70 202v548q0 131 71 203q72 72 203 72h258q131 0 203 -72t72 -203v-274h-740l-2 -274q0 -99 56 -157t151 -59h258q96 0 154 60q57 61 57 156v53h66v-53q0 -131 -71 -202t-204 -71zM891 614v213q0 99 -56 157
t-151 58h-260q-94 0 -150 -58t-57 -157v-213h674z" />
    <glyph glyph-name="Eogonek" unicode="&#x118;" horiz-adv-x="1214" 
d="M1018 -324q-47 0 -92 20t-58 60q-14 39 29 97l119 159h-795v1450h864v-63h-790v-613h674v-63h-674v-647h790v-72l-100 -135q-60 -81 -30 -117q15 -18 59 -18h174l10 -58h-180z" />
    <glyph glyph-name="eogonek" unicode="&#x119;" 
d="M690 6h-88l-100 -137q-60 -81 -30 -117q15 -18 58 -18h175l10 -58h-185q-47 0 -92 20t-57 60q-14 39 29 97l112 153h-94q-133 0 -204 71t-70 202v548q0 131 71 203q72 72 203 72h258q131 0 203 -72t72 -203v-274h-740l2 -274q1 -99 57 -157t150 -59h258q96 0 154 60
q57 61 57 156v53h66v-53q0 -131 -71 -202t-204 -71zM895 614v213q0 99 -56 157t-151 58h-260q-94 0 -150 -58t-57 -157v-213h674z" />
    <glyph glyph-name="Ecaron" unicode="&#x11a;" horiz-adv-x="1214" 
d="M893 1837l-195 -215h-102l-195 215h25l221 -164l223 164h23zM1085 12h-864v1450h864v-63h-790v-613h674v-63h-674v-647h790v-64z" />
    <glyph glyph-name="ecaron" unicode="&#x11b;" 
d="M803 1481l-195 -215h-102l-195 215h25l221 -164l223 164h23zM686 6h-258q-133 0 -204 71t-70 202v548q0 131 71 203q72 72 203 72h258q131 0 203 -72t72 -203v-274h-740l-2 -274q0 -99 56 -157t151 -59h258q96 0 154 60q57 61 57 156v53h66v-53q0 -131 -71 -202t-204 -71
zM891 614v213q0 99 -56 157t-151 58h-260q-94 0 -150 -58t-57 -157v-213h674z" />
    <glyph glyph-name="Gbreve" unicode="&#x11e;" horiz-adv-x="1337" 
d="M733 1622h-137q-47 0 -78 31q-29 33 -29 78v88h54v-88q0 -57 53 -58h141q53 0 54 58v88h53l-4 -90q-4 -49 -29 -78q-33 -29 -78 -29zM1157 1083h-74l-4 103q-8 221 -207 221h-403q-99 0 -155 -58t-56 -163v-901q0 -105 56 -161t155 -56h403q100 0 154 59q53 59 53 162
v368h-409v64h483v-432q0 -139 -72 -211t-209 -72h-403q-139 0 -212 73t-73 210v897q0 137 74 211t211 73h403q137 0 211 -74t74 -210v-103z" />
    <glyph glyph-name="gbreve" unicode="&#x11f;" horiz-adv-x="1157" 
d="M514 1264q-47 0 -78 30q-29 33 -28 78v88h53v-88q0 -57 53 -57h141q53 0 54 57v88h53l-4 -90q-4 -49 -29 -78q-33 -29 -78 -28h-137zM702 -383h-247q-131 0 -203 72t-72 202h70q0 -100 56 -158t149 -59h247q92 0 150 60q57 61 57 160v348l-153 -111q-88 -63 -207 -63
h-119q-131 0 -203 72t-71 202v485q0 131 71 203q72 72 203 72h119q119 0 207 -64l153 -110v166h68v-1203q0 -130 -72 -202t-203 -72zM430 1042q-88 0 -147 -61t-60 -156v-485q-1 -96 57 -156t150 -61h119q104 0 221 70l141 81v617l-139 84q-113 68 -223 67h-119z" />
    <glyph glyph-name="Gdotaccent" unicode="&#x120;" horiz-adv-x="1337" 
d="M715 1640h-94v140h94v-140zM1157 1083h-74l-4 103q-8 221 -207 221h-403q-99 0 -155 -58t-56 -163v-901q0 -105 56 -161t155 -56h403q100 0 154 59q53 59 53 162v368h-409v64h483v-432q0 -139 -72 -211t-209 -72h-403q-139 0 -212 73t-73 210v897q0 137 74 211t211 73
h403q137 0 211 -74t74 -210v-103z" />
    <glyph glyph-name="gdotaccent" unicode="&#x121;" horiz-adv-x="1157" 
d="M633 1282h-94v139h94v-139zM702 -383h-247q-131 0 -203 72t-72 202h70q0 -100 56 -158t149 -59h247q92 0 150 60q57 61 57 160v348l-153 -111q-88 -63 -207 -63h-119q-131 0 -203 72t-71 202v485q0 131 71 203q72 72 203 72h119q119 0 207 -64l153 -110v166h68v-1203
q0 -130 -72 -202t-203 -72zM430 1042q-88 0 -147 -61t-60 -156v-485q-1 -96 57 -156t150 -61h119q104 0 221 70l141 81v617l-139 84q-113 68 -223 67h-119z" />
    <glyph glyph-name="Gcommaaccent" unicode="&#x122;" horiz-adv-x="1337" 
d="M1157 1083h-74l-4 103q-8 221 -207 221h-403q-99 0 -155 -58t-56 -163v-901q0 -105 56 -161t155 -56h403q100 0 154 59q53 59 53 162v368h-409v64h483v-432q0 -139 -72 -211t-209 -72h-403q-139 0 -212 73t-73 210v897q0 137 74 211t211 73h403q137 0 211 -74t74 -210
v-103zM614 -289v135h105v-114q-1 -37 -60 -158l-51 -106h-24l102 243h-72z" />
    <glyph glyph-name="gcommaaccent" unicode="&#x123;" horiz-adv-x="1157" 
d="M639 1407v-135h-104v114q0 37 59 158l51 107h25l-103 -244h72zM702 -383h-247q-131 0 -203 72t-72 202h70q0 -100 56 -158t149 -59h247q92 0 150 60q57 61 57 160v348l-153 -111q-88 -63 -207 -63h-119q-131 0 -203 72t-71 202v485q0 131 71 203q72 72 203 72h119
q119 0 207 -64l153 -110v166h68v-1203q0 -130 -72 -202t-203 -72zM430 1042q-88 0 -147 -61t-60 -156v-485q-1 -96 57 -156t150 -61h119q104 0 221 70l141 81v617l-139 84q-113 68 -223 67h-119z" />
    <glyph glyph-name="Hbar" unicode="&#x126;" horiz-adv-x="1411" 
d="M1300 1161h-106v-1149h-74v713h-829v-713h-74v1149h-106v64h106v237h74v-237h829v237h74v-237h106v-64zM1120 788v373h-829v-373h829z" />
    <glyph glyph-name="hbar" unicode="&#x127;" horiz-adv-x="1146" 
d="M979 12h-68v826q0 94 -53 151t-139 58h-90q-129 0 -246 -72l-133 -82v-881h-68v1223h-131v55h131v221h68v-221h196v-55h-196v-303l143 98q106 72 225 72h87q131 0 203 -72t71 -203v-815z" />
    <glyph glyph-name="Imacron" unicode="&#x12a;" horiz-adv-x="514" 
d="M500 1642h-486v64h486v-64zM295 12h-74v1450h74v-1450z" />
    <glyph glyph-name="imacron" unicode="&#x12b;" horiz-adv-x="460" 
d="M473 1292h-483v64h483v-64zM264 12h-67v1082h67v-1082z" />
    <glyph glyph-name="Iogonek" unicode="&#x12e;" horiz-adv-x="514" 
d="M254 -324q-47 0 -92 20t-58 60q-14 39 29 97l119 159h-16v1450h73v-1474l-88 -119q-60 -81 -30 -117q15 -18 59 -18h174l10 -58h-180z" />
    <glyph glyph-name="iogonek" unicode="&#x12f;" horiz-adv-x="460" 
d="M289 1384h-88v127h88v-127zM231 -324q-47 0 -92 20t-57 60q-14 39 29 97l118 159h-18v1082h68v-1106h8l-88 -119q-60 -81 -30 -117q15 -18 58 -18h174l11 -58h-181z" />
    <glyph glyph-name="Idotaccent" unicode="&#x130;" horiz-adv-x="514" 
d="M305 1640h-94v140h94v-140zM295 12h-74v1450h74v-1450z" />
    <glyph glyph-name="IJ" unicode="&#x132;" horiz-adv-x="1726" 
d="M1245 6h-332q-139 0 -212 73t-72 210v184h73v-184q0 -105 56 -163t155 -58h332q99 0 155 58t56 163v1173h74v-1173q0 -137 -73 -210t-212 -73zM295 12h-74v1450h74v-1450z" />
    <glyph glyph-name="ij" unicode="&#x133;" horiz-adv-x="952" 
d="M766 1384h-88v127h88v-127zM274 1384h-88v127h88v-127zM479 -383h-41v57h56q88 0 141 60q53 55 53 149v1211h66v-1203q0 -130 -72 -202t-203 -72zM264 12h-67v1082h67v-1082z" />
    <glyph glyph-name="Kcommaaccent" unicode="&#x136;" horiz-adv-x="1368" 
d="M297 12h-76v1450h76v-960l827 960h99l-537 -606l580 -844h-84l-539 795l-346 -391v-404zM614 -289v135h105v-114q-1 -37 -60 -158l-51 -106h-24l102 243h-72z" />
    <glyph glyph-name="kcommaaccent" unicode="&#x137;" horiz-adv-x="1026" 
d="M248 12h-68v1450h68v-1040l577 672h78l-342 -396l385 -686h-78l-346 641l-274 -315v-326zM467 -289v135h104v-114q0 -37 -59 -158l-51 -106h-25l103 243h-72z" />
    <glyph glyph-name="Lacute" unicode="&#x139;" horiz-adv-x="1136" 
d="M459 1892l-230 -270h-30l168 270h92zM1034 12h-813v1450h74v-1386h739v-64z" />
    <glyph glyph-name="lacute" unicode="&#x13a;" horiz-adv-x="458" 
d="M426 1942l-229 -271h-31l168 271h92zM260 12h-61v1499h61v-1499z" />
    <glyph glyph-name="Lcommaaccent" unicode="&#x13b;" horiz-adv-x="1136" 
d="M1034 12h-813v1450h74v-1386h739v-64zM600 -289v135h105v-114q-1 -37 -60 -158l-51 -106h-25l103 243h-72z" />
    <glyph glyph-name="lcommaaccent" unicode="&#x13c;" horiz-adv-x="458" 
d="M260 12h-61v1499h61v-1499zM176 -289v135h105v-114q-1 -37 -60 -158l-51 -106h-25l103 243h-72z" />
    <glyph glyph-name="Lcaron" unicode="&#x13d;" horiz-adv-x="1136" 
d="M532 1368v135h105v-114q0 -37 -59 -158l-52 -107h-24l102 244h-72zM1034 12h-813v1450h74v-1386h739v-64z" />
    <glyph glyph-name="lcaron" unicode="&#x13e;" horiz-adv-x="458" 
d="M432 1376v135h105v-114q-1 -37 -60 -158l-51 -106h-25l103 243h-72zM260 12h-61v1499h61v-1499z" />
    <glyph glyph-name="Ldot" unicode="&#x13f;" horiz-adv-x="1136" 
d="M883 674h-121v143h121v-143zM1034 12h-813v1450h74v-1386h739v-64z" />
    <glyph glyph-name="ldot" unicode="&#x140;" horiz-adv-x="643" 
d="M592 758h-105v135h105v-135zM260 12h-61v1499h61v-1499z" />
    <glyph glyph-name="Lslash" unicode="&#x141;" horiz-adv-x="1136" 
d="M1034 12h-813v723l-139 -59v69l139 60v657h74v-626l260 110v-69l-260 -111v-692h739v-62z" />
    <glyph glyph-name="lslash" unicode="&#x142;" horiz-adv-x="563" 
d="M311 12h-61v754l-211 -86v70l211 88v673h61v-649l213 88v-71l-213 -88v-779z" />
    <glyph glyph-name="Nacute" unicode="&#x143;" horiz-adv-x="1445" 
d="M934 1892l-229 -270h-31l168 270h92zM1227 12h-101l-833 1377v-1377h-72v1450h101l833 -1376v1376h72v-1450z" />
    <glyph glyph-name="nacute" unicode="&#x144;" horiz-adv-x="1144" 
d="M772 1536l-229 -270h-31l168 270h92zM977 12h-68v815q0 103 -56 161t-148 59h-93q-111 0 -223 -68l-139 -84v-883h-68v1082h68v-166l153 110q88 63 207 64h92q131 0 203 -72t72 -203v-815z" />
    <glyph glyph-name="Ncommaaccent" unicode="&#x145;" horiz-adv-x="1445" 
d="M1227 12h-101l-833 1377v-1377h-72v1450h101l833 -1376v1376h72v-1450zM670 -289v135h104v-114q0 -37 -59 -158l-51 -106h-25l102 243h-71z" />
    <glyph glyph-name="ncommaaccent" unicode="&#x146;" horiz-adv-x="1144" 
d="M977 12h-68v815q0 103 -56 161t-148 59h-93q-111 0 -223 -68l-139 -84v-883h-68v1082h68v-166l153 110q88 63 207 64h92q131 0 203 -72t72 -203v-815zM526 -289v135h105v-114q-1 -37 -60 -158l-51 -106h-24l102 243h-72z" />
    <glyph glyph-name="Ncaron" unicode="&#x147;" horiz-adv-x="1445" 
d="M983 1837l-195 -215h-102l-194 215h24l221 -164l224 164h22zM1227 12h-101l-833 1377v-1377h-72v1450h101l833 -1376v1376h72v-1450z" />
    <glyph glyph-name="ncaron" unicode="&#x148;" horiz-adv-x="1144" 
d="M821 1481l-194 -215h-103l-194 215h24l221 -164l224 164h22zM977 12h-68v815q0 103 -56 161t-148 59h-93q-111 0 -223 -68l-139 -84v-883h-68v1082h68v-166l153 110q88 63 207 64h92q131 0 203 -72t72 -203v-815z" />
    <glyph glyph-name="Eng" unicode="&#x14a;" horiz-adv-x="1447" 
d="M944 -385h-80v68h80q98 0 156 59q57 61 57 160v84l-864 1405v-1379h-72v1450h103l833 -1374v1374h72v-1562q0 -137 -74 -211t-211 -74z" />
    <glyph glyph-name="eng" unicode="&#x14b;" horiz-adv-x="1144" 
d="M702 -381h-71v57h71q98 0 152 58t55 160v933q0 103 -56 161t-148 59h-93q-111 0 -223 -68l-139 -84v-883h-68v1082h68v-166l153 110q88 63 207 64h92q131 0 203 -72t72 -203v-933q0 -131 -72 -203t-203 -72z" />
    <glyph glyph-name="Omacron" unicode="&#x14c;" horiz-adv-x="1355" 
d="M922 1642h-486v64h486v-64zM887 6h-416q-139 0 -212 73t-73 210v897q0 137 74 211t211 73h416q137 0 211 -74t73 -210v-897q1 -137 -72 -210t-212 -73zM1098 289v897q0 104 -56 162t-155 59h-416q-99 0 -155 -58t-56 -163v-897q0 -105 56 -163t155 -58h416q98 0 155 59
q56 60 56 162z" />
    <glyph glyph-name="omacron" unicode="&#x14d;" horiz-adv-x="1124" 
d="M801 1286h-486v64h486v-64zM696 6h-268q-133 0 -204 71t-70 202v548q0 131 71 203q72 72 203 72h264q131 0 203 -72t72 -203v-548q0 -131 -69 -202t-202 -71zM692 1044h-268q-92 0 -148 -59t-57 -158v-548q0 -97 57 -157t150 -61h268q92 0 150 60q57 62 57 158l-4 548
q0 98 -55 158q-57 59 -150 59z" />
    <glyph glyph-name="Ohungarumlaut" unicode="&#x150;" horiz-adv-x="1355" 
d="M1008 1894l-220 -272h-73l219 272h74zM752 1894l-220 -272h-73l219 272h74zM887 6h-416q-139 0 -212 73t-73 210v897q0 137 74 211t211 73h416q137 0 211 -74t73 -210v-897q1 -137 -72 -210t-212 -73zM1098 289v897q0 104 -56 162t-155 59h-416q-99 0 -155 -58t-56 -163
v-897q0 -105 56 -163t155 -58h416q98 0 155 59q56 60 56 162z" />
    <glyph glyph-name="ohungarumlaut" unicode="&#x151;" horiz-adv-x="1124" 
d="M893 1538l-219 -272h-74l219 272h74zM637 1538l-219 -272h-74l219 272h74zM696 6h-268q-133 0 -204 71t-70 202v548q0 131 71 203q72 72 203 72h264q131 0 203 -72t72 -203v-548q0 -131 -69 -202t-202 -71zM692 1044h-268q-92 0 -148 -59t-57 -158v-548q0 -97 57 -157
t150 -61h268q92 0 150 60q57 62 57 158l-4 548q0 98 -55 158q-57 59 -150 59z" />
    <glyph glyph-name="OE" unicode="&#x152;" horiz-adv-x="2025" 
d="M1896 12h-1425q-137 0 -211 74t-74 211v881q0 137 74 211t211 73h1425v-63h-809v-606h721v-64h-721v-653h809v-64zM1014 119v1237q0 43 -45 43h-498q-99 -1 -155 -59t-56 -162v-881q0 -105 56 -163t155 -58h498q45 0 45 43z" />
    <glyph glyph-name="oe" unicode="&#x153;" horiz-adv-x="1855" 
d="M1436 6h-258q-164 0 -242 121q-78 -121 -240 -121h-268q-133 0 -204 71t-70 202v548q0 131 71 203q72 72 203 72h266q160 0 242 -125q82 125 242 125h258q130 0 202 -72t72 -203v-274h-739l-2 -274q0 -99 56 -157t151 -59h258q96 1 153 61t58 155v53h65v-53
q0 -131 -71 -202t-203 -71zM1636 614v213q0 99 -56 157t-150 58h-261q-94 0 -150 -58t-56 -157v-213h673zM897 279v548q0 98 -55 158q-57 59 -150 59h-268q-92 0 -148 -59t-57 -158v-548q0 -97 57 -157t150 -61h264q92 0 150 60q57 62 57 158z" />
    <glyph glyph-name="Racute" unicode="&#x154;" horiz-adv-x="1347" 
d="M879 1892l-230 -270h-31l168 270h93zM295 647v-635h-74v1450h658q137 0 211 -74t73 -210v-248q0 -143 -76 -213t-237 -70l350 -635h-82l-346 635h-477zM1090 932v246q0 104 -56 162t-155 59h-584v-688h584q98 0 155 59q56 60 56 162z" />
    <glyph glyph-name="racute" unicode="&#x155;" horiz-adv-x="757" 
d="M592 1536l-230 -270h-30l168 270h92zM684 1044h-74q-100 0 -221 -69l-139 -82v-881h-68v1082h68v-166l153 110q88 63 207 64h74v-58z" />
    <glyph glyph-name="Rcommaaccent" unicode="&#x156;" horiz-adv-x="1347" 
d="M295 647v-635h-74v1450h658q137 0 211 -74t73 -210v-248q0 -143 -76 -213t-237 -70l350 -635h-82l-346 635h-477zM616 -289v135h105v-114q0 -37 -59 -158l-52 -106h-24l102 243h-72zM1090 932v246q0 104 -56 162t-155 59h-584v-688h584q98 0 155 59q56 60 56 162z" />
    <glyph glyph-name="rcommaaccent" unicode="&#x157;" horiz-adv-x="757" 
d="M684 1044h-74q-100 0 -221 -69l-139 -82v-881h-68v1082h68v-166l153 110q88 63 207 64h74v-58zM160 -289v135h104v-114q0 -37 -59 -158l-51 -106h-25l102 243h-71z" />
    <glyph glyph-name="Rcaron" unicode="&#x158;" horiz-adv-x="1347" 
d="M928 1837l-195 -215h-102l-195 215h25l221 -164l223 164h23zM295 647v-635h-74v1450h658q137 0 211 -74t73 -210v-248q0 -143 -76 -213t-237 -70l350 -635h-82l-346 635h-477zM1090 932v246q0 104 -56 162t-155 59h-584v-688h584q98 0 155 59q56 60 56 162z" />
    <glyph glyph-name="rcaron" unicode="&#x159;" horiz-adv-x="757" 
d="M641 1481l-195 -215h-102l-194 215h24l221 -164l223 164h23zM684 1044h-74q-100 0 -221 -69l-139 -82v-881h-68v1082h68v-166l153 110q88 63 207 64h74v-58z" />
    <glyph glyph-name="Sacute" unicode="&#x15a;" horiz-adv-x="1286" 
d="M842 1890l-230 -270h-30l168 270h92zM825 6h-360q-139 0 -212 73t-73 210v119h76v-119q0 -105 56 -163t155 -58h358q100 0 154 59q53 59 53 162v168q0 113 -42 149t-138 62l-381 94q-160 41 -223 93t-64 187v144q0 137 74 211t211 73h336q137 0 211 -74t74 -210v-96h-76
l-2 94q-4 106 -58 164t-153 57h-334q-99 0 -153 -59t-54 -162v-140q0 -113 57 -157q31 -20 54 -33q20 -6 26 -8t41 -10l381 -97q82 -21 126 -37q118 -44 142 -120q18 -45 19 -121v-172q0 -139 -72 -211t-209 -72z" />
    <glyph glyph-name="sacute" unicode="&#x15b;" horiz-adv-x="1054" 
d="M717 1536l-230 -270h-30l168 270h92zM653 1102q244 0 244 -248v-41h-61l-2 41q-10 188 -185 188h-254q-184 0 -184 -188v-57q0 -74 38 -110t122 -48l327 -55q121 -23 172 -70t52 -156v-104q-2 -244 -244 -246h-299q-248 0 -248 246v59h62v-59q0 -193 186 -193h299
q180 0 180 193v104q0 74 -38 110t-122 48l-327 55q-121 23 -172 70t-52 156v57q0 248 248 248h258z" />
    <glyph glyph-name="Scedilla" unicode="&#x15e;" horiz-adv-x="1286" 
d="M827 4h-151l-58 -129h130q139 0 139 -137v-12q0 -137 -139 -138h-207l-72 58h279q39 0 57 20q14 20 14 62v12q0 41 -14 61q-18 20 -57 21h-226l94 186h-149q-139 0 -212 73t-73 210v119h76v-119q0 -102 55 -162q57 -59 156 -59h358q100 0 154 59q53 59 53 162v168
q0 113 -42 149t-138 62l-381 94q-160 41 -223 93t-64 187v144q0 137 74 211t211 74h336q137 0 211 -74t74 -211v-96h-76v96q0 102 -55 162q-57 59 -156 59h-334q-99 0 -153 -59t-54 -162v-139q0 -53 13 -93q20 -62 98 -98q20 -6 26 -7t39 -11l379 -103q106 -29 139 -41
t74 -41q40 -29 58 -75t18 -121v-172q0 -139 -72 -211t-209 -72z" />
    <glyph glyph-name="scedilla" unicode="&#x15f;" horiz-adv-x="1054" 
d="M655 -127q139 0 140 -137v-12q0 -137 -140 -138h-206l-72 58h278q39 0 58 20q14 20 14 62v12q0 41 -14 61q-18 20 -58 21h-225l94 186h-147q-248 0 -248 246v59h61v-59q0 -193 187 -193h299q180 0 180 193v104q0 74 -38 110t-122 48l-327 55q-121 23 -172 70t-52 156v57
q0 248 248 248h258q244 0 244 -248v-41h-61v41q0 188 -185 188h-254q-184 0 -184 -188v-57q0 -74 36 -108t124 -50l325 -59q121 -23 172 -70t52 -156v-104q-2 -246 -244 -246h-92l-58 -129h129z" />
    <glyph glyph-name="Scaron" unicode="&#x160;" horiz-adv-x="1286" 
d="M891 1835l-195 -215h-102l-195 215h25l221 -164l223 164h23zM825 6h-360q-139 0 -212 73t-73 210v119h76v-119q0 -105 56 -163t155 -58h358q100 0 154 59q53 59 53 162v168q0 113 -42 149t-138 62l-381 94q-160 41 -223 93t-64 187v144q0 137 74 211t211 73h336
q137 0 211 -74t74 -210v-96h-76l-2 94q-4 106 -58 164t-153 57h-334q-99 0 -153 -59t-54 -162v-140q0 -113 57 -157q31 -20 54 -33q20 -6 26 -8t41 -10l381 -97q82 -21 126 -37q118 -44 142 -120q18 -45 19 -121v-172q0 -139 -72 -211t-209 -72z" />
    <glyph glyph-name="scaron" unicode="&#x161;" horiz-adv-x="1054" 
d="M766 1481l-195 -215h-102l-195 215h25l221 -164l223 164h23zM653 1102q244 0 244 -248v-41h-61l-2 41q-10 188 -185 188h-254q-184 0 -184 -188v-57q0 -74 38 -110t122 -48l327 -55q121 -23 172 -70t52 -156v-104q-2 -244 -244 -246h-299q-248 0 -248 246v59h62v-59
q0 -193 186 -193h299q180 0 180 193v104q0 74 -38 110t-122 48l-327 55q-121 23 -172 70t-52 156v57q0 248 248 248h258z" />
    <glyph glyph-name="Tcedilla" unicode="&#x162;" horiz-adv-x="1157" 
d="M614 1399v-1387h-6l-61 -139h129q139 0 139 -137v-12q0 -137 -139 -138h-207l-72 58h279q39 0 57 20q14 20 15 62v12q0 41 -15 61q-18 20 -57 21h-225l90 178v1401h-459v63h991v-63h-459z" />
    <glyph glyph-name="tcedilla" unicode="&#x163;" horiz-adv-x="827" 
d="M709 -414h-207l-72 58h279q39 0 57 20q14 20 14 62v12q0 41 -14 61q-18 20 -57 21h-226l99 192h-33q-131 0 -203 72t-72 203v753h-200v54h202v368h64v-368h387v-54h-385v-753q0 -99 56 -161t151 -63h178v-51h-86l-61 -135l129 -4q139 -2 139 -137v-12q0 -138 -139 -138z
" />
    <glyph glyph-name="Tcaron" unicode="&#x164;" horiz-adv-x="1157" 
d="M823 1837l-194 -215h-103l-194 215h24l222 -164l223 164h22zM1073 1399h-459v-1387h-73v1387h-459v63h991v-63z" />
    <glyph glyph-name="tcaron" unicode="&#x165;" horiz-adv-x="827" 
d="M604 1532v135h105v-115q-1 -36 -60 -157l-51 -107h-25l103 244h-72zM727 12h-178q-131 0 -203 72t-72 203v753h-200v54h202v368h64v-368h387v-54h-385v-753q0 -99 56 -161t151 -63h178v-51z" />
    <glyph glyph-name="Tbar" unicode="&#x166;" horiz-adv-x="1157" 
d="M819 1642h-485v64h485v-64zM1073 1399h-459v-1387h-73v1387h-459v63h991v-63z" />
    <glyph glyph-name="tbar" unicode="&#x167;" horiz-adv-x="827" 
d="M727 12h-178q-131 0 -203 72t-72 203v381h-178v63h178v309h-200v54h202v368h64v-368h387v-54h-385v-309h240v-63h-240v-381q0 -99 56 -161t151 -63h178v-51z" />
    <glyph glyph-name="Umacron" unicode="&#x16a;" horiz-adv-x="1357" 
d="M922 1642h-486v64h486v-64zM877 6h-394q-139 0 -212 73t-72 210v1173h73v-1173q0 -105 56 -163t155 -58h394q98 0 155 59q55 59 55 162v1173h74v-1173q0 -137 -73 -210t-211 -73z" />
    <glyph glyph-name="umacron" unicode="&#x16b;" horiz-adv-x="1144" 
d="M809 1284h-485v64h485v-64zM963 12h-68v166l-154 -110q-86 -61 -206 -62h-93q-134 0 -204 71t-70 202v815h68v-818q0 -96 57 -156t149 -61h93q106 0 221 68l139 84v883h68v-1082z" />
    <glyph glyph-name="Uring" unicode="&#x16e;" horiz-adv-x="1357" 
d="M530 1841q0 23 16 38t38 15h186q20 0 39 -14q14 -14 14 -37v-170q0 -23 -14 -37t-37 -14l-190 -4q-49 0 -52 53v170zM872 2h-393q-139 0 -212 73t-72 210v1173h73v-1173q0 -105 56 -163t155 -59h393q98 -1 154 59t57 163v1173h74v-1173q0 -137 -73 -210t-212 -73z
M786 1694v125q0 37 -36 36h-150q-37 0 -37 -36v-125q0 -37 37 -37h150q36 0 36 37z" />
    <glyph glyph-name="uring" unicode="&#x16f;" horiz-adv-x="1144" 
d="M418 1313v170q0 23 15 38t38 15h186q20 0 39 -14q14 -14 15 -37v-170q-1 -23 -15 -37t-37 -14l-190 -4q-23 0 -37 16t-14 37zM963 12h-68v166l-154 -110q-86 -61 -206 -62h-93q-134 0 -204 71t-70 202v815h68v-818q0 -96 57 -156t149 -61h93q106 0 221 68l139 84v883h68
v-1082zM674 1335v125q0 37 -37 37h-150q-37 0 -36 -37v-125q0 -37 36 -37h150q37 0 37 37z" />
    <glyph glyph-name="Uhungarumlaut" unicode="&#x170;" horiz-adv-x="1357" 
d="M1008 1894l-220 -272h-73l219 272h74zM752 1894l-220 -272h-73l219 272h74zM877 6h-394q-139 0 -212 73t-72 210v1173h73v-1173q0 -105 56 -163t155 -58h394q98 0 155 59q55 59 55 162v1173h74v-1173q0 -137 -73 -210t-211 -73z" />
    <glyph glyph-name="uhungarumlaut" unicode="&#x171;" horiz-adv-x="1144" 
d="M895 1538l-219 -272h-74l219 272h74zM639 1538l-219 -272h-74l219 272h74zM963 12h-68v166l-154 -110q-86 -61 -206 -62h-93q-134 0 -204 71t-70 202v815h68v-818q0 -96 57 -156t149 -61h93q106 0 221 68l139 84v883h68v-1082z" />
    <glyph glyph-name="Uogonek" unicode="&#x172;" horiz-adv-x="1357" 
d="M881 6h-138l-98 -135q-60 -81 -30 -117q15 -18 59 -18h174l10 -58h-184q-47 0 -92 20t-58 60q-14 39 29 97l111 151h-181q-139 0 -212 73t-72 210v1173h73v-1173q0 -105 56 -163t155 -58h394q98 0 155 59q55 59 55 162v1173h74l4 -1173q1 -137 -72 -210t-212 -73z" />
    <glyph glyph-name="uogonek" unicode="&#x173;" horiz-adv-x="1144" 
d="M897 12v164l-154 -110q-86 -61 -206 -62h-93q-134 0 -204 71t-70 201v816h68v-816q0 -96 57 -156t149 -61h93q106 0 221 68l139 84v883h68v-1106h22l-88 -119q-60 -81 -30 -117q15 -18 59 -18h174l10 -58l-180 -2q-47 0 -92 20t-58 60q-14 39 29 96l119 162h-33z" />
    <glyph glyph-name="Wcircumflex" unicode="&#x174;" horiz-adv-x="1849" 
d="M1171 1622h-22l-223 162l-221 -162h-25l194 215h103zM1763 1462l-409 -1450h-90l-338 1356l-340 -1356h-90l-410 1450h76l377 -1376l346 1376h82l344 -1376l377 1376h75z" />
    <glyph glyph-name="wcircumflex" unicode="&#x175;" horiz-adv-x="1488" 
d="M989 1266h-22l-224 161l-221 -161h-24l194 215h103zM1430 1094l-336 -1082h-88l-261 1004l-260 -1004h-94l-330 1082h66l311 -1063l271 1063h71l271 -1061l317 1061h62z" />
    <glyph glyph-name="Ycircumflex" unicode="&#x176;" horiz-adv-x="1234" 
d="M862 1622h-22l-224 162l-221 -162h-24l194 215h103zM653 12h-73v553l-521 897h88l469 -831l469 831h89l-521 -897v-553z" />
    <glyph glyph-name="ycircumflex" unicode="&#x177;" horiz-adv-x="958" 
d="M727 1266h-22l-224 161l-221 -161h-24l194 215h102zM899 1094l-498 -1467h-61l125 375l-402 1092h78l348 -1024l340 1024h70z" />
    <glyph glyph-name="Ydieresis" unicode="&#x178;" horiz-adv-x="1234" 
d="M831 1630h-104v164h104v-164zM506 1630h-105v164h105v-164zM653 12h-73v553l-521 897h88l469 -831l469 831h89l-521 -897v-553z" />
    <glyph glyph-name="Zacute" unicode="&#x179;" horiz-adv-x="1218" 
d="M825 1892l-229 -270h-31l168 270h92zM1073 76v-64h-932v54l854 1333h-819v63h901v-53l-856 -1333h852z" />
    <glyph glyph-name="zacute" unicode="&#x17a;" horiz-adv-x="921" 
d="M676 1536l-230 -270h-30l168 270h92zM813 63v-51h-713v31l650 999h-617v52h694v-33l-651 -998h637z" />
    <glyph glyph-name="Zdotaccent" unicode="&#x17b;" horiz-adv-x="1218" 
d="M676 1640h-94v140h94v-140zM1073 76v-64h-932v54l854 1333h-819v63h901v-53l-856 -1333h852z" />
    <glyph glyph-name="zdotaccent" unicode="&#x17c;" horiz-adv-x="921" 
d="M526 1284h-94v139h94v-139zM813 63v-51h-713v31l650 999h-617v52h694v-33l-651 -998h637z" />
    <glyph glyph-name="Zcaron" unicode="&#x17d;" horiz-adv-x="1218" 
d="M874 1837l-194 -215h-102l-195 215h25l221 -164l223 164h22zM1073 76v-64h-932v54l854 1333h-819v63h901v-53l-856 -1333h852z" />
    <glyph glyph-name="zcaron" unicode="&#x17e;" horiz-adv-x="921" 
d="M725 1481l-195 -215h-102l-195 215h25l221 -164l223 164h23zM813 63v-51h-713v31l650 999h-617v52h694v-33l-651 -998h637z" />
    <glyph glyph-name="florin" unicode="&#x192;" horiz-adv-x="792" 
d="M711 1399h-90q-99 -1 -155 -59t-56 -162v-304h280v-61h-280v-526q0 -127 -74 -201t-201 -74h-53v64h53q201 0 201 211v526h-240v61h240v304q0 137 74 211t211 73h90v-63z" />
    <glyph glyph-name="circumflex" unicode="&#x2c6;" horiz-adv-x="1351" 
d="M922 1622h-23l-223 162l-221 -162h-25l195 215h102z" />
    <glyph glyph-name="caron" unicode="&#x2c7;" horiz-adv-x="1351" 
d="M922 1837l-195 -215h-102l-195 215h25l221 -164l223 164h23z" />
    <glyph glyph-name="breve" unicode="&#x2d8;" horiz-adv-x="1265" 
d="M700 1622h-137q-47 0 -78 31q-29 33 -28 78v88h53v-88q0 -57 53 -58h142q53 0 53 58v88h53l-4 -90q-4 -49 -29 -78q-33 -29 -78 -29z" />
    <glyph glyph-name="dotaccent" unicode="&#x2d9;" horiz-adv-x="978" 
d="M537 1640h-95v140h95v-140z" />
    <glyph glyph-name="ring" unicode="&#x2da;" horiz-adv-x="704" 
d="M205 1671v170q0 23 15 38t38 15h186q20 0 39 -14q14 -14 15 -37v-170q-1 -23 -15 -37t-37 -14l-190 -4q-23 0 -37 16t-14 37zM461 1694v125q0 37 -37 36h-150q-37 0 -36 -36v-125q0 -37 36 -37h150q37 0 37 37z" />
    <glyph glyph-name="ogonek" unicode="&#x2db;" horiz-adv-x="800" 
d="M391 -324q-47 0 -92 20t-57 60q-14 39 28 97l101 135h75l-84 -121q-94 -133 29 -133h174l10 -58h-184z" />
    <glyph glyph-name="tilde" unicode="&#x2dc;" horiz-adv-x="1249" 
d="M899 1821l-41 -152q-25 -90 -100 -49l-316 166l-47 -164h-45l37 152q20 90 105 47l315 -164l47 164h45z" />
    <glyph glyph-name="hungarumlaut" unicode="&#x2dd;" horiz-adv-x="1536" 
d="M1042 1894l-219 -272h-73l219 272h73zM786 1894l-219 -272h-73l219 272h73z" />
    <glyph glyph-name="commaaccentcomb" unicode="&#x326;" horiz-adv-x="0" 
d="M301 -289v135h105v-114q-1 -37 -60 -158l-51 -106h-25l103 243h-72z" />
    <glyph glyph-name="Wgrave" unicode="&#x1e80;" horiz-adv-x="1849" 
d="M961 1622h-41l-236 270h109zM1763 1462l-409 -1450h-90l-338 1356l-340 -1356h-90l-410 1450h76l377 -1376l346 1376h82l344 -1376l377 1376h75z" />
    <glyph glyph-name="wgrave" unicode="&#x1e81;" horiz-adv-x="1488" 
d="M778 1266h-41l-235 270h108zM1430 1094l-336 -1082h-88l-261 1004l-260 -1004h-94l-330 1082h66l311 -1063l271 1063h71l271 -1061l317 1061h62z" />
    <glyph glyph-name="Wacute" unicode="&#x1e82;" horiz-adv-x="1849" 
d="M1122 1892l-229 -270h-31l168 270h92zM1763 1462l-409 -1450h-90l-338 1356l-340 -1356h-90l-410 1450h76l377 -1376l346 1376h82l344 -1376l377 1376h75z" />
    <glyph glyph-name="wacute" unicode="&#x1e83;" horiz-adv-x="1488" 
d="M940 1536l-229 -270h-31l168 270h92zM1430 1094l-336 -1082h-88l-261 1004l-260 -1004h-94l-330 1082h66l311 -1063l271 1063h71l271 -1061l317 1061h62z" />
    <glyph glyph-name="Wdieresis" unicode="&#x1e84;" horiz-adv-x="1849" 
d="M1141 1630h-105v164h105v-164zM815 1630h-104v164h104v-164zM1763 1462l-409 -1450h-90l-338 1356l-340 -1356h-90l-410 1450h76l377 -1376l346 1376h82l344 -1376l377 1376h75z" />
    <glyph glyph-name="wdieresis" unicode="&#x1e85;" horiz-adv-x="1488" 
d="M958 1274h-104v164h104v-164zM633 1274h-105v164h105v-164zM1430 1094l-336 -1082h-88l-261 1004l-260 -1004h-94l-330 1082h66l311 -1063l271 1063h71l271 -1061l317 1061h62z" />
    <glyph glyph-name="Ygrave" unicode="&#x1ef2;" horiz-adv-x="1234" 
d="M651 1622h-41l-235 270h108zM653 12h-73v553l-521 897h88l469 -831l469 831h89l-521 -897v-553z" />
    <glyph glyph-name="ygrave" unicode="&#x1ef3;" horiz-adv-x="958" 
d="M516 1266h-41l-235 270h108zM899 1094l-498 -1467h-61l125 375l-402 1092h78l348 -1024l340 1024h70z" />
    <glyph glyph-name="endash" unicode="&#x2013;" horiz-adv-x="1138" 
d="M987 643h-835v68h835v-68z" />
    <glyph glyph-name="emdash" unicode="&#x2014;" horiz-adv-x="1669" 
d="M1518 645h-1366v62h1366v-62z" />
    <glyph glyph-name="quoteleft" unicode="&#x2018;" horiz-adv-x="440" 
d="M272 1219v-136h-104v115q0 37 59 158l52 106h24l-102 -243h71z" />
    <glyph glyph-name="quoteright" unicode="&#x2019;" horiz-adv-x="440" 
d="M168 1327v135h104v-114q0 -37 -59 -158l-51 -107h-25l103 244h-72z" />
    <glyph glyph-name="quotesinglbase" unicode="&#x201a;" horiz-adv-x="440" 
d="M168 12v135h104v-114q0 -35 -59 -156l-51 -106h-25l103 241h-72z" />
    <glyph glyph-name="quotedblleft" unicode="&#x201c;" horiz-adv-x="710" 
d="M543 1219v-136h-105v115q0 37 60 158l51 106h24l-102 -243h72zM272 1219v-136h-104v115q0 37 59 158l52 106h24l-102 -243h71z" />
    <glyph glyph-name="quotedblright" unicode="&#x201d;" horiz-adv-x="708" 
d="M436 1327v135h105v-114q-1 -37 -60 -158l-51 -107h-24l102 244h-72zM168 1327v135h104v-114q0 -37 -59 -158l-51 -107h-25l103 244h-72z" />
    <glyph glyph-name="quotedblbase" unicode="&#x201e;" horiz-adv-x="440" 
d="M168 12v135h104v-114q0 -35 -59 -156l-51 -106h-25l103 241h-72z" />
    <glyph glyph-name="dagger" unicode="&#x2020;" horiz-adv-x="765" 
d="M659 1030h-239v-1018h-74v1018h-237v64h237v368h74v-368h239v-64z" />
    <glyph glyph-name="daggerdbl" unicode="&#x2021;" horiz-adv-x="765" 
d="M659 381h-239v-369h-74v369h-237v63h237v586h-237v64h237v368h74v-368h239v-64h-239v-586h239v-63z" />
    <glyph glyph-name="bullet" unicode="&#x2022;" horiz-adv-x="876" 
d="M516 621h-154q-29 0 -47 18t-18 47v152q0 29 18 47t47 18h154q29 0 47 -18t19 -47v-152q-1 -29 -19 -47t-47 -18z" />
    <glyph glyph-name="ellipsis" unicode="&#x2026;" horiz-adv-x="1288" 
d="M1120 12h-104v135h104v-135zM696 12h-104v135h104v-135zM272 12h-104v135h104v-135z" />
    <glyph glyph-name="perthousand" unicode="&#x2030;" horiz-adv-x="1863" 
d="M1620 2h-182q-49 0 -84 34t-35 83v311q0 47 36 83t85 36h180q49 0 84 -35t35 -84v-311q0 -49 -35 -83t-84 -34zM238 922q-49 0 -84 34t-35 84v312q0 47 36 83t85 35h180q49 0 84 -34t35 -84v-312q0 -49 -35 -84t-84 -34h-182zM1081 1462l-805 -1450h-55l801 1450h59z
M1069 2h-182q-49 0 -84 34t-35 83v311q0 47 36 83t85 36h180q49 0 84 -35t35 -84v-311q0 -49 -35 -83t-84 -34zM1665 119v301q0 57 -49 57h-168q-23 0 -39 -16t-16 -39v-305q0 -27 16 -42t39 -16h168q49 1 49 60zM465 1044v302q0 57 -49 57h-168q-23 -1 -39 -17t-16 -38
v-306q0 -27 16 -42t39 -15h168q49 0 49 59zM1112 123v301q0 57 -49 57h-168q-23 0 -39 -16t-16 -39v-305q0 -27 16 -42t39 -16h168q49 1 49 60z" />
    <glyph glyph-name="guilsinglleft" unicode="&#x2039;" horiz-adv-x="509" 
d="M403 307h-69l-256 379v66l256 381h69l-276 -414z" />
    <glyph glyph-name="guilsinglright" unicode="&#x203a;" horiz-adv-x="509" 
d="M430 686l-256 -379h-70l277 412l-277 414h70l256 -381v-66z" />
    <glyph glyph-name="fraction" unicode="&#x2044;" horiz-adv-x="237" 
d="M524 1462l-747 -1450h-62l748 1450h61z" />
    <glyph glyph-name="zerosuperior" unicode="&#x2070;" horiz-adv-x="702" 
d="M461 995h-217q-66 0 -106 33t-40 94v439q0 61 40 94t106 33h217q65 0 105 -33t40 -94v-439q0 -61 -40 -94t-105 -33zM532 1133v421q0 31 -21 54t-60 22h-203q-39 0 -61 -22t-21 -54l-2 -421q0 -31 21 -54t63 -22h203q39 1 60 23t21 53z" />
    <glyph glyph-name="foursuperior" unicode="&#x2074;" horiz-adv-x="720" 
d="M651 1165h-114v-166h-70v166h-395l-6 58l391 465h80v-461h114v-62zM467 1227v375l-330 -375h330z" />
    <glyph glyph-name="fivesuperior" unicode="&#x2075;" horiz-adv-x="665" 
d="M434 993h-198q-68 0 -109 35q-39 37 -39 96v52h70v-43q0 -76 82 -76h184q82 0 82 76v167q0 35 -23 56q-20 23 -61 22h-74q-61 0 -121 -30l-51 -27l-80 27v340l467 -2v-64h-399v-272l84 55q49 33 98 33h88q63 0 105 -35q39 -37 39 -92v-187q0 -59 -39 -96
q-41 -35 -105 -35z" />
    <glyph glyph-name="sixsuperior" unicode="&#x2076;" horiz-adv-x="679" 
d="M440 989h-198q-68 0 -109 35q-39 37 -39 96v434q0 59 39 97q41 35 109 35h188q66 0 107 -35q39 -37 38 -97v-45h-69l-4 37q-10 76 -82 76h-174q-82 0 -82 -76v-221l86 57q33 31 96 31h94q63 0 105 -35q39 -37 39 -92v-166q0 -59 -39 -96q-41 -35 -105 -35zM510 1128v148
q0 76 -86 76h-84q-45 0 -72 -10t-36 -14q-8 -3 -36 -17l-34 -17l-2 -166q0 -32 21 -54t63 -21h182q84 -1 84 75z" />
    <glyph glyph-name="sevensuperior" unicode="&#x2077;" horiz-adv-x="628" 
d="M59 1624v64h504v-52l-362 -637h-74l356 625h-424z" />
    <glyph glyph-name="eightsuperior" unicode="&#x2078;" horiz-adv-x="690" 
d="M602 1124q0 -59 -39 -96q-41 -35 -104 -35h-219q-68 0 -109 35q-39 37 -39 96v119q0 35 23 60q20 31 80 45q-92 49 -93 110v103q0 59 39 96q41 35 107 35h201q63 0 104 -35q39 -37 39 -96v-105q0 -61 -92 -110q104 -26 102 -103v-119zM522 1456v94q0 76 -84 76h-182
q-86 0 -86 -76v-94q0 -39 19 -57t71 -19h174q48 0 68 18t20 58zM532 1133v114q0 76 -96 76h-174q-100 0 -100 -76v-114q0 -76 84 -76h203q83 0 83 76z" />
    <glyph glyph-name="ninesuperior" unicode="&#x2079;" horiz-adv-x="679" 
d="M438 995h-188q-66 0 -107 35q-39 37 -39 96v45h70v-36q0 -31 22 -54t58 -22h174q82 0 82 76v229l-82 -53q-37 -33 -100 -33h-95q-63 0 -104 35q-39 37 -39 92v156q0 59 39 96q41 35 109 35h198q66 0 107 -35q39 -37 39 -96v-435q0 -59 -39 -96q-41 -35 -105 -35z
M424 1628h-182q-39 0 -61 -22t-21 -54v-141q0 -31 24 -53t64 -23h84q43 0 117 33l63 29l-4 155q-2 76 -84 76z" />
    <glyph glyph-name="Euro" unicode="&#x20ac;" horiz-adv-x="1353" 
d="M905 6h-350q-139 0 -212 73t-73 210v237h-172v64h172v317h-172v64h172v215q0 137 74 211t211 73h350q137 0 211 -74t74 -210v-129h-74v129q0 104 -56 162t-155 59h-350q-99 0 -155 -58t-56 -163v-215h576v-64h-576v-317h576v-64h-576v-237q0 -105 56 -163t155 -58h350
q98 0 156 59q55 59 55 162v129h74v-129q0 -137 -73 -210t-212 -73z" />
    <glyph glyph-name="trademark" unicode="&#x2122;" horiz-adv-x="1529" 
d="M1401 750h-41v698l-252 -584h-43l-256 584v-698h-41v712h59l258 -565l254 565h62v-712zM614 1425h-219v-675h-47v675h-219v37h485v-37z" />
    <glyph glyph-name="oneeighth" unicode="&#x215b;" horiz-adv-x="1327" 
d="M1094 8h-220q-70 0 -108 35t-39 94v119q0 35 23 59q20 31 79 45q-92 49 -92 111v102q0 59 39 97q41 35 107 35h200q66 0 107 -35q39 -37 39 -97l-2 -104q0 -63 -92 -111q57 -14 79 -43q23 -25 23 -59v-119q0 -59 -39 -94t-104 -35zM268 770h-69v623l-133 -50v58l139 57
h63v-688zM924 1460l-750 -1448h-61l749 1448h62zM1157 469v94q0 76 -84 76h-182q-86 0 -86 -76v-94q0 -39 19 -57t71 -19h174q49 1 69 19t19 57zM1167 145v115q0 76 -96 76h-174q-100 0 -100 -76v-115q0 -76 84 -75h202q84 -1 84 75z" />
    <glyph glyph-name="threeeighths" unicode="&#x215c;" horiz-adv-x="1595" 
d="M1505 137q0 -59 -39 -94t-104 -35h-219q-70 0 -109 35t-39 94v119q0 35 23 59q20 31 80 45q-92 49 -92 111v102q0 59 38 97q41 35 107 35h201q66 0 106 -35q39 -37 39 -97l-2 -104q0 -63 -92 -111q104 -26 102 -102v-119zM1194 1460l-750 -1448h-61l750 1448h61zM580 899
q0 -59 -39 -96q-41 -35 -107 -35h-209q-68 0 -108 35q-39 37 -39 96v49h69l3 -41q2 -76 81 -76h197q82 0 82 76v115q0 76 -96 76h-170v57h170q86 0 88 76v94q0 76 -82 76h-178q-84 0 -84 -76v-41h-70v49q0 59 39 97q41 35 106 34h193q66 0 106 -34q39 -37 39 -97v-102
q0 -61 -86 -109q93 -34 95 -104v-119zM1425 469v94q0 76 -84 76h-182q-86 0 -86 -76v-94q-1 -39 19 -57t71 -19h174q49 1 69 19t19 57zM1436 145v115q0 76 -97 76h-174q-100 0 -100 -76v-115q0 -76 84 -75h203q84 -1 84 75z" />
    <glyph glyph-name="fiveeighths" unicode="&#x215d;" horiz-adv-x="1593" 
d="M1503 137q0 -59 -39 -94t-104 -35h-219q-70 0 -109 35t-39 94v119q0 35 23 59q20 31 80 45q-92 49 -92 111v102q0 59 38 97q41 35 107 35h201q66 0 106 -35q39 -37 39 -97l-2 -104q0 -63 -92 -111q104 -26 102 -102v-119zM1188 1458l-750 -1448h-61l749 1448h62zM434 766
h-198q-68 0 -109 35q-39 37 -39 96v51h70v-43q0 -76 82 -76h184q82 0 82 76v168q0 35 -23 55q-20 23 -61 23h-74q-61 0 -121 -31l-51 -26l-80 26v340l467 -2v-63h-399v-273l84 56q49 33 98 32h88q63 0 105 -34q39 -37 39 -93v-186q0 -59 -39 -96q-41 -35 -105 -35zM1423 469
v94q0 76 -84 76h-182q-86 0 -86 -76v-94q-1 -39 19 -57t71 -19h174q49 1 69 19t19 57zM1434 145v115q0 76 -97 76h-174q-100 0 -100 -76v-115q0 -76 84 -75h203q84 -1 84 75z" />
    <glyph glyph-name="seveneighths" unicode="&#x215e;" horiz-adv-x="1392" 
d="M59 1397v63h504v-51l-362 -637h-74l356 625h-424zM1303 256v-119q0 -59 -39 -94t-105 -35h-219q-70 0 -109 35t-38 94v119q0 35 22 59q20 31 80 45q-92 49 -92 111v102q0 59 39 97q41 35 106 35h201q66 0 106 -35q39 -37 39 -97l-2 -104q0 -63 -92 -111q103 -25 103 -102
zM989 1460l-749 -1448h-62l750 1448h61zM1135 393q88 0 88 76v94q0 76 -84 76h-183q-86 0 -86 -76v-94q0 -39 20 -57t71 -19h174zM1233 145v115q0 76 -96 76h-174q-100 0 -101 -76v-115q0 -76 84 -75h203q84 -1 84 75z" />
    <glyph glyph-name="minus" unicode="&#x2212;" horiz-adv-x="1040" 
d="M885 731h-731v53h731v-53z" />
    <glyph glyph-name="infinity" unicode="&#x221e;" horiz-adv-x="1716" 
d="M1245 381h-153q-159 0 -232 111q-73 -111 -231 -111h-152q-137 0 -211 74t-73 211v155q0 137 73 211q74 74 211 74h152q158 0 231 -111q73 111 232 111h153q137 0 211 -74t74 -211v-155q0 -137 -74 -211t-211 -74zM1456 662v159q0 105 -56 163t-155 58h-153
q-197 0 -197 -196v-209q0 -197 197 -197h153q99 0 155 59t56 163zM823 635v209q0 197 -198 196h-152q-99 0 -155 -59t-56 -162v-155q0 -104 54 -160t157 -62l152 -4q98 -2 148 48t50 149z" />
    <glyph glyph-name="notequal" unicode="&#x2260;" horiz-adv-x="1040" 
d="M885 571h-445l-118 -182h-82l118 182h-204v66h245l168 258h-413v66h456l109 167h82l-109 -167h193v-66h-236l-168 -258h404v-66z" />
    <glyph glyph-name="fi" unicode="&#xfb01;" horiz-adv-x="1220" 
d="M1036 1382h-88v127h88v-127zM1026 12h-68v1080h68v-1080zM698 1040h-356v-1028h-66v1028h-200v54h203v143q0 131 71 203q72 72 203 71h145v-53l-143 -2q-96 0 -156 -61q-59 -63 -59 -158v-143h358v-54z" />
    <glyph glyph-name="fl" unicode="&#xfb02;" horiz-adv-x="1218" 
d="M1022 12h-61v1497h61v-1497zM698 1040h-356v-1028h-66v1028h-200v54h203v143q0 131 71 203q72 72 203 71h145v-53l-143 -2q-96 0 -156 -61q-59 -63 -59 -158v-143h358v-54z" />
    <glyph glyph-name="Q.ss01" horiz-adv-x="1353" 
d="M885 6h-170v-239h-74v239h-170q-139 0 -212 73t-73 210v897q0 137 74 211t211 73h414q137 0 211 -74t73 -210v-897q1 -137 -72 -210t-212 -73zM1096 285v903q0 102 -56 162q-57 59 -155 59h-414q-99 0 -155 -59t-56 -162v-901q0 -102 55 -162q57 -59 156 -59l414 -3
q98 0 155 60q56 60 56 162z" />
    <glyph glyph-name="zero.subs" horiz-adv-x="702" 
d="M461 -150h-217q-66 0 -106 33t-40 94v437q0 61 40 94t106 33h217q65 0 105 -33t40 -94v-437q0 -61 -40 -94t-105 -33zM532 -12v420q0 32 -21 54t-60 21h-203q-39 -1 -61 -23t-21 -52l-2 -420q0 -31 21 -54t63 -22h203q39 0 60 22t21 54z" />
    <glyph glyph-name="one.subs" horiz-adv-x="399" 
d="M268 -147h-69v620l-133 -49v57l139 58h63v-686z" />
    <glyph glyph-name="two.subs" horiz-adv-x="659" 
d="M578 303q0 -40 -23 -63q0 -2 -2 -4l-2 -5l-12 -8l-19 -10q-14 -8 -18 -8l-49 -25q-6 -4 -27 -10l-193 -78q-6 -4 -17 -8t-14 -6t-7 -3q-3 -1 -7 -3t-7 -3t-5 -3q-20 -16 -20 -43v-111h424v-64h-494v185q0 43 20 63q7 10 27 23q19 12 29 15q10 4 35 16t34 16l191 78
q78 21 80 69v88q0 37 -23 58q-20 23 -61 22h-174q-88 0 -82 -75l4 -48h-68v56q0 59 39 96q41 35 107 35h188q66 0 107 -35q39 -37 39 -96v-111z" />
    <glyph glyph-name="three.subs" horiz-adv-x="667" 
d="M580 -18q0 -60 -39 -97q-41 -35 -107 -35h-209q-68 0 -108 35q-39 37 -39 97v47h69l3 -39q2 -76 81 -76h197q82 0 82 76v112q0 76 -96 76h-170v58h170q49 0 68 18t20 57v95q0 76 -82 75h-178q-84 0 -84 -75v-41h-70v49q0 59 39 96q41 35 106 35h193q66 0 106 -35
q39 -37 39 -96v-103q0 -61 -86 -108q93 -34 95 -105v-116z" />
    <glyph glyph-name="four.subs" horiz-adv-x="720" 
d="M651 18h-114v-163h-70v163h-395l-6 58l391 465h80v-461h114v-62zM467 80v375l-330 -375h330z" />
    <glyph glyph-name="five.subs" horiz-adv-x="665" 
d="M434 -152h-198q-68 0 -109 35q-39 37 -39 97v49h70v-41q0 -76 82 -76h184q82 0 82 76v166q0 35 -23 55q-20 23 -61 22h-74q-61 0 -121 -30l-51 -27l-80 27v340l467 -2v-64h-399v-272l84 55q49 33 98 33h88q63 0 105 -35q39 -37 39 -92v-184q0 -60 -39 -97
q-41 -35 -105 -35z" />
    <glyph glyph-name="six.subs" horiz-adv-x="679" 
d="M440 -156h-198q-68 0 -109 35q-39 37 -39 96v433q0 59 39 96q41 35 109 35h188q66 0 107 -35q39 -37 38 -96v-46h-69l-4 37q-10 76 -82 76h-174q-82 0 -82 -76v-221l86 58q33 31 96 30h94q63 0 105 -35q39 -37 39 -92v-164q0 -59 -39 -96q-41 -35 -105 -35zM510 -16v145
q0 76 -86 76h-84q-54 1 -86 -13q-30 -14 -58 -28l-34 -17l-2 -163q0 -31 21 -54t63 -22h182q84 0 84 76z" />
    <glyph glyph-name="seven.subs" horiz-adv-x="628" 
d="M59 477v64h504v-52l-362 -634h-74l356 622h-424z" />
    <glyph glyph-name="eight.subs" horiz-adv-x="690" 
d="M602 -20q0 -60 -39 -97q-41 -35 -104 -35h-219q-68 0 -109 35q-39 37 -39 97v116q0 35 23 60q20 31 80 45q-92 49 -93 110v103q0 59 39 96q41 35 107 35h201q63 0 104 -35q39 -37 39 -96v-105q0 -61 -92 -110q104 -26 102 -103v-116zM522 309v94q0 76 -84 76h-182
q-86 0 -86 -76v-94q0 -39 19 -57t71 -19h174q48 1 68 19t20 57zM532 -12v112q0 76 -96 76h-174q-100 0 -100 -76v-112q0 -76 84 -76h203q83 0 83 76z" />
    <glyph glyph-name="nine.subs" horiz-adv-x="679" 
d="M438 -150h-188q-66 0 -107 35q-39 37 -39 97v43h70v-35q0 -32 22 -54t58 -22h174q82 0 82 76v227l-82 -53q-37 -33 -100 -33h-95q-63 0 -104 35q-39 37 -39 92v156q0 59 39 96q41 35 109 35h198q66 0 107 -35q39 -37 39 -96v-432q0 -60 -39 -97q-41 -35 -105 -35z
M242 481q-39 -1 -61 -23t-21 -52v-142q0 -31 24 -53t64 -23h84q43 0 117 33l63 29l-4 156q-2 76 -84 75h-182z" />
    <glyph glyph-name="zero.tf" horiz-adv-x="1308" 
d="M842 6h-375q-139 0 -212 73t-73 210v897q0 137 74 211t211 73h375q137 0 211 -74t73 -210v-897q1 -137 -72 -210t-212 -73zM1053 289v897q-1 104 -57 162t-154 59h-375q-99 0 -155 -58t-56 -163v-897q0 -105 56 -163t155 -58h375q98 0 155 59q56 60 56 162z" />
    <glyph glyph-name="one.tf" horiz-adv-x="1308" 
d="M1085 12h-841v64h397v1325l-397 -101v62l385 100h86v-1386h370v-64z" />
    <glyph glyph-name="two.tf" horiz-adv-x="1308" 
d="M825 1473q285 0 285 -285v-199q0 -52 -31 -121q-5 -8 -41 -38t-50 -40q-14 -8 -26 -15q-14 -7 -19 -9t-7 -4l-559 -289q-8 -4 -51 -35q-50 -43 -52 -116v-248h838v-62h-911v310q0 54 8 74t20 44q12 16 25 27l31 27q13 14 38 26t30 16t11 5q6 2 7 4l555 289q8 4 51 34
q51 44 51 115v199q0 102 -53 161t-154 60h-319q-100 1 -154 -61t-53 -160l2 -107h-76v113q0 285 285 285h319z" />
    <glyph glyph-name="three.tf" horiz-adv-x="1308" 
d="M469 4q-285 0 -285 283v86h74q-27 -164 49 -250q51 -59 154 -60h366q99 -1 153 59t54 163v254q0 186 -213 186h-364v63h364q115 0 156 48q43 45 43 143v209q0 102 -53 162t-154 59h-334q-100 0 -153 -59t-54 -162v-86h-73v86q0 285 284 285h334q285 0 285 -285v-207
q0 -78 -37 -129t-123 -96q86 -20 132 -80t46 -137v-252q2 -283 -284 -283h-367z" />
    <glyph glyph-name="four.tf" horiz-adv-x="1308" 
d="M1180 406h-217v-394h-78v394h-785v63l740 993h123v-993h217v-63zM885 469v946l-705 -946h705z" />
    <glyph glyph-name="five.tf" horiz-adv-x="1308" 
d="M508 4q-285 0 -285 283v96h74v-96q0 -101 53 -161t154 -60h327q100 0 154 59q53 59 53 162v383q0 209 -198 209h-174q-111 0 -224 -68l-129 -78l-84 27v702h869v-63l-785 -2v-633l154 110q90 66 209 66h174q131 0 201 -70t69 -200v-383q2 -283 -284 -283h-328z" />
    <glyph glyph-name="six.tf" horiz-adv-x="1308" 
d="M1116 287q0 -283 -285 -283h-327q-285 0 -285 283v901q0 285 285 285h305q285 0 285 -285v-96h-74l-4 98q-8 221 -207 221h-305q-100 0 -154 -59t-53 -162v-463l154 111q88 63 206 63h174q285 0 285 -285v-329zM1036 287v329q0 102 -53 162t-154 60h-174q-111 0 -223 -68
l-139 -84l2 -399q0 -101 53 -161t154 -60h327q100 0 154 59q53 60 53 162z" />
    <glyph glyph-name="seven.tf" horiz-adv-x="1308" 
d="M168 1399v63h960v-41l-655 -1409h-76l647 1387h-876z" />
    <glyph glyph-name="eight.tf" horiz-adv-x="1308" 
d="M459 4q-285 0 -285 283v245q0 78 46 138t132 80q-160 82 -159 225v213q0 285 284 285h352q141 0 214 -73t71 -212l-4 -213q-2 -74 -38 -128t-122 -97q86 -20 132 -80t46 -138v-245q2 -283 -284 -283h-385zM1034 971v215q0 102 -53 162t-154 59h-352q-100 0 -153 -59
t-54 -162v-215q0 -99 39 -143t158 -44h373q119 0 155 43q41 44 41 144zM1055 285v245q0 193 -217 193l-365 -4q-119 0 -168 -48t-49 -141v-245q0 -101 53 -161t154 -61h385q100 0 154 60t53 162z" />
    <glyph glyph-name="nine.tf" horiz-adv-x="1308" 
d="M1090 287q0 -283 -285 -283h-305q-285 0 -285 283v96h74l6 -98q6 -111 55 -166t152 -56h305q99 -1 153 59t54 163v493l-154 -110q-92 -66 -211 -66h-172q-286 0 -284 285v301q0 285 284 285h328q285 0 285 -285v-901zM809 1409h-328q-100 0 -153 -59t-54 -162v-301
q0 -101 54 -161t153 -60h172q106 0 224 67l141 84l-2 371q0 102 -53 162t-154 59z" />
    <glyph glyph-name="zero.dnom" horiz-adv-x="702" 
d="M461 10h-217q-68 0 -107 33t-39 92v438q0 61 40 95t106 32h217q65 0 105 -32t40 -95v-438q0 -59 -39 -92t-106 -33zM532 145v422q0 31 -21 54t-60 22h-203q-39 -1 -61 -23t-21 -53l-2 -422q0 -31 21 -53t63 -22h203q39 0 60 22t21 53z" />
    <glyph glyph-name="one.dnom" horiz-adv-x="399" 
d="M268 12h-69v623l-133 -49v57l139 57h63v-688z" />
    <glyph glyph-name="two.dnom" horiz-adv-x="659" 
d="M156 182v-112h424v-62h-494v185q0 37 12 53t14 19q1 3 20 15t36 16q18 5 63 30l191 77q78 21 80 70v88q0 37 -23 57q-20 23 -61 23h-174q-88 0 -82 -76l4 -47h-68v55q0 59 39 97q41 35 107 35h188q66 0 107 -35q39 -37 39 -97v-110q0 -39 -23 -64l-4 -8l-12 -8l-19 -10
q-14 -8 -18 -8l-49 -25q-6 -4 -27 -10l-193 -78q-6 -4 -17 -8t-14 -6t-7 -4q-3 -2 -7 -3q-4 -2 -7 -3t-5 -3q-20 -16 -20 -43z" />
    <glyph glyph-name="three.dnom" horiz-adv-x="667" 
d="M580 139q0 -59 -39 -94t-107 -35h-209q-71 0 -109 35t-38 94v49h69l3 -41q2 -76 81 -75h197q82 0 82 75v115q0 76 -96 76h-170v57h170q86 0 88 76v94q0 76 -82 76h-178q-84 0 -84 -76v-41h-70v49q0 59 39 97q41 35 106 35h193q66 0 106 -35q39 -37 39 -97v-102
q0 -61 -86 -109q93 -34 95 -104v-119z" />
    <glyph glyph-name="four.dnom" horiz-adv-x="720" 
d="M651 178h-114v-166h-70v166h-395l-6 58l391 464h80v-460h114v-62zM467 240v374l-330 -374h330z" />
    <glyph glyph-name="five.dnom" horiz-adv-x="665" 
d="M434 8h-198q-70 0 -109 35t-39 94v51h70v-43q0 -76 82 -75h184q82 0 82 75v168q0 35 -23 56q-20 23 -61 22h-74q-61 0 -121 -31l-51 -26l-80 26v340l467 -2v-63h-399v-273l84 56q49 33 98 33h88q63 0 105 -35q39 -37 39 -92v-187q0 -59 -39 -94t-105 -35z" />
    <glyph glyph-name="six.dnom" horiz-adv-x="679" 
d="M440 10h-198q-70 0 -109 35t-39 94v434q0 59 39 97q41 35 109 35h188q66 0 107 -35q39 -37 38 -97v-45h-69l-4 37q-10 76 -82 76h-174q-82 0 -82 -76v-221l86 57q33 31 96 31h94q63 0 105 -35q39 -37 39 -92v-166q0 -59 -39 -94t-105 -35zM510 147v148q0 76 -86 76h-84
q-45 -1 -72 -11t-36 -13q-8 -3 -36 -17l-34 -17l-2 -166q0 -31 21 -53t63 -22h182q84 -1 84 75z" />
    <glyph glyph-name="seven.dnom" horiz-adv-x="628" 
d="M59 637v63h504v-51l-362 -637h-74l356 625h-424z" />
    <glyph glyph-name="eight.dnom" horiz-adv-x="690" 
d="M602 137q0 -59 -39 -94t-104 -35h-219q-70 0 -109 35t-39 94v119q0 35 23 59q20 31 80 45q-92 49 -93 111v102q0 59 39 97q41 35 107 35h201q63 0 104 -35q39 -37 39 -97v-104q0 -61 -92 -111q104 -26 102 -102v-119zM522 469v94q0 76 -84 76h-182q-86 0 -86 -76v-94
q0 -39 19 -57t71 -19h174q48 1 68 19t20 57zM532 145v115q0 76 -96 76h-174q-100 0 -100 -76v-115q0 -76 84 -75h203q83 -1 83 75z" />
    <glyph glyph-name="nine.dnom" horiz-adv-x="679" 
d="M438 10h-188q-68 0 -107 35t-39 94v45h70v-37q0 -31 22 -53t58 -22h174q82 0 82 75v230l-82 -53q-37 -33 -100 -33h-95q-63 0 -104 35q-39 37 -39 92v155q0 59 39 97q41 35 109 35h198q66 0 107 -35q39 -37 39 -97v-434q0 -59 -39 -94t-105 -35zM424 641h-182
q-39 0 -61 -23t-21 -53v-141q0 -31 24 -53t64 -23h84q43 0 117 33l63 29l-4 155q-2 76 -84 76z" />
    <glyph glyph-name="zero.numr" horiz-adv-x="702" 
d="M461 770h-217q-66 0 -106 33t-40 94v438q0 61 40 94t106 33h217q65 0 105 -33t40 -94v-438q0 -61 -40 -94t-105 -33zM532 907v422q0 31 -21 53t-60 23h-203q-39 0 -61 -23t-21 -53l-2 -422q0 -31 21 -53t63 -23h203q39 1 60 23t21 53z" />
    <glyph glyph-name="one.numr" horiz-adv-x="399" 
d="M268 772h-69v623l-133 -49v57l139 57h63v-688z" />
    <glyph glyph-name="two.numr" horiz-adv-x="659" 
d="M156 944v-113h424v-63h-494v186q0 38 12 54t14 18q1 2 21 14q19 12 29 16t35 15q25 12 34 16l191 78q78 21 80 70v88q0 37 -23 57q-20 23 -61 23h-174q-88 0 -82 -76l4 -47h-68v55q0 59 39 97q41 35 107 34h188q66 0 107 -34q39 -37 39 -97v-110q0 -39 -23 -64l-4 -8
l-12 -8l-19 -10q-14 -8 -18 -9l-49 -24q-4 -4 -27 -10l-193 -78q-6 -4 -17 -8t-14 -6t-7 -4q-3 -1 -7 -3t-7 -3t-5 -3q-20 -16 -20 -43z" />
    <glyph glyph-name="three.numr" horiz-adv-x="667" 
d="M580 901q0 -59 -39 -96q-41 -35 -107 -35h-209q-68 0 -108 35q-39 37 -39 96v49h69l3 -41q2 -76 81 -75h197q82 0 82 75v115q0 76 -96 76h-170v57h170q86 0 88 76v94q0 76 -82 76h-178q-84 0 -84 -76v-41h-70v49q0 59 39 97q41 35 106 34h193q66 0 106 -34q39 -37 39 -97
v-102q0 -61 -86 -109q93 -34 95 -104v-119z" />
    <glyph glyph-name="four.numr" horiz-adv-x="720" 
d="M651 940h-114v-166h-70v166h-395l-6 57l391 465h80v-461h114v-61zM467 1001v375l-330 -375h330z" />
    <glyph glyph-name="five.numr" horiz-adv-x="665" 
d="M434 768h-198q-68 0 -109 35q-39 37 -39 96v51h70v-43q0 -76 82 -76h184q82 0 82 76v168q0 35 -23 55q-20 23 -61 23h-74q-61 0 -121 -31l-51 -26l-80 26v340l467 -2v-63h-399v-273l84 56q49 33 98 32h88q63 0 105 -34q39 -37 39 -93v-186q0 -59 -39 -96
q-41 -35 -105 -35z" />
    <glyph glyph-name="six.numr" horiz-adv-x="679" 
d="M440 764h-198q-68 0 -109 35q-39 37 -39 96v434q0 59 39 96q41 35 109 35h188q66 0 107 -35q39 -37 38 -96v-45h-69l-4 37q-10 76 -82 76h-174q-82 0 -82 -76v-221l86 57q33 31 96 31h94q63 0 105 -35q39 -37 39 -92v-166q0 -59 -39 -96q-41 -35 -105 -35zM510 903v148
q0 76 -86 75h-84q-44 0 -71 -10q-28 -10 -37 -13q-8 -3 -36 -17l-34 -17l-2 -166q0 -31 21 -53t63 -23h182q84 0 84 76z" />
    <glyph glyph-name="seven.numr" horiz-adv-x="628" 
d="M59 1399v63h504v-51l-362 -637h-74l356 625h-424z" />
    <glyph glyph-name="eight.numr" horiz-adv-x="690" 
d="M602 899q0 -59 -39 -96q-41 -35 -104 -35h-219q-68 0 -109 35q-39 37 -39 96v119q0 35 23 59q20 31 80 45q-92 49 -93 111v102q0 59 39 97q41 35 107 34h201q63 0 104 -34q39 -37 39 -97v-104q0 -61 -92 -111q104 -26 102 -102v-119zM522 1231v94q0 76 -84 76h-182
q-86 0 -86 -76v-94q0 -39 19 -57t71 -19h174q48 1 68 19t20 57zM532 907v115q0 76 -96 76h-174q-100 0 -100 -76v-115q0 -76 84 -76h203q83 0 83 76z" />
    <glyph glyph-name="nine.numr" horiz-adv-x="679" 
d="M438 770h-188q-66 0 -107 35q-39 37 -39 96v45h70v-37q0 -31 22 -53t58 -22h174q82 0 82 75v230l-82 -54q-37 -33 -100 -32h-95q-63 0 -104 34q-39 37 -39 93v155q0 59 39 97q41 35 109 34h198q66 0 107 -34q39 -37 39 -97v-434q0 -59 -39 -96q-41 -35 -105 -35z
M424 1403h-182q-39 0 -61 -23t-21 -53v-141q0 -32 24 -54t64 -22h84q43 0 117 33l63 28l-4 156q-2 76 -84 76z" />
    <glyph glyph-name="numbersign.tf" horiz-adv-x="1308" 
d="M1231 971h-268l-119 -443h246v-51h-259l-124 -465h-64l123 465h-369l-125 -465h-63l123 465h-254v51h268l117 443h-244v51h258l117 440h65l-116 -440h368l117 440h66l-117 -440h254v-51zM897 971h-369l-118 -443h370z" />
    <glyph glyph-name="florin.tf" horiz-adv-x="1308" 
d="M1051 1399h-172q-99 -1 -155 -59t-56 -162v-304h362v-61h-362v-526q0 -127 -74 -201t-201 -74h-135v64h135q201 0 201 211v526h-322v61h322v304q0 137 74 211t211 73h172v-63z" />
    <glyph glyph-name="cent.tf" horiz-adv-x="1308" 
d="M821 219h-135v-207h-53v207h-129q-129 0 -207 78t-78 207v479q0 129 78 207t207 78h129v194h53v-194h135q129 0 207 -78t78 -207v-27h-74v23q0 103 -59 163t-148 60h-137v-919h133q98 0 156 59q55 59 55 162v26h74v-26q0 -129 -78 -207t-207 -78zM633 281v919l-129 2
q-96 2 -154 -57t-57 -164v-479q0 -104 56 -162t155 -59h129z" />
    <glyph glyph-name="currency.tf" horiz-adv-x="1308" 
d="M532 313q-102 0 -180 52l-151 -154l-49 49l151 150q-53 80 -53 188v307q0 106 51 185l-149 147l49 49l147 -149q78 53 187 53h237q109 0 189 -53l147 149l49 -49l-151 -150q51 -78 51 -180l-2 -309q0 -109 -54 -186l154 -152l-49 -49l-152 154q-78 -51 -184 -52h-238z
M983 598v307q0 101 -56 157t-155 56h-237q-209 0 -209 -213v-307q0 -102 53 -162t153 -59h240q98 0 156 59q55 60 55 162z" />
    <glyph glyph-name="dollar.tf" horiz-adv-x="1308" 
d="M840 4h-144v-174h-71v174h-146q-139 0 -212 73t-72 210v119h75v-119q0 -101 54 -161t153 -60h150v657l-142 37q-90 23 -128 38t-85 50q-43 35 -59 78t-16 118v142q0 137 73 211q74 74 211 73h142v175h71v-175h123q137 0 211 -74t74 -210v-96h-76v96q0 102 -53 162
t-154 59h-125v-627l144 -35q154 -37 219 -96q63 -53 63 -188v-174q1 -139 -71 -211t-209 -72zM272 1047q0 -115 62 -159q36 -24 56 -29t65 -17l172 -45v610l-144 -2q-98 0 -154 -59t-57 -162v-137zM1049 287v168q0 116 -52 155q-31 20 -53 33q-20 6 -36 10t-40 11l-172 43
v-641h146q100 0 154 60t53 161z" />
    <glyph glyph-name="Euro.tf" horiz-adv-x="1308" 
d="M905 6h-350q-139 0 -212 73t-73 210v237h-172v64h172v317h-172v64h172v215q0 137 74 211t211 73h350q137 0 211 -74t74 -210v-129h-74v129q0 104 -56 162t-155 59h-350q-99 0 -155 -58t-56 -163v-215h576v-64h-576v-317h576v-64h-576v-237q0 -105 56 -163t155 -58h350
q98 0 156 59q55 59 55 162v129h74v-129q0 -137 -73 -210t-212 -73z" />
    <glyph glyph-name="sterling.tf" horiz-adv-x="1308" 
d="M1151 12h-1022v64h98q70 0 70 69v537h-168v63h168v441q0 137 74 211t211 73h276q137 0 211 -74t74 -210v-131h-74v131q0 104 -56 162t-155 59h-276q-98 0 -154 -58t-57 -163v-441h491v-63h-491v-606h780v-64z" />
    <glyph glyph-name="yen.tf" horiz-adv-x="1308" 
d="M1049 643v-63h-359v-172h359v-64h-359v-332h-74v332h-356v64h356v172h-356v63h324l-486 819h88l467 -809l467 809h88l-485 -819h326z" />
    </font>
</defs>
</svg>
