<?xml version="1.0" standalone="no"?>
<!DOCTYPE svg PUBLIC "-//W3C//DTD SVG 1.1//EN" "http://www.w3.org/Graphics/SVG/1.1/DTD/svg11.dtd" >
<svg xmlns="http://www.w3.org/2000/svg">
<metadata>
Created by FontPrep 20130207 at Wed Jan 13 07:20:24 2016
 By Matthew Higley
Copyright A~A^A~A^(c) 2013 by Mattox Shuler. All rights reserved.
</metadata>
<defs>
<font id="d059cdcebab298b90e97a681ea91b266" horiz-adv-x='1024' >
  <font-face 
    font-family="Industry-Demi"
    font-weight="600"
    font-stretch="normal"
    units-per-em="2048"
    panose-1="0 0 0 0 0 0 0 0 0 0"
    ascent="1620"
    descent="-428"
    x-height="1106"
    cap-height="1475"
    bbox="-305 -678 1946 1972"
    underline-thickness="102"
    underline-position="-100"
    unicode-range="U+0020-FB02"
  />
<missing-glyph horiz-adv-x="849" 
 />
    <glyph glyph-name=".notdef" horiz-adv-x="849" 
 />
    <glyph glyph-name=".null" horiz-adv-x="0" 
 />
    <glyph glyph-name="nonmarkingreturn" horiz-adv-x="681" 
 />
    <glyph glyph-name="space" unicode=" " horiz-adv-x="540" 
 />
    <glyph glyph-name="exclam" unicode="!" horiz-adv-x="579" 
d="M414 0h-248v264h248v-264zM371 467h-162l-55 1008h272z" />
    <glyph glyph-name="quotedbl" unicode="&#x22;" horiz-adv-x="880" 
d="M760 1475l-68 -506h-125l-67 506h260zM381 1475l-66 -506h-127l-67 506h260z" />
    <glyph glyph-name="numbersign" unicode="#" horiz-adv-x="1599" 
d="M1020 899h-348l-92 -299h348zM1382 600v-219h-292l-119 -381h-230l119 381h-348l-119 -381h-229l117 381h-205v219h272l94 299h-225v219h293l111 357h229l-111 -357h348l111 357h232l-111 -357h205v-219h-273l-94 -299h225z" />
    <glyph glyph-name="dollar" unicode="$" horiz-adv-x="1282" 
d="M717 215h86q47 -1 71 27t25 75l-2 168q0 49 -20 67t-74 32l-86 20v-389zM375 1006q0 -50 22 -68t76 -33l76 -18v366l-80 -2q-45 1 -70 -27t-24 -73v-145zM1149 524v-241q0 -133 -79 -212t-214 -79h-121v-195h-200v195h-113q-133 0 -212 79t-79 212v174h240v-138
q0 -45 24 -73q25 -27 72 -27h82v426l-123 29q-295 68 -295 295v221q0 133 80 213t213 80h111v194h200v-194h99q133 0 213 -80t79 -213v-156h-241v119q0 47 -25 75t-67 27h-70v-405l131 -31q295 -68 295 -295z" />
    <glyph glyph-name="percent" unicode="%" horiz-adv-x="1284" 
d="M1061 158v241q0 39 -31 39h-119q-35 0 -34 -39v-241q0 -39 34 -39h119q31 0 31 39zM870 565h197q55 0 92 -37t37 -92v-311q0 -55 -36 -91t-93 -36h-197q-57 0 -93 36t-36 91v311q0 55 37 92t92 37zM410 1075v242q0 39 -31 39h-119q-35 0 -35 -39v-242q0 -39 35 -39h119
q31 0 31 39zM1090 1475l-701 -1475h-201l703 1475h199zM219 1483h197q55 0 92 -37t37 -92v-312q0 -55 -37 -92t-92 -37h-197q-55 0 -92 37t-37 92v312q0 55 37 92t92 37z" />
    <glyph glyph-name="ampersand" unicode="&#x26;" horiz-adv-x="1347" 
d="M891 641h-406q-117 0 -116 -96v-232q0 -100 96 -100h330q47 0 71 27t25 73v328zM1137 281q0 -133 -79 -212t-212 -79h-428q-135 0 -214 79t-79 212v249q0 76 40 134t109 90q-131 76 -131 221v213q0 133 80 213t213 80h355q133 0 213 -80t79 -213v-137h-245v104
q0 45 -25 73t-70 27h-256q-45 1 -69 -27t-25 -73v-194q0 -51 23 -74t78 -23h804v-219l-161 -4v-360z" />
    <glyph glyph-name="quotesingle" unicode="'" horiz-adv-x="503" 
d="M381 1475l-66 -506h-127l-67 506h260z" />
    <glyph glyph-name="parenleft" unicode="(" horiz-adv-x="770" 
d="M651 1374h-133q-96 0 -96 -98v-1163q0 -98 96 -99h131v-229h-180q-131 0 -211 80t-80 211v1237q0 133 80 213t213 80h180v-232z" />
    <glyph glyph-name="parenright" unicode=")" horiz-adv-x="770" 
d="M344 1274q0 96 -94 96l-133 4v232h182q131 0 211 -80t80 -213v-1237q0 -131 -80 -211t-211 -80h-182v229h133q94 0 94 97v1163z" />
    <glyph glyph-name="asterisk" unicode="*" horiz-adv-x="847" 
d="M719 868l-160 -116l-137 274l-133 -272l-162 114l217 215l-301 45l59 189l273 -143l-49 301h196l-49 -301l268 141l64 -189l-303 -45z" />
    <glyph glyph-name="plus" unicode="+" horiz-adv-x="1040" 
d="M416 373v280h-295v209h295v281h209v-281h295v-209h-295v-280h-209z" />
    <glyph glyph-name="comma" unicode="," horiz-adv-x="493" 
d="M373 266v-203q0 -55 -90 -182l-101 -145h-106l145 264h-100v266h252z" />
    <glyph glyph-name="hyphen" unicode="-" horiz-adv-x="919" 
d="M807 786v-223h-694v223h694z" />
    <glyph glyph-name="period" unicode="." horiz-adv-x="493" 
d="M373 0h-252v266h252v-266z" />
    <glyph glyph-name="slash" unicode="/" horiz-adv-x="1030" 
d="M995 1618l-725 -1759h-235l725 1759h235z" />
    <glyph glyph-name="zero" unicode="0" horiz-adv-x="1300" 
d="M479 1249q-94 0 -94 -96v-831q0 -47 25 -72t69 -25h342q45 0 70 25t24 72v831q0 47 -24 72q-25 25 -70 24h-342zM870 -6h-440q-133 0 -212 79t-79 212v905q0 133 80 213t211 80h440q131 0 211 -80t80 -213v-905q0 -133 -79 -212t-212 -79z" />
    <glyph glyph-name="one" unicode="1" horiz-adv-x="800" 
d="M352 0v1219l-262 -97v209l309 144h199v-1475h-246z" />
    <glyph glyph-name="two" unicode="2" horiz-adv-x="1234" 
d="M143 1036v152q0 125 84 209t209 84h391q127 0 210 -83t83 -210v-244q0 -115 -72 -177t-221 -120l-354 -139q-27 -10 -38 -18t-37 -24q-27 -16 -27 -60v-179h757v-229h-1003v451q0 121 88 186q49 35 87 54t120 52l356 140q64 26 82 47q18 20 19 51v156q0 51 -28 81t-75 29
h-289q-49 1 -79 -29t-27 -79l4 -101h-240z" />
    <glyph glyph-name="three" unicode="3" horiz-adv-x="1245" 
d="M449 217h311q49 0 78 29t28 78v215q0 104 -125 104h-305v219h305q59 0 85 22t26 85v178q0 51 -28 79t-74 27h-279q-47 1 -75 -27t-27 -79v-103h-246v142q0 125 84 209t209 84h389q125 0 209 -84t84 -209v-211q0 -145 -131 -221q73 -31 111 -88t38 -131v-248
q0 -125 -83 -208t-210 -83h-422q-127 0 -209 83t-83 208v141h245l-12 -104q0 -49 29 -78t78 -29z" />
    <glyph glyph-name="four" unicode="4" horiz-adv-x="1306" 
d="M801 539v581l-447 -581h447zM1249 319h-209v-319h-239v319h-705l-41 187l762 969h223v-936h209v-220z" />
    <glyph glyph-name="five" unicode="5" horiz-adv-x="1267" 
d="M682 958h158q127 0 210 -82t83 -208v-383q0 -127 -82 -209t-211 -82h-416q-129 0 -211 82t-82 209v145h246v-102q0 -106 102 -107h309q102 0 103 107v305q0 53 -28 81t-75 27h-118q-113 0 -209 -57l-66 -39l-245 74v756h956v-232l-719 -4v-436l66 53q125 102 229 102z
" />
    <glyph glyph-name="six" unicode="6" horiz-adv-x="1280" 
d="M377 326q0 -106 102 -107h309q102 0 103 107v266q0 51 -28 79t-75 27h-137q-115 0 -211 -57l-63 -39v-276zM481 1249q-102 0 -102 -106v-377l63 53q119 100 230 101h172q131 0 214 -83t83 -210v-340q0 -127 -82 -209t-211 -82h-416q-129 0 -211 82t-82 209v901
q0 125 84 209t213 84h400q124 0 208 -84t84 -209v-129h-245l-9 82q0 53 -28 81t-74 27h-291z" />
    <glyph glyph-name="seven" unicode="7" horiz-adv-x="1165" 
d="M80 1243v232h1026v-183l-684 -1292h-266l657 1243h-733z" />
    <glyph glyph-name="eight" unicode="8" horiz-adv-x="1275" 
d="M766 641h-287q-123 0 -123 -106v-213q0 -51 28 -79t75 -28h325q49 0 78 29t29 78v213q0 106 -125 106zM776 1251h-299q-47 1 -75 -27t-27 -79v-180q-1 -59 25 -81t83 -22h285q59 0 85 22t26 81v180q0 51 -28 79t-75 27zM1145 530v-245q0 -125 -83 -208t-210 -83h-434
q-129 0 -211 82t-82 209v245q0 76 40 134t109 90q-131 76 -131 221v213q0 125 84 209t213 84h402q125 0 212 -87t81 -206l-9 -217q-6 -150 -131 -221q150 -65 150 -220z" />
    <glyph glyph-name="nine" unicode="9" horiz-adv-x="1280" 
d="M477 1251q-104 0 -102 -106v-252q0 -106 106 -107h135q119 0 211 58l64 39l-2 262q0 106 -105 106h-307zM786 223q104 0 105 107v391l-64 -53q-121 -102 -227 -103h-176q-125 0 -208 83t-83 210v330q0 125 84 209t209 84h418q125 0 209 -84t84 -209v-901q0 -125 -83 -208
t-210 -83h-400q-128 0 -210 83t-82 208v129h245l-4 -86q-6 -106 105 -107h288z" />
    <glyph glyph-name="colon" unicode=":" horiz-adv-x="493" 
d="M373 0h-252v266h252v-266zM373 840h-252v266h252v-266z" />
    <glyph glyph-name="semicolon" unicode=";" horiz-adv-x="493" 
d="M373 840h-252v266h252v-266zM373 266v-203q0 -55 -90 -182l-101 -145h-106l145 264h-100v266h252z" />
    <glyph glyph-name="less" unicode="&#x3c;" horiz-adv-x="1040" 
d="M113 645v197l790 360v-213l-569 -246l569 -243v-213z" />
    <glyph glyph-name="equal" unicode="=" horiz-adv-x="1040" 
d="M920 676v-219h-799v219h799zM920 1075v-219h-799v219h799z" />
    <glyph glyph-name="greater" unicode="&#x3e;" horiz-adv-x="1040" 
d="M707 743l-570 246v213l791 -360v-197l-791 -358v213z" />
    <glyph glyph-name="question" unicode="?" horiz-adv-x="1150" 
d="M602 270v-270h-246v270h246zM336 1483h434q131 0 211 -80t80 -213v-215q0 -66 -39 -113l-23 -28q-8 -12 -30 -31l-33 -25q-8 -8 -39 -26l-39 -25q-10 -7 -43 -25t-43 -24l-123 -70q-45 -28 -45 -63v-125h-246v164q0 61 39 108l25 31q10 14 31 29l34 26q5 4 19 12t30 20
q16 11 33 19l45 27q6 4 23 12t22 13l70 43q78 49 86 63t8 35v133q0 47 -24 72q-25 25 -70 24h-344q-96 0 -96 -98v-121h-246v158q0 133 80 213t213 80z" />
    <glyph glyph-name="at" unicode="@" horiz-adv-x="1970" 
d="M913 844h-43q-100 0 -100 -105v-336q0 -104 100 -104h43q94 0 168 47l80 51v348l-80 52q-74 47 -168 47zM467 1483h1034q131 0 211 -80t80 -213v-782q0 -133 -80 -213t-211 -80h-299l-41 147l-86 -74q-94 -82 -192 -82h-54q-131 0 -211 80t-79 213v344q0 133 79 213
q80 80 211 80h54q98 0 192 -82l86 -73l41 147h191v-778h108q117 0 117 158v798q0 115 -109 115h-1052q-109 0 -109 -115v-1263q0 -115 109 -115h1048v-162h-1040q-131 0 -211 80t-80 213v1231q0 133 80 213t213 80z" />
    <glyph glyph-name="A" unicode="A" horiz-adv-x="1353" 
d="M864 596l-188 610l-193 -610h381zM936 365h-524l-115 -365h-254l492 1475h284l494 -1475h-266z" />
    <glyph glyph-name="B" unicode="B" horiz-adv-x="1333" 
d="M956 547q0 51 -28 73t-92 21h-420v-418l446 -2q45 0 70 27t24 74v225zM942 956v189q0 47 -24 74q-25 27 -70 26h-430v-383l424 -2q60 0 80 18t20 78zM1188 1180v-207q0 -145 -131 -221q149 -64 149 -220v-239q0 -133 -80 -213t-211 -80h-741v1475l723 -2q131 0 211 -80
t80 -213z" />
    <glyph glyph-name="C" unicode="C" horiz-adv-x="1282" 
d="M479 1247q-94 0 -94 -96v-832q0 -47 25 -71t69 -25h350q96 0 97 99v172h245v-209q-1 -133 -79 -212t-213 -79l-449 -4q-133 0 -212 79t-79 212v905q0 133 80 213t211 80h449q133 0 213 -80t79 -213v-209h-245v172q0 98 -97 98h-350z" />
    <glyph glyph-name="D" unicode="D" horiz-adv-x="1351" 
d="M967 332v815q0 47 -25 72t-70 24h-452v-1012l452 5q95 0 95 96zM174 1475h748q131 0 211 -80t79 -213v-889q0 -133 -80 -213t-210 -80h-748v1475z" />
    <glyph glyph-name="E" unicode="E" horiz-adv-x="1222" 
d="M174 1475h944v-232h-698v-375h575v-229h-575v-408h698v-231h-944v1475z" />
    <glyph glyph-name="F" unicode="F" horiz-adv-x="1185" 
d="M174 0v1475h944v-232h-698v-387h575v-231h-575v-625h-246z" />
    <glyph glyph-name="G" unicode="G" horiz-adv-x="1320" 
d="M479 1247q-94 0 -94 -96v-834q0 -45 25 -69t69 -25h367q96 0 96 99v258h-305v223h551v-518q0 -133 -79 -212t-214 -79h-465q-133 0 -212 79t-79 212v905q0 133 80 213t211 80h465q133 0 213 -80t80 -213v-172h-246v131q0 98 -96 98h-367z" />
    <glyph glyph-name="H" unicode="H" horiz-adv-x="1421" 
d="M174 0v1475h246v-607h581v607h246v-1475h-246v639h-581v-639h-246z" />
    <glyph glyph-name="I" unicode="I" horiz-adv-x="591" 
d="M174 0v1475h246v-1475h-246z" />
    <glyph glyph-name="J" unicode="J" horiz-adv-x="1206" 
d="M1055 1475v-1190q0 -133 -79 -212t-212 -79h-406q-133 0 -212 79t-78 212v290h245v-253q0 -47 25 -72t70 -25h307q94 0 94 97v1153h246z" />
    <glyph glyph-name="K" unicode="K" horiz-adv-x="1363" 
d="M416 0h-242v1475h242v-756l585 756h293l-475 -590l504 -885h-279l-389 684l-239 -299v-385z" />
    <glyph glyph-name="L" unicode="L" horiz-adv-x="1136" 
d="M174 1475h246v-1244h647v-231h-893v1475z" />
    <glyph glyph-name="M" unicode="M" horiz-adv-x="1728" 
d="M1554 1475v-1475h-231v1077l-367 -841h-186l-364 841v-1077h-232v1475h275l413 -932l416 932h276z" />
    <glyph glyph-name="N" unicode="N" horiz-adv-x="1456" 
d="M1055 1475h229v-1475h-270l-611 1100v-1100h-229v1475h270l611 -1098v1098z" />
    <glyph glyph-name="O" unicode="O" horiz-adv-x="1335" 
d="M479 1249q-94 0 -94 -96v-836q0 -47 25 -71t69 -25h377q96 0 96 98v832q0 98 -96 98h-377zM905 -6h-475q-133 0 -212 79t-79 212v905q0 133 80 213t211 80h475q131 0 211 -80t80 -213v-905q0 -133 -79 -212t-212 -79z" />
    <glyph glyph-name="P" unicode="P" horiz-adv-x="1286" 
d="M952 1147q0 47 -24 72q-25 25 -70 24h-438v-473l438 4q45 0 70 25t24 71v277zM174 1475h733q131 0 211 -80t80 -213v-351q0 -133 -80 -213t-211 -79h-487v-539h-246v1475z" />
    <glyph glyph-name="Q" unicode="Q" horiz-adv-x="1341" 
d="M477 1247q-94 0 -94 -96v-832q0 -47 25 -71t69 -25h197l-94 244h198l94 -246q82 8 82 98v832q0 47 -24 72q-25 25 -70 24h-383zM430 1483h479q131 0 211 -80t80 -213v-905q0 -121 -64 -198t-171 -89l75 -195h-198l-76 191h-336q-133 0 -212 79t-79 212v905q0 133 80 213
t211 80z" />
    <glyph glyph-name="R" unicode="R" horiz-adv-x="1335" 
d="M950 1147q0 47 -24 72q-25 25 -70 24h-436v-446l436 4q96 0 94 96v250zM420 569v-569h-246v1475h731q131 0 211 -80t80 -213v-322q0 -114 -58 -190t-165 -95l268 -575h-264l-266 569h-291z" />
    <glyph glyph-name="S" unicode="S" horiz-adv-x="1282" 
d="M471 1251q-45 1 -70 -27t-24 -73v-145q0 -50 22 -68t76 -33l381 -86q295 -68 295 -295v-241q0 -133 -79 -212t-214 -79h-434q-133 0 -212 79t-79 212v174h240v-138q0 -45 24 -73q25 -27 72 -27h340q47 0 72 28t24 75v163q0 47 -21 69t-75 34l-381 84q-295 66 -295 295
v223q0 133 80 213t213 80h410q133 0 213 -80t79 -213v-156h-241l-6 115q-8 104 -93 102h-317z" />
    <glyph glyph-name="T" unicode="T" horiz-adv-x="1165" 
d="M1108 1247h-403v-1247h-246v1247h-404v228h1053v-228z" />
    <glyph glyph-name="U" unicode="U" horiz-adv-x="1337" 
d="M1188 1475v-1192q0 -133 -79 -212t-214 -79h-453q-133 0 -212 79t-78 212v1190h245v-1154q0 -47 25 -71t70 -25h354q96 0 96 99v1153h246z" />
    <glyph glyph-name="V" unicode="V" horiz-adv-x="1302" 
d="M1257 1475l-462 -1475h-287l-463 1475h277l329 -1184l338 1184h268z" />
    <glyph glyph-name="W" unicode="W" horiz-adv-x="1857" 
d="M1434 0h-238l-262 1057l-264 -1057h-246l-379 1475h262l242 -1143l285 1143h200l283 -1143l242 1143h253z" />
    <glyph glyph-name="X" unicode="X" horiz-adv-x="1282" 
d="M958 0l-329 535l-324 -535h-266l455 754l-443 721h287l315 -512l310 512h268l-443 -734l455 -741h-285z" />
    <glyph glyph-name="Y" unicode="Y" horiz-adv-x="1230" 
d="M737 0h-245v522l-474 953h273l323 -678l326 678h270l-473 -953v-522z" />
    <glyph glyph-name="Z" unicode="Z" horiz-adv-x="1222" 
d="M139 1247v228h981v-187l-708 -1061h704v-227h-1014v186l711 1061h-674z" />
    <glyph glyph-name="bracketleft" unicode="[" horiz-adv-x="761" 
d="M424 1374v-1360h219v-229h-465v1821h465v-232h-219z" />
    <glyph glyph-name="backslash" unicode="\" horiz-adv-x="1030" 
d="M995 -141h-235l-725 1759h235z" />
    <glyph glyph-name="bracketright" unicode="]" horiz-adv-x="761" 
d="M117 1606h465v-1821h-465v229h219v1360h-219v232z" />
    <glyph glyph-name="asciicircum" unicode="^" horiz-adv-x="1318" 
d="M530 1475h258l381 -758h-243l-267 530l-266 -530h-243z" />
    <glyph glyph-name="underscore" unicode="_" horiz-adv-x="1165" 
d="M1153 -88v-211h-1141v211h1141z" />
    <glyph glyph-name="grave" unicode="`" horiz-adv-x="978" 
d="M725 1610h-176l-293 295h285z" />
    <glyph glyph-name="a" unicode="a" horiz-adv-x="1116" 
d="M322 303q0 -45 24 -74q25 -27 70 -26h67q106 0 203 57l64 39v203l-336 2q-43 0 -68 -28t-24 -68v-105zM418 1114h274q125 0 209 -84t84 -209v-821h-235v145l-64 -53q-117 -98 -221 -98h-92q-127 0 -206 79t-79 206v104q0 131 78 209t209 78h51q147 0 326 -37v184
q0 43 -25 70t-65 26h-209q-43 -1 -68 -27t-25 -69v-35h-235v39q0 125 84 209t209 84z" />
    <glyph glyph-name="b" unicode="b" 
d="M815 301v500q-1 47 -25 73t-67 27h-72q-119 0 -211 -57l-63 -39v-508l63 -39q92 -57 211 -57h72q43 0 68 26q24 27 24 74zM670 1114h92q127 0 207 -80t80 -207v-548q0 -127 -79 -206t-206 -79h-94q-113 0 -230 98l-63 53v-145h-236v1542h236v-581l63 53q119 100 230 100z
" />
    <glyph glyph-name="c" unicode="c" horiz-adv-x="1089" 
d="M106 274v549q0 127 80 207t207 80h312q127 0 207 -80t79 -207v-106h-233v96q0 39 -25 67t-65 27h-232q-44 -1 -68 -25t-24 -67v-528q0 -43 25 -68t67 -24h232q42 -1 66 27t24 67v96h233v-106q-1 -127 -77 -204t-207 -81l-316 -4q-125 -2 -205 78t-80 206z" />
    <glyph glyph-name="d" unicode="d" 
d="M508 907h-72q-46 1 -70 -27t-24 -73v-504q0 -45 25 -73t69 -27h72q113 0 209 57l65 39v508l-65 43q-88 57 -209 57zM1018 0h-236v145l-65 -53q-121 -98 -228 -98h-94q-127 0 -206 79t-78 206v548q0 127 79 207q80 80 207 80h95q104 0 227 -100l65 -53v581h234v-1542z" />
    <glyph glyph-name="e" unicode="e" horiz-adv-x="1103" 
d="M670 915h-238q-44 -1 -68 -25t-24 -67v-166h422v166q0 43 -24 67t-68 25zM670 193q44 1 68 25t24 67v65h235v-71q-1 -127 -79 -206t-205 -79h-320q-127 0 -206 79t-78 206v548q0 127 79 207q80 80 207 80h320q127 0 207 -80t79 -207v-342h-657l-4 -200q0 -43 25 -68
t67 -24h238z" />
    <glyph glyph-name="f" unicode="f" horiz-adv-x="796" 
d="M758 1341h-195q-41 1 -65 -27t-25 -69v-139h285v-195h-283v-911h-235v911h-185v195h185v149q0 127 79 207q80 80 207 80h232v-201z" />
    <glyph glyph-name="g" unicode="g" 
d="M508 903h-72q-46 1 -70 -27t-24 -73v-434q0 -41 25 -69t67 -28h72q102 0 209 60l65 37v438l-63 39q-96 57 -209 57zM729 -399h-301q-127 0 -207 80t-80 206v47h228v-38q-1 -51 27 -79t75 -28h209q47 0 75 28t27 79v321l-65 -53q-123 -100 -228 -101h-94q-125 0 -205 80
t-79 207v477q0 127 79 207q80 80 207 80h95q104 0 227 -100l65 -53v145h234l-4 -1219q0 -127 -80 -207t-205 -79z" />
    <glyph glyph-name="h" unicode="h" 
d="M797 0v803q0 45 -25 73t-70 27h-51q-119 0 -211 -57l-63 -39v-807h-236v1542h236v-581l63 53q119 100 230 100h75q127 0 207 -80t80 -207v-827h-235z" />
    <glyph glyph-name="i" unicode="i" horiz-adv-x="526" 
d="M381 1106v-1106h-236v1106h236zM389 1305h-252v237h252v-237z" />
    <glyph glyph-name="j" unicode="j" horiz-adv-x="534" 
d="M387 1106v-1227q0 -125 -80 -205t-205 -80h-172v205h133q41 0 66 27t25 68v1212h233zM397 1305h-254v237h254v-237z" />
    <glyph glyph-name="k" unicode="k" horiz-adv-x="1136" 
d="M375 0h-234v1475h234v-910l418 541h288l-370 -432l395 -674h-254l-291 500l-186 -219v-281z" />
    <glyph glyph-name="l" unicode="l" horiz-adv-x="520" 
d="M143 1542h234v-1542h-234v1542z" />
    <glyph glyph-name="m" unicode="m" horiz-adv-x="1740" 
d="M1620 823v-825h-236v803q0 47 -24 73t-70 27h-18q-115 0 -209 -57l-66 -39v-805h-233v803q0 45 -25 73t-67 27h-19q-119 0 -211 -57l-63 -39v-807h-236v1106h236v-145l63 53q119 100 230 100h41q94 0 165 -46t99 -128l86 74q118 100 229 100l41 -4q127 0 207 -80t80 -207
z" />
    <glyph glyph-name="n" unicode="n" 
d="M797 0v803q0 45 -25 73t-70 27h-51q-119 0 -211 -57l-63 -39v-807h-236v1106h236v-145l63 53q119 100 230 100h75q127 0 207 -80t80 -207v-827h-235z" />
    <glyph glyph-name="o" unicode="o" horiz-adv-x="1124" 
d="M778 289v528q0 43 -24 70q-25 27 -68 26h-252q-44 -1 -68 -27t-24 -69v-528q0 -43 25 -70t67 -26h252q43 0 68 26q24 27 24 70zM395 1114h332q127 0 207 -80t80 -207v-548q0 -127 -79 -206t-208 -79h-334q-127 0 -206 79t-78 206v548q0 127 79 207q80 80 207 80z" />
    <glyph glyph-name="p" unicode="p" 
d="M815 301v500q-1 47 -25 73t-67 27h-72q-119 0 -211 -57l-63 -39v-508l63 -39q92 -57 211 -57h72q43 0 68 26q24 27 24 74zM670 1114h92q127 0 207 -80t80 -207v-548q0 -127 -79 -206t-206 -79h-94q-113 0 -230 98l-63 53v-536h-236v1497h236v-145l63 53q119 100 230 100z
" />
    <glyph glyph-name="q" unicode="q" 
d="M342 807v-504q0 -45 25 -73t69 -27h72q113 0 209 57l65 39v508l-65 39q-84 51 -209 57l-72 4q-43 2 -69 -26q-25 -29 -25 -74zM395 1114h92q104 0 228 -100l65 -53v145h234v-1497h-234v536l-65 -53q-121 -98 -228 -98h-94q-127 0 -206 79t-78 206v548q0 127 79 207
q80 80 207 80z" />
    <glyph glyph-name="r" unicode="r" horiz-adv-x="843" 
d="M793 897h-142q-111 0 -211 -59l-63 -37v-801h-236v1106h236v-145l63 53q119 100 230 100h123v-217z" />
    <glyph glyph-name="s" unicode="s" horiz-adv-x="1071" 
d="M717 772v57q0 92 -86 93h-201q-86 0 -86 -93v-63q0 -66 82 -78l311 -51q240 -39 240 -240v-127q0 -126 -77 -202t-202 -76h-323q-127 0 -204 77t-77 201v80h234v-67q0 -92 86 -93h243q86 0 86 93v77q0 68 -84 80l-311 52q-240 41 -239 239v103q-1 124 77 202t203 78h283
q122 0 200 -78t78 -202v-62h-233z" />
    <glyph glyph-name="t" unicode="t" horiz-adv-x="860" 
d="M465 911v-612q1 -43 25 -70t67 -26h231v-203h-272q-127 0 -207 80t-80 207v624h-180v195h184v369h228v-369h327v-195h-323z" />
    <glyph glyph-name="u" unicode="u" 
d="M508 203q115 0 211 57l63 39v807h236v-1106h-236v145l-63 -53q-117 -98 -230 -98h-75q-127 0 -206 79t-79 206v827h236l-3 -803q0 -45 25 -73t70 -27h51z" />
    <glyph glyph-name="v" unicode="v" horiz-adv-x="1052" 
d="M1018 1106l-359 -1106h-266l-358 1106h252l245 -901l248 901h238z" />
    <glyph glyph-name="w" unicode="w" horiz-adv-x="1579" 
d="M1221 0h-242l-182 768l-183 -768h-241l-338 1106h244l215 -877l198 877h211l199 -877l217 877h227z" />
    <glyph glyph-name="x" unicode="x" horiz-adv-x="1056" 
d="M764 0l-248 377l-240 -377h-243l358 567l-354 539h258l240 -365l231 365h246l-353 -555l365 -551h-260z" />
    <glyph glyph-name="y" unicode="y" horiz-adv-x="1067" 
d="M1032 1106l-516 -1497h-221l133 391l-393 1106h233l260 -811l277 811h227z" />
    <glyph glyph-name="z" unicode="z" horiz-adv-x="968" 
d="M92 903v203h797v-160l-529 -743h535v-203h-823v162l528 741h-508z" />
    <glyph glyph-name="braceleft" unicode="{" horiz-adv-x="886" 
d="M541 1276v-377q0 -131 -123 -199q123 -70 123 -196v-391q0 -98 96 -99h131v-229h-180q-133 0 -213 80t-80 211v424q0 98 -94 98h-105v211h105q94 0 94 98v406q0 133 80 213t213 80h180v-232h-131q-96 0 -96 -98z" />
    <glyph glyph-name="bar" unicode="|" horiz-adv-x="686" 
d="M233 1612h220v-2052h-220v2052z" />
    <glyph glyph-name="braceright" unicode="}" horiz-adv-x="886" 
d="M117 1378v232h182q131 0 211 -80t80 -213v-406q0 -98 96 -98h102v-211h-102q-96 0 -96 -98v-424q0 -131 -80 -211t-211 -80h-182v229h133q94 0 94 97v391q0 125 123 196q-121 68 -121 199l-2 377q0 45 -25 73t-69 27h-133z" />
    <glyph glyph-name="asciitilde" unicode="~" horiz-adv-x="1040" 
d="M330 641l-43 -104h-140l72 202q31 84 125 64l363 -86l43 100h143l-76 -205q-31 -84 -123 -61z" />
    <glyph glyph-name="exclamdown" unicode="&#xa1;" horiz-adv-x="579" 
d="M209 639h162l55 -1006h-272zM166 1106h248v-264h-248v264z" />
    <glyph glyph-name="cent" unicode="&#xa2;" horiz-adv-x="1173" 
d="M344 967v-459q0 -47 27 -74t73 -26h60v663l-60 -4q-100 -8 -100 -100zM676 1071v-663h53q47 0 72 28t24 74v86h226v-109q0 -131 -80 -211t-213 -79h-66v-197h-200v197h-76q-131 -1 -211 79t-80 213v504q0 133 80 213t213 80h76v187h200v-187h66q133 0 213 -80t80 -211
v-108h-226l-4 82q-8 102 -94 102h-53z" />
    <glyph glyph-name="sterling" unicode="&#xa3;" horiz-adv-x="1282" 
d="M1167 231v-229h-1108v231h107q61 0 61 62v307h-168v225h168v363q0 137 80 215q82 78 217 78h342q137 0 215 -78t78 -215v-178h-246v143q0 47 -24 72q-25 25 -70 24h-250q-96 0 -96 -98v-328h344v-225h-344v-369h694z" />
    <glyph glyph-name="currency" unicode="&#xa4;" horiz-adv-x="1234" 
d="M510 1001q-45 1 -70 -27t-24 -73v-299q0 -45 24 -74q25 -27 72 -26h211q47 0 71 28t25 74l-4 295q-1 47 -25 75t-69 27h-211zM1034 915v-323q0 -61 -22 -123l166 -166l-148 -147l-168 168q-47 -20 -119 -21h-251q-72 0 -119 21l-168 -168l-148 147l166 166
q-23 61 -22 123v323q0 63 20 119l-164 164l148 148l162 -162q59 20 125 20h251q66 0 125 -20l162 162l148 -148l-164 -164q20 -56 20 -119z" />
    <glyph glyph-name="yen" unicode="&#xa5;" horiz-adv-x="1230" 
d="M1063 692v-137h-311l-15 -27v-75h326v-138h-326v-315h-245v315h-324v138h324v75l-13 27h-311v137h242l-392 783h273l323 -672l326 672h270l-391 -783h244z" />
    <glyph glyph-name="brokenbar" unicode="&#xa6;" horiz-adv-x="686" 
d="M453 -440h-220v809h220v-809zM233 1612h220v-811h-220v811z" />
    <glyph glyph-name="section" unicode="&#xa7;" horiz-adv-x="1097" 
d="M758 707q0 68 -86 81l-258 43q-68 -6 -68 -96v-135q0 -72 86 -86l256 -45q33 2 51 31t19 67v140zM645 1282h-196q-88 0 -89 -94v-78q0 -74 86 -86l308 -49q100 -13 169 -79t68 -159v-170q0 -109 -86 -194q72 -72 72 -148v-139q0 -123 -78 -201t-203 -78h-313
q-125 0 -203 78t-78 201v80h230v-60q0 -44 24 -68t68 -24h238q86 0 86 95v86q0 70 -86 81l-306 50q-100 14 -169 80t-68 157v160q0 117 92 201q-78 74 -78 151v127q0 125 78 203t203 78h272q125 0 203 -78t78 -203v-57h-230l-4 45q-1 44 -25 68t-63 24z" />
    <glyph glyph-name="dieresis" unicode="&#xa8;" horiz-adv-x="1310" 
d="M961 1618h-220v237h220v-237zM569 1618h-219v237h219v-237z" />
    <glyph glyph-name="copyright" unicode="&#xa9;" horiz-adv-x="1734" 
d="M733 1200h256q101 0 157 -57t56 -160v-123h-184v96q0 68 -64 68h-190q-61 0 -62 -68v-442q0 -68 62 -68h190q63 0 64 68v96h184v-123q0 -102 -55 -159t-156 -58h-258q-101 0 -159 58t-58 159v496q0 102 57 160q58 57 160 57zM1262 1333h-801q-66 0 -99 -39t-32 -104v-905
q0 -63 34 -103t99 -41h801q66 1 100 41t33 103l-4 905q0 66 -33 104t-98 39zM467 1483h799q133 0 213 -80t80 -213v-905q0 -133 -79 -212t-214 -79h-801q-133 0 -212 79t-79 212v905q0 133 80 213t213 80z" />
    <glyph glyph-name="ordfeminine" unicode="&#xaa;" horiz-adv-x="786" 
d="M688 637v-139h-573v139h573zM530 1077h-217q-57 0 -57 -59v-64q0 -59 59 -59h52q63 0 116 31l47 26v125zM309 1479h187q82 1 137 -55t55 -138v-532h-158v98l-53 -51q-53 -53 -125 -53h-67q-82 0 -134 52t-53 134v70q0 86 49 135t136 49h30q113 0 215 -25v105q0 31 -18 49
t-45 18h-125q-66 0 -66 -67v-13h-155v31q0 82 55 138t135 55z" />
    <glyph glyph-name="guillemotleft" unicode="&#xab;" horiz-adv-x="1011" 
d="M956 1145l-297 -426l297 -424h-245l-262 375v98l262 377h245zM547 1145l-297 -426l297 -424h-246l-262 375v98l262 377h246z" />
    <glyph glyph-name="registered" unicode="&#xae;" horiz-adv-x="839" 
d="M336 1124h143q25 0 25 25v84q0 27 -25 27h-143v-136zM334 1059v-178h-72v446h221q86 0 88 -88l2 -92q0 -84 -75 -90l82 -176h-76l-82 178h-88zM584 1413h-348q-36 0 -50 -20t-14 -43v-498q0 -20 15 -42t51 -22h360q34 0 50 22t16 42l-5 500q0 25 -18 43t-57 18zM731 1352
v-498q0 -53 -39 -92t-92 -39h-360q-53 0 -93 39q-39 39 -38 92v498q0 53 38 92q40 39 93 39l348 -2q63 0 103 -37t40 -92z" />
    <glyph glyph-name="macron" unicode="&#xaf;" horiz-adv-x="1243" 
d="M887 1825v-195h-553v195h553z" />
    <glyph glyph-name="degree" unicode="&#xb0;" horiz-adv-x="665" 
d="M238 1354v-189q0 -25 24 -24h141q25 0 25 24v189q0 25 -25 24h-141q-24 1 -24 -24zM436 1040h-207q-45 0 -75 31t-31 76v229q0 45 31 76t75 31h207q45 0 76 -31t31 -76v-229q0 -45 -31 -76t-76 -31z" />
    <glyph glyph-name="plusminus" unicode="&#xb1;" horiz-adv-x="1040" 
d="M121 397h799v-204h-799v204zM416 506v282h-295v207h295v281h209v-281h295v-207h-295v-282h-209z" />
    <glyph glyph-name="twosuperior" unicode="&#xb2;" horiz-adv-x="718" 
d="M238 1503v-43h-162v86q0 64 48 110t122 46h243q70 0 120 -46t50 -112v-141q0 -102 -170 -156l-206 -63q-50 -4 -52 -39v-74h431v-160h-599v275q0 102 170 155l207 64q50 4 52 39v59q0 39 -50 39h-153q-51 0 -51 -39z" />
    <glyph glyph-name="threesuperior" unicode="&#xb3;" horiz-adv-x="720" 
d="M270 1061h162q51 0 51 39v98q0 39 -59 39h-166v147h166q29 0 40 8t11 33v80q0 39 -49 39h-143q-51 0 -52 -39v-49h-168v86q0 63 50 111q51 47 120 47h236q74 0 122 -45t48 -111v-114q0 -74 -74 -117q84 -41 84 -117v-131q0 -66 -48 -111t-122 -45h-256q-68 0 -119 47
q-49 47 -49 111v86h168l-2 -53q0 -39 49 -39z" />
    <glyph glyph-name="acute" unicode="&#xb4;" horiz-adv-x="974" 
d="M430 1610h-178l184 295h285z" />
    <glyph glyph-name="paragraph" unicode="&#xb6;" horiz-adv-x="1628" 
d="M1454 0h-246v1243h-168v-1243h-245v547h-392q-133 0 -213 80t-79 213v342q0 133 79 213q80 80 213 80h1051v-1475z" />
    <glyph glyph-name="periodcentered" unicode="&#xb7;" horiz-adv-x="499" 
d="M375 547h-250v266h250v-266z" />
    <glyph glyph-name="cedilla" unicode="&#xb8;" horiz-adv-x="1157" 
d="M625 -311q31 0 30 39v20q0 39 -30 39h-240l102 213h140l-52 -100h60q82 0 128 -40t46 -112v-20q0 -74 -45 -113t-125 -39h-190l-107 113h283z" />
    <glyph glyph-name="onesuperior" unicode="&#xb9;" horiz-adv-x="477" 
d="M203 915v613l-158 -49v139l193 84h133v-787h-168z" />
    <glyph glyph-name="ordmasculine" unicode="&#xba;" horiz-adv-x="788" 
d="M674 635v-139h-559v139h559zM532 950v320q0 63 -57 63h-164q-55 0 -55 -63v-320q0 -59 55 -59h164q25 0 41 16t16 43zM690 1290v-356q0 -82 -52 -134t-136 -52h-215q-82 0 -135 53t-54 135v356q0 80 54 134t135 53l215 -2q82 1 135 -53t53 -134z" />
    <glyph glyph-name="guillemotright" unicode="&#xbb;" horiz-adv-x="1011" 
d="M961 768v-98l-263 -375h-245l297 424l-297 426h245zM553 768v-98l-262 -375h-246l297 424l-297 426h246z" />
    <glyph glyph-name="onequarter" unicode="&#xbc;" horiz-adv-x="1546" 
d="M1212 301v236l-223 -236h223zM1499 152h-121v-152h-166v152h-395l-35 127l451 507h145v-485h121v-149zM1169 1475l-823 -1475h-176l823 1475h176zM203 690v613l-158 -50v140l193 84h133v-787h-168z" />
    <glyph glyph-name="onehalf" unicode="&#xbd;" horiz-adv-x="1583" 
d="M938 547v86q0 63 48 109t122 46h242q70 0 120 -46t50 -111v-142q0 -104 -172 -155l-244 -76q-10 -6 -10 -25v-73h428v-160h-598v274q0 102 172 156l204 64q50 4 52 38v60q0 39 -49 39h-154q-25 0 -38 -9t-11 -30l2 -45h-164zM1169 1475l-823 -1475h-176l823 1475h176z
M203 690v613l-158 -50v140l193 84h133v-787h-168z" />
    <glyph glyph-name="threequarters" unicode="&#xbe;" horiz-adv-x="1789" 
d="M1454 297v235l-223 -235h223zM1741 147h-121v-149h-166v149h-395l-35 127l451 508h145v-485h121v-150zM1411 1470l-823 -1472h-176l823 1472h176zM432 836q51 0 51 38v99q0 39 -59 39h-166v147h166q29 0 40 8t11 33v80q0 39 -49 39h-143q-51 0 -52 -39v-49h-168v86
q0 63 50 110q51 47 120 48h236q74 0 122 -45t48 -111v-115q0 -74 -74 -117q84 -41 84 -116v-131q0 -66 -48 -111t-122 -45h-256q-68 0 -119 47q-49 47 -49 111v86h168l-2 -54q0 -39 49 -38h162z" />
    <glyph glyph-name="questiondown" unicode="&#xbf;" horiz-adv-x="1150" 
d="M766 -141q96 0 94 96v119h246v-156q0 -133 -78 -211t-213 -82l-446 -6q-129 -2 -210 79t-81 214v213q0 89 72 155t188 123l106 60q63 36 80 57q16 20 17 37v125h245v-164q0 -63 -38 -106l-25 -29q-10 -14 -31 -29l-33 -24q-50 -38 -77 -51l-160 -95q-2 -2 -13 -8t-65 -41
q-18 -18 -18 -33v-145q0 -98 96 -98h344zM541 836v270h245v-270h-245z" />
    <glyph glyph-name="Agrave" unicode="&#xc0;" horiz-adv-x="1353" 
d="M864 596l-188 610l-193 -610h381zM936 365h-524l-115 -365h-254l492 1475h284l494 -1475h-266zM629 1610l-291 295h285l184 -295h-178z" />
    <glyph glyph-name="Aacute" unicode="&#xc1;" horiz-adv-x="1353" 
d="M719 1610h-178l184 295h285zM864 596l-188 610l-193 -610h381zM936 365h-524l-115 -365h-254l492 1475h284l494 -1475h-266z" />
    <glyph glyph-name="Acircumflex" unicode="&#xc2;" horiz-adv-x="1353" 
d="M864 596l-188 610l-193 -610h381zM936 365h-524l-115 -365h-254l492 1475h284l494 -1475h-266zM489 1610h-190l268 260h213l271 -260h-191l-186 145z" />
    <glyph glyph-name="Atilde" unicode="&#xc3;" horiz-adv-x="1353" 
d="M864 596l-188 610l-193 -610h381zM936 365h-524l-115 -365h-254l492 1475h284l494 -1475h-266zM494 1610h-125l41 194q18 86 120 56l293 -93l39 95h127l-45 -197q-18 -86 -119 -53l-295 96z" />
    <glyph glyph-name="Adieresis" unicode="&#xc4;" horiz-adv-x="1353" 
d="M864 596l-188 610l-193 -610h381zM936 365h-524l-115 -365h-254l492 1475h284l494 -1475h-266zM981 1618h-221v237h221v-237zM588 1618h-219v237h219v-237z" />
    <glyph glyph-name="Aring" unicode="&#xc5;" horiz-adv-x="1353" 
d="M860 592l-188 610l-193 -610h381zM932 360h-524l-115 -362h-254l491 1472h285l494 -1472h-267zM584 1831v-109q0 -25 24 -24h123q25 0 25 24v109q0 25 -25 24h-123q-24 1 -24 -24zM483 1880q0 28 23 50t49 22h236q29 0 51 -22t20 -48v-203q0 -29 -20 -49t-49 -20l-240 -4
q-27 0 -48 21t-22 50v203z" />
    <glyph glyph-name="AE" unicode="&#xc6;" horiz-adv-x="2048" 
d="M993 596v645h-100l-313 -645h413zM1239 1243v-366h588v-232h-588v-414h707v-231h-953v365h-526l-178 -365h-277l746 1475h1188v-232h-707z" />
    <glyph glyph-name="Ccedilla" unicode="&#xc7;" horiz-adv-x="1282" 
d="M475 1247q-94 0 -94 -96v-832q0 -47 25 -71t69 -25h350q96 0 97 99v172h245v-209q0 -133 -79 -212t-214 -79h-151l-47 -94h61q82 0 128 -40t46 -112v-20q0 -74 -45 -113t-125 -39h-190l-102 113h280q20 0 27 8q6 8 6 31v20q0 23 -6 31t-27 8h-237l98 207h-160
q-133 0 -212 79t-79 212v905q0 133 80 213t211 80h449q133 0 213 -80t79 -213v-209h-245l-4 168q-4 98 -97 98h-350z" />
    <glyph glyph-name="Egrave" unicode="&#xc8;" horiz-adv-x="1222" 
d="M776 1610h-178l-291 295h285zM1118 1475v-232h-698v-375h575v-229h-575v-408h698v-231h-944v1475h944z" />
    <glyph glyph-name="Eacute" unicode="&#xc9;" horiz-adv-x="1222" 
d="M174 1475h944v-232h-698v-375h575v-229h-575v-408h698v-231h-944v1475zM686 1610h-176l184 295h285z" />
    <glyph glyph-name="Ecircumflex" unicode="&#xca;" horiz-adv-x="1222" 
d="M1118 1475v-232h-698v-375h575v-229h-575v-408h698v-231h-944v1475h944zM643 1755l-184 -145h-191l269 260h213l268 -260h-191z" />
    <glyph glyph-name="Edieresis" unicode="&#xcb;" horiz-adv-x="1222" 
d="M948 1618h-219v237h219v-237zM557 1618h-219v237h219v-237zM174 1475h944v-232h-698v-375h575v-229h-575v-408h698v-231h-944v1475z" />
    <glyph glyph-name="Igrave" unicode="&#xcc;" horiz-adv-x="591" 
d="M426 1610h-178l-289 295h283zM174 1475h246v-1475h-246v1475z" />
    <glyph glyph-name="Iacute" unicode="&#xcd;" horiz-adv-x="591" 
d="M338 1610h-178l184 295h285zM174 0v1475h246v-1475h-246z" />
    <glyph glyph-name="Icircumflex" unicode="&#xce;" horiz-adv-x="591" 
d="M293 1755l-184 -145h-189l266 260h213l271 -260h-191zM174 1475h246v-1475h-246v1475z" />
    <glyph glyph-name="Idieresis" unicode="&#xcf;" horiz-adv-x="591" 
d="M174 0v1475h246v-1475h-246zM600 1618h-221v237h221v-237zM207 1618h-217v237h217v-237z" />
    <glyph glyph-name="Eth" unicode="&#xd0;" horiz-adv-x="1331" 
d="M956 330v815q0 98 -96 98h-452v-379h159v-241h-159v-392h452q96 1 96 99zM162 1475h747q131 0 211 -80t80 -213v-889q0 -133 -80 -213t-211 -80h-747v623h-158v241h158v611z" />
    <glyph glyph-name="Ntilde" unicode="&#xd1;" horiz-adv-x="1456" 
d="M586 1708l-37 -98h-125l41 194q18 86 121 56l293 -93l39 95h126l-45 -197q-18 -86 -118 -53zM1284 1475v-1475h-270l-611 1100v-1100h-229v1475h270l611 -1098v1098h229z" />
    <glyph glyph-name="Ograve" unicode="&#xd2;" horiz-adv-x="1335" 
d="M799 1610h-178l-291 295h284zM430 -6q-133 0 -212 79t-79 212v905q0 133 80 213t211 80h475q131 0 211 -80t80 -213v-905q0 -133 -79 -212t-212 -79h-475zM479 1249q-94 0 -94 -96v-836q0 -47 25 -71t69 -25h377q96 0 96 98v832q0 98 -96 98h-377z" />
    <glyph glyph-name="Oacute" unicode="&#xd3;" horiz-adv-x="1335" 
d="M711 1606h-179l185 295h284zM479 1249q-94 0 -94 -96v-836q0 -47 25 -71t69 -25h377q96 0 96 98v832q0 98 -96 98h-377zM905 -6h-475q-133 0 -212 79t-79 212v905q0 133 80 213t211 80h475q131 0 211 -80t80 -213v-905q0 -133 -79 -212t-212 -79z" />
    <glyph glyph-name="Ocircumflex" unicode="&#xd4;" horiz-adv-x="1335" 
d="M666 1755l-185 -145h-190l268 260h213l270 -260h-190zM430 -6q-133 0 -212 79t-79 212v905q0 133 80 213t211 80h475q131 0 211 -80t80 -213v-905q0 -133 -79 -212t-212 -79h-475zM479 1249q-94 0 -94 -96v-836q0 -47 25 -71t69 -25h377q96 0 96 98v832q0 98 -96 98h-377
z" />
    <glyph glyph-name="Otilde" unicode="&#xd5;" horiz-adv-x="1335" 
d="M522 1708l-37 -98h-125l41 194q18 86 121 56l293 -93l39 95h127l-45 -197q-18 -86 -119 -53zM430 -6q-133 0 -212 79t-79 212v905q0 133 80 213t211 80h475q131 0 211 -80t80 -213v-905q0 -133 -79 -212t-212 -79h-475zM479 1249q-94 0 -94 -96v-836q0 -47 25 -71t69 -25
h377q96 0 96 98v832q0 98 -96 98h-377z" />
    <glyph glyph-name="Odieresis" unicode="&#xd6;" horiz-adv-x="1335" 
d="M479 1249q-94 0 -94 -96v-836q0 -47 25 -71t69 -25h377q96 0 96 98v832q0 98 -96 98h-377zM905 -6h-475q-133 0 -212 79t-79 212v905q0 133 80 213t211 80h475q131 0 211 -80t80 -213v-905q0 -133 -79 -212t-212 -79zM973 1618h-221v237h221v-237zM580 1618h-220v237h220
v-237z" />
    <glyph glyph-name="multiply" unicode="&#xd7;" horiz-adv-x="1040" 
d="M662 684l239 -242l-139 -139l-240 240l-241 -242l-140 141l240 240l-240 242l140 139l239 -240l242 242l139 -141z" />
    <glyph glyph-name="Oslash" unicode="&#xd8;" horiz-adv-x="1341" 
d="M532 223l330 2q45 0 70 25t24 72v765zM385 1151v-748l414 846l-320 -2q-94 0 -94 -96zM430 1483h481q131 0 211 -80t80 -213v-905q0 -133 -79 -212t-212 -79h-481q-133 0 -212 79t-79 212v905q0 133 80 213t211 80z" />
    <glyph glyph-name="Ugrave" unicode="&#xd9;" horiz-adv-x="1337" 
d="M799 1610h-178l-291 295h284zM1188 283q0 -133 -79 -212t-214 -79h-453q-133 0 -212 79t-78 212v1190h245v-1154q0 -47 25 -71t70 -25h354q96 0 96 99v1153h246v-1192z" />
    <glyph glyph-name="Uacute" unicode="&#xda;" horiz-adv-x="1337" 
d="M711 1608h-179l185 295h284zM1188 1475v-1192q0 -133 -79 -212t-214 -79h-453q-133 0 -212 79t-78 212v1190h245v-1154q0 -47 25 -71t70 -25h354q96 0 96 99v1153h246z" />
    <glyph glyph-name="Ucircumflex" unicode="&#xdb;" horiz-adv-x="1337" 
d="M666 1755l-185 -145h-190l268 260h213l270 -260h-190zM1188 283q0 -133 -79 -212t-214 -79h-453q-133 0 -212 79t-78 212v1190h245v-1154q0 -47 25 -71t70 -25h354q96 0 96 99v1153h246v-1192z" />
    <glyph glyph-name="Udieresis" unicode="&#xdc;" horiz-adv-x="1337" 
d="M1188 1475v-1192q0 -133 -79 -212t-214 -79h-453q-133 0 -212 79t-78 212v1190h245v-1154q0 -47 25 -71t70 -25h354q96 0 96 99v1153h246zM973 1618h-221v237h221v-237zM580 1618h-220v237h220v-237z" />
    <glyph glyph-name="Yacute" unicode="&#xdd;" horiz-adv-x="1230" 
d="M737 0h-245v522l-474 953h273l323 -678l326 678h270l-473 -953v-522zM655 1610h-176l185 295h284z" />
    <glyph glyph-name="Thorn" unicode="&#xde;" horiz-adv-x="1286" 
d="M952 883q0 96 -94 96h-438v-465l438 4q45 0 70 25t24 71v269zM420 1475v-265h487q131 0 211 -80t80 -212v-343q0 -133 -80 -213t-211 -79h-487v-283h-246v1475h246z" />
    <glyph glyph-name="germandbls" unicode="&#xdf;" horiz-adv-x="1155" 
d="M1053 283q0 -127 -79 -206t-206 -79h-266v203h223q41 1 66 27t24 67v266q0 90 -106 90h-193v199h189q53 0 73 20t21 74v238q0 38 -25 66t-65 28h-248q-43 0 -68 -25t-24 -67v-1184h-236v1196q0 127 80 207t207 80h332q126 0 206 -80t80 -207l-2 -229q0 -139 -131 -215
q147 -66 148 -217v-252z" />
    <glyph glyph-name="agrave" unicode="&#xe0;" horiz-adv-x="1116" 
d="M690 1253h-178l-291 295h285zM692 1114q125 0 209 -84t84 -209v-821h-235v145l-64 -53q-117 -98 -221 -98h-92q-127 0 -206 79t-79 206v104q0 131 78 209t209 78h51q147 0 326 -37v184q0 43 -25 70t-65 26h-209q-43 -1 -68 -27t-25 -69v-35h-235v39q0 125 84 209t209 84
h274zM322 303q0 -45 24 -74q25 -27 70 -26h67q106 0 203 57l64 39v203l-336 2q-43 0 -68 -28t-24 -68v-105z" />
    <glyph glyph-name="aacute" unicode="&#xe1;" horiz-adv-x="1116" 
d="M600 1255h-178l184 295h285zM322 303q0 -45 24 -74q25 -27 70 -26h67q106 0 203 57l64 39v203l-336 2q-43 0 -68 -28t-24 -68v-105zM418 1114h274q125 0 209 -84t84 -209v-821h-235v145l-64 -53q-117 -98 -221 -98h-92q-127 0 -206 79t-79 206v104q0 131 78 209t209 78
h51q147 0 326 -37v184q0 43 -25 70t-65 26h-209q-43 -1 -68 -27t-25 -69v-35h-235v39q0 125 84 209t209 84z" />
    <glyph glyph-name="acircumflex" unicode="&#xe2;" horiz-adv-x="1116" 
d="M557 1399l-184 -146h-191l269 260h213l270 -260h-191zM692 1114q125 0 209 -84t84 -209v-821h-235v145l-64 -53q-117 -98 -221 -98h-92q-127 0 -206 79t-79 206v104q0 131 78 209t209 78h51q147 0 326 -37v184q0 43 -25 70t-65 26h-209q-43 -1 -68 -27t-25 -69v-35h-235
v39q0 125 84 209t209 84h274zM322 303q0 -45 24 -74q25 -27 70 -26h67q106 0 203 57l64 39v203l-336 2q-43 0 -68 -28t-24 -68v-105z" />
    <glyph glyph-name="atilde" unicode="&#xe3;" horiz-adv-x="1116" 
d="M414 1352l-37 -99h-125l41 195q18 86 121 55l293 -92l38 94h127l-45 -196q-18 -86 -118 -54zM692 1114q125 0 209 -84t84 -209v-821h-235v145l-64 -53q-117 -98 -221 -98h-92q-127 0 -206 79t-79 206v104q0 131 78 209t209 78h51q147 0 326 -37v184q0 43 -25 70t-65 26
h-209q-43 -1 -68 -27t-25 -69v-35h-235v39q0 125 84 209t209 84h274zM322 303q0 -45 24 -74q25 -27 70 -26h67q106 0 203 57l64 39v203l-336 2q-43 0 -68 -28t-24 -68v-105z" />
    <glyph glyph-name="adieresis" unicode="&#xe4;" horiz-adv-x="1116" 
d="M322 303q0 -45 24 -74q25 -27 70 -26h67q106 0 203 57l64 39v203l-336 2q-43 0 -68 -28t-24 -68v-105zM418 1114h274q125 0 209 -84t84 -209v-821h-235v145l-64 -53q-117 -98 -221 -98h-92q-127 0 -206 79t-79 206v104q0 131 78 209t209 78h51q147 0 326 -37v184
q0 43 -25 70t-65 26h-209q-43 -1 -68 -27t-25 -69v-35h-235v39q0 125 84 209t209 84zM864 1262h-221v237h221v-237zM471 1262h-219v237h219v-237z" />
    <glyph glyph-name="aring" unicode="&#xe5;" horiz-adv-x="1116" 
d="M317 403v-104q0 -45 25 -73t70 -27h67q106 0 203 57l63 39v203l-335 2q-43 0 -68 -27t-25 -70zM414 1110h274q125 0 209 -84t84 -209v-819h-236v143l-63 -53q-117 -98 -221 -98h-92q-127 0 -206 79t-79 205v105q0 131 78 209t209 78h51q147 0 326 -37v184q0 43 -25 70
t-66 26h-208q-43 -1 -68 -27t-25 -69v-35h-235v39q0 125 84 209t209 84zM467 1475v-109q0 -25 25 -25h122q25 0 25 25v109q0 25 -25 24h-122q-25 1 -25 -24zM367 1321v203q1 28 23 50t48 21h236q28 1 50 -21t21 -48v-203q0 -29 -20 -49t-49 -21l-240 -4q-27 -1 -48 21
t-21 51z" />
    <glyph glyph-name="ae" unicode="&#xe6;" horiz-adv-x="1751" 
d="M754 489h-344q-43 -1 -68 -25t-25 -69v-102q0 -47 25 -74t70 -26h82q98 0 184 49l76 43v204zM987 801v-158h426v158q-1 43 -25 71t-67 29l-242 -4q-43 0 -67 -27t-25 -69zM989 479v-188q0 -41 25 -69t67 -27h238q43 1 67 29t25 71v59h231v-78q0 -128 -78 -206t-208 -78
h-316q-96 0 -166 45t-100 129l-106 -96q-88 -78 -191 -78h-102q-127 0 -206 79t-79 205v105q0 131 78 209t209 78h49q162 0 332 -37v166q0 51 -28 79t-75 27h-198q-47 0 -75 -28t-28 -78v-19h-231v43q0 125 84 209t209 84h282q96 0 172 -57q76 57 174 57h316q127 0 207 -80
t80 -207v-348h-658z" />
    <glyph glyph-name="ccedilla" unicode="&#xe7;" horiz-adv-x="1089" 
d="M430 907q-43 -1 -68 -25t-24 -67v-528q0 -43 24 -68t68 -24h232q42 -1 66 27t24 67v96h233v-106q0 -127 -79 -206t-206 -79h-86l-47 -94h60q82 0 128 -40t46 -112v-20q0 -74 -45 -113t-125 -39h-191l-102 113h283q31 0 30 39v20q0 39 -30 39h-238l98 207h-88
q-127 0 -206 79t-78 206v548q0 127 79 207q80 80 207 80h312q127 0 207 -80t79 -207v-106h-233l-8 92q0 39 -25 67t-65 27h-232z" />
    <glyph glyph-name="egrave" unicode="&#xe8;" horiz-adv-x="1103" 
d="M670 915h-238q-44 -1 -68 -25t-24 -67v-166h422v166q0 43 -24 67t-68 25zM670 193q44 1 68 25t24 67v65h235v-71q-1 -127 -79 -206t-205 -79h-320q-127 0 -206 79t-78 206v548q0 127 79 207q80 80 207 80h320q127 0 207 -80t79 -207v-342h-657l-4 -200q0 -43 25 -68
t67 -24h238zM508 1253l-291 295h285l184 -295h-178z" />
    <glyph glyph-name="eacute" unicode="&#xe9;" horiz-adv-x="1103" 
d="M670 915h-238q-44 -1 -68 -25t-24 -67v-166h422v166q0 43 -24 67t-68 25zM670 193q44 1 68 25t24 67v65h235v-71q-1 -127 -79 -206t-205 -79h-320q-127 0 -206 79t-78 206v548q0 127 79 207q80 80 207 80h320q127 0 207 -80t79 -207v-342h-657l-4 -200q0 -43 25 -68
t67 -24h238zM596 1253h-176l184 295h285z" />
    <glyph glyph-name="ecircumflex" unicode="&#xea;" horiz-adv-x="1103" 
d="M670 915h-238q-44 -1 -68 -25t-24 -67v-166h422v166q0 43 -24 67t-68 25zM670 193q44 1 68 25t24 67v65h235v-71q-1 -127 -79 -206t-205 -79h-320q-127 0 -206 79t-78 206v548q0 127 79 207q80 80 207 80h320q127 0 207 -80t79 -207v-342h-657l-4 -200q0 -43 25 -68
t67 -24h238zM369 1253h-191l268 260h213l269 -260h-191l-184 146z" />
    <glyph glyph-name="edieresis" unicode="&#xeb;" horiz-adv-x="1103" 
d="M854 1262h-219v237h219v-237zM463 1262h-219v237h219v-237zM670 915h-238q-44 -1 -68 -25t-24 -67v-166h422v166q0 43 -24 67t-68 25zM670 193q44 1 68 25t24 67v65h235v-71q-1 -127 -79 -206t-205 -79h-320q-127 0 -206 79t-78 206v548q0 127 79 207q80 80 207 80h320
q127 0 207 -80t79 -207v-342h-657l-4 -200q0 -43 25 -68t67 -24h238z" />
    <glyph glyph-name="igrave" unicode="&#xec;" horiz-adv-x="540" 
d="M416 1253h-178l-289 295h282zM387 0h-233v1106h233v-1106z" />
    <glyph glyph-name="iacute" unicode="&#xed;" horiz-adv-x="540" 
d="M387 1106v-1106h-233v1106h233zM301 1253h-176l184 295h285z" />
    <glyph glyph-name="icircumflex" unicode="&#xee;" horiz-adv-x="540" 
d="M270 1399l-184 -146h-188l266 260h213l268 -260h-190zM387 0h-233v1106h233v-1106z" />
    <glyph glyph-name="idieresis" unicode="&#xef;" horiz-adv-x="540" 
d="M389 1106v-1106h-233v1106h233zM575 1255h-219v238h219v-238zM184 1255h-217v238h217v-238z" />
    <glyph glyph-name="eth" unicode="&#xf0;" horiz-adv-x="1126" 
d="M502 831h-70q-44 -1 -68 -27t-24 -69v-434q0 -43 25 -70t67 -26h256q41 -1 66 27t24 69v436l-67 35q-113 59 -209 59zM1014 1051v-772q0 -127 -79 -206t-206 -79h-336q-127 0 -206 79t-78 206v473q-1 126 79 206t207 80h94q111 0 230 -100l63 -53v166q0 65 -22 89t-74 42
l-113 39l-92 -93h-205l148 146l-174 59v150l307 -76l98 96h205l-145 -133q163 -47 231 -117t68 -202z" />
    <glyph glyph-name="ntilde" unicode="&#xf1;" 
d="M446 1352l-36 -99h-125l41 195q18 86 120 55l293 -92l39 94h129l-45 -196q-18 -86 -119 -54zM797 803q0 45 -25 73t-70 27h-51q-119 0 -211 -57l-63 -39v-807h-236v1106h236v-145l63 53q119 100 230 100h75q127 0 207 -80t80 -207v-827h-235v803z" />
    <glyph glyph-name="ograve" unicode="&#xf2;" horiz-adv-x="1124" 
d="M694 1253h-178l-291 295h285zM727 1114q127 0 207 -80t80 -207v-548q0 -127 -79 -206t-208 -79h-334q-127 0 -206 79t-78 206v548q0 127 79 207q80 80 207 80h332zM778 817q0 43 -24 70q-25 27 -68 26h-252q-44 -1 -68 -27t-24 -69v-528q0 -43 25 -70t67 -26h252
q43 1 68 27t24 69v528z" />
    <glyph glyph-name="oacute" unicode="&#xf3;" horiz-adv-x="1124" 
d="M778 289v528q0 43 -24 70q-25 27 -68 26h-252q-44 -1 -68 -27t-24 -69v-528q0 -43 25 -70t67 -26h252q43 0 68 26q24 27 24 70zM395 1114h332q127 0 207 -80t80 -207v-548q0 -127 -79 -206t-208 -79h-334q-127 0 -206 79t-78 206v548q0 127 79 207q80 80 207 80z
M604 1253h-176l184 295h285z" />
    <glyph glyph-name="ocircumflex" unicode="&#xf4;" horiz-adv-x="1124" 
d="M727 1114q127 0 207 -80t80 -207v-548q0 -127 -79 -206t-208 -79h-334q-127 0 -206 79t-78 206v548q0 127 79 207q80 80 207 80h332zM778 817q0 43 -24 70q-25 27 -68 26h-252q-44 -1 -68 -27t-24 -69v-528q0 -43 25 -70t67 -26h252q43 1 68 27t24 69v528zM559 1399
l-184 -146h-191l269 260h213l268 -260h-191z" />
    <glyph glyph-name="otilde" unicode="&#xf5;" horiz-adv-x="1124" 
d="M416 1352l-37 -99h-123l41 195q18 90 121 55l291 -92l39 94h129l-46 -196q-18 -86 -118 -54zM727 1114q127 0 207 -80t80 -207v-548q0 -127 -79 -206t-208 -79h-334q-127 0 -206 79t-78 206v548q0 127 79 207q80 80 207 80h332zM778 817q0 43 -24 70q-25 27 -68 26h-252
q-44 -1 -68 -27t-24 -69v-528q0 -43 25 -70t67 -26h252q43 1 68 27t24 69v528z" />
    <glyph glyph-name="odieresis" unicode="&#xf6;" horiz-adv-x="1124" 
d="M864 1262h-219v237h219v-237zM473 1262h-219v237h219v-237zM778 289v528q0 43 -24 70q-25 27 -68 26h-252q-44 -1 -68 -27t-24 -69v-528q0 -43 25 -70t67 -26h252q43 0 68 26q24 27 24 70zM395 1114h332q127 0 207 -80t80 -207v-548q0 -127 -79 -206t-208 -79h-334
q-127 0 -206 79t-78 206v548q0 127 79 207q80 80 207 80z" />
    <glyph glyph-name="divide" unicode="&#xf7;" horiz-adv-x="1040" 
d="M641 248h-242v248h242v-248zM94 870h852v-225h-852v225zM641 1020h-242v248h242v-248z" />
    <glyph glyph-name="oslash" unicode="&#xf8;" horiz-adv-x="1130" 
d="M688 203q45 -1 70 27t24 73v504l-2 20l-295 -624h203zM430 905q-43 -1 -68 -27t-24 -73v-522l295 622h-203zM395 1114h336q127 0 207 -80t80 -207v-548q0 -127 -79 -206t-206 -79h-340q-127 0 -206 79t-78 206v548q0 127 79 207q80 80 207 80z" />
    <glyph glyph-name="ugrave" unicode="&#xf9;" 
d="M705 1253h-179l-290 295h284zM508 203q115 0 211 57l63 39v807h236v-1106h-236v145l-63 -53q-117 -98 -230 -98h-75q-127 0 -206 79t-79 206v827h236l-3 -803q0 -45 25 -73t70 -27h51z" />
    <glyph glyph-name="uacute" unicode="&#xfa;" 
d="M614 1255h-178l185 295h284zM508 203q115 0 211 57l63 39v807h236v-1106h-236v145l-63 -53q-117 -98 -230 -98h-75q-127 0 -206 79t-79 206v827h236l-3 -803q0 -45 25 -73t70 -27h51z" />
    <glyph glyph-name="ucircumflex" unicode="&#xfb;" 
d="M571 1399l-184 -146h-190l268 260h213l270 -260h-190zM508 203q115 0 211 57l63 39v807h236v-1106h-236v145l-63 -53q-117 -98 -230 -98h-75q-127 0 -206 79t-79 206v827h236l-3 -803q0 -45 25 -73t70 -27h51z" />
    <glyph glyph-name="udieresis" unicode="&#xfc;" 
d="M508 203q115 0 211 57l63 39v807h236v-1106h-236v145l-63 -53q-117 -98 -230 -98h-75q-127 0 -206 79t-79 206v827h236l-3 -803q0 -45 25 -73t70 -27h51zM879 1262h-222v237h222v-237zM485 1262h-219v237h219v-237z" />
    <glyph glyph-name="yacute" unicode="&#xfd;" horiz-adv-x="1067" 
d="M578 1253h-179l185 295h284zM1032 1106l-516 -1497h-221l133 391l-393 1106h233l260 -811l277 811h227z" />
    <glyph glyph-name="thorn" unicode="&#xfe;" 
d="M815 301v500q-1 47 -25 73t-67 27h-72q-119 0 -211 -57l-63 -39v-508l63 -39q92 -57 211 -57h72q43 0 68 26q24 27 24 74zM670 1114h92q127 0 207 -80t80 -207v-548q0 -127 -79 -206t-206 -79h-94q-113 0 -230 98l-63 53v-536h-236v1933h236v-581l63 53q119 100 230 100z
" />
    <glyph glyph-name="ydieresis" unicode="&#xff;" horiz-adv-x="1067" 
d="M1032 1106l-516 -1497h-221l133 391l-393 1106h233l260 -811l277 811h227zM840 1262h-219v237h219v-237zM449 1262h-222v237h222v-237z" />
    <glyph glyph-name="Amacron" unicode="&#x100;" horiz-adv-x="1353" 
d="M864 596l-188 610l-193 -610h381zM936 365h-524l-115 -365h-254l492 1475h284l494 -1475h-266zM950 1630h-551v195h551v-195z" />
    <glyph glyph-name="amacron" unicode="&#x101;" horiz-adv-x="1116" 
d="M322 303q0 -45 24 -74q25 -27 70 -26h67q106 0 203 57l64 39v203l-336 2q-43 0 -68 -28t-24 -68v-105zM418 1114h274q125 0 209 -84t84 -209v-821h-235v145l-64 -53q-117 -98 -221 -98h-92q-127 0 -206 79t-79 206v104q0 131 78 209t209 78h51q147 0 326 -37v184
q0 43 -25 70t-65 26h-209q-43 -1 -68 -27t-25 -69v-35h-235v39q0 125 84 209t209 84zM834 1468v-194h-551v194h551z" />
    <glyph glyph-name="Abreve" unicode="&#x102;" horiz-adv-x="1353" 
d="M862 594l-188 610l-193 -610h381zM934 362h-524l-115 -362h-254l491 1473h285l494 -1473h-267zM442 1739v131h140v-88q0 -18 12 -30t31 -13h104q37 0 37 45v88h139v-131q0 -53 -39 -92t-92 -39l-201 -2q-53 0 -92 39t-39 92z" />
    <glyph glyph-name="abreve" unicode="&#x103;" horiz-adv-x="1116" 
d="M319 406v-105q0 -47 25 -74t70 -26h67q106 0 203 57l64 39v203l-336 2q-43 0 -68 -28t-25 -68zM416 1112h274q125 0 209 -84t84 -209v-819h-235v143l-64 -53q-117 -98 -221 -98h-92q-127 0 -206 79t-79 205v105q0 131 78 209t209 78h51q147 0 326 -37v184q0 41 -25 69
t-66 27h-208q-43 1 -68 -27t-25 -69v-35h-235v39q0 125 84 209t209 84zM655 1251h-198q-53 0 -92 39t-39 92v131h139v-88q0 -18 12 -30t31 -13h104q37 0 37 45v89h139l-2 -134q0 -53 -38 -92t-93 -39z" />
    <glyph glyph-name="Aogonek" unicode="&#x104;" horiz-adv-x="1353" 
d="M862 596l-188 610l-193 -610h381zM1124 -213h142v-141h-205q-90 0 -129 58t16 142l99 154l-111 365h-524l-115 -365h-254l492 1475h284l494 -1475h-103l-104 -158q-37 -55 18 -55z" />
    <glyph glyph-name="aogonek" unicode="&#x105;" horiz-adv-x="1116" 
d="M322 303q0 -45 24 -74q25 -27 70 -26h67q106 0 203 57l64 39v203l-336 2q-43 0 -68 -28t-24 -68v-105zM418 1114h274q125 0 209 -84t84 -209v-821h-73l-101 -156q-33 -55 18 -55h144v-141h-205q-88 0 -130 57t13 143l99 152v145l-64 -53q-117 -98 -221 -98h-92
q-127 0 -206 79t-79 206v104q0 131 78 209t209 78h51q147 0 326 -37v184q0 43 -25 70t-65 26h-209q-43 -1 -68 -27t-25 -69v-35h-235v39q0 125 84 209t209 84z" />
    <glyph glyph-name="Cacute" unicode="&#x106;" horiz-adv-x="1282" 
d="M694 1606h-178l184 295h285zM479 1247q-94 0 -94 -96v-832q0 -47 25 -71t69 -25h350q96 0 97 99v172h245v-209q-1 -133 -79 -212t-213 -79l-449 -4q-133 0 -212 79t-79 212v905q0 133 80 213t211 80h449q133 0 213 -80t79 -213v-209h-245v172q0 98 -97 98h-350z" />
    <glyph glyph-name="cacute" unicode="&#x107;" horiz-adv-x="1089" 
d="M590 1249h-178l184 295h285zM106 274v549q0 127 80 207t207 80h312q127 0 207 -80t79 -207v-106h-233v96q0 39 -25 67t-65 27h-232q-44 -1 -68 -25t-24 -67v-528q0 -43 25 -68t67 -24h232q42 -1 66 27t24 67v96h233v-106q-1 -127 -77 -204t-207 -81l-316 -4
q-125 -2 -205 78t-80 206z" />
    <glyph glyph-name="Cdotaccent" unicode="&#x10a;" horiz-adv-x="1282" 
d="M762 1616h-221v233h221v-233zM479 1247q-94 0 -94 -96v-832q0 -47 25 -71t69 -25h350q96 0 97 99v172h245v-209q-1 -133 -79 -212t-213 -79l-449 -4q-133 0 -212 79t-79 212v905q0 133 80 213t211 80h449q133 0 213 -80t79 -213v-209h-245v172q0 98 -97 98h-350z" />
    <glyph glyph-name="cdotaccent" unicode="&#x10b;" horiz-adv-x="1089" 
d="M655 1260h-221v233h221v-233zM106 274v549q0 127 80 207t207 80h312q127 0 207 -80t79 -207v-106h-233v96q0 39 -25 67t-65 27h-232q-44 -1 -68 -25t-24 -67v-528q0 -43 25 -68t67 -24h232q42 -1 66 27t24 67v96h233v-106q-1 -127 -77 -204t-207 -81l-316 -4
q-125 -2 -205 78t-80 206z" />
    <glyph glyph-name="Ccaron" unicode="&#x10c;" horiz-adv-x="1282" 
d="M758 1610h-213l-271 260h191l186 -148l185 148h190zM479 1247q-94 0 -94 -96v-832q0 -47 25 -71t69 -25h350q96 0 97 99v172h245v-209q-1 -133 -79 -212t-213 -79l-449 -4q-133 0 -212 79t-79 212v905q0 133 80 213t211 80h449q133 0 213 -80t79 -213v-209h-245v172
q0 98 -97 98h-350z" />
    <glyph glyph-name="ccaron" unicode="&#x10d;" horiz-adv-x="1089" 
d="M655 1253h-213l-268 260h191l184 -147l186 147h191zM106 274v549q0 127 80 207t207 80h312q127 0 207 -80t79 -207v-106h-233v96q0 39 -25 67t-65 27h-232q-44 -1 -68 -25t-24 -67v-528q0 -43 25 -68t67 -24h232q42 -1 66 27t24 67v96h233v-106q0 -127 -77 -204t-207 -81
l-316 -4q-125 -2 -205 78t-80 206z" />
    <glyph glyph-name="Dcaron" unicode="&#x10e;" horiz-adv-x="1351" 
d="M922 1475q131 0 211 -80t79 -213v-889q0 -133 -80 -213t-210 -80h-748v1475h748zM967 332v815q0 47 -25 72t-70 24h-452v-1012l452 5q95 0 95 96zM772 1614h-213l-268 260h190l185 -148l184 148h190z" />
    <glyph glyph-name="dcaron" unicode="&#x10f;" 
d="M508 907h-72q-46 1 -70 -27t-24 -73v-504q0 -45 25 -73t69 -27h72q113 0 209 57l65 39v508l-65 43q-88 57 -209 57zM1432 1542v-203q0 -57 -91 -184l-100 -145h-106l147 266h-100v266h250zM1018 0h-236v145l-65 -53q-121 -98 -228 -98h-94q-127 0 -206 79t-78 206v548
q0 127 79 207q80 80 207 80h95q104 0 227 -100l65 -53v581h234v-1542z" />
    <glyph glyph-name="Dcroat" unicode="&#x110;" horiz-adv-x="1331" 
d="M956 330v815q0 98 -96 98h-452v-379h159v-241h-159v-392h452q96 1 96 99zM162 1475h747q131 0 211 -80t80 -213v-889q0 -133 -80 -213t-211 -80h-747v623h-158v241h158v611z" />
    <glyph glyph-name="dcroat" unicode="&#x111;" horiz-adv-x="1159" 
d="M508 907h-72q-46 1 -70 -27t-24 -73v-504q0 -45 25 -73t69 -27h72q113 0 209 57l65 39v508l-65 43q-88 57 -209 57zM1143 1202h-127v-1202h-234v145l-65 -53q-121 -98 -228 -98h-94q-127 0 -206 79t-78 206v548q0 127 79 207q80 80 207 80h95q104 0 227 -100l65 -53v241
h-206v162h206v178h234v-178h125v-162z" />
    <glyph glyph-name="Emacron" unicode="&#x112;" horiz-adv-x="1222" 
d="M920 1825v-195h-553v195h553zM174 1475h944v-232h-698v-375h575v-229h-575v-408h698v-231h-944v1475z" />
    <glyph glyph-name="emacron" unicode="&#x113;" horiz-adv-x="1103" 
d="M670 915h-238q-44 -1 -68 -25t-24 -67v-166h422v166q0 43 -24 67t-68 25zM670 193q44 1 68 25t24 67v65h235v-71q-1 -127 -79 -206t-205 -79h-320q-127 0 -206 79t-78 206v548q0 127 79 207q80 80 207 80h320q127 0 207 -80t79 -207v-342h-657l-4 -200q0 -43 25 -68
t67 -24h238zM829 1274h-553v194h553v-194z" />
    <glyph glyph-name="Edotaccent" unicode="&#x116;" horiz-adv-x="1222" 
d="M754 1620h-222v233h222v-233zM174 1475h944v-232h-698v-375h575v-229h-575v-408h698v-231h-944v1475z" />
    <glyph glyph-name="edotaccent" unicode="&#x117;" horiz-adv-x="1103" 
d="M659 1264h-221v233h221v-233zM670 915h-238q-44 -1 -68 -25t-24 -67v-166h422v166q0 43 -24 67t-68 25zM670 193q44 1 68 25t24 67v65h235v-71q-1 -127 -79 -206t-205 -79h-320q-127 0 -206 79t-78 206v548q0 127 79 207q80 80 207 80h320q127 0 207 -80t79 -207v-342
h-657l-4 -200q0 -43 25 -68t67 -24h238z" />
    <glyph glyph-name="Eogonek" unicode="&#x118;" horiz-adv-x="1222" 
d="M1178 -213v-141h-205q-88 0 -130 57t13 143l100 154h-782v1475h944v-232h-698v-375h575v-229h-575v-408h698v-231l-102 -158q-33 -55 18 -55h144z" />
    <glyph glyph-name="eogonek" unicode="&#x119;" horiz-adv-x="1103" 
d="M670 915h-238q-44 -1 -68 -25t-24 -67v-166h422v166q0 43 -24 67t-68 25zM670 193q44 1 68 25t24 67v65h235v-71q-1 -127 -79 -206t-205 -79h-68l-98 -152q-35 -55 18 -55h144v-141h-205q-90 0 -131 57t14 143l94 148h-88q-127 0 -206 79t-78 206v548q0 127 79 207
q80 80 207 80h320q127 0 207 -80t79 -207v-342h-657l-4 -200q0 -43 25 -68t67 -24h238z" />
    <glyph glyph-name="Ecaron" unicode="&#x11a;" horiz-adv-x="1222" 
d="M1118 1475v-232h-698v-375h575v-229h-575v-408h698v-231h-944v1475h944zM750 1610h-213l-269 260h191l184 -148l184 148h191z" />
    <glyph glyph-name="ecaron" unicode="&#x11b;" horiz-adv-x="1103" 
d="M670 915h-238q-44 -1 -68 -25t-24 -67v-166h422v166q0 43 -24 67t-68 25zM670 193q44 1 68 25t24 67v65h235v-71q-1 -127 -79 -206t-205 -79h-320q-127 0 -206 79t-78 206v548q0 127 79 207q80 80 207 80h320q127 0 207 -80t79 -207v-342h-657l-4 -200q0 -43 25 -68
t67 -24h238zM446 1253l-268 260h191l184 -147l184 147h191l-269 -260h-213z" />
    <glyph glyph-name="Gbreve" unicode="&#x11e;" horiz-adv-x="1320" 
d="M561 1604q-53 0 -92 38t-39 93v131h139v-88q1 -18 13 -30t30 -13h103q37 0 37 45v88h139l-2 -133q0 -53 -39 -93t-92 -38h-197zM479 1247q-94 0 -94 -96v-834q0 -45 25 -69t69 -25h367q96 0 96 99v258h-305v223h551v-518q0 -133 -79 -212t-214 -79h-465q-133 0 -212 79
t-79 212v905q0 133 80 213t211 80h465q133 0 213 -80t80 -213v-172h-246v131q0 98 -96 98h-367z" />
    <glyph glyph-name="gbreve" unicode="&#x11f;" 
d="M506 901h-72q-46 0 -70 -27t-24 -73v-434q0 -43 25 -70t67 -27h72q102 0 209 60l65 37v438l-63 39q-96 57 -209 57zM426 -401q-127 -1 -207 79t-80 207v47h228v-38q-1 -51 27 -79t75 -28h209q47 0 75 28t27 79v321l-65 -53q-123 -100 -228 -101h-94q-125 0 -205 80
t-79 207v477q0 127 79 207q80 80 207 80h94q104 0 228 -100l65 -54v146h234l-4 -1219q0 -127 -80 -207t-205 -79h-301zM668 1251h-199q-53 0 -92 39t-39 92v131h139v-88q0 -18 12 -30t31 -13h105q37 0 37 45v89h139l-2 -134q0 -53 -39 -92t-92 -39z" />
    <glyph glyph-name="Gdotaccent" unicode="&#x120;" horiz-adv-x="1320" 
d="M772 1616h-221v233h221v-233zM479 1247q-94 0 -94 -96v-834q0 -45 25 -69t69 -25h367q96 0 96 99v258h-305v223h551v-518q0 -133 -79 -212t-214 -79h-465q-133 0 -212 79t-79 212v905q0 133 80 213t211 80h465q133 0 213 -80t80 -213v-172h-246v131q0 98 -96 98h-367z
" />
    <glyph glyph-name="gdotaccent" unicode="&#x121;" 
d="M678 1264h-221v233h221v-233zM508 903h-72q-46 1 -70 -27t-24 -73v-434q0 -41 25 -69t67 -28h72q102 0 209 60l65 37v438l-63 39q-96 57 -209 57zM729 -399h-301q-127 0 -207 80t-80 206v47h228v-38q-1 -51 27 -79t75 -28h209q47 0 75 28t27 79v321l-65 -53
q-123 -100 -228 -101h-94q-125 0 -205 80t-79 207v477q0 127 79 207q80 80 207 80h95q104 0 227 -100l65 -53v145h234l-4 -1219q0 -127 -80 -207t-205 -79z" />
    <glyph glyph-name="Gcommaaccent" unicode="&#x122;" horiz-adv-x="1320" 
d="M791 -145v-203q0 -51 -93 -184l-100 -146h-104l145 266h-100v267h252zM479 1247q-94 0 -94 -96v-834q0 -45 25 -69t69 -25h367q96 0 96 99v258h-305v223h551v-518q0 -133 -79 -212t-214 -79h-465q-133 0 -212 79t-79 212v905q0 133 80 213t211 80h465q133 0 213 -80
t80 -213v-172h-246v131q0 98 -96 98h-367z" />
    <glyph glyph-name="gcommaaccent" unicode="&#x123;" 
d="M508 903h-72q-46 1 -70 -27t-24 -73v-434q0 -41 25 -69t67 -28h72q102 0 209 60l65 37v438l-63 39q-96 57 -209 57zM729 -399h-301q-127 0 -207 80t-80 206v47h228v-38q-1 -51 27 -79t75 -28h209q47 0 75 28t27 79v321l-65 -53q-123 -100 -228 -101h-94q-125 0 -205 80
t-79 207v477q0 127 79 207q80 80 207 80h95q104 0 227 -100l65 -53v145h234l-4 -1219q0 -127 -80 -207t-205 -79zM446 1262v202q0 51 93 185l100 145h104l-145 -266h100v-266h-252z" />
    <glyph glyph-name="Hbar" unicode="&#x126;" horiz-adv-x="1427" 
d="M1004 1079h-580v-202h580v202zM1391 1079h-142v-1079h-245v645h-580v-645h-246v1079h-141v174h141v222h246v-222h580v222h245v-222h142v-174z" />
    <glyph glyph-name="hbar" unicode="&#x127;" horiz-adv-x="1159" 
d="M1032 825v-825h-235v803q0 45 -25 73t-70 27h-51q-119 0 -211 -57l-63 -39v-807h-236v1202h-123v162h123v178h236v-178h227v-162h-227v-241l63 53q124 102 230 100l75 -2q131 -4 209 -82t78 -205z" />
    <glyph glyph-name="Imacron" unicode="&#x12a;" horiz-adv-x="591" 
d="M174 0v1475h246v-1475h-246zM569 1825v-195h-551v195h551z" />
    <glyph glyph-name="imacron" unicode="&#x12b;" horiz-adv-x="540" 
d="M387 1106v-1106h-233v1106h233zM547 1454v-194h-551v194h551z" />
    <glyph glyph-name="Iogonek" unicode="&#x12e;" horiz-adv-x="591" 
d="M492 -213v-141h-205q-90 0 -131 57t14 143l100 154h-57v1475h246v-1475h-27l-102 -158q-37 -55 18 -55h144z" />
    <glyph glyph-name="iogonek" unicode="&#x12f;" horiz-adv-x="526" 
d="M184 1106h236v-1106h-70l-102 -158q-37 -55 18 -55h144v-141h-205q-90 0 -131 57t14 143l100 154h-4v1106zM428 1542v-237h-252v237h252z" />
    <glyph glyph-name="Idotaccent" unicode="&#x130;" horiz-adv-x="591" 
d="M403 1620h-221v233h221v-233zM174 0v1475h246v-1475h-246z" />
    <glyph glyph-name="IJ" unicode="&#x132;" horiz-adv-x="1798" 
d="M1356 -6h-404q-135 0 -214 79t-79 212v290h246v-253q0 -98 96 -99h306q96 0 96 99v1153h246l-2 -1190q0 -133 -79 -212t-212 -79zM174 0v1475h246v-1475h-246z" />
    <glyph glyph-name="ij" unicode="&#x133;" horiz-adv-x="1095" 
d="M485 -403v204h136q43 0 67 25t25 68v1212h235l-2 -1225q0 -125 -80 -205t-204 -79h-177zM381 1106v-1106h-236v1106h236zM958 1305h-256v237h256v-237zM389 1305h-252v237h252v-237z" />
    <glyph glyph-name="Kcommaaccent" unicode="&#x136;" horiz-adv-x="1363" 
d="M590 -141h252v-203q0 -51 -92 -184l-101 -146h-104l145 266h-100v267zM416 0h-242v1475h242v-756l585 756h293l-475 -590l504 -885h-279l-389 684l-239 -299v-385z" />
    <glyph glyph-name="kcommaaccent" unicode="&#x137;" horiz-adv-x="1136" 
d="M463 -141h252v-203q0 -57 -90 -184l-101 -146h-106l145 266h-100v267zM375 0h-234v1475h234v-910l418 541h288l-370 -432l395 -674h-254l-291 500l-186 -219v-281z" />
    <glyph glyph-name="Lacute" unicode="&#x139;" horiz-adv-x="1136" 
d="M174 1475h246v-1244h647v-231h-893v1475zM338 1610h-176l184 295h285z" />
    <glyph glyph-name="lacute" unicode="&#x13a;" horiz-adv-x="520" 
d="M301 1677h-178l184 295h285zM143 1542h234v-1542h-234v1542z" />
    <glyph glyph-name="Lcommaaccent" unicode="&#x13b;" horiz-adv-x="1136" 
d="M174 1475h246v-1244h647v-231h-893v1475zM754 -141v-203q0 -51 -92 -184l-101 -146h-104l145 266h-100v267h252z" />
    <glyph glyph-name="lcommaaccent" unicode="&#x13c;" horiz-adv-x="520" 
d="M385 -141v-203q0 -57 -90 -184l-100 -146h-107l148 266h-101v267h250zM143 1542h234v-1542h-234v1542z" />
    <glyph glyph-name="Lcaron" unicode="&#x13d;" horiz-adv-x="1136" 
d="M174 1475h246v-1244h647v-231h-893v1475zM858 1542v-203q0 -57 -90 -184l-100 -145h-107l148 266h-101v266h250z" />
    <glyph glyph-name="lcaron" unicode="&#x13e;" horiz-adv-x="520" 
d="M143 1542h234v-1542h-234v1542zM805 1542v-203q0 -51 -92 -184l-101 -145h-104l145 266h-100v266h252z" />
    <glyph glyph-name="Ldot" unicode="&#x13f;" horiz-adv-x="1136" 
d="M979 649h-252v266h252v-266zM174 1475h246v-1244h647v-231h-893v1475z" />
    <glyph glyph-name="ldot" unicode="&#x140;" horiz-adv-x="813" 
d="M143 1542h234v-1542h-234v1542zM786 668h-249v266h249v-266z" />
    <glyph glyph-name="Lslash" unicode="&#x141;" horiz-adv-x="1142" 
d="M1067 233v-233h-893v641l-133 -53v229l133 51v607h246v-510l272 108v-229l-272 -107v-504h647z" />
    <glyph glyph-name="lslash" unicode="&#x142;" horiz-adv-x="669" 
d="M451 0h-234v670l-194 -80v227l194 80v645h234v-549l196 80v-229l-196 -80v-764z" />
    <glyph glyph-name="Nacute" unicode="&#x143;" horiz-adv-x="1456" 
d="M774 1610h-178l184 295h285zM1055 1475h229v-1475h-270l-611 1100v-1100h-229v1475h270l611 -1098v1098z" />
    <glyph glyph-name="nacute" unicode="&#x144;" 
d="M635 1251h-178l184 295h285zM797 0v803q0 45 -25 73t-70 27h-51q-119 0 -211 -57l-63 -39v-807h-236v1106h236v-145l63 53q119 100 230 100h75q127 0 207 -80t80 -207v-827h-235z" />
    <glyph glyph-name="Ncommaaccent" unicode="&#x145;" horiz-adv-x="1456" 
d="M854 -141v-203q0 -57 -90 -184l-100 -146h-107l148 266h-101v267h250zM1055 1475h229v-1475h-270l-611 1100v-1100h-229v1475h270l611 -1098v1098z" />
    <glyph glyph-name="ncommaaccent" unicode="&#x146;" 
d="M713 -143v-203q0 -57 -90 -184l-101 -146h-106l145 266h-100v267h252zM797 0v803q0 45 -25 73t-70 27h-51q-119 0 -211 -57l-63 -39v-807h-236v1106h236v-145l63 53q119 100 230 100h75q127 0 207 -80t80 -207v-827h-235z" />
    <glyph glyph-name="Ncaron" unicode="&#x147;" horiz-adv-x="1456" 
d="M836 1610h-213l-269 260h191l184 -148l186 148h191zM1284 1475v-1475h-270l-611 1100v-1100h-229v1475h270l611 -1098v1098h229z" />
    <glyph glyph-name="ncaron" unicode="&#x148;" 
d="M698 1253h-213l-270 260h191l186 -147l184 147h191zM797 803q0 45 -25 73t-70 27h-51q-119 0 -211 -57l-63 -39v-807h-236v1106h236v-145l63 53q119 100 230 100h75q127 0 207 -80t80 -207v-827h-235v803z" />
    <glyph glyph-name="Eng" unicode="&#x14a;" horiz-adv-x="1454" 
d="M1280 1475v-1594q0 -127 -80 -207t-207 -80h-211v213h185q43 0 67 27t25 70v88l-656 1104v-1096h-229v1475h270l607 -1035v1035h229z" />
    <glyph glyph-name="eng" unicode="&#x14b;" 
d="M1034 823v-940q0 -127 -80 -207t-206 -79h-173v204h130q43 0 67 28t25 73v901q0 45 -25 73t-70 27h-51q-119 0 -211 -57l-63 -39v-807h-236v1106h236v-145l63 53q126 106 230 100l78 -4q134 -6 210 -83t76 -204z" />
    <glyph glyph-name="Omacron" unicode="&#x14c;" horiz-adv-x="1335" 
d="M479 1249q-94 0 -94 -96v-836q0 -47 25 -71t69 -25h377q96 0 96 98v832q0 98 -96 98h-377zM905 -6h-475q-133 0 -212 79t-79 212v905q0 133 80 213t211 80h475q131 0 211 -80t80 -213v-905q0 -133 -79 -212t-212 -79zM942 1825v-195h-551v195h551z" />
    <glyph glyph-name="omacron" unicode="&#x14d;" horiz-adv-x="1124" 
d="M836 1468v-194h-553v194h553zM778 289v528q0 43 -24 70q-25 27 -68 26h-252q-44 -1 -68 -27t-24 -69v-528q0 -43 25 -70t67 -26h252q43 0 68 26q24 27 24 70zM395 1114h332q127 0 207 -80t80 -207v-548q0 -127 -79 -206t-208 -79h-334q-127 0 -206 79t-78 206v548
q0 127 79 207q80 80 207 80z" />
    <glyph glyph-name="Ohungarumlaut" unicode="&#x150;" horiz-adv-x="1335" 
d="M479 1249q-94 0 -94 -96v-836q0 -47 25 -71t69 -25h377q96 0 96 98v832q0 98 -96 98h-377zM905 -6h-475q-133 0 -212 79t-79 212v905q0 133 80 213t211 80h475q131 0 211 -80t80 -213v-905q0 -133 -79 -212t-212 -79zM1137 1907l-236 -297h-221l235 297h222zM770 1907
l-235 -297h-222l236 297h221z" />
    <glyph glyph-name="ohungarumlaut" unicode="&#x151;" horiz-adv-x="1124" 
d="M778 289v528q0 43 -24 70q-25 27 -68 26h-252q-44 -1 -68 -27t-24 -69v-528q0 -43 25 -70t67 -26h252q43 0 68 26q24 27 24 70zM395 1114h332q127 0 207 -80t80 -207v-548q0 -127 -79 -206t-208 -79h-334q-127 0 -206 79t-78 206v548q0 127 79 207q80 80 207 80z
M1030 1550l-235 -297h-222l236 297h221zM664 1550l-236 -297h-221l235 297h222z" />
    <glyph glyph-name="OE" unicode="&#x152;" horiz-adv-x="2002" 
d="M936 291v889q0 59 -59 59h-398q-45 0 -69 -25t-25 -71v-815q0 -47 25 -72t69 -25h398q59 1 59 60zM1182 1243v-375h587v-231h-587v-406h719v-231h-1471q-131 0 -211 80t-80 213v889q0 133 80 213t211 80h1471v-232h-719z" />
    <glyph glyph-name="oe" unicode="&#x153;" horiz-adv-x="1775" 
d="M686 193q94 0 94 100v504q0 47 -24 73t-70 27h-252q-46 0 -70 -27t-24 -73v-504q0 -47 25 -74t69 -26h252zM1016 645h424v158q0 45 -24 73t-68 27l-240 -4q-43 0 -68 -28t-24 -68v-158zM1346 197q44 1 68 29t24 71v59h231v-77q0 -127 -79 -206t-208 -79h-315
q-100 0 -170 49q-70 -49 -170 -49h-334q-127 0 -206 79t-78 206v548q0 127 79 207q80 80 207 80h334q98 0 170 -51q72 51 170 51h315q127 0 207 -80t80 -207v-348h-655l2 -186q0 -43 24 -70t68 -26h236z" />
    <glyph glyph-name="Racute" unicode="&#x154;" horiz-adv-x="1335" 
d="M950 1147q0 47 -24 72q-25 25 -70 24h-436v-446l436 4q96 0 94 96v250zM420 569v-569h-246v1475h731q131 0 211 -80t80 -213v-322q0 -114 -58 -190t-165 -95l268 -575h-264l-266 569h-291zM690 1610h-176l184 295h285z" />
    <glyph glyph-name="racute" unicode="&#x155;" horiz-adv-x="843" 
d="M793 897h-142q-111 0 -211 -59l-63 -37v-801h-236v1106h236v-145l63 53q119 100 230 100h123v-217zM502 1253h-176l184 295h285z" />
    <glyph glyph-name="Rcommaaccent" unicode="&#x156;" horiz-adv-x="1335" 
d="M551 -137h250v-203q0 -57 -90 -184l-101 -146h-106l147 267h-100v266zM950 1147q0 47 -24 72q-25 25 -70 24h-436v-446l436 4q96 0 94 96v250zM420 569v-569h-246v1475h731q131 0 211 -80t80 -213v-322q0 -114 -58 -190t-165 -95l268 -575h-264l-266 569h-291z" />
    <glyph glyph-name="rcommaaccent" unicode="&#x157;" horiz-adv-x="843" 
d="M387 -141v-203q0 -51 -92 -184l-100 -146h-105l146 266h-101v267h252zM793 897h-142q-111 0 -211 -59l-63 -37v-801h-236v1106h236v-145l63 53q119 100 230 100h123v-217z" />
    <glyph glyph-name="Rcaron" unicode="&#x158;" horiz-adv-x="1335" 
d="M950 1147q0 47 -24 72q-25 25 -70 24h-436v-446l436 4q96 0 94 96v250zM420 569v-569h-246v1475h731q131 0 211 -80t80 -213v-322q0 -114 -58 -190t-165 -95l268 -575h-264l-266 569h-291zM541 1610l-269 260h191l184 -148l184 148h191l-268 -260h-213z" />
    <glyph glyph-name="rcaron" unicode="&#x159;" horiz-adv-x="843" 
d="M651 897q-111 0 -211 -59l-63 -37v-801h-236v1106h236v-145l63 53q119 100 230 100h123v-217h-142zM565 1253h-213l-268 260h190l185 -147l184 147h191z" />
    <glyph glyph-name="Sacute" unicode="&#x15a;" horiz-adv-x="1282" 
d="M471 1251q-45 1 -70 -27t-24 -73v-145q0 -50 22 -68t76 -33l381 -86q295 -68 295 -295v-241q0 -133 -79 -212t-214 -79h-434q-133 0 -212 79t-79 212v174h240v-138q0 -45 24 -73q25 -27 72 -27h340q47 0 72 28t24 75v163q0 47 -21 69t-75 34l-381 84q-295 66 -295 295
v223q0 133 80 213t213 80h410q133 0 213 -80t79 -213v-156h-241l-6 115q-8 104 -93 102h-317zM674 1610h-176l184 295h285z" />
    <glyph glyph-name="sacute" unicode="&#x15b;" horiz-adv-x="1071" 
d="M571 1253h-178l185 295h284zM717 772v57q0 92 -86 93h-201q-86 0 -86 -93v-63q0 -66 82 -78l311 -51q240 -39 240 -240v-127q0 -126 -77 -202t-202 -76h-323q-127 0 -204 77t-77 201v80h234v-67q0 -92 86 -93h243q86 0 86 93v77q0 68 -84 80l-311 52q-240 41 -239 239
v103q-1 124 77 202t203 78h283q122 0 200 -78t78 -202v-62h-233z" />
    <glyph glyph-name="Scedilla" unicode="&#x15e;" horiz-adv-x="1282" 
d="M1141 522v-241q0 -133 -79 -212t-214 -79h-148l-47 -94h60q82 0 128 -40t46 -112v-20q0 -74 -45 -113t-125 -39h-191l-102 113h283q31 0 30 39v20q0 39 -30 39h-240l98 207h-147q-133 0 -212 79t-79 212v174h240v-138q0 -100 96 -100h340q47 0 71 29t25 73v164
q0 47 -21 69t-75 34l-381 84q-295 63 -295 295v223q0 133 80 213t213 80h409q133 0 213 -80t80 -213v-156h-241v119q0 45 -25 74t-68 28h-317q-45 -1 -70 -27t-24 -73v-145q1 -47 23 -67t75 -34l371 -90q295 -72 295 -295z" />
    <glyph glyph-name="scedilla" unicode="&#x15f;" horiz-adv-x="1071" 
d="M973 397v-127q0 -126 -77 -202t-202 -76h-88l-47 -94h62q82 0 128 -40t46 -112v-20q0 -74 -45 -113t-125 -39h-191l-102 113h280q20 0 27 8q6 10 6 31v20q0 20 -6 30t-27 9h-237l98 207h-98q-127 0 -204 77t-77 201v80h234v-67q0 -92 86 -93h243q86 0 86 93v77
q0 68 -84 80l-311 52q-240 41 -239 239v103q-1 124 77 202t203 78h283q122 0 200 -78t78 -202v-62h-233v57q0 92 -86 93h-201q-86 0 -86 -93v-63q0 -66 82 -78l307 -51q240 -39 240 -240z" />
    <glyph glyph-name="Scaron" unicode="&#x160;" horiz-adv-x="1282" 
d="M471 1251q-45 1 -70 -27t-24 -73v-145q0 -50 22 -68t76 -33l381 -86q295 -68 295 -295v-241q0 -133 -79 -212t-214 -79h-434q-133 0 -212 79t-79 212v174h240v-138q0 -45 24 -73q25 -27 72 -27h340q47 0 72 28t24 75v163q0 47 -21 69t-75 34l-381 84q-295 66 -295 295
v223q0 133 80 213t213 80h410q133 0 213 -80t79 -213v-156h-241l-6 115q-8 104 -93 102h-317zM731 1606h-213l-268 260h190l185 -148l184 148h190z" />
    <glyph glyph-name="scaron" unicode="&#x161;" horiz-adv-x="1071" 
d="M633 1253h-213l-268 260h190l184 -147l187 147h190zM717 829q0 92 -86 93h-201q-86 0 -86 -93v-63q0 -66 82 -78l311 -51q240 -39 240 -240v-127q0 -126 -77 -202t-202 -76h-323q-127 0 -204 77t-77 201v80h234v-67q0 -92 86 -93h243q86 0 86 93v77q0 68 -84 80l-311 52
q-240 41 -239 239v103q-1 124 77 202t203 78h283q122 0 200 -78t78 -202v-62h-233v57z" />
    <glyph glyph-name="Tcedilla" unicode="&#x162;" horiz-adv-x="1165" 
d="M659 -100q82 0 128 -40t47 -112v-20q0 -74 -46 -113t-124 -39h-191l-102 113h282q31 0 31 39v20q0 39 -31 39h-239l102 213h-57v1247h-404v228h1053v-228h-403v-1247h-50l-55 -100h59z" />
    <glyph glyph-name="tcedilla" unicode="&#x163;" horiz-adv-x="860" 
d="M629 -311q20 0 26 8t7 31v20q0 23 -6 31t-27 8h-238l103 213h22q-127 0 -207 80t-80 207v624h-180v195h184v369h228v-369h327v-195h-323v-612q1 -43 25 -70t67 -26h231v-203h-157l-51 -100h61q82 0 128 -40t46 -112v-20q0 -74 -45 -113t-125 -39h-190l-107 113h281z" />
    <glyph glyph-name="Tcaron" unicode="&#x164;" horiz-adv-x="1165" 
d="M705 1247v-1247h-246v1247h-404v228h1053v-228h-403zM686 1610h-213l-268 260h190l185 -148l184 148h190z" />
    <glyph glyph-name="tcaron" unicode="&#x165;" horiz-adv-x="860" 
d="M860 1772v-203q0 -51 -92 -185l-100 -145h-105l146 266h-101v267h252zM465 911v-612q1 -43 25 -70t67 -26h231v-203h-272q-127 0 -207 80t-80 207v624h-180v195h184v369h228v-369h327v-195h-323z" />
    <glyph glyph-name="Tbar" unicode="&#x166;" horiz-adv-x="1165" 
d="M856 1825v-195h-553v195h553zM1108 1247h-403v-1247h-246v1247h-404v228h1053v-228z" />
    <glyph glyph-name="tbar" unicode="&#x167;" horiz-adv-x="860" 
d="M465 911v-202h176v-195h-176v-215q1 -43 25 -70t67 -26h231v-203h-272q-127 0 -207 80t-80 207v227h-141v195h141v202h-180v195h184v369h228v-369h327v-195h-323z" />
    <glyph glyph-name="Umacron" unicode="&#x16a;" horiz-adv-x="1337" 
d="M1188 1475v-1192q0 -133 -79 -212t-214 -79h-453q-133 0 -212 79t-78 212v1190h245v-1154q0 -47 25 -71t70 -25h354q96 0 96 99v1153h246zM942 1825v-195h-551v195h551z" />
    <glyph glyph-name="umacron" unicode="&#x16b;" 
d="M508 203q115 0 211 57l63 39v807h236v-1106h-236v145l-63 -53q-117 -98 -230 -98h-75q-127 0 -206 79t-79 206v827h236l-3 -803q0 -45 25 -73t70 -27h51zM848 1468v-194h-551v194h551z" />
    <glyph glyph-name="Uring" unicode="&#x16e;" horiz-adv-x="1337" 
d="M1184 1470v-1191q0 -133 -79 -212t-214 -79h-453q-133 0 -212 79t-79 212v1189h246v-1153q0 -47 25 -71t69 -25h355q96 0 96 98v1153h246zM575 1831v-109q0 -25 25 -24h123q25 0 25 24v109q0 25 -25 24h-123q-25 1 -25 -24zM475 1880q0 28 23 50t49 22h235q28 0 50 -22
t22 -48v-203q0 -29 -20 -49t-50 -20l-239 -4q-27 0 -48 21t-22 50v203z" />
    <glyph glyph-name="uring" unicode="&#x16f;" 
d="M504 199q115 0 211 57l63 39v807h236v-1104h-236v143l-63 -53q-117 -98 -230 -98h-75q-127 0 -206 79t-79 205v828h235l-2 -803q0 -45 25 -73t70 -27h51zM481 1475v-109q0 -25 25 -25h123q25 0 24 25v109q0 25 -24 24h-123q-25 1 -25 -24zM381 1321v203q1 28 23 50t49 21
h235q28 1 50 -21t22 -48v-203q0 -29 -20 -49t-50 -21l-239 -4q-27 -1 -49 21t-21 51z" />
    <glyph glyph-name="Uhungarumlaut" unicode="&#x170;" horiz-adv-x="1337" 
d="M1188 1475v-1192q0 -133 -79 -212t-214 -79h-453q-133 0 -212 79t-78 212v1190h245v-1154q0 -47 25 -71t70 -25h354q96 0 96 99v1153h246zM1137 1907l-236 -297h-221l235 297h222zM770 1907l-235 -297h-222l236 297h221z" />
    <glyph glyph-name="uhungarumlaut" unicode="&#x171;" 
d="M508 203q115 0 211 57l63 39v807h236v-1106h-236v145l-63 -53q-117 -98 -230 -98h-75q-127 0 -206 79t-79 206v827h236l-3 -803q0 -45 25 -73t70 -27h51zM1042 1550l-235 -297h-221l235 297h221zM676 1550l-236 -297h-221l236 297h221z" />
    <glyph glyph-name="Uogonek" unicode="&#x172;" horiz-adv-x="1337" 
d="M893 -8h-129l-98 -154q-37 -55 18 -55h141v-141h-204q-90 0 -129 58t16 142l96 150h-162q-133 0 -212 79t-78 212v1190h245v-1154q0 -47 25 -71t70 -25h354q96 0 96 99v1153h246l-2 -1192q0 -133 -79 -212t-214 -79z" />
    <glyph glyph-name="uogonek" unicode="&#x173;" 
d="M862 -211h144v-141h-205q-88 0 -130 57t13 143l98 154v145l-63 -53q-117 -98 -230 -98h-75q-127 0 -206 79t-79 206v827h236v-805q0 -45 24 -74q25 -27 70 -26h51q115 0 211 57l63 39v807h236v-1106h-72l-104 -156q-37 -55 18 -55z" />
    <glyph glyph-name="Wcircumflex" unicode="&#x174;" horiz-adv-x="1857" 
d="M930 1755l-185 -145h-190l268 260h213l271 -260h-191zM1196 0l-262 1057l-264 -1057h-246l-379 1475h262l242 -1143l285 1143h200l283 -1143l242 1143h253l-378 -1475h-238z" />
    <glyph glyph-name="wcircumflex" unicode="&#x175;" horiz-adv-x="1579" 
d="M979 0l-182 768l-183 -768h-241l-338 1106h244l215 -877l198 877h211l199 -877l217 877h227l-325 -1106h-242zM795 1399l-185 -146h-190l268 260h213l268 -260h-190z" />
    <glyph glyph-name="Ycircumflex" unicode="&#x176;" horiz-adv-x="1230" 
d="M492 0v522l-474 953h273l323 -678l326 678h270l-473 -953v-522h-245zM612 1755l-184 -145h-190l268 260h213l268 -260h-190z" />
    <glyph glyph-name="ycircumflex" unicode="&#x177;" horiz-adv-x="1067" 
d="M1032 1106l-516 -1497h-221l133 391l-393 1106h233l260 -811l277 811h227zM348 1253h-190l270 260h213l268 -260h-190l-184 146z" />
    <glyph glyph-name="Ydieresis" unicode="&#x178;" horiz-adv-x="1230" 
d="M918 1618h-220v237h220v-237zM526 1618h-219v237h219v-237zM737 0h-245v522l-474 953h273l323 -678l326 678h270l-473 -953v-522z" />
    <glyph glyph-name="Zacute" unicode="&#x179;" horiz-adv-x="1222" 
d="M672 1610h-178l184 295h285zM139 1247v228h981v-187l-708 -1061h704v-227h-1014v186l711 1061h-674z" />
    <glyph glyph-name="zacute" unicode="&#x17a;" horiz-adv-x="968" 
d="M92 903v203h797v-160l-529 -743h535v-203h-823v162l528 741h-508zM530 1253h-176l185 295h284z" />
    <glyph glyph-name="Zdotaccent" unicode="&#x17b;" horiz-adv-x="1222" 
d="M737 1620h-221v233h221v-233zM139 1247v228h981v-187l-708 -1061h704v-227h-1014v186l711 1061h-674z" />
    <glyph glyph-name="zdotaccent" unicode="&#x17c;" horiz-adv-x="968" 
d="M598 1264h-221v233h221v-233zM92 903v203h797v-160l-529 -743h535v-203h-823v162l528 741h-508z" />
    <glyph glyph-name="Zcaron" unicode="&#x17d;" horiz-adv-x="1222" 
d="M733 1610h-213l-268 260h190l185 -148l186 148h191zM139 1247v228h981v-187l-708 -1061h704v-227h-1014v186l711 1061h-674z" />
    <glyph glyph-name="zcaron" unicode="&#x17e;" horiz-adv-x="968" 
d="M92 903v203h797v-160l-529 -743h535v-203h-823v162l528 741h-508zM594 1253h-213l-268 260h190l184 -147l185 147h190z" />
    <glyph glyph-name="florin" unicode="&#x192;" horiz-adv-x="911" 
d="M209 236q96 0 94 96v379h-219v219h219v258q0 131 78 209t213 78h248v-232l-199 2q-96 0 -96 -98v-217h272v-219h-272v-420q0 -131 -78 -209t-209 -78h-190v232h139z" />
    <glyph glyph-name="circumflex" unicode="&#x2c6;" horiz-adv-x="1351" 
d="M676 1755l-184 -145h-191l268 260h213l269 -260h-191z" />
    <glyph glyph-name="caron" unicode="&#x2c7;" horiz-adv-x="1351" 
d="M782 1610h-213l-268 260h191l184 -148l184 148h191z" />
    <glyph glyph-name="breve" unicode="&#x2d8;" horiz-adv-x="1265" 
d="M729 1608h-197q-53 0 -92 39t-39 92v131h140v-88q0 -18 12 -30t31 -13h102q37 0 37 45v88h139l-2 -133q0 -53 -39 -92t-92 -39z" />
    <glyph glyph-name="dotaccent" unicode="&#x2d9;" horiz-adv-x="917" 
d="M569 1620h-221v233h221v-233z" />
    <glyph glyph-name="ring" unicode="&#x2da;" horiz-adv-x="704" 
d="M262 1831v-109q0 -25 25 -24h123q25 0 24 24v109q0 25 -24 24h-123q-25 1 -25 -24zM162 1677v203q0 28 22 50t49 22h234q29 0 51 -22t21 -48v-203q-1 -29 -21 -49t-49 -20l-238 -4q-27 0 -48 21t-21 50z" />
    <glyph glyph-name="ogonek" unicode="&#x2db;" horiz-adv-x="790" 
d="M467 -213h143v-141h-204q-90 0 -132 57t15 143l100 154h162l-102 -158q-35 -55 18 -55z" />
    <glyph glyph-name="tilde" unicode="&#x2dc;" horiz-adv-x="1249" 
d="M475 1708l-37 -98h-125l41 194q18 86 121 56l293 -93l39 95h129l-45 -197q-18 -86 -119 -53z" />
    <glyph glyph-name="hungarumlaut" unicode="&#x2dd;" horiz-adv-x="1536" 
d="M1180 1907l-236 -297h-221l235 297h222zM813 1907l-235 -297h-222l236 297h221z" />
    <glyph glyph-name="commaaccentcomb" unicode="&#x326;" horiz-adv-x="0" 
d="M496 -141v-203q0 -51 -93 -184l-100 -146h-104l145 266h-100v267h252z" />
    <glyph glyph-name="Wgrave" unicode="&#x1e80;" horiz-adv-x="1857" 
d="M1063 1610h-178l-291 295h285zM1196 0l-262 1057l-264 -1057h-246l-379 1475h262l242 -1143l285 1143h200l283 -1143l242 1143h253l-378 -1475h-238z" />
    <glyph glyph-name="wgrave" unicode="&#x1e81;" horiz-adv-x="1579" 
d="M928 1253h-178l-291 295h284zM979 0l-182 768l-183 -768h-241l-338 1106h244l215 -877l198 877h211l199 -877l217 877h227l-325 -1106h-242z" />
    <glyph glyph-name="Wacute" unicode="&#x1e82;" horiz-adv-x="1857" 
d="M975 1610h-178l184 295h285zM1434 0h-238l-262 1057l-264 -1057h-246l-379 1475h262l242 -1143l285 1143h200l283 -1143l242 1143h253z" />
    <glyph glyph-name="wacute" unicode="&#x1e83;" horiz-adv-x="1579" 
d="M1221 0h-242l-182 768l-183 -768h-241l-338 1106h244l215 -877l198 877h211l199 -877l217 877h227zM838 1253h-176l184 295h284z" />
    <glyph glyph-name="Wdieresis" unicode="&#x1e84;" horiz-adv-x="1857" 
d="M1434 0h-238l-262 1057l-264 -1057h-246l-379 1475h262l242 -1143l285 1143h200l283 -1143l242 1143h253zM1237 1618h-221v237h221v-237zM844 1618h-219v237h219v-237z" />
    <glyph glyph-name="wdieresis" unicode="&#x1e85;" horiz-adv-x="1579" 
d="M1100 1262h-219v237h219v-237zM709 1262h-220v237h220v-237zM1221 0h-242l-182 768l-183 -768h-241l-338 1106h244l215 -877l198 877h211l199 -877l217 877h227z" />
    <glyph glyph-name="Ygrave" unicode="&#x1ef2;" horiz-adv-x="1230" 
d="M745 1610h-178l-291 295h285zM492 0v522l-474 953h273l323 -678l326 678h270l-473 -953v-522h-245z" />
    <glyph glyph-name="ygrave" unicode="&#x1ef3;" horiz-adv-x="1067" 
d="M1032 1106l-516 -1497h-221l133 391l-393 1106h233l260 -811l277 811h227zM489 1253l-292 295h284l185 -295h-177z" />
    <glyph glyph-name="endash" unicode="&#x2013;" horiz-adv-x="1148" 
d="M1034 786v-223h-921v223h921z" />
    <glyph glyph-name="emdash" unicode="&#x2014;" horiz-adv-x="1648" 
d="M1536 784v-221h-1423v221h1423z" />
    <glyph glyph-name="quoteleft" unicode="&#x2018;" horiz-adv-x="493" 
d="M121 942v203q0 51 92 184l100 146h105l-146 -267h101v-266h-252z" />
    <glyph glyph-name="quoteright" unicode="&#x2019;" horiz-adv-x="493" 
d="M373 1475v-203q0 -57 -90 -185l-101 -145h-106l145 266h-100v267h252z" />
    <glyph glyph-name="quotesinglbase" unicode="&#x201a;" horiz-adv-x="493" 
d="M373 266v-203q0 -55 -90 -182l-101 -145h-106l145 264h-100v266h252z" />
    <glyph glyph-name="quotedblleft" unicode="&#x201c;" horiz-adv-x="878" 
d="M506 944v201q0 53 90 186l100 146h107l-148 -267h101v-266h-250zM121 942v203q0 51 92 184l100 146h105l-146 -267h101v-266h-252z" />
    <glyph glyph-name="quotedblright" unicode="&#x201d;" horiz-adv-x="878" 
d="M373 1475v-203q0 -57 -90 -185l-101 -145h-106l145 266h-100v267h252zM756 1475v-203q0 -57 -90 -185l-101 -145h-106l147 266h-100v267h250z" />
    <glyph glyph-name="quotedblbase" unicode="&#x201e;" horiz-adv-x="493" 
d="M373 266v-203q0 -55 -90 -182l-101 -145h-106l145 264h-100v266h252z" />
    <glyph glyph-name="dagger" unicode="&#x2020;" horiz-adv-x="765" 
d="M711 901h-219v-901h-218v901h-219v205h219v369h218v-369h219v-205z" />
    <glyph glyph-name="daggerdbl" unicode="&#x2021;" horiz-adv-x="765" 
d="M492 901v-328h219v-204h-219v-369h-218v369h-219v204h219v328h-219v205h219v369h218v-369h219v-205h-219z" />
    <glyph glyph-name="bullet" unicode="&#x2022;" horiz-adv-x="876" 
d="M575 547h-274q-33 1 -55 23t-23 55v274q0 33 23 55t55 23h274q33 0 56 -23t22 -55v-274q0 -33 -22 -56q-23 -22 -56 -22z" />
    <glyph glyph-name="ellipsis" unicode="&#x2026;" horiz-adv-x="1382" 
d="M1260 0h-250v266h250v-266zM817 0h-252v266h252v-266zM373 0h-252v266h252v-266z" />
    <glyph glyph-name="perthousand" unicode="&#x2030;" horiz-adv-x="1839" 
d="M1616 158v241q0 39 -31 39h-119q-35 0 -34 -39v-241q0 -39 34 -39h119q31 0 31 39zM1061 158v241q0 39 -31 39h-119q-35 0 -34 -39v-241q0 -39 34 -39h119q31 0 31 39zM1425 565h197q55 0 92 -37t37 -92v-311q0 -55 -36 -91t-93 -36h-197q-57 0 -93 36t-36 91v311
q0 55 37 92t92 37zM870 565h197q55 0 92 -37t37 -92v-311q0 -55 -36 -91t-93 -36h-197q-57 0 -93 36t-36 91v311q0 55 37 92t92 37zM410 1075v242q0 39 -31 39h-119q-35 0 -35 -39v-242q0 -39 35 -39h119q31 0 31 39zM1090 1475l-701 -1475h-201l703 1475h199zM219 1483h197
q55 0 92 -37t37 -92v-312q0 -55 -37 -92t-92 -37h-197q-55 0 -92 37t-37 92v312q0 55 37 92t92 37z" />
    <glyph glyph-name="guilsinglleft" unicode="&#x2039;" horiz-adv-x="604" 
d="M547 1145l-297 -426l297 -424h-246l-262 375v98l262 377h246z" />
    <glyph glyph-name="guilsinglright" unicode="&#x203a;" horiz-adv-x="604" 
d="M563 768v-98l-262 -375h-246l297 424l-297 426h246z" />
    <glyph glyph-name="fraction" unicode="&#x2044;" horiz-adv-x="385" 
d="M692 1475l-821 -1475h-176l821 1475h176z" />
    <glyph glyph-name="zerosuperior" unicode="&#x2070;" horiz-adv-x="757" 
d="M244 1513v-413q0 -31 43 -31h184q43 0 43 31v413q0 31 -43 31h-184q-43 0 -43 -31zM512 909h-266q-78 0 -124 43t-46 113v483q0 70 46 113t124 43h266q78 0 124 -43t46 -113v-483q0 -70 -46 -113t-124 -43z" />
    <glyph glyph-name="foursuperior" unicode="&#x2074;" horiz-adv-x="806" 
d="M473 1214v236l-225 -236h225zM758 1065h-121v-152h-164v152h-397l-33 127l451 508h143v-486h121v-149z" />
    <glyph glyph-name="fivesuperior" unicode="&#x2075;" horiz-adv-x="735" 
d="M643 1536h-399v-197l41 35q49 51 108 51h103q74 0 122 -45t48 -110v-205q0 -66 -48 -111t-122 -45h-260q-68 0 -119 47q-49 47 -49 111v86h168v-45q0 -39 49 -39h168q49 0 49 39v133q0 39 -49 39h-72q-45 0 -98 -20l-35 -15l-170 49v406l565 -4v-160z" />
    <glyph glyph-name="sixsuperior" unicode="&#x2076;" horiz-adv-x="749" 
d="M289 1065h168q49 0 49 39v117q0 39 -49 39h-84q-49 0 -99 -21l-36 -14l2 -121q0 -39 49 -39zM444 1538h-157q-49 0 -49 -39v-182l41 35q57 51 110 51h115q74 0 122 -46t48 -110v-184q0 -63 -48 -109t-122 -47h-260q-68 0 -118 46t-50 112v481q0 64 48 110t122 46h250
q72 0 122 -45t52 -111v-73h-170l-6 26q0 39 -50 39z" />
    <glyph glyph-name="sevensuperior" unicode="&#x2077;" horiz-adv-x="690" 
d="M35 1540v160h612v-129l-403 -658h-185l387 627h-411z" />
    <glyph glyph-name="eightsuperior" unicode="&#x2078;" horiz-adv-x="743" 
d="M446 1237h-149q-59 0 -59 -39v-98q0 -39 49 -39h170q49 0 49 39v98q-1 39 -60 39zM451 1544h-154q-51 0 -51 -39v-80q0 -41 51 -41h149q29 0 40 8t12 33v80q0 39 -47 39zM678 1194v-131q0 -66 -51 -111t-123 -45h-262q-68 0 -118 46t-50 112v131q0 76 84 117
q-76 43 -76 117v114q0 66 50 112t120 46h244q74 0 122 -46t48 -110l2 -119q0 -74 -76 -116q86 -41 86 -117z" />
    <glyph glyph-name="ninesuperior" unicode="&#x2079;" horiz-adv-x="749" 
d="M504 1501q0 39 -49 39h-168q-49 0 -49 -39v-115q0 -39 49 -38h84q35 0 98 22l35 12v119zM297 1065h158q49 0 49 39v186l-41 -35q-49 -51 -109 -51h-112q-70 0 -121 47q-49 47 -49 111v180q0 63 49 111q51 47 121 47h260q74 0 122 -45t48 -111v-479q0 -66 -48 -111
t-122 -45h-250q-70 0 -121 47q-49 47 -49 111v72h168l-2 -35q-4 -39 49 -39z" />
    <glyph glyph-name="Euro" unicode="&#x20ac;" horiz-adv-x="1376" 
d="M563 1247q-94 0 -94 -96v-190h418v-140h-418v-166h418v-141h-418v-195q0 -47 25 -71t69 -25h346q96 0 97 99v145h245v-182q0 -133 -79 -212t-211 -79h-445q-133 0 -212 79t-79 212v231h-164v141h164v166h-164v140h164v227q0 133 80 213t211 80h445q131 0 211 -80t79 -213
v-182h-245v141q0 98 -97 98h-346z" />
    <glyph glyph-name="trademark" unicode="&#x2122;" horiz-adv-x="1544" 
d="M1438 1475v-738h-123v525l-176 -410h-90l-177 410v-525h-122v738h145l199 -451l198 451h146zM633 1352h-199v-615h-133v615h-195v123h527v-123z" />
    <glyph glyph-name="oneeighth" unicode="&#x215b;" horiz-adv-x="1607" 
d="M1307 324h-150q-57 0 -57 -39v-99q0 -39 47 -39h172q47 0 47 39v99q0 39 -59 39zM1311 631h-154q-49 0 -49 -39v-80q0 -25 11 -33t40 -8h150q51 0 51 41v80q0 39 -49 39zM1528 633v-119q0 -74 -76 -117q86 -41 86 -116v-131q0 -62 -47 -108t-123 -46h-262q-74 0 -122 45
t-48 111v131q0 76 84 116q-74 43 -74 117v115q0 65 50 111t120 46h242q74 0 122 -46t48 -109zM1169 1475l-823 -1475h-176l823 1475h176zM203 690v613l-158 -50v140l193 84h133v-787h-168z" />
    <glyph glyph-name="threeeighths" unicode="&#x215c;" horiz-adv-x="1851" 
d="M1548 319h-149q-57 0 -58 -38v-99q0 -39 48 -39h172q47 0 47 39v99q-1 38 -60 38zM1552 627h-153q-49 0 -49 -39v-80q0 -25 11 -33t40 -8h149q51 0 52 41v80q-1 39 -50 39zM1769 629v-119q0 -74 -75 -117q86 -41 86 -117v-131q0 -63 -47 -108t-123 -45h-262
q-74 0 -122 45t-48 110v132q0 76 84 116q-74 43 -74 117v115q0 65 50 111t120 46h241q74 0 122 -46t48 -109zM1411 1470l-823 -1472h-176l823 1472h176zM432 836q51 0 51 38v99q0 39 -59 39h-166v147h166q29 0 40 8t11 33v80q0 39 -49 39h-143q-51 0 -52 -39v-49h-168v86
q0 63 50 110q51 47 120 48h236q74 0 122 -45t48 -111v-115q0 -74 -74 -117q84 -41 84 -116v-131q0 -66 -48 -111t-122 -45h-256q-68 0 -119 47q-49 47 -49 111v86h168l-2 -54q0 -39 49 -38h162z" />
    <glyph glyph-name="fiveeighths" unicode="&#x215d;" horiz-adv-x="1863" 
d="M1561 319h-150q-59 0 -59 -38v-99q0 -39 49 -39h170q49 0 49 39v99q0 38 -59 38zM1565 627h-154q-51 0 -51 -39v-80q0 -25 11 -33t42 -8h150q29 0 40 8t11 33v80q0 39 -49 39zM1792 276v-131q0 -63 -47 -108t-123 -45h-262q-72 0 -123 45t-51 110v132q0 78 86 116
q-76 43 -76 117v115q0 65 50 111t120 46h242q72 0 123 -44t51 -111l2 -119q0 -74 -78 -117q86 -41 86 -117zM1423 1470l-823 -1472h-176l823 1472h176zM643 1311h-399v-197l41 35q49 51 108 51h103q74 0 122 -45t48 -111v-204q0 -66 -48 -111t-122 -45h-260q-68 0 -119 47
q-49 47 -49 111v86h168v-45q0 -39 49 -39h168q49 0 49 39v133q0 39 -49 39h-72q-45 0 -98 -21l-35 -14l-170 49v406l565 -5v-159z" />
    <glyph glyph-name="seveneighths" unicode="&#x215e;" horiz-adv-x="1654" 
d="M1219 1470l-824 -1472h-176l823 1472h177zM35 1311v159h612v-129l-403 -657h-185l387 627h-411zM1358 324h-150q-59 0 -59 -39v-99q0 -39 49 -39h170q49 0 49 39v99q0 39 -59 39zM1362 631h-154q-51 0 -51 -39v-80q0 -41 51 -41h150q29 0 40 8t11 33v80q0 39 -47 39z
M1589 281v-131q0 -66 -50 -110t-124 -44h-262q-72 0 -120 45t-48 111v131q0 76 84 116q-76 43 -76 117v115q0 65 50 111t120 46h244q74 0 122 -46t48 -109l2 -119q0 -74 -76 -117q86 -41 86 -116z" />
    <glyph glyph-name="minus" unicode="&#x2212;" horiz-adv-x="1040" 
d="M121 870h799v-225h-799v225z" />
    <glyph glyph-name="infinity" unicode="&#x221e;" horiz-adv-x="1703" 
d="M1264 936h-177q-45 0 -69 -28t-25 -72v-185q0 -45 25 -73t72 -27h176q48 -1 72 27t24 73l-4 185q0 44 -25 72t-69 28zM434 551h172q47 0 72 28t24 72v185q0 45 -24 73q-25 27 -70 27h-176q-45 0 -70 -28t-24 -72v-185q0 -45 24 -73q25 -27 72 -27zM1071 1155h215
q131 0 211 -80t80 -209v-245q0 -129 -80 -209t-211 -80h-215q-121 0 -219 131q-98 -131 -219 -131h-215q-129 0 -211 78q-80 78 -80 208v248q0 129 80 209t211 80h215q121 0 219 -131q98 131 219 131z" />
    <glyph glyph-name="notequal" unicode="&#x2260;" horiz-adv-x="1040" 
d="M920 678v-221h-439l-92 -224h-172l92 224h-188v221h280l72 176h-352v221h444l86 209h172l-86 -209h183v-221h-275l-72 -176h347z" />
    <glyph glyph-name="fi" unicode="&#xfb01;" horiz-adv-x="1323" 
d="M1176 1106v-1106h-236v1106h236zM1184 1305h-252v237h252v-237zM758 1341h-195q-41 1 -65 -27t-25 -69v-139h285v-195h-283v-911h-235v911h-185v195h185v149q0 127 79 207q80 80 207 80h232v-201z" />
    <glyph glyph-name="fl" unicode="&#xfb02;" horiz-adv-x="1316" 
d="M938 1542h233v-1542h-233v1542zM758 1341h-195q-41 1 -65 -27t-25 -69v-139h285v-195h-283v-911h-235v911h-185v195h185v149q0 127 79 207q80 80 207 80h232v-201z" />
    <glyph glyph-name="Q.ss01" horiz-adv-x="1341" 
d="M862 227q94 0 94 97v827q0 47 -24 72q-25 25 -70 24h-383q-94 0 -94 -96v-827q0 -47 25 -72t69 -25h383zM430 1483h481q131 0 211 -80t80 -213v-905q0 -133 -79 -212t-212 -79h-116v-250h-246v250h-119q-133 0 -212 79t-79 212v905q0 133 80 213t211 80z" />
    <glyph glyph-name="zero.subs" horiz-adv-x="757" 
d="M244 367v-412q0 -31 43 -31h184q43 0 43 31v412q0 31 -43 30h-184q-43 1 -43 -30zM512 -236h-266q-78 0 -124 43t-46 113v481q0 70 46 113t124 43h266q78 0 124 -43t46 -113v-481q0 -70 -46 -113t-124 -43z" />
    <glyph glyph-name="one.subs" horiz-adv-x="477" 
d="M203 -229v610l-158 -49v139l193 84h133v-784h-168z" />
    <glyph glyph-name="two.subs" horiz-adv-x="718" 
d="M238 356v-43h-162v86q0 63 48 109t122 47h243q70 0 120 -46t50 -112v-141q0 -102 -170 -156l-206 -63q-50 -4 -52 -37v-74h431v-159h-599v272q0 102 170 156l207 63q50 4 52 39v59q0 39 -50 39h-153q-51 0 -51 -39z" />
    <glyph glyph-name="three.subs" horiz-adv-x="720" 
d="M432 -84q51 0 51 39v96q0 39 -59 39h-166v148h166q29 0 40 8t11 33v79q0 39 -49 39h-143q-51 0 -52 -39v-49h-168v86q0 63 50 111q51 47 120 47h236q74 0 122 -45t48 -111v-114q0 -74 -74 -117q84 -41 84 -117v-129q0 -63 -48 -109t-122 -47h-256q-68 0 -118 46t-50 112
v84h168l-2 -51q-4 -39 49 -39h162z" />
    <glyph glyph-name="four.subs" horiz-adv-x="806" 
d="M473 68v235l-225 -235h225zM758 -80h-121v-151h-164v151h-397l-33 125l451 508h143v-485h121v-148z" />
    <glyph glyph-name="five.subs" horiz-adv-x="735" 
d="M643 389h-399v-196l41 34q49 51 108 52h103q74 1 122 -45t48 -111v-203q0 -63 -48 -109t-122 -47h-260q-68 0 -118 46t-50 112v84h168v-43q0 -39 49 -39h168q49 0 49 39v131q0 39 -49 39h-72q-45 0 -98 -20l-35 -15l-170 49v406l565 -4v-160z" />
    <glyph glyph-name="six.subs" horiz-adv-x="749" 
d="M289 -80h168q49 0 49 39v115q0 39 -49 39h-84q-49 0 -99 -21l-36 -14l2 -119q0 -39 49 -39zM444 391h-157q-49 0 -49 -39v-182l41 35q57 51 110 51h115q74 0 122 -46t48 -110v-182q0 -66 -48 -111t-122 -45h-260q-68 0 -118 48t-50 110v479q0 63 48 109t122 47h250
q72 0 122 -45t52 -111v-73h-170l-6 26q0 39 -50 39z" />
    <glyph glyph-name="seven.subs" horiz-adv-x="690" 
d="M35 393v160h612v-129l-403 -655h-185l387 624h-411z" />
    <glyph glyph-name="eight.subs" horiz-adv-x="743" 
d="M446 90h-149q-59 0 -59 -39v-96q0 -39 49 -39h170q49 0 49 39v96q-1 39 -60 39zM451 397h-154q-51 0 -51 -39v-79q0 -41 51 -41h149q29 0 40 8t12 33v79q0 39 -47 39zM678 47v-129q0 -66 -51 -111t-123 -45h-262q-68 0 -118 48t-50 110v129q0 76 84 117q-76 43 -76 117
v114q0 66 50 112t120 46h244q74 -1 122 -47t48 -109l2 -118q0 -74 -76 -117q86 -41 86 -117z" />
    <glyph glyph-name="nine.subs" horiz-adv-x="749" 
d="M504 354q0 39 -49 39h-168q-49 0 -49 -39v-114q0 -39 49 -39h84q35 0 98 22l35 13v118zM455 -80q49 0 49 39v184l-41 -34q-49 -51 -109 -52h-112q-70 0 -121 47q-49 47 -49 111v180q0 63 49 111q51 47 121 47h260q74 0 122 -45t48 -111v-477q0 -63 -48 -109t-122 -47
h-250q-70 0 -120 46t-50 112v72h168l-2 -35q-4 -39 49 -39h158z" />
    <glyph glyph-name="zero.tf" horiz-adv-x="1308" 
d="M389 1151v-827q0 -98 96 -99h334q96 0 96 99v827q0 98 -96 98h-334q-96 0 -96 -98zM870 -6h-434q-133 0 -212 79t-79 212v905q0 133 80 213t213 80h432q133 0 213 -80t80 -213v-905q0 -133 -79 -212t-214 -79z" />
    <glyph glyph-name="one.tf" horiz-adv-x="1308" 
d="M1120 0h-909v231h344v1006l-344 -102v237l342 103h248v-1244h319v-231z" />
    <glyph glyph-name="two.tf" horiz-adv-x="1308" 
d="M168 1036v152q0 125 84 209t209 84h409q125 0 209 -84t84 -209v-244q-1 -116 -77 -180t-220 -117l-372 -139q-27 -10 -36 -16t-31 -19q-36 -21 -36 -67v-179h776v-229h-1022v451q0 117 77 181t220 115l373 140q45 16 60 25q43 26 45 73v156q0 47 -28 79t-79 31h-305
q-49 1 -79 -29t-28 -79l7 -105h-240z" />
    <glyph glyph-name="three.tf" horiz-adv-x="1308" 
d="M807 217q102 0 102 107v215q0 104 -123 104h-321v219h321q57 0 83 22t26 85v178q0 106 -102 106h-295q-104 0 -105 -106v-103h-246v142q0 125 84 209t209 84h404q129 0 213 -84t84 -209v-211q0 -145 -131 -221q72 -31 110 -88t39 -131v-248q0 -127 -82 -209t-211 -82
h-436q-127 0 -210 83t-83 208v141h246l-8 -104q-8 -106 104 -107h328z" />
    <glyph glyph-name="four.tf" horiz-adv-x="1308" 
d="M797 539v596l-432 -596h432zM1241 319h-205v-319h-239v319h-691l-40 187l720 969h250v-936h205v-220z" />
    <glyph glyph-name="five.tf" horiz-adv-x="1308" 
d="M862 961q125 0 209 -84t84 -209v-383q0 -125 -83 -208t-210 -83h-420q-127 0 -210 83t-82 208v145h245v-104q0 -104 105 -105h309q104 0 104 107v305q1 53 -27 81t-75 27h-121q-115 0 -211 -57l-63 -39l-246 74v756h956v-232l-714 -2v-436l63 53q121 102 227 103h160z
" />
    <glyph glyph-name="six.tf" horiz-adv-x="1308" 
d="M809 221q102 0 102 107v266q1 51 -27 79t-75 27h-135q-113 0 -209 -59l-66 -39l-4 -276q-2 -104 105 -105h309zM506 1251q-104 0 -105 -106v-375l72 57q121 94 223 95h176q127 0 209 -82t82 -209v-344q0 -127 -82 -209t-211 -82h-417q-127 0 -210 83t-83 208v901
q0 125 84 209t209 84h401q125 0 209 -84t84 -209v-129h-246l-2 84q0 53 -28 81t-74 27h-291z" />
    <glyph glyph-name="seven.tf" horiz-adv-x="1308" 
d="M113 1243v232h1085v-183l-688 -1292h-268l661 1243h-790z" />
    <glyph glyph-name="eight.tf" horiz-adv-x="1308" 
d="M788 641h-284q-125 0 -125 -104v-215q0 -106 104 -107h326q104 0 104 107v215q0 104 -125 104zM797 1251h-297q-104 0 -105 -106v-178q0 -61 26 -84t85 -23h285q59 0 86 23q25 23 24 84v178q0 106 -104 106zM1165 532v-247q0 -125 -83 -208t-210 -83h-436q-127 0 -210 83
t-83 208v247q0 76 40 134t110 90q-131 76 -131 221v211q0 125 84 209t209 84h403q125 0 210 -85t83 -208l-4 -215q-4 -147 -131 -221q149 -64 149 -220z" />
    <glyph glyph-name="nine.tf" horiz-adv-x="1308" 
d="M793 1251h-310q-102 0 -102 -106v-252q0 -51 28 -79t78 -28h138q119 0 211 58l63 39l-2 264q0 104 -104 104zM506 223h291q104 0 104 107v391l-63 -53q-121 -102 -228 -103h-178q-125 0 -208 83t-83 210v330q0 125 84 209t213 84h418q125 0 209 -84t84 -209v-901
q0 -125 -83 -208t-210 -83h-401q-127 0 -210 83t-83 208v129h246l-9 -86q0 -51 28 -79t79 -28z" />
    <glyph glyph-name="zero.dnom" horiz-adv-x="757" 
d="M244 600v-414q0 -31 43 -30h184q43 0 43 30v414q0 31 -43 31h-184q-43 0 -43 -31zM512 -2h-266q-80 0 -125 42t-45 112v483q0 70 46 113t124 43h266q78 0 124 -43t46 -113v-483q0 -70 -45 -112t-125 -42z" />
    <glyph glyph-name="one.dnom" horiz-adv-x="477" 
d="M203 0v612l-158 -49v139l193 84h133v-786h-168z" />
    <glyph glyph-name="two.dnom" horiz-adv-x="718" 
d="M238 590v-43h-162v86q0 63 48 109t122 46h243q70 0 120 -46t50 -111v-142q0 -102 -170 -155l-206 -64q-50 -4 -52 -39v-73h431v-158h-599v272q0 102 170 156l207 64q50 4 52 38v60q0 39 -50 39h-153q-51 0 -51 -39z" />
    <glyph glyph-name="three.dnom" horiz-adv-x="720" 
d="M270 147h162q51 0 51 39v99q0 39 -59 39h-166v147h166q29 0 40 8t11 33v80q0 39 -49 39h-143q-51 0 -52 -39v-49h-168v86q0 63 50 110q51 47 120 47h236q74 0 122 -45t48 -110v-115q0 -74 -74 -117q84 -41 84 -116v-131q0 -66 -47 -110t-123 -44h-256q-72 0 -120 46
t-48 110v86h168l-2 -54q0 -39 49 -39z" />
    <glyph glyph-name="four.dnom" horiz-adv-x="806" 
d="M473 301v236l-225 -236h225zM758 152h-121v-152h-164v152h-397l-33 127l451 507h143v-485h121v-149z" />
    <glyph glyph-name="five.dnom" horiz-adv-x="735" 
d="M643 623h-399v-197l41 35q49 51 108 51h103q74 0 122 -45t48 -111v-204q0 -66 -48 -110t-122 -44h-260q-72 0 -120 46t-48 110v86h168v-45q0 -39 49 -39h168q49 0 49 39v133q0 39 -49 39h-72q-45 0 -98 -21l-35 -14l-170 49v405l565 -4v-159z" />
    <glyph glyph-name="six.dnom" horiz-adv-x="749" 
d="M457 152q49 0 49 38v117q0 39 -49 39h-84q-41 0 -99 -20l-36 -13l2 -123q0 -39 49 -38h168zM444 627h-157q-49 0 -49 -39v-185l41 37q57 51 110 52h115q70 0 120 -48t50 -110v-184q0 -62 -47 -108t-123 -46h-260q-72 0 -120 45t-48 111v479q0 65 50 111t120 46h250
q72 0 122 -45t52 -110v-72h-170l-6 27q0 39 -50 39z" />
    <glyph glyph-name="seven.dnom" horiz-adv-x="690" 
d="M35 627v159h612v-129l-403 -657h-185l387 627h-411z" />
    <glyph glyph-name="eight.dnom" horiz-adv-x="743" 
d="M446 324h-149q-59 0 -59 -39v-99q0 -39 49 -39h170q49 0 49 39v99q-1 39 -60 39zM451 631h-154q-51 0 -51 -39v-80q0 -41 51 -41h149q29 0 40 8t12 33v80q0 39 -47 39zM678 281v-131q0 -66 -50 -110t-124 -44h-262q-72 0 -120 45t-48 111v131q0 76 84 116q-76 43 -76 117
v115q0 65 50 111t120 46h244q74 0 122 -46t48 -109l2 -119q0 -74 -76 -117q86 -41 86 -116z" />
    <glyph glyph-name="nine.dnom" horiz-adv-x="749" 
d="M504 588q0 39 -49 39h-168q-49 0 -49 -39v-115q0 -39 49 -39h84q35 0 98 23l35 12v119zM297 152h158q49 0 49 38v187l-41 -35q-49 -51 -109 -51h-112q-70 0 -121 47q-49 47 -49 111v180q0 63 49 110q51 47 121 47h260q74 0 122 -45t48 -110v-479q0 -66 -47 -110t-123 -44
h-250q-74 0 -122 46t-48 110v71h168l-2 -35q-2 -20 11 -29t38 -9z" />
    <glyph glyph-name="zero.numr" horiz-adv-x="757" 
d="M244 1288v-414q0 -31 43 -30h184q43 0 43 30v414q0 31 -43 31h-184q-43 0 -43 -31zM512 684h-266q-78 0 -124 43t-46 113v483q0 70 46 113t124 43h266q78 0 124 -43t46 -113v-483q0 -70 -46 -113t-124 -43z" />
    <glyph glyph-name="one.numr" horiz-adv-x="477" 
d="M203 690v613l-158 -50v140l193 84h133v-787h-168z" />
    <glyph glyph-name="two.numr" horiz-adv-x="718" 
d="M238 1278v-43h-162v86q0 63 48 109t122 47h243q70 0 120 -46t50 -112v-141q0 -102 -170 -156l-206 -64q-50 -4 -52 -38v-74h431v-160h-599v275q0 102 170 155l207 64q50 4 52 39v59q0 39 -50 39h-153q-51 0 -51 -39z" />
    <glyph glyph-name="three.numr" horiz-adv-x="720" 
d="M432 836q51 0 51 38v99q0 39 -59 39h-166v147h166q29 0 40 8t11 33v80q0 39 -49 39h-143q-51 0 -52 -39v-49h-168v86q0 63 50 110q51 47 120 48h236q74 0 122 -45t48 -111v-115q0 -74 -74 -117q84 -41 84 -116v-131q0 -66 -48 -111t-122 -45h-256q-68 0 -119 47
q-49 47 -49 111v86h168l-2 -54q0 -39 49 -38h162z" />
    <glyph glyph-name="four.numr" horiz-adv-x="806" 
d="M473 989v236l-225 -236h225zM758 840h-121v-152h-164v152h-397l-33 127l451 508h143v-486h121v-149z" />
    <glyph glyph-name="five.numr" horiz-adv-x="735" 
d="M643 1311h-399v-197l41 35q49 51 108 51h103q74 0 122 -45t48 -111v-204q0 -66 -48 -111t-122 -45h-260q-68 0 -119 47q-49 47 -49 111v86h168v-45q0 -39 49 -39h168q49 0 49 39v133q0 39 -49 39h-72q-45 0 -98 -21l-35 -14l-170 49v406l565 -5v-159z" />
    <glyph glyph-name="six.numr" horiz-adv-x="749" 
d="M289 840h168q49 0 49 39v116q0 39 -49 39h-84q-49 0 -99 -20l-36 -15l2 -120q0 -39 49 -39zM444 1313h-157q-49 0 -49 -39v-182l41 34q57 51 110 52h115q74 0 122 -46t48 -110v-184q0 -64 -48 -110t-122 -46h-260q-68 0 -118 46t-50 112v481q0 63 48 109t122 47h250
q72 0 122 -45t52 -111v-74h-170l-6 27q0 39 -50 39z" />
    <glyph glyph-name="seven.numr" horiz-adv-x="690" 
d="M35 1315v160h612v-129l-403 -658h-185l387 627h-411z" />
    <glyph glyph-name="eight.numr" horiz-adv-x="743" 
d="M446 1012h-149q-59 0 -59 -39v-99q0 -39 49 -38h170q49 0 49 38v99q-1 39 -60 39zM451 1319h-154q-51 0 -51 -39v-80q0 -41 51 -41h149q29 0 40 8t12 33v80q0 39 -47 39zM678 969v-131q0 -66 -51 -111t-123 -45h-262q-68 0 -118 46t-50 112v131q0 76 84 116
q-76 43 -76 117v115q0 66 50 112t120 46h244q74 -1 122 -47t48 -109l2 -119q0 -74 -76 -117q86 -41 86 -116z" />
    <glyph glyph-name="nine.numr" horiz-adv-x="749" 
d="M504 1276q0 39 -49 39h-168q-49 0 -49 -39v-115q0 -39 49 -39h84q35 0 98 23l35 12v119zM297 840h158q49 0 49 39v186l-41 -35q-49 -51 -109 -51h-112q-70 0 -121 47q-49 47 -49 111v180q0 63 49 110q51 47 121 48h260q74 0 122 -45t48 -111v-479q0 -66 -48 -111
t-122 -45h-250q-70 0 -121 47q-49 47 -49 111v71h168l-2 -34q-4 -39 49 -39z" />
    <glyph glyph-name="numbersign.tf" horiz-adv-x="1308" 
d="M821 907h-233l-99 -315h234zM1141 592v-219h-256l-115 -373h-231l116 373h-233l-117 -373h-229l114 373h-161v219h231l98 315h-188v219h256l106 349h232l-109 -349h234l108 349h230l-109 -349h164v-219h-231l-99 -315h189z" />
    <glyph glyph-name="florin.tf" horiz-adv-x="1308" 
d="M1059 1243h-215q-96 0 -96 -98v-217h290v-219h-290v-420q0 -131 -78 -209t-209 -78h-211v231h158q96 0 96 99v379h-240v219h240v258q0 131 78 209t209 78h268v-232z" />
    <glyph glyph-name="cent.tf" horiz-adv-x="1308" 
d="M408 508q0 -45 24 -74q25 -27 72 -26h74v663l-76 -4q-96 -8 -94 -100v-459zM817 1071h-65v-663h65q47 0 72 28t24 74v86h226v-109q0 -131 -80 -211t-213 -79h-80v-197h-201v197h-88q-133 -1 -213 79t-80 213v504q0 133 80 213t213 80h88v187h201v-187h80q133 0 213 -80
t80 -211v-108h-226l-2 82q-1 47 -25 75t-69 27z" />
    <glyph glyph-name="currency.tf" horiz-adv-x="1308" 
d="M537 1001q-45 1 -70 -27t-25 -73v-299q0 -45 25 -73t72 -27h223q48 0 72 28t24 74l-4 295q0 47 -25 75t-69 27h-223zM786 301h-272q-63 0 -117 18l-168 -165l-145 147l164 166q-20 55 -21 123v328q0 66 19 116l-162 164l145 148l164 -162q55 20 123 20h272q68 0 123 -20
l164 162l146 -148l-162 -164q18 -50 18 -116l-4 -328q0 -68 -20 -123l164 -166l-146 -147l-168 165q-51 -18 -117 -18z" />
    <glyph glyph-name="dollar.tf" horiz-adv-x="1308" 
d="M731 215h86q47 -1 71 27t25 75l-2 168q0 49 -20 68q-23 18 -74 31l-86 20v-389zM389 1151v-145q1 -50 23 -68t75 -33l76 -18v366l-80 -2q-45 1 -69 -27t-25 -73zM1163 524v-241q0 -133 -79 -212t-212 -79h-120v-195h-201v195h-113q-133 0 -212 79t-79 212v174h240v-138
q0 -45 25 -73t71 -27h82v426l-123 29q-295 68 -295 295v221q0 133 80 213t213 80h111v194h201v-194h98q133 0 213 -80t80 -213v-156h-242v119q-1 47 -25 75t-69 27h-70v-405l131 -31q295 -68 295 -295z" />
    <glyph glyph-name="Euro.tf" horiz-adv-x="1302" 
d="M985 1008v145q0 98 -96 98h-338q-96 0 -96 -98v-190h411v-140h-411v-166h411v-141h-411v-194q0 -98 96 -99h338q96 0 96 99v145h246v-182q0 -133 -79 -212t-212 -79h-436q-135 0 -214 79t-79 212v231h-162v141h162v166h-162v140h162v227q0 133 80 213t213 80h436
q131 0 211 -80t80 -213v-182h-246z" />
    <glyph glyph-name="sterling.tf" horiz-adv-x="1308" 
d="M1184 231v-231h-1108v231h106q61 0 62 62v307h-168v225h168v363q0 139 81 216t216 77h342q137 0 215 -78t78 -215v-178h-246v143q0 98 -96 98h-250q-94 0 -95 -98v-328h345v-225h-345v-369h695z" />
    <glyph glyph-name="yen.tf" horiz-adv-x="1308" 
d="M1100 692v-137h-312l-12 -27v-75h324v-138h-324v-315h-246v315h-323v138h323v75l-12 27h-311v137h242l-392 783h273l323 -672l324 672h272l-391 -783h242z" />
    </font>
</defs>
</svg>
